<svg xmlns="http://www.w3.org/2000/svg" fill="none" viewBox="0 0 974 248">
  <path fill="#3A5959" d="M443.072 123.775C443.072 55.415 387.656 0 319.297 0v247.55c68.359 0 123.775-55.416 123.775-123.775Z"/>
  <path fill="#47A178" d="M195.522 123.775C195.522 55.415 250.938 0 319.297 0v247.55c-68.359 0-123.775-55.416-123.775-123.775Z"/>
  <path fill="#fff" d="M473.522 88.991V239.54h51.617c40.433 0 61.94-20.001 61.94-61.08v-28.389c0-41.078-21.507-61.08-61.94-61.08h-51.617Zm28.389 25.808h23.658c24.303 0 33.121 12.475 33.121 34.412v30.11c0 21.937-8.818 34.411-33.121 34.411h-23.658v-98.933ZM604.33 148.35v31.831c0 39.573 23.443 62.37 61.94 62.37 38.498 0 61.941-22.797 61.941-62.37V148.35c0-38.497-23.443-62.37-61.941-62.37-38.497 0-61.94 23.873-61.94 62.37Zm28.389-1.29c0-20.432 11.829-35.702 33.551-35.702 21.077 0 33.551 14.41 33.551 35.702v34.411c0 20.862-10.108 35.702-33.551 35.702-22.797 0-33.551-13.98-33.551-35.702V147.06ZM777.912 88.991 736.188 239.54h29.25l9.033-33.551h52.477l9.033 33.551h29.25L823.507 88.991h-45.595Zm3.226 91.19 18.281-67.532H802l18.281 67.532h-39.143ZM973.522 88.991h-28.389v105.384c0 14.195-7.313 22.368-20.002 22.368-13.549 0-21.292-8.388-21.292-22.368v-14.194H875.45v14.194c0 30.325 19.571 48.176 50.541 48.176 29.465 0 47.531-16.99 47.531-48.176V88.991ZM473.482 25.66v1.998h10.996v-1.832c0-7.58 5.082-10.996 11.079-10.996 5.998 0 9.913 3.415 9.913 9.163 0 6.831-4.998 9.58-13.328 11.83-10.746 2.915-18.327 8.08-18.327 18.66v9.995h42.318v-9.996h-31.322v-1c0-5.414 4.332-7.164 12.496-9.246 12.245-3.082 19.159-8.414 19.159-19.91C516.466 12.331 506.72 5 495.391 5c-11.829 0-21.909 6.998-21.909 20.66ZM522.661 28.491v13.662c0 15.328 8.997 23.492 22.325 23.492 13.329 0 22.325-8.164 22.325-23.492V28.491C567.311 13.664 558.315 5 544.986 5c-13.328 0-22.325 8.664-22.325 23.491Zm10.996-.5c0-7.747 4.165-13.161 11.329-13.161 6.914 0 11.329 5.081 11.329 13.162v14.661c0 7.914-3.498 13.162-11.329 13.162-7.58 0-11.329-4.915-11.329-13.162V27.992ZM595.071 6.166l20.492 38.57v19.742h10.996V44.736l20.493-38.57h-12.495l-12.746 24.825h-1.499L607.566 6.166h-12.495ZM653.075 6.166v58.312h38.82v-9.996h-27.824V40.071h24.991v-9.997h-24.991V16.163h27.324V6.166h-38.32ZM712.2 6.166l-16.161 58.312h11.33l3.498-12.995h20.326l3.499 12.995h11.329l-16.16-58.312H712.2Zm1.25 35.32 7.081-26.156h.999l7.081 26.157H713.45ZM796.963 24.576c0-11.08-7.664-18.326-18.66-18.326h-25.658v58.228h10.996V42.903h9.747l10.746 21.575h12.162l-11.829-22.491c7.497-2.25 12.496-8.58 12.496-17.41Zm-33.322-8.33h13.579c5.248 0 8.747 3.249 8.747 8.33 0 5.082-3.499 8.33-8.747 8.33h-13.579v-16.66ZM825.553 5c-11.329 0-20.243 6.498-20.243 16.91 0 10.58 7.165 14.745 19.243 17.41l.75.167c7.664 1.667 11.996 3.333 11.996 8.414 0 4.332-3.332 8.08-10.413 8.08-8.83 0-12.912-4.831-12.912-11.995v-1.5h-10.829v1.833c0 13.662 9.163 21.326 23.408 21.326 12.412 0 21.575-6.581 21.575-18.327 0-10.58-7.08-14.828-19.076-17.494l-.75-.166c-6.997-1.583-12.162-2.583-12.162-8.08 0-4 3.582-6.915 9.413-6.915 6.664 0 10.913 2.916 10.913 9.58v1.75h10.663v-2.5c0-11.662-9.08-18.493-21.576-18.493ZM879.371 29.158v12.329c0 15.328 9.08 24.158 23.991 24.158s23.992-8.83 23.992-24.158v-12.33c0-14.91-9.081-24.157-23.992-24.157-14.911 0-23.991 9.247-23.991 24.158Zm10.996-.5c0-7.914 4.582-13.828 12.995-13.828 8.164 0 12.996 5.581 12.996 13.828v13.329c0 8.08-3.916 13.828-12.996 13.828-8.83 0-12.995-5.415-12.995-13.828V28.658ZM936.329 6.166v58.312h10.996v-24.24h24.491V30.24h-24.491V16.163h26.157V6.166h-37.153Z"/>
  <path fill="#A3C386" d="M139.705 176.17c-36.374 0-65.862 29.645-65.862 66.214h131.724c0-36.569-29.487-66.214-65.862-66.214ZM16.082 5h82.415v72.554H16.082z"/>
  <path fill="#47A178" d="M18.9 176.17h118.34v66.214H18.9z"/>
  <path fill="#3A5959" d="M173.869 80.371C173.869 38.745 140.124 5 98.497 5v150.743c41.627 0 75.372-33.745 75.372-75.372Z"/>
  <path fill="#3A5959" d="M18.016 155.563c-24.021 24.021-24.021 62.966 0 86.987l86.987-86.987c-24.021-24.021-62.967-24.021-86.987 0Z"/>
  <path fill="#47A178" d="M112.586 80.02c0 26.648-21.603 48.251-48.252 48.251s-48.252-21.603-48.252-48.252 21.603-48.252 48.252-48.252c26.648 0 48.252 21.603 48.252 48.252Z"/>
</svg>
