<svg width="733" height="176" viewBox="0 0 733 176" fill="none" xmlns="http://www.w3.org/2000/svg" preserveAspectRatio="xMinYMin meet">
<path d="M234 1.57032H294.223C317.525 1.72777 335.001 11.4106 346.652 30.6189C350.824 37.0741 353.461 43.8443 354.563 50.9293C355.429 58.0143 355.862 70.2557 355.862 87.6533C355.862 106.153 355.193 119.064 353.855 126.385C353.225 130.085 352.28 133.391 351.021 136.304C349.683 139.138 348.069 142.09 346.179 145.16C341.141 153.268 334.135 159.96 325.161 165.234C316.265 170.902 305.362 173.736 292.451 173.736H234V1.57032ZM260.096 149.057H291.271C305.913 149.057 316.54 144.058 323.153 134.06C326.066 130.36 327.916 125.676 328.703 120.008C329.412 114.419 329.766 103.949 329.766 88.598C329.766 73.6407 329.412 62.9345 328.703 56.4792C327.758 50.024 325.515 44.7889 321.972 40.7741C314.73 30.7764 304.496 25.9349 291.271 26.2498H260.096V149.057Z" fill="currentColor"/>
<path d="M366.988 87.6533C366.988 67.6578 367.579 54.275 368.76 47.5049C370.019 40.7347 371.948 35.2635 374.546 31.0912C378.718 23.1403 385.409 16.0553 394.62 9.83618C403.673 3.53839 414.97 0.310765 428.51 0.15332C442.208 0.310765 453.622 3.53839 462.754 9.83618C471.807 16.0553 478.341 23.1403 482.356 31.0912C485.269 35.2635 487.276 40.7347 488.378 47.5049C489.402 54.275 489.914 67.6578 489.914 87.6533C489.914 107.334 489.402 120.638 488.378 127.566C487.276 134.493 485.269 140.043 482.356 144.215C478.341 152.166 471.807 159.173 462.754 165.234C453.622 171.532 442.208 174.838 428.51 175.153C414.97 174.838 403.673 171.532 394.62 165.234C385.409 159.173 378.718 152.166 374.546 144.215C373.286 141.618 372.145 139.138 371.121 136.776C370.177 134.336 369.389 131.266 368.76 127.566C367.579 120.638 366.988 107.334 366.988 87.6533ZM393.203 87.6533C393.203 104.579 393.833 116.033 395.092 122.016C396.194 127.999 398.438 132.84 401.823 136.54C404.578 140.082 408.2 142.956 412.687 145.16C417.095 147.758 422.37 149.057 428.51 149.057C434.729 149.057 440.122 147.758 444.687 145.16C449.017 142.956 452.481 140.082 455.079 136.54C458.464 132.84 460.786 127.999 462.046 122.016C463.227 116.033 463.817 104.579 463.817 87.6533C463.817 70.728 463.227 59.1952 462.046 53.0548C460.786 47.2293 458.464 42.4666 455.079 38.7667C452.481 35.2242 449.017 32.2721 444.687 29.9104C440.122 27.6275 434.729 26.4073 428.51 26.2498C422.37 26.4073 417.095 27.6275 412.687 29.9104C408.2 32.2721 404.578 35.2242 401.823 38.7667C398.438 42.4666 396.194 47.2293 395.092 53.0548C393.833 59.1952 393.203 70.728 393.203 87.6533Z" fill="currentColor"/>
<path d="M583.344 112.097L558.428 36.8773H557.956L533.04 112.097H583.344ZM590.783 135.241H525.483L512.258 173.736H484.626L547.21 1.57032H569.056L631.64 173.736H604.127L590.783 135.241Z" fill="currentColor"/>
<path d="M653.249 137.485C655.69 140.712 658.839 143.349 662.696 145.396C666.554 147.837 671.08 149.057 676.276 149.057C683.203 149.214 689.816 146.813 696.114 141.854C699.184 139.413 701.585 136.186 703.317 132.171C705.128 128.313 706.033 123.472 706.033 117.647V1.57032H732.129V120.244C731.814 137.563 726.146 150.946 715.125 160.393C704.183 170.076 691.469 174.996 676.984 175.153C656.989 174.681 642.071 167.202 632.231 152.717L653.249 137.485Z" fill="currentColor"/>
<path d="M87 175.576C135.049 175.576 174 136.625 174 88.5762L174 1.57617C125.951 1.57617 87 40.5274 87 88.5762L87 175.576Z" fill="#FD5A3B"/>
<path d="M87 175.576C38.9512 175.576 -7.62939e-06 136.625 -7.62939e-06 88.5762L4.57764e-05 1.57617C48.0488 1.57617 87 40.5274 87 88.5762L87 175.576Z" fill="#982E0A"/>
</svg>
