<svg width="766" height="176" viewBox="0 0 766 176" fill="none" xmlns="http://www.w3.org/2000/svg" preserveAspectRatio="xMinYMin meet">
  <title>DOAJ Logotype</title>
  <path d="M267 1.70558H327.223C350.525 1.86302 368.001 11.5459 379.652 30.7542C383.824 37.2094 386.461 43.9795 387.563 51.0646C388.429 58.1496 388.862 70.3909 388.862 87.7886C388.862 106.288 388.193 119.199 386.855 126.52C386.225 130.22 385.28 133.526 384.021 136.439C382.683 139.273 381.069 142.225 379.179 145.295C374.141 153.404 367.135 160.095 358.161 165.37C349.265 171.038 338.362 173.872 325.451 173.872H267V1.70558ZM293.096 149.192H324.271C338.913 149.192 349.54 144.193 356.153 134.195C359.066 130.496 360.916 125.812 361.703 120.144C362.412 114.554 362.766 104.084 362.766 88.7332C362.766 73.776 362.412 63.0697 361.703 56.6145C360.758 50.1592 358.515 44.9242 354.972 40.9094C347.73 30.9116 337.496 26.0702 324.271 26.3851H293.096V149.192Z" fill="currentColor"/>
  <path d="M399.988 87.7886C399.988 67.7931 400.579 54.4103 401.76 47.6401C403.019 40.87 404.948 35.3988 407.546 31.2265C411.718 23.2755 418.409 16.1905 427.62 9.97144C436.673 3.67364 447.97 0.446019 461.51 0.288574C475.208 0.446019 486.622 3.67364 495.754 9.97144C504.807 16.1905 511.341 23.2755 515.356 31.2265C518.269 35.3988 520.276 40.87 521.378 47.6401C522.402 54.4103 522.914 67.7931 522.914 87.7886C522.914 107.469 522.402 120.773 521.378 127.701C520.276 134.628 518.269 140.178 515.356 144.351C511.341 152.302 504.807 159.308 495.754 165.37C486.622 171.667 475.208 174.974 461.51 175.289C447.97 174.974 436.673 171.667 427.62 165.37C418.409 159.308 411.718 152.302 407.546 144.351C406.286 141.753 405.145 139.273 404.121 136.911C403.177 134.471 402.389 131.401 401.76 127.701C400.579 120.773 399.988 107.469 399.988 87.7886ZM426.203 87.7886C426.203 104.714 426.833 116.168 428.092 122.151C429.194 128.134 431.438 132.975 434.823 136.675C437.578 140.218 441.2 143.091 445.687 145.295C450.095 147.893 455.37 149.192 461.51 149.192C467.729 149.192 473.122 147.893 477.687 145.295C482.017 143.091 485.481 140.218 488.079 136.675C491.464 132.975 493.786 128.134 495.046 122.151C496.227 116.168 496.817 104.714 496.817 87.7886C496.817 70.8632 496.227 59.3304 495.046 53.1901C493.786 47.3646 491.464 42.6019 488.079 38.9019C485.481 35.3594 482.017 32.4073 477.687 30.0457C473.122 27.7627 467.729 26.5425 461.51 26.3851C455.37 26.5425 450.095 27.7627 445.687 30.0457C441.2 32.4073 437.578 35.3594 434.823 38.9019C431.438 42.6019 429.194 47.3646 428.092 53.1901C426.833 59.3304 426.203 70.8632 426.203 87.7886Z" fill="currentColor"/>
  <path d="M616.344 112.232L591.428 37.0126H590.956L566.04 112.232H616.344ZM623.783 135.376H558.483L545.258 173.872H517.626L580.21 1.70558H602.056L664.64 173.872H637.127L623.783 135.376Z" fill="currentColor"/>
  <path d="M686.249 137.62C688.69 140.848 691.839 143.485 695.696 145.531C699.554 147.972 704.08 149.192 709.276 149.192C716.203 149.35 722.816 146.948 729.114 141.989C732.184 139.549 734.585 136.321 736.317 132.306C738.128 128.449 739.033 123.607 739.033 117.782V1.70558H765.129V120.38C764.814 137.699 759.146 151.081 748.125 160.528C737.183 170.211 724.469 175.131 709.984 175.289C689.989 174.816 675.071 167.338 665.231 152.853L686.249 137.62Z" fill="currentColor"/>
  <path d="M120 175.711C168.049 175.711 207 136.76 207 88.7114L207 1.71143C158.951 1.71143 120 40.6627 120 88.7114L120 175.711Z" fill="#982E0A"/>
  <path d="M60 175.711C108.049 175.711 147 136.76 147 88.7114L147 1.71143C98.9512 1.71143 60 40.6627 60 88.7114V175.711Z" fill="#FD5A3B"/>
  <path d="M0 175.711C48.0488 175.711 87 136.76 87 88.7114L87 1.71143C38.9512 1.71143 0 40.6627 0 88.7114L0 175.711Z" fill="#FA9A87"/>
</svg>
