<svg width="724" height="177" viewBox="0 0 724 177" fill="none" xmlns="http://www.w3.org/2000/svg" preserveAspectRatio="xMinYMin meet">
<path d="M225 1.95558H285.223C308.525 2.11302 326.001 11.7959 337.652 31.0042C341.824 37.4594 344.461 44.2295 345.563 51.3146C346.429 58.3996 346.862 70.6409 346.862 88.0386C346.862 106.538 346.193 119.449 344.855 126.77C344.225 130.47 343.28 133.776 342.021 136.689C340.683 139.523 339.069 142.475 337.179 145.545C332.141 153.654 325.135 160.345 316.161 165.62C307.265 171.288 296.362 174.122 283.451 174.122H225V1.95558ZM251.096 149.442H282.271C296.913 149.442 307.54 144.443 314.153 134.445C317.066 130.746 318.916 126.062 319.703 120.394C320.412 114.804 320.766 104.334 320.766 88.9832C320.766 74.026 320.412 63.3197 319.703 56.8645C318.758 50.4092 316.515 45.1742 312.972 41.1594C305.73 31.1616 295.496 26.3202 282.271 26.6351H251.096V149.442Z" fill="currentColor"/>
<path d="M357.988 88.0386C357.988 68.0431 358.579 54.6603 359.76 47.8901C361.019 41.12 362.948 35.6488 365.546 31.4765C369.718 23.5255 376.409 16.4405 385.62 10.2214C394.673 3.92364 405.97 0.696019 419.51 0.538574C433.208 0.696019 444.622 3.92364 453.754 10.2214C462.807 16.4405 469.341 23.5255 473.356 31.4765C476.269 35.6488 478.276 41.12 479.378 47.8901C480.402 54.6603 480.914 68.0431 480.914 88.0386C480.914 107.719 480.402 121.023 479.378 127.951C478.276 134.878 476.269 140.428 473.356 144.601C469.341 152.552 462.807 159.558 453.754 165.62C444.622 171.917 433.208 175.224 419.51 175.539C405.97 175.224 394.673 171.917 385.62 165.62C376.409 159.558 369.718 152.552 365.546 144.601C364.286 142.003 363.145 139.523 362.121 137.161C361.177 134.721 360.389 131.651 359.76 127.951C358.579 121.023 357.988 107.719 357.988 88.0386ZM384.203 88.0386C384.203 104.964 384.833 116.418 386.092 122.401C387.194 128.384 389.438 133.225 392.823 136.925C395.578 140.468 399.2 143.341 403.687 145.545C408.095 148.143 413.37 149.442 419.51 149.442C425.729 149.442 431.122 148.143 435.687 145.545C440.017 143.341 443.481 140.468 446.079 136.925C449.464 133.225 451.786 128.384 453.046 122.401C454.227 116.418 454.817 104.964 454.817 88.0386C454.817 71.1132 454.227 59.5804 453.046 53.4401C451.786 47.6146 449.464 42.8519 446.079 39.1519C443.481 35.6094 440.017 32.6573 435.687 30.2957C431.122 28.0127 425.729 26.7925 419.51 26.6351C413.37 26.7925 408.095 28.0127 403.687 30.2957C399.2 32.6573 395.578 35.6094 392.823 39.1519C389.438 42.8519 387.194 47.6146 386.092 53.4401C384.833 59.5804 384.203 71.1132 384.203 88.0386Z" fill="currentColor"/>
<path d="M574.344 112.482L549.428 37.2626H548.956L524.04 112.482H574.344ZM581.783 135.626H516.483L503.258 174.122H475.626L538.21 1.95558H560.056L622.64 174.122H595.127L581.783 135.626Z" fill="currentColor"/>
<path d="M644.249 137.87C646.69 141.098 649.839 143.735 653.696 145.781C657.554 148.222 662.08 149.442 667.276 149.442C674.203 149.6 680.816 147.198 687.114 142.239C690.184 139.799 692.585 136.571 694.317 132.556C696.128 128.699 697.033 123.857 697.033 118.032V1.95558H723.129V120.63C722.814 137.949 717.146 151.331 706.125 160.778C695.183 170.461 682.469 175.381 667.984 175.539C647.989 175.066 633.071 167.588 623.231 153.103L644.249 137.87Z" fill="currentColor"/>
<circle r="43.75" transform="matrix(-1 0 0 1 131.25 45.2114)" fill="#47A178"/>
<path d="M0 45.2114C0 69.3739 19.5875 88.9614 43.75 88.9614C67.9125 88.9614 87.5 69.3739 87.5 45.2114C87.5 21.049 67.9125 1.46143 43.75 1.46143C19.5875 1.46143 0 21.049 0 45.2114Z" fill="#FD5A3B"/>
<path d="M87.5 40.8039L43.75 1.46143H0V88.9614H43.75L87.5 40.8039Z" fill="#FD5A3B"/>
<path d="M43.75 175.538C67.9125 175.538 87.5 155.951 87.5 131.788C87.5 107.626 67.9125 88.0381 43.75 88.0381C19.5875 88.0381 0 107.626 0 131.788C0 155.951 19.5875 175.538 43.75 175.538Z" fill="#A3C386"/>
<path d="M39.3425 88.0381L0 131.788L0 175.538H87.5V131.788L39.3425 88.0381Z" fill="#A3C386"/>
<path d="M87.5 132.711C87.5 108.549 107.088 88.9614 131.25 88.9614C155.412 88.9614 175 108.549 175 132.711C175 156.874 155.412 176.461 131.25 176.461C107.088 176.461 87.5 156.874 87.5 132.711Z" fill="#F9D950"/>
<path d="M175 137.119L133.938 176.461H87.5V88.9614H175V137.119Z" fill="#F9D950"/>
</svg>
