<svg width="766" height="176" viewBox="0 0 766 176" fill="none" xmlns="http://www.w3.org/2000/svg" preserveAspectRatio="xMinYMin meet">
<path d="M267 1.99366H327.223C350.525 2.15111 368.001 11.834 379.652 31.0422C383.824 37.4975 386.461 44.2676 387.563 51.3526C388.429 58.4377 388.862 70.679 388.862 88.0767C388.862 106.576 388.193 119.487 386.855 126.808C386.225 130.508 385.28 133.814 384.021 136.727C382.683 139.561 381.069 142.513 379.179 145.583C374.141 153.692 367.135 160.383 358.161 165.658C349.265 171.326 338.362 174.16 325.451 174.16H267V1.99366ZM293.096 149.48H324.271C338.913 149.48 349.54 144.481 356.153 134.484C359.066 130.784 360.916 126.1 361.703 120.432C362.412 114.842 362.766 104.372 362.766 89.0213C362.766 74.0641 362.412 63.3578 361.703 56.9026C360.758 50.4473 358.515 45.2123 354.972 41.1974C347.73 31.1997 337.496 26.3583 324.271 26.6732H293.096V149.48Z" fill="currentColor"/>
<path d="M399.988 88.0767C399.988 68.0812 400.579 54.6983 401.76 47.9282C403.019 41.1581 404.948 35.6869 407.546 31.5146C411.718 23.5636 418.409 16.4786 427.62 10.2595C436.673 3.96173 447.97 0.734105 461.51 0.57666C475.208 0.734105 486.622 3.96173 495.754 10.2595C504.807 16.4786 511.341 23.5636 515.356 31.5146C518.269 35.6869 520.276 41.1581 521.378 47.9282C522.402 54.6983 522.914 68.0812 522.914 88.0767C522.914 107.757 522.402 121.061 521.378 127.989C520.276 134.917 518.269 140.466 515.356 144.639C511.341 152.59 504.807 159.596 495.754 165.658C486.622 171.955 475.208 175.262 461.51 175.577C447.97 175.262 436.673 171.955 427.62 165.658C418.409 159.596 411.718 152.59 407.546 144.639C406.286 142.041 405.145 139.561 404.121 137.199C403.177 134.759 402.389 131.689 401.76 127.989C400.579 121.061 399.988 107.757 399.988 88.0767ZM426.203 88.0767C426.203 105.002 426.833 116.456 428.092 122.439C429.194 128.422 431.438 133.263 434.823 136.963C437.578 140.506 441.2 143.379 445.687 145.583C450.095 148.181 455.37 149.48 461.51 149.48C467.729 149.48 473.122 148.181 477.687 145.583C482.017 143.379 485.481 140.506 488.079 136.963C491.464 133.263 493.786 128.422 495.046 122.439C496.227 116.456 496.817 105.002 496.817 88.0767C496.817 71.1513 496.227 59.6185 495.046 53.4781C493.786 47.6527 491.464 42.89 488.079 39.19C485.481 35.6475 482.017 32.6954 477.687 30.3337C473.122 28.0508 467.729 26.8306 461.51 26.6732C455.37 26.8306 450.095 28.0508 445.687 30.3337C441.2 32.6954 437.578 35.6475 434.823 39.19C431.438 42.89 429.194 47.6527 428.092 53.4781C426.833 59.6185 426.203 71.1513 426.203 88.0767Z" fill="currentColor"/>
<path d="M616.344 112.52L591.428 37.3007H590.956L566.04 112.52H616.344ZM623.783 135.664H558.483L545.258 174.16H517.626L580.21 1.99366H602.056L664.64 174.16H637.127L623.783 135.664Z" fill="currentColor"/>
<path d="M686.249 137.908C688.69 141.136 691.839 143.773 695.696 145.82C699.554 148.26 704.08 149.48 709.276 149.48C716.203 149.638 722.816 147.237 729.114 142.277C732.184 139.837 734.585 136.609 736.317 132.594C738.128 128.737 739.033 123.895 739.033 118.07V1.99366H765.129V120.668C764.814 137.987 759.146 151.37 748.125 160.816C737.183 170.499 724.469 175.419 709.984 175.577C689.989 175.104 675.071 167.626 665.231 153.141L686.249 137.908Z" fill="currentColor"/>
<path d="M202 89C202 132.608 167.959 168.266 125 170.85L125 89C125 45.3916 159.041 9.73387 202 7.14994L202 89Z" stroke="#FD5A3B" stroke-width="10"/>
<path d="M142 89C142 132.608 107.959 168.266 65 170.85L65 89C65 45.3916 99.041 9.73387 142 7.14994L142 89Z" fill="#FEFBF8" stroke="#FD5A3B" stroke-width="10"/>
<mask id="mask0" mask-type="alpha" maskUnits="userSpaceOnUse" x="60" y="2" width="87" height="174">
<path d="M142 89C142 132.608 107.959 168.266 65 170.85L65 89C65 45.3916 99.041 9.73387 142 7.14994L142 89Z" fill="white" stroke="white" stroke-width="10"/>
</mask>
<g mask="url(#mask0)">
<path d="M171.38 240.872L-48.2957 21.1971M185.522 226.73L-34.1536 7.05492M199.664 212.588L-20.0114 -7.08722M213.806 198.446L-5.86932 -21.2294M227.948 184.304L8.27283 -35.3715M242.09 170.162L22.415 -49.5136M256.232 156.02L36.5571 -63.6558" stroke="#FD5A3B" stroke-width="10"/>
</g>
<path d="M142 89C142 132.608 107.959 168.266 65 170.85L65 89C65 45.3916 99.041 9.73387 142 7.14994L142 89Z" stroke="#FD5A3B" stroke-width="10"/>
<path d="M0 176C48.0488 176 87 137.049 87 89L87 2C38.9512 2 0 40.9512 0 89L0 176Z" fill="#FD5A3B"/>
</svg>
