<svg xmlns="http://www.w3.org/2000/svg" fill="none" viewBox="0 0 1854 400">
  <title>DOAJ Logotype</title>
  <path fill="#982e0a" d="M275.861 400c110.457 0 200-89.543 200-200V0c-110.457 0-200 89.543-200 200z" class="logo__leaf"/>
  <path fill="#fd5a3b" d="M137.93 400c110.457 0 200-89.543 200-200V0c-110.457 0-200 89.543-200 200z" class="logo__leaf"/>
  <path fill="#fa9a87" d="M0 400c110.457 0 200-89.543 200-200V0C89.543 0 0 89.543 0 200z" class="logo__leaf"/>
  <g fill="currentColor">
    <path d="M576 7.692v384.616h131.868c103.297 0 158.242-51.099 158.242-156.044v-72.528c0-104.945-54.945-156.044-158.242-156.044zm72.527 65.934h60.44c62.088 0 84.615 31.869 84.615 87.912v76.924c0 56.044-22.527 87.912-84.615 87.912h-60.44zM910.182 159.341v81.318c0 101.099 59.89 159.341 158.238 159.341 98.36 0 158.25-58.242 158.25-159.341v-81.318C1226.67 60.989 1166.78 0 1068.42 0c-98.348 0-158.238 60.989-158.238 159.341zm72.527-3.297c0-52.198 30.221-91.209 85.711-91.209 53.85 0 85.72 36.813 85.72 91.209v87.912c0 53.297-25.83 91.209-85.72 91.209-58.24 0-85.711-35.714-85.711-91.209zM1353.64 7.692l-106.59 384.616h74.72l23.08-85.715h134.06l23.08 85.715h74.73L1470.12 7.692zm8.24 232.967 46.7-172.527h6.6l46.7 172.527zM1853.37 7.692h-72.52v269.231c0 36.264-18.69 57.143-51.1 57.143-34.62 0-54.4-21.429-54.4-57.143v-36.264h-72.53v36.264c0 77.473 50 123.077 129.12 123.077 75.28 0 121.43-43.407 121.43-123.077z"/>
  </g>
</svg>