<svg width="499" height="176" viewBox="0 0 499 176" fill="none" style="max-height: auto; height: 1.5em; max-width: 100%; width: auto;" xmlns="http://www.w3.org/2000/svg">
<path d="M175.542 0.5C127.217 0.5 88.042 39.675 88.042 88V175.5C136.367 175.5 175.542 136.325 175.542 88V0.5Z" fill="#982E0A"/>
<path d="M0.541992 0.5C48.868 0.5 88.042 39.675 88.042 88V175.5C39.717 175.5 0.541992 136.325 0.541992 88V0.5Z" fill="#FD5A3B"/>
<path d="M235 2.56071V80.5964H261.755C282.713 80.5964 293.861 70.2288 293.861 48.9362V34.2209C293.861 12.9283 282.713 2.56071 261.755 2.56071H235ZM249.715 15.9383H261.978C274.575 15.9383 279.146 22.4041 279.146 33.775V49.3822C279.146 60.7531 274.575 67.2189 261.978 67.2189H249.715V15.9383Z" fill="#282624"/>
<path d="M302.803 33.3291V49.8281C302.803 70.3403 314.954 82.1572 334.909 82.1572C354.864 82.1572 367.015 70.3403 367.015 49.8281V33.3291C367.015 13.3742 354.864 1 334.909 1C314.954 1 302.803 13.3742 302.803 33.3291ZM317.518 32.6602C317.518 22.0696 323.65 14.1546 334.909 14.1546C345.834 14.1546 352.3 21.6237 352.3 32.6602V50.4969C352.3 61.3105 347.06 69.0026 334.909 69.0026C323.092 69.0026 317.518 61.7564 317.518 50.4969V32.6602Z" fill="#282624"/>
<path d="M392.778 2.56071L371.151 80.5964H386.312L390.994 63.2056H418.195L422.877 80.5964H438.038L416.411 2.56071H392.778ZM394.45 49.8281L403.926 14.8235H405.263L414.739 49.8281H394.45Z" fill="#282624"/>
<path d="M494.17 2.56071H479.455V57.1857C479.455 64.5434 475.664 68.7796 469.087 68.7796C462.064 68.7796 458.051 64.4319 458.051 57.1857V49.8281H443.335V57.1857C443.335 72.9043 453.48 82.1572 469.533 82.1572C484.806 82.1572 494.17 73.3503 494.17 57.1857V2.56071Z" fill="#282624"/>
<path fill-rule="evenodd" clip-rule="evenodd" d="M266.081 175.5C240.407 175.5 235.398 159.845 235.398 152.331H252.305C252.305 152.331 252.305 163.603 266.081 163.603C275.474 163.603 277.978 159.219 277.978 155.462C277.978 149.596 270.485 148.158 261.879 146.507C250.275 144.28 236.65 141.666 236.65 127.284C236.65 116.013 247.295 106.62 264.829 106.62C289.876 106.62 293.633 121.022 293.633 127.284H276.726C276.726 127.284 276.726 118.517 264.829 118.517C257.941 118.517 254.183 122.024 254.183 126.032C254.183 130.591 260.947 131.974 269.001 133.621C280.858 136.045 295.512 139.042 295.512 153.584C295.512 166.107 284.866 175.5 266.081 175.5ZM334.116 175.5C312.199 175.5 301.554 160.096 301.554 141.06C301.554 122.024 312.7 106.62 334.116 106.62C355.531 106.62 365.425 122.024 365.425 141.06C365.425 142.563 365.3 144.817 365.3 144.817H319.213C319.964 154.836 324.222 162.35 334.742 162.35C345.387 162.35 347.266 152.331 347.266 152.331H364.799C364.799 152.331 361.042 175.5 334.116 175.5ZM347.391 133.546C346.264 125.531 342.757 119.77 334.116 119.77C325.474 119.77 321.216 125.531 319.714 133.546H347.391ZM392.352 128.536C392.603 121.523 396.736 118.517 404.25 118.517C411.138 118.517 414.895 121.523 414.895 126.658C414.895 132.714 407.756 134.33 399.067 136.297C397.335 136.689 395.541 137.095 393.73 137.553C382.96 140.309 372.941 145.819 372.941 157.967C372.941 169.99 381.707 175.5 393.605 175.5C410.261 175.5 414.269 161.098 414.269 161.098H414.895V173.622H432.428V129.162C432.428 112.256 419.904 106.62 404.25 106.62C389.221 106.62 375.821 111.88 374.819 128.536H392.352ZM414.895 140.81C414.895 150.453 411.764 164.229 399.867 164.229C394.231 164.229 390.724 161.098 390.724 156.088C390.724 150.328 395.483 147.447 401.119 146.069L401.793 145.901C406.646 144.692 412.143 143.322 414.895 140.81ZM462.634 159.845H494.569V173.622H445.101V108.498H462.634V159.845Z" fill="#982E0A"/>
</svg>
