<svg xmlns="http://www.w3.org/2000/svg" xmlns:xlink="http://www.w3.org/1999/xlink" version="1.0" x="0px" y="0px" width="64px" height="64px" viewBox="-0.5 0.5 64 64" enable-background="new -0.5 0.5 64 64" xml:space="preserve" class="cc-icon">
<path fill-rule="evenodd" clip-rule="evenodd" d="M9.479 9.3C15.574 3.09 23.056 0 31.933 0C40.885 0 48.525 3.119 54.813 9.367C57.822 12.377 60.108 15.812 61.67 19.697C63.23 23.546 64 27.657 64 32C64 36.383 63.23 40.5 61.669 44.347C60.146 48.156 57.868 51.52 54.857 54.453C51.732 57.54 48.198 59.895 44.236 61.534C40.273 63.173 36.162 63.999 31.933 63.999C27.703 63.999 23.65 63.203 19.764 61.601C15.915 59.963 12.451 57.613 9.366 54.564C6.318 51.48 3.997 48.018 2.397 44.168C0.797 40.32 0 36.268 0 32C0 27.771 0.797 23.719 2.397 19.832C4.036 15.907 6.392 12.387 9.479 9.3ZM50.621 13.468C45.479 8.325 39.305 5.759 32.067 5.759C24.752 5.759 18.592 8.318 13.602 13.421C11.088 15.975 9.147 18.849 7.776 22.049C6.443 25.211 5.759 28.531 5.759 31.998C5.759 35.427 6.443 38.726 7.776 41.925C9.147 45.088 11.087 47.927 13.602 50.441C16.117 52.919 18.955 54.823 22.118 56.157C25.279 57.452 28.599 58.105 32.067 58.105C35.496 58.105 38.794 57.445 41.994 56.111C45.232 54.777 48.142 52.846 50.734 50.33C55.724 45.454 58.24 39.354 58.24 32C58.24 28.457 57.587 25.101 56.291 21.939C54.996 18.778 53.098 15.945 50.621 13.468ZM18.778 32C18.778 23.549 21.435 13.58 32 13.58C42.564 13.58 45.221 23.549 45.221 32C45.221 40.452 42.564 50.42 32 50.42C21.434 50.42 18.778 40.452 18.778 32ZM33.188 20.683C32.82 20.592 32.429 20.526 32 20.526C26.566 20.526 26.308 28.277 26.308 31.999C26.308 33.196 26.339 34.8 26.555 36.436L33.591 23.506C34.321 22.244 33.949 21.339 33.188 20.683ZM37.692 32C37.692 30.543 37.639 28.471 37.266 26.487L29.402 40.069C28.304 41.716 29.066 42.647 30.276 43.162C30.382 43.204 30.5 43.24 30.612 43.272C30.68 43.296 30.744 43.318 30.814 43.339C31.18 43.43 31.574 43.475 32.002 43.475C37.434 43.475 37.692 35.723 37.692 32Z" fill="black"/>
</svg>
