<svg width="14" height="16" viewBox="0 0 14 16" fill="none" xmlns="http://www.w3.org/2000/svg">
<path d="M3.32719 7.38125C3.25063 7.00312 3.15656 6.34375 3.15656 6.34375H3.14563C3.14563 6.34375 3.05156 7.00312 2.975 7.38125L2.73219 8.55313H3.56562L3.32719 7.38125ZM13.475 3H7.35V13H13.475C13.7659 13 14 12.6656 14 12.25V3.75C14 3.33437 13.7659 3 13.475 3ZM12.95 6.75C12.95 6.95625 12.8319 7.125 12.6875 7.125H12.4381C12.2872 7.8625 11.9634 8.60625 11.5041 9.30937C11.6878 9.50937 11.8781 9.7 12.075 9.87187C12.1953 9.97812 12.2347 10.2 12.1647 10.3781L11.9919 10.8125C11.9175 10.9969 11.7534 11.0562 11.6266 10.9469C11.3509 10.7031 11.0906 10.4437 10.8522 10.1687C10.6137 10.4406 10.3556 10.7031 10.0778 10.9469C9.95094 11.0562 9.78687 10.9969 9.7125 10.8125L9.53969 10.3781C9.46969 10.2031 9.50906 9.97812 9.63156 9.87187C9.835 9.69375 10.0253 9.50625 10.2025 9.30937C10.0297 9.04688 9.87656 8.77813 9.74312 8.50625C9.65563 8.32813 9.695 8.08125 9.82406 7.97188L9.96625 7.85L10.1259 7.71562C10.2441 7.61562 10.3972 7.6625 10.4759 7.82188C10.5853 8.04063 10.7122 8.25938 10.8566 8.475C11.1519 8.03125 11.3772 7.57188 11.5128 7.125H9.0125C8.86812 7.125 8.75 6.95625 8.75 6.75V6.25C8.75 6.04375 8.86812 5.875 9.0125 5.875H10.4125V5.375C10.4125 5.16875 10.5306 5 10.675 5H11.025C11.1694 5 11.2875 5.16875 11.2875 5.375V5.875H12.6875C12.8319 5.875 12.95 6.04375 12.95 6.25V6.75ZM0 3.75V12.25C0 12.6656 0.234062 13 0.525 13H6.65V3H0.525C0.234062 3 0 3.33437 0 3.75ZM1.28844 10.5031L2.54625 5.21875C2.58344 5.06562 2.68187 4.96562 2.79562 4.96562H3.50656C3.61812 4.96562 3.71875 5.06875 3.75594 5.21875L5.01375 10.5031C5.07063 10.7469 4.94594 11 4.76438 11H4.26344C4.20683 10.9999 4.15175 10.9737 4.10641 10.9253C4.06108 10.8769 4.02791 10.8088 4.01187 10.7312L3.80625 9.73438H2.48938L2.29031 10.7281C2.2575 10.8875 2.15469 11 2.03875 11H1.53781C1.35844 11 1.23156 10.7469 1.28844 10.5031Z" fill="black"/>
</svg>
