<?xml version="1.0" encoding="UTF-8" standalone="no"?>
<svg
   xmlns:dc="http://purl.org/dc/elements/1.1/"
   xmlns:cc="http://creativecommons.org/ns#"
   xmlns:rdf="http://www.w3.org/1999/02/22-rdf-syntax-ns#"
   xmlns:svg="http://www.w3.org/2000/svg"
   xmlns="http://www.w3.org/2000/svg"
   viewBox="0 0 346.3125 95.387497"
   height="95.387497"
   width="346.3125"
   xml:space="preserve"
   version="1.1"
   id="svg3355"><metadata
     id="metadata3361"><rdf:RDF><cc:Work
         rdf:about=""><dc:format>image/svg+xml</dc:format><dc:type
           rdf:resource="http://purl.org/dc/dcmitype/StillImage" /><dc:title></dc:title></cc:Work></rdf:RDF></metadata><defs
     id="defs3359" /><g
     transform="matrix(1.25,0,0,-1.25,0,95.3875)"
     id="g3363"><g
       transform="scale(0.1,0.1)"
       id="g3365"><path
         id="path3367"
         style="fill:#231f20;fill-opacity:1;fill-rule:nonzero;stroke:none"
         d="m 756.363,676.387 -36.816,0 0,-251.817 36.816,0 c 72.461,0 117.586,38.008 117.586,125.899 0,86.125 -48.094,125.918 -117.586,125.918 z m 5.352,-330.801 -143.723,0 0,409.785 141.348,0 c 142.531,0 216.758,-82.547 216.758,-204.297 0,-121.738 -76.016,-205.488 -214.383,-205.488" /><path
         id="path3369"
         style="fill:#231f20;fill-opacity:1;fill-rule:nonzero;stroke:none"
         d="m 1039.13,345.586 101.551,0 0,409.785 -101.551,0 0,-409.785 z" /><path
         id="path3371"
         style="fill:#231f20;fill-opacity:1;fill-rule:nonzero;stroke:none"
         d="m 1404.98,337.871 c -130.05,0 -201.91,85.527 -201.91,212.012 0,127.09 77.79,213.203 204.27,213.203 50.49,0 92.66,-11.875 125.32,-30.281 L 1519,644.316 c -30.87,19.59 -67.11,35.039 -109.27,35.039 -70.66,0 -105.11,-52.265 -105.11,-128.886 0,-77.188 35.64,-131.231 106.3,-131.231 22.56,0 38.61,4.746 55.23,13.067 l 0,73.047 -71.27,0 -11.87,75.429 171.64,0 0,-199.551 c -42.77,-27.91 -93.24,-43.359 -149.67,-43.359" /><path
         id="path3373"
         style="fill:#231f20;fill-opacity:1;fill-rule:nonzero;stroke:none"
         d="m 1625.39,345.586 101.559,0 0,409.785 -101.559,0 0,-409.785 z" /><path
         id="path3375"
         style="fill:#231f20;fill-opacity:1;fill-rule:nonzero;stroke:none"
         d="m 1999.57,669.258 0,-323.672 -102.15,0 0,323.672 -115.82,0 0,86.113 324.26,0 14.26,-86.113 -120.55,0" /><path
         id="path3377"
         style="fill:#231f20;fill-opacity:1;fill-rule:nonzero;stroke:none"
         d="m 2233.59,510.098 92.66,0 -45.74,142.531 -46.92,-142.531 z m -3.55,247.05 111.64,0 142.54,-399.082 -102.15,-16.621 -30.27,89.063 -142.54,0 -27.31,-84.922 -99.18,0 147.27,411.562" /><path
         id="path3379"
         style="fill:#231f20;fill-opacity:1;fill-rule:nonzero;stroke:none"
         d="m 2529.45,345.586 0,409.785 101.53,0 0,-321.894 125.9,0 13.67,-87.891 -241.1,0" /><path
         id="path3381"
         style="fill:#ed1c24;fill-opacity:1;fill-rule:nonzero;stroke:none"
         d="m 702.73,1.09375 c -34.335,0 -68.144,10.35155 -91.054,22.89065 l 4.922,25.0781 c 23.984,-13.6328 55.058,-25.0781 88.828,-25.0781 38.183,0 63.262,16.914 63.262,46.875 0,26.7187 -15.801,40.3516 -70.86,55.6246 -53.984,14.707 -78.496,33.243 -78.496,72.5 0,39.219 33.789,67.579 84.492,67.579 28.887,0 54.512,-7.071 75.215,-17.422 l -4.355,-24.532 c -23.457,11.993 -47.422,18.516 -71.954,18.516 -40.351,0 -58.339,-19.082 -58.339,-42.5 0,-24.004 15.273,-36.016 61.035,-48.535 58.359,-15.801 88.34,-35.977 88.34,-79.0431 0,-46.3281 -37.618,-71.95315 -91.036,-71.95315" /><path
         id="path3383"
         style="fill:#ed1c24;fill-opacity:1;fill-rule:nonzero;stroke:none"
         d="M 957.906,0 C 895.23,0 845.074,49.0625 845.074,133.555 c 0,85.039 50.703,133.554 114.473,133.554 32.168,0 60.503,-11.445 82.873,-28.339 l -4.94,-26.172 c -25.61,21.816 -49.593,32.168 -79.007,32.168 -54.512,0 -86.7,-45.235 -86.7,-111.211 0,-64.3167 31.094,-111.1917 88.848,-111.1917 27.813,0 53.459,9.8047 80.139,32.6953 l 3.26,-23.9648 C 1020.6,11.4453 992.242,0 957.906,0" /><path
         id="path3385"
         style="fill:#ed1c24;fill-opacity:1;fill-rule:nonzero;stroke:none"
         d="m 1106.36,5.46875 25.1016,0 0,256.211 -25.1016,0 0,-256.211 z" /><path
         id="path3387"
         style="fill:#ed1c24;fill-opacity:1;fill-rule:nonzero;stroke:none"
         d="m 1226.54,154.824 153.19,0 c -1.64,50.137 -26.72,91.035 -71.41,91.035 -48.54,0 -76.35,-37.617 -81.78,-91.035 z M 1312.12,0 c -67.59,0 -112.85,50.1563 -112.85,133.555 0,81.758 46.92,133.554 109.05,133.554 65.4,0 98.09,-57.226 98.09,-128.086 l 0,-5.468 -180.95,0 c 0,-65.3909 30.51,-111.1917 87.76,-111.1917 31.08,0 63.78,16.3476 88.85,39.2383 l 3.79,-23.9844 C 1382.42,16.3672 1348.64,0 1312.12,0" /><path
         id="path3389"
         style="fill:#ed1c24;fill-opacity:1;fill-rule:nonzero;stroke:none"
         d="m 1645.98,5.46875 0,178.24225 c 0,38.711 -18.56,59.961 -55.08,59.961 -28.36,0 -57.77,-16.367 -89.96,-46.328 l 0,-191.87525 -25.63,0 0,256.21125 18.56,0 6.52,-38.711 c 31.09,27.246 59.41,44.14 93.24,44.14 52.89,0 77.93,-29.961 77.93,-81.211 l 0,-180.42925 -25.58,0" /><path
         id="path3391"
         style="fill:#ed1c24;fill-opacity:1;fill-rule:nonzero;stroke:none"
         d="m 1850.08,0 c -62.7,0 -112.85,49.0625 -112.85,133.555 0,85.039 50.7,133.554 114.49,133.554 32.15,0 60.51,-11.445 82.85,-28.339 l -4.92,-26.172 c -25.59,21.816 -49.61,32.168 -79.02,32.168 -54.5,0 -86.68,-45.235 -86.68,-111.211 0,-64.3167 31.09,-111.1917 88.82,-111.1917 27.82,0 53.48,9.8047 80.16,32.6953 l 3.28,-23.9648 C 1912.77,11.4453 1884.41,0 1850.08,0" /><path
         id="path3393"
         style="fill:#ed1c24;fill-opacity:1;fill-rule:nonzero;stroke:none"
         d="m 2007.54,154.824 153.2,0 c -1.68,50.137 -26.72,91.035 -71.44,91.035 -48.52,0 -76.29,-37.617 -81.76,-91.035 z M 2093.13,0 c -67.58,0 -112.86,50.1563 -112.86,133.555 0,81.758 46.92,133.554 109.03,133.554 65.43,0 98.12,-57.226 98.12,-128.086 l 0,-5.468 -180.94,0 c 0,-65.3909 30.47,-111.1917 87.74,-111.1917 31.05,0 63.79,16.3476 88.87,39.2383 l 3.79,-23.9844 C 2163.44,16.3672 2129.65,0 2093.13,0" /><path
         id="path3395"
         style="fill:#ed1c24;fill-opacity:1;fill-rule:nonzero;stroke:none"
         d="m 452.094,556.02 94.1133,0 0,94.1016 -94.1133,0 0,-94.1016 z" /><path
         id="path3397"
         style="fill:#e9e9e9;fill-opacity:1;fill-rule:nonzero;stroke:none"
         d="m 241.379,661.266 94.1016,0 0,94.1094 -94.1016,0 0,-94.1094 z" /><path
         id="path3399"
         style="fill:#a7a5a6;fill-opacity:1;fill-rule:nonzero;stroke:none"
         d="m 346.602,661.273 94.1133,0 0,94.0938 -94.1133,0 0,-94.0938 z" /><path
         id="path3401"
         style="fill:#706d6e;fill-opacity:1;fill-rule:nonzero;stroke:none"
         d="m 452.094,661.285 94.1133,0 0,94.1016 -94.1133,0 0,-94.1016 z" /><path
         id="path3403"
         style="fill:#d3d2d2;fill-opacity:1;fill-rule:nonzero;stroke:none"
         d="m 241.379,556.02 94.1016,0 0,94.1016 -94.1016,0 0,-94.1016 z" /><path
         id="path3405"
         style="fill:#bdbcbc;fill-opacity:1;fill-rule:nonzero;stroke:none"
         d="m 346.602,556.02 94.1133,0 0,94.1094 -94.1133,0 0,-94.1094 z" /><path
         id="path3407"
         style="fill:#7b7979;fill-opacity:1;fill-rule:nonzero;stroke:none"
         d="m 346.602,450.801 94.1133,0 0,94.1016 -94.1133,0 0,-94.1016 z" /><path
         id="path3409"
         style="fill:#636060;fill-opacity:1;fill-rule:nonzero;stroke:none"
         d="m 452.094,450.781 94.1133,0 0,94.1133 -94.1133,0 0,-94.1133 z" /><path
         id="path3411"
         style="fill:#b4b3b3;fill-opacity:1;fill-rule:nonzero;stroke:none"
         d="m 346.602,345.566 94.1133,0 0,94.1133 -94.1133,0 0,-94.1133 z" /><path
         id="path3413"
         style="fill:#4f4c4c;fill-opacity:1;fill-rule:nonzero;stroke:none"
         d="m 452.094,345.574 94.1133,0 0,94.1133 -94.1133,0 0,-94.1133 z" /><path
         id="path3415"
         style="fill:#e9e9e9;fill-opacity:1;fill-rule:nonzero;stroke:none"
         d="m 154.879,528.609 67.9531,0 0,67.9727 -67.9531,0 0,-67.9727 z" /><path
         id="path3417"
         style="fill:#e9e9e9;fill-opacity:1;fill-rule:nonzero;stroke:none"
         d="m 87.2656,494.844 67.9609,0 0,67.9688 -67.9609,0 0,-67.9688 z" /><path
         id="path3419"
         style="fill:#ed1c24;fill-opacity:1;fill-rule:nonzero;stroke:none"
         d="m 67.5352,379.844 67.9375,0 0,67.9609 -67.9375,0 0,-67.9609 z" /><path
         id="path3421"
         style="fill:#e9e9e9;fill-opacity:1;fill-rule:nonzero;stroke:none"
         d="m 139.133,329.348 67.9063,0 0,67.9688 -67.9063,0 0,-67.9688 z" /><path
         id="path3423"
         style="fill:#ed1c24;fill-opacity:1;fill-rule:nonzero;stroke:none"
         d="m 182.309,403.145 67.9648,0 0,67.9648 -67.9648,0 0,-67.9648 z" /><path
         id="path3425"
         style="fill:#e9e9e9;fill-opacity:1;fill-rule:nonzero;stroke:none"
         d="m 278.328,405.098 84.4492,0 0,84.3945 -84.4492,0 0,-84.3945 z" /><path
         id="path3427"
         style="fill:#e9e9e9;fill-opacity:1;fill-rule:nonzero;stroke:none"
         d="m 153.207,175.762 76.8281,0 0,76.7656 -76.8281,0 0,-76.7656 z" /><path
         id="path3429"
         style="fill:#ed1c24;fill-opacity:1;fill-rule:nonzero;stroke:none"
         d="m 144.723,157.566 37.293,0 0,37.2773 -37.293,0 0,-37.2773 z" /><path
         id="path3431"
         style="fill:#e9e9e9;fill-opacity:1;fill-rule:nonzero;stroke:none"
         d="m 457.051,200.449 40.4375,0 0,40.418 -40.4375,0 0,-40.418 z" /><path
         id="path3433"
         style="fill:#ed1c24;fill-opacity:1;fill-rule:nonzero;stroke:none"
         d="m 313.969,260.383 68.0078,0 0,67.9961 -68.0078,0 0,-67.9961 z" /><path
         id="path3435"
         style="fill:#ed1c24;fill-opacity:1;fill-rule:nonzero;stroke:none"
         d="m 151.051,653.285 67.957,0 0,67.9297 -67.957,0 0,-67.9297 z" /><path
         id="path3437"
         style="fill:#e9e9e9;fill-opacity:1;fill-rule:nonzero;stroke:none"
         d="m 339.691,215.398 42.2852,0 0,42.3281 -42.2852,0 0,-42.3281 z" /><path
         id="path3439"
         style="fill:#e9e9e9;fill-opacity:1;fill-rule:nonzero;stroke:none"
         d="m 257.895,200.801 51.3047,0 0,51.2773 -51.3047,0 0,-51.2773 z" /><path
         id="path3441"
         style="fill:#e9e9e9;fill-opacity:1;fill-rule:nonzero;stroke:none"
         d="m 441.82,92.5898 51.2695,0 0,51.2266 -51.2695,0 0,-51.2266 z" /><path
         id="path3443"
         style="fill:#e9e9e9;fill-opacity:1;fill-rule:nonzero;stroke:none"
         d="m 248.668,42.8906 41.8555,0 0,41.875 -41.8555,0 0,-41.875 z" /><path
         id="path3445"
         style="fill:#e9e9e9;fill-opacity:1;fill-rule:nonzero;stroke:none"
         d="m 0,410.957 47.5117,0 0,47.4492 -47.5117,0 0,-47.4492 z" /></g></g></svg>