<?xml version="1.0" encoding="utf-8"?>
<!-- Generator: Adobe Illustrator 20.1.0, SVG Export Plug-In . SVG Version: 6.00 Build 0)  -->
<!DOCTYPE svg PUBLIC "-//W3C//DTD SVG 1.1//EN" "http://www.w3.org/Graphics/SVG/1.1/DTD/svg11.dtd">
<svg version="1.1" id="Layer_1" xmlns="http://www.w3.org/2000/svg" xmlns:xlink="http://www.w3.org/1999/xlink" x="0px" y="0px"
	 viewBox="0 0 141.8 30" style="enable-background:new 0 0 141.8 30;" xml:space="preserve">
<style type="text/css">
	.st0{fill:#002F56;}
</style>
<g>
	<g id="XMLID_384_">
		<path id="XMLID_462_" class="st0" d="M0,29.6v-1.7c3.1,0,4-0.9,4-3.4V5.6c0-2.5-0.9-3.4-4-3.4V0.5h22.4l1.2,4.1
			c0.1,0.4,0.2,0.9,0.2,1c0,0.2-0.4,0.7-0.9,0.7c-0.3,0-0.5-0.2-0.9-0.9c-2-3.1-4.7-3.6-8.8-3.6c-2.9,0-3.2,0.4-3.2,2.3v9.1h3.6
			c2.7,0,3.7-0.6,4.3-3.3c0.1-0.5,0.2-0.5,0.9-0.6c0.5,0,0.8,0.1,0.8,0.9v9c0,0.4-0.4,0.6-0.9,0.6s-0.6-0.1-0.6-0.3
			c-1.2-4.1-2-4.3-4.4-4.3H9.9v9.8c0,2.5,0.4,2.9,4.7,2.9c5.6,0,7.3-1.7,9.5-5.6c0.1-0.2,0.2-0.4,0.8-0.4c0.5,0,0.7,0.1,0.7,0.3
			c0,0.2,0,0.4-0.1,0.8l-1,6.7H0V29.6z"/>
		<path id="XMLID_458_" class="st0" d="M33.2,5.6c0-2.5-0.9-3.4-4.2-3.4V0.5h11.9c7.5,0,11.5,2.5,11.5,6.9c0,4.1-3.9,5.9-6.6,6.8
			v0.1c5.5,0.7,8.2,4.4,8.2,7.8c0,3.2-2.4,7.7-10.6,7.7H29V28c3.4,0,4.2-0.9,4.2-3.4V5.6z M39.2,11.7c0,1.3,0.6,1.8,2.6,1.8
			c2.9,0,5.1-1.2,5.1-5.6c0-4.3-2-5.5-5.3-5.5c-1.8,0-2.3,0.7-2.3,2.4v7H39.2z M39.2,24.7c0,2.5,0.7,3.2,3.5,3.2
			c3.7,0,5.5-2.6,5.5-6.2c0-4.4-2.9-6.5-6.8-6.5c-1.9,0-2.3,0.4-2.3,2.3C39.2,17.4,39.2,24.7,39.2,24.7z"/>
		<path id="XMLID_397_" class="st0" d="M75.6,6.6c0,0.9-0.2,1.1-0.8,1.1c-0.5,0-0.7-0.3-1.3-1.4c-1-2.2-3.4-4.4-6.3-4.4
			c-2.7,0-4.9,1.8-4.9,4.3C62.1,12.6,77,11,77,21c0,4.1-2.3,8.9-10.8,8.9c-2.5,0-6.5-0.9-8.1-1.7c-0.3-0.4-0.7-4.1-0.7-6
			c0-0.9,0.2-1.3,0.9-1.3c0.8,0,0.9,0.1,1.3,1.3c0.5,1.8,2.5,6,7.5,6c3,0,5.5-1.4,5.5-4.6c0-6.9-14.8-5.9-14.8-15.2
			c0-5.7,5.5-8.4,10-8.4c4.3,0,7.3,1.3,7.5,1.6c0,0.6,0.2,1.2,0.2,3.1V6.6z"/>
		<path id="XMLID_390_" class="st0" d="M107.2,24.6c-0.1,1.2-0.3,1.7-0.7,2.3c-0.7,0.8-4.4,3.2-10.9,3.2c-8.6,0-15.5-6.8-15.5-14.9
			S87,0.1,95.6,0.1c5.3,0,11.4,2.3,11.4,4.3s-0.3,3.8-0.3,4.5c0,0.3-0.2,0.9-0.8,0.9c-0.4,0-0.6-0.1-1.3-1.8c-1.5-3.9-4.8-6.1-9-6.1
			c-4.1,0-9,3.5-9,13.2s5,13.2,10.4,13.2c5,0,8.1-4.8,8.7-6.2c0.4-0.9,0.5-1,1.1-1c0.5,0,0.7,0.2,0.7,0.6c0,0.3,0,0.7-0.1,1.4
			L107.2,24.6z"/>
		<path id="XMLID_385_" class="st0" d="M126.3,0.1c8.6,0,15.5,6.8,15.5,14.9S134.9,30,126.3,30s-15.5-6.8-15.5-14.9
			S117.7,0.1,126.3,0.1z M126.3,28.3c4.1,0,9-3.5,9-13.2s-4.9-13.2-9-13.2s-9,3.5-9,13.2C117.2,24.8,122.2,28.3,126.3,28.3z"/>
	</g>
</g>
</svg>
