<?xml version="1.0" encoding="UTF-8" standalone="no"?>
<svg
   xmlns:dc="http://purl.org/dc/elements/1.1/"
   xmlns:cc="http://creativecommons.org/ns#"
   xmlns:rdf="http://www.w3.org/1999/02/22-rdf-syntax-ns#"
   xmlns:svg="http://www.w3.org/2000/svg"
   xmlns="http://www.w3.org/2000/svg"
   height="131.59959"
   width="565.2641"
   id="svg2"
   xml:space="preserve"
   viewBox="0 0 565.2641 131.59959"
   version="1.1"
   enable-background="new 0 0 618.5 144.3"><metadata
     id="metadata14"><rdf:RDF><cc:Work
         rdf:about=""><dc:format>image/svg+xml</dc:format><dc:type
           rdf:resource="http://purl.org/dc/dcmitype/StillImage" /><dc:title></dc:title></cc:Work></rdf:RDF></metadata><defs
     id="defs12" /><path
     id="path3345"
     d="m 123.4925,131.54521 c -2.22123,-0.16862 -4.15174,-1.02101 -5.63035,-2.48601 -1.47379,-1.46021 -2.27682,-3.21937 -2.45346,-5.37467 -0.20404,-2.48962 0.629,-4.86778 2.31464,-6.60781 1.33128,-1.37423 3.04422,-2.22757 5.14063,-2.56091 0.77388,-0.12305 2.67144,-0.0923 3.50314,0.0568 2.41059,0.43211 4.44957,1.69777 5.69351,3.53416 1.71834,2.53673 1.94945,5.9532 0.5902,8.72491 -1.10322,2.24962 -3.09966,3.82485 -5.62654,4.43944 -1.07346,0.26108 -2.37376,0.362 -3.53177,0.27409 z m 2.13217,-2.22407 c 2.73482,-0.46553 4.77073,-2.39659 5.31344,-5.03977 0.20748,-1.01053 0.17149,-1.97585 -0.11339,-3.0416 -0.36797,-1.37659 -1.24869,-2.62454 -2.44024,-3.45776 -2.35128,-1.64416 -5.78234,-1.59788 -8.02413,0.10822 -3.03398,2.30899 -3.39605,6.75771 -0.7741,9.51152 0.93474,0.98175 2.23585,1.67248 3.61762,1.92051 0.60437,0.10849 1.78012,0.10794 2.4208,-0.001 z m 48.64057,2.22109 c -3.56983,-0.2715 -6.47002,-2.39942 -7.60186,-5.57763 -0.37193,-1.04437 -0.46038,-1.61364 -0.45968,-2.95839 7.2e-4,-1.34652 0.0703,-1.83711 0.39839,-2.80767 0.95155,-2.81516 3.25165,-4.84231 6.27543,-5.53075 1.77493,-0.40411 3.93242,-0.30861 5.65683,0.25038 2.90356,0.94123 4.99516,3.29904 5.60893,6.32282 0.17792,0.87652 0.19078,2.56868 0.0258,3.39408 -0.70036,3.50384 -3.22939,6.01653 -6.77207,6.72832 -0.54701,0.10991 -2.00361,0.25412 -2.36449,0.23411 -0.0823,-0.005 -0.42758,-0.0294 -0.76727,-0.0553 z m 2.68281,-2.32845 c 1.23461,-0.32997 2.02777,-0.76307 2.88756,-1.57676 0.67026,-0.63432 1.18064,-1.34215 1.47792,-2.04967 1.17149,-2.78815 0.35865,-5.93037 -1.98912,-7.68935 -1.28279,-0.96109 -3.06298,-1.45118 -4.71166,-1.29714 -1.60909,0.15034 -2.90543,0.71781 -4.00225,1.75196 -0.88981,0.83897 -1.47993,1.82525 -1.78334,2.98052 -0.20322,0.77378 -0.25503,1.99917 -0.11755,2.78022 0.47172,2.67993 2.50952,4.68892 5.28115,5.20649 0.75474,0.14093 2.23078,0.0879 2.95729,-0.10627 z m 105.60952,2.33066 c -1.31132,-0.12403 -2.73096,-0.64344 -3.64357,-1.33312 l -0.20287,-0.15331 0,-1.49838 0,-1.49837 0.67343,0.65929 c 0.73815,0.72264 1.32463,1.12287 2.05991,1.40575 1.82831,0.7034 3.62184,0.27166 4.31575,-1.03889 0.13934,-0.26317 0.16256,-0.37846 0.16328,-0.81091 7.2e-4,-0.44273 -0.022,-0.55182 -0.18642,-0.89571 -0.2257,-0.47195 -0.82034,-1.11942 -1.46418,-1.59428 -0.24983,-0.18426 -0.86939,-0.58515 -1.3768,-0.89087 -1.83887,-1.10793 -2.47759,-1.56741 -3.11286,-2.23933 -0.45129,-0.47731 -0.78666,-1.02006 -0.96164,-1.55626 -0.17719,-0.54299 -0.2174,-1.59633 -0.0863,-2.26045 0.12171,-0.61651 0.52199,-1.44605 0.90579,-1.87715 0.81914,-0.9201 2.14296,-1.46345 3.73917,-1.53471 1.29839,-0.058 2.37442,0.17949 3.50461,0.77337 l 0.59585,0.31309 0.0161,1.37328 0.0161,1.37329 -0.47369,-0.37891 c -1.12916,-0.90323 -2.26403,-1.34154 -3.46827,-1.3395 -0.93768,0.002 -1.64989,0.25218 -2.16062,0.76024 -0.37191,0.36997 -0.50423,0.66009 -0.532,1.16644 -0.0335,0.61166 0.12878,0.99411 0.65478,1.54276 0.49886,0.52034 0.95798,0.84034 2.29617,1.6004 2.44857,1.39075 3.23865,2.06284 3.83495,3.26226 0.39154,0.78756 0.4707,1.15009 0.47273,2.1648 0.002,1.01833 -0.0741,1.36231 -0.48541,2.19189 -0.55543,1.12035 -1.68658,1.95916 -3.00349,2.22724 -0.55152,0.11228 -1.43056,0.14846 -2.09043,0.0861 z m 164.6993,0.002 c -1.30765,-0.12353 -2.39572,-0.50589 -3.49499,-1.22817 l -0.31427,-0.20649 0,-1.49607 0,-1.49608 0.61357,0.60032 c 0.6967,0.68164 1.36218,1.14007 2.01977,1.39132 1.39257,0.53209 2.74071,0.45622 3.64765,-0.20529 0.7983,-0.58226 1.08829,-1.43117 0.78614,-2.30129 -0.31369,-0.90338 -1.06728,-1.58187 -3.17373,-2.85747 -1.56068,-0.94511 -2.07155,-1.30775 -2.67231,-1.89701 -0.91411,-0.89658 -1.27316,-1.65198 -1.32525,-2.78812 -0.0499,-1.08754 0.16824,-1.92502 0.71052,-2.72834 0.66626,-0.98696 1.78599,-1.61803 3.26208,-1.83846 1.51887,-0.22683 2.885,-10e-4 4.24268,0.70131 l 0.5986,0.30966 0.0161,1.3789 0.0161,1.37891 -0.41293,-0.34236 c -0.59985,-0.49734 -1.29771,-0.892 -1.99793,-1.12988 -0.52265,-0.17757 -0.71705,-0.21292 -1.30272,-0.23693 -1.0442,-0.0428 -1.80312,0.19042 -2.35788,0.72462 -0.42854,0.41267 -0.54406,0.68453 -0.54317,1.27844 9.6e-4,0.65794 0.13966,0.94723 0.74249,1.54889 0.49224,0.49129 0.97498,0.8177 2.39801,1.62144 2.18719,1.23535 3.08629,2.00905 3.64359,3.13536 0.33268,0.67233 0.43059,1.07802 0.46889,1.94269 0.0507,1.14476 -0.13369,1.8983 -0.67646,2.76445 -0.54548,0.87051 -1.56463,1.5794 -2.66456,1.85341 -0.5523,0.13758 -1.51119,0.19015 -2.22994,0.12224 z m 17.03316,-0.004 c -3.62656,-0.27581 -6.55474,-2.46346 -7.64268,-5.70984 -0.32154,-0.95948 -0.39497,-1.39598 -0.43051,-2.55928 -0.0278,-0.90846 -0.0143,-1.17365 0.0905,-1.77929 0.30874,-1.78522 1.09214,-3.30267 2.34252,-4.53747 1.87314,-1.8498 4.52405,-2.73819 7.4653,-2.50179 1.362,0.10946 2.39375,0.36988 3.46811,0.87538 2.38857,1.12384 4.05325,3.27075 4.58335,5.91105 0.17446,0.86895 0.19048,2.50839 0.0327,3.35019 -0.65549,3.49786 -3.21633,6.0567 -6.77753,6.77221 -0.54702,0.10991 -2.00361,0.25413 -2.3645,0.23412 -0.0823,-0.005 -0.42758,-0.0294 -0.76727,-0.0553 z m 2.68281,-2.32754 c 1.20425,-0.32003 2.023,-0.76721 2.8821,-1.57414 0.67161,-0.63082 1.1834,-1.3392 1.48338,-2.05315 1.1715,-2.78815 0.35865,-5.93037 -1.98911,-7.68935 -1.2828,-0.96109 -3.06299,-1.45118 -4.71166,-1.29714 -1.6091,0.15034 -2.90544,0.71781 -4.00226,1.75196 -0.88867,0.83791 -1.47756,1.8214 -1.78466,2.98052 -0.20339,0.76763 -0.25436,1.99076 -0.11589,2.78022 0.47011,2.68013 2.50721,4.68856 5.28081,5.20649 0.75251,0.14052 2.23004,0.0879 2.95729,-0.10541 z m 19.24174,2.32896 c -4.12654,-0.30692 -7.17529,-2.89638 -8.02827,-6.81883 -0.16634,-0.7649 -0.14903,-2.53412 0.0331,-3.37922 0.4644,-2.15542 1.54585,-3.87362 3.23032,-5.13234 0.57069,-0.42644 1.82023,-1.06558 2.53037,-1.29428 0.63973,-0.20602 1.4731,-0.3765 2.19943,-0.44992 1.92227,-0.19433 3.69551,0.0867 6.06951,0.96184 l 0.82308,0.30343 0,1.29023 0,1.29023 -0.43399,-0.24371 c -4.35274,-2.44435 -8.92195,-1.83317 -11.12235,1.48774 -1.16869,1.76381 -1.33494,4.25829 -0.41448,6.21883 0.92295,1.96582 2.77225,3.23862 5.2011,3.57975 0.69127,0.0971 2.148,0.0361 2.87087,-0.12018 1.17628,-0.25431 2.53566,-0.78429 3.5596,-1.38778 0.25788,-0.15199 0.48011,-0.27635 0.49385,-0.27635 0.0137,0 0.025,0.58333 0.025,1.29628 l 0,1.29627 -0.61357,0.2823 c -1.89701,0.87279 -4.18143,1.26247 -6.42351,1.09571 z m 73.41883,-0.001 c -1.13982,-0.10609 -2.17289,-0.44792 -3.17118,-1.04929 l -0.56641,-0.34121 -0.016,-1.51716 -0.0159,-1.51716 0.61456,0.60128 c 0.33801,0.33071 0.8294,0.74047 1.09198,0.91056 1.52791,0.98981 3.43697,1.10754 4.56909,0.2818 0.80587,-0.58778 1.09673,-1.43333 0.79348,-2.30665 -0.31085,-0.89517 -1.08642,-1.59346 -3.17373,-2.85746 -1.56068,-0.94511 -2.07155,-1.30776 -2.67231,-1.89701 -0.91411,-0.89658 -1.27316,-1.65198 -1.32525,-2.78812 -0.0753,-1.64182 0.53705,-2.95453 1.75452,-3.76132 0.80937,-0.53635 1.79147,-0.8212 3.01877,-0.87557 1.24093,-0.055 2.30592,0.18371 3.44199,0.7714 l 0.5986,0.30965 0.0161,1.37724 0.0161,1.37724 -0.47896,-0.38313 c -1.08272,-0.86608 -2.07737,-1.2725 -3.23461,-1.32168 -1.04322,-0.0443 -1.80232,0.18862 -2.35788,0.72359 -0.42855,0.41267 -0.54406,0.68454 -0.54317,1.27845 9.6e-4,0.63097 0.13286,0.92427 0.66893,1.4873 0.46389,0.48722 0.9356,0.81212 2.31273,1.59295 1.34523,0.76275 1.63003,0.9419 2.22839,1.40177 1.41214,1.08528 2.06083,2.34411 2.06083,3.99924 0,1.3854 -0.46171,2.49932 -1.38823,3.34924 -0.49623,0.4552 -1.26585,0.8603 -1.96397,1.03377 -0.55958,0.13904 -1.52767,0.19015 -2.2784,0.12028 z M 0,123.00654 l 0,-8.36263 4.48955,0 4.48955,0 0,1.03791 0,1.03792 -3.25508,0 c -2.67954,0 -3.26708,0.0143 -3.32298,0.0811 -0.0487,0.0581 -0.0635,0.72653 -0.0522,2.35755 l 0.0157,2.27648 3.3073,0.0153 3.3073,0.0153 0,1.03742 0,1.03741 -3.25044,0 c -2.4483,0 -3.26815,0.0176 -3.32226,0.0712 -0.0544,0.0539 -0.0718,1.00431 -0.0718,3.91443 l 0,3.84325 -1.16729,0 -1.16728,0 0,-8.36264 z m 12.9299,0 0,-8.36263 4.78885,0 4.78885,0 0,1.03744 0,1.03746 -3.57667,0.0153 -3.57667,0.0153 0,2.55031 0,2.55031 3.45695,0.0153 3.45695,0.0153 0,1.03696 0,1.03696 -3.45695,0.0153 -3.45695,0.0153 0,2.60962 0,2.60962 3.66646,0.0153 3.66646,0.0153 0,1.06712 0,1.06711 -4.87864,0 -4.87864,0 0,-8.36264 z m 13.82781,0.004 0,-8.36649 3.66646,5.9e-4 c 4.31439,6e-4 4.88188,0.0444 6.23337,0.48156 2.8317,0.91591 4.78764,3.09646 5.43623,6.06048 0.18136,0.82881 0.19584,2.71433 0.0267,3.47766 -0.36652,1.6542 -1.12078,3.03993 -2.27957,4.18806 -1.22937,1.21805 -2.73864,1.98856 -4.60499,2.35094 -0.63473,0.12324 -0.85197,0.13044 -4.5723,0.15159 l -3.90591,0.0222 0,-8.36648 z m 7.50104,6.1596 c 1.74282,-0.2593 2.99916,-0.91101 4.0497,-2.10075 1.42385,-1.6125 1.88364,-4.1867 1.12749,-6.31237 -0.32613,-0.91683 -0.67209,-1.46214 -1.36002,-2.14374 -0.93816,-0.92952 -2.03945,-1.46435 -3.59619,-1.74644 -0.74274,-0.13459 -5.15248,-0.20703 -5.29841,-0.087 -0.0778,0.064 -0.089,0.85184 -0.089,6.22427 0,3.38307 0.018,6.16883 0.0399,6.19058 0.0675,0.0668 4.6601,0.0449 5.12657,-0.0245 z m 12.43255,-6.16346 0,-8.36263 4.75892,0 4.75892,0 0,1.03791 0,1.03792 -3.5198,0 c -2.65782,0 -3.5374,0.0174 -3.59164,0.0712 -0.10324,0.10229 -0.10324,4.91529 0,5.01758 0.0542,0.0537 0.90722,0.0712 3.47191,0.0712 l 3.40009,0 0,1.03792 0,1.03792 -3.40473,0 c -2.80437,0 -3.41669,0.0143 -3.47256,0.081 -0.0488,0.0582 -0.0634,0.79602 -0.0522,2.62445 l 0.0156,2.54346 3.69639,0.0153 3.6964,0.0153 0,1.06711 0,1.06712 -4.87865,0 -4.87864,0 0,-8.36264 z m 13.82781,0 0,-8.36263 2.46925,5.9e-4 c 2.7524,5.9e-4 3.23137,0.0416 4.20748,0.36233 1.54942,0.50904 2.57086,1.57097 2.94176,3.05834 0.14052,0.56349 0.1411,1.92292 10e-4,2.45062 -0.30116,1.13476 -1.07731,2.1046 -2.09177,2.61377 -0.28792,0.14451 -0.51689,0.27864 -0.50882,0.29808 0.008,0.0194 0.22911,0.20626 0.4912,0.41516 0.87667,0.69878 1.56243,1.59124 3.07181,3.99771 0.42966,0.68503 1.14724,1.7526 1.59463,2.37238 l 0.81343,1.12688 -1.39065,0.016 c -0.76486,0.009 -1.41948,0.005 -1.4547,-0.008 -0.0352,-0.0134 -0.66855,-0.9547 -1.4074,-2.09179 -0.73885,-1.13709 -1.57975,-2.38177 -1.86866,-2.76597 -0.94994,-1.2632 -1.77927,-2.00594 -2.52871,-2.26471 -0.39134,-0.13512 -1.78112,-0.20173 -1.91483,-0.0918 -0.0789,0.0649 -0.0905,0.53216 -0.0905,3.65538 l 0,3.58097 -1.16728,0 -1.16729,0 0,-8.36264 z m 5.12611,-1.15226 c 1.4529,-0.35078 2.28181,-1.43717 2.15425,-2.82344 -0.10271,-1.11634 -0.64806,-1.79364 -1.74852,-2.17161 -0.46038,-0.15813 -0.51127,-0.16277 -1.82048,-0.16591 l -1.34687,-0.003 -0.0156,2.57312 c -0.0121,1.9936 10e-4,2.59329 0.0594,2.66269 0.0641,0.0765 0.24037,0.0843 1.21282,0.0533 0.67893,-0.0216 1.28588,-0.072 1.50499,-0.12491 z m 9.30257,9.47042 c 0.001,-0.0245 1.62473,-3.80767 3.60775,-8.40712 l 3.60547,-8.36264 0.86684,-0.0156 0.86684,-0.0156 3.75626,8.37828 c 2.06594,4.60805 3.75626,8.39829 3.75625,8.42275 0,0.0245 -0.54664,0.0445 -1.21475,0.0445 l -1.21475,0 -1.09932,-2.41686 c -0.60463,-1.32927 -1.12549,-2.45043 -1.15746,-2.49146 -0.0458,-0.0588 -0.81616,-0.0714 -3.6271,-0.0593 l -3.56896,0.0153 -1.07331,2.47617 -1.07332,2.47617 -1.21635,0 c -0.669,0 -1.21534,-0.02 -1.21409,-0.0445 z m 10.73451,-7.05951 c 0.0403,-0.0647 -2.6167,-5.95567 -2.6861,-5.95545 -0.0658,0 -2.53953,5.8906 -2.5018,5.95713 0.0336,0.0592 5.15094,0.0576 5.1879,-0.002 z m 10.91804,-0.2059 -0.0152,-7.3099 -2.91821,-0.0154 -2.9182,-0.0154 0,-1.03735 0,-1.03735 7.06355,0 7.06356,0 0,1.03791 0,1.03792 -2.86134,0 c -2.14567,0 -2.8793,0.0178 -2.93317,0.0712 -0.0551,0.0546 -0.0718,1.76215 -0.0718,7.32472 l 0,7.25355 -1.19698,0 -1.19698,0 -0.0152,-7.30989 z m 11.98686,-1.05275 0,-8.36263 1.19721,0 1.19721,0 0,8.36263 0,8.36264 -1.19721,0 -1.19721,0 0,-8.36264 z m 29.27185,0 0,-8.36263 0.98852,0 0.98852,0 5.66456,6.42025 c 3.11551,3.53114 5.68765,6.42915 5.71587,6.44002 0.0283,0.0109 0.0513,-2.86626 0.0513,-6.42025 l 0,-6.44002 1.13735,0 1.13736,0 0,8.36397 0,8.36398 -1.06704,-0.0162 -1.06703,-0.0162 -5.58623,-6.37577 c -3.07243,-3.50668 -5.60924,-6.38467 -5.63736,-6.39554 -0.0281,-0.0109 -0.0511,2.86489 -0.0511,6.3906 l 0,6.41036 -1.13735,0 -1.13735,0 0,-8.36264 z m 50.82168,0 0,-8.36263 4.51948,0 4.51948,0 0,1.03791 0,1.03792 -3.25508,0 c -2.67954,0 -3.26708,0.0143 -3.32298,0.0811 -0.0487,0.0581 -0.0635,0.72653 -0.0522,2.35755 l 0.0157,2.27648 3.3073,0.0153 3.3073,0.0153 0,1.03742 0,1.03741 -3.25043,0 c -2.4483,0 -3.26816,0.0176 -3.32227,0.0712 -0.0544,0.0539 -0.0718,1.00431 -0.0718,3.91443 l 0,3.84325 -1.19722,0 -1.19721,0 0,-8.36264 z m 21.25053,0 0,-8.36263 4.48955,0 4.48954,0 0,1.03741 0,1.0374 -3.27737,0.0153 -3.27737,0.0153 0,2.34273 0,2.34272 3.27737,0.0153 3.27737,0.0153 0,1.0369 0,1.03691 -3.27737,0.0153 -3.27737,0.0153 -0.0154,3.8996 -0.0154,3.8996 -1.19678,0 -1.19678,0 0,-8.36264 z m 12.98976,0 0,-8.36263 1.19721,0 1.19721,0 0,8.36263 0,8.36264 -1.19721,0 -1.19721,0 0,-8.36264 z m 7.54244,0 0,-8.36263 0.97273,8.8e-4 0.97274,8.9e-4 5.67674,6.43422 c 3.12222,3.53882 5.70146,6.43421 5.73166,6.43421 0.033,0 0.0549,-2.57122 0.0549,-6.43508 l 0,-6.43508 1.10742,0 1.10742,0 0,8.36264 0,8.36264 -1.04309,0 -1.04309,0 -5.61283,-6.40543 c -3.08705,-3.52298 -5.63464,-6.40542 -5.6613,-6.40542 -0.0267,0 -0.0485,2.88244 -0.0485,6.40542 l 0,6.40543 -1.10742,0 -1.10742,0 0,-8.36264 z m 20.71178,0 0,-8.36263 0.98382,0 0.98382,0 5.66879,6.42025 c 3.11784,3.53114 5.6921,6.42915 5.72057,6.44002 0.0289,0.011 0.0518,-2.82141 0.0518,-6.42025 l 0,-6.44002 1.13735,0 1.13736,0 0,8.36263 0,8.36264 -1.06253,-0.002 -1.06253,-0.002 -5.59697,-6.39972 c -3.07833,-3.51986 -5.61717,-6.40136 -5.64186,-6.40334 -0.0247,-0.002 -0.0449,2.87883 -0.0449,6.40181 l 0,6.40543 -1.13735,0 -1.13735,0 0,-8.36264 z m 20.8315,0 0,-8.36263 1.16728,0 1.16729,0 0,8.36263 0,8.36264 -1.16729,0 -1.16728,0 0,-8.36264 z m 20.2329,0 0,-8.36263 1.16682,0 1.16682,0 0.0154,3.6327 0.0154,3.63271 4.75892,0 4.75892,0 0.0154,-3.63271 0.0154,-3.6327 1.19675,0 1.19675,0 0,8.36263 0,8.36264 -1.19675,0 -1.19675,0 -0.0154,-3.6327 -0.0154,-3.63271 -4.75892,0 -4.75892,0 -0.0154,3.63271 -0.0154,3.6327 -1.16682,0 -1.16682,0 0,-8.36264 z m 27.65561,0 0,-8.36263 1.19698,0 1.19697,0 0.0152,7.28024 0.0152,7.28024 3.81611,0.0153 3.81612,0.0153 0,1.06713 0,1.06713 -5.02829,0 -5.0283,0 0,-8.36264 z m 13.52851,0 0,-8.36263 4.78885,0 4.78885,0 0,1.03744 0,1.03746 -3.57667,0.0153 -3.57668,0.0153 0,2.55031 0,2.55031 3.45695,0.0153 3.45696,0.0153 0,1.03696 0,1.03696 -3.45696,0.0153 -3.45695,0.0153 0,2.60962 0,2.60962 3.6964,0.0153 3.69639,0.0153 0,1.06711 0,1.06712 -4.90857,0 -4.90857,0 0,-8.36264 z m 12.11378,7.90419 c 0.10891,-0.25346 1.74212,-4.04457 3.62936,-8.42467 l 3.43134,-7.96383 0.86514,0.0164 0.86514,0.0164 3.76452,8.39197 c 2.07049,4.61559 3.76452,8.39934 3.76452,8.40833 0,0.009 -0.55623,0.009 -1.23605,5.9e-4 l -1.23606,-0.016 -1.08429,-2.37899 c -0.59637,-1.30844 -1.12093,-2.42272 -1.16571,-2.47617 -0.0737,-0.088 -0.41375,-0.0972 -3.60864,-0.0972 l -3.52722,0 -0.0935,0.1631 c -0.0514,0.0897 -0.54252,1.20398 -1.09133,2.47617 l -0.99783,2.31307 -1.2387,0.016 -1.23869,0.016 0.19801,-0.46085 z m 10.5734,-6.66568 c 0,-0.0995 -2.64714,-5.98327 -2.69189,-5.98327 -0.0614,0 -2.51918,5.93715 -2.48229,5.99631 0.0513,0.0823 5.17418,0.0694 5.17418,-0.013 z m 9.03895,-1.23851 0,-8.36263 2.49919,5.9e-4 c 2.65756,5.9e-4 3.21019,0.0411 4.05555,0.29908 1.68954,0.51553 2.73174,1.57933 3.12246,3.18715 0.1341,0.5518 0.13278,1.80378 -0.002,2.3554 -0.27977,1.14105 -1.05378,2.12089 -2.0871,2.64212 -0.28792,0.14522 -0.51689,0.28055 -0.50882,0.30072 0.008,0.0202 0.22222,0.20152 0.47588,0.40299 0.82249,0.65328 1.50395,1.51619 2.69721,3.41546 0.90762,1.4446 1.4409,2.2438 2.07771,3.11374 0.25073,0.34252 0.51713,0.70949 0.59201,0.81551 l 0.13615,0.19276 -1.4557,-0.002 -1.45569,-0.002 -0.92429,-1.43622 c -2.04107,-3.17157 -2.57191,-3.90493 -3.45011,-4.76647 -0.87999,-0.86328 -1.50399,-1.1092 -2.72926,-1.07561 l -0.61837,0.017 -0.0154,3.6327 -0.0154,3.63271 -1.19675,0 -1.19675,0 0,-8.36264 z m 4.57934,-1.0691 c 0.9851,-0.10946 1.62642,-0.38866 2.12583,-0.92547 0.87895,-0.94476 0.83161,-2.73198 -0.0948,-3.57803 -0.64661,-0.59053 -1.43183,-0.78426 -3.08074,-0.76007 l -1.1053,0.0162 -0.0156,2.57312 c -0.0112,1.85037 0.003,2.59587 0.0522,2.6541 0.0834,0.0995 1.29984,0.1111 2.11836,0.0201 z m 11.70276,1.0691 0,-8.36263 0.98471,0 0.98472,0 5.66619,6.42025 c 3.11641,3.53114 5.69027,6.42915 5.71968,6.44002 0.0312,0.0115 0.0535,-2.66408 0.0535,-6.42025 l 0,-6.44002 1.10742,0 1.10743,0 0,8.36263 0,8.36264 -1.0326,-10e-4 -1.0326,-0.001 -5.6269,-6.42694 c -3.09479,-3.53481 -5.6471,-6.41502 -5.67179,-6.40047 -0.0247,0.0145 -0.0449,2.90732 -0.0449,6.42838 l 0,6.40193 -1.10742,0 -1.10742,0 0,-8.36264 z m 20.77164,0 0,-8.36263 4.78885,0 4.78885,0 0,1.03744 0,1.03746 -3.57667,0.0153 -3.57667,0.0153 0,2.55031 0,2.55031 3.45695,0.0153 3.45695,0.0153 0,1.03696 0,1.03696 -3.45695,0.0153 -3.45695,0.0153 0,2.60962 0,2.60962 3.66646,0.0153 3.66646,0.0153 0,1.06712 0,1.06711 -4.87864,0 -4.87864,0 0,-8.36264 z m 13.82781,0.004 0,-8.36649 3.66646,5.9e-4 c 3.63044,6e-4 4.27733,0.0271 5.22284,0.21461 3.30951,0.65644 5.73193,3.02576 6.4383,6.29715 0.19467,0.90158 0.22419,2.33714 0.0667,3.24417 -0.30332,1.74694 -1.06826,3.22044 -2.31109,4.45183 -1.22938,1.21805 -2.73865,1.98856 -4.605,2.35094 -0.63473,0.12324 -0.85196,0.13044 -4.5723,0.15159 l -3.9059,0.0222 0,-8.36648 z m 7.50104,6.1596 c 1.00541,-0.14959 1.85986,-0.43793 2.63191,-0.88814 0.57749,-0.33677 1.61443,-1.36326 1.95309,-1.93339 1.02319,-1.72258 1.24006,-3.77031 0.5922,-5.59159 -0.32614,-0.91683 -0.6721,-1.46214 -1.36003,-2.14374 -0.93816,-0.92952 -2.03945,-1.46435 -3.59619,-1.74644 -0.74274,-0.13459 -5.15248,-0.20703 -5.29841,-0.087 -0.0778,0.064 -0.089,0.85184 -0.089,6.22427 0,3.38307 0.018,6.16883 0.0399,6.19058 0.0675,0.0668 4.6601,0.0449 5.12657,-0.0245 z m 74.14887,-6.16346 0,-8.36263 1.16728,0 1.16728,0 0,8.36263 0,8.36264 -1.16728,0 -1.16728,0 0,-8.36264 z m 7.48258,0 0,-8.36263 4.78885,0 4.78885,0 0,1.03791 0,1.03792 -3.52445,0 c -2.90592,0 -3.53635,0.0142 -3.5923,0.081 -0.0487,0.0582 -0.0634,0.78057 -0.0522,2.56514 l 0.0156,2.48413 3.45696,0.0153 3.45695,0.0153 0,1.03744 0,1.03744 -3.40473,0 c -2.80438,0 -3.41668,0.0143 -3.47256,0.081 -0.0488,0.0582 -0.0635,0.79602 -0.0522,2.62445 l 0.0156,2.54346 3.6964,0.0153 3.69639,0.0153 0,1.06711 0,1.06712 -4.90857,0 -4.90857,0 0,-8.36264 z m 18.1829,1.05275 -0.0152,-7.3099 -2.9182,-0.0154 -2.91821,-0.0154 0,-1.03735 0,-1.03735 7.06356,0 7.06355,0 0,1.03735 0,1.03735 -2.9182,0.0154 -2.91821,0.0154 -0.0152,7.3099 -0.0152,7.30989 -1.19674,0 -1.19674,0 -0.0152,-7.30989 z m 11.98686,-1.05275 0,-8.36263 1.19721,0 1.19722,0 0,8.36263 0,8.36264 -1.19722,0 -1.19721,0 0,-8.36264 z m 7.54244,0 0,-8.36263 4.75892,0 4.75892,0 0,1.03791 0,1.03792 -3.52445,0 c -2.90591,0 -3.53635,0.0142 -3.59229,0.081 -0.0488,0.0582 -0.0635,0.78057 -0.0522,2.56514 l 0.0156,2.48413 3.45695,0.0153 3.45695,0.0153 0,1.03744 0,1.03744 -3.40473,0 c -2.80437,0 -3.41668,0.0143 -3.47256,0.081 -0.0488,0.0582 -0.0634,0.79602 -0.0522,2.62445 l 0.0156,2.54346 3.69639,0.0153 3.6964,0.0153 0,1.06711 0,1.06712 -4.87865,0 -4.87864,0 0,-8.36264 z M 278.23225,97.377784 c -8.45571,-0.473426 -16.46705,-3.013409 -23.60946,-7.485333 -10.36422,-6.489129 -17.98361,-16.760205 -21.15863,-28.522224 -1.98777,-7.3638 -2.18878,-15.46091 -0.56946,-22.93935 1.63945,-7.57145 5.09774,-14.66679 10.07224,-20.66514 5.45845,-6.5819 12.62678,-11.6642805 20.68924,-14.6687705 7.50703,-2.79750998 15.74461,-3.72341998 23.85447,-2.68126998 7.49651,0.96333998 14.71534,3.68001998 21.06182,7.92624998 2.70747,1.8114805 4.865,3.5783205 7.22554,5.9171305 2.43046,2.40808 4.21884,4.56356 6.10448,7.35756 4.41719,6.54502 7.1157,13.8608 7.98512,21.64797 0.22157,1.9846 0.27122,2.98345 0.27122,5.45647 0,2.47302 -0.0496,3.47186 -0.27122,5.45647 -1.10999,9.94189 -5.21498,19.134425 -11.97125,26.807893 -0.87409,0.992752 -3.33443,3.430438 -4.33641,4.296481 -8.50562,7.351684 -18.82636,11.51632 -29.99018,12.101663 -1.30605,0.06848 -4.08463,0.06547 -5.35752,-0.0058 z m 27.28107,-24.443371 10.19169,-10.097206 0,-14.20557 0,-14.20558 -10.16135,-10.06697 -10.16134,-10.06696 -14.33662,9e-4 -14.33663,8.9e-4 -10.2212,10.11853 -10.2212,10.11854 -0.003,14.18253 -0.003,14.18253 10.1943,10.066218 10.19429,10.066221 14.33621,0.0015 14.3362,0.0015 10.19169,-10.097204 z m -31.06722,2.312869 6.53974,-6.479535 6.53974,6.479535 6.53974,6.479527 -13.07948,0 -13.07949,0 6.53975,-6.479527 z m -17.13515,-3.128615 -9.21839,-9.13366 9.23343,0 9.23343,0 0,9.13366 c 0,5.023518 -0.007,9.133666 -0.015,9.133666 -0.008,0 -4.16332,-4.110148 -9.23344,-9.133666 z m 38.04144,-0.0297 0,-9.16331 9.26336,0 9.26336,0 -9.24832,9.16331 c -5.08658,5.039828 -9.25509,9.163321 -9.26336,9.163321 -0.008,0 -0.015,-4.123493 -0.015,-9.163321 z m -27.53589,-0.54864 0,-8.55444 3.63653,-0.0153 3.63653,-0.0153 0.0154,-3.63271 0.0154,-3.63271 1.39189,0 1.39188,0 1.13634,1.12705 1.13633,1.12704 -2.52868,2.50593 -2.5287,2.50592 2.48422,2.46081 c 1.36633,1.35345 2.48423,2.48769 2.48423,2.52053 0,0.0516 -6.8509,6.848666 -10.9096,10.823802 l -1.36183,1.333787 0,-8.554439 z m 20.14318,2.41697 -6.10549,-6.04949 2.52893,-2.50617 2.52893,-2.50617 -2.48422,-2.46081 c -1.36633,-1.35344 -2.48422,-2.48789 -2.48422,-2.52099 0,-0.0331 0.49187,-0.54699 1.09305,-1.14197 l 1.09304,-1.0818 1.39071,0 1.3907,0 0.0154,3.60305 0.0154,3.60305 3.57667,0.0153 3.57668,0.0153 0,8.54011 c 0,4.697048 -0.007,8.540095 -0.0151,8.540095 -0.008,0 -2.76254,-2.72227 -6.12056,-6.049491 z m -9.06897,-8.98546 -2.06453,-2.04618 2.06453,-2.04618 c 1.1355,-1.1254 2.09177,-2.04618 2.12506,-2.04618 0.0333,0 0.98955,0.92078 2.12505,2.04618 l 2.06454,2.04618 -2.06454,2.04618 c -1.1355,1.12539 -2.09177,2.04617 -2.12505,2.04617 -0.0333,0 -0.98956,-0.92078 -2.12506,-2.04617 z m -23.58509,-9.3116 c 3.37453,-3.34357 6.17608,-6.07922 6.22567,-6.07922 0.0496,0 1.20121,1.10105 2.55915,2.44678 l 2.46898,2.44678 0,3.63245 0,3.63244 -8.69465,0 -8.69464,0 6.13549,-6.07923 z m 12.51088,3.05444 0,-3.02478 3.02296,0 3.02296,0 0,3.02478 0,3.02479 -3.02296,0 -3.02296,0 0,-3.02479 z m 20.41247,-0.0297 0,-2.99513 2.93318,0 2.93317,0 0,2.99513 0,2.99513 -2.93317,0 -2.93318,0 0,-2.99513 z m 7.12342,-0.60818 0,-3.60331 2.54419,-2.52025 2.54419,-2.52024 6.18046,6.12356 6.18046,6.12355 -8.72465,0 -8.72465,0 0,-3.60331 z m -47.82865,-9.41512 c 0,-7.12752 0.0203,-12.95913 0.045,-12.95913 0.0685,0 13.06448,12.89138 13.06448,12.95933 0,0.0678 -12.99631,12.95892 -13.06469,12.95892 -0.0246,0 -0.0448,-5.8316 -0.0448,-12.95912 z m 60.33949,6.40539 -6.55457,-6.49442 6.56963,-6.50915 6.56964,-6.50915 0,13.00357 c 0,7.15197 -0.007,13.00357 -0.0151,13.00357 -0.008,0 -2.96463,-2.92249 -6.56964,-6.49442 z m -27.53586,1.30484 -0.68645,-0.68206 1.40478,0 1.40477,0 -0.68644,0.68206 c -0.37755,0.37514 -0.7008,0.68206 -0.71833,0.68206 -0.0175,0 -0.34078,-0.30692 -0.71833,-0.68206 z m -11.17914,-4.40338 2.49883,-2.47583 1.10768,1.09628 1.10768,1.09628 0,1.37955 0,1.37954 -3.60651,0 -3.60652,0 2.49884,-2.47582 z m 5.97126,1.72052 0,-0.75531 0.74826,0.73959 c 0.41154,0.40677 0.74826,0.74666 0.74826,0.75531 0,0.009 -0.33672,0.0157 -0.74826,0.0157 l -0.74826,0 0,-0.75531 z m 1.6308,-0.86128 -1.6308,-1.61658 0,-2.57996 0,-2.57996 1.66153,-1.64544 1.66153,-1.64545 2.54408,0 2.54407,0 1.69067,1.67588 1.69067,1.67588 0,2.57999 0,2.57999 -1.60168,1.58612 -1.60168,1.58611 -2.6638,0 -2.66379,0 -1.6308,-1.61658 z m 9.38356,0.87522 c 0.41056,-0.40776 0.7536,-0.74137 0.76233,-0.74137 0.009,0 0.0159,0.33361 0.0159,0.74137 l 0,0.74136 -0.76233,0 -0.76232,0 0.74646,-0.74136 z m 2.09512,-0.66787 0,-1.40924 1.03322,-1.02245 c 0.56828,-0.56235 1.06,-1.02245 1.09273,-1.02245 0.0327,0 1.1637,1.09426 2.51325,2.43169 l 2.45375,2.43168 -3.54648,0 -3.54647,0 0,-1.40923 z m -23.75003,-2.2831 c -1.12744,-1.11742 -2.0499,-2.05836 -2.0499,-2.09098 0,-0.0775 4.0827,-4.12137 4.16096,-4.12137 0.0782,0 4.15967,4.04511 4.15967,4.12265 0,0.0775 -4.08271,4.12137 -4.16096,4.12137 -0.0329,0 -0.98232,-0.91425 -2.10977,-2.03167 z m 28.74839,-0.0442 -2.0346,-2.01653 2.09447,-2.07582 c 1.15196,-1.14171 2.12171,-2.07583 2.15499,-2.07583 0.0333,0 0.97608,0.90744 2.09512,2.01653 l 2.0346,2.01652 -2.09447,2.07583 c -1.15196,1.14171 -2.12171,2.07583 -2.15499,2.07583 -0.0333,0 -0.97608,-0.90744 -2.09512,-2.01653 z m -20.05365,-1.42376 -0.65677,-0.65275 0.67276,-0.66656 0.67275,-0.66656 0,1.31931 c 0,0.72561 -0.007,1.3193 -0.016,1.3193 -0.009,0 -0.31152,-0.29373 -0.67275,-0.65274 z m 15.05529,-0.59276 0,-1.27293 0.59861,0.59087 c 0.32923,0.32498 0.59861,0.63191 0.59861,0.68206 0,0.0502 -0.26938,0.35708 -0.59861,0.68206 l -0.59861,0.59087 0,-1.27293 z m 1.03196,-1.91335 -1.03196,-1.0237 0,-1.49649 0,-1.49648 3.60661,-0.0153 3.6066,-0.0153 0.0154,-3.5734 0.0154,-3.57339 8.60446,0 8.60446,0 -6.1206,6.06424 -6.12059,6.06424 -2.48434,-2.46092 -2.48433,-2.46093 -2.52937,2.50556 c -1.39116,1.37806 -2.55648,2.50556 -2.58962,2.50556 -0.0331,0 -0.52462,-0.46067 -1.09219,-1.02371 z m -33.92538,-5.08517 -6.10556,-6.04957 8.66425,0 8.66424,0 0.0154,3.54375 0.0154,3.54374 3.63654,0.0153 3.63653,0.0153 0,1.43719 0,1.4372 -1.0619,1.05334 c -0.58405,0.57934 -1.08901,1.05335 -1.12213,1.05335 -0.0331,0 -1.18497,-1.11416 -2.55966,-2.47591 l -2.49945,-2.47591 -2.49944,2.47591 c -1.37469,1.36175 -2.53979,2.47591 -2.58909,2.47591 -0.0493,0 -2.83713,-2.72231 -6.1952,-6.04957 z m 30.70851,1.89791 -0.83644,-0.83034 0.85221,0 0.85221,0 0,0.83034 c 0,0.45668 -0.007,0.83033 -0.0158,0.83033 -0.009,0 -0.39216,-0.37365 -0.85221,-0.83033 z m -10.92457,-0.0593 0,-0.77103 0.82223,0 0.82221,0 -0.77646,0.77103 c -0.42705,0.42406 -0.79705,0.77102 -0.82222,0.77102 -0.0252,0 -0.0458,-0.34696 -0.0458,-0.77102 z m -7.30299,-4.95235 0,-2.93582 3.02296,0 3.02296,0 0,2.93582 0,2.93582 -3.02296,0 -3.02296,0 0,-2.93582 z m 7.2885,-0.60792 -0.0154,-3.54374 -3.63653,-0.0153 -3.63653,-0.0153 0,-8.52524 0,-8.52525 6.15052,6.0939 6.15053,6.0939 -2.48379,2.46146 -2.4838,2.46146 2.46899,2.44678 c 1.35793,1.34573 2.46898,2.47364 2.46898,2.50646 0,0.0328 -0.46495,0.51979 -1.03322,1.08214 l -1.03322,1.02245 -1.45053,0 -1.45053,0 -0.0154,-3.54374 z m 5.19244,2.95065 c 0.328,-0.3262 0.63778,-0.5931 0.6884,-0.5931 0.0506,0 0.36039,0.2669 0.68839,0.5931 l 0.59637,0.59309 -1.28476,0 -1.28476,0 0.59636,-0.59309 z m 2.61826,-0.43061 c -0.56757,-0.56304 -1.03195,-1.05 -1.03195,-1.08214 0,-0.0321 1.11104,-1.15947 2.46898,-2.5052 l 2.46898,-2.44679 -2.4838,-2.46146 -2.48379,-2.46146 6.18046,-6.12355 6.18046,-6.12355 0,8.49605 0,8.49605 -3.57967,0 c -2.70437,0 -3.59723,0.0174 -3.6515,0.0712 -0.0543,0.0538 -0.0718,0.9384 -0.0718,3.61787 l 0,3.54671 -1.48219,0 -1.48219,0 -1.03196,-1.0237 z m 5.31327,-1.94177 0,-2.96548 2.99304,0 2.99303,0 0,2.96548 0,2.96547 -2.99303,0 -2.99304,0 0,-2.96547 z m -9.32363,-2.03168 c -1.09451,-1.0848 -1.99003,-1.99906 -1.99003,-2.03168 0,-0.0326 0.91363,-0.96422 2.03028,-2.07023 l 2.03027,-2.01093 2.04014,1.9816 c 1.12207,1.08988 2.04019,2.02178 2.04025,2.0709 0,0.11638 -3.95345,4.03271 -4.07108,4.03271 -0.0494,0 -0.98531,-0.88757 -2.07983,-1.97237 z m -21.59439,-11.25364 c 5.07012,-5.02351 9.22516,-9.13366 9.23344,-9.13366 0.008,0 0.015,4.11015 0.015,9.13366 l 0,9.13367 -9.23343,0 -9.23343,0 9.21839,-9.13367 z m 38.16116,-0.10372 0,-9.11876 9.18861,9.10386 c 5.05373,5.00713 9.18861,9.11057 9.18861,9.11877 0,0.008 -4.13488,0.0149 -9.18861,0.0149 l -9.18861,0 0,-9.11877 z m -21.08601,-3.02495 c -3.61328,-3.58013 -6.5696,-6.52929 -6.5696,-6.5537 0,-0.0244 5.94635,-0.0444 13.21413,-0.0444 l 13.21413,0 -6.61439,6.5537 c -3.63792,3.60453 -6.62796,6.5537 -6.64453,6.5537 -0.0166,0 -2.98646,-2.9292 -6.59974,-6.50932 z"
     style="fill:#000000" /></svg>