<?xml version="1.0" encoding="UTF-8" standalone="no"?>
<svg
   xmlns:dc="http://purl.org/dc/elements/1.1/"
   xmlns:cc="http://creativecommons.org/ns#"
   xmlns:rdf="http://www.w3.org/1999/02/22-rdf-syntax-ns#"
   xmlns:svg="http://www.w3.org/2000/svg"
   xmlns="http://www.w3.org/2000/svg"
   xml:space="preserve"
   enable-background="new 0 0 595.28 841.89"
   viewBox="0 0 420.46897 120.08"
   height="120.08"
   width="420.46899"
   y="0px"
   x="0px"
   id="Ebene_1"
   version="1.1"><metadata
     id="metadata45"><rdf:RDF><cc:Work
         rdf:about=""><dc:format>image/svg+xml</dc:format><dc:type
           rdf:resource="http://purl.org/dc/dcmitype/StillImage" /><dc:title></dc:title></cc:Work></rdf:RDF></metadata><defs
     id="defs43" /><g
     transform="translate(-88.117,-361.318)"
     id="g3"><path
       style="fill:#0f8d79"
       id="path5"
       d="m 180.416,361.318 17.012,0 -21.002,24.992 22.892,27.793 -17.782,0 -17.712,-22.893 -0.14,0 0,22.893 -13.721,0 0,-52.785 13.721,0 0,21.772 0.14,0 16.592,-21.772 z" /><path
       style="fill:#0f8d79"
       id="path7"
       d="m 236.626,414.104 -12.741,0 0,-3.99 -0.14,0 c -2.24,3.57 -6.651,5.181 -10.851,5.181 -10.641,0 -18.132,-8.891 -18.132,-19.182 0,-10.291 7.351,-19.113 17.992,-19.113 4.13,0 8.471,1.54 11.131,4.69 l 0,-3.5 12.741,0 0,35.914 z m -28.703,-17.922 c 0,4.551 3.01,8.051 8.191,8.051 5.181,0 8.191,-3.5 8.191,-8.051 0,-4.41 -3.01,-8.12 -8.191,-8.12 -5.181,0 -8.191,3.709 -8.191,8.12 z" /><path
       style="fill:#0f8d79"
       id="path9"
       d="m 254.473,384.07 0.14,0 c 2.451,-4.41 6.651,-6.37 11.622,-6.37 l 2.45,0 0,12.251 c -1.75,-0.98 -3.43,-1.19 -5.391,-1.19 -7.071,0 -8.821,4.69 -8.821,10.852 l 0,14.491 -12.741,0 0,-35.914 12.741,0 0,5.88 z" /><path
       style="fill:#0f8d79"
       id="path11"
       d="m 311.105,410.604 c 0,15.262 -7.562,21.422 -20.792,21.422 -8.262,0 -19.322,-4.271 -20.442,-13.721 l 14.281,0 c 0.351,1.26 1.261,2.17 2.38,2.729 1.121,0.561 2.451,0.841 3.641,0.841 6.861,0 8.191,-4.48 8.191,-10.291 l 0,-1.681 c -3.291,3.29 -6.65,4.9 -11.412,4.9 -10.5,0 -17.711,-7.98 -17.711,-18.342 0,-10.501 7.42,-19.462 18.413,-19.462 4.199,0 8.051,1.4 10.57,4.971 l 0.141,0 0,-3.78 12.741,0 0,32.414 z m -28.703,-14.702 c 0,4.55 3.011,8.051 8.19,8.051 5.182,0 8.191,-3.501 8.191,-8.051 0,-4.411 -3.01,-8.121 -8.191,-8.121 -5.179,0 -8.19,3.71 -8.19,8.121 z" /><path
       style="fill:#0f8d79"
       id="path13"
       d="m 353.874,398.282 -26.813,0 c 0,5.181 2.73,7.98 7.981,7.98 2.73,0 4.69,-0.91 6.091,-3.29 l 12.251,0 c -2.03,8.471 -10.081,12.321 -18.271,12.321 -11.901,0 -20.793,-6.721 -20.793,-19.112 0,-11.971 8.191,-19.182 19.883,-19.182 12.461,0 19.672,7.701 19.672,19.952 l 0,1.331 z m -11.831,-7.35 c -0.631,-3.431 -3.781,-5.671 -7.211,-5.671 -3.711,0 -6.791,1.96 -7.561,5.671 l 14.772,0 z" /><path
       style="fill:#0f8d79"
       id="path15"
       d="m 370.039,384.07 0.141,0 c 2.45,-4.41 6.65,-6.37 11.621,-6.37 l 2.45,0 0,12.251 c -1.75,-0.98 -3.431,-1.19 -5.391,-1.19 -7.07,0 -8.821,4.69 -8.821,10.852 l 0,14.491 -12.741,0 0,-35.914 12.741,0 0,5.88 z" /></g><g
     transform="translate(-88.117,-361.318)"
     id="g17"><path
       style="fill:#c52d40"
       id="path19"
       d="m 162.72,431.622 0.14,0 c 2.311,-3.57 6.651,-5.251 10.851,-5.251 10.711,0 18.132,8.961 18.132,19.252 0,10.361 -7.351,19.042 -17.992,19.042 -4.13,0 -8.401,-1.47 -11.131,-4.62 l 0,21.353 -12.741,0 0,-53.836 12.741,0 0,4.06 z m -0.42,13.932 c 0,4.55 3.01,8.051 8.191,8.051 5.181,0 8.191,-3.501 8.191,-8.051 0,-4.411 -3.01,-8.121 -8.191,-8.121 -5.181,0 -8.191,3.71 -8.191,8.121 z" /><path
       style="fill:#c52d40"
       id="path21"
       d="m 233.702,447.653 -26.813,0 c 0,5.181 2.73,7.981 7.981,7.981 2.73,0 4.69,-0.91 6.091,-3.291 l 12.251,0 c -2.03,8.472 -10.081,12.321 -18.272,12.321 -11.901,0 -20.792,-6.721 -20.792,-19.111 0,-11.972 8.191,-19.183 19.882,-19.183 12.461,0 19.672,7.701 19.672,19.952 l 0,1.331 z m -11.831,-7.35 c -0.63,-3.43 -3.781,-5.67 -7.211,-5.67 -3.71,0 -6.791,1.96 -7.561,5.67 l 14.772,0 z" /><path
       style="fill:#c52d40"
       id="path23"
       d="m 250.149,432.182 0.14,0 c 2.94,-4.34 6.511,-5.811 11.481,-5.811 9.661,0 13.511,6.091 13.511,14.912 l 0,22.192 -12.741,0 0,-17.502 c 0,-3.431 0.56,-9.451 -5.741,-9.451 -5.18,0 -6.65,3.851 -6.65,8.331 l 0,18.622 -12.741,0 0,-35.914 12.741,0 0,4.621 z" /><path
       style="fill:#c52d40"
       id="path25"
       d="m 343.6,463.476 -12.741,0 0,-3.99 -0.141,0 c -2.239,3.57 -6.65,5.18 -10.851,5.18 -10.641,0 -18.132,-8.891 -18.132,-19.182 0,-10.291 7.352,-19.112 17.992,-19.112 4.13,0 8.471,1.541 11.131,4.69 l 0,-3.5 12.742,0 0,35.914 z m -28.703,-17.922 c 0,4.55 3.01,8.051 8.19,8.051 5.18,0 8.19,-3.501 8.19,-8.051 0,-4.411 -3.01,-8.121 -8.19,-8.121 -5.18,0 -8.19,3.71 -8.19,8.121 z" /><path
       style="fill:#c52d40"
       id="path27"
       d="m 375.309,439.253 c -1.891,-1.4 -4.131,-2.521 -6.581,-2.521 -4.9,0 -8.751,3.78 -8.751,8.751 0,5.181 3.71,8.821 8.961,8.821 2.24,0 4.69,-0.91 6.371,-2.45 l 0,10.781 c -2.801,1.399 -5.881,2.029 -8.961,2.029 -10.642,0 -19.532,-7.91 -19.532,-18.762 0,-11.551 8.82,-19.532 20.092,-19.532 2.94,0 5.881,0.7 8.401,2.101 l 0,10.782 z" /><path
       style="fill:#c52d40"
       id="path29"
       d="m 405.407,439.253 c -1.891,-1.4 -4.131,-2.521 -6.581,-2.521 -4.9,0 -8.751,3.78 -8.751,8.751 0,5.181 3.711,8.821 8.961,8.821 2.24,0 4.69,-0.91 6.371,-2.45 l 0,10.781 c -2.801,1.399 -5.881,2.029 -8.961,2.029 -10.642,0 -19.532,-7.91 -19.532,-18.762 0,-11.551 8.82,-19.532 20.092,-19.532 2.94,0 5.881,0.7 8.401,2.101 l 0,10.782 z" /><path
       style="fill:#c52d40"
       id="path31"
       d="m 446.497,447.653 -26.813,0 c 0,5.181 2.73,7.981 7.981,7.981 2.729,0 4.69,-0.91 6.09,-3.291 l 12.252,0 c -2.03,8.472 -10.081,12.321 -18.272,12.321 -11.901,0 -20.792,-6.721 -20.792,-19.111 0,-11.972 8.191,-19.183 19.882,-19.183 12.462,0 19.673,7.701 19.673,19.952 l 0,1.331 z m -11.832,-7.35 c -0.63,-3.43 -3.78,-5.67 -7.21,-5.67 -3.711,0 -6.791,1.96 -7.562,5.67 l 14.772,0 z" /><path
       style="fill:#c52d40"
       id="path33"
       d="m 471.975,436.803 c -1.96,-1.05 -4.69,-1.75 -6.86,-1.75 -1.471,0 -3.99,0.63 -3.99,2.45 0,2.45 3.99,2.8 5.74,3.15 5.951,1.189 10.432,3.99 10.432,10.641 0,9.451 -8.611,13.371 -16.942,13.371 -5.11,0 -10.151,-1.47 -14.491,-4.13 l 4.62,-8.891 c 2.591,1.819 6.931,3.64 10.081,3.64 1.61,0 3.99,-0.77 3.99,-2.729 0,-2.801 -3.99,-2.94 -7.98,-3.991 -3.99,-1.05 -7.98,-3.01 -7.98,-9.45 0,-8.821 7.98,-12.742 15.821,-12.742 4.061,0 8.121,0.631 11.831,2.311 l -4.272,8.12 z" /><path
       style="fill:#c52d40"
       id="path35"
       d="m 503.264,436.803 c -1.96,-1.05 -4.69,-1.75 -6.86,-1.75 -1.471,0 -3.99,0.63 -3.99,2.45 0,2.45 3.99,2.8 5.74,3.15 5.951,1.189 10.432,3.99 10.432,10.641 0,9.451 -8.611,13.371 -16.942,13.371 -5.11,0 -10.151,-1.47 -14.491,-4.13 l 4.62,-8.891 c 2.591,1.819 6.931,3.64 10.081,3.64 1.61,0 3.99,-0.77 3.99,-2.729 0,-2.801 -3.99,-2.94 -7.98,-3.991 -3.99,-1.05 -7.98,-3.01 -7.98,-9.45 0,-8.821 7.98,-12.742 15.821,-12.742 4.061,0 8.121,0.631 11.831,2.311 l -4.272,8.12 z" /></g><path
     style="fill:none"
     id="path37"
     d="m 24.234,65.203 0,-3.417 c -5.774,2.011 -9.951,7.34 -9.951,13.075 0,9.101 6.721,15.752 14.912,15.752 8.191,0 14.912,-6.651 14.912,-15.752 0,-5.735 -4.177,-11.064 -9.951,-13.075 l 0,3.417 -9.922,0 z" /><path
     style="fill:#c52d40"
     id="path39"
     d="m 34.154,48.036 0,13.75 c 5.774,2.011 9.951,7.34 9.951,13.075 0,9.101 -6.721,15.752 -14.912,15.752 -8.191,0 -14.912,-6.651 -14.912,-15.752 0,-5.735 4.177,-11.064 9.951,-13.075 l 0,-13.75 C 11.087,50.163 0,60.589 0,74.791 c 0,17.082 12.251,29.123 29.193,29.123 16.942,0 29.193,-12.041 29.193,-29.123 C 58.387,60.589 47.3,50.163 34.154,48.036 Z" /></svg>