<?xml version="1.0" encoding="UTF-8" standalone="no"?>
<svg
   xmlns:dc="http://purl.org/dc/elements/1.1/"
   xmlns:cc="http://creativecommons.org/ns#"
   xmlns:rdf="http://www.w3.org/1999/02/22-rdf-syntax-ns#"
   xmlns:svg="http://www.w3.org/2000/svg"
   xmlns="http://www.w3.org/2000/svg"
   viewBox="0 0 83.887497 88.737503"
   height="88.737503"
   width="83.887497"
   xml:space="preserve"
   version="1.1"
   id="svg3355"><metadata
     id="metadata3361"><rdf:RDF><cc:Work
         rdf:about=""><dc:format>image/svg+xml</dc:format><dc:type
           rdf:resource="http://purl.org/dc/dcmitype/StillImage" /><dc:title></dc:title></cc:Work></rdf:RDF></metadata><defs
     id="defs3359" /><g
     transform="matrix(1.25,0,0,-1.25,0,88.7375)"
     id="g3363"><g
       transform="scale(0.1,0.1)"
       id="g3365"><path
         id="path3367"
         style="fill:#231f20;fill-opacity:1;fill-rule:nonzero;stroke:none"
         d="m 56.7461,77.7422 -11.707,0 -31.0977,34.8048 0,-34.8048 -13.9414,0 0,56.2618 12.7773,0 30.1133,-33.164 0,33.164 13.8555,0 0,-56.2618" /><path
         id="path3369"
         style="fill:#231f20;fill-opacity:1;fill-rule:nonzero;stroke:none"
         d="m 110.367,87.1484 -0.488,-0.2539 c -2.149,-1.2304 -3.141,-1.5547 -4.133,-1.5547 -1.48,0 -1.898,0.7344 -1.898,3.0469 l 0,15.0113 c 0,3.633 -0.328,5.36 -1.149,6.934 -2.152,3.875 -7.5935,6.18 -14.9295,6.18 -2.6445,0 -6.1093,-0.41 -8.4179,-1.074 -2.4727,-0.653 -5.9453,-2.227 -8.1641,-3.543 l 0,-9.739 c 3.793,3.957 9.2422,6.438 14.0234,6.438 4.5352,0 6.5938,-1.895 6.5938,-5.938 l 0,-0.5 L 91.2305,102 89.418,101.414 87.0156,100.672 C 79.7695,98.3672 77.6172,97.625 75.3086,96.3867 71.4297,94.2383 69.207,90.7813 69.207,86.9805 69.207,81.2109 73.7383,77 79.8477,77 c 4.1211,0 7.5898,1.0742 11.7109,3.7109 l 0.8281,0.5 C 93.207,78.2305 95.1055,77 99.1484,77 c 3.2186,0 7.9216,1.4063 11.2186,3.4688 l 0,6.6796 z m -18.5623,8.9844 0,-9.1523 c -1.8164,-1.7383 -4.3672,-2.8008 -6.3477,-2.8008 -2.3906,0 -4.1289,1.7266 -4.1289,4.0312 0,2.7266 1.9805,4.7188 6.2696,6.2696 l 3.1406,1.2422 1.0664,0.4101" /><path
         id="path3371"
         style="fill:#231f20;fill-opacity:1;fill-rule:nonzero;stroke:none"
         d="m 145.84,107.52 -13.692,0 0,-11.7192 c 0,-8 1.153,-9.9805 5.688,-9.9805 2.473,0 4.371,0.5078 7.344,1.9805 0.168,0 0.41,0.1758 0.66,0.2539 l 0,-8.6602 C 141.629,77.6641 138.578,77 134.695,77 c -5.355,0 -9.808,2.0625 -12.367,5.6953 -1.812,2.6367 -2.308,4.9492 -2.308,11.043 l 0,13.7817 -5.442,0 0,2.234 15.918,17.98 1.652,0 0,-11.964 13.692,0 0,-8.25" /><path
         id="path3373"
         style="fill:#231f20;fill-opacity:1;fill-rule:nonzero;stroke:none"
         d="m 161.68,121.797 c -3.633,0 -6.602,2.891 -6.602,6.348 0,3.796 2.969,6.765 6.758,6.765 3.551,0 6.441,-2.969 6.441,-6.765 -0.078,-3.457 -2.968,-6.348 -6.597,-6.348 m 5.527,-44.0548 -11.469,0 0,38.0278 11.469,0 0,-38.0278" /><path
         id="path3375"
         style="fill:#231f20;fill-opacity:1;fill-rule:nonzero;stroke:none"
         d="m 220.328,96.6289 c 0,5.2851 -1.32,9.1601 -4.121,12.4531 -4.051,4.793 -10.23,7.43 -17.16,7.43 -12.461,0 -21.621,-8.496 -21.621,-19.8831 0,-11.543 8.91,-19.6289 21.527,-19.6289 12.715,0 21.375,7.9102 21.375,19.6289 m -12.871,0.1758 c -0.078,-4.5391 -0.738,-7.1758 -2.141,-9.1602 -1.57,-2.1484 -3.718,-3.2226 -6.363,-3.2226 -5.687,0 -8.656,4.0429 -8.656,11.8867 0,8.7384 2.73,12.8714 8.34,12.8714 5.851,0 8.82,-3.965 8.82,-11.8089 l 0,-0.5664" /><path
         id="path3377"
         style="fill:#231f20;fill-opacity:1;fill-rule:nonzero;stroke:none"
         d="m 243.59,110.332 c 3.789,4.285 7.508,6.191 12.367,6.191 5.609,0 10.152,-2.734 12.461,-7.433 1.152,-2.313 1.48,-4.121 1.48,-8.914 l 0,-22.4416 -12.039,0 0,21.4531 c 0,6.6795 -1.57,9.0035 -5.941,9.0035 -3.051,0 -6.27,-2.324 -8.328,-5.945 l 0,-24.5116 -11.961,0 0,38.0356 11.961,0 0,-5.438" /><path
         id="path3379"
         style="fill:#231f20;fill-opacity:1;fill-rule:nonzero;stroke:none"
         d="m 321.957,87.1484 -0.488,-0.2539 c -2.153,-1.2304 -3.145,-1.5547 -4.129,-1.5547 -1.481,0 -1.902,0.7344 -1.902,3.0469 l 0,15.0113 c 0,3.633 -0.333,5.36 -1.153,6.934 -2.148,3.875 -7.586,6.18 -14.93,6.18 -2.636,0 -6.109,-0.41 -8.417,-1.074 -2.473,-0.653 -5.942,-2.227 -8.161,-3.543 l 0,-9.739 c 3.789,3.957 9.231,6.438 14.02,6.438 4.539,0 6.601,-1.895 6.601,-5.938 l 0,-0.5 -0.582,-0.156 -1.812,-0.586 -2.395,-0.742 c -7.261,-2.3048 -9.398,-3.047 -11.711,-4.2853 -3.882,-2.1484 -6.101,-5.6054 -6.101,-9.4062 0,-5.7696 4.531,-9.9805 10.637,-9.9805 4.121,0 7.593,1.0742 11.714,3.7109 l 0.832,0.5 C 304.801,78.2305 306.699,77 310.738,77 c 3.215,0 7.918,1.4063 11.219,3.4688 l 0,6.6796 z m -18.559,8.9844 0,-9.1523 c -1.82,-1.7383 -4.371,-2.8008 -6.351,-2.8008 -2.399,0 -4.129,1.7266 -4.129,4.0312 0,2.7266 1.98,4.7188 6.27,6.2696 l 3.14,1.2422 1.07,0.4101" /><path
         id="path3381"
         style="fill:#231f20;fill-opacity:1;fill-rule:nonzero;stroke:none"
         d="m 330.543,77.7422 12.0352,0 0,56.2617 -12.0352,0 0,-56.2617 z" /><path
         id="path3383"
         style="fill:#231f20;fill-opacity:1;fill-rule:nonzero;stroke:none"
         d="m 421.27,77.7422 -42.891,0 0,56.2618 14.18,0 0,-45.7813 28.711,0 0,-10.4805" /><path
         id="path3385"
         style="fill:#231f20;fill-opacity:1;fill-rule:nonzero;stroke:none"
         d="m 437.441,121.797 c -3.632,0 -6.601,2.891 -6.601,6.348 0,3.796 2.969,6.765 6.758,6.765 3.554,0 6.445,-2.969 6.445,-6.765 -0.078,-3.457 -2.969,-6.348 -6.602,-6.348 m 5.528,-44.0548 -11.465,0 0,38.0278 11.465,0 0,-38.0278" /><path
         id="path3387"
         style="fill:#231f20;fill-opacity:1;fill-rule:nonzero;stroke:none"
         d="m 468.535,134.004 -11.953,0 0,-56.2618 11.953,0 0,2.8906 C 471.836,78.2422 475.391,77 479.18,77 c 10.476,0 17.734,8.1758 17.734,19.8828 0,11.6332 -7.578,19.6292 -18.555,19.6292 -3.711,0 -6.015,-0.664 -9.824,-2.879 l 0,20.371 z m 0,-28.137 c 1.992,1.496 4.707,2.481 6.934,2.481 5.937,0 9.492,-4.285 9.492,-11.4652 0,-7.0976 -3.555,-11.4726 -9.316,-11.4726 -2.317,0 -4.551,0.8281 -7.11,2.8125 l 0,17.6443" /><path
         id="path3389"
         style="fill:#231f20;fill-opacity:1;fill-rule:nonzero;stroke:none"
         d="m 520.43,104.883 0.156,0 c 1.16,2.89 2.734,5.359 4.461,7.586 2.141,2.648 4.777,4.043 7.668,4.043 2.39,0 4.551,-0.907 7.93,-3.457 l -3.301,-10.567 c -2.727,1.895 -4.875,2.805 -7.012,2.805 -3.711,0 -7.344,-3.711 -9.238,-9.1602 l -0.41,-1.3984 -0.254,-0.5742 0,-16.418 -11.953,0 0,38.0278 11.953,0 0,-10.887" /><path
         id="path3391"
         style="fill:#231f20;fill-opacity:1;fill-rule:nonzero;stroke:none"
         d="m 585.684,87.1484 -0.508,-0.2539 c -2.129,-1.2304 -3.125,-1.5547 -4.121,-1.5547 -1.485,0 -1.895,0.7344 -1.895,3.0469 l 0,15.0113 c 0,3.633 -0.332,5.36 -1.152,6.934 -2.149,3.875 -7.59,6.18 -14.922,6.18 -2.648,0 -6.113,-0.41 -8.43,-1.074 -2.468,-0.653 -5.937,-2.227 -8.152,-3.543 l 0,-9.739 c 3.789,3.957 9.226,6.438 14.023,6.438 4.532,0 6.59,-1.895 6.59,-5.938 l 0,-0.5 -0.574,-0.156 -1.816,-0.586 -2.403,-0.742 c -7.258,-2.3048 -9.394,-3.047 -11.699,-4.2853 -3.887,-2.1484 -6.105,-5.6054 -6.105,-9.4062 0,-5.7696 4.531,-9.9805 10.636,-9.9805 4.121,0 7.598,1.0742 11.719,3.7109 l 0.82,0.5 C 568.516,78.2305 570.418,77 574.461,77 c 3.215,0 7.922,1.4063 11.223,3.4688 l 0,6.6796 z m -18.567,8.9844 0,-9.1523 c -1.816,-1.7383 -4.363,-2.8008 -6.347,-2.8008 -2.403,0 -4.129,1.7266 -4.129,4.0312 0,2.7266 1.972,4.7188 6.269,6.2696 l 3.145,1.2422 1.062,0.4101" /><path
         id="path3393"
         style="fill:#231f20;fill-opacity:1;fill-rule:nonzero;stroke:none"
         d="m 606.133,104.883 0.164,0 c 1.164,2.89 2.726,5.359 4.465,7.586 2.129,2.648 4.773,4.043 7.664,4.043 2.394,0 4.543,-0.907 7.922,-3.457 l -3.301,-10.567 c -2.715,1.895 -4.863,2.805 -7.012,2.805 -3.711,0 -7.344,-3.711 -9.238,-9.1602 l -0.41,-1.3984 -0.254,-0.5742 0,-16.418 -11.953,0 0,38.0278 11.953,0 0,-10.887" /><path
         id="path3395"
         style="fill:#231f20;fill-opacity:1;fill-rule:nonzero;stroke:none"
         d="m 645.645,59.5117 -12.696,0 11.133,24.4219 -14.855,31.8364 12.793,0 8,-18.8091 8.574,18.8091 12.547,0 -25.496,-56.2583" /><path
         id="path3397"
         style="fill:#231f20;fill-opacity:1;fill-rule:nonzero;stroke:none"
         d="m 165.965,19.6367 c 0,5.2852 -1.317,9.1602 -4.113,12.4531 -4.055,4.793 -10.235,7.4297 -17.164,7.4297 -12.461,0 -21.622,-8.4961 -21.622,-19.8828 0,-11.54295 8.911,-19.6288875 21.532,-19.6288875 12.711,0 21.367,7.9101575 21.367,19.6288875 m -12.863,0.168 c -0.086,-4.5313 -0.743,-7.168 -2.145,-9.1524 -1.566,-2.14839 -3.723,-3.22261 -6.359,-3.22261 -5.692,0 -8.66,4.04301 -8.66,11.88671 0,8.7383 2.73,12.8711 8.328,12.8711 5.859,0 8.836,-3.9648 8.836,-11.8086 l 0,-0.5742" /><path
         id="path3399"
         style="fill:#231f20;fill-opacity:1;fill-rule:nonzero;stroke:none"
         d="m 196.406,38.7773 0,-7.996 -5.441,0 0,-30.0313 -11.973,0 0,30.0313 -5.437,0 0,7.996 5.437,0 0,0.9961 c 0.254,5.3516 0.914,8.1641 2.567,10.8907 0.988,1.8047 2.48,3.3007 4.207,4.4414 2.718,1.8281 5.937,2.6484 9.898,2.6484 1.324,0 2.641,-0.0781 3.871,-0.2461 l 2.813,-0.418 0.578,-0.0781 0,-9.6484 -0.66,0.0781 c -1.899,0.2539 -3.391,0.4102 -4.621,0.4102 -4.868,0 -6.68,-2.1407 -6.68,-8 l 0,-1.0743 5.441,0" /><path
         id="path3401"
         style="fill:#231f20;fill-opacity:1;fill-rule:nonzero;stroke:none"
         d="m 270.816,41.8359 -0.992,0.4961 c -6.773,3.3789 -12.211,4.9414 -17.164,4.9414 -5.105,0 -8.406,-1.8164 -8.406,-4.5312 0,-2.3906 2.879,-4.4609 9.148,-6.6797 l 4.457,-1.6484 c 10.801,-3.8789 15.516,-9.2383 15.516,-17.7461 0,-9.9805 -8.836,-16.6601875 -22.031,-16.6601875 -4.781,0 -9.153,0.9101565 -14.852,3.0585975 -3.301,1.3164 -3.539,1.39453 -5.027,2.38281 l 0,12.12888 c 4.117,-2.5586 6.269,-3.8008 9.066,-4.8633 3.551,-1.4843 6.934,-2.1406 10.403,-2.1406 5.531,0 8.5,1.7305 8.5,5.1094 0,2.8125 -1.899,4.3633 -7.59,6.3477 l -3.059,1.0742 c -4.371,1.5625 -6.68,2.5586 -9.324,4.0429 -2.137,1.1524 -3.879,2.5664 -5.277,4.1211 -2.309,2.6446 -3.711,6.5235 -3.711,10.4766 0,9.6602 8.41,16.0078 21.281,16.0078 6.269,0 11.879,-1.2305 19.062,-4.375 l 0,-11.543" /><path
         id="path3403"
         style="fill:#231f20;fill-opacity:1;fill-rule:nonzero;stroke:none"
         d="m 326.988,0.0078125 -5.605,0 -9.246,20.7148875 -9.571,-20.7148875 -5.609,0 -17.156,38.7694875 12.211,0 8.008,-20.2148 8.492,20.2148 7.176,0 8.414,-20.2148 8.168,20.2148 12.128,0 -17.41,-38.7694875" /><path
         id="path3405"
         style="fill:#231f20;fill-opacity:1;fill-rule:nonzero;stroke:none"
         d="m 389.688,12.7148 -0.5,-0.4101 c -5.36,-3.63282 -8.907,-4.87501 -13.614,-4.87501 -7.504,0 -12.121,3.80081 -12.531,10.39061 l 27.297,0 0,1.086 c 0,12.2851 -7.918,20.6132 -19.547,20.6132 -11.551,0 -20.133,-8.4062 -20.133,-19.7929 C 350.66,7.83984 359.082,0 371.609,0 c 7.512,0 13.625,1.74609 18.079,5.04688 l 0,7.66792 z m -26.407,11.375 c 0.418,4.875 3.711,8.1758 8.168,8.1758 4.625,0 7.848,-3.2226 8.336,-8.1758 l -16.504,0" /><path
         id="path3407"
         style="fill:#231f20;fill-opacity:1;fill-rule:nonzero;stroke:none"
         d="m 439.59,57.0117 -11.875,0 0,-19.8828 c -3.137,1.5703 -6.438,2.3906 -9.902,2.3906 -10.899,0 -18.399,-8.0859 -18.399,-19.707 0,-11.47266 7.5,-19.8046875 17.734,-19.8046875 4.043,0 7.188,1.0742175 10.567,3.7890675 l 0,-3.04688 11.875,0 0,56.2617 z M 427.715,11.1523 c -2.402,-1.90621 -4.551,-2.73433 -7.012,-2.73433 -5.527,0 -8.992,4.29683 -8.992,11.21873 0,7.5899 3.375,11.8867 9.324,11.8867 2.129,0 4.942,-0.9179 6.68,-2.2382 l 0,-18.1329" /><path
         id="path3409"
         style="fill:#231f20;fill-opacity:1;fill-rule:nonzero;stroke:none"
         d="m 489.902,12.7148 -0.488,-0.4101 c -5.371,-3.63282 -8.906,-4.87501 -13.613,-4.87501 -7.5,0 -12.129,3.80081 -12.539,10.39061 l 27.304,0 0,1.086 c 0,12.2851 -7.921,20.6132 -19.55,20.6132 -11.543,0 -20.129,-8.4062 -20.129,-19.7929 C 450.887,7.83984 459.305,0 471.836,0 c 7.508,0 13.625,1.74609 18.066,5.04688 l 0,7.66792 z m -26.398,11.375 c 0.422,4.875 3.711,8.1758 8.176,8.1758 4.617,0 7.832,-3.2226 8.328,-8.1758 l -16.504,0" /><path
         id="path3411"
         style="fill:#231f20;fill-opacity:1;fill-rule:nonzero;stroke:none"
         d="m 513.574,33.3398 c 3.797,4.2852 7.52,6.1915 12.383,6.1915 5.606,0 10.145,-2.7344 12.461,-7.4336 1.152,-2.3125 1.484,-4.1211 1.484,-8.9141 l 0,-22.4336 -12.05,0 0,21.4453 c 0,6.6797 -1.575,9.0039 -5.938,9.0039 -3.047,0 -6.269,-2.3242 -8.34,-5.9453 l 0,-24.5039 -11.953,0 0,38.0273 11.953,0 0,-5.4375" /><path
         id="path3413"
         style="fill:#231f20;fill-opacity:1;fill-rule:nonzero;stroke:none"
         d="m 170.844,613.633 38.851,-1.641 -11.808,-13 -34.571,1.203 19.539,-17.754 -9.48,-10.441 -41.652,37.824 9.484,10.438 18.867,-17.129 0.121,0.117 -6.949,30.273 10.367,11.407 7.231,-31.297" /><path
         id="path3415"
         style="fill:#231f20;fill-opacity:1;fill-rule:nonzero;stroke:none"
         d="m 269.262,671.328 c 0.91,-2.031 1.672,-4.133 2.218,-5.781 1.313,-3.945 1.379,-8.332 0.411,-12.024 -1.34,-4.668 -5.118,-9.968 -9.539,-13.222 -2.403,-1.699 -5.2,-3.321 -8.364,-4.727 -6.625,-2.969 -11.726,-3.886 -17.347,-3.242 -3.09,0.422 -5.93,1.32 -8.34,2.688 -4.469,2.519 -7.52,6.308 -10.449,12.851 l -12.672,28.309 12.949,5.8 11.391,-25.457 c 2.261,-5.039 3.894,-7.472 6.14,-9.269 3.86,-2.969 8.973,-3.484 14.012,-1.231 6.176,2.766 9.582,8.887 8.246,14.895 -0.277,1.238 -0.598,2.352 -1.066,3.406 l -1.653,3.692 -11.386,25.449 12.949,5.801 12.5,-27.938" /><path
         id="path3417"
         style="fill:#231f20;fill-opacity:1;fill-rule:nonzero;stroke:none"
         d="m 364.773,652.82 -11.707,0.176 -30.582,35.274 -0.515,-34.805 -13.942,0.207 0.84,56.25 12.778,-0.188 29.621,-33.613 0.492,33.164 13.855,-0.215 -0.84,-56.25" /><path
         id="path3419"
         style="fill:#231f20;fill-opacity:1;fill-rule:nonzero;stroke:none"
         d="m 459.316,658.691 -0.644,0.77 c -4.531,5.578 -10.207,10.137 -16.004,12.941 -11.379,5.477 -21.438,2.821 -26.176,-6.984 -4.226,-8.77 -0.242,-18.379 9.485,-23.066 3.125,-1.512 6.375,-2.352 9.921,-2.598 l 2.872,5.949 -7.286,3.516 4.551,9.433 20.137,-9.718 -10.07,-20.879 c -7.098,-1.797 -16.454,-0.489 -25,3.633 -17.606,8.488 -24.891,25.292 -17.547,40.519 7.488,15.535 24.883,20.059 43.164,11.238 4.375,-2.109 8.769,-4.968 12.246,-8.007 2.207,-1.895 3.183,-2.911 5.644,-5.75 l -5.293,-10.997" /><path
         id="path3421"
         style="fill:#231f20;fill-opacity:1;fill-rule:nonzero;stroke:none"
         d="m 495.098,569.785 -28.438,32.098 42.09,37.324 9.414,-10.625 -34.258,-30.371 19.043,-21.473 -7.851,-6.953" /><path
         id="path3423"
         style="fill:#231f20;fill-opacity:1;fill-rule:nonzero;stroke:none"
         d="m 113.008,507.332 -1.113,-6.172 c -1.692,-9.324 -3.762,-11.98 -8.868,-11.055 -4.9528,0.899 -6.1325,4.122 -4.5622,12.805 l 1.2305,6.824 13.3127,-2.402 z m 34.515,8.273 -55.3667,10 -4.6602,-25.402 c -0.8789,-4.871 -1.0039,-7.871 -0.582,-10.633 1.1132,-7.316 5.914,-12.297 12.8906,-13.554 7.3083,-1.309 12.6333,1.668 16.4803,9.101 1.438,-5.051 5.149,-8.644 9.778,-9.472 5.761,-1.047 11.734,2.312 14.656,8.25 1.449,2.921 1.945,4.757 2.996,10.605 l 3.808,21.105 z m -12.437,-12.257 -0.981,-5.438 c -1.16,-6.418 -3.425,-8.769 -7.652,-8.008 -4.379,0.789 -5.617,3.7 -4.398,10.43 l 0.941,5.203 12.09,-2.187" /><path
         id="path3425"
         style="fill:#231f20;fill-opacity:1;fill-rule:nonzero;stroke:none"
         d="m 87.4023,418.027 -1.8984,14.063 55.7501,7.539 1.898,-14.063 -55.7497,-7.539" /><path
         id="path3427"
         style="fill:#231f20;fill-opacity:1;fill-rule:nonzero;stroke:none"
         d="m 127.895,365.488 2.796,-5.617 c 4.231,-8.484 4.153,-11.844 -0.496,-14.168 -4.511,-2.238 -7.382,-0.363 -11.324,7.539 l -3.09,6.211 12.114,6.035 z m 22.718,27.266 -50.351,-25.09 11.441,-23.152 c 2.207,-4.426 3.91,-6.895 5.899,-8.86 5.257,-5.214 12.089,-6.328 18.441,-3.164 6.641,3.313 9.117,8.887 7.77,17.149 4.16,-3.184 9.292,-3.856 13.5,-1.758 5.242,2.617 8.007,8.887 6.808,15.383 -0.586,3.211 -1.289,4.98 -3.937,10.293 l -9.571,19.199 z m -2.64,-17.258 2.472,-4.949 c 2.899,-5.832 2.489,-9.082 -1.355,-10.996 -3.977,-1.985 -6.707,-0.403 -9.754,5.73 l -2.363,4.727 11,5.488" /><path
         id="path3429"
         style="fill:#231f20;fill-opacity:1;fill-rule:nonzero;stroke:none"
         d="m 181.758,259.316 -31.469,29.149 38.231,41.269 10.41,-9.636 -31.114,-33.594 21.059,-19.492 -7.117,-7.696" /><path
         id="path3431"
         style="fill:#231f20;fill-opacity:1;fill-rule:nonzero;stroke:none"
         d="m 218.98,236.883 -12.402,6.906 27.336,49.168 12.402,-6.902 -27.336,-49.172" /><path
         id="path3433"
         style="fill:#231f20;fill-opacity:1;fill-rule:nonzero;stroke:none"
         d="m 328.777,234.754 c 2.723,16.105 -9.101,30.898 -26.992,33.906 -17.976,3.039 -33.91,-7.078 -36.621,-23.191 -2.687,-15.938 9.047,-30.715 26.774,-33.703 18.14,-3.055 34.132,6.875 36.839,22.988 m -14.367,2.09 c -1.652,-9.766 -10.164,-15.606 -20.254,-13.914 -10.488,1.777 -16.418,9.804 -14.718,19.89 1.757,10.41 9.699,15.84 20.277,14.063 10.746,-1.817 16.531,-9.637 14.695,-20.039" /><path
         id="path3435"
         style="fill:#231f20;fill-opacity:1;fill-rule:nonzero;stroke:none"
         d="m 408.984,266.895 -19.718,-4.786 10.773,-44.414 -13.867,-3.359 -10.781,44.402 -19.797,-4.793 -2.489,10.254 53.399,12.949 2.48,-10.253" /><path
         id="path3437"
         style="fill:#231f20;fill-opacity:1;fill-rule:nonzero;stroke:none"
         d="m 498.836,269.773 -33.504,-24.46 -33.184,45.429 33.047,24.129 6.172,-8.465 -21.582,-15.761 6.719,-9.192 20.586,15.031 6.219,-8.527 -20.575,-15.027 7.969,-10.93 22.051,16.105 6.082,-8.332" /><path
         id="path3439"
         style="fill:#231f20;fill-opacity:1;fill-rule:nonzero;stroke:none"
         d="m 523.992,347.656 38.508,5.399 -9.258,-14.93 -34.219,-5.051 22.411,-13.926 -7.45,-11.98 -47.773,29.687 7.441,11.981 21.661,-13.445 0.078,0.136 -12.297,28.524 8.156,13.097 12.742,-29.492" /><path
         id="path3441"
         style="fill:#231f20;fill-opacity:1;fill-rule:nonzero;stroke:none"
         d="m 583.652,434.219 -7.597,-40.781 -55.313,10.292 7.5,40.235 10.293,-1.926 -4.902,-26.277 11.191,-2.082 4.668,25.058 10.391,-1.933 -4.68,-25.059 13.301,-2.469 5,26.836 10.148,-1.894" /><path
         id="path3443"
         style="fill:#231f20;fill-opacity:1;fill-rule:nonzero;stroke:none"
         d="m 528.242,527.723 4.16,-19.864 44.727,9.375 2.93,-13.972 -44.739,-9.367 4.18,-19.942 -10.332,-2.168 -11.258,53.781 10.332,2.157" /><path
         id="path3445"
         style="fill:#231f20;fill-opacity:1;fill-rule:nonzero;stroke:none"
         d="m 325.859,521.531 0.039,17.52 c 0,0 8.129,0.109 18.731,0.019 l -0.039,-17.527 -18.731,-0.012" /><path
         id="path3447"
         style="fill:#231f20;fill-opacity:1;fill-rule:nonzero;stroke:none"
         d="m 325.938,409.813 -0.094,94.316 c 0,0 18.683,0.07 18.683,0.039 l 0.149,-94.316 -18.738,-0.039" /><path
         id="path3449"
         style="fill:#231f20;fill-opacity:1;fill-rule:nonzero;stroke:none"
         d="m 247.641,391.785 -3.887,18.117 82.18,-0.089 -0.02,-18.145 -78.273,0.117" /><path
         id="path3451"
         style="fill:#231f20;fill-opacity:1;fill-rule:nonzero;stroke:none"
         d="m 422.617,391.621 3.985,18.621 -81.997,-0.066 0,-18.555 78.012,0" /><path
         id="path3453"
         style="fill:#231f20;fill-opacity:1;fill-rule:nonzero;stroke:none"
         d="m 221.816,507.391 c 0,0 54.469,14.738 104.028,14.16 l -0.028,-17.391 c 0,0 -44.324,1.531 -100.191,-13.859 l -3.809,17.09" /><path
         id="path3455"
         style="fill:#231f20;fill-opacity:1;fill-rule:nonzero;stroke:none"
         d="m 448.875,507.48 c 0,0 -54.773,14.649 -104.316,14.071 l 0.058,-17.422 c 0,0 44.582,1.633 100.449,-13.738 l 3.809,17.089" /><path
         id="path3457"
         style="fill:#231f20;fill-opacity:1;fill-rule:nonzero;stroke:none"
         d="m 203.414,503.055 -3.82,17.101 c 0,0 7.902,1.895 18.273,4.141 l 3.817,-17.109 -18.27,-4.133" /><path
         id="path3459"
         style="fill:#231f20;fill-opacity:1;fill-rule:nonzero;stroke:none"
         d="m 225.484,405.73 -18.121,80.372 c 0,0 18.25,4.152 18.262,4.199 l 18.129,-80.399 -18.27,-4.172" /><path
         id="path3461"
         style="fill:#231f20;fill-opacity:1;fill-rule:nonzero;stroke:none"
         d="m 466.875,503.25 3.809,17.102 c 0,0 -7.891,1.902 -18.262,4.148 l -3.828,-17.109 18.281,-4.141" /><path
         id="path3463"
         style="fill:#231f20;fill-opacity:1;fill-rule:nonzero;stroke:none"
         d="m 444.793,405.938 18.117,80.371 c 0,0 -18.242,4.148 -18.262,4.199 l -18.117,-80.41 18.262,-4.16" /><path
         id="path3465"
         style="fill:#231f20;fill-opacity:1;fill-rule:nonzero;stroke:none"
         d="m 133.867,548.418 c -3.883,0 -7.262,3.301 -7.262,7.187 0,3.954 3.223,7.168 7.184,7.168 4.039,0 7.168,-3.136 7.168,-7.089 0,-3.965 -3.207,-7.266 -7.09,-7.266" /><path
         id="path3467"
         style="fill:#231f20;fill-opacity:1;fill-rule:nonzero;stroke:none"
         d="m 534.414,548.621 c -3.887,0 -7.266,3.301 -7.266,7.18 0,3.965 3.223,7.176 7.188,7.176 4.031,0 7.168,-3.133 7.168,-7.09 0,-3.965 -3.211,-7.266 -7.09,-7.266" /></g></g></svg>