<?xml version="1.0" encoding="utf-8"?>
<!-- Generator: Adobe Illustrator 22.1.0, SVG Export Plug-In . SVG Version: 6.00 Build 0)  -->
<svg version="1.1" id="Trace_line" xmlns="http://www.w3.org/2000/svg" xmlns:xlink="http://www.w3.org/1999/xlink" x="0px" y="0px"
	 viewBox="0 0 502.9 262.8" style="enable-background:new 0 0 502.9 262.8;" xml:space="preserve">
<style type="text/css">
	.st0{fill:#EA4D33;}
</style>
<path class="st0" d="M110.7,182.2c-1.6,0-2.7-0.1-3.2-0.1l-6-0.7l-80-159H20v158.7H0V1.7h33.9l80.3,160.4c7.7-0.5,19.3-2.5,26-8.9
	c3.8-3.7,5.7-8.5,5.7-14.7c0-14-10.5-23.3-22.6-34c-13.2-11.7-28.2-25.1-28.2-46.5C95.1,20.9,131,3.9,150,0l4,19.6
	c-1.6,0.3-38.9,8.5-38.9,38.3c0,12.5,10,21.3,21.5,31.6c13.7,12.2,29.3,26,29.3,49c0,11.8-4.2,21.9-12,29.3
	C140,180.8,118.9,182.2,110.7,182.2z"/>
<path class="st0" d="M187.7,181.1h-10V1.3h10c25.8,0,48.2,5.4,64.8,17.9c19.5,14.6,29.9,36.7,29.9,63.8c0,26.1-10.2,51-28.7,70.1
	C235.7,171.6,211.6,181.1,187.7,181.1z M197.7,21.7v138.6c35.5-5.5,64.7-38.7,64.7-77.3C262.4,33.3,220.8,23.8,197.7,21.7z"/>
<g>
	<path d="M113.3,222.3v-25.9h5.3l11.6,20.7h0.2v-20.7h3.2v25.9h-3.9l-12.9-22.6h-0.2v22.6H113.3z"/>
	<path d="M140.4,209.1c0-7.8,4.3-13.3,12.2-13.3c7.1,0,11.6,5.2,11.6,13.1c0,8.8-4,13.9-12,13.9C144,222.8,140.4,217,140.4,209.1z
		 M144.1,208.7c0,4.8,1.4,11.2,8.5,11.2c5.4,0,7.9-4,7.9-10.2c0-6.7-2.5-10.9-8.6-10.9C146.9,198.8,144.1,202.5,144.1,208.7z"/>
	<path d="M177.4,211.1h-2.8v11.3H171v-25.9h7.9c4.2,0,8,1.5,8,6.8c0,3.8-2.4,6.5-5.7,7.4l7.5,11.7h-4.2L177.4,211.1z M178.3,208.1
		c2.9,0,4.9-1.5,4.9-4.6c0-3.3-1.8-4.2-5-4.2h-3.6v8.9H178.3z"/>
	<path d="M205.2,196.5h3.5l6.3,21.8h0.4l5.2-21.8h3.2l-6.4,25.9h-4.8l-4.7-16.7h-0.2l-5.4,16.7h-4.2l-6.6-25.9h3.4l5.4,21.6h0.3
		l5.6-17.4L205.2,196.5z"/>
	<path d="M229.8,196.5h14.4v2.9h-11v8.2h9v2.9h-9.1v8.9h11.8v2.9h-15.3V196.5z"/>
	<path d="M268.2,200.7c-1.8-1.1-3.9-1.9-6.8-1.9c-5.1,0-8.7,3.2-8.7,10.2c0,5.8,2.1,10.8,9.3,10.8c1.4,0,3-0.2,4.2-0.6v-9h3.5V221
		c-1.9,1.1-5.2,1.8-8.1,1.8c-9.4,0-12.6-5.9-12.6-13.4c0-7.8,4.5-13.6,12.8-13.6c3.1,0,6.4,1.2,8,2.5L268.2,200.7z"/>
	<path d="M280.9,222.3h-3.5v-25.9h3.5V222.3z"/>
	<path d="M299.5,196.5l8.9,25.9h-3.8l-2.6-7.6h-9.2l-2.6,7.6h-3.6l7.6-22.4l1.1-3.5H299.5z M293.7,211.7h7.5l-3.6-11.3h-0.3
		L293.7,211.7z"/>
	<path d="M314,222.3v-25.9h5.3l11.6,20.7h0.2v-20.7h3.2v25.9h-3.9l-12.9-22.6h-0.2v22.6H314z"/>
	<path d="M370.1,200.8c-1.6-1-3.5-2-6.8-2c-5,0-8.6,3.2-8.6,10.2c0,5.5,2.1,10.7,8.7,10.7c3.1,0,5.1-1,7-2.3l1.6,2.4
		c-2,1.7-5,2.9-8.6,2.9c-8.8,0-12.4-5.8-12.4-13.4c0-7.8,4.5-13.6,12.6-13.6c3.6,0,6.6,1.3,8.1,2.5L370.1,200.8z"/>
	<path d="M377.7,196.5h14.4v2.9h-11v8.2h9v2.9h-9.1v8.9h11.8v2.9h-15.3V196.5z"/>
	<path d="M399.1,222.3v-25.9h5.3l11.6,20.7h0.2v-20.7h3.2v25.9h-3.9l-12.9-22.6h-0.2v22.6H399.1z"/>
	<path d="M425.1,199.3v-2.9h20.1v2.9h-8.4v23h-3.5v-23H425.1z"/>
	<path d="M457.4,211.1h-2.8v11.3H451v-25.9h7.9c4.2,0,8,1.5,8,6.8c0,3.8-2.4,6.5-5.7,7.4l7.5,11.7h-4.2L457.4,211.1z M458.3,208.1
		c2.9,0,4.9-1.5,4.9-4.6c0-3.3-1.8-4.2-5-4.2h-3.6v8.9H458.3z"/>
	<path d="M474.3,196.5h14.4v2.9h-11v8.2h9v2.9h-9.1v8.9h11.8v2.9h-15.3V196.5z"/>
	<path d="M136.7,236.5h14.4v2.9h-11v8.6h9v2.9h-9v11.4h-3.5V236.5z"/>
	<path d="M154.8,249.1c0-7.8,4.3-13.3,12.2-13.3c7.1,0,11.6,5.2,11.6,13.1c0,8.8-4,13.9-12,13.9C158.4,262.8,154.8,257,154.8,249.1z
		 M158.5,248.7c0,4.8,1.4,11.2,8.5,11.2c5.4,0,7.9-4,7.9-10.2c0-6.7-2.5-10.9-8.6-10.9C161.3,238.8,158.5,242.5,158.5,248.7z"/>
	<path d="M191.9,251.1H189v11.3h-3.6v-25.9h7.9c4.2,0,8,1.5,8,6.8c0,3.8-2.4,6.5-5.7,7.4l7.5,11.7H199L191.9,251.1z M192.7,248.1
		c2.9,0,4.9-1.5,4.9-4.6c0-3.3-1.8-4.2-5-4.2H189v8.9H192.7z"/>
	<path d="M224.9,251.1h-2.8v11.3h-3.6v-25.9h7.9c4.2,0,8,1.5,8,6.8c0,3.8-2.4,6.5-5.7,7.4l7.5,11.7h-4.2L224.9,251.1z M225.7,248.1
		c2.9,0,4.9-1.5,4.9-4.6c0-3.3-1.8-4.2-5-4.2h-3.6v8.9H225.7z"/>
	<path d="M241.8,236.5h14.4v2.9h-11v8.2h9v2.9h-9.1v8.9h11.8v2.9h-15.3V236.5z"/>
	<path d="M276.2,240.6c-1.4-0.8-3.4-1.6-5.7-1.6c-3,0-4.6,1.5-4.6,3.5c0,2.6,1.8,3.4,5.2,4.8c3.2,1.4,7,2.8,7,7.6
		c0,5.4-3.6,7.9-8.8,7.9c-3.5,0-6.9-1.4-8.4-2.6l1.6-2.8c1,0.8,4,2.3,6.8,2.3c3.6,0,5.4-1.4,5.4-4.3c0-3.2-2.7-4.3-5.5-5.3
		c-3.5-1.3-6.8-2.8-6.8-7.1c0-4.8,3.9-7,8.2-7c2.5,0,5.3,0.8,7,2L276.2,240.6z"/>
	<path d="M285.2,236.5h14.4v2.9h-11v8.2h9v2.9h-9.1v8.9h11.8v2.9h-15.3V236.5z"/>
	<path d="M316.7,236.5l8.9,25.9h-3.8l-2.6-7.6h-9.2l-2.6,7.6h-3.6l7.6-22.4l1.1-3.5H316.7z M310.8,251.7h7.5l-3.6-11.3h-0.3
		L310.8,251.7z"/>
	<path d="M337.5,251.1h-2.8v11.3h-3.6v-25.9h7.9c4.2,0,8,1.5,8,6.8c0,3.8-2.4,6.5-5.7,7.4l7.5,11.7h-4.2L337.5,251.1z M338.4,248.1
		c2.9,0,4.9-1.5,4.9-4.6c0-3.3-1.8-4.2-5-4.2h-3.6v8.9H338.4z"/>
	<path d="M372,240.8c-1.6-1-3.5-2-6.8-2c-5,0-8.6,3.2-8.6,10.2c0,5.5,2.1,10.7,8.7,10.7c3.1,0,5.1-1,7-2.3l1.6,2.4
		c-2,1.7-5,2.9-8.6,2.9c-8.8,0-12.4-5.8-12.4-13.4c0-7.8,4.5-13.6,12.6-13.6c3.6,0,6.6,1.3,8.1,2.5L372,240.8z"/>
	<path d="M395.3,236.5h3.5v25.9h-3.5v-11.7H383v11.7h-3.5v-25.9h3.5v11.2h12.3V236.5z"/>
	<path d="M416.9,262.3v-25.9h7.9c6.2,0,12.4,2.6,12.4,12c0,10.6-5.7,13.9-11.8,13.9H416.9z M424.1,239.3h-3.7v20.2h4
		c6.4,0,9.1-3.8,9.1-10.2C433.5,241.2,429.7,239.3,424.1,239.3z"/>
	<path d="M453,236.5l8.9,25.9h-3.8l-2.6-7.6h-9.2l-2.6,7.6h-3.6l7.6-22.4l1.1-3.5H453z M447.1,251.7h7.5l-3.6-11.3h-0.3L447.1,251.7
		z"/>
	<path d="M461.7,239.3v-2.9h20.1v2.9h-8.4v23h-3.5v-23H461.7z"/>
	<path d="M494.1,236.5l8.9,25.9h-3.8l-2.6-7.6h-9.2l-2.6,7.6h-3.6l7.6-22.4l1.1-3.5H494.1z M488.2,251.7h7.5l-3.6-11.3h-0.3
		L488.2,251.7z"/>
</g>
</svg>
