<?xml version="1.0" encoding="UTF-8" standalone="no"?>
<svg
   xmlns:dc="http://purl.org/dc/elements/1.1/"
   xmlns:cc="http://creativecommons.org/ns#"
   xmlns:rdf="http://www.w3.org/1999/02/22-rdf-syntax-ns#"
   xmlns:svg="http://www.w3.org/2000/svg"
   xmlns="http://www.w3.org/2000/svg"
   viewBox="0 0 411.25 135"
   height="135"
   width="411.25"
   xml:space="preserve"
   version="1.1"
   id="svg2"><metadata
     id="metadata8"><rdf:RDF><cc:Work
         rdf:about=""><dc:format>image/svg+xml</dc:format><dc:type
           rdf:resource="http://purl.org/dc/dcmitype/StillImage" /><dc:title></dc:title></cc:Work></rdf:RDF></metadata><defs
     id="defs6"><clipPath
       id="clipPath22"
       clipPathUnits="userSpaceOnUse"><path
         id="path24"
         d="m 0,107.159 328.608,0 0,-107.099 L 0,0.06 0,107.159 Z" /></clipPath></defs><g
     transform="matrix(1.25,0,0,-1.25,0,135)"
     id="g10"><path
       id="path12"
       style="fill:#2a2521;fill-opacity:1;fill-rule:nonzero;stroke:none"
       d="m 147.534,27.234 c 2.592,0 4.968,0.486 7.136,1.459 2.166,0.966 4.023,2.284 5.567,3.952 1.544,1.671 2.753,3.623 3.626,5.864 0.871,2.238 1.307,4.625 1.307,7.164 l 0,0.149 c 0,2.541 -0.436,4.939 -1.307,7.205 -0.873,2.265 -2.094,4.229 -3.661,5.897 -1.571,1.666 -3.453,2.999 -5.643,3.994 -2.194,0.994 -4.587,1.492 -7.176,1.492 -2.592,0 -4.97,-0.486 -7.134,-1.456 -2.171,-0.97 -4.026,-2.287 -5.571,-3.957 -1.545,-1.666 -2.751,-3.618 -3.625,-5.86 -0.873,-2.24 -1.306,-4.63 -1.306,-7.165 l 0,-0.15 c 0,-2.539 0.433,-4.937 1.306,-7.204 0.874,-2.264 2.092,-4.23 3.663,-5.895 1.567,-1.668 3.449,-3.002 5.641,-3.995 2.193,-0.998 4.585,-1.494 7.177,-1.494 z m -0.151,-8.465 c -4.033,0 -7.719,0.708 -11.06,2.128 -3.335,1.42 -6.199,3.35 -8.591,5.793 -2.388,2.44 -4.258,5.292 -5.605,8.56 -1.344,3.259 -2.017,6.736 -2.017,10.423 l 0,0.149 c 0,3.685 0.673,7.165 2.017,10.426 1.347,3.263 3.239,6.127 5.681,8.594 2.441,2.467 5.329,4.423 8.667,5.869 3.338,1.442 7.023,2.166 11.059,2.166 4.034,0 7.721,-0.71 11.057,-2.133 3.337,-1.415 6.201,-3.349 8.592,-5.789 2.392,-2.441 4.257,-5.295 5.605,-8.558 1.345,-3.263 2.017,-6.739 2.017,-10.425 l 0,-0.15 c 0,-3.686 -0.672,-7.161 -2.017,-10.426 -1.348,-3.263 -3.24,-6.127 -5.68,-8.594 -2.438,-2.466 -5.33,-4.424 -8.668,-5.867 -3.334,-1.446 -7.023,-2.166 -11.057,-2.166" /><path
       id="path14"
       style="fill:#2a2521;fill-opacity:1;fill-rule:nonzero;stroke:none"
       d="m 205.22,18.769 c -3.784,0 -7.311,0.694 -10.574,2.094 -3.264,1.393 -6.082,3.297 -8.444,5.716 -2.366,2.416 -4.221,5.27 -5.564,8.555 -1.344,3.29 -2.017,6.802 -2.017,10.539 l 0,0.149 c 0,3.74 0.66,7.237 1.978,10.502 1.318,3.26 3.173,6.128 5.563,8.594 2.39,2.467 5.244,4.411 8.558,5.826 3.312,1.423 6.938,2.133 10.878,2.133 2.389,0 4.568,-0.199 6.536,-0.599 1.971,-0.401 3.776,-0.96 5.419,-1.686 1.645,-0.726 3.163,-1.585 4.561,-2.584 1.396,-1 2.715,-2.099 3.961,-3.295 l -5.906,-6.805 c -2.093,1.944 -4.307,3.511 -6.649,4.709 -2.344,1.194 -5.01,1.793 -7.999,1.793 -2.494,0 -4.796,-0.486 -6.915,-1.456 -2.117,-0.97 -3.937,-2.287 -5.456,-3.957 -1.518,-1.666 -2.716,-3.618 -3.59,-5.86 -0.869,-2.24 -1.305,-4.63 -1.305,-7.165 l 0,-0.15 c 0,-2.539 0.436,-4.937 1.305,-7.204 0.874,-2.264 2.072,-4.244 3.59,-5.934 1.519,-1.694 3.339,-3.025 5.456,-3.991 2.119,-0.973 4.421,-1.459 6.915,-1.459 1.593,0 3.061,0.163 4.411,0.488 1.345,0.321 2.612,0.768 3.81,1.343 1.197,0.573 2.353,1.283 3.475,2.132 1.123,0.846 2.23,1.791 3.325,2.838 l 5.904,-5.978 c -1.343,-1.395 -2.753,-2.67 -4.221,-3.818 -1.47,-1.15 -3.052,-2.138 -4.748,-2.963 -1.692,-0.823 -3.548,-1.448 -5.569,-1.873 -2.015,-0.422 -4.244,-0.634 -6.688,-0.634" /><path
       id="path16"
       style="fill:#2a2521;fill-opacity:1;fill-rule:nonzero;stroke:none"
       d="m 232.959,71.954 9.199,0 0,-43.939 27.503,0 0,-8.372 -36.702,0 0,52.311" /><g
       id="g18"><g
         clip-path="url(#clipPath22)"
         id="g20"><path
           id="path26"
           style="fill:#2a2521;fill-opacity:1;fill-rule:nonzero;stroke:none"
           d="m 296.006,18.769 c -3.786,0 -7.313,0.694 -10.577,2.094 -3.263,1.393 -6.079,3.297 -8.443,5.716 -2.365,2.416 -4.221,5.27 -5.564,8.555 -1.346,3.29 -2.017,6.802 -2.017,10.539 l 0,0.149 c 0,3.74 0.661,7.237 1.979,10.502 1.318,3.26 3.174,6.128 5.562,8.594 2.393,2.467 5.244,4.411 8.558,5.826 3.314,1.423 6.938,2.133 10.876,2.133 2.391,0 4.572,-0.199 6.538,-0.599 1.969,-0.401 3.776,-0.96 5.42,-1.686 1.643,-0.726 3.164,-1.585 4.56,-2.584 1.395,-1 2.715,-2.099 3.961,-3.295 l -5.905,-6.805 c -2.09,1.944 -4.309,3.511 -6.65,4.709 -2.344,1.194 -5.01,1.793 -8,1.793 -2.49,0 -4.796,-0.486 -6.914,-1.456 -2.117,-0.97 -3.937,-2.287 -5.453,-3.957 -1.521,-1.666 -2.717,-3.618 -3.588,-5.86 -0.873,-2.24 -1.31,-4.63 -1.31,-7.165 l 0,-0.15 c 0,-2.539 0.437,-4.937 1.31,-7.204 0.871,-2.264 2.067,-4.244 3.588,-5.934 1.516,-1.694 3.336,-3.025 5.453,-3.991 2.118,-0.973 4.424,-1.459 6.914,-1.459 1.594,0 3.062,0.163 4.41,0.488 1.349,0.321 2.615,0.768 3.811,1.343 1.199,0.573 2.355,1.283 3.476,2.132 1.121,0.846 2.231,1.791 3.328,2.838 l 5.903,-5.978 c -1.347,-1.395 -2.753,-2.67 -4.221,-3.818 -1.474,-1.15 -3.054,-2.138 -4.748,-2.963 -1.695,-0.823 -3.55,-1.448 -5.568,-1.873 -2.018,-0.422 -4.247,-0.634 -6.689,-0.634" /><path
           id="path28"
           style="fill:#315d99;fill-opacity:1;fill-rule:nonzero;stroke:none"
           d="M 85.578,71.106 C 81.701,94.567 59.529,110.455 36.062,106.576 12.591,102.704 -3.294,80.532 0.582,57.071 3.477,39.538 16.589,26.241 32.827,22.256 c 0.049,1.275 0.212,2.55 0.498,3.815 -11.633,4.086 -20.821,14.451 -23.019,27.793 -3.179,19.229 9.344,37.315 27.967,40.387 16.593,2.741 32.422,-7.364 37.926,-23.199 3.81,-1.359 7.168,-3.477 9.945,-6.17 -0.038,2.058 -0.221,4.135 -0.566,6.224" /><path
           id="path30"
           style="fill:#468e35;fill-opacity:1;fill-rule:nonzero;stroke:none"
           d="M 76.56,78.799 C 58.718,83.696 40.283,73.198 35.393,55.362 33.37,47.995 33.979,40.529 36.639,33.955 c 0.972,1.353 2.065,2.566 3.269,3.62 -0.809,4.165 -0.713,8.59 0.494,12.989 4.079,14.853 19.039,23.701 33.427,19.752 C 88.216,66.369 96.574,51.121 92.5,36.266 89.728,26.161 81.907,18.848 72.665,16.441 72.324,15.34 71.887,14.257 71.362,13.198 c 13.252,1.463 24.901,10.799 28.643,24.437 4.893,17.836 -5.608,36.271 -23.445,41.164" /><path
           id="path32"
           style="fill:#e8671a;fill-opacity:1;fill-rule:nonzero;stroke:none"
           d="M 68.375,12.031 C 62.659,3.311 51.177,0.728 42.728,6.264 c -8.449,5.539 -10.664,17.097 -4.941,25.821 5.722,8.721 17.202,11.304 25.647,5.767 8.445,-5.537 10.66,-17.1 4.941,-25.821 z M 66.833,43.943 C 55.782,51.187 40.949,48.099 33.708,37.049 26.459,26 29.541,11.167 40.6,3.92 c 11.051,-7.247 25.886,-4.159 33.13,6.892 7.245,11.051 4.155,25.886 -6.897,33.131" /></g></g><path
       id="path34"
       style="fill:#2a2521;fill-opacity:1;fill-rule:nonzero;stroke:none"
       d="m 325.387,68.973 c 0.201,0 0.354,0.05 0.463,0.147 0.107,0.098 0.16,0.222 0.16,0.373 l 0,0.019 c 0,0.176 -0.057,0.309 -0.17,0.396 -0.114,0.089 -0.271,0.133 -0.472,0.133 l -0.785,0 0,-1.068 0.804,0 z m -1.607,1.777 1.616,0 c 0.485,0 0.86,-0.133 1.124,-0.397 0.201,-0.201 0.301,-0.466 0.301,-0.794 l 0,-0.018 c 0,-0.297 -0.071,-0.536 -0.216,-0.718 -0.145,-0.183 -0.334,-0.319 -0.567,-0.407 l 0.888,-1.304 -0.936,0 -0.774,1.172 -0.633,0 0,-1.172 -0.803,0 0,3.638 z m 1.399,-4.96 c 0.433,0 0.836,0.081 1.204,0.24 0.368,0.161 0.688,0.379 0.959,0.653 0.27,0.274 0.483,0.596 0.638,0.968 0.154,0.371 0.231,0.765 0.231,1.181 l 0,0.018 c 0,0.417 -0.076,0.809 -0.226,1.177 -0.152,0.368 -0.363,0.69 -0.634,0.964 -0.271,0.274 -0.591,0.489 -0.959,0.647 -0.368,0.157 -0.767,0.236 -1.194,0.236 -0.435,0 -0.837,-0.081 -1.205,-0.241 -0.368,-0.16 -0.688,-0.378 -0.959,-0.652 -0.271,-0.274 -0.483,-0.597 -0.638,-0.968 -0.154,-0.372 -0.232,-0.765 -0.232,-1.181 l 0,-0.019 c 0,-0.415 0.078,-0.807 0.232,-1.176 0.155,-0.369 0.365,-0.69 0.633,-0.964 0.268,-0.273 0.586,-0.489 0.955,-0.647 0.368,-0.157 0.766,-0.236 1.195,-0.236 z m 0,-0.377 c -0.479,0 -0.926,0.088 -1.342,0.268 -0.415,0.18 -0.776,0.424 -1.082,0.732 -0.305,0.309 -0.546,0.669 -0.722,1.082 -0.176,0.412 -0.265,0.852 -0.265,1.318 l 0,0.019 c 0,0.466 0.089,0.905 0.265,1.318 0.176,0.412 0.418,0.774 0.727,1.086 0.309,0.312 0.672,0.559 1.091,0.742 0.419,0.182 0.867,0.274 1.347,0.274 0.477,0 0.925,-0.09 1.341,-0.27 0.415,-0.179 0.776,-0.423 1.082,-0.732 0.305,-0.308 0.546,-0.669 0.723,-1.081 0.176,-0.413 0.264,-0.852 0.264,-1.319 l 0,-0.018 c 0,-0.466 -0.088,-0.906 -0.264,-1.318 -0.177,-0.413 -0.42,-0.774 -0.728,-1.086 -0.309,-0.312 -0.673,-0.559 -1.091,-0.742 -0.419,-0.183 -0.867,-0.273 -1.346,-0.273" /></g></svg>