<?xml version="1.0" encoding="utf-8"?>
<!-- Generator: Adobe Illustrator 22.1.0, SVG Export Plug-In . SVG Version: 6.00 Build 0)  -->
<svg version="1.1" id="Calque_1" xmlns="http://www.w3.org/2000/svg" xmlns:xlink="http://www.w3.org/1999/xlink" x="0px" y="0px"
	 viewBox="0 0 800 600" style="enable-background:new 0 0 800 600;" xml:space="preserve">
<style type="text/css">
	.st0{fill:#FEFEFE;}
	.st1{fill:#EF9000;}
	.st2{fill:#E4670A;}
	.st3{fill:#FDFDFD;}
</style>
<g>
	<path class="st0" d="M61.2,321.6c0-32.8,0-65.6,0-98.4c21.5,0,43,0,64.6,0c-1.5,0.3-3.1,0.5-4.6,0.8c-11.7,2-21.8,7.2-30.3,15.4
		c-1.3,1.3-2.6,2.7-3.7,4.2c-2.1,2.8-4.2,5.5-5.9,8.5c-2.3,4-4.2,8.2-5.3,12.7c-0.8,3.4-1.5,6.9-1.9,10.4c-0.3,2.7-0.2,5.4,0,8
		c0.2,2.9,0.4,5.8,1,8.6c1.3,5.8,3.2,11.4,6.3,16.6c1.8,2.9,3.6,5.7,5.7,8.3c2,2.4,4.4,4.5,6.6,6.7c2.8,2.7,6,4.8,9.4,6.6
		c3.6,2,7.2,3.7,11.2,4.7c2.5,0.7,5,1.1,7.6,1.8c0.3,0.1,0.8,0.5,0.9,0.8c0.2,0.8,0.2,1.7,0.3,2.6c0.2,2.3,0.5,4.7,0.7,7
		c0.2,1.8,0.3,3.7,0.5,5.5c0.2,2.1,0.5,4.3,0.7,6.4c0.2,2,0.3,4,0.5,6c0.2,2.1,0.5,4.3,0.7,6.4c0.2,2.1,0.4,4.1,0.6,6.3
		c2.1,0,4.2-0.1,6.3,0c1,0,1.3-0.4,1.3-1.3c0.1-2.2,0.3-4.4,0.5-6.5c0.3-3,0.6-6.1,0.9-9.1c0.3-2.9,0.5-5.9,0.7-8.8
		c0.3-3.3,0.6-6.5,0.9-9.8c0.2-1.8,0.4-3.5,0.6-5.3c10.3-1.3,19.5-5.1,27.7-11.4c8.2-6.3,14.2-14.2,18-23.8c-0.2,0-0.4,0-0.5,0.1
		c-3.8,2.1-7.6,4-11.7,5.5c-8.1,2.9-16.3,4.2-24.9,3.5c-4.3-0.4-8.5-1.2-12.6-2.4c-8.1-2.5-15.3-6.6-20.5-13.5
		c-4.5-5.9-6.5-12.5-5.3-19.9c0.9-5.9,3.6-10.9,8.2-14.7c4.9-4.1,10.7-5.9,17.1-5.1c4.8,0.6,8.9,2.9,12.5,6.1
		c2.8,2.6,4.8,5.8,5.9,9.4c1.2,3.6,1.4,7.3,0.8,11.1c-0.8,4.6-2.9,8.4-5.9,11.8c-2.1,2.3-4.5,4.4-6.8,6.6c0.1,0,0.2,0.2,0.4,0.2
		c4.3,1.7,8.9,2.4,13.5,2.5c3.1,0.1,6.3-0.3,9.4-0.7c5.1-0.8,10-2.4,14.4-5.3c3.1-2,5.8-4.5,7.4-8.1c2.1-4.9,2.3-10,1.6-15.2
		c-0.5-3.8-1.4-7.5-2.4-11.2c-2-7.8-5.9-14.6-11.3-20.6c-4.9-5.4-10.7-9.7-17.3-12.8c-4.6-2.1-9.4-3.8-14.4-4.6
		c-1.6-0.3-3.3-0.6-4.9-0.9c200.9,0,401.9,0,602.9,0c0,51.5,0,103,0,154.5c-225.9,0-451.8,0-677.7,0c0-18.1,0-36.3,0-54.4
		c1.2,2.7,2.2,5.6,3.7,8.1c1.9,3.1,4.2,6.1,6.5,8.9c1.6,2,3.5,3.7,5.5,5.4c2.2,1.9,4.4,3.9,6.8,5.6c5.8,4.1,12.1,7.3,18.9,9.4
		c5.5,1.7,11,2.5,16.7,2.7c1.5,0.1,1.6-0.1,1.1-1.5c-3.8-9-9.1-16.9-16.4-23.5c-5-4.5-10.5-8.2-16.6-10.9
		C79.1,323.6,70.4,321.5,61.2,321.6z"/>
	<path class="st0" d="M597.1,277.7c0-3.9,0-7.8,0-11.7c0-0.4-0.2-0.8-0.2-1.2c-3.7,1.2-7.4,2.4-11.1,3.5c-0.8,0.2-0.9,0.6-0.9,1.3
		c0,2.7,0,5.4-0.1,8.1c-2.6,0-5.3,0-7.9,0c-0.8,0-1.2,0.2-1.2,1.1c0.1,2.3,0,4.7,0,7.1c0,0.3,0.2,0.6,0.3,1c2.9,0,5.8,0,8.8,0
		c0,3.3,0,6.5,0,9.8c0.1,5.9,0.1,11.8,0.3,17.7c0.1,2.7,1.4,5,3.2,7c2.7,2.9,6.2,4.1,10.1,4.2c3.3,0.1,6.6-0.2,9.9-1.1
		c-0.1-3.2-0.2-6.4-0.4-9.3c-1.7,0.3-3.2,0.6-4.7,0.9c-2.7,0.4-4.8-0.7-5.7-3.2c-0.4-1.1-0.4-2.3-0.6-3.5c0-7.4,0-14.9,0-22.3
		c3.5,0,7-0.1,10.5-0.1c0.1-0.3,0.3-0.6,0.3-1c0-2.4,0-4.7,0-7.1c0-0.9-0.3-1.1-1.1-1.1C603.6,277.7,600.4,277.7,597.1,277.7
		L597.1,277.7z"/>
	<path class="st0" d="M464.7,296.9C464.7,296.9,464.7,296.9,464.7,296.9c7,0,14,0,21-0.1c0.4,0,0.9-0.2,1.3-0.3c0-3.2,0-6.5,0-9.8
		c-7.1,0-14,0-20.9,0c-0.5,0-0.9-0.1-1.4-0.1c0-5.1,0-10.1,0-15.2l0,0c7.7,0,15.3,0,23,0c1.1,0,1.5-0.2,1.5-1.4
		c-0.1-2.5,0-4.9,0-7.4c0-0.4-0.1-0.8-0.2-1.3c-12.3,0-24.7,0-37,0c-0.1,0.3-0.2,0.7-0.2,1c0,20.3,0,40.6,0,60.9
		c0,0.9,0.2,1.2,1.1,1.2c11.8,0,23.7,0,35.5,0c0.9,0,1.1-0.3,1.1-1.1c0-2.6-0.1-5.3,0-7.9c0-1.1-0.3-1.3-1.3-1.3
		c-7.8,0-15.6,0-23.4,0l0,0C464.6,308.4,464.7,302.7,464.7,296.9z"/>
	<path class="st0" d="M628.3,269.5c0.1-0.3,0.3-0.6,0.3-0.8c0-3.3,0-6.6,0-10c0-0.9-0.4-1-1.1-1c-3.4,0-6.9,0-10.3,0
		c-0.8,0-1.1,0.2-1.1,1.1c0,3.2,0,6.5,0,9.7c0,0.3,0.2,0.7,0.3,1C620.3,269.5,624.3,269.5,628.3,269.5z"/>
	<path class="st0" d="M556.1,258c0,3.8,0,7.6,0,11.4c4.2,0,8.1,0,12.2,0c0-3.8,0-7.6,0-11.4c-0.3-0.1-0.6-0.3-1-0.3
		c-3.4,0-6.9,0-10.3,0C556.7,257.8,556.4,257.9,556.1,258z"/>
	<path class="st0" d="M556.1,324.2c0.3,0.1,0.6,0.3,1,0.3c3.4,0,6.9,0,10.3,0c0.3,0,0.6-0.2,1-0.3c0-1.6,0-3.1,0-4.7
		c0-13.8,0-27.7,0-41.5c-0.3-0.1-0.6-0.3-1-0.3c-3.4,0-6.9,0-10.3,0c-0.3,0-0.6,0.2-1,0.3c0,1.5,0,3,0,4.5
		C556.1,296.4,556.1,310.3,556.1,324.2z"/>
	<path class="st0" d="M426.2,324.2c0.4,0.1,0.7,0.2,1.1,0.2c3.3,0,6.6,0,9.8,0c1.1,0,1.3-0.4,1.3-1.4c0-9.8,0-19.6,0-29.4
		c0-0.4-0.1-0.8-0.2-1.2c-0.3-1.5-0.4-3.1-0.8-4.5c-1.5-5.5-4.7-9.3-10.4-10.7c-2.3-0.6-4.8-0.8-7.2-0.4c-2,0.4-3.9,0.8-5.8,1.4
		c-2.8,1-5,3-6.9,5.7c0-2.2,0-4.1,0-6.1c-0.3-0.1-0.6-0.3-0.8-0.3c-3.3,0-6.6,0-10,0c-0.7,0-1,0.2-1,1c0,14.9,0,29.9,0,44.8
		c0,0.8,0.3,1,1,1c3.4,0,6.9,0,10.3,0c0.9,0,1.2-0.2,1.2-1.1c0-8,0-15.9,0-23.9c0.2-1.7,0.3-3.4,0.8-5c1-3.6,2.9-6.8,6.8-7.8
		c4.4-1.2,8.9,0.1,9.9,5.8c0.4,2.2,0.7,4.5,0.7,6.8C426.3,307.5,426.2,315.9,426.2,324.2z"/>
	<path class="st0" d="M386.2,301c-0.1-0.8-0.2-1.6-0.3-2.4c-0.2-3.5-0.9-6.8-2.2-10c-2.2-5.3-5.9-9.1-11.6-10.7
		c-3.4-1-6.9-1.2-10.4-0.9c-4.8,0.4-9,2.1-12.4,5.4c-2.4,2.4-4,5.3-5.1,8.5c-1.4,4.3-2,8.6-1.5,13.2c0.3,2.8,0.8,5.6,1.8,8.3
		c1.9,4.7,5,8.2,9.5,10.4c3.8,1.9,7.9,2.7,12.2,2.6c2.1-0.1,4.2-0.1,6.3-0.3c3.6-0.4,7-1.6,10.2-3.2c0.1-0.1,0.2-0.2,0.2-0.2
		c0-3.1,0.1-6.2,0-9.3c0-0.1-0.4-0.2-0.7-0.3c-2.1,1-4.1,2.1-6.2,2.9c-4.8,1.7-9.8,2.5-14.8,0.5c-3.6-1.4-6.7-5.5-6.9-9.3
		c-0.1-1,0.5-1,1.3-1c9.7,0,19.5,0,29.2,0c0.3,0,0.7,0.1,1,0c0.2-0.1,0.5-0.3,0.5-0.5C386.4,303.3,386.3,302.2,386.2,301z"/>
	<path class="st0" d="M707.5,277.9c-0.3-0.1-0.5-0.2-0.8-0.2c-3.3,0-6.6,0-9.9,0c-0.3,0-0.6,0.2-0.8,0.3c0,1.6,0,3.1,0,4.7
		c0,13.8,0,27.7,0,41.5c0.3,0.1,0.6,0.3,1,0.3c3.4,0,6.9,0,10.3,0c0.3,0,0.6-0.2,1-0.3c0-7.4-0.1-14.9,0-22.3c0-2,0.2-4,0.5-6
		c0.4-2.7,1.6-5.1,3.4-7.1c2.2-2.3,5.1-2.9,8.2-2.4c1.6,0.3,3,1,4,2.3c1.8,2.3,2.1,5.1,2.1,7.8c0.1,9.2,0,18.4,0,27.6
		c0.3,0.1,0.6,0.3,0.8,0.3c3.5,0,7,0,10.5,0c0.3,0,0.6-0.2,0.9-0.2c0-9.6,0-19.3,0-28.9c0-2.2-0.3-4.4-0.7-6.6
		c-1-4.6-3.3-8.4-7.7-10.5c-3-1.4-6.2-1.6-9.5-1.4c-4.3,0.4-8.1,1.6-11.1,4.8c-0.6,0.7-1.3,1.4-2.1,2.2
		C707.5,281.8,707.5,279.9,707.5,277.9z"/>
	<path class="st0" d="M302.2,277.9c-0.4-0.1-0.7-0.2-1.1-0.2c-3.1,0-6.2,0-9.4,0c-1.1,0-1.3,0.3-1.3,1.4c0,21,0,42,0,62.9
		c0,0.4,0.2,0.8,0.2,1.2c4,0,8,0,12,0c0.1-0.5,0.2-0.9,0.2-1.4c0-7,0-14,0-21c0-0.5,0.1-0.9,0.2-1.4c2.4,2.8,5.3,4.8,8.9,5.6
		c2.8,0.6,5.6,0.6,8.3,0c1.9-0.4,3.9-0.9,5.6-1.8c4-2.1,6.6-5.5,8.2-9.7c1.8-5,2.4-10.1,2-15.4c-0.2-3.3-0.8-6.6-2-9.7
		c-2.1-5.3-5.7-9.2-11.3-10.8c-2.8-0.8-5.6-1-8.5-0.7c-4,0.5-7.5,1.7-10.1,5c-0.6,0.7-1.2,1.4-2,2.3
		C302.2,282,302.2,280,302.2,277.9z"/>
	<path class="st0" d="M531.3,319.4c0.1,1.3,0.2,2.6,0.2,3.9c0,0.8,0.2,1.2,1.1,1.2c3.3-0.1,6.6,0,9.8,0c0.8,0,1.1-0.3,1.1-1.1
		c0-21.9,0-43.8,0-65.7c0-0.9-0.3-1.2-1.2-1.1c-3.4,0-6.7,0-10.1,0c-0.3,0-0.7,0.1-1,0.2c0,8.7,0,17.4,0,26.2
		c-0.1,0-0.2,0.1-0.3,0.1c-0.7-0.7-1.3-1.5-2.1-2.1c-1.4-1-2.7-2.1-4.3-2.8c-3.8-1.7-7.8-1.7-11.8-1c-6.5,1.1-10.6,5.1-12.9,10.9
		c-1.2,3-2,6.2-2,9.5c0,2.2,0,4.5,0,6.7c0.1,0.9,0.2,1.9,0.3,2.8c0.4,3.5,1.5,6.9,3.3,9.9c1.3,2.2,3,4.1,5.2,5.5
		c4.9,3.1,10.2,3.4,15.6,2.3C526,324.1,528.9,322.1,531.3,319.4z"/>
	<path class="st0" d="M218.6,295.9c0.1,1.1,0.2,2.2,0.3,3.3c0.3,3.9,1.5,7.6,3.2,11c2,4.1,4.8,7.5,8.6,10.1
		c4.8,3.2,10.2,4.7,15.9,5.1c4.4,0.3,8.9-0.1,13.2-1.4c5.3-1.6,9.8-4.5,13.3-8.8c4.5-5.5,6.5-12.1,7-19.1c0.4-6.3-0.1-12.5-2.6-18.3
		c-3-7.2-8.1-12.4-15.5-15.2c-4.4-1.7-9-2.2-13.6-2.1c-5.5,0.1-10.8,1.2-15.7,3.8c-5.8,3.1-9.5,8-11.8,14c-1.4,3.6-2.2,7.4-2.3,11.2
		C218.6,291.6,218.6,293.8,218.6,295.9z"/>
	<path class="st0" d="M662,325.4c3.6,0,7.2-0.5,10.5-1.9c6-2.5,10.2-6.8,12.4-12.8c1.9-5.1,2.1-10.3,0.9-15.5
		c-1.5-6.9-5.2-12.2-11.6-15.5c-5.7-2.9-11.7-3.4-17.9-2.2c-4,0.8-7.6,2.4-10.7,5.1c-5,4.4-7.2,10.2-7.8,16.7
		c-0.3,3.7,0.2,7.4,1.5,11c1.5,4.3,4,7.9,7.7,10.6C651.6,324.1,656.6,325.4,662,325.4z"/>
	<path class="st0" d="M138.5,377.5c17.5,0.3,32.4-5.2,45.2-16.5c7.2-6.3,12.5-14,16.2-23c-3.5,0.1-7,0.3-10.5,0.8
		c-8.3,1.1-15.8,4.4-22.9,8.9c-3.2,2.1-6.3,4.5-9.3,6.9c-2.2,1.7-4.2,3.6-6.2,5.5c-1.5,1.4-2.7,3.1-4.1,4.6c-2.7,3-5.1,6.2-7,9.7
		C139.3,375.3,139,376.3,138.5,377.5z"/>
	<path class="st0" d="M628.6,301.1c0-7.4,0-14.9,0-22.3c0-0.9-0.2-1.2-1.1-1.2c-3.4,0-6.9,0-10.3,0c-0.9,0-1.1,0.3-1.1,1.1
		c0,14.9,0,29.7,0,44.6c0,1,0.4,1.1,1.2,1.1c3.4,0,6.7-0.1,10.1,0c1,0,1.3-0.3,1.3-1.3C628.5,315.8,628.6,308.5,628.6,301.1z"/>
	<path class="st1" d="M136.1,223.2c1.6,0.3,3.3,0.7,4.9,0.9c5,0.8,9.8,2.5,14.4,4.6c6.6,3.1,12.4,7.3,17.3,12.8
		c5.4,6,9.3,12.8,11.3,20.6c0.9,3.7,1.8,7.4,2.4,11.2c0.7,5.2,0.5,10.3-1.6,15.2c-1.5,3.5-4.2,6-7.4,8.1c-4.4,2.8-9.2,4.5-14.4,5.3
		c-3.1,0.5-6.3,0.8-9.4,0.7c-4.6-0.1-9.2-0.8-13.5-2.5c-0.2-0.1-0.3-0.2-0.4-0.2c2.3-2.2,4.7-4.3,6.8-6.6c3.1-3.3,5.2-7.2,5.9-11.8
		c0.6-3.8,0.4-7.5-0.8-11.1c-1.2-3.6-3.2-6.8-5.9-9.4c-3.5-3.2-7.7-5.5-12.5-6.1c-6.4-0.8-12.1,1-17.1,5.1
		c-4.6,3.9-7.3,8.8-8.2,14.7c-1.2,7.4,0.8,14,5.3,19.9c5.2,6.9,12.4,11,20.5,13.5c4.1,1.3,8.3,2.1,12.6,2.4
		c8.6,0.7,16.9-0.6,24.9-3.5c4.1-1.4,7.9-3.4,11.7-5.5c0.1-0.1,0.3-0.1,0.5-0.1c-3.8,9.6-9.8,17.6-18,23.8
		c-8.2,6.2-17.4,10.1-27.7,11.4c-0.2,1.8-0.4,3.5-0.6,5.3c-0.3,3.3-0.7,6.5-0.9,9.8c-0.3,2.9-0.5,5.9-0.7,8.8
		c-0.3,3-0.6,6.1-0.9,9.1c-0.2,2.2-0.4,4.3-0.5,6.5c0,0.9-0.3,1.3-1.3,1.3c-2.1-0.1-4.1,0-6.3,0c-0.2-2.1-0.3-4.2-0.6-6.3
		c-0.2-2.1-0.5-4.3-0.7-6.4c-0.2-2-0.3-4-0.5-6c-0.2-2.1-0.5-4.3-0.7-6.4c-0.2-1.8-0.3-3.7-0.5-5.5c-0.2-2.3-0.5-4.7-0.7-7
		c-0.1-0.9-0.1-1.7-0.3-2.6c-0.1-0.3-0.5-0.7-0.9-0.8c-2.5-0.6-5.1-1.1-7.6-1.8c-3.9-1-7.6-2.8-11.2-4.7c-3.4-1.9-6.6-3.9-9.4-6.6
		c-2.2-2.2-4.6-4.2-6.6-6.7c-2.1-2.6-4-5.5-5.7-8.3c-3.1-5.1-5-10.7-6.3-16.6c-0.6-2.8-0.8-5.7-1-8.6c-0.2-2.7-0.3-5.4,0-8
		c0.4-3.5,1.1-7,1.9-10.4c1.1-4.5,3-8.7,5.3-12.7c1.7-3,3.9-5.7,5.9-8.5c1.1-1.5,2.3-2.9,3.7-4.2c8.5-8.2,18.7-13.4,30.3-15.4
		c1.5-0.3,3.1-0.5,4.6-0.8C129.2,223.2,132.6,223.2,136.1,223.2z"/>
	<path class="st1" d="M61.2,321.6c9.2-0.1,17.9,2,26.2,5.8c6.1,2.8,11.6,6.4,16.6,10.9c7.3,6.6,12.6,14.5,16.4,23.5
		c0.6,1.4,0.5,1.6-1.1,1.5c-5.7-0.2-11.3-1.1-16.7-2.7c-6.8-2.1-13.1-5.3-18.9-9.4c-2.4-1.7-4.6-3.6-6.8-5.6
		c-1.9-1.7-3.8-3.5-5.5-5.4c-2.3-2.8-4.6-5.8-6.5-8.9c-1.5-2.5-2.5-5.4-3.7-8.1C61.2,322.7,61.2,322.2,61.2,321.6z"/>
	<path class="st2" d="M218.6,289.5c0.1-3.9,0.9-7.6,2.3-11.2c2.3-6,6-10.8,11.8-14c4.9-2.7,10.1-3.8,15.7-3.8
		c4.7-0.1,9.2,0.4,13.6,2.1c7.4,2.9,12.4,8,15.5,15.2c2.5,5.9,3,12.1,2.6,18.3c-0.5,7-2.4,13.5-7,19.1c-3.5,4.3-8,7.2-13.3,8.8
		c-4.3,1.3-8.7,1.7-13.2,1.4c-5.7-0.4-11.1-1.8-15.9-5.1c-3.8-2.6-6.6-6.1-8.6-10.1c-1.7-3.4-2.8-7.1-3.2-11
		c-0.1-1.1-0.2-2.2-0.3-3.3C218.6,293.8,218.6,291.6,218.6,289.5z M267.1,292.8c-0.3-2.5-0.5-5-1-7.4c-1-4.6-3-8.7-6.7-11.7
		c-6.1-5-19.5-5.6-25,6.2c-4,8.8-3.9,17.7,0.1,26.5c2.8,6.1,7.9,9.1,14.7,9.1c6.8,0,11.7-3,14.8-9
		C266.2,302.1,266.9,297.5,267.1,292.8z"/>
	<path class="st2" d="M497.9,297.6c0.1-3.3,0.8-6.5,2-9.5c2.4-5.9,6.5-9.8,12.9-10.9c4-0.7,8-0.7,11.8,1c1.5,0.7,2.9,1.8,4.3,2.8
		c0.8,0.6,1.4,1.4,2.1,2.1c0.1,0,0.2-0.1,0.3-0.1c0-8.7,0-17.4,0-26.2c4,0,8,0,12,0c0,22.6,0,45,0,67.4c-3.9,0-7.7,0-11.7,0
		c0-1.5,0-2.9,0-4.3c0-0.1-0.2-0.3-0.4-0.4c-2.4,2.7-5.4,4.7-9,5.4c-5.5,1.1-10.7,0.9-15.6-2.3c-2.2-1.4-3.9-3.3-5.2-5.5
		c-1.8-3.1-2.9-6.4-3.3-9.9c-0.1-0.9-0.2-1.9-0.3-2.8C498,302.1,498,299.8,497.9,297.6z M510.5,301.9c0.2,1.1,0.3,3.1,0.8,5.1
		c0.6,2.6,1.6,4.9,3.6,6.8c3.5,3.3,10.7,3.3,14.1-2.8c1.5-2.7,2.1-5.6,2.3-8.6c0.2-4.2-0.5-8.1-2.8-11.7c-1.9-3-4.7-4.6-8.4-4.5
		c-3.8,0.2-6.3,2.3-7.8,5.6C511,294.7,510.6,297.8,510.5,301.9z"/>
	<path class="st2" d="M302.6,343.2c-4,0-8,0-12,0c0-0.3,0-0.6,0-0.8c0-21.1,0-42.3,0-63.4c0-0.3,0-0.7,0.1-1c3.9,0,7.7,0,11.5,0
		c0,2,0,4.1,0,6.3c0.7-0.9,1.4-1.6,2-2.3c2.6-3.2,6.1-4.5,10.1-5c2.9-0.4,5.7-0.1,8.5,0.7c5.7,1.6,9.2,5.4,11.3,10.8
		c1.2,3.1,1.7,6.4,2,9.7c0.4,5.3-0.1,10.4-2,15.4c-1.6,4.2-4.2,7.6-8.2,9.7c-1.7,0.9-3.7,1.4-5.6,1.8c-2.8,0.6-5.6,0.6-8.3,0
		c-3.6-0.8-6.5-2.8-8.9-5.6c-0.1-0.1-0.1-0.2-0.4-0.7c0,0.8,0,1.2,0,1.6C302.7,328,302.6,335.6,302.6,343.2z M302.6,301
		c0.3,2,0.5,4.1,1,6.1c0.7,2.8,1.9,5.3,4.3,7c3.6,2.8,10.7,3,13.7-3.8c2.3-5,2.4-10.2,1.2-15.5c-0.7-3-1.9-5.6-4.5-7.4
		c-4.2-2.9-10.1-1.3-12.9,3.5C303.5,294.1,302.8,297.4,302.6,301z"/>
	<path class="st2" d="M451.9,261.4c12.3,0,24.7,0,37,0c0,3.3,0,6.6,0,9.9c-0.6,0-1.1,0-1.5,0c-7.1,0-14.3,0-21.4,0
		c-0.4,0-0.8,0.1-1.3,0.1c0,0,0,0,0,0c-0.1,0.3-0.1,0.6-0.1,0.9c0,4.5,0,9,0,13.5c0,0.3,0.1,0.5,0.1,0.8c0.5,0,0.9,0.1,1.4,0.1
		c6.9,0,13.8,0,20.9,0c0,3.3,0,6.5,0,9.8c-0.5,0-0.9,0.1-1.4,0.1c-6.5,0-13.1,0-19.6,0c-0.4,0-0.8,0.1-1.3,0.1l0,0
		c-0.1,0.3-0.1,0.5-0.1,0.8c0,5.2,0,10.4,0,15.6c0,0.3,0.1,0.5,0.1,0.8c0,0,0,0,0,0c0.4,0.1,0.8,0.2,1.2,0.2c7.3,0,14.6,0,22,0
		c0.4,0,0.8,0,1.2,0c0,3.4,0,6.6,0,9.8c-12.5,0-24.8,0-37.3,0c0-0.4,0-0.8,0-1.2c0-20.2,0-40.4,0-60.6
		C451.8,262.1,451.9,261.7,451.9,261.4z"/>
	<path class="st2" d="M662,325.4c-5.4,0-10.5-1.3-14.9-4.6c-3.7-2.7-6.2-6.3-7.7-10.6c-1.3-3.6-1.8-7.3-1.5-11
		c0.6-6.5,2.8-12.3,7.8-16.7c3.1-2.7,6.7-4.4,10.7-5.1c6.2-1.2,12.2-0.7,17.9,2.2c6.4,3.3,10.1,8.6,11.6,15.5
		c1.2,5.3,0.9,10.5-0.9,15.5c-2.2,6.1-6.4,10.4-12.4,12.8C669.2,324.9,665.7,325.4,662,325.4z M673.9,300.8c0.1-3.1-0.4-5.6-1.5-8
		c-2-4.2-5.3-6.5-10-6.6c-4.6-0.1-8.1,2.1-10.1,6.3c-2.6,5.6-2.2,11.3,0,16.9c1.7,4.5,5.4,6.7,10,6.6c4.9-0.1,8.3-2.5,10.1-7
		C673.6,306.2,673.9,303.3,673.9,300.8z"/>
	<path class="st2" d="M726.5,324.2c0-9.2,0.1-18.4,0-27.6c0-2.7-0.3-5.5-2.1-7.8c-1-1.4-2.4-2.1-4-2.3c-3.1-0.5-6,0-8.2,2.4
		c-1.9,2-3,4.4-3.4,7.1c-0.3,2-0.5,4-0.5,6c-0.1,7.4,0,14.9,0,22.3c-4.1,0-8.1,0-12.2,0c0-13.8,0-27.7,0-41.5c0-1.6,0-3.1,0-4.7
		c3.8,0,7.7,0,11.5,0c0,1.9,0,3.9,0,6.1c0.8-0.8,1.5-1.5,2.1-2.2c3-3.3,6.8-4.5,11.1-4.8c3.3-0.3,6.5,0,9.5,1.4
		c4.4,2.1,6.8,5.8,7.7,10.5c0.4,2.2,0.7,4.4,0.7,6.6c0.1,9.6,0,19.3,0,28.9C734.6,324.2,730.6,324.2,726.5,324.2z"/>
	<path class="st2" d="M382.7,321.8c-3.2,1.6-6.6,2.8-10.2,3.2c-2.1,0.2-4.2,0.3-6.3,0.3c-4.3,0.1-8.4-0.7-12.2-2.6
		c-4.5-2.2-7.7-5.7-9.5-10.4c-1.1-2.7-1.5-5.4-1.8-8.3c-0.5-4.5,0.2-8.9,1.5-13.2c1-3.2,2.7-6.1,5.1-8.5c3.4-3.4,7.6-5.1,12.4-5.4
		c3.6-0.3,7,0,10.4,0.9c5.7,1.6,9.4,5.4,11.6,10.7c1.3,3.2,2,6.6,2.2,10c0.1,0.8,0.2,1.6,0.3,2.4c0,1.3,0,2.5,0,3.9
		c-10.7,0-21.3,0-32,0c0.1,0.5,0.2,0.9,0.3,1.2c0.1,3.8,3.2,7.9,6.9,9.3c5,2,9.9,1.2,14.8-0.5c2.1-0.8,4.1-1.9,6.2-2.9
		c0.2,0.2,0.5,0.3,0.5,0.5C382.8,315.6,382.8,318.7,382.7,321.8z M374.6,296.5c-0.2-6.5-3.7-10.8-9.6-10.8
		c-6.1-0.1-10.8,4.7-10.7,10.8C361.1,296.5,367.8,296.5,374.6,296.5z"/>
	<path class="st2" d="M407.3,278c0,1.9,0,3.9,0,6.1c1.9-2.6,4-4.6,6.9-5.7c1.9-0.7,3.9-1,5.8-1.4c2.4-0.5,4.8-0.2,7.2,0.4
		c5.7,1.4,8.9,5.2,10.4,10.7c0.4,1.5,0.6,3,0.8,4.5c0,10.5,0,21.1,0,31.7c-4.1,0-8.1,0-12.1,0c0-8.4,0-16.7,0-25.1
		c0-2.3-0.3-4.5-0.7-6.8c-1-5.6-5.5-6.9-9.9-5.8c-4,1-5.8,4.2-6.8,7.8c-0.5,1.6-0.5,3.3-0.8,5c-0.1,0.7-0.2,1.5-0.2,2.2
		c0,7.1,0,14.1,0,21.2c0,0.4,0,0.8,0,1.2c-4.1,0-8,0-12,0c0-15.5,0-30.9,0-46.2C399.7,278,403.5,278,407.3,278z"/>
	<path class="st1" d="M138.5,377.5c0.5-1.2,0.9-2.2,1.4-3.2c1.9-3.5,4.3-6.7,7-9.7c1.4-1.5,2.7-3.2,4.1-4.6c2-1.9,4-3.8,6.2-5.5
		c3-2.4,6-4.8,9.3-6.9c7-4.4,14.5-7.7,22.9-8.9c3.5-0.5,6.9-0.7,10.5-0.8c-3.6,9-9,16.7-16.2,23
		C170.9,372.3,155.9,377.9,138.5,377.5z"/>
	<path class="st2" d="M597.1,309.2c0.2,1.2,0.2,2.4,0.6,3.5c0.9,2.5,3,3.6,5.7,3.2c1.5-0.3,3.1-0.6,4.7-0.9c0.1,2.9,0.2,6.1,0.4,9.3
		c-3.3,0.9-6.6,1.2-9.9,1.1c-3.9-0.2-7.4-1.3-10.1-4.2c-1.8-2-3.1-4.3-3.2-7c-0.3-5.9-0.3-11.8-0.3-17.7c0-3.2,0-6.5,0-9.8
		c-3,0-5.9,0-8.8,0c0-2.9,0-5.9,0-8.9c2.6,0,5.1,0,7.7,0c0.4,0,0.7-0.1,1.1-0.2c0-2.7,0.1-5.4,0.1-8.1c0-0.7,0.1-1,0.9-1.3
		c3.7-1.1,7.4-2.4,11.1-3.5c0,3.4,0.1,6.8,0.1,10.2c0,0.9,0.1,1.8,0.1,2.7l0,0c0.4,0.1,0.7,0.2,1.1,0.2c2.2,0,4.5,0,6.7,0
		c0.9,0,1.8,0,2.7,0c0,3.1,0,6,0,8.9c-3.5,0-7,0.1-10.5,0.1c0,0.2-0.1,0.5-0.1,0.7c0,6.9,0,13.9,0,20.8
		C597,308.6,597.1,308.9,597.1,309.2z"/>
	<path class="st2" d="M568.3,278c0,13.8,0,27.7,0,41.5c0,1.6,0,3.1,0,4.7c-4.1,0-8.1,0-12.2,0c0-13.9,0-27.8,0-41.7c0-1.5,0-3,0-4.5
		C560.2,278,564.2,278,568.3,278z"/>
	<path class="st2" d="M568.3,258c0,3.8,0,7.5,0,11.4c-4.1,0-8.1,0-12.2,0c0-3.8,0-7.6,0-11.4c3.1,0,6.1-0.1,9.2-0.1
		C566.3,257.9,567.3,258,568.3,258z"/>
	<path class="st2" d="M628.3,269.5c-4,0-7.9,0-11.9,0c0-0.2-0.1-0.3-0.1-0.5c0-3.6,0-7.2,0-10.8c0-0.1,0.1-0.2,0.1-0.3
		c4,0,7.9,0,11.9,0C628.3,261.9,628.3,265.7,628.3,269.5z"/>
	<path class="st3" d="M451.9,261.4c0,0.4-0.1,0.7-0.1,1.1c0,20.2,0,40.4,0,60.6c0,0.4,0,0.7,0,1.2c12.4,0,24.8,0,37.3,0
		c0-3.2,0-6.4,0-9.8c-0.4,0-0.8,0-1.2,0c-7.3,0-14.6,0-22,0c-0.4,0-0.8-0.1-1.2-0.2c7.8,0,15.6,0,23.4,0c1,0,1.4,0.3,1.3,1.3
		c-0.1,2.6-0.1,5.3,0,7.9c0,0.8-0.2,1.1-1.1,1.1c-11.8,0-23.7,0-35.5,0c-0.9,0-1.1-0.3-1.1-1.2c0-20.3,0-40.6,0-60.9
		C451.7,262,451.8,261.7,451.9,261.4z"/>
	<path class="st0" d="M628.6,301.1c0,7.4,0,14.7,0,22.1c0,1-0.2,1.3-1.3,1.3c-3.4-0.1-6.7,0-10.1,0c-0.8,0-1.2-0.2-1.2-1.1
		c0-14.9,0-29.7,0-44.6c0-0.8,0.2-1.1,1.1-1.1c3.4,0,6.9,0,10.3,0c0.9,0,1.1,0.3,1.1,1.2C628.5,286.3,628.6,293.7,628.6,301.1z
		 M628.3,324.2c0-15.5,0-30.9,0-46.3c-4.1,0-8,0-12,0c0,15.5,0,30.8,0,46.3C620.3,324.2,624.3,324.2,628.3,324.2z"/>
	<path class="st3" d="M531.3,319.4c0.1,0.1,0.4,0.3,0.4,0.4c0,1.4,0,2.9,0,4.3c3.9,0,7.8,0,11.7,0c0-22.5,0-44.9,0-67.4
		c-4,0-8,0-12,0c0.3-0.1,0.7-0.2,1-0.2c3.4,0,6.7,0,10.1,0c0.9,0,1.2,0.2,1.2,1.1c0,21.9,0,43.8,0,65.7c0,0.8-0.2,1.1-1.1,1.1
		c-3.3,0-6.6-0.1-9.8,0c-1,0-1.1-0.4-1.1-1.2C531.6,322,531.4,320.7,531.3,319.4z"/>
	<path class="st3" d="M407.3,278c-3.8,0-7.6,0-11.5,0c0,15.4,0,30.8,0,46.2c3.9,0,7.9,0,12,0c0-0.4,0-0.8,0-1.2c0-7.1,0-14.1,0-21.2
		c0-0.7,0.1-1.5,0.2-2.2c0,8,0,15.9,0,23.9c0,0.9-0.3,1.2-1.2,1.1c-3.4,0-6.9,0-10.3,0c-0.8,0-1-0.2-1-1c0-14.9,0-29.9,0-44.8
		c0-0.7,0.2-1,1-1c3.3,0,6.6,0,10,0C406.7,277.7,407,277.9,407.3,278z"/>
	<path class="st3" d="M302.2,277.9c-3.8,0-7.6,0-11.5,0c0,0.3-0.1,0.7-0.1,1c0,21.1,0,42.3,0,63.4c0,0.3,0,0.6,0,0.8
		c-0.1-0.4-0.2-0.8-0.2-1.2c0-21,0-42,0-62.9c0-1,0.2-1.4,1.3-1.4c3.1,0.1,6.2,0,9.4,0C301.4,277.7,301.8,277.8,302.2,277.9z"/>
	<path class="st3" d="M426.2,324.2c4,0,8,0,12.1,0c0-10.6,0-21.1,0-31.7c0.1,0.4,0.2,0.8,0.2,1.2c0,9.8,0,19.6,0,29.4
		c0,1-0.2,1.4-1.3,1.4c-3.3-0.1-6.6,0-9.8,0C427,324.5,426.6,324.3,426.2,324.2z"/>
	<path class="st3" d="M354.5,306.1c-0.1-0.4-0.2-0.8-0.3-1.2c10.7,0,21.3,0,32,0c0-1.3,0-2.6,0-3.9c0.1,1.2,0.1,2.4,0.1,3.5
		c0,0.2-0.3,0.4-0.5,0.5c-0.3,0.1-0.6,0-1,0c-9.7,0-19.5,0-29.2,0C354.9,305,354.3,305.1,354.5,306.1z"/>
	<path class="st0" d="M628.3,269.5c0-3.8,0-7.7,0-11.5c-4,0-7.9,0-11.9,0c0,0.1-0.1,0.2-0.1,0.3c0,3.6,0,7.2,0,10.8
		c0,0.2,0.1,0.3,0.1,0.5c-0.1-0.3-0.3-0.7-0.3-1c0-3.2,0-6.5,0-9.7c0-0.9,0.3-1.1,1.1-1.1c3.4,0,6.9,0,10.3,0c0.7,0,1.1,0.1,1.1,1
		c0,3.3,0,6.6,0,10C628.5,268.9,628.4,269.2,628.3,269.5z"/>
	<path class="st3" d="M464.7,271.5c0.4-0.1,0.8-0.1,1.3-0.1c7.1,0,14.3,0,21.4,0c0.5,0,0.9,0,1.5,0c0-3.4,0-6.7,0-9.9
		c0.1,0.4,0.2,0.8,0.2,1.3c0,2.5-0.1,4.9,0,7.4c0,1.2-0.4,1.4-1.5,1.4C480,271.4,472.3,271.5,464.7,271.5z"/>
	<path class="st0" d="M302.6,343.2c0-7.6,0-15.2,0-22.8c0-0.4,0-0.8,0-1.6c0.3,0.4,0.3,0.6,0.4,0.7c-0.1,0.5-0.2,0.9-0.2,1.4
		c0,7,0,14,0,21C302.9,342.3,302.7,342.7,302.6,343.2z"/>
	<path class="st3" d="M464.7,296.9c0.4-0.1,0.8-0.1,1.3-0.1c6.5,0,13.1,0,19.6,0c0.5,0,0.9-0.1,1.4-0.1c-0.4,0.1-0.9,0.3-1.3,0.3
		C478.6,296.9,471.7,296.9,464.7,296.9z"/>
	<path class="st0" d="M597.1,309.2c0-0.3-0.1-0.5-0.1-0.8c0-6.9,0-13.9,0-20.8c0-0.2,0.1-0.5,0.1-0.7
		C597.1,294.3,597.1,301.8,597.1,309.2z"/>
	<path class="st0" d="M607.6,286.8c0-2.9,0-5.8,0-8.9c-0.9,0-1.8,0-2.7,0c-2.2,0-4.5,0-6.7,0c-0.4,0-0.7-0.1-1.1-0.2
		c3.2,0,6.5,0,9.7,0c0.8,0,1.1,0.2,1.1,1.1c0,2.4,0,4.7,0,7.1C607.9,286.1,607.7,286.5,607.6,286.8z"/>
	<path class="st0" d="M584.8,277.7c-0.4,0.1-0.7,0.2-1.1,0.2c-2.5,0-5.1,0-7.7,0c0,3,0,6,0,8.9c-0.1-0.3-0.3-0.6-0.3-1
		c0-2.4,0-4.7,0-7.1c0-0.9,0.3-1.1,1.2-1.1C579.6,277.7,582.2,277.7,584.8,277.7z"/>
	<path class="st3" d="M464.6,314.2c0-0.3-0.1-0.5-0.1-0.8c0-5.2,0-10.4,0-15.6c0-0.3,0.1-0.5,0.1-0.8
		C464.7,302.7,464.6,308.4,464.6,314.2z"/>
	<path class="st3" d="M464.6,286.7c0-0.3-0.1-0.5-0.1-0.8c0-4.5,0-9,0-13.5c0-0.3,0.1-0.6,0.1-0.9
		C464.7,276.6,464.6,281.6,464.6,286.7z"/>
	<path class="st0" d="M597.1,277.7c0-0.9-0.1-1.8-0.1-2.7c0-3.4-0.1-6.8-0.1-10.2c0.1,0.4,0.2,0.8,0.2,1.2
		C597.1,269.9,597.1,273.8,597.1,277.7z"/>
	<path class="st0" d="M568.3,258c-1,0-2.1-0.1-3.1-0.1c-3.1,0-6.1,0.1-9.2,0.1c0.3-0.1,0.6-0.3,1-0.3c3.4,0,6.9,0,10.3,0
		C567.7,257.8,568,257.9,568.3,258z"/>
	<path class="st0" d="M568.3,278c-4.1,0-8.1,0-12.2,0c0.3-0.1,0.6-0.3,1-0.3c3.4,0,6.9,0,10.3,0C567.7,277.7,568,277.9,568.3,278z"
		/>
	<path class="st3" d="M556.1,324.2c4.1,0,8.1,0,12.2,0c-0.3,0.1-0.6,0.3-1,0.3c-3.4,0-6.9,0-10.3,0
		C556.7,324.5,556.4,324.3,556.1,324.2z"/>
	<path class="st0" d="M696,324.2c4.1,0,8.1,0,12.2,0c-0.3,0.1-0.6,0.3-1,0.3c-3.4,0-6.9,0-10.3,0C696.7,324.5,696.3,324.3,696,324.2
		z"/>
	<path class="st0" d="M726.5,324.2c4.1,0,8.2,0,12.2,0c-0.3,0.1-0.6,0.2-0.9,0.2c-3.5,0-7,0-10.5,0
		C727.1,324.5,726.8,324.3,726.5,324.2z"/>
	<path class="st0" d="M707.5,277.9c-3.8,0-7.7,0-11.5,0c0.3-0.1,0.6-0.3,0.8-0.3c3.3,0,6.6,0,9.9,0
		C707,277.7,707.3,277.8,707.5,277.9z"/>
	<path class="st3" d="M382.7,321.8c0-3.1,0.1-6.3,0.1-9.4c0-0.2-0.3-0.3-0.5-0.5c0.2,0.1,0.7,0.2,0.7,0.3c0,3.1,0,6.2,0,9.3
		C383,321.7,382.8,321.7,382.7,321.8z"/>
	<path class="st3" d="M497.9,297.6c0,2.2,0,4.5,0,6.7C498,302.1,498,299.8,497.9,297.6z"/>
	<path class="st0" d="M218.6,289.5c0,2.2,0,4.3,0,6.5C218.6,293.8,218.6,291.6,218.6,289.5z"/>
	<path class="st0" d="M267.1,292.8c-0.2,4.8-1,9.3-3.1,13.6c-3.1,6-8,9-14.8,9c-6.8,0-11.9-3-14.7-9.1c-4-8.7-4.1-17.7-0.1-26.5
		c5.4-11.8,18.9-11.2,25-6.2c3.7,3.1,5.7,7.1,6.7,11.7C266.6,287.8,266.8,290.3,267.1,292.8z"/>
	<path class="st0" d="M510.5,301.9c0.1-4.1,0.5-7.2,1.8-10c1.5-3.3,4-5.5,7.8-5.6c3.6-0.1,6.4,1.4,8.4,4.5c2.3,3.6,3,7.5,2.8,11.7
		c-0.2,3-0.8,5.9-2.3,8.6c-3.4,6.1-10.6,6.1-14.1,2.8c-2-1.8-3-4.2-3.6-6.8C510.8,305,510.6,303,510.5,301.9z"/>
	<path class="st0" d="M302.6,301c0.2-3.6,0.9-6.9,2.8-10c2.9-4.7,8.7-6.3,12.9-3.5c2.6,1.8,3.8,4.4,4.5,7.4
		c1.2,5.3,1.1,10.5-1.2,15.5c-3.1,6.7-10.1,6.5-13.7,3.8c-2.3-1.8-3.6-4.3-4.3-7C303.2,305.1,302.9,303.1,302.6,301z"/>
	<path class="st0" d="M673.9,300.8c0,2.5-0.4,5.4-1.5,8.1c-1.8,4.6-5.2,6.9-10.1,7c-4.6,0.1-8.3-2.2-10-6.6
		c-2.2-5.6-2.6-11.3,0-16.9c2-4.2,5.4-6.3,10.1-6.3c4.7,0.1,8,2.3,10,6.6C673.6,295.2,674,297.7,673.9,300.8z"/>
	<path class="st0" d="M374.6,296.5c-6.8,0-13.5,0-20.3,0c-0.1-6.2,4.6-10.9,10.7-10.8C370.9,285.7,374.4,289.9,374.6,296.5z"/>
	<path class="st2" d="M628.3,324.2c-4,0-8,0-12,0c0-15.4,0-30.8,0-46.3c4,0,7.9,0,12,0C628.3,293.4,628.3,308.7,628.3,324.2z"/>
</g>
</svg>
