<?xml version="1.0" encoding="UTF-8" standalone="no"?>
<svg
   xmlns:dc="http://purl.org/dc/elements/1.1/"
   xmlns:cc="http://creativecommons.org/ns#"
   xmlns:rdf="http://www.w3.org/1999/02/22-rdf-syntax-ns#"
   xmlns:svg="http://www.w3.org/2000/svg"
   xmlns="http://www.w3.org/2000/svg"
   viewBox="0 0 442.32001 93.760002"
   height="93.760002"
   width="442.32001"
   xml:space="preserve"
   id="svg2"
   version="1.1"><metadata
     id="metadata8"><rdf:RDF><cc:Work
         rdf:about=""><dc:format>image/svg+xml</dc:format><dc:type
           rdf:resource="http://purl.org/dc/dcmitype/StillImage" /><dc:title></dc:title></cc:Work></rdf:RDF></metadata><defs
     id="defs6" /><g
     transform="matrix(1.3333333,0,0,-1.3333333,0,93.76)"
     id="g10"><g
       transform="scale(0.1)"
       id="g12"><path
         id="path14"
         style="fill:#567c5b;fill-opacity:1;fill-rule:evenodd;stroke:none"
         d="m 612.324,183.711 c 12.094,-6.926 24.578,-6.238 32.328,-2.93 7.024,2.93 22.575,15.703 33.399,30.332 4.683,6.145 42.808,49.434 -2.145,99.27 L 521.688,465.137 c 11.703,-0.293 23.992,32.761 4.14,54.023 0.344,0 -150.601,149.387 -150.215,149.387 -23.695,21.258 -35.398,31.394 -53.484,31.394 0.195,0 -23.645,-0.195 -23.645,0 -11.023,0 -16.629,-9.453 -16.629,-20.273 V 557.285 c 0,-11.797 0.54,-22.629 8.875,-29.258 0,0.293 -271.7652,0 -271.7652,0 -8.3398,0 -15.35933,-1.855 -18.9648,-11.211 -3.61328,-8.878 -0.195313,-14.433 2.87109,-19.89 -0.14453,0 184.93391,-259.094 184.93391,-259.094 l 134.324,-0.195 96.781,70.312 8.485,-9.66 c 0,0 -354.4536,-260.5546 -354.0708,-260.3593 C 66.0664,32.3711 64.2578,21.3555 66.6445,15.5078 68.9844,9.74609 73.8633,0 82.6836,0 H 278.98 c 17.36,0 35.59,13.0664 35.59,32.3711 0,0 0,54.9023 0,55 0,20.0899 0.879,19.8949 26.524,19.8949 h 40.469 c -11.946,-6.629 -32.864,-17.1683 -33.594,-17.4613 -1.27,-0.5859 -2.34,-3.9961 -3.797,-8.1836 -1.274,-4.1016 -7.414,-24.875 -8.488,-25.9375 -1.27,-1.1719 -1.614,-4.1992 -1.465,-7.3242 0.39,-3.2149 0.73,-8.5742 0.73,-8.5742 H 683.461 V 65.918 H 367.473 c 0,0 3.804,8 5.609,9.2578 1.41,1.0742 48.559,24.8752 62.453,32.0902 h 17.895 c 37.543,0 61.922,9.062 81.621,40.664 0.34,0.683 39.148,71.472 41.687,74.004 4.727,4.492 13.942,15.507 32.325,13.75 13.898,-1.27 26.035,-12.676 28.91,-24.766 2.679,-11.504 -3.461,-16.387 -4.145,-17.449 -2.34,-3.125 -14.48,-7.805 -21.504,-9.758" /><path
         id="path16"
         style="fill:#79bf3c;fill-opacity:1;fill-rule:evenodd;stroke:none"
         d="m 329.199,674.785 c 17.309,-6.144 115.746,-109.402 115.551,-109.402 45.887,-46.613 73.672,-64.953 55.777,-81.621 -22.718,20.086 -60.312,44.265 -117.16,44.265 0.149,0 -54.168,0 -54.168,0 -14.289,0 -22.426,6.438 -22.426,22.532 -0.148,0 0,126.082 0,126.082 0,0 14.282,1.074 22.426,-1.856 M 30.7148,503.262 202.234,262.891 H 313.84 L 423.445,343.242 461.719,294.395 96.9727,24.7656 c 0,0 164.8433,-0.1953 164.8433,0 18.965,-0.1953 27.254,6.1407 27.649,23.3008 0,0.1953 0.191,53.4376 0,53.6326 0,27.989 16.039,31.211 43.344,31.211 h 52.363 c 0,0 65.336,0.391 65.336,0 17.551,0 43,4.485 54.555,16.094 10.484,10.625 35.398,60.254 45.683,78.691 5.223,9.258 14.094,30.325 54.172,31.106 27.785,0.679 47.289,-24.973 51.828,-38.617 11.899,12.382 31.399,42.414 2.141,74.504 0.195,0.195 -174.59,170.156 -174.059,170.156 -35.734,33.152 -89.176,38.027 -111.746,38.418 0.336,0 -342.3672,0 -342.3672,0" /><path
         id="path18"
         style="fill:#567c5b;fill-opacity:1;fill-rule:evenodd;stroke:none"
         d="m 662.551,259.188 c 0,-4.872 -4.004,-8.875 -9.074,-8.875 -4.872,0 -9.02,4.003 -9.02,8.875 0,4.972 4.148,8.976 9.02,8.976 5.07,0 9.074,-4.004 9.074,-8.976" /><path
         id="path20"
         style="fill:#040606;fill-opacity:1;fill-rule:nonzero;stroke:none"
         d="M 759.473,430.715 H 871.27 c 0,0 100.925,-0.195 100.925,0 66.995,0 50.755,-49.152 39.545,-61.438 -30.861,-33.933 -57.236,-43.879 -80.888,-57.043 V 412.09 H 819.441 V 107.266 h 111.211 c 0,0 -0.336,99.367 0,99.367 11.223,4.285 78.938,40.555 107.468,57.527 9.02,5.457 57.77,34.719 85.42,83.281 21.3,37.149 16.09,86.485 0.34,115.938 -16.23,30.527 -58.12,64.648 -116.82,64.648 0.73,0 -187.619,-0.39 -187.619,0 -22.375,0.293 -37.539,-10.625 -43.535,-31.593 -0.34,-0.387 -16.433,-65.719 -16.433,-65.719" /><path
         id="path22"
         style="fill:#040606;fill-opacity:1;fill-rule:nonzero;stroke:none"
         d="m 2573.16,408.965 c -3.02,39.394 -13.65,62.219 -42.22,86.199 -21.84,18.43 -62.31,32.863 -109.6,32.863 h -243.3 c 0,0 -158.17,0.196 -158.17,0 -38.22,0 -87.37,-7.988 -108.13,-44.953 -20.78,-37.058 -16.97,-84.344 12.97,-118.672 0,0.2 111.65,-125.3 111.16,-125.886 12.09,-17.266 4.87,-33.938 -12,-33.938 H 1850.6 v 323.449 h -111.46 v -148.32 l -122.48,148.32 h -531.79 c 46.22,-17.16 69.92,-57.043 72.6,-97.507 0,-0.2 9.95,0 9.95,0 h 13.7 V 107.266 h 266.75 l 25.45,97.312 h -180.79 v 66.699 h 126.96 l 23.11,96.926 h -150.07 v 62.317 h 216.72 V 107.266 h 111.21 V 365.09 L 1739.14,230.227 V 107.266 c 0,0 308.04,0 308.23,0 42.23,0 94.59,7.793 117.01,44.461 21.66,35.695 12.3,79.375 -16.08,118.578 0.68,0 -110.88,126.472 -110.88,126.57 -11.01,14.531 -13.75,34.133 14.63,34.133 -1.07,-0.688 322.38,-0.688 322.38,0 68.74,0 70.89,-36.477 72.75,-50.91 8.09,-61.231 -3.52,-105.801 -9.76,-125.782 -14.43,-45.742 -40.47,-57.636 -56.75,-57.636 -15.02,0 -41.54,10.047 -55.97,58.703 -7.81,25.945 -22.04,108.633 -1.75,157.293 0,-0.781 -134.77,-0.781 -134.77,0 -3.9,-117.41 16.97,-172.305 37.05,-208.781 37.74,-67.579 89.72,-105.5044 156.23,-105.5044 76.64,0 117.69,38.5114 157.57,106.7734 19.51,33.254 42.12,102.785 34.13,203.801" /><path
         id="path24"
         style="fill:#040606;fill-opacity:1;fill-rule:nonzero;stroke:none"
         d="m 2520.12,528.027 c 44.95,-20.957 69.32,-49.629 76.54,-97.121 0,0.102 34.42,0 34.42,0 l -0.09,-309.402 c 0,-48.3673 10.63,-70.7032 18.23,-88.9376 0,-0.1953 105.8,65.1367 105.99,64.9453 -9.55,23.1133 -12.48,47.8793 -12.77,62.5083 -0.19,0 0,105.41 0,105.41 h 130.09 l 27.68,97.312 h -157.77 v 68.164 h 268.26 v -323.64 h 111.46 v 323.64 h 144.31 c 0,0 -16.37,68.547 -16.18,68.254 -5.85,20.879 -22.62,28.867 -45.83,28.867 h -185.87 -498.47" /><path
         id="path26"
         style="fill:#040606;fill-opacity:1;fill-rule:evenodd;stroke:none"
         d="M 3121.38,66.1133 V 39.7852 h -387.12 v 26.3281 h 387.12" /><path
         id="path28"
         style="fill:#040606;fill-opacity:1;fill-rule:evenodd;stroke:none"
         d="M 683.461,65.918 H 2612.36 V 40.0781 L 683.461,39.7852 V 65.918" /><path
         id="path30"
         style="fill:#040606;fill-opacity:1;fill-rule:evenodd;stroke:none"
         d="m 3301.29,97.0195 c 0,-33.8359 -27.4,-61.4336 -61.44,-61.4336 -33.54,0 -60.93,27.5977 -60.93,61.4336 0,33.7425 27.39,61.1445 60.93,61.1445 34.04,0 61.44,-27.402 61.44,-61.1445 m -108.15,0 c 0,-25.8359 21.07,-46.8047 46.71,-46.8047 26.04,0 46.91,20.9688 46.91,46.8047 0,25.8395 -20.87,46.9065 -46.91,46.9065 -25.64,0 -46.71,-21.067 -46.71,-46.9065 m 36.67,3.6175 v 14.617 h 14.24 c 6.63,0 7.99,-4.387 7.99,-7.207 0,-5.469 -2.92,-7.41 -8.96,-7.41 z m -11.3,-30.7268 h 11.3 v 21.457 h 11.9 c 8.29,0 8.78,-2.832 8.78,-10.4297 0,-5.6641 0.38,-8.4883 1.36,-11.0273 h 12.57 v 1.4687 c -2.53,0.8789 -2.53,2.832 -2.53,11.0234 0,10.0391 -2.34,11.6993 -6.92,13.6524 5.46,2.043 8.58,7.1093 8.58,13.2613 0,4.676 -2.73,15.301 -17.36,15.301 h -27.68 V 69.9102" /></g></g></svg>