<svg id="Layer_1" data-name="Layer 1" xmlns="http://www.w3.org/2000/svg" viewBox="0 0 284.64 107.3"><defs><style>.cls-1{fill:#039;}</style></defs><title>SAGE Publishing Logo_r0 g51 b153</title><path class="cls-1" d="M57.27,22.21C42.63,22.21,30.72,40,30.72,61.52c0,21.81,11.91,39.29,26.55,39.29S83.79,83.33,83.79,61.52c0-21.48-11.94-39.31-26.52-39.31m-.21-2.34c17.88,0,32.88,18.8,32.88,41.76,0,23.12-15,41.91-32.88,41.91-18.27,0-32.87-18.79-32.87-41.91,0-23,14.6-41.76,32.87-41.76" transform="translate(-24.19 -19.87)"/><path class="cls-1" d="M77.6,50C77.22,42.27,69,30.22,58.17,29.8V51H76.68A.87.87,0,0,0,77.6,50" transform="translate(-24.19 -19.87)"/><path class="cls-1" d="M77.59,73.11a1.62,1.62,0,0,0-.5-1.16L56,50.74V29.8c-10.89.43-19,12.56-19.42,20.32A1.54,1.54,0,0,0,37,51.36L58.17,72.69V93.6c11-.43,19.21-12.73,19.42-20.49" transform="translate(-24.19 -19.87)"/><path class="cls-1" d="M36.53,73.44C37,81.21,45.13,93.18,56,93.6V72.42H37.42a.83.83,0,0,0-.89,1" transform="translate(-24.19 -19.87)"/><path class="cls-1" d="M135.47,48.47c-.44-9.86-8.61-13-15.81-13-5.41,0-14.56,1.51-14.56,11.19,0,5.42,3.82,7.19,7.55,8.08L130.86,59c8.25,1.95,14.47,6.92,14.47,17,0,15.1-14,19.27-25,19.27-11.81,0-16.42-3.55-19.27-6.13C95.69,84.26,94.62,78.93,94.62,73h8.08c0,11.54,9.42,14.92,17.59,14.92,6.21,0,16.69-1.6,16.69-10.75,0-6.66-3.11-8.79-13.59-11.28l-13-3c-4.18-1-13.59-3.9-13.59-15,0-9.94,6.48-19.71,21.94-19.71,22.29,0,24.51,13.32,24.86,20.34Z" transform="translate(-24.19 -19.87)"/><path class="cls-1" d="M227.75,59.48h28v34.1h-7.37l-.27-8.26c-4.35,6-12.34,10-21,10-10.93,0-16.26-4-19.54-7.19-9.77-9.24-10-20.16-10-26.91,0-15.55,9.41-33,30.2-33,11.9,0,25.13,6.75,27,21.05h-8.35c-2.76-11.1-12.08-13.41-19.1-13.41-11.45,0-20.87,9.14-20.87,25.84,0,13,4.27,26.29,21.23,26.29a20.26,20.26,0,0,0,13.05-4.09c5.6-4.44,7-10.12,7-17H227.75V59.48Z" transform="translate(-24.19 -19.87)"/><polygon class="cls-1" points="237.57 9.95 237.57 73.72 284.64 73.72 284.64 66.08 246.19 66.08 246.19 44.77 281.09 44.77 281.09 37.13 246.19 37.13 246.19 17.59 284.02 17.59 284.02 9.95 237.57 9.95 237.57 9.95"/><path class="cls-1" d="M185.21,75l6.3,18.56h9.41L177.83,29.82h-9.76l-24,63.76H153L159.63,75Zm-22.92-7.64,10.22-28.06h.17l9.42,28.06Z" transform="translate(-24.19 -19.87)"/><path class="cls-1" d="M308.83,107H306.6V109h0a4.7,4.7,0,0,0-4.28-2.4c-5,0-6.65,4.2-6.65,7.59,0,3.92,2.14,7.29,6.42,7.29a4.8,4.8,0,0,0,4.48-2.62h.05v1c0,3.22-1.22,5.45-4.3,5.45-1.56,0-3.62-.62-3.73-2.34h-2.36c.14,3.14,3.25,4.23,6,4.23,4.53,0,6.67-2.39,6.67-7.06V107Zm-6.62,12.45c-3.11,0-4.06-2.89-4.06-5.47,0-2.76,1.23-5.23,4.26-5.23s4.08,2.61,4.08,5.14c0,2.7-1.16,5.56-4.28,5.56m-20.37,1.92h2.36v-8.12c0-2.58,1.39-4.5,4.25-4.5a2.71,2.71,0,0,1,2.92,2.89v9.73h2.36v-9.45c0-3.09-1.17-5.26-5-5.26a5,5,0,0,0-4.67,2.62h-.05V107h-2.22v14.37Zm-2.74-19.85h-2.36v2.89h2.36v-2.89Zm-2.36,19.85h2.36V107h-2.36v14.37Zm-14.66,0h2.36v-8.12c0-2.58,1.39-4.5,4.25-4.5a2.71,2.71,0,0,1,2.92,2.89v9.73H274v-9.45c0-3.09-1.16-5.26-4.94-5.26-1.73,0-3.76.73-4.53,2.45h-.06v-7.59h-2.36v19.85Zm-14-4.53c.14,3.56,2.86,4.86,6.09,4.86,2.91,0,6.11-1.11,6.11-4.53,0-2.78-2.33-3.56-4.7-4.08-2.19-.53-4.69-.81-4.69-2.51,0-1.44,1.64-1.83,3.05-1.83,1.56,0,3.17.58,3.34,2.42h2.36c-.19-3.5-2.72-4.51-5.89-4.51-2.5,0-5.37,1.2-5.37,4.09s2.37,3.53,4.7,4.06,4.7.83,4.7,2.67-2,2.14-3.48,2.14c-1.94,0-3.78-.67-3.86-2.78Zm-1.91-15.32h-2.36v2.89h2.36v-2.89Zm-2.36,19.85h2.36V107h-2.36v14.37Zm-5.16,0H241V101.48h-2.36v19.85Zm-15.73,0h2.36v-1.92h.06a5.49,5.49,0,0,0,4.64,2.25c4.39,0,6.56-3.42,6.56-7.47s-2.2-7.57-6.61-7.57c-2,0-3.81.7-4.59,2.28h-.06v-7.42h-2.36v19.85ZM234,114c0,2.81-1.09,5.56-4.31,5.56s-4.53-2.62-4.53-5.45,1.22-5.42,4.39-5.42S234,111.32,234,114M220.13,107h-2.36v8.11c0,2.59-1.39,4.51-4.26,4.51a2.71,2.71,0,0,1-2.92-2.89V107h-2.36v9.45c0,3.08,1.17,5.25,5,5.25a5,5,0,0,0,4.67-2.61h.06v2.28h2.22V107Zm-25.74-3.25h5.17c3,0,4.34,1.27,4.34,3.64s-1.36,3.67-4.34,3.64h-5.17v-7.28Zm-2.64,17.62h2.64v-8.12h6.06c4,0,6.09-2.19,6.09-5.86s-2.14-5.87-6.09-5.87h-8.7v19.85Z" transform="translate(-24.19 -19.87)"/></svg>