<svg version="1.1" id="Layer_2" xmlns="http://www.w3.org/2000/svg" xmlns:xlink="http://www.w3.org/1999/xlink" x="0px" y="0px"
		 viewBox="0 0 612 792" style="enable-background:new 0 0 612 792;" xml:space="preserve">
				<style type="text/css">
					.st0{fill:#D81F2B;}
					.st1{fill:url(#bola_1_);}
					
				</style>
				<g id="arco" filter="url(#f3)">
					<path d="M226.3,333.5c0,0,144.7-248.9,226.8-218.9c36.3,13.2,34.1,108.8-12.3,216.1C382.3,466,270.4,617,266.7,609.7
							c-0.7-1.4,7-8.5,13.6-17.9c11.5-16.3,27.5-41.9,47.6-74.7c22.5-36.8,42.5-81.1,62.1-126c48.6-111,64.9-225.8,27.9-225.8
							C345,165.3,226.3,333.5,226.3,333.5z"/>
				</g>
				<g id="texto2">
					<path class="st0" d="M38.8,472v-55.9h2.8c2.4,17.1,7.3,30.3,14.6,39.7c7.3,9.4,16.4,14.1,27.3,14.1c7.3,0,13.4-2.4,18.3-7.3
						s7.3-11,7.3-18.4c0-6.1-1.8-11.4-5.3-16.1c-3.6-4.7-10.1-9.8-19.6-15.5c-3-1.8-7.3-4.2-12.9-7.1c-10-5.3-16.8-9.6-20.4-13
						c-2.7-2.7-4.9-5.9-6.4-9.6s-2.3-7.5-2.3-11.6c0-9.9,2.9-18,8.7-24.3s13.2-9.4,22.2-9.4c5.9,0,11.2,1.4,16,4.2
						c4.8,2.8,9.4,7.2,14,13.3l10.2-17.4h1.1V388h-2.8c-2.9-15.2-7.6-26.8-14.2-34.9C90.9,345,82.9,341,73.6,341c-7.1,0-13,2-17.7,6.1
						s-7.1,9.1-7.1,15.2c0,7.8,9.4,16.8,28.3,27c3.7,2,6.5,3.5,8.5,4.6c12.1,6.7,20.6,13.1,25.4,19.4c4.9,6.2,7.3,13.5,7.3,21.7
						c0,11-3.4,20.1-10.1,27.4c-6.7,7.2-15.1,10.9-25.2,10.9c-6.1,0-11.9-1.6-17.3-4.9s-10.4-8.1-14.9-14.5l-10,18L38.8,472L38.8,472z"
						/>
					<path class="st0" d="M197,437.8c-0.9,11.2-3.9,19.9-9.1,26.1c-5.2,6.3-11.9,9.4-20.1,9.4c-9.3,0-17.4-4.4-24.2-13.3
						s-10.1-19.6-10.1-32.2c0-7.1,1.3-13.9,3.8-20.3c2.6-6.4,6.2-12,11-16.8c3-2.9,6.2-5.1,9.6-6.5c3.5-1.4,7.3-2.1,11.6-2.1
						c6,0,11.1,2.1,15.4,6.4c4.2,4.3,6.3,9.5,6.3,15.6c0,3.4-0.9,6.2-2.7,8.3c-1.8,2.1-4.1,3.2-7,3.2c-2.5,0-4.5-0.8-6.2-2.5
						c-1.6-1.7-2.5-3.8-2.5-6.3s0.8-4.6,2.4-6.3c1.6-1.6,3.6-2.4,6.1-2.4c1.3,0,2.4,0.3,3.5,0.8c1,0.5,2.1,1.4,3.1,2.4
						c-1-5.1-3.1-9.1-6.4-12c-3.3-2.9-7.4-4.3-12.3-4.3c-7.7,0-13,3-16,9.1s-4.5,18.5-4.5,37.4c0,14.5,1.5,24.5,4.4,30.1s8,8.4,15.1,8.4
						c7.2,0,13.1-2.9,17.8-8.7c4.7-5.8,7.3-13.6,8-23.6L197,437.8L197,437.8z"/>
					<path class="st0" d="M232.1,468.1h13v3h-39.5v-3h12.8v-81h-12.8v-3h26.5V468.1z"/>
				</g>
				<radialGradient id="bola_1_" cx="226.4564" cy="449.9372" r="7.5721" gradientTransform="matrix(1.037 0 0 -1.0055 -19.9989 794.6887)" gradientUnits="userSpaceOnUse">
					<stop  offset="0" style="stop-color:#FFFFFF"/>
					<stop  offset="1" style="stop-color:#000000"/>
				</radialGradient>
				<ellipse id="bola" class="st1" cx="217.6" cy="348.9" rx="14.3" ry="13.9"/>
				<g id="texto">
					<path class="st0" d="M260.8,513.6v-3.5h18V385.8h-18v-3.5h91.3V427h-2c-2.2-15.2-5.8-25.9-10.7-32c-4.9-6.1-12.4-9.2-22.3-9.2
						h-22.9v55.6h7c6.7,0,12-2.6,15.9-7.7s6-12.3,6.3-21.5h1.7v59.6h-1.7c-0.6-9.8-2.5-16.7-5.8-20.9c-3.3-4.2-8.4-6.3-15.3-6.3h-8.1
						V510h22.5c10.1,0,18.1-3.9,23.8-11.8c5.7-7.9,9.5-20.1,11.4-36.6h2.2v51.9L260.8,513.6L260.8,513.6z"/>
					<path class="st0" d="M425.3,382.3v3.5h-18v124.3h16.2c12.2,0,21.7-4.4,28.5-13.3s11.3-22.9,13.7-42h2v58.9h-93.8v-3.5h18V385.8h-18
						v-3.5H425.3z"/>
					<path class="st0" d="M529.1,380.3c5.1,0,10.1,1.2,14.9,3.7c4.8,2.5,9.1,6,13,10.5c5.9,7.1,10.4,15.3,13.4,24.7
						c3,9.4,4.6,19.7,4.6,30.8c0,9.7-1.2,18.6-3.6,26.6c-2.4,8-6,15.3-10.8,21.8c-4.1,5.5-8.9,9.7-14.4,12.8c-5.5,3.1-11.2,4.6-17,4.6
						s-11.5-1.5-17.1-4.6c-5.6-3.1-10.4-7.3-14.5-12.8c-4.8-6.5-8.4-13.7-10.8-21.8c-2.4-8-3.6-16.9-3.6-26.6c0-7.4,0.7-14.6,2.2-21.5
						c1.4-6.9,3.5-13.3,6.3-19.2c4.4-9.3,9.9-16.5,16.4-21.5C514.5,382.9,521.5,380.3,529.1,380.3z M529.1,512.3c4.8,0,9.1-1.4,13-4.2
						c3.9-2.8,7.3-6.9,10.1-12.3c1.9-3.5,3.2-8.3,4-14.2c0.8-5.9,1.2-17.1,1.2-33.6c0-18.2-0.6-30.6-1.8-37.1s-3.3-11.8-6.2-15.9
						c-2.6-3.6-5.7-6.4-9.3-8.4s-7.3-3-11.1-3c-3.9,0-7.7,1-11.3,3s-6.7,4.8-9.2,8.4c-3,4.1-5,9.5-6.2,16s-1.8,18.8-1.8,37.1v4.2
						c0,14.2,0.4,24.1,1.2,29.8c0.8,5.6,2.1,10.2,4,13.8c2.8,5.4,6.2,9.5,10.2,12.3C519.9,510.9,524.3,512.3,529.1,512.3z"/>
				</g>

				<defs>
			    <filter id="f3" x="0" y="0" width="150%" height="150%">
			      <feOffset result="offOut" in="SourceAlpha" dx="0" dy="15" />
			      <feGaussianBlur result="blurOut" in="offOut" stdDeviation="10" />
			      <feBlend in="SourceGraphic" in2="blurOut" mode="normal" />
			    </filter>
			  </defs>

			</svg>