<?xml version="1.0" encoding="UTF-8" standalone="no"?>
<svg
   xmlns:dc="http://purl.org/dc/elements/1.1/"
   xmlns:cc="http://creativecommons.org/ns#"
   xmlns:rdf="http://www.w3.org/1999/02/22-rdf-syntax-ns#"
   xmlns:svg="http://www.w3.org/2000/svg"
   xmlns="http://www.w3.org/2000/svg"
   viewBox="0 0 669.6875 637.79999"
   height="637.79999"
   width="669.6875"
   xml:space="preserve"
   version="1.1"
   id="svg2"><metadata
     id="metadata8"><rdf:RDF><cc:Work
         rdf:about=""><dc:format>image/svg+xml</dc:format><dc:type
           rdf:resource="http://purl.org/dc/dcmitype/StillImage" /><dc:title></dc:title></cc:Work></rdf:RDF></metadata><defs
     id="defs6" /><g
     transform="matrix(1.25,0,0,-1.25,0,637.8)"
     id="g10"><g
       transform="scale(0.1,0.1)"
       id="g12"><path
         id="path14"
         style="fill:#ffffff;fill-opacity:1;fill-rule:nonzero;stroke:none"
         d="m 0,0 5357.48,0 0,5102.36 L 0,5102.36 0,0 Z" /><path
         id="path16"
         style="fill:#231f20;fill-opacity:1;fill-rule:nonzero;stroke:none"
         d="m 1782.63,2049.39 c -6.59,7.42 -18.5,22.79 -17.2,46.93 0,0 -0.03,1.27 0,4.65 0.11,10.99 6.12,37.07 44.26,57.26 49.8,26.39 166.46,61.37 203.16,69.89 33.64,7.81 204.4,43.73 238.72,49 34.31,5.27 229.16,26.82 255.74,29.71 26.59,2.87 341.31,28.77 369.36,30.7 28.05,1.9 189.98,9.59 235.42,12.44 0,0 96.67,3.36 188.56,24.46 0,0 38.7,13.88 83.64,23 0,0 71.05,20.14 119.9,-56.56 0,0 50.43,-85.57 24,-132.21 0,0 -1.42,-3.24 -4.31,-7.28 -7,-12.81 -26.97,-40.78 -78.32,-70.24 -11.24,-6.97 -29.26,-15.33 -48.42,-16.01 -27.46,-2.11 -86.8,-5.37 -144.41,0.25 0,0 -30.65,2.46 -39.78,3.01 -32.06,1.86 -117.04,5.45 -193.25,8.54 -97.11,3.96 -178.34,9.74 -225.24,8.78 -46.87,-0.95 -131.96,0.94 -207.38,-6.25 -75.41,-7.18 -256.23,-21.56 -298.28,-25.41 -42.06,-3.8 -187.36,-18.04 -233.03,-25.87 -48.64,-8.38 -125.7,-24.97 -144.07,-29.73 0,0 -66.51,-17.5 -112.12,-7.5 -3.89,0.86 -12.07,2.93 -16.95,8.44" /><path
         id="path18"
         style="fill:#1a468e;fill-opacity:1;fill-rule:nonzero;stroke:none"
         d="m 2813.19,2645.85 c -34.16,-1.62 -43.55,40.02 -63.35,74.73 -20.98,36.82 -103.17,198.94 -122.84,235.57 -19.71,36.65 -133.93,258.45 -151.2,285.58 -12.02,18.85 -78.19,140.16 -120.38,213.13 -20.07,34.69 -56.86,92.16 -85.05,130.47 -35.82,48.71 -79.25,107.34 -95.03,128.05 -28.33,37.12 -86.41,115.17 -134.41,180.85 0,0 -44.18,70.44 14.39,118.03 0,0 40.57,26.82 92.26,27.52 10.39,0.12 19.15,-1.18 34.73,-6.53 17.07,-5.87 43.61,-17.86 65.02,-34.31 34.06,-26.18 103.67,-86.91 184.31,-197.52 45.32,-62.19 121.45,-207.98 147.84,-255.1 26.39,-47.1 100.31,-225.59 115.65,-260.81 15.35,-35.23 71.02,-195.13 94.08,-256.99 23.03,-61.88 53.3,-152.79 72.94,-226.56 14.07,-52.72 16.31,-72.73 14.15,-92.24 -0.3,-8.13 -1.66,-15.18 -5.02,-23.89 0,0 -17.77,-38.06 -58.09,-39.98" /><path
         id="path20"
         style="fill:#f0be07;fill-opacity:1;fill-rule:nonzero;stroke:none"
         d="m 2940.87,3442.57 c 0,0 -12.04,-4.22 -24.21,19.06 -2.04,3.95 -4.19,15.79 -2.69,25.2 5.51,34.6 32.56,172.12 111.88,370.74 0,0 84.45,202.76 141.09,285.09 56.66,82.34 137.82,199.55 190.01,231.51 0,0 76.75,57.85 141.4,47.88 0,0 63.62,-4.77 88.59,-55.7 0,0 20.18,-59 -10.54,-99.94 0,0 -30.24,-57.45 -75.84,-81.86 0,0 -110.61,-64.58 -144.96,-94.71 -27.52,-24.12 -50.06,-50.56 -79.25,-82.52 -9.09,-11.2 -33.78,-40.36 -56.79,-68.51 -9.69,-11.67 -33.09,-43.14 -39.15,-50.24 0,0 -56.63,-78.11 -109.46,-187.1 -52.8,-108.98 -61.19,-129.74 -95.04,-207.98 0,0 -15.35,-47.1 -35.04,-50.92" /><path
         id="path22"
         style="fill:#d91433;fill-opacity:1;fill-rule:nonzero;stroke:none"
         d="m 3060.85,3087.54 c 0,0 -31.19,6.18 -29.26,30.91 3.14,18.57 4.2,24.41 11.82,44.31 25.9,67.87 51.01,148.74 94.92,228.06 55.55,100.31 175.66,289.92 306.51,393.95 78.53,62.4 118.85,88.4 183.22,101.68 10.09,2.09 24.94,8.54 54.7,1.07 22.95,-6.56 56.73,-22.62 66.9,-61.34 0,0 12.01,-69.02 -62.4,-119.46 0,0 -218.87,-149.92 -256.3,-181.33 -37.45,-31.41 -59.32,-42.86 -130.36,-112.35 0,0 -101.18,-113.73 -138.44,-172.57 0,0 -34.2,-59.15 -64.9,-110.61 -4.65,-9.95 -13.05,-23.24 -23.23,-34.89 0,0 -3.65,-6.32 -13.18,-7.43" /><path
         id="path24"
         style="fill:#231f20;fill-opacity:1;fill-rule:nonzero;stroke:none"
         d="m 1650.29,1211.11 c 1.8,5.83 4.43,10.72 8.53,15.78 4.17,5.11 9.59,9.22 12.36,11.01 3.94,2.54 10.6,5.63 14.55,6.68 4.76,1.27 13.19,1.92 24.77,-0.14 7.57,-1.32 15.04,-5 19.2,-7.67 5.9,-3.83 12.87,-10.86 16.19,-17.68 3.88,-7.95 2.45,-18.61 2.45,-18.61 l -99.96,0.29 c 0,0 0.24,4.98 1.91,10.34 z m -6.87,-43.95 159.14,0 c 0,0 0.77,17.52 -0.54,28.52 -1.34,11.3 -2.68,18.02 -6.99,28.78 -4.01,10.04 -10.57,21.7 -18.96,30.28 -6.2,6.31 -13.99,13.57 -23.14,18.96 -7.92,4.65 -16.55,8.62 -25.15,11.45 -7.7,2.5 -14.43,3.63 -23.54,4.29 -7.54,0.53 -15.92,-0.15 -25.97,-1.87 -7.79,-1.37 -15.47,-4.18 -23,-7.4 -7.28,-3.13 -11.31,-5.26 -20.31,-11.45 -7.8,-5.37 -18.22,-15.99 -24.49,-24.35 -6.05,-8.07 -11.03,-17.6 -15.33,-27.17 -5,-11.11 -7.8,-22.33 -9.68,-32.83 -1.59,-8.81 -2.69,-17.48 -3.23,-26.62 -0.54,-9.14 -0.54,-14.81 0,-24.75 0.43,-8.07 0.72,-12.15 1.88,-20.45 1.35,-9.69 3.36,-18.96 5.66,-25.84 1.87,-5.64 5.64,-15.08 9.95,-22.05 3.36,-5.45 7.37,-10.92 12.92,-16.13 4.83,-4.57 7.41,-7.41 14.52,-12.39 6.04,-4.23 8.88,-6.19 13.45,-8.34 6.43,-3.02 11.84,-5.5 17.76,-7.53 6.43,-2.19 12.38,-3.72 19.9,-5.12 6.59,-1.21 12.65,-1.58 19.1,-1.58 9.15,0 14.27,0.23 20.45,1.05 8.57,1.11 12.65,1.62 18.02,2.7 5.19,1.03 9.41,2.01 14.27,3.36 6.15,1.69 12.63,3.35 19.63,5.93 6.39,2.33 8.61,3.09 13.45,5.22 4.84,2.17 6.73,3.24 6.73,3.24 0,0 1.34,17.48 1.88,26.09 0.54,8.62 1.62,25.84 1.62,25.84 0,0 -3.63,-3.77 -11.78,-8.36 -6.17,-3.45 -13.95,-7.01 -23.03,-10.17 -7.95,-2.79 -13.24,-4.2 -19,-5.59 -7.88,-1.91 -13.98,-2.38 -21.41,-2.93 -6.18,-0.45 -13.42,0.04 -22.25,1.58 -7.17,1.27 -14.98,3.44 -20.19,5.98 -6.13,2.99 -12.79,7.87 -17.03,12.76 -4.01,4.66 -8.11,11.36 -10.61,19.31 -1.84,5.84 -4.85,15.1 -5.91,25.04 -0.58,5.41 -0.69,8.48 -0.89,15.2 -0.19,6.54 -0.08,10.7 0.38,16.32 0.44,5.28 1.72,11.02 1.72,11.02" /><path
         id="path26"
         style="fill:#231f20;fill-opacity:1;fill-rule:nonzero;stroke:none"
         d="m 2954.83,1260.85 c 0.1,0.12 10.79,9.3 16.44,12.7 5.96,3.55 15.8,8.1 20.68,9.51 l 0.44,0.13 c 4.88,1.43 10.39,3.01 15.16,3.64 4.66,0.62 12.02,1.17 17.08,0.99 5.61,-0.17 11.83,-1.01 14.98,-1.48 3.68,-0.55 8.8,-1.97 15.24,-4.26 4.79,-1.7 9.96,-4.2 14.58,-7.03 3.85,-2.36 9.65,-5.96 13.81,-9.55 4.54,-3.91 9.56,-9.08 12.51,-12.5 3.21,-3.69 7.83,-9.77 10.71,-13.85 2.1,-2.95 4.17,-6.78 6.17,-10.51 l 1.9,-3.49 c 2.36,-4.2 4.09,-9.12 6.9,-17.91 2.53,-7.87 4.04,-14.36 5.28,-22.38 1.1,-7.21 1.69,-12 1.9,-18.13 0.28,-7.3 -0.38,-17.32 -0.92,-24.43 -0.68,-8.54 -2.57,-19.94 -4.42,-26.55 -2.05,-7.4 -2.99,-10.17 -5.62,-17.14 -2.79,-7.25 -5.74,-13.95 -8.59,-19.28 -3.85,-7.27 -5.04,-9.32 -8.57,-14.69 -4.4,-6.66 -8.59,-11.87 -13.64,-16.91 -5.74,-5.73 -8.25,-8.01 -12.83,-11.53 -4.5,-3.47 -6.97,-5.13 -13.64,-8.69 -5.64,-3.07 -7.67,-3.92 -12.15,-5.6 -4.78,-1.78 -9.27,-2.89 -16.03,-4.59 l -0.78,-0.18 c -0.06,-0.02 -8.29,-1.97 -18.17,-1.97 -9.21,0 -14.52,0.51 -22.69,2.13 -8.24,1.64 -10.88,2.5 -17.09,4.94 -6.15,2.44 -12.89,6.52 -12.95,6.56 l -1.38,0.86 -0.18,-59.301 c 0,0 -0.16,-39.019 -0.17,-40.168 -3.15,-1.351 -20.12,-8.519 -27.42,-11.171 0,0 -22.54,-8.418 -28.11,-10.489 0,3.02 -0.02,11.27 -0.02,20.719 0,11.969 0.02,25.699 0.19,32.641 0.34,13.769 0.52,37.75 0.52,44.919 l 0.12,19.72 0.21,30.02 0.66,60.16 0.15,58.01 0.16,17.34 c 0.11,8.19 0.23,17.23 0.23,23.83 0,2.01 -0.02,3.79 -0.06,5.23 l -0.08,8.79 -0.33,13.79 c -0.45,8.69 -1.05,11.64 -2.72,16.68 -2.18,6.47 -3.56,8.83 -6.91,12.99 -3.24,4 -4.86,5.66 -7.81,8.26 -1.17,1.06 -2.25,1.9 -3.17,2.56 5.3,0 60.21,0 61.21,0 0.74,-1.31 3.16,-5.6 4.6,-9.98 1.75,-5.29 3.11,-12.73 3.13,-12.81 l 0.29,-1.58 1.2,1.03 z m 56.53,-24.53 c -3.2,-0.04 -9.51,-0.41 -16.04,-2.4 -6,-1.8 -12.29,-5.41 -16.18,-8.19 -4.36,-3.16 -7.95,-6.6 -11.95,-11.52 -5.92,-7.25 -7.8,-14.73 -7.87,-15.06 l -0.02,-0.1 -0.16,-32.83 0.14,-37.75 -0.4,-46.23 0.26,-0.28 c 0.16,-0.17 4.14,-4.19 7.67,-6.54 3.84,-2.58 8.33,-4.92 12.97,-6.8 5.12,-2.03 10.72,-3.71 15.82,-4.74 4.67,-0.94 12.11,-1.62 17.71,-1.62 4.83,0 10.7,0.93 15.74,2.5 4.22,1.33 9.1,4.16 13.71,7.97 3.48,2.85 6.73,6.38 10.28,11.11 2.56,3.4 5.7,9.88 7.79,14.82 2.37,5.69 4.04,11.18 5.22,15.32 1.45,5.07 3.34,15.04 4.15,21.77 0.79,6.84 1.37,16.37 1.37,23.19 0,6.83 -1.2,18.71 -2.24,24.78 -1.19,6.78 -4.79,18.64 -7.02,23.11 -2.05,4.08 -6.05,9.86 -8.47,12.69 -2.03,2.39 -5.63,5.9 -11.36,9.24 -4.48,2.62 -9.88,4.71 -15.2,5.88 -4.85,1.07 -11.24,1.74 -15.92,1.68" /><path
         id="path28"
         style="fill:#231f20;fill-opacity:1;fill-rule:nonzero;stroke:none"
         d="m 4047.25,1372 c 0,0 22.42,10 29.2,13.01 -0.04,-3.73 -0.38,-29.08 -0.38,-29.08 l -0.43,-30.02 -0.25,-20.88 -0.21,-15.86 -0.14,-11.35 -0.2,-16.58 -0.09,-6.29 -0.49,-33.4 -0.06,-3.86 -0.49,-37.48 -0.41,-22.91 -0.12,-8.11 -0.54,-40.82 -0.2,-11.7 -0.27,-19.9 c 0.04,-4.67 0.23,-10.8 1.09,-16.62 l 0.29,-1.9 c 0.73,-5 1.25,-8.59 2.39,-12.83 1.44,-5.25 3.22,-9.82 5.17,-13.26 2.23,-3.97 5.88,-9.49 7.93,-12.5 -4.7,0 -57.95,0 -59.39,0 -1.1,1.74 -4.26,6.93 -5.39,9.24 -1.23,2.54 -3.89,9.2 -3.93,9.26 l -0.66,1.6 -1.39,-0.98 c -0.1,-0.08 -9.69,-6.8 -13.87,-9.35 -0.11,-0.08 -5.41,-3.19 -11.46,-5.84 -6.5,-2.88 -15.35,-5.08 -20.94,-6.12 -5.86,-1.05 -15.68,-1.78 -23.34,-1.72 -7.11,0.06 -17.73,1.68 -24.55,3.25 -6.68,1.56 -15.35,4.72 -20.64,7.55 -5.45,2.91 -13.66,8.52 -18.23,13.13 -4.57,4.63 -11.77,13.34 -15.11,18.24 -3.48,5.1 -7.6,12.62 -9.83,17.85 -2.3,5.49 -5.51,14.26 -6.79,19.46 -0.81,3.16 -3.4,13.92 -4.07,20.05 l -0.19,1.84 c -0.59,5.25 -1.27,11.8 -1.33,16.8 l -0.02,1.36 c -0.1,5.61 -0.2,13.27 0.08,18.25 0.25,5.49 1.64,16.13 2.52,21.93 0.95,6.13 3.61,18.2 5.35,24.4 2.03,7.12 5.72,15.91 6.8,18.45 1.83,4.26 6.19,12.74 8.47,16.66 2.52,4.34 6.72,11.08 8.66,13.81 2.12,2.91 8.53,10.72 11.28,13.81 2.89,3.22 8.05,7.81 11.45,10.47 3.59,2.79 9.39,6.03 12.87,7.97 3.59,2.01 11.11,5.04 16.15,6.52 5.3,1.56 13.26,3.07 17.11,3.44 3.77,0.39 9.69,0.43 15.86,0.13 6,-0.29 14.32,-1.73 18.28,-2.53 5.06,-1.02 9.4,-2.07 13.97,-3.85 4.7,-1.8 6.83,-2.81 11.81,-6.04 5.08,-3.26 10.1,-8.42 10.14,-8.47 l 2.34,-2.41 0.28,36.68 0.08,29.12 c 0,0 0.21,25.36 0.23,27 1.52,0.66 25.61,11.38 25.61,11.38 z m -79.75,-130.33 c -5.45,-0.14 -14.3,-2.44 -19.69,-5.14 -0.49,-0.29 -10.1,-6.11 -15.02,-11.01 -4.59,-4.61 -10.08,-12.97 -13.32,-20.33 -3.24,-7.35 -5.25,-15.41 -6.66,-21.62 -1.4,-6.16 -3.36,-17.88 -4.24,-30.61 -0.78,-11.97 -0.66,-15.55 -0.11,-24.12 0.54,-8.83 1.79,-13.63 3.51,-20.31 1.88,-7.15 4.65,-13.73 7.62,-18.07 l 0.23,-0.33 c 2.86,-4.1 4.89,-7.07 8.6,-10.41 3.96,-3.52 7.48,-5.78 12.58,-8.15 4.7,-2.14 8.88,-3.92 16.48,-5.21 5.76,-0.98 12.66,-1.37 18.87,-1.09 5.99,0.27 18.77,3 24.06,5.5 5.12,2.42 6.25,3.15 9.69,5.26 3.71,2.28 8.77,7.32 9,7.52 l 0.39,0.43 0,0.54 c 0,0.39 0,38.01 0.14,46 l 0.66,76.7 -0.11,0.29 c -0.18,0.41 -4.63,9.96 -10.51,15.86 -5.72,5.74 -14.69,11.86 -21.29,14.57 -6.8,2.77 -15.37,3.89 -20.88,3.73" /><path
         id="path30"
         style="fill:#231f20;fill-opacity:1;fill-rule:nonzero;stroke:none"
         d="m 890.359,1078.98 c -12.453,25.97 -27.218,56.77 -40.539,84.51 -19.324,40.27 -35.601,74.22 -37.386,78.01 -4.653,9.86 -29.793,63.18 -34.016,72.22 -14.895,31.97 -21.566,44.81 -21.566,44.81 l 79.023,0.21 c 0,0 8.613,-18.26 28.645,-62.58 18.609,-41.15 20.187,-44.31 36.589,-79.98 6.942,-15.37 7.871,-17.11 46.024,-101.54 0,0 30.523,59.14 48.277,94.12 17.75,35.02 34.75,67.11 51.65,100 16.9,32.83 26.3,50.63 26.3,50.63 l 60.72,0.11 c 0,0 -15.87,-30.66 -36,-69.63 -30.75,-59.51 -78.6,-152.69 -78.6,-152.69 0,0 -6.72,-13.67 -30.843,-60.92 -12.653,-25.82 -12.684,-25.58 -29.067,-56.91 l -40.566,0 c 0,0 -12.344,25.7 -28.645,59.63" /><path
         id="path32"
         style="fill:#231f20;fill-opacity:1;fill-rule:nonzero;stroke:none"
         d="m 1182.35,1211.26 c 1.81,5.82 4.43,10.7 8.53,15.76 4.16,5.12 9.59,9.24 12.36,11.04 3.93,2.54 10.6,5.62 14.55,6.66 4.76,1.29 13.2,1.93 24.77,-0.12 7.57,-1.33 15.03,-5.02 19.19,-7.69 5.91,-3.81 12.87,-10.84 16.2,-17.66 3.88,-7.93 2.45,-18.61 2.45,-18.61 l -99.96,0.29 c 0,0 0.24,4.98 1.91,10.33 z m -6.88,-43.96 159.15,0 c 0,0 0.78,17.54 -0.53,28.53 -1.35,11.29 -2.7,18.03 -6.99,28.79 -4.02,10.02 -10.58,21.7 -18.97,30.27 -6.19,6.31 -13.99,13.58 -23.14,18.95 -7.92,4.67 -16.55,8.63 -25.15,11.44 -7.7,2.52 -14.42,3.66 -23.55,4.32 -7.53,0.53 -15.91,-0.16 -25.96,-1.89 -7.8,-1.35 -15.47,-4.16 -23,-7.41 -7.28,-3.1 -11.31,-5.21 -20.31,-11.44 -7.8,-5.37 -18.22,-15.98 -24.49,-24.34 -6.05,-8.06 -11.03,-17.61 -15.33,-27.16 -5.01,-11.12 -7.8,-22.35 -9.69,-32.84 -1.58,-8.83 -2.68,-17.48 -3.23,-26.62 -0.53,-9.16 -0.53,-14.8 0,-24.74 0.44,-8.07 0.73,-12.17 1.89,-20.45 1.34,-9.69 3.36,-18.97 5.65,-25.84 1.88,-5.65 5.65,-15.06 9.95,-22.05 3.37,-5.47 7.39,-10.92 12.92,-16.16 4.84,-4.57 7.42,-7.4 14.53,-12.36 6.03,-4.22 8.87,-6.19 13.45,-8.34 6.43,-3.03 11.83,-5.53 17.75,-7.54 6.45,-2.21 12.38,-3.73 19.91,-5.12 6.6,-1.19 12.65,-1.6 19.1,-1.6 9.15,0 14.26,0.26 20.45,1.06 8.57,1.13 12.64,1.62 18.02,2.71 5.19,1.04 9.42,2.01 14.27,3.34 6.15,1.74 12.63,3.38 19.63,5.92 6.4,2.34 8.61,3.11 13.45,5.27 4.85,2.15 6.72,3.23 6.72,3.23 0,0 1.36,17.48 1.89,26.07 0.53,8.63 1.62,25.84 1.62,25.84 0,0 -3.64,-3.75 -11.78,-8.34 -6.17,-3.46 -13.95,-7.01 -23.04,-10.19 -7.94,-2.76 -13.23,-4.18 -18.99,-5.59 -7.88,-1.9 -13.99,-2.38 -21.41,-2.91 -6.18,-0.49 -13.42,0.02 -22.24,1.56 -7.19,1.29 -14.99,3.44 -20.21,5.98 -6.13,2.99 -12.79,7.87 -17.02,12.79 -4,4.63 -8.1,11.35 -10.61,19.3 -1.85,5.84 -4.86,15.1 -5.91,25.04 -0.57,5.43 -0.7,8.47 -0.9,15.17 -0.18,6.55 -0.09,10.71 0.38,16.35 0.46,5.27 1.72,11 1.72,11" /><path
         id="path34"
         style="fill:#231f20;fill-opacity:1;fill-rule:nonzero;stroke:none"
         d="m 1356.9,1251.69 101.53,104.49 0,-69.2 111.36,0 -22.85,-35.11 -87.98,-0.53 -1.06,-71.31 c 0,0 0.01,-33.1 -0.17,-41.01 -0.18,-8.25 0.27,-14.79 0.53,-23.52 0.15,-4.96 0.8,-9.22 2.38,-15.84 1.09,-4.53 3.11,-8.91 7.66,-15.06 2.98,-4.04 6.83,-6.76 11.09,-9.49 3.7,-2.4 8.46,-4.22 12.67,-5.57 4.89,-1.5 10.35,-2.6 14,-3.14 4.57,-0.72 7.13,-1.08 12.26,-1.25 4.58,-0.14 9.93,-0.35 14.05,0 4.59,0.39 5.27,0.35 9.48,1.07 4.22,0.71 6.55,1.02 9.49,1.74 3.51,0.9 5.61,1.58 5.61,1.58 l -20.89,-47.77 c 0,0 -11.17,-2.05 -17.32,-2.4 -6.15,-0.35 -12.6,-0.69 -18.75,-0.53 -8.58,0.25 -17.93,1.8 -21.66,2.38 -6.53,1.04 -12.88,2.83 -18.85,4.59 -4.15,1.23 -9.95,3.05 -16.51,6.15 -6.36,3.01 -12.26,6.47 -16.67,10.67 -5.27,5 -6.86,7.38 -11.27,13.75 -4.82,7.01 -8.74,17.42 -10.18,24.22 -1.72,8.16 -2.3,15.82 -2.57,24.06 -0.4,11.43 -0.24,31.27 -0.24,36.19 0,4.92 -0.17,48.15 -0.35,53.07 -0.17,4.92 -0.17,36.87 -0.17,41.6 0,4.75 -0.18,15.82 -0.18,15.82 l -44.44,0.35" /><path
         id="path36"
         style="fill:#231f20;fill-opacity:1;fill-rule:nonzero;stroke:none"
         d="m 1840.39,1286.98 61.04,0 c 0,0 3.71,-4.27 6.7,-8.9 2.98,-4.65 5.85,-11.45 5.85,-11.45 2.44,2.21 11.25,10.67 26.9,17.01 10.31,4.18 20.85,6.25 29.83,6.98 10.5,0.82 15.31,0.9 23.43,0.54 9.75,-0.43 16.2,-1.52 23.99,-3.51 9.35,-2.42 17.51,-5.78 24.37,-10.55 7.23,-5.1 11.01,-8.79 15.62,-15.62 6.2,-9.22 7.65,-15.47 8.77,-20.36 1.81,-7.94 2.28,-13.67 2.65,-23.26 0.33,-8.65 0.31,-25.72 0.31,-33.69 0,-7.95 -0.66,-45.41 -0.66,-54.02 0,-8.63 -0.33,-28.19 -0.33,-36.49 0,-8.28 -0.54,-18.28 0.12,-26.91 0.66,-8.61 1.37,-13.13 2.51,-17.83 1.13,-4.73 1.88,-7.4 3.63,-12.01 1.11,-2.91 2.22,-5.28 4.59,-9.48 2.8,-4.9 4.88,-7.65 4.88,-7.65 l -63.14,-0.06 c 0,0 -4.88,6.48 -6.97,12.73 -2.15,6.45 -2.99,12.8 -2.99,21.1 0,7.61 0,73.26 0,82.56 0,9.29 -0.04,39.27 0.06,46.89 0.11,7.68 -0.01,17.93 -1.67,26.19 -1.66,8.3 -2.58,11.39 -5.58,17.03 -2.97,5.65 -7.94,10.88 -14.91,14.2 -6.96,3.32 -15.61,4.16 -21.33,3.79 -8.5,-0.59 -18.12,-2.52 -25.93,-5.74 -7.4,-3.03 -9.61,-4.08 -15.74,-8.5 -3.48,-2.52 -5.93,-4.94 -7.54,-6.68 -1.53,-1.7 -3.61,-4.04 -5.16,-6.62 0,0 0,-48.06 0,-55.02 0,-6.97 -0.35,-46.09 -0.35,-52.4 0,-5.94 -0.3,-42.17 -0.32,-48.73 -0.03,-8.61 -0.29,-23.69 -1,-40.14 l -55.6,0 c 0.32,15.9 0.32,15.67 0.42,23.36 0.13,11.17 0.27,32.76 0.27,45.86 0,10.63 0.56,44.61 0.56,51.74 0,6.95 0.14,25.88 0.14,34.82 0,8.95 0.05,40.86 0.14,47.82 0.14,11.01 0.7,22.87 -0.84,31.79 -1.26,7.31 -3.33,13.87 -6.97,19.92 -4.35,7.25 -9.75,11.29 -9.75,11.29" /><path
         id="path38"
         style="fill:#231f20;fill-opacity:1;fill-rule:nonzero;stroke:none"
         d="m 4204.24,1211.48 c 1.81,5.82 4.43,10.7 8.55,15.76 4.14,5.13 9.57,9.24 12.35,11.03 3.94,2.54 10.58,5.63 14.53,6.66 4.78,1.29 13.22,1.94 24.78,-0.11 7.58,-1.33 15.04,-5 19.18,-7.7 5.92,-3.81 12.89,-10.84 16.23,-17.66 3.89,-7.93 2.43,-18.61 2.43,-18.61 l -99.97,0.29 c 0,0 0.26,4.97 1.92,10.34 z m -6.86,-43.95 159.14,0 c 0,0 0.78,17.52 -0.52,28.52 -1.35,11.31 -2.7,18 -7,28.79 -4.04,10.02 -10.58,21.68 -18.98,30.27 -6.17,6.31 -14,13.59 -23.13,18.94 -7.91,4.65 -16.56,8.62 -25.17,11.45 -7.68,2.52 -14.4,3.65 -23.54,4.3 -7.54,0.54 -15.89,-0.16 -25.95,-1.9 -7.8,-1.31 -15.49,-4.16 -22.99,-7.38 -7.29,-3.11 -11.31,-5.24 -20.33,-11.43 -7.8,-5.39 -18.19,-16.01 -24.48,-24.35 -6.05,-8.07 -11.03,-17.62 -15.33,-27.17 -5.02,-11.11 -7.79,-22.34 -9.69,-32.83 -1.58,-8.81 -2.71,-17.48 -3.24,-26.62 -0.53,-9.16 -0.53,-14.81 0,-24.75 0.47,-8.07 0.74,-12.15 1.9,-20.45 1.34,-9.69 3.38,-18.96 5.64,-25.84 1.9,-5.64 5.65,-15.06 9.96,-22.05 3.36,-5.47 7.38,-10.92 12.91,-16.15 4.85,-4.57 7.44,-7.4 14.53,-12.36 6.06,-4.24 8.89,-6.2 13.46,-8.34 6.43,-3.03 11.84,-5.51 17.75,-7.52 6.45,-2.21 12.37,-3.75 19.91,-5.14 6.58,-1.21 12.63,-1.62 19.1,-1.62 9.14,0 14.26,0.29 20.45,1.07 8.57,1.12 12.65,1.64 18.02,2.72 5.2,1.03 9.42,2.01 14.24,3.34 6.17,1.72 12.68,3.38 19.67,5.93 6.39,2.33 8.59,3.09 13.44,5.24 4.82,2.17 6.72,3.22 6.72,3.22 0,0 1.34,17.5 1.91,26.11 0.53,8.62 1.58,25.83 1.58,25.83 0,0 -3.61,-3.77 -11.75,-8.34 -6.18,-3.48 -13.95,-7.02 -23.05,-10.18 -7.95,-2.79 -13.22,-4.22 -19.01,-5.61 -7.87,-1.91 -13.98,-2.36 -21.38,-2.91 -6.19,-0.45 -13.46,0.02 -22.25,1.59 -7.19,1.27 -14.98,3.41 -20.21,5.97 -6.14,2.99 -12.8,7.85 -17.03,12.76 -4.01,4.66 -8.09,11.36 -10.61,19.31 -1.84,5.84 -4.84,15.1 -5.9,25.04 -0.58,5.39 -0.7,8.46 -0.9,15.2 -0.17,6.52 -0.09,10.66 0.37,16.33 0.47,5.27 1.74,11.01 1.74,11.01" /><path
         id="path40"
         style="fill:#231f20;fill-opacity:1;fill-rule:nonzero;stroke:none"
         d="m 4382.89,1247.06 101.5,104.51 0,-69.21 111.35,0 -22.83,-35.12 -87.99,-0.53 -1.05,-71.31 c 0,0 0,-33.1 -0.16,-41.03 -0.19,-8.21 0.27,-14.79 0.53,-23.5 0.15,-4.96 0.8,-9.24 2.36,-15.84 1.1,-4.55 3.13,-8.91 7.68,-15.04 2.99,-4.04 6.83,-6.78 11.09,-9.53 3.71,-2.36 8.44,-4.22 12.68,-5.53 4.86,-1.54 10.33,-2.61 13.98,-3.18 4.57,-0.7 7.13,-1.06 12.27,-1.21 4.57,-0.16 9.92,-0.37 14.04,0 4.57,0.39 5.27,0.35 9.49,1.03 4.2,0.71 6.55,1.02 9.47,1.76 3.52,0.88 5.63,1.58 5.63,1.58 l -20.9,-47.77 c 0,0 -11.17,-2.05 -17.32,-2.38 -6.14,-0.37 -12.58,-0.73 -18.75,-0.55 -8.58,0.25 -17.91,1.8 -21.66,2.38 -6.55,1.04 -12.87,2.84 -18.85,4.59 -4.16,1.21 -9.96,3.05 -16.5,6.14 -6.37,3 -12.25,6.48 -16.66,10.66 -5.3,5.02 -6.88,7.38 -11.29,13.77 -4.81,6.99 -8.73,17.42 -10.18,24.24 -1.74,8.14 -2.3,15.8 -2.58,24.06 -0.39,11.41 -0.23,31.27 -0.23,36.19 0,4.92 -0.18,48.11 -0.35,53.03 -0.16,4.92 -0.16,36.89 -0.16,41.62 0,4.75 -0.2,15.82 -0.2,15.82 l -44.41,0.35" /><path
         id="path42"
         style="fill:#231f20;fill-opacity:1;fill-rule:nonzero;stroke:none"
         d="m 3383.88,1285.66 57.64,0 c 0,0 5.54,-5.69 8.38,-10.36 2.85,-4.68 4.21,-8.26 5.4,-11.66 1.5,-4.2 0.96,-2.73 2.55,-8.36 0,0 6.16,5.69 9.81,8.5 4,3.09 8.24,5.94 12.92,8.83 4.81,2.93 7.09,4.06 11.73,6.13 4.87,2.19 8.99,3.58 13.54,4.77 4.14,1.07 6.89,1.62 11.25,2.07 4.78,0.49 9.13,0.74 13.23,0.6 4.21,-0.15 7.44,-0.35 10.84,-0.82 6.04,-0.86 10.15,-1.97 15.69,-3.61 5.87,-1.76 8.08,-2.44 14.51,-4.75 4.98,-1.79 10.43,-4.14 10.43,-4.14 l -25.1,-52.87 c 0,0 -3.38,1.78 -8.91,3.71 -6.01,2.09 -10.34,3.32 -16.46,4.51 -6.47,1.27 -9.89,1.74 -16.95,2.13 -5.89,0.34 -11.54,0.47 -19.14,-0.72 -6.84,-1.05 -12.8,-3.32 -17.49,-6.01 -4.56,-2.62 -9.12,-5.84 -12.07,-8.95 -2.85,-2.97 -4.2,-4.38 -6.26,-7.54 -2.09,-3.18 -2.98,-5.53 -2.98,-5.53 0,0 0.28,-26.97 0.28,-30.11 0,-3.11 -0.11,-17.04 -0.11,-26.7 0,-9.63 -0.31,-30.39 -0.45,-35.22 -0.13,-4.82 -0.44,-41.03 -0.44,-46.56 0,-5.55 -0.12,-19.32 -0.28,-24.59 -0.14,-5.25 -0.46,-19.71 -0.46,-19.71 l -55.41,0.02 c 0,0 0.19,13.69 0.26,22.23 0.07,7.95 0.23,16.37 0.23,24.59 0,8.24 0.15,17.62 0.29,29.41 0.18,14.89 0.28,36.58 0.35,41.82 0.13,10.53 0.43,40.59 0.45,44.02 0.08,7.6 0.47,43.24 0.47,49.92 0.02,6.86 0.23,14.03 0.08,17.99 -0.14,3.99 0.11,7.17 -1,11.9 -0.87,3.65 -2.73,7.54 -5.07,11.19 -1.75,2.77 -3.27,4.78 -5.46,7.28 -1.54,1.72 -2.81,3.07 -6.29,6.59" /><path
         id="path44"
         style="fill:#231f20;fill-opacity:1;fill-rule:nonzero;stroke:none"
         d="m 2279.99,1286.81 c 0,0 -12.11,4.51 -27.53,5.68 -18.26,1.39 -27.81,-0.15 -35.1,-1.38 0,0 -12.82,-2.47 -22.76,-6.55 -10.26,-4.24 -14.24,-7.87 -19.03,-11.48 -6.56,-5.74 -10.16,-9.65 -13.28,-13.93 -2.5,-3.44 -4.18,-6.46 -5.77,-9.86 -1.03,-2.19 -3.43,-7.77 -4.77,-13.63 -1.1,-4.77 -1.69,-9.14 -1.9,-13.4 -0.19,-4.28 0.03,-7.8 0.28,-11.1 0.28,-3.65 1.58,-9.29 2.56,-12.5 1.05,-3.43 2.78,-7.61 4.36,-10.78 1.46,-2.93 2.98,-5.45 5.05,-8.45 1.72,-2.5 4.55,-6.16 6.95,-9.16 1.93,-2.43 4.4,-5.16 6.18,-7.15 2.17,-2.41 4.91,-5.26 7.2,-7.54 2.87,-2.87 5.59,-5.3 9.38,-8.58 3.08,-2.67 7.2,-6.29 10.24,-8.82 2.64,-2.25 3.73,-3.17 6.66,-5.79 3.37,-3.02 4.86,-4.25 6.96,-6.13 2.57,-2.28 4.67,-4.61 6.85,-6.91 2.19,-2.29 3.57,-4.12 5.47,-7.11 1.69,-2.7 2.09,-3.62 3.45,-6.8 1.17,-2.75 1.9,-5.62 2.29,-8.2 0.41,-2.83 0.48,-5.2 0.41,-7.7 -0.09,-3.16 -0.19,-4.67 -0.62,-7.05 -0.5,-2.67 -1.43,-5.1 -2.77,-7.46 -1.17,-2.07 -2.17,-3.48 -3.74,-5.25 -1.29,-1.49 -3.17,-3.21 -5.66,-4.98 -2.49,-1.78 -4.92,-3.32 -7.2,-4.36 -2.38,-1.09 -6.22,-2.48 -8.91,-3.18 -2.72,-0.69 -5.54,-1.21 -8.33,-1.51 -2.78,-0.31 -7.02,-0.45 -10.27,-0.5 -3.48,-0.06 -9.84,0.46 -13.97,0.97 -3.57,0.43 -9.41,1.58 -12.71,2.5 -3.9,1.04 -8.79,2.58 -12.25,3.99 -4.01,1.68 -6.39,2.87 -9.14,4.31 -2.61,1.37 -4.26,2.25 -9.51,5.26 -3.69,2.11 -6.03,3.86 -6.03,3.86 0,0 -0.31,-19.53 -0.31,-27.26 0,-7.76 -0.4,-25.31 -0.4,-25.31 0,0 6.44,-2.46 11.54,-3.89 6.38,-1.82 10.28,-2.52 14.06,-3.2 4.57,-0.82 7.32,-1.29 11.2,-1.61 4.42,-0.35 8.29,-0.66 12.32,-0.87 5.7,-0.32 7.4,-0.32 10.84,-0.41 2.98,-0.12 5.82,-0.06 10.09,0.03 4.17,0.12 7.24,0.38 10.72,0.84 4.08,0.53 6.53,1 10.58,1.94 4.41,1.01 6.71,1.74 9.88,2.91 3.29,1.19 5.34,1.93 9.14,3.51 3.65,1.53 5.78,2.56 9.26,4.38 3.47,1.76 5.53,3.07 8.16,4.69 2.69,1.66 6.27,4.08 8.89,6.25 3.08,2.54 5.95,5.19 8.16,7.55 2.52,2.74 5.69,6.45 7.63,8.93 2.08,2.68 4.16,6.17 6.23,10.31 0.9,1.82 3.04,6.16 4.73,11.1 1.25,3.65 1.87,6.46 2.68,10.43 0.74,3.57 1.19,6.36 1.6,10.74 0.39,4.37 0.5,6.21 0.46,9.51 -0.07,4.36 -0.08,7.46 -0.98,11.9 -1.41,6.87 -3.37,11.81 -4.03,13.45 -1.49,3.67 -2.61,5.82 -4.61,9.2 -1.99,3.38 -3.94,6.1 -6.36,8.99 -2.31,2.79 -4.65,5.41 -6.83,7.67 -2.2,2.29 -5.87,6.02 -9.07,8.99 -2.97,2.79 -7.3,6.38 -9.88,8.59 -2.58,2.19 -7.06,5.94 -9.75,8.22 -2.69,2.31 -8.57,7.17 -11.55,9.96 -2.98,2.78 -6.69,6.7 -9.08,9.57 -3.15,3.83 -5.64,8.19 -6.42,9.87 -1.32,2.85 -1.95,4.96 -2.25,8.4 -0.22,2.44 -0.15,4.29 0.25,7.87 0.29,2.69 0.89,5.13 2.5,8.65 1.57,3.36 4.44,6.31 7.9,8.75 3.08,2.19 5.12,3.4 9.01,4.9 4.42,1.7 5.87,2.07 9.14,2.74 2.36,0.5 6.62,1.01 9.89,1.13 2.12,0.1 4.76,-0.12 8.13,-0.49 3,-0.33 6.62,-1.07 9.89,-1.76 3.29,-0.7 5.99,-1.38 9.72,-2.62 4.17,-1.4 6.37,-2.38 9.54,-3.76 3.18,-1.41 9.35,-5.4 9.35,-5.4 -2.69,7.27 -6.13,17.82 -7.75,22.68 -1.6,4.77 -7.26,22.6 -7.26,22.6" /><path
         id="path46"
         style="fill:#231f20;fill-opacity:1;fill-rule:nonzero;stroke:none"
         d="m 3323.9,1287.08 c 0,0 -12.09,4.47 -27.52,5.65 -18.26,1.4 -27.81,-0.14 -35.11,-1.37 0,0 -12.8,-2.46 -22.73,-6.56 -10.28,-4.22 -14.26,-7.87 -19.04,-11.49 -6.59,-5.74 -10.16,-9.61 -13.29,-13.92 -2.5,-3.44 -4.18,-6.47 -5.78,-9.85 -1.04,-2.2 -3.43,-7.75 -4.76,-13.61 -1.09,-4.79 -1.7,-9.14 -1.9,-13.42 -0.17,-4.3 0.04,-7.81 0.29,-11.09 0.28,-3.65 1.59,-9.32 2.57,-12.52 1.04,-3.42 2.76,-7.6 4.33,-10.8 1.46,-2.89 2.99,-5.41 5.08,-8.42 1.71,-2.52 4.56,-6.15 6.92,-9.16 1.92,-2.42 4.4,-5.16 6.2,-7.17 2.17,-2.4 4.89,-5.23 7.19,-7.52 2.87,-2.89 5.61,-5.29 9.37,-8.57 3.09,-2.68 7.22,-6.29 10.27,-8.85 2.62,-2.21 3.7,-3.13 6.65,-5.76 3.37,-3.03 4.86,-4.28 6.97,-6.15 2.55,-2.25 4.65,-4.63 6.84,-6.92 2.18,-2.26 3.56,-4.12 5.45,-7.11 1.69,-2.67 2.11,-3.57 3.47,-6.78 1.17,-2.75 1.9,-5.62 2.27,-8.22 0.42,-2.85 0.49,-5.17 0.42,-7.67 -0.08,-3.19 -0.18,-4.69 -0.63,-7.07 -0.49,-2.68 -1.42,-5.1 -2.76,-7.45 -1.19,-2.09 -2.17,-3.47 -3.72,-5.27 -1.3,-1.48 -3.19,-3.18 -5.68,-4.96 -2.49,-1.8 -4.91,-3.34 -7.19,-4.36 -2.4,-1.09 -6.21,-2.5 -8.93,-3.18 -2.69,-0.7 -5.54,-1.21 -8.33,-1.5 -2.76,-0.32 -7.01,-0.45 -10.26,-0.51 -3.48,-0.06 -9.84,0.47 -13.97,0.98 -3.57,0.43 -9.4,1.58 -12.74,2.48 -3.89,1.05 -8.73,2.57 -12.22,4.02 -4,1.64 -6.38,2.87 -9.13,4.3 -2.63,1.34 -4.26,2.24 -9.52,5.25 -3.68,2.09 -6.04,3.85 -6.04,3.85 0,0 -0.29,-19.49 -0.29,-27.25 0,-7.75 -0.4,-25.33 -0.4,-25.33 0,0 6.44,-2.46 11.53,-3.89 6.4,-1.79 10.29,-2.52 14.06,-3.18 4.57,-0.86 7.32,-1.31 11.21,-1.6 4.41,-0.35 8.3,-0.65 12.3,-0.88 5.71,-0.33 7.4,-0.33 10.84,-0.45 2.99,-0.08 5.83,-0.02 10.1,0.08 4.19,0.1 7.25,0.37 10.71,0.84 4.1,0.53 6.54,0.99 10.6,1.93 4.4,1.02 6.7,1.74 9.88,2.91 3.29,1.17 5.34,1.94 9.12,3.52 3.67,1.52 5.77,2.58 9.27,4.35 3.48,1.78 5.53,3.09 8.16,4.71 2.7,1.64 6.27,4.08 8.91,6.25 3.05,2.52 5.94,5.18 8.15,7.56 2.5,2.71 5.7,6.44 7.63,8.92 2.05,2.66 4.14,6.18 6.21,10.32 0.92,1.81 3.05,6.15 4.74,11.07 1.26,3.67 1.87,6.49 2.68,10.43 0.76,3.59 1.2,6.39 1.61,10.74 0.39,4.4 0.48,6.23 0.42,9.51 -0.03,4.36 -0.03,7.47 -0.95,11.9 -1.4,6.89 -3.35,11.84 -4.03,13.48 -1.48,3.67 -2.61,5.82 -4.61,9.2 -1.97,3.37 -3.94,6.09 -6.36,9 -2.3,2.75 -4.65,5.37 -6.85,7.66 -2.18,2.3 -5.85,6.01 -9.05,8.98 -2.99,2.77 -7.3,6.39 -9.88,8.59 -2.6,2.17 -7.08,5.92 -9.75,8.23 -2.69,2.26 -8.56,7.14 -11.55,9.96 -2.99,2.77 -6.7,6.7 -9.06,9.57 -3.18,3.83 -5.65,8.18 -6.44,9.86 -1.32,2.83 -1.93,4.96 -2.26,8.4 -0.18,2.42 -0.12,4.3 0.27,7.87 0.29,2.7 0.87,5.14 2.52,8.65 1.54,3.36 4.41,6.31 7.85,8.75 3.11,2.19 5.15,3.38 9.03,4.89 4.42,1.71 5.87,2.07 9.13,2.75 2.39,0.51 6.64,1.01 9.91,1.13 2.1,0.08 4.74,-0.12 8.12,-0.51 3.01,-0.33 6.6,-1.03 9.88,-1.73 3.29,-0.71 6,-1.39 9.74,-2.64 4.17,-1.39 6.36,-2.38 9.53,-3.77 3.18,-1.39 9.37,-5.35 9.37,-5.35 -2.72,7.22 -6.14,17.79 -7.77,22.63 -1.6,4.79 -7.27,22.64 -7.27,22.64" /><path
         id="path48"
         style="fill:#231f20;fill-opacity:1;fill-rule:nonzero;stroke:none"
         d="m 2356.85,1362.34 57.61,21.87 c -0.04,-65.84 -0.16,-74.69 0.05,-92.83 0.35,-32.17 -0.2,-65.35 -0.03,-80.49 0.21,-20.14 -0.22,-76.91 -0.22,-89.37 0,-12.17 -0.05,-41.35 -0.33,-56.68 -0.29,-15.32 -0.33,-45.59 -0.33,-45.59 l -56.47,0 c 0,0 -0.28,16.46 0,28.67 0.29,12.19 -0.28,29.22 0,48.79 0.29,19.61 0,51.95 0,75.49 0,23.57 -0.11,60 -0.11,60 0,0 -0.12,37.42 -0.12,57.56 0,20.78 -0.05,72.58 -0.05,72.58" /><path
         id="path50"
         style="fill:#231f20;fill-opacity:1;fill-rule:nonzero;stroke:none"
         d="m 2491.72,1287.43 97.83,0 c 0,0 -2.84,-1.07 -7.95,-5.04 -5.11,-3.98 -9.36,-9.45 -13.34,-13.69 -1.74,-1.89 -21.17,-24.14 -34.82,-39.78 -10.9,-12.48 -22.26,-25.98 -29.82,-34.42 -7.37,-8.24 -12.24,-14.41 -12.24,-14.41 0,0 8.35,-11.54 12.9,-18.36 4.53,-6.82 18.89,-26.93 25.23,-35.94 6.74,-9.55 14.74,-20.64 21.62,-30.8 6.29,-9.28 13.66,-19.35 19.01,-26.99 5.14,-7.36 6.01,-8.69 13.99,-19.77 5.9,-8.18 9.06,-12.89 12.67,-18.14 4.07,-5.92 7.79,-10.84 7.79,-10.84 l -70.05,0 c 0,0 -1.87,2.11 -4.15,5.49 -1.73,2.54 -17.7,26.11 -24.26,35.95 -3.73,5.55 -18.68,27.58 -29.6,43.36 -11.26,16.27 -23.6,34.4 -28.84,42.17 -3.89,5.72 -9.78,12.7 -15.52,16.6 -4.81,3.29 -9.9,4.81 -9.9,4.81 0,0 7.23,9.41 14.89,19.06 7.66,9.65 20.47,25.84 27.46,34.69 8.35,10.53 13.8,17.71 18.44,23.32 4.64,5.62 6.96,8.36 10.63,12.95 2.23,2.77 4.5,7.87 4.61,14.31 0.06,3.99 -0.99,8.21 -3.15,11.14 -1.44,1.97 -3.43,4.33 -3.43,4.33" /><path
         id="path52"
         style="fill:#231f20;fill-opacity:1;fill-rule:nonzero;stroke:none"
         d="m 2648.33,1270.71 c 0,0 9.85,5 14.48,7.06 5.39,2.44 12.87,5.17 21.09,7.67 8.13,2.46 14.98,3.99 21.08,4.9 8.2,1.23 13.16,1.51 20.02,1.51 6.81,0 11.91,-0.63 18.98,-1.57 7.06,-0.89 10.54,-1.44 17.57,-3.08 6.5,-1.54 10.12,-2.81 15.36,-4.98 5.4,-2.25 7.89,-3.6 13.22,-7.05 5.04,-3.3 7.42,-5.35 10.55,-8.19 3.11,-2.83 8.63,-9.37 11.2,-13.61 2.54,-4.26 6.31,-12.64 7.75,-19.43 1.4,-6.8 1.71,-13.01 1.93,-19.48 0.2,-6.23 0.33,-32.07 0.33,-39.43 0,-7.36 0.27,-34.41 0.31,-40.51 0.06,-5.66 0,-15.52 0,-22.61 0,-7.07 0.06,-18.15 0.06,-25.73 0,-9.68 -0.16,-13.71 -0.06,-18.08 0,0 0.57,-6.82 1.34,-11.53 0.71,-4.53 1.45,-6.79 2.98,-10.93 1.35,-3.73 3.32,-7.43 5.08,-10.39 1.75,-2.97 3.09,-4.95 4.85,-7.13 1.94,-2.43 3,-3.56 5.21,-5.76 2.19,-2.19 3.75,-3.42 3.75,-3.42 l -61.74,-0.08 c 0,0 -3.98,5 -5.78,7.91 -1.45,2.4 -5.16,8.4 -5.16,8.4 0,0 -6.87,-3.32 -13.36,-6.14 -5.21,-2.26 -10.67,-4.37 -17.42,-6.93 -3.48,-1.31 -8.17,-2.89 -14.5,-4.2 -7.49,-1.52 -13.55,-1.93 -18.71,-1.93 -4.26,0 -9.18,0.29 -14.68,1.13 -4.87,0.74 -10.84,1.95 -16.44,3.71 -5.16,1.62 -9.74,3.56 -14.33,6.12 -4.27,2.36 -9.38,6.19 -12.28,8.86 -4.24,3.95 -7.88,8.07 -10.96,12.42 -2.38,3.38 -4.64,7.8 -6.44,12.41 -1.33,3.43 -2.83,7.69 -3.75,12.26 -0.55,2.7 -1.05,5.88 -1.24,10.16 -0.11,2.24 -0.08,5.29 0.55,11.23 0.41,4.08 1.2,7.46 2.34,11.31 0.88,2.95 1.64,5.49 4.09,10.82 1.88,4.14 3.59,7.19 5.62,10.47 2.06,3.32 3.22,5.13 5.14,7.63 1.97,2.58 3.21,4.2 5.46,6.68 1.96,2.11 3.3,3.3 5.5,5.35 2.31,2.17 4.13,3.54 6.82,5.55 2.83,2.11 6.99,4.81 10.85,6.97 2.63,1.49 5.55,2.93 8.93,4.48 3.34,1.56 4.32,1.95 9.13,4.02 4.77,2.05 8.96,3.83 13.04,5.55 4.28,1.83 7.81,3.34 12.32,5.13 4.33,1.74 5.69,2.23 9.18,3.71 3.79,1.63 8.62,3.58 12.49,5.34 3.46,1.6 6.38,3.12 10.08,5.33 3.69,2.19 5.14,3.3 7.87,5.92 3.29,3.16 4.94,6.31 6.17,9.59 1.24,3.3 2.2,9.31 1.91,12.75 -0.25,3.44 -0.57,6.21 -2.13,9.55 -1.55,3.34 -3.96,6.7 -7.39,9.57 -3.43,2.89 -6.75,4.88 -10.17,6.25 -3.43,1.37 -6.68,2.46 -11.06,3.01 -4.4,0.55 -6.43,0.57 -10.74,0.49 -4.1,-0.1 -6.44,-0.26 -9.68,-0.65 -3.17,-0.35 -6.14,-0.78 -9.98,-1.6 -3.83,-0.82 -9.88,-2.32 -13.89,-3.57 -3.37,-1.02 -4.02,-1.23 -7.5,-2.48 -3.15,-1.12 -8.82,-3.36 -12.44,-4.92 -3.66,-1.61 -6.86,-3.01 -10.68,-4.99 -3.87,-1.99 -7.34,-4.08 -9.83,-5.56 -2.39,-1.41 -5.54,-3.34 -7.45,-4.69 -1.78,-1.25 -3.27,-2.38 -3.27,-2.38 l 8.43,51.81 z m 117.53,-112.91 c 0,0 -6.99,-2.73 -13.73,-5.62 -6.71,-2.87 -14.66,-6.45 -20.56,-9.32 -5.9,-2.87 -13.43,-6.58 -18.23,-9.72 -4.81,-3.17 -8.22,-6.18 -12.21,-9.87 -3.96,-3.71 -6.99,-8.92 -8.5,-11.68 -2.28,-4.12 -3.44,-7.52 -4.26,-11.77 -0.83,-4.26 -0.67,-6.72 -0.27,-10.41 0.42,-3.73 2.19,-8.66 3.97,-11.53 1.79,-2.87 3.58,-5.06 6.59,-7.54 3.24,-2.67 4.52,-3.57 8.51,-5.21 3.98,-1.64 7.13,-2.48 11.37,-2.87 4.26,-0.43 7.81,-0.43 11.79,-0.14 3.97,0.27 7.39,0.82 11.38,1.91 3.98,1.1 5.76,1.92 8.92,3.29 3.16,1.36 5.21,2.75 7.95,4.12 2.76,1.38 7.4,4.94 7.4,4.94 0,0 -0.12,36.87 -0.12,42.36 0,5.49 0.12,22.35 0.12,26.74 0,4.38 -0.12,12.32 -0.12,12.32" /><path
         id="path54"
         style="fill:#231f20;fill-opacity:1;fill-rule:nonzero;stroke:none"
         d="m 3618.38,1269.05 c 0,0 15.25,5.63 22.99,7.72 7.75,2.13 23.94,6.11 34.27,7.52 10.34,1.4 15.73,2.13 25.32,2.36 9.67,0.22 14.12,-0.23 22.58,-0.96 8.43,-0.7 10.35,-1.4 15.5,-2.83 5.12,-1.38 9.73,-3 15.67,-5.72 5.93,-2.71 15.8,-9.84 20.43,-14.47 4.61,-4.63 8.12,-10.16 9.65,-16.29 1.5,-6.13 2.3,-13.07 2.5,-19.81 0.19,-6.71 -0.08,-23.53 -0.08,-23.53 0,0 0.08,-27.52 0.08,-31.25 0,-3.71 0.19,-38.18 0.19,-49.86 0,-11.65 0.2,-37.09 0.2,-43.62 0,-6.56 0.11,-11.78 0.62,-16.7 0.51,-4.92 1.6,-8.94 3.11,-13.16 1.52,-4.24 2.11,-5.65 4.22,-10.37 2.12,-4.73 3.82,-7.42 5.82,-10.45 2.03,-3.01 8.28,-9.04 8.28,-9.04 l -61.33,0 c 0,0 -2.33,3.2 -4.14,6.62 -1.8,3.43 -2.8,6.13 -2.8,6.13 0,0 -12.69,-5.02 -17.61,-6.62 -4.94,-1.62 -11.66,-3.42 -19.01,-5.02 -7.32,-1.62 -18.1,-2.83 -25.04,-3.11 -6.91,-0.33 -16.26,1 -23.59,2.39 -7.34,1.4 -20.21,5.33 -25.25,7.73 -5.02,2.42 -11.57,7.46 -16.27,12.48 -4.75,5.02 -9.67,12.36 -11.76,17.6 -2.11,5.21 -3.73,12.97 -4.04,17.69 -0.3,4.73 -0.3,13.77 0.41,18.09 0.7,4.32 2.52,12.36 4.43,16.5 1.91,4.12 4.22,8.64 6.84,11.84 2.59,3.24 6.62,7.85 9.96,10.86 3.3,3.03 5.41,5.04 10.43,8.46 5.04,3.41 8.45,5.93 14.18,9.45 5.74,3.51 11.07,6.44 15.58,8.94 4.53,2.52 8.24,4.42 17.7,9.46 9.43,5.02 12.46,6.81 18.69,10.74 6.23,3.93 11.05,7.23 15.08,10.18 4.02,2.91 10.95,8.94 13.3,12.03 2.28,3.12 5,8.36 5.51,12.38 0.5,4.02 -0.12,8.46 -1.43,12.48 -1.31,4 -4,9.43 -6.93,11.74 -2.93,2.32 -8.34,4.94 -11.86,5.94 -3.51,1.01 -13.98,2.12 -18.59,2.3 -4.63,0.2 -11.76,-0.29 -16.19,-0.9 -4.44,-0.6 -9.24,-1.29 -13.17,-2.2 -3.92,-0.92 -12.67,-3.01 -17.5,-4.54 -4.82,-1.5 -9.04,-2.81 -13.65,-4.72 -4.65,-1.9 -8.26,-3.32 -11.47,-4.83 -3.22,-1.5 -13.47,-7.54 -13.47,-7.54 0,0 7.75,31.88 8.53,35.2 0.63,2.52 3.11,12.71 3.11,12.71 z m 111.48,-115.66 c 0,0 -10.64,-5.12 -16.99,-8.63 -6.31,-3.52 -16.46,-8.97 -22.4,-12.56 -5.94,-3.63 -12.46,-9.04 -16.09,-12.68 -3.6,-3.63 -7.33,-8.14 -9.95,-13.47 -2.59,-5.34 -4.22,-11.06 -4.51,-13.87 -0.31,-2.81 0,-7.56 1.12,-10.86 1.09,-3.32 2.4,-6.23 4.19,-9.26 1.82,-3.01 4.03,-4.7 5.84,-6.13 1.82,-1.41 4.42,-3.11 7.43,-4.41 3.02,-1.31 6.25,-2.21 10.56,-2.52 4.32,-0.3 8.56,-0.3 11.49,-0.2 2.89,0.1 7.71,0.8 10.33,1.5 2.64,0.71 7.03,1.82 9.67,2.91 2.59,1.12 9.31,4.32 9.31,4.32 0,0 0.24,9.57 0.24,13.89 0,4.31 -0.12,28.34 -0.12,30.04 0,1.73 -0.12,18 -0.12,22.85 0,4.8 0,19.08 0,19.08" /><path
         id="path56"
         style="fill:#231f20;fill-opacity:1;fill-rule:nonzero;stroke:none"
         d="m 3755.63,1352.75 c 0,-16.39 -22.64,-29.69 -50.61,-29.69 -27.95,0 -50.61,13.3 -50.61,29.69 0,16.38 22.66,29.68 50.61,29.68 27.97,0 50.61,-13.3 50.61,-29.68 z m -50.59,11.15 c -11.04,0 -19.98,-5 -19.98,-11.15 0,-6.16 8.94,-11.16 19.98,-11.16 11.01,0 19.94,5 19.94,11.16 0,6.15 -8.93,11.15 -19.94,11.15" /></g></g></svg>