<?xml version="1.0" encoding="utf-8"?>
<!-- Generator: Adobe Illustrator 18.0.0, SVG Export Plug-In . SVG Version: 6.00 Build 0)  -->
<!DOCTYPE svg PUBLIC "-//W3C//DTD SVG 1.1//EN" "http://www.w3.org/Graphics/SVG/1.1/DTD/svg11.dtd">
<svg version="1.1" id="Layer_1" xmlns="http://www.w3.org/2000/svg" xmlns:xlink="http://www.w3.org/1999/xlink" x="0px" y="0px"
	 viewBox="0 0 612 792" enable-background="new 0 0 612 792" xml:space="preserve">
<g>
	<g>
		<path fill="#10147E" d="M86.9,400.1c-0.9,2.3-2.5,4.8-2.5,4.8c-1,1.5-2,2.9-3.1,4.2c1.9-0.1,8.6-0.9,13-11L86.9,400.1z"/>
		<path fill="#10147E" d="M55.4,340.6C24.8,340.6,0,365.4,0,396s24.8,55.4,55.4,55.4s55.4-24.8,55.4-55.4S86,340.6,55.4,340.6z
			 M61.8,373.4c-6.7,8.6-6.2,14-6.2,14C45.1,380.7,61.8,373.4,61.8,373.4z M75.1,389.9l-1.1,2.7H38.2l-1.2-2.7H75.1z M73.4,394.1
			l-1.2,2.7H39.9l-1.1-2.7H73.4z M20,377.7c6.6,15.8,0.1,15.5,0.1,15.5C13.1,393,20,377.7,20,377.7z M78.8,411.4
			c-5.9,5.8-14.1,9.3-23,9.3c-12.8,0-23.9-7.3-29.5-17.9H16.2l-2-4.7h1.9v-1.5h8.1v1.5c0,0,49.5,0,60.8,0l12.5-3.5
			C97.5,394.6,93.8,412.6,78.8,411.4z"/>
	</g>
	<polygon fill="#10147E" points="138.8,391.2 138.8,359.8 127.7,359.8 127.7,356.3 154.9,356.3 154.9,359.8 143.7,359.8 
		143.7,391.2 	"/>
	<path fill="#10147E" d="M165.7,388.5c-1.7,1.7-3.9,3.3-6.2,3.3c-4.2,0-7.1-3-7.1-7.7c0-4.3,3.7-7.1,8.9-8.6l6-1.9c-0.2-3-2.5-5-5-5
		c-2.9,0-4.7,1.2-6.5,2.7l-1.7-2.2c2.5-2.4,5-3.4,8.5-3.4c3.7,0,9.2,1.2,9.2,8.5v11c0,1.9,0.2,4.3,1.1,6.1H168
		c-0.6-1-0.7-2.6-0.7-4.2L165.7,388.5L165.7,388.5z M163,377.9c-3.9,1.2-6,3.1-6,6.2c0,2.6,1.8,4.2,3.6,4.2c3.2,0,7.3-3.9,6.7-11.7
		L163,377.9L163,377.9z"/>
	<path fill="#10147E" d="M180.2,365.8c2.5,6.3,5.1,12.7,7.6,20.2h0.1c2.6-7.5,5.2-13.9,7.8-20.2l3.9,0.9l-12.8,28.9
		c-2.3,5.3-5.4,8.1-9.7,8.1h-2.2v-3.2h1.7c3.1,0,5.3-0.8,8.8-10.7l-9.8-22.8L180.2,365.8L180.2,365.8z"/>
	<polygon fill="#10147E" points="203.7,391.2 203.7,354.6 208.1,354.6 208.1,391.2 	"/>
	<path fill="#10147E" d="M213.8,378.5c0-8.1,6-12.8,12.3-12.8s12.3,4.7,12.3,12.8c0,7.7-4.9,13.4-12.3,13.4
		C218.8,391.8,213.8,386.2,213.8,378.5L213.8,378.5z M218.7,378.5c0,4.7,1.6,10.2,7.4,10.2c5.9,0,7.5-5.5,7.5-10.2
		c0-4.5-1.8-9.6-7.5-9.6C220.5,368.9,218.7,374,218.7,378.5L218.7,378.5z"/>
	<path fill="#10147E" d="M248.5,369.4l1.8-1.9c1-1,2.7-1.8,3.7-1.8c1.1,0,2.7,0.8,4.1,2.4l-2,2.9c-1.1-0.5-2.2-1-3.3-1
		c-2.3,0-4.2,2.3-4.2,7.8v13.4h-4.5v-24.9h4.4V369.4L248.5,369.4z"/>
	<polygon fill="#10147E" points="332.5,359.8 320.1,359.8 320.1,373.1 332.3,373.1 332.3,376.6 320.1,376.6 320.1,391.2 
		315.3,391.2 315.3,356.3 332.5,356.3 	"/>
	<path fill="#10147E" d="M343.2,369.4l1.8-1.9c1.1-1,2.7-1.8,3.7-1.8c1.1,0,2.7,0.8,4.1,2.4l-2,2.9c-1.1-0.5-2.2-1-3.3-1
		c-2.3,0-4.2,2.3-4.2,7.8v13.4h-4.5v-24.9h4.4V369.4L343.2,369.4z"/>
	<path fill="#10147E" d="M367.8,388.5c-1.7,1.7-3.9,3.3-6.2,3.3c-4.2,0-7.1-3-7.1-7.7c0-4.3,3.7-7.1,8.9-8.6l6-1.9c-0.2-3-2.5-5-5-5
		c-2.9,0-4.7,1.2-6.5,2.7l-1.7-2.2c2.5-2.4,5-3.4,8.5-3.4c3.7,0,9.2,1.2,9.2,8.5v11c0,1.9,0.2,4.3,1.1,6.1h-4.9
		c-0.6-1-0.7-2.6-0.7-4.2L367.8,388.5L367.8,388.5z M365.1,377.9c-3.9,1.2-6,3.1-6,6.2c0,2.6,1.8,4.2,3.6,4.2
		c3.2,0,7.3-3.9,6.7-11.7L365.1,377.9L365.1,377.9z"/>
	<path fill="#10147E" d="M385.5,369.4c2.3-2.5,5.9-3.7,8.5-3.7c5.7,0,8.8,3.2,8.8,9.5v16.1h-4.5v-15.1c0-4.7-2-7.1-6-7.1
		c-3.5,0-6.8,2.4-6.8,7.2v15H381v-24.9h4.4L385.5,369.4L385.5,369.4z"/>
	<path fill="#10147E" d="M429.4,389.2c-2.4,1.7-5.4,2.6-7.5,2.6c-11.8,0-13.3-9.7-13.3-13.1c0-6.2,4.1-13,13.5-13
		c2.5,0,4.8,0.6,6.7,2l-1.5,2.5c-1.4-0.7-3.3-1.3-5.1-1.3c-4.1,0-8.7,2.7-8.7,9.5c0,5.2,2.6,10.1,8.7,10.1c2.1,0,4.1-0.5,6.1-1.8
		L429.4,389.2L429.4,389.2z"/>
	<path fill="#10147E" d="M433.6,358.1c0-1.2,1-2.6,2.8-2.6s2.8,1.4,2.8,2.6c0,1.3-0.6,3-2.8,3C434.3,361.1,433.6,359.4,433.6,358.1
		L433.6,358.1z M438.7,366.3v24.9h-4.5v-24.9H438.7L438.7,366.3z"/>
	<path fill="#10147E" d="M457.8,370.3c-1.8-1.2-3.2-1.6-4.6-1.6c-1.6,0-3.6,0.8-3.6,2.8c0,2.1,2.3,3.1,5.1,5.3
		c3.2,2.4,5.3,4.5,5.3,8c0,4.2-4.1,7-8.7,7c-2.8,0-6-1.2-7.7-3.1l2.2-2.5c1.4,1.3,3.4,2.5,5.4,2.5c2.1,0,4.2-1.1,4.2-3.5
		c0-2.9-2.6-4.1-4.9-5.8c-2.8-2-5.3-3.7-5.3-7.1c0-3.9,3.9-6.4,8.3-6.4c2.4,0,4.8,1,6.1,2.3L457.8,370.3L457.8,370.3z"/>
	<path fill="#10147E" d="M506.3,375.3v14.2c-3.4,1.2-7.6,2.3-12.1,2.3c-12.4,0-18.8-8.6-18.8-18.1c0-8.8,6.9-17.9,19.4-17.9
		c5.1,0,9.1,1.6,11.2,3.4l-2,2.9c-2.1-1.4-5.3-2.8-9.1-2.8c-9.1,0-14.2,6.2-14.2,14.4c0,8.8,6,14.8,13.6,14.8c2.9,0,5.1-0.3,7.1-1.2
		v-11.8h4.9V375.3L506.3,375.3z"/>
	<path fill="#10147E" d="M517.9,369.4l1.8-1.9c1-1,2.7-1.8,3.7-1.8c1.1,0,2.7,0.8,4.1,2.4l-2,2.9c-1.1-0.5-2.2-1-3.3-1
		c-2.3,0-4.2,2.3-4.2,7.8v13.4h-4.5v-24.9h4.4V369.4L517.9,369.4z"/>
	<path fill="#10147E" d="M529.2,378.5c0-8.1,6-12.8,12.3-12.8s12.3,4.7,12.3,12.8c0,7.7-4.9,13.4-12.3,13.4
		C534.1,391.8,529.2,386.2,529.2,378.5L529.2,378.5z M534,378.5c0,4.7,1.6,10.2,7.4,10.2c5.9,0,7.5-5.5,7.5-10.2
		c0-4.5-1.8-9.6-7.5-9.6C535.9,368.9,534,374,534,378.5L534,378.5z"/>
	<path fill="#10147E" d="M576.1,388.3c-2.5,2.2-4.8,3.5-8,3.5c-5.7,0-8.8-3.2-8.8-9.5v-16h4.5v15.1c0,4.7,2,7.2,6,7.2
		c3.4,0,6.3-2.8,6.3-7.7v-14.6h4.5v24.9h-4.4L576.1,388.3L576.1,388.3z"/>
	<path fill="#10147E" d="M592.4,370.2L592.4,370.2c1.9-3,5.5-4.5,8.3-4.5c9.7,0,11.3,8.7,11.3,12.3c0,7.6-4.5,13.8-11.8,13.8
		c-3.1,0-5.8-1.5-7.7-3.9h-0.1v15.8h-4.5v-37.4h4.5V370.2L592.4,370.2z M607.2,378.1c0-4.5-2.3-9.2-6.9-9.2c-5.1,0-7.8,3.9-7.8,10.4
		c0,4.8,2.2,9.4,7.8,9.4C605.6,388.6,607.2,382.6,607.2,378.1L607.2,378.1z"/>
	<path fill="#10147E" d="M296.3,383.1c1.7-3.3,1.9-7,1.3-10h-3.9c0.8,2.6,0.9,5.6-0.1,7.6l-11.2-10.4c-3.4-3.1-4.7-5-4.7-7
		c0-2.2,1.6-4,4.9-4c2.1,0,4.1,1.1,4.9,1.7l1.7-2.8c-2.2-1.6-4.5-2.4-7.1-2.4c-5.6,0-9.3,3.7-9.3,7.8c0,3.6,2.6,6,4.5,7.8
		c-4.1,1.9-7.5,5.5-7.5,10.1c0,2.1,1.5,10.4,12.4,10.4c4.8,0,8.8-2.2,11.5-5.2l5.7,5.2l4.4-2.2L296.3,383.1z M282.9,388.5
		c-5.3,0-7.8-4.4-7.8-7.6c0-2.9,1.3-5.5,4.5-7.2l11.8,10.6C289.9,386.3,286.7,388.5,282.9,388.5z"/>
	<path fill="#10147E" d="M147.5,437.1c-1.3,0-1.8-1.2-1.6-2.3c-1.4,1.9-2.8,2.5-5.1,2.5c-2.5,0-4.5-2-4.5-4.5c0-5.1,5.5-6.3,9.5-6.5
		v-1c0-2-1.1-3.7-3.2-3.7c-1.3,0-3.1,0.5-4.3,0.9v-1.2c1.4-0.9,3.3-1.6,5-1.6c3,0,5.1,2.1,5.1,5v7.8c0,0.5,0,2.4,0.3,2.8
		c0.2,0.3,0.6,0.2,1,0.2v1.2C148.8,437,148.2,437.1,147.5,437.1z M145.8,428.1c-2.4,0-7,0.7-7,4c0,2,0.9,3.2,3,3.2c3.4,0,4-3,4-5.8
		V428.1z"/>
	<path fill="#10147E" d="M164.2,436.9V426c0-2.4-0.6-4.1-3.4-4.1c-1.6,0-3.6,0.7-5,1.7v13.3h-2.5v-16.6h2.5v1.3
		c1.6-0.8,4.2-1.8,6-1.8c3.9,0,4.9,2.9,4.9,6.3v10.8H164.2L164.2,436.9z"/>
	<path fill="#10147E" d="M180.1,418.2c-1.3,0-2.3-1-2.3-2.3c0-1.3,1.1-2.3,2.3-2.3c1.3,0,2.3,1,2.3,2.3
		C182.4,417.1,181.4,418.2,180.1,418.2z M177.9,436.9v-16.6h4.4v16.6C182.3,436.9,177.9,436.9,177.9,436.9z"/>
	<path fill="#10147E" d="M197.3,436.9v-10.1c0-1.8-0.2-3.8-2.5-3.8c-1.3,0-2.9,0.5-4,1.2v12.7h-4.4v-16.6h4.4v1.7
		c1.5-1.1,3.9-2.2,5.8-2.2c3.5,0,5.1,2.6,5.1,5.9V437L197.3,436.9L197.3,436.9z"/>
	<path fill="#10147E" d="M213.8,416.7c-2.4,0-2.9,1.4-2.9,3.5h4.6v2.6h-4.6v14h-4.4v-14h-2.7v-2.6h2.7c0-3.6,1.6-6.2,5.5-6.2
		c1.3,0,2.6,0.4,3.8,1v1.8C215.1,416.8,214.4,416.7,213.8,416.7z"/>
	<path fill="#10147E" d="M225.2,437.3c-5.6,0-8.6-3.4-8.6-8.9c0-5.6,3-8.7,8.6-8.7c5.5,0,8.6,3.2,8.6,8.7
		C233.9,434,230.9,437.3,225.2,437.3z M225.2,422.7c-3.2,0-4.3,3-4.3,5.8c0,2.7,1,6.1,4.3,6.1s4.3-3.3,4.3-6.1
		C229.5,425.8,228.4,422.7,225.2,422.7z"/>
	<path fill="#10147E" d="M245.1,423.2c-1.4,0-3,0.9-3.9,1.9v11.8h-4.4v-16.6h4.4v2.2c0.8-1.6,3.5-2.7,5.2-2.7c0.2,0,0.4,0,0.6,0v3.9
		C246.5,423.3,245.6,423.2,245.1,423.2z"/>
	<path fill="#10147E" d="M270.4,436.9v-10.1c0-1.9-0.4-3.8-2.6-3.8c-1.2,0-2.4,0.5-3.4,1.2c0.1,0.4,0.1,0.9,0.1,1.4v11.3H260v-10.1
		c0-1.8-0.2-3.8-2.5-3.8c-1.1,0-2.5,0.5-3.4,1.2v12.7h-4.4v-16.6h4.4v1.7c1.4-1.1,3.7-2.2,5.4-2.2c1.9,0,3.4,0.8,4.2,2.5
		c1.6-1.1,4-2.5,6-2.5c3.6,0,5.1,2.6,5.1,5.9V437L270.4,436.9L270.4,436.9z"/>
	<path fill="#10147E" d="M289.5,437.1c-1.7,0-1.6-1.5-1.8-2.6c-1.2,1.6-3.4,2.9-5.4,2.9c-2.7,0-5.1-1.8-5.1-4.7
		c0-5.4,6-6.1,10.2-6.2v-1c0-1.9-1.6-2.8-3.3-2.8s-3.4,0.2-5,0.8v-1.9c1.8-1.1,3.8-1.8,5.9-1.8c3.3,0,6.7,1.4,6.7,5.2v6.4
		c0,0.6-0.1,3.6,0.4,4c0.2,0.1,0.5,0.1,0.7,0.1v1.5C291.7,436.9,290.6,437.1,289.5,437.1z M281.5,432c0,1.5,1,2.5,2.4,2.5
		c1.9,0,3.5-1.6,3.5-3.4v-2.4C285.5,428.8,281.5,429.5,281.5,432z"/>
	<path fill="#10147E" d="M310.4,437.3c-1.4,0-3.5-0.7-4.9-1.2v0.8H303v-23.1h2.5v9c1.2-1.8,3.2-3,5.4-3c4.7,0,6.5,4.3,6.5,8.4
		C317.4,432.5,315.4,437.3,310.4,437.3z M310.4,422c-2.4,0-4.8,1.7-4.8,4.3v8.2c1.3,0.5,3.2,0.9,4.6,0.9c3.6,0,4.7-3.9,4.7-6.8
		C314.9,425.5,314,422,310.4,422z"/>
	<path fill="#10147E" d="M332,436.9v-1.7c-1.6,0.9-4.2,2.1-6,2.1c-3.9,0-4.9-2.9-4.9-6.3v-10.8h2.5v10.9c0,2.4,0.6,4.1,3.4,4.1
		c1.7,0,3.7-0.9,5-2v-13h2.5v16.6H332V436.9z"/>
	<path fill="#10147E" d="M344,437.3c-1.7,0-3.8-0.8-5.3-1.7v-1.9c1.4,0.8,3.6,1.8,5.2,1.8c1.8,0,3.4-1,3.4-2.9c0-3.8-8.8-2.1-8.8-8
		c0-3.1,2.7-4.8,5.6-4.8c1.7,0,3.1,0.5,4.5,1.3v1.5c-1.8-0.7-3.3-0.9-4.6-0.9c-1.7,0-3.2,0.9-3.2,2.7c0,3.5,8.9,2.2,8.9,7.9
		C349.8,435.5,346.9,437.3,344,437.3z"/>
	<path fill="#10147E" d="M354.9,417.3c-0.8,0-1.6-0.6-1.6-1.4c0-0.8,0.6-1.6,1.5-1.6c0.8,0,1.6,0.6,1.6,1.5
		C356.4,416.6,355.8,417.3,354.9,417.3z M353.5,436.9v-16.6h2.5v16.6C356,436.9,353.5,436.9,353.5,436.9z"/>
	<path fill="#10147E" d="M372.1,436.9V426c0-2.4-0.6-4.1-3.4-4.1c-1.6,0-3.6,0.7-5,1.7v13.3h-2.5v-16.6h2.5v1.3
		c1.6-0.8,4.2-1.8,6-1.8c3.9,0,4.9,2.9,4.9,6.3v10.8H372.1L372.1,436.9z"/>
	<path fill="#10147E" d="M380.7,428.9c0,3.4,1.8,6.4,5.5,6.4c1.7,0,3.5-0.3,5.1-0.8v1.8c-1.7,0.7-3.6,1-5.4,1
		c-5.3,0-7.7-3.5-7.7-8.6c0-4.8,2.3-8.8,7.5-8.8c4.5,0,6.4,3.8,6.4,7.8v1.2H380.7L380.7,428.9z M385.5,421.6c-2.9,0-4.8,3.1-4.8,5.7
		h9.1C389.8,424.8,388.5,421.6,385.5,421.6z"/>
	<path fill="#10147E" d="M400.3,437.3c-1.7,0-3.8-0.8-5.3-1.7v-1.9c1.4,0.8,3.6,1.8,5.2,1.8c1.8,0,3.4-1,3.4-2.9
		c0-3.8-8.8-2.1-8.8-8c0-3.1,2.7-4.8,5.6-4.8c1.7,0,3.1,0.5,4.5,1.3v1.5c-1.8-0.7-3.3-0.9-4.6-0.9c-1.7,0-3.2,0.9-3.2,2.7
		c0,3.5,8.9,2.2,8.9,7.9C406.2,435.5,403.3,437.3,400.3,437.3z"/>
	<path fill="#10147E" d="M414.2,437.3c-1.7,0-3.8-0.8-5.3-1.7v-1.9c1.4,0.8,3.6,1.8,5.2,1.8c1.8,0,3.4-1,3.4-2.9
		c0-3.8-8.8-2.1-8.8-8c0-3.1,2.7-4.8,5.6-4.8c1.7,0,3.1,0.5,4.5,1.3v1.5c-1.8-0.7-3.3-0.9-4.6-0.9c-1.7,0-3.2,0.9-3.2,2.7
		c0,3.5,8.9,2.2,8.9,7.9C420.1,435.5,417.2,437.3,414.2,437.3z"/>
</g>
</svg>
