<?xml version="1.0" encoding="UTF-8" standalone="no"?>
<svg
   xmlns:dc="http://purl.org/dc/elements/1.1/"
   xmlns:cc="http://creativecommons.org/ns#"
   xmlns:rdf="http://www.w3.org/1999/02/22-rdf-syntax-ns#"
   xmlns:svg="http://www.w3.org/2000/svg"
   xmlns="http://www.w3.org/2000/svg"
   viewBox="0 0 1256.25 725"
   height="725"
   width="1256.25"
   xml:space="preserve"
   version="1.1"
   id="svg3355"><metadata
     id="metadata3361"><rdf:RDF><cc:Work
         rdf:about=""><dc:format>image/svg+xml</dc:format><dc:type
           rdf:resource="http://purl.org/dc/dcmitype/StillImage" /><dc:title></dc:title></cc:Work></rdf:RDF></metadata><defs
     id="defs3359"><clipPath
       id="clipPath3369"
       clipPathUnits="userSpaceOnUse"><path
         id="path3371"
         d="M 0,580 1005,580 1005,0 0,0 0,580 Z" /></clipPath></defs><g
     transform="matrix(1.25,0,0,-1.25,0,725)"
     id="g3363"><g
       id="g3365"><g
         clip-path="url(#clipPath3369)"
         id="g3367"><g
           transform="translate(93.6567,374.1465)"
           id="g3373"><path
             id="path3375"
             style="fill:#000000;fill-opacity:1;fill-rule:nonzero;stroke:none"
             d="m 0,0 80.985,0 c 3.11,6.052 6.381,10.795 13.58,19.302 4.255,5.07 8.18,9.813 10.472,14.555 2.78,5.563 2.78,10.633 0.326,15.539 -2.29,4.417 -6.543,6.87 -11.943,6.87 -2.618,0.164 -5.562,-0.491 -8.344,-1.798 -1.8,9.486 -7.69,13.575 -11.943,15.211 -5.564,2.29 -11.78,1.963 -16.688,-0.818 -0.49,-0.163 -0.819,-0.491 -1.309,-0.654 -1.145,1.8 -2.291,3.435 -3.762,4.906 -1.964,1.964 -4.091,3.435 -6.381,4.418 3.108,2.289 5.234,6.051 5.234,10.304 0,6.379 -4.58,11.613 -10.634,12.595 l 0,6.543 6.054,0 c 1.145,0 2.126,0.98 2.126,2.126 0,1.144 -0.981,2.126 -2.126,2.126 l -6.054,0 0,5.888 c 0,1.309 -0.819,2.29 -2.128,2.29 -1.144,0 -2.125,-0.981 -2.125,-2.29 l 0,-5.888 -5.89,0 c -1.145,0 -2.128,-0.982 -2.128,-2.126 0,-1.146 0.983,-2.126 2.128,-2.126 l 5.89,0 0,-6.543 C 29.286,99.448 24.704,94.214 24.704,87.835 c 0,-4.253 2.128,-8.015 5.4,-10.304 C 27.65,76.548 25.522,75.077 23.723,73.113 22.25,71.642 20.941,70.007 19.796,68.207 14.561,71.642 7.854,72.133 1.799,69.679 -2.29,68.043 -8.18,63.954 -10.144,54.468 c -2.781,1.307 -5.562,1.962 -8.343,1.798 -5.236,0 -9.654,-2.453 -11.943,-6.87 -2.456,-4.906 -2.292,-9.976 0.326,-15.539 2.29,-4.742 6.217,-9.485 10.472,-14.555 2.617,-3.109 5.562,-6.217 7.689,-9.488 0.655,-0.981 1.309,-1.309 2.126,-1.309 1.637,0 2.782,1.8 1.637,3.435 -2.618,3.599 -5.4,7.034 -8.18,10.142 -8.836,10.795 -14.07,17.664 -10.145,25.353 1.473,2.944 4.419,4.58 8.018,4.58 2.781,0 5.398,-0.82 7.853,-1.964 -0.164,-2.945 0,-6.379 0.655,-10.141 C -8.18,29.442 0.164,14.229 6.217,15.865 c 5.89,1.637 2.127,16.848 -1.8,24.535 -2.454,4.907 -6.216,8.996 -10.471,11.941 0.328,3.598 2.455,10.469 9.491,13.412 4.417,1.8 9.815,1.8 14.396,-1.471 -2.127,-4.908 -3.108,-10.633 -3.108,-16.521 0,-7.851 2.29,-17.828 5.562,-24.863 0.818,-1.634 3.109,-6.705 6.709,-6.214 3.762,0.49 4.743,6.214 5.071,8.178 0.819,4.416 1.473,10.959 -0.164,20.609 -0.981,6.052 -2.781,11.287 -5.236,15.213 -0.98,1.798 -2.125,3.27 -3.434,4.743 0.981,1.798 2.126,3.434 3.434,4.742 3.109,2.944 6.709,4.58 10.798,4.58 4.091,0 7.854,-1.636 10.8,-4.58 1.307,-1.308 2.454,-2.944 3.599,-4.742 C 47.119,60.52 44.338,52.995 43.029,45.471 41.066,33.695 41.884,17.502 47.937,16.684 l 0.49,0 c 6.709,0 11.781,20.118 11.781,31.077 0.164,5.888 -0.982,11.613 -3.108,16.521 4.253,3.107 9.652,3.435 14.396,1.471 5.564,-2.289 8.672,-7.195 9.489,-13.412 C 79.022,50.705 74.769,48.089 70.679,40.4 67.243,33.695 65.116,24.862 65.934,19.628 c 0.49,-2.616 1.799,-3.599 2.944,-3.763 5.564,-0.817 13.908,12.104 16.034,24.045 0.654,3.762 0.818,7.196 0.818,10.141 2.291,1.144 4.908,1.964 7.69,1.964 3.763,0 6.545,-1.636 8.016,-4.58 C 105.527,39.746 100.127,32.877 91.292,22.082 86.875,16.848 81.968,10.959 78.367,4.254 L 0,4.254 c -4.253,0 -7.525,-3.436 -7.525,-7.525 0,-4.089 3.272,-7.361 7.525,-7.361 l 75.097,0 c 1.635,0 3.108,-1.472 3.108,-3.271 0,-1.635 -1.473,-3.109 -3.108,-3.109 l -74.933,0 c -1.963,0 -2.618,0.328 -2.946,0.492 -0.981,0.654 -2.454,0.491 -3.108,-0.492 -0.654,-0.98 -0.327,-2.289 0.654,-2.942 1.309,-0.983 2.782,-1.309 5.4,-1.309 l 74.933,0 c 4.089,0 7.361,3.271 7.361,7.36 0,4.254 -3.272,7.524 -7.361,7.524 L 0,-6.379 c -1.799,0 -3.272,1.309 -3.272,3.108 C -3.272,-1.309 -1.799,0 0,0 M 0.491,38.275 C 3.599,32.713 5.4,24.698 4.745,20.282 c -0.818,0.655 -2.127,1.962 -3.11,3.272 -3.434,4.415 -6.38,11.122 -7.361,17.01 -0.328,2.29 -0.654,4.416 -0.654,6.542 2.944,-2.616 5.235,-5.724 6.871,-8.831 m 27.159,6.541 c 1.472,-9.159 0.817,-15.047 0.164,-19.299 -0.492,-2.781 -1.147,-3.925 -1.309,-4.417 -0.492,0.328 -1.309,1.308 -2.291,3.598 -2.944,6.379 -5.072,15.866 -5.236,23.063 0,4.744 0.818,9.323 2.292,13.249 2.944,-3.762 5.235,-9.159 6.38,-16.194 m 9.815,51.524 c 4.582,0 8.509,-3.761 8.509,-8.505 0,-4.579 -3.763,-8.343 -8.509,-8.343 -4.579,0 -8.343,3.764 -8.343,8.343 0,4.744 3.764,8.505 8.343,8.505 M 55.955,47.761 C 55.791,40.728 52.518,24.698 48.591,21.1 c -2.453,3.434 -2.617,15.866 -1.145,23.716 1.145,7.035 3.273,12.432 6.381,16.194 1.309,-3.926 2.128,-8.505 2.128,-13.249 M 80.659,40.728 C 79.676,34.349 75.423,24.044 70.188,20.282 c -0.655,4.252 1.308,12.269 4.254,17.993 1.636,3.107 4.089,6.215 7.035,8.669 -0.164,-1.964 -0.492,-4.09 -0.818,-6.216" /></g><path
           id="path3377"
           style="fill:#000000;fill-opacity:1;fill-rule:nonzero;stroke:none"
           d="m 87.234,236.941 87.68,0 0,4.219 -87.68,0 0,-4.219 z" /><g
           transform="translate(118.5444,118.6729)"
           id="g3379"><path
             id="path3381"
             style="fill:#000000;fill-opacity:1;fill-rule:nonzero;stroke:none"
             d="m 0,0 -8.974,0 0,-1.845 c -2.389,1.581 -5.294,2.504 -8.78,2.504 -8.522,0 -15.429,-7.18 -15.429,-16.469 0,-9.157 6.907,-16.403 15.429,-16.403 3.486,0 6.391,0.922 8.78,2.503 l 0,-1.844 8.974,0 L 0,0 Z m -16.269,-24.439 c -4.712,0 -8.005,4.017 -8.005,8.629 0,4.677 3.293,8.761 8.005,8.761 2.647,0 5.293,-0.921 7.295,-3.687 l 0,-10.08 c -2.002,-2.702 -4.648,-3.623 -7.295,-3.623 M 26.016,0.989 c -3.486,0 -6.326,-1.186 -8.844,-3.228 l 0,2.239 -8.974,0 0,-31.554 8.974,0 0,20.29 c 2.066,2.568 4.519,3.952 6.779,3.952 4.195,0 6.65,-2.701 6.65,-7.707 l 0,-16.535 8.974,0 0,17.325 c 0,9.223 -5.424,15.218 -13.559,15.218 m 52.681,14.228 -8.973,0 0,-17.062 c -2.389,1.581 -5.295,2.504 -8.781,2.504 -8.522,0 -15.429,-7.246 -15.429,-16.404 0,-9.288 6.907,-16.468 15.429,-16.468 3.486,0 6.392,0.922 8.781,2.503 l 0,-1.844 8.973,0 0,46.771 z M 62.428,-24.505 c -4.712,0 -8.006,4.083 -8.006,8.76 0,4.612 3.294,8.632 8.006,8.632 2.647,0 5.295,-0.924 7.296,-3.623 l 0,-10.08 c -2.001,-2.767 -4.649,-3.689 -7.296,-3.689 m 80.245,37.746 -9.361,0 0,-18.577 -19.625,0 0,18.577 -9.361,0 0,-44.795 9.361,0 0,17.522 19.625,0 0,-17.522 9.361,0 0,44.795 z m 13.365,-7.378 c 2.968,0 5.357,2.241 5.357,5.271 0,3.096 -2.389,5.401 -5.357,5.401 -3.036,0 -5.424,-2.305 -5.424,-5.401 0,-3.03 2.388,-5.271 5.424,-5.271 M 160.557,0 l -8.974,0 0,-31.554 8.974,0 0,31.554 z m 40.349,0 -8.911,0 0,-1.251 c -2.389,1.581 -5.293,2.503 -8.78,2.503 -8.521,0 -15.429,-6.652 -15.429,-16.141 0,-8.232 6.908,-15.414 15.429,-15.414 3.487,0 6.391,0.922 8.78,2.503 l 0,-3.426 c 0,-4.939 -3.098,-7.576 -7.1,-7.576 -4.261,0 -6.844,2.175 -7.231,5.469 l -9.038,0 c 0.645,-8.037 7.294,-13.636 16.269,-13.636 9.361,0 16.011,5.928 16.011,15.81 l 0,31.159 z m -16.205,-22.595 c -4.712,0 -8.006,4.083 -8.006,7.706 0,4.942 3.294,8.368 8.006,8.368 2.712,0 5.293,-0.922 7.294,-3.755 l 0,-8.498 c -2.001,-2.899 -4.582,-3.821 -7.294,-3.821 m 42.221,23.584 c -3.486,0 -6.328,-1.186 -8.845,-3.228 l 0,17.456 -8.973,0 0,-46.771 8.973,0 0,20.29 c 2.066,2.568 4.519,3.952 6.778,3.952 4.197,0 6.649,-2.701 6.649,-7.707 l 0,-16.535 8.975,0 0,17.325 c 0,9.223 -5.423,15.218 -13.557,15.218 m 51.259,-16.14 c 0,9.421 -6.584,15.81 -15.3,15.81 -9.878,0 -16.462,-6.983 -16.462,-16.469 0,-9.42 6.649,-16.469 16.591,-16.469 7.295,0 13.106,3.886 14.784,9.947 l -9.36,0 c -0.969,-1.581 -2.712,-2.372 -5.229,-2.372 -4.456,0 -6.845,2.439 -7.748,5.6 l 22.531,0 c 0.193,1.319 0.193,2.635 0.193,3.953 m -15.558,8.3 c 3.744,0 6.133,-2.172 6.649,-5.863 l -13.944,0 c 0.84,3.36 3.163,5.863 7.295,5.863 M 293.289,0 l -8.973,0 0,-31.554 8.973,0 0,18.84 c 2.583,2.899 6.003,4.348 10.846,4.547 l 0,8.694 c -4.584,0 -8.071,-1.448 -10.846,-4.085 l 0,3.558 z m 42.608,4.612 23.177,0 0,8.629 -32.538,0 0,-44.795 32.538,0 0,8.63 -23.177,0 0,9.156 20.53,0 0,8.63 -20.53,0 0,9.75 z m 61.137,10.605 -8.974,0 0,-17.062 c -2.389,1.581 -5.294,2.504 -8.78,2.504 -8.522,0 -15.429,-7.246 -15.429,-16.404 0,-9.288 6.907,-16.468 15.429,-16.468 3.486,0 6.391,0.922 8.78,2.503 l 0,-1.844 8.974,0 0,46.771 z m -16.269,-39.722 c -4.714,0 -8.006,4.083 -8.006,8.76 0,4.612 3.292,8.632 8.006,8.632 2.647,0 5.293,-0.924 7.295,-3.623 l 0,-10.08 c -2.002,-2.767 -4.648,-3.689 -7.295,-3.689 M 436.156,0 l -8.974,0 0,-20.289 c -2.065,-2.569 -4.519,-3.953 -6.778,-3.953 -4.196,0 -6.65,2.701 -6.65,7.708 l 0,16.534 -8.974,0 0,-17.391 c 0,-9.156 5.424,-15.151 13.558,-15.151 3.487,0 6.327,1.186 8.844,3.229 l 0,-2.241 8.974,0 0,31.554 z m 23.305,-24.11 c -4.712,0 -7.747,3.623 -7.747,8.3 0,4.677 3.035,8.367 7.747,8.367 3.422,0 5.94,-1.977 6.585,-5.006 l 8.974,0 c -0.903,7.772 -7.424,13.108 -15.559,13.108 -9.361,0 -16.591,-6.983 -16.591,-16.469 0,-9.42 7.23,-16.469 16.591,-16.469 8.135,0 14.656,5.336 15.559,13.11 l -8.974,0 c -0.645,-3.031 -3.163,-4.941 -6.585,-4.941 M 513.173,0 l -8.972,0 0,-1.845 c -2.389,1.581 -5.295,2.504 -8.78,2.504 -8.522,0 -15.431,-7.18 -15.431,-16.469 0,-9.157 6.909,-16.403 15.431,-16.403 3.485,0 6.391,0.922 8.78,2.503 l 0,-1.844 8.972,0 0,31.554 z m -16.268,-24.439 c -4.712,0 -8.004,4.017 -8.004,8.629 0,4.677 3.292,8.761 8.004,8.761 2.648,0 5.295,-0.921 7.296,-3.687 l 0,-10.08 c -2.001,-2.702 -4.648,-3.623 -7.296,-3.623 m 46.998,1.185 c -1.743,-0.461 -3.55,-0.856 -5.23,-0.856 -3.292,0 -5.423,1.646 -5.423,5.204 l 0,11.199 11.169,0 0,7.707 -11.169,0 0,11.266 -8.908,0 0,-11.266 -6.52,0 0,-7.707 6.52,0 0,-11.265 c 0,-8.169 4.907,-13.57 12.396,-13.57 2.904,0 4.584,0.263 8.327,1.448 l -1.162,7.84 z m 12.072,29.117 c 2.97,0 5.358,2.241 5.358,5.271 0,3.096 -2.388,5.401 -5.358,5.401 -3.034,0 -5.423,-2.305 -5.423,-5.401 0,-3.03 2.389,-5.271 5.423,-5.271 M 560.494,0 l -8.974,0 0,-31.554 8.974,0 0,31.554 z m 23.176,0.659 c -9.553,0 -16.59,-6.916 -16.59,-16.469 0,-9.618 7.037,-16.732 16.59,-16.732 9.491,0 16.464,7.114 16.464,16.732 0,9.553 -6.973,16.469 -16.464,16.469 m 0,-25.033 c -4.712,0 -7.746,3.822 -7.746,8.564 0,4.677 3.034,8.3 7.746,8.3 4.649,0 7.619,-3.623 7.619,-8.3 0,-4.742 -2.97,-8.564 -7.619,-8.564 m 40.414,25.363 c -3.484,0 -6.325,-1.186 -8.842,-3.228 l 0,2.239 -8.975,0 0,-31.554 8.975,0 0,20.29 c 2.064,2.568 4.518,3.952 6.778,3.952 4.195,0 6.649,-2.701 6.649,-7.707 l 0,-16.535 8.974,0 0,17.325 c 0,9.223 -5.424,15.218 -13.559,15.218" /></g><g
           transform="translate(87.2334,198.2402)"
           id="g3383"><path
             id="path3385"
             style="fill:#000000;fill-opacity:1;fill-rule:nonzero;stroke:none"
             d="m 0,0 0,-44.796 17.109,0 c 13.492,0 23.498,9.552 23.498,22.596 C 40.607,-9.421 30.601,0 17.109,0 L 0,0 Z m 9.362,-36.034 0,27.338 7.747,0 c 7.811,0 14.008,-5.994 14.008,-13.504 0,-7.774 -6.197,-13.834 -14.008,-13.834 l -7.747,0 z m 68.755,22.793 -8.974,0 0,-1.845 c -2.389,1.58 -5.294,2.504 -8.78,2.504 -8.522,0 -15.429,-7.182 -15.429,-16.47 0,-9.156 6.907,-16.402 15.429,-16.402 3.486,0 6.391,0.921 8.78,2.502 l 0,-1.844 8.974,0 0,31.555 z M 61.848,-37.682 c -4.713,0 -8.006,4.019 -8.006,8.63 0,4.677 3.293,8.762 8.006,8.762 2.647,0 5.293,-0.922 7.295,-3.689 l 0,-10.08 c -2.002,-2.701 -4.648,-3.623 -7.295,-3.623 m 42.285,25.429 c -3.487,0 -6.327,-1.185 -8.845,-3.228 l 0,2.24 -8.973,0 0,-31.555 8.973,0 0,20.29 c 2.066,2.569 4.519,3.951 6.778,3.951 4.198,0 6.651,-2.699 6.651,-7.706 l 0,-16.535 8.973,0 0,17.325 c 0,9.223 -5.422,15.218 -13.557,15.218 m 26.081,4.874 c 2.971,0 5.359,2.24 5.359,5.272 0,3.095 -2.388,5.4 -5.359,5.4 -3.033,0 -5.422,-2.305 -5.422,-5.4 0,-3.032 2.389,-5.272 5.422,-5.272 m 4.519,-5.862 -8.974,0 0,-31.555 8.974,0 0,31.555 z m 6.263,-20.619 c 0.645,-8.96 7.423,-11.924 14.589,-11.924 7.876,0 13.946,3.556 13.946,10.672 0,5.928 -4.326,8.365 -9.362,9.289 l -5.616,0.922 c -2.84,0.526 -3.679,1.779 -3.679,2.964 0,1.45 1.484,2.701 4.582,2.701 2.97,0 5.488,-1.119 5.682,-3.953 l 8.198,0.067 c -0.645,8.893 -8.585,10.737 -13.88,10.737 -7.94,0 -13.362,-3.887 -13.362,-10.409 0,-5.863 4.389,-8.498 9.101,-9.354 l 6.586,-1.12 c 2.065,-0.395 3.099,-1.382 3.099,-2.635 0,-1.646 -2.13,-2.701 -5.23,-2.701 -3.55,0 -5.938,1.318 -6.456,4.678 l -8.198,0.066 z m 53.066,21.607 c -3.485,0 -6.326,-1.185 -8.844,-3.228 l 0,17.457 -8.974,0 0,-46.772 8.974,0 0,20.29 c 2.066,2.569 4.519,3.951 6.779,3.951 4.195,0 6.649,-2.699 6.649,-7.706 l 0,-16.535 8.975,0 0,17.325 c 0,9.223 -5.425,15.218 -13.559,15.218 m 68.755,-23.913 3.421,-8.63 9.878,0 -18.852,45.06 -8.78,0 -18.915,-45.06 9.943,0 3.421,8.63 19.884,0 z m -3.486,8.63 -12.977,0 6.457,16.402 6.52,-16.402 z m 52.163,14.295 -8.909,0 0,-1.251 c -2.389,1.58 -5.295,2.502 -8.78,2.502 -8.522,0 -15.431,-6.653 -15.431,-16.14 0,-8.233 6.909,-15.414 15.431,-15.414 3.485,0 6.391,0.922 8.78,2.502 l 0,-3.426 c 0,-4.939 -3.1,-7.575 -7.102,-7.575 -4.261,0 -6.844,2.174 -7.231,5.468 l -9.038,0 c 0.645,-8.037 7.295,-13.636 16.269,-13.636 9.361,0 16.011,5.928 16.011,15.811 l 0,31.159 z M 295.29,-35.836 c -4.713,0 -8.005,4.083 -8.005,7.706 0,4.941 3.292,8.366 8.005,8.366 2.71,0 5.293,-0.921 7.295,-3.755 l 0,-8.497 c -2.002,-2.899 -4.585,-3.82 -7.295,-3.82 m 54.357,7.443 c 0,9.421 -6.584,15.811 -15.3,15.811 -9.878,0 -16.462,-6.983 -16.462,-16.47 0,-9.421 6.649,-16.469 16.591,-16.469 7.296,0 13.106,3.887 14.784,9.948 l -9.36,0 c -0.969,-1.581 -2.712,-2.372 -5.23,-2.372 -4.455,0 -6.843,2.438 -7.747,5.599 l 22.531,0 c 0.193,1.319 0.193,2.635 0.193,3.953 m -15.558,8.3 c 3.744,0 6.133,-2.173 6.649,-5.863 l -13.944,0 c 0.84,3.36 3.163,5.863 7.295,5.863 m 39.511,7.84 c -3.487,0 -6.328,-1.185 -8.846,-3.228 l 0,2.24 -8.972,0 0,-31.555 8.972,0 0,20.29 c 2.067,2.569 4.519,3.951 6.779,3.951 4.197,0 6.649,-2.699 6.649,-7.706 l 0,-16.535 8.975,0 0,17.325 c 0,9.223 -5.423,15.218 -13.557,15.218 m 36.087,-25.099 c -4.711,0 -7.747,3.623 -7.747,8.3 0,4.677 3.036,8.367 7.747,8.367 3.423,0 5.941,-1.977 6.586,-5.006 l 8.973,0 c -0.903,7.773 -7.424,13.109 -15.559,13.109 -9.359,0 -16.59,-6.983 -16.59,-16.47 0,-9.421 7.231,-16.469 16.59,-16.469 8.135,0 14.656,5.335 15.559,13.11 l -8.973,0 c -0.645,-3.03 -3.163,-4.941 -6.586,-4.941 m 55.263,24.176 -9.426,0 -9.038,-21.541 -10.007,21.541 -9.553,0 15.042,-32.411 -6.004,-14.361 9.425,0 19.561,46.772 z m 31.247,-0.065 0,4.545 c 0,3.492 2.389,5.797 6.002,5.797 1.163,0 3.036,-0.263 4.585,-0.592 l 1.227,7.838 c -2.647,0.724 -5.359,1.121 -7.618,1.121 -7.876,0 -13.17,-5.665 -13.17,-14.23 l 0,-4.479 -8.264,0 0,-7.708 8.264,0 0,-23.847 8.974,0 0,23.847 11.748,0 0,7.708 -11.748,0 z m 30.535,0.659 c -9.554,0 -16.592,-6.917 -16.592,-16.47 0,-9.618 7.038,-16.732 16.592,-16.732 9.491,0 16.462,7.114 16.462,16.732 0,9.553 -6.971,16.47 -16.462,16.47 m 0,-25.034 c -4.713,0 -7.747,3.822 -7.747,8.564 0,4.677 3.034,8.3 7.747,8.3 4.648,0 7.619,-3.623 7.619,-8.3 0,-4.742 -2.971,-8.564 -7.619,-8.564 m 31.57,24.375 -8.973,0 0,-31.555 8.973,0 0,18.84 c 2.583,2.899 6.004,4.348 10.845,4.547 l 0,8.694 c -4.584,0 -8.068,-1.448 -10.845,-4.084 l 0,3.558 z M 608.85,0.988 c -10.071,0 -16.786,-5.732 -16.786,-14.361 0,-6.982 3.811,-11.397 12.525,-13.175 l 7.166,-1.384 c 4.455,-0.855 5.488,-2.766 5.488,-4.611 0,-3.03 -2.582,-4.809 -7.229,-4.809 -5.875,0 -9.749,2.832 -10.46,7.378 l -9.296,0 c 0.774,-10.012 8.65,-15.745 19.237,-15.745 10.524,0 17.433,5.666 17.433,14.23 0,7.51 -4.972,10.804 -13.365,12.647 l -5.422,1.121 c -4.002,0.791 -6.199,2.108 -6.199,5.139 0,3.49 3.035,5.468 7.619,5.468 5.293,0 7.747,-2.636 8.327,-6.589 l 9.232,0 C 626.088,-2.107 616.21,0.988 608.85,0.988 m 40.48,-38.34 c -4.714,0 -7.748,3.623 -7.748,8.3 0,4.677 3.034,8.367 7.748,8.367 3.421,0 5.939,-1.977 6.584,-5.006 l 8.974,0 c -0.904,7.773 -7.425,13.109 -15.558,13.109 -9.361,0 -16.593,-6.983 -16.593,-16.47 0,-9.421 7.232,-16.469 16.593,-16.469 8.133,0 14.654,5.335 15.558,13.11 l -8.974,0 c -0.645,-3.03 -3.163,-4.941 -6.584,-4.941 m 26.727,29.973 c 2.969,0 5.358,2.24 5.358,5.272 0,3.095 -2.389,5.4 -5.358,5.4 -3.035,0 -5.423,-2.305 -5.423,-5.4 0,-3.032 2.388,-5.272 5.423,-5.272 m 4.518,-5.862 -8.974,0 0,-31.555 8.974,0 0,31.555 z m 38.348,-15.152 c 0,9.421 -6.584,15.811 -15.3,15.811 -9.878,0 -16.462,-6.983 -16.462,-16.47 0,-9.421 6.65,-16.469 16.591,-16.469 7.297,0 13.106,3.887 14.784,9.948 l -9.36,0 c -0.969,-1.581 -2.712,-2.372 -5.23,-2.372 -4.455,0 -6.843,2.438 -7.747,5.599 l 22.531,0 c 0.193,1.319 0.193,2.635 0.193,3.953 m -15.558,8.3 c 3.744,0 6.133,-2.173 6.65,-5.863 l -13.945,0 c 0.84,3.36 3.163,5.863 7.295,5.863 m 39.511,7.84 c -3.486,0 -6.328,-1.185 -8.846,-3.228 l 0,2.24 -8.972,0 0,-31.555 8.972,0 0,20.29 c 2.068,2.569 4.52,3.951 6.779,3.951 4.197,0 6.65,-2.699 6.65,-7.706 l 0,-16.535 8.974,0 0,17.325 c 0,9.223 -5.423,15.218 -13.557,15.218 m 36.088,-25.099 c -4.712,0 -7.747,3.623 -7.747,8.3 0,4.677 3.035,8.367 7.747,8.367 3.423,0 5.94,-1.977 6.586,-5.006 l 8.972,0 c -0.903,7.773 -7.423,13.109 -15.558,13.109 -9.36,0 -16.591,-6.983 -16.591,-16.47 0,-9.421 7.231,-16.469 16.591,-16.469 8.135,0 14.655,5.335 15.558,13.11 l -8.972,0 c -0.646,-3.03 -3.163,-4.941 -6.586,-4.941 m 52.292,8.959 c 0,9.421 -6.584,15.811 -15.3,15.811 -9.878,0 -16.462,-6.983 -16.462,-16.47 0,-9.421 6.65,-16.469 16.591,-16.469 7.296,0 13.105,3.887 14.784,9.948 l -9.36,0 c -0.969,-1.581 -2.712,-2.372 -5.23,-2.372 -4.455,0 -6.843,2.438 -7.747,5.599 l 22.531,0 c 0.193,1.319 0.193,2.635 0.193,3.953 m -15.559,8.3 c 3.745,0 6.134,-2.173 6.65,-5.863 l -13.945,0 c 0.84,3.36 3.163,5.863 7.295,5.863" /></g><g
           transform="translate(96.9277,322.3271)"
           id="g3387"><path
             id="path3389"
             style="fill:#000000;fill-opacity:1;fill-rule:nonzero;stroke:none"
             d="m 0,0 23.177,0 0,8.63 -32.538,0 0,-44.795 32.538,0 0,8.629 -23.177,0 0,9.157 20.53,0 0,8.629 L 0,-9.75 0,0 Z m 61.137,10.606 -8.972,0 0,-17.062 c -2.389,1.582 -5.295,2.504 -8.78,2.504 -8.522,0 -15.431,-7.246 -15.431,-16.402 0,-9.29 6.909,-16.47 15.431,-16.47 3.485,0 6.391,0.922 8.78,2.502 l 0,-1.843 8.972,0 0,46.771 z M 44.868,-29.116 c -4.712,0 -8.005,4.083 -8.005,8.762 0,4.609 3.293,8.628 8.005,8.628 2.649,0 5.295,-0.922 7.297,-3.623 l 0,-10.079 c -2.002,-2.767 -4.648,-3.688 -7.297,-3.688 m 55.391,24.505 -8.972,0 0,-20.29 c -2.067,-2.57 -4.521,-3.953 -6.78,-3.953 -4.196,0 -6.65,2.702 -6.65,7.708 l 0,16.535 -8.972,0 0,-17.392 c 0,-9.156 5.422,-15.151 13.556,-15.151 3.487,0 6.327,1.186 8.846,3.228 l 0,-2.239 8.972,0 0,31.554 z m 23.306,-24.111 c -4.712,0 -7.747,3.623 -7.747,8.3 0,4.677 3.035,8.367 7.747,8.367 3.421,0 5.94,-1.977 6.586,-5.007 l 8.973,0 c -0.904,7.774 -7.424,13.11 -15.559,13.11 -9.361,0 -16.591,-6.984 -16.591,-16.47 0,-9.421 7.23,-16.468 16.591,-16.468 8.135,0 14.655,5.336 15.559,13.11 l -8.973,0 c -0.646,-3.032 -3.165,-4.942 -6.586,-4.942 m 53.713,24.111 -8.974,0 0,-1.845 c -2.388,1.582 -5.293,2.504 -8.78,2.504 -8.522,0 -15.429,-7.181 -15.429,-16.47 0,-9.156 6.907,-16.402 15.429,-16.402 3.487,0 6.392,0.922 8.78,2.502 l 0,-1.843 8.974,0 0,31.554 z m -16.269,-24.44 c -4.713,0 -8.005,4.018 -8.005,8.629 0,4.677 3.292,8.762 8.005,8.762 2.647,0 5.294,-0.922 7.295,-3.689 l 0,-10.079 c -2.001,-2.702 -4.648,-3.623 -7.295,-3.623 m 46.999,1.186 c -1.743,-0.462 -3.552,-0.857 -5.23,-0.857 -3.294,0 -5.424,1.648 -5.424,5.204 l 0,11.199 11.17,0 0,7.708 -11.17,0 0,11.265 -8.909,0 0,-11.265 -6.52,0 0,-7.708 6.52,0 0,-11.264 c 0,-8.17 4.908,-13.571 12.395,-13.571 2.905,0 4.585,0.264 8.329,1.449 l -1.161,7.84 z m 12.07,29.117 c 2.97,0 5.359,2.239 5.359,5.27 0,3.096 -2.389,5.402 -5.359,5.402 -3.034,0 -5.422,-2.306 -5.422,-5.402 0,-3.031 2.388,-5.27 5.422,-5.27 m 4.519,-5.863 -8.974,0 0,-31.554 8.974,0 0,31.554 z m 23.178,0.659 c -9.556,0 -16.592,-6.917 -16.592,-16.47 0,-9.618 7.036,-16.732 16.592,-16.732 9.489,0 16.462,7.114 16.462,16.732 0,9.553 -6.973,16.47 -16.462,16.47 m 0,-25.034 c -4.713,0 -7.747,3.822 -7.747,8.564 0,4.677 3.034,8.302 7.747,8.302 4.648,0 7.617,-3.625 7.617,-8.302 0,-4.742 -2.969,-8.564 -7.617,-8.564 m 40.414,25.363 c -3.486,0 -6.327,-1.186 -8.845,-3.229 l 0,2.241 -8.974,0 0,-31.554 8.974,0 0,20.29 c 2.067,2.569 4.519,3.952 6.779,3.952 4.197,0 6.649,-2.701 6.649,-7.708 l 0,-16.534 8.975,0 0,17.324 c 0,9.223 -5.423,15.218 -13.558,15.218 m 70.045,-0.988 -8.973,0 0,-1.845 c -2.388,1.582 -5.295,2.504 -8.78,2.504 -8.521,0 -15.43,-7.181 -15.43,-16.47 0,-9.156 6.909,-16.402 15.43,-16.402 3.485,0 6.392,0.922 8.78,2.502 l 0,-1.843 8.973,0 0,31.554 z m -16.269,-24.44 c -4.712,0 -8.006,4.018 -8.006,8.629 0,4.677 3.294,8.762 8.006,8.762 2.648,0 5.295,-0.922 7.296,-3.689 l 0,-10.079 c -2.001,-2.702 -4.648,-3.623 -7.296,-3.623 m 42.286,25.428 c -3.486,0 -6.327,-1.186 -8.845,-3.229 l 0,2.241 -8.974,0 0,-31.554 8.974,0 0,20.29 c 2.066,2.569 4.519,3.952 6.779,3.952 4.197,0 6.649,-2.701 6.649,-7.708 l 0,-16.534 8.975,0 0,17.324 c 0,9.223 -5.424,15.218 -13.558,15.218 m 52.68,14.229 -8.973,0 0,-17.062 c -2.389,1.582 -5.293,2.504 -8.78,2.504 -8.522,0 -15.429,-7.246 -15.429,-16.402 0,-9.29 6.907,-16.47 15.429,-16.47 3.487,0 6.391,0.922 8.78,2.502 l 0,-1.843 8.973,0 0,46.771 z m -16.268,-39.722 c -4.713,0 -8.005,4.083 -8.005,8.762 0,4.609 3.292,8.628 8.005,8.628 2.647,0 5.294,-0.922 7.295,-3.623 l 0,-10.079 c -2.001,-2.767 -4.648,-3.688 -7.295,-3.688 m 59.198,38.734 c -10.07,0 -16.785,-5.73 -16.785,-14.361 0,-6.983 3.81,-11.397 12.525,-13.175 l 7.165,-1.383 c 4.456,-0.856 5.488,-2.766 5.488,-4.612 0,-3.03 -2.581,-4.809 -7.23,-4.809 -5.875,0 -9.749,2.832 -10.459,7.378 l -9.296,0 c 0.774,-10.012 8.651,-15.745 19.238,-15.745 10.522,0 17.431,5.666 17.431,14.23 0,7.51 -4.971,10.804 -13.364,12.649 l -5.422,1.119 c -4.003,0.791 -6.198,2.108 -6.198,5.139 0,3.491 3.033,5.468 7.618,5.468 5.293,0 7.747,-2.636 8.327,-6.587 l 9.233,0 C 497.099,6.522 487.222,9.618 479.861,9.618 m 40.48,-38.34 c -4.713,0 -7.747,3.623 -7.747,8.3 0,4.677 3.034,8.367 7.747,8.367 3.421,0 5.938,-1.977 6.584,-5.007 l 8.974,0 c -0.905,7.774 -7.425,13.11 -15.558,13.11 -9.362,0 -16.593,-6.984 -16.593,-16.47 0,-9.421 7.231,-16.468 16.593,-16.468 8.133,0 14.653,5.336 15.558,13.11 l -8.974,0 c -0.646,-3.032 -3.163,-4.942 -6.584,-4.942 m 26.726,29.974 c 2.971,0 5.36,2.239 5.36,5.27 0,3.096 -2.389,5.402 -5.36,5.402 -3.033,0 -5.421,-2.306 -5.421,-5.402 0,-3.031 2.388,-5.27 5.421,-5.27 m 4.52,-5.863 -8.975,0 0,-31.554 8.975,0 0,31.554 z m 38.348,-15.152 c 0,9.421 -6.584,15.811 -15.301,15.811 -9.877,0 -16.462,-6.984 -16.462,-16.47 0,-9.421 6.649,-16.468 16.592,-16.468 7.296,0 13.105,3.886 14.783,9.947 l -9.36,0 c -0.968,-1.581 -2.711,-2.37 -5.229,-2.37 -4.456,0 -6.844,2.436 -7.748,5.598 l 22.531,0 c 0.194,1.318 0.194,2.634 0.194,3.952 m -15.559,8.3 c 3.744,0 6.133,-2.173 6.649,-5.862 l -13.944,0 c 0.84,3.36 3.163,5.862 7.295,5.862 m 39.511,7.84 c -3.487,0 -6.327,-1.186 -8.845,-3.229 l 0,2.241 -8.973,0 0,-31.554 8.973,0 0,20.29 c 2.066,2.569 4.519,3.952 6.778,3.952 4.198,0 6.65,-2.701 6.65,-7.708 l 0,-16.534 8.973,0 0,17.324 c 0,9.223 -5.422,15.218 -13.556,15.218 m 36.088,-25.099 c -4.711,0 -7.747,3.623 -7.747,8.3 0,4.677 3.036,8.367 7.747,8.367 3.422,0 5.94,-1.977 6.586,-5.007 l 8.972,0 c -0.903,7.774 -7.424,13.11 -15.558,13.11 -9.36,0 -16.591,-6.984 -16.591,-16.47 0,-9.421 7.231,-16.468 16.591,-16.468 8.134,0 14.655,5.336 15.558,13.11 l -8.972,0 c -0.646,-3.032 -3.164,-4.942 -6.586,-4.942 m 52.292,8.959 c 0,9.421 -6.584,15.811 -15.3,15.811 -9.878,0 -16.462,-6.984 -16.462,-16.47 0,-9.421 6.649,-16.468 16.591,-16.468 7.295,0 13.106,3.886 14.784,9.947 l -9.36,0 c -0.969,-1.581 -2.712,-2.37 -5.23,-2.37 -4.455,0 -6.844,2.436 -7.747,5.598 l 22.531,0 c 0.193,1.318 0.193,2.634 0.193,3.952 m -15.558,8.3 c 3.744,0 6.133,-2.173 6.649,-5.862 l -13.944,0 c 0.84,3.36 3.163,5.862 7.295,5.862" /></g><g
           transform="translate(270.0679,397.2832)"
           id="g3391"><path
             id="path3393"
             style="fill:#000000;fill-opacity:1;fill-rule:nonzero;stroke:none"
             d="M 0,0 -6.649,0 -23.047,-26.351 -39.445,0 l -6.714,0 0,-44.796 9.426,0 -0.129,24.506 11.039,-17.721 0,-0.065 5.488,0 10.974,17.589 0,-24.309 9.361,0 L 0,0 Z m 13.364,-7.379 c 2.969,0 5.357,2.24 5.357,5.271 0,3.096 -2.388,5.401 -5.357,5.401 -3.035,0 -5.424,-2.305 -5.424,-5.401 0,-3.031 2.389,-5.271 5.424,-5.271 m 4.519,-5.862 -8.974,0 0,-31.555 8.974,0 0,31.555 z m 26.211,0.988 c -3.487,0 -6.328,-1.185 -8.845,-3.228 l 0,2.24 -8.973,0 0,-31.555 8.973,0 0,20.29 c 2.066,2.569 4.519,3.951 6.778,3.951 4.197,0 6.649,-2.699 6.649,-7.706 l 0,-16.535 8.975,0 0,17.325 c 0,9.223 -5.423,15.218 -13.557,15.218 m 26.081,4.874 c 2.971,0 5.359,2.24 5.359,5.271 0,3.096 -2.388,5.401 -5.359,5.401 -3.034,0 -5.423,-2.305 -5.423,-5.401 0,-3.031 2.389,-5.271 5.423,-5.271 m 4.519,-5.862 -8.975,0 0,-31.555 8.975,0 0,31.555 z m 6.263,-20.62 c 0.645,-8.959 7.423,-11.923 14.589,-11.923 7.876,0 13.946,3.556 13.946,10.672 0,5.928 -4.326,8.365 -9.362,9.289 l -5.617,0.921 c -2.841,0.527 -3.679,1.78 -3.679,2.965 0,1.45 1.485,2.701 4.583,2.701 2.97,0 5.488,-1.119 5.682,-3.953 l 8.198,0.067 c -0.645,8.892 -8.585,10.737 -13.88,10.737 -7.94,0 -13.363,-3.887 -13.363,-10.409 0,-5.863 4.39,-8.498 9.102,-9.354 l 6.586,-1.12 c 2.065,-0.395 3.099,-1.382 3.099,-2.635 0,-1.647 -2.131,-2.701 -5.23,-2.701 -3.55,0 -5.94,1.317 -6.456,4.678 l -8.198,0.065 z m 57.779,-2.634 c -1.743,-0.462 -3.55,-0.857 -5.23,-0.857 -3.292,0 -5.422,1.646 -5.422,5.204 l 0,11.199 11.168,0 0,7.708 -11.168,0 0,11.265 -8.909,0 0,-11.265 -6.52,0 0,-7.708 6.52,0 0,-11.265 c 0,-8.169 4.906,-13.57 12.395,-13.57 2.905,0 4.583,0.263 8.327,1.449 l -1.161,7.84 z m 16.267,23.254 -8.972,0 0,-31.555 8.972,0 0,18.84 c 2.583,2.899 6.005,4.348 10.847,4.547 l 0,8.694 c -4.584,0 -8.071,-1.448 -10.847,-4.084 l 0,3.558 z m 52.551,0.065 -9.426,0 -9.038,-21.542 -10.007,21.542 -9.554,0 15.042,-32.411 -6.004,-14.361 9.426,0 19.561,46.772 z m 32.731,0.594 c -9.555,0 -16.591,-6.917 -16.591,-16.47 0,-9.618 7.036,-16.732 16.591,-16.732 9.49,0 16.463,7.114 16.463,16.732 0,9.553 -6.973,16.47 -16.463,16.47 m 0,-25.034 c -4.712,0 -7.747,3.822 -7.747,8.564 0,4.677 3.035,8.3 7.747,8.3 4.647,0 7.618,-3.623 7.618,-8.3 0,-4.742 -2.971,-8.564 -7.618,-8.564 m 35.636,24.375 0,4.545 c 0,3.492 2.389,5.797 6.004,5.797 1.162,0 3.034,-0.263 4.585,-0.592 l 1.226,7.838 c -2.648,0.724 -5.358,1.121 -7.617,1.121 -7.876,0 -13.171,-5.666 -13.171,-14.23 l 0,-4.479 -8.264,0 0,-7.708 8.264,0 0,-23.847 8.973,0 0,23.847 11.75,0 0,7.708 -11.75,0 z M 347.646,0 l -9.362,0 0,-18.577 -19.626,0 0,18.577 -9.362,0 0,-44.796 9.362,0 0,17.523 19.626,0 0,-17.523 9.362,0 0,44.796 z m 13.362,-7.379 c 2.97,0 5.359,2.24 5.359,5.271 0,3.096 -2.389,5.401 -5.359,5.401 -3.034,0 -5.423,-2.305 -5.423,-5.401 0,-3.031 2.389,-5.271 5.423,-5.271 m 4.519,-5.862 -8.974,0 0,-31.555 8.974,0 0,31.555 z m 40.349,0 -8.909,0 0,-1.252 c -2.388,1.581 -5.293,2.503 -8.78,2.503 -8.521,0 -15.429,-6.653 -15.429,-16.14 0,-8.233 6.908,-15.414 15.429,-15.414 3.487,0 6.392,0.921 8.78,2.502 l 0,-3.426 c 0,-4.939 -3.099,-7.575 -7.101,-7.575 -4.261,0 -6.843,2.174 -7.23,5.468 l -9.04,0 c 0.648,-8.037 7.297,-13.636 16.27,-13.636 9.361,0 16.01,5.928 16.01,15.811 l 0,31.159 z m -16.204,-22.596 c -4.713,0 -8.005,4.084 -8.005,7.707 0,4.941 3.292,8.366 8.005,8.366 2.711,0 5.294,-0.922 7.295,-3.755 l 0,-8.497 c -2.001,-2.899 -4.584,-3.821 -7.295,-3.821 m 42.22,23.584 c -3.486,0 -6.326,-1.185 -8.844,-3.228 l 0,17.457 -8.973,0 0,-46.772 8.973,0 0,20.29 c 2.066,2.569 4.52,3.951 6.78,3.951 4.195,0 6.649,-2.699 6.649,-7.706 l 0,-16.535 8.974,0 0,17.325 c 0,9.223 -5.424,15.218 -13.559,15.218 m 51.261,-16.14 c 0,9.42 -6.585,15.811 -15.3,15.811 -9.878,0 -16.464,-6.984 -16.464,-16.47 0,-9.421 6.651,-16.469 16.593,-16.469 7.295,0 13.104,3.887 14.784,9.947 l -9.361,0 c -0.969,-1.58 -2.712,-2.371 -5.23,-2.371 -4.454,0 -6.842,2.438 -7.748,5.599 l 22.531,0 c 0.195,1.319 0.195,2.635 0.195,3.953 m -15.558,8.3 c 3.744,0 6.133,-2.173 6.65,-5.863 l -13.947,0 c 0.84,3.36 3.165,5.863 7.297,5.863 m 30.665,6.852 -8.973,0 0,-31.555 8.973,0 0,18.84 c 2.582,2.899 6.004,4.348 10.846,4.547 l 0,8.694 c -4.583,0 -8.069,-1.448 -10.846,-4.084 l 0,3.558 z" /></g></g></g></g></svg>