<svg width="1051" height="1097" viewBox="0 0 1051 1097" fill="none" xmlns="http://www.w3.org/2000/svg">
<path d="M28.3635 1V18.4177M28.3635 18.4177V35.8353M28.3635 18.4177H10.9506M28.3635 18.4177H45.7764" stroke="#982E0A" stroke-opacity="0.35" stroke-width="2" stroke-linecap="round" stroke-linejoin="round"/>
<path d="M134.528 3.48824L137.551 20.6413M137.551 20.6413L140.575 37.7943M137.551 20.6413L120.403 23.6658M137.551 20.6413L154.7 17.6167" stroke="#982E0A" stroke-opacity="0.35" stroke-width="2" stroke-linecap="round" stroke-linejoin="round"/>
<path d="M240.263 3.48824L246.219 19.8555M246.219 19.8555L252.175 36.2227M246.219 19.8555L229.856 25.8127M246.219 19.8555L262.582 13.8983" stroke="#982E0A" stroke-opacity="0.35" stroke-width="2" stroke-linecap="round" stroke-linejoin="round"/>
<path d="M343.195 3.48824L351.901 18.5724M351.901 18.5724L360.607 33.6565M351.901 18.5724L336.821 27.2812M351.901 18.5724L366.981 9.86354" stroke="#982E0A" stroke-opacity="0.35" stroke-width="2" stroke-linecap="round" stroke-linejoin="round"/>
<path d="M443.445 5.97647L454.638 19.3192M454.638 19.3192L465.831 32.6619M454.638 19.3192L441.299 30.515M454.638 19.3192L467.977 8.12332" stroke="#982E0A" stroke-opacity="0.35" stroke-width="2" stroke-linecap="round" stroke-linejoin="round"/>
<path d="M543.289 8.12332L556.628 19.3192M556.628 19.3192L569.967 30.515M556.628 19.3192L545.435 32.6619M556.628 19.3192L567.821 5.97647" stroke="#982E0A" stroke-opacity="0.35" stroke-width="2" stroke-linecap="round" stroke-linejoin="round"/>
<path d="M645.279 9.86354L660.359 18.5724M660.359 18.5724L675.439 27.2812M660.359 18.5724L651.653 33.6565M660.359 18.5724L669.066 3.48824" stroke="#982E0A" stroke-opacity="0.35" stroke-width="2" stroke-linecap="round" stroke-linejoin="round"/>
<path d="M749.757 13.8983L766.119 19.8555M766.119 19.8555L782.482 25.8127M766.119 19.8555L760.164 36.2227M766.119 19.8555L772.075 3.48824" stroke="#982E0A" stroke-opacity="0.35" stroke-width="2" stroke-linecap="round" stroke-linejoin="round"/>
<path d="M856.721 17.6167L873.87 20.6413M873.87 20.6413L891.018 23.6658M873.87 20.6413L870.846 37.7943M873.87 20.6413L876.894 3.48824" stroke="#982E0A" stroke-opacity="0.35" stroke-width="2" stroke-linecap="round" stroke-linejoin="round"/>
<path d="M966.174 20.9059H983.587M983.587 20.9059L1001 20.9059M983.587 20.9059L983.587 38.3235M983.587 20.9059L983.587 3.48824" stroke="#982E0A" stroke-opacity="0.35" stroke-width="2" stroke-linecap="round" stroke-linejoin="round"/>
<path d="M28.3635 1V18.4177M28.3635 18.4177V35.8353M28.3635 18.4177H10.9506M28.3635 18.4177H45.7764" stroke="#982E0A" stroke-opacity="0.35" stroke-width="2" stroke-linecap="round" stroke-linejoin="round"/>
<path d="M134.528 3.48824L137.551 20.6413M137.551 20.6413L140.575 37.7943M137.551 20.6413L120.403 23.6658M137.551 20.6413L154.7 17.6167" stroke="#982E0A" stroke-opacity="0.35" stroke-width="2" stroke-linecap="round" stroke-linejoin="round"/>
<path d="M240.263 3.48824L246.219 19.8555M246.219 19.8555L252.175 36.2227M246.219 19.8555L229.856 25.8127M246.219 19.8555L262.582 13.8983" stroke="#982E0A" stroke-opacity="0.35" stroke-width="2" stroke-linecap="round" stroke-linejoin="round"/>
<path d="M343.195 3.48824L351.901 18.5724M351.901 18.5724L360.607 33.6565M351.901 18.5724L336.821 27.2812M351.901 18.5724L366.981 9.86354" stroke="#982E0A" stroke-opacity="0.35" stroke-width="2" stroke-linecap="round" stroke-linejoin="round"/>
<path d="M443.445 5.97647L454.638 19.3192M454.638 19.3192L465.831 32.6619M454.638 19.3192L441.299 30.515M454.638 19.3192L467.977 8.12332" stroke="#982E0A" stroke-opacity="0.35" stroke-width="2" stroke-linecap="round" stroke-linejoin="round"/>
<path d="M543.289 8.12332L556.628 19.3192M556.628 19.3192L569.967 30.515M556.628 19.3192L545.435 32.6619M556.628 19.3192L567.821 5.97647" stroke="#982E0A" stroke-opacity="0.35" stroke-width="2" stroke-linecap="round" stroke-linejoin="round"/>
<path d="M645.279 9.86354L660.359 18.5724M660.359 18.5724L675.439 27.2812M660.359 18.5724L651.653 33.6565M660.359 18.5724L669.066 3.48824" stroke="#982E0A" stroke-opacity="0.35" stroke-width="2" stroke-linecap="round" stroke-linejoin="round"/>
<path d="M749.757 13.8983L766.119 19.8555M766.119 19.8555L782.482 25.8127M766.119 19.8555L760.164 36.2227M766.119 19.8555L772.075 3.48824" stroke="#982E0A" stroke-opacity="0.35" stroke-width="2" stroke-linecap="round" stroke-linejoin="round"/>
<path d="M966.174 20.9059H983.587M983.587 20.9059L1001 20.9059M983.587 20.9059L983.587 38.3235M983.587 20.9059L983.587 3.48824" stroke="#982E0A" stroke-opacity="0.35" stroke-width="2" stroke-linecap="round" stroke-linejoin="round"/>
<path d="M555.726 112.971V130.388M555.726 130.388V147.806M555.726 130.388H538.313M555.726 130.388H573.139" stroke="#982E0A" stroke-opacity="0.35" stroke-width="2" stroke-linecap="round" stroke-linejoin="round"/>
<path d="M661.891 115.459L664.915 132.612M664.915 132.612L667.938 149.765M664.915 132.612L647.766 135.636M664.915 132.612L682.063 129.587" stroke="#982E0A" stroke-opacity="0.35" stroke-width="2" stroke-linecap="round" stroke-linejoin="round"/>
<path d="M767.627 115.459L773.582 131.826M773.582 131.826L779.538 148.193M773.582 131.826L757.219 137.783M773.582 131.826L789.945 125.869" stroke="#982E0A" stroke-opacity="0.35" stroke-width="2" stroke-linecap="round" stroke-linejoin="round"/>
<path d="M870.558 115.459L879.264 130.543M879.264 130.543L887.971 145.627M879.264 130.543L864.184 139.252M879.264 130.543L894.344 121.834" stroke="#982E0A" stroke-opacity="0.35" stroke-width="2" stroke-linecap="round" stroke-linejoin="round"/>
<path d="M970.808 117.947L982.001 131.29M982.001 131.29L993.194 144.633M982.001 131.29L968.662 142.486M982.001 131.29L995.34 120.094" stroke="#982E0A" stroke-opacity="0.35" stroke-width="2" stroke-linecap="round" stroke-linejoin="round"/>
<path d="M10.9506 120.094L24.2896 131.29M24.2896 131.29L37.6287 142.486M24.2896 131.29L13.0968 144.633M24.2896 131.29L35.4825 117.947" stroke="#982E0A" stroke-opacity="0.35" stroke-width="2" stroke-linecap="round" stroke-linejoin="round"/>
<path d="M112.941 121.834L128.021 130.543M128.021 130.543L143.101 139.252M128.021 130.543L119.314 145.627M128.021 130.543L136.727 115.459" stroke="#982E0A" stroke-opacity="0.35" stroke-width="2" stroke-linecap="round" stroke-linejoin="round"/>
<path d="M217.418 125.869L233.781 131.826M233.781 131.826L250.144 137.783M233.781 131.826L227.826 148.193M233.781 131.826L239.737 115.459" stroke="#982E0A" stroke-opacity="0.35" stroke-width="2" stroke-linecap="round" stroke-linejoin="round"/>
<path d="M324.383 129.587L341.532 132.612M341.532 132.612L358.68 135.636M341.532 132.612L338.508 149.765M341.532 132.612L344.555 115.459" stroke="#982E0A" stroke-opacity="0.35" stroke-width="2" stroke-linecap="round" stroke-linejoin="round"/>
<path d="M433.836 132.877H451.249M451.249 132.877L468.662 132.877M451.249 132.877L451.249 150.294M451.249 132.877L451.249 115.459" stroke="#982E0A" stroke-opacity="0.35" stroke-width="2" stroke-linecap="round" stroke-linejoin="round"/>
<path d="M555.726 112.971V130.388M555.726 130.388V147.806M555.726 130.388H538.313M555.726 130.388H573.139" stroke="#982E0A" stroke-opacity="0.35" stroke-width="2" stroke-linecap="round" stroke-linejoin="round"/>
<path d="M661.891 115.459L664.915 132.612M664.915 132.612L667.938 149.765M664.915 132.612L647.766 135.636M664.915 132.612L682.063 129.587" stroke="#982E0A" stroke-opacity="0.35" stroke-width="2" stroke-linecap="round" stroke-linejoin="round"/>
<path d="M767.627 115.459L773.582 131.826M773.582 131.826L779.538 148.193M773.582 131.826L757.219 137.783M773.582 131.826L789.945 125.869" stroke="#982E0A" stroke-opacity="0.35" stroke-width="2" stroke-linecap="round" stroke-linejoin="round"/>
<path d="M870.558 115.459L879.264 130.543M879.264 130.543L887.971 145.627M879.264 130.543L864.184 139.252M879.264 130.543L894.344 121.834" stroke="#982E0A" stroke-opacity="0.35" stroke-width="2" stroke-linecap="round" stroke-linejoin="round"/>
<path d="M970.808 117.947L982.001 131.29M982.001 131.29L993.194 144.633M982.001 131.29L968.662 142.486M982.001 131.29L995.34 120.094" stroke="#982E0A" stroke-opacity="0.35" stroke-width="2" stroke-linecap="round" stroke-linejoin="round"/>
<path d="M10.9506 120.094L24.2896 131.29M24.2896 131.29L37.6287 142.486M24.2896 131.29L13.0968 144.633M24.2896 131.29L35.4825 117.947" stroke="#982E0A" stroke-opacity="0.35" stroke-width="2" stroke-linecap="round" stroke-linejoin="round"/>
<path d="M112.941 121.834L128.021 130.543M128.021 130.543L143.101 139.252M128.021 130.543L119.314 145.627M128.021 130.543L136.727 115.459" stroke="#982E0A" stroke-opacity="0.35" stroke-width="2" stroke-linecap="round" stroke-linejoin="round"/>
<path d="M217.418 125.869L233.781 131.826M233.781 131.826L250.144 137.783M233.781 131.826L227.826 148.193M233.781 131.826L239.737 115.459" stroke="#982E0A" stroke-opacity="0.35" stroke-width="2" stroke-linecap="round" stroke-linejoin="round"/>
<path d="M324.383 129.587L341.532 132.612M341.532 132.612L358.68 135.636M341.532 132.612L338.508 149.765M341.532 132.612L344.555 115.459" stroke="#982E0A" stroke-opacity="0.35" stroke-width="2" stroke-linecap="round" stroke-linejoin="round"/>
<path d="M433.836 132.877H451.249M451.249 132.877L468.662 132.877M451.249 132.877L451.249 150.294M451.249 132.877L451.249 115.459" stroke="#982E0A" stroke-opacity="0.35" stroke-width="2" stroke-linecap="round" stroke-linejoin="round"/>
<path d="M28.3635 224.941V242.359M28.3635 242.359V259.777M28.3635 242.359H10.9506M28.3635 242.359H45.7764" stroke="#982E0A" stroke-opacity="0.35" stroke-width="2" stroke-linecap="round" stroke-linejoin="round"/>
<path d="M134.528 227.43L137.551 244.583M137.551 244.583L140.575 261.736M137.551 244.583L120.403 247.607M137.551 244.583L154.7 241.558" stroke="#982E0A" stroke-opacity="0.35" stroke-width="2" stroke-linecap="round" stroke-linejoin="round"/>
<path d="M240.263 227.43L246.219 243.797M246.219 243.797L252.175 260.164M246.219 243.797L229.856 249.754M246.219 243.797L262.582 237.84" stroke="#982E0A" stroke-opacity="0.35" stroke-width="2" stroke-linecap="round" stroke-linejoin="round"/>
<path d="M343.195 227.43L351.901 242.514M351.901 242.514L360.607 257.598M351.901 242.514L336.821 251.222M351.901 242.514L366.981 233.805" stroke="#982E0A" stroke-opacity="0.35" stroke-width="2" stroke-linecap="round" stroke-linejoin="round"/>
<path d="M443.445 229.918L454.638 243.26M454.638 243.26L465.831 256.603M454.638 243.26L441.299 254.456M454.638 243.26L467.977 232.065" stroke="#982E0A" stroke-opacity="0.35" stroke-width="2" stroke-linecap="round" stroke-linejoin="round"/>
<path d="M543.289 232.065L556.628 243.26M556.628 243.26L569.967 254.456M556.628 243.26L545.435 256.603M556.628 243.26L567.821 229.918" stroke="#982E0A" stroke-opacity="0.35" stroke-width="2" stroke-linecap="round" stroke-linejoin="round"/>
<path d="M645.279 233.805L660.359 242.514M660.359 242.514L675.439 251.222M660.359 242.514L651.653 257.598M660.359 242.514L669.066 227.43" stroke="#982E0A" stroke-opacity="0.35" stroke-width="2" stroke-linecap="round" stroke-linejoin="round"/>
<path d="M749.757 237.84L766.119 243.797M766.119 243.797L782.482 249.754M766.119 243.797L760.164 260.164M766.119 243.797L772.075 227.43" stroke="#982E0A" stroke-opacity="0.35" stroke-width="2" stroke-linecap="round" stroke-linejoin="round"/>
<path d="M856.721 241.558L873.87 244.583M873.87 244.583L891.018 247.607M873.87 244.583L870.846 261.736M873.87 244.583L876.894 227.43" stroke="#982E0A" stroke-opacity="0.35" stroke-width="2" stroke-linecap="round" stroke-linejoin="round"/>
<path d="M966.174 244.847H983.587M983.587 244.847L1001 244.847M983.587 244.847L983.587 262.265M983.587 244.847L983.587 227.43" stroke="#982E0A" stroke-opacity="0.35" stroke-width="2" stroke-linecap="round" stroke-linejoin="round"/>
<path d="M28.3635 224.941V242.359M28.3635 242.359V259.777M28.3635 242.359H10.9506M28.3635 242.359H45.7764" stroke="#982E0A" stroke-opacity="0.35" stroke-width="2" stroke-linecap="round" stroke-linejoin="round"/>
<path d="M134.528 227.43L137.551 244.583M137.551 244.583L140.575 261.736M137.551 244.583L120.403 247.607M137.551 244.583L154.7 241.558" stroke="#982E0A" stroke-opacity="0.35" stroke-width="2" stroke-linecap="round" stroke-linejoin="round"/>
<path d="M240.263 227.43L246.219 243.797M246.219 243.797L252.175 260.164M246.219 243.797L229.856 249.754M246.219 243.797L262.582 237.84" stroke="#982E0A" stroke-opacity="0.35" stroke-width="2" stroke-linecap="round" stroke-linejoin="round"/>
<path d="M343.195 227.43L351.901 242.514M351.901 242.514L360.607 257.598M351.901 242.514L336.821 251.222M351.901 242.514L366.981 233.805" stroke="#982E0A" stroke-opacity="0.35" stroke-width="2" stroke-linecap="round" stroke-linejoin="round"/>
<path d="M443.445 229.918L454.638 243.26M454.638 243.26L465.831 256.603M454.638 243.26L441.299 254.456M454.638 243.26L467.977 232.065" stroke="#982E0A" stroke-opacity="0.35" stroke-width="2" stroke-linecap="round" stroke-linejoin="round"/>
<path d="M543.289 232.065L556.628 243.26M556.628 243.26L569.967 254.456M556.628 243.26L545.435 256.603M556.628 243.26L567.821 229.918" stroke="#982E0A" stroke-opacity="0.35" stroke-width="2" stroke-linecap="round" stroke-linejoin="round"/>
<path d="M645.279 233.805L660.359 242.514M660.359 242.514L675.439 251.222M660.359 242.514L651.653 257.598M660.359 242.514L669.066 227.43" stroke="#982E0A" stroke-opacity="0.35" stroke-width="2" stroke-linecap="round" stroke-linejoin="round"/>
<path d="M749.757 237.84L766.119 243.797M766.119 243.797L782.482 249.754M766.119 243.797L760.164 260.164M766.119 243.797L772.075 227.43" stroke="#982E0A" stroke-opacity="0.35" stroke-width="2" stroke-linecap="round" stroke-linejoin="round"/>
<path d="M856.721 241.558L873.87 244.583M873.87 244.583L891.018 247.607M873.87 244.583L870.846 261.736M873.87 244.583L876.894 227.43" stroke="#982E0A" stroke-opacity="0.35" stroke-width="2" stroke-linecap="round" stroke-linejoin="round"/>
<path d="M966.174 244.847H983.587M983.587 244.847L1001 244.847M983.587 244.847L983.587 262.265M983.587 244.847L983.587 227.43" stroke="#982E0A" stroke-opacity="0.35" stroke-width="2" stroke-linecap="round" stroke-linejoin="round"/>
<path d="M555.726 336.912V354.33M555.726 354.33V371.747M555.726 354.33H538.313M555.726 354.33H573.139" stroke="#982E0A" stroke-opacity="0.35" stroke-width="2" stroke-linecap="round" stroke-linejoin="round"/>
<path d="M661.891 339.4L664.915 356.553M664.915 356.553L667.938 373.706M664.915 356.553L647.766 359.578M664.915 356.553L682.063 353.529" stroke="#982E0A" stroke-opacity="0.35" stroke-width="2" stroke-linecap="round" stroke-linejoin="round"/>
<path d="M767.627 339.4L773.582 355.767M773.582 355.767L779.538 372.135M773.582 355.767L757.219 361.725M773.582 355.767L789.945 349.81" stroke="#982E0A" stroke-opacity="0.35" stroke-width="2" stroke-linecap="round" stroke-linejoin="round"/>
<path d="M870.558 339.4L879.264 354.484M879.264 354.484L887.971 369.568M879.264 354.484L864.184 363.193M879.264 354.484L894.344 345.775" stroke="#982E0A" stroke-opacity="0.35" stroke-width="2" stroke-linecap="round" stroke-linejoin="round"/>
<path d="M970.808 341.888L982.001 355.231M982.001 355.231L993.194 368.574M982.001 355.231L968.662 366.427M982.001 355.231L995.34 344.035" stroke="#982E0A" stroke-opacity="0.35" stroke-width="2" stroke-linecap="round" stroke-linejoin="round"/>
<path d="M10.9506 344.035L24.2896 355.231M24.2896 355.231L37.6287 366.427M24.2896 355.231L13.0968 368.574M24.2896 355.231L35.4825 341.888" stroke="#982E0A" stroke-opacity="0.35" stroke-width="2" stroke-linecap="round" stroke-linejoin="round"/>
<path d="M112.941 345.775L128.021 354.484M128.021 354.484L143.101 363.193M128.021 354.484L119.314 369.568M128.021 354.484L136.727 339.4" stroke="#982E0A" stroke-opacity="0.35" stroke-width="2" stroke-linecap="round" stroke-linejoin="round"/>
<path d="M217.418 349.81L233.781 355.767M233.781 355.767L250.144 361.725M233.781 355.767L227.826 372.135M233.781 355.767L239.737 339.4" stroke="#982E0A" stroke-opacity="0.35" stroke-width="2" stroke-linecap="round" stroke-linejoin="round"/>
<path d="M324.383 353.529L341.532 356.553M341.532 356.553L358.68 359.578M341.532 356.553L338.508 373.706M341.532 356.553L344.555 339.4" stroke="#982E0A" stroke-opacity="0.35" stroke-width="2" stroke-linecap="round" stroke-linejoin="round"/>
<path d="M433.836 356.818H451.249M451.249 356.818L468.662 356.818M451.249 356.818L451.249 374.235M451.249 356.818L451.249 339.4" stroke="#982E0A" stroke-opacity="0.35" stroke-width="2" stroke-linecap="round" stroke-linejoin="round"/>
<path d="M555.726 336.912V354.33M555.726 354.33V371.747M555.726 354.33H538.313M555.726 354.33H573.139" stroke="#982E0A" stroke-opacity="0.35" stroke-width="2" stroke-linecap="round" stroke-linejoin="round"/>
<path d="M661.891 339.4L664.915 356.553M664.915 356.553L667.938 373.706M664.915 356.553L647.766 359.578M664.915 356.553L682.063 353.529" stroke="#982E0A" stroke-opacity="0.35" stroke-width="2" stroke-linecap="round" stroke-linejoin="round"/>
<path d="M767.627 339.4L773.582 355.767M773.582 355.767L779.538 372.135M773.582 355.767L757.219 361.725M773.582 355.767L789.945 349.81" stroke="#982E0A" stroke-opacity="0.35" stroke-width="2" stroke-linecap="round" stroke-linejoin="round"/>
<path d="M870.558 339.4L879.264 354.484M879.264 354.484L887.971 369.568M879.264 354.484L864.184 363.193M879.264 354.484L894.344 345.775" stroke="#982E0A" stroke-opacity="0.35" stroke-width="2" stroke-linecap="round" stroke-linejoin="round"/>
<path d="M970.808 341.888L982.001 355.231M982.001 355.231L993.194 368.574M982.001 355.231L968.662 366.427M982.001 355.231L995.34 344.035" stroke="#982E0A" stroke-opacity="0.35" stroke-width="2" stroke-linecap="round" stroke-linejoin="round"/>
<path d="M10.9506 344.035L24.2896 355.231M24.2896 355.231L37.6287 366.427M24.2896 355.231L13.0968 368.574M24.2896 355.231L35.4825 341.888" stroke="#982E0A" stroke-opacity="0.35" stroke-width="2" stroke-linecap="round" stroke-linejoin="round"/>
<path d="M112.941 345.775L128.021 354.484M128.021 354.484L143.101 363.193M128.021 354.484L119.314 369.568M128.021 354.484L136.727 339.4" stroke="#982E0A" stroke-opacity="0.35" stroke-width="2" stroke-linecap="round" stroke-linejoin="round"/>
<path d="M217.418 349.81L233.781 355.767M233.781 355.767L250.144 361.725M233.781 355.767L227.826 372.135M233.781 355.767L239.737 339.4" stroke="#982E0A" stroke-opacity="0.35" stroke-width="2" stroke-linecap="round" stroke-linejoin="round"/>
<path d="M324.383 353.529L341.532 356.553M341.532 356.553L358.68 359.578M341.532 356.553L338.508 373.706M341.532 356.553L344.555 339.4" stroke="#982E0A" stroke-opacity="0.35" stroke-width="2" stroke-linecap="round" stroke-linejoin="round"/>
<path d="M433.836 356.818H451.249M451.249 356.818L468.662 356.818M451.249 356.818L451.249 374.235M451.249 356.818L451.249 339.4" stroke="#982E0A" stroke-opacity="0.35" stroke-width="2" stroke-linecap="round" stroke-linejoin="round"/>
<path d="M23.3879 448.883V466.3M23.3879 466.3V483.718M23.3879 466.3H5.97498M23.3879 466.3H40.8009" stroke="#982E0A" stroke-opacity="0.35" stroke-width="2" stroke-linecap="round" stroke-linejoin="round"/>
<path d="M129.552 451.371L132.576 468.524M132.576 468.524L135.6 485.677M132.576 468.524L115.427 471.548M132.576 468.524L149.724 465.499" stroke="#982E0A" stroke-opacity="0.35" stroke-width="2" stroke-linecap="round" stroke-linejoin="round"/>
<path d="M235.288 451.371L241.243 467.738M241.243 467.738L247.199 484.105M241.243 467.738L224.881 473.695M241.243 467.738L257.606 461.781" stroke="#982E0A" stroke-opacity="0.35" stroke-width="2" stroke-linecap="round" stroke-linejoin="round"/>
<path d="M338.219 451.371L346.925 466.455M346.925 466.455L355.632 481.539M346.925 466.455L331.845 475.164M346.925 466.455L362.005 457.746" stroke="#982E0A" stroke-opacity="0.35" stroke-width="2" stroke-linecap="round" stroke-linejoin="round"/>
<path d="M438.47 453.859L449.663 467.202M449.663 467.202L460.855 480.544M449.663 467.202L436.323 478.398M449.663 467.202L463.002 456.006" stroke="#982E0A" stroke-opacity="0.35" stroke-width="2" stroke-linecap="round" stroke-linejoin="round"/>
<path d="M538.313 456.006L551.652 467.202M551.652 467.202L564.991 478.398M551.652 467.202L540.459 480.544M551.652 467.202L562.845 453.859" stroke="#982E0A" stroke-opacity="0.35" stroke-width="2" stroke-linecap="round" stroke-linejoin="round"/>
<path d="M640.304 457.746L655.384 466.455M655.384 466.455L670.464 475.164M655.384 466.455L646.677 481.539M655.384 466.455L664.09 451.371" stroke="#982E0A" stroke-opacity="0.35" stroke-width="2" stroke-linecap="round" stroke-linejoin="round"/>
<path d="M744.781 461.781L761.144 467.738M761.144 467.738L777.507 473.695M761.144 467.738L755.188 484.105M761.144 467.738L767.099 451.371" stroke="#982E0A" stroke-opacity="0.35" stroke-width="2" stroke-linecap="round" stroke-linejoin="round"/>
<path d="M851.746 465.499L868.894 468.524M868.894 468.524L886.043 471.548M868.894 468.524L865.871 485.677M868.894 468.524L871.918 451.371" stroke="#982E0A" stroke-opacity="0.35" stroke-width="2" stroke-linecap="round" stroke-linejoin="round"/>
<path d="M961.199 468.788H978.612M978.612 468.788L996.025 468.788M978.612 468.788L978.612 486.206M978.612 468.788L978.612 451.371" stroke="#982E0A" stroke-opacity="0.35" stroke-width="2" stroke-linecap="round" stroke-linejoin="round"/>
<path d="M23.3879 448.883V466.3M23.3879 466.3V483.718M23.3879 466.3H5.97498M23.3879 466.3H40.8009" stroke="#982E0A" stroke-opacity="0.35" stroke-width="2" stroke-linecap="round" stroke-linejoin="round"/>
<path d="M129.552 451.371L132.576 468.524M132.576 468.524L135.6 485.677M132.576 468.524L115.427 471.548M132.576 468.524L149.724 465.499" stroke="#982E0A" stroke-opacity="0.35" stroke-width="2" stroke-linecap="round" stroke-linejoin="round"/>
<path d="M235.288 451.371L241.243 467.738M241.243 467.738L247.199 484.105M241.243 467.738L224.881 473.695M241.243 467.738L257.606 461.781" stroke="#982E0A" stroke-opacity="0.35" stroke-width="2" stroke-linecap="round" stroke-linejoin="round"/>
<path d="M338.219 451.371L346.925 466.455M346.925 466.455L355.632 481.539M346.925 466.455L331.845 475.164M346.925 466.455L362.005 457.746" stroke="#982E0A" stroke-opacity="0.35" stroke-width="2" stroke-linecap="round" stroke-linejoin="round"/>
<path d="M438.47 453.859L449.663 467.202M449.663 467.202L460.855 480.544M449.663 467.202L436.323 478.398M449.663 467.202L463.002 456.006" stroke="#982E0A" stroke-opacity="0.35" stroke-width="2" stroke-linecap="round" stroke-linejoin="round"/>
<path d="M538.313 456.006L551.652 467.202M551.652 467.202L564.991 478.398M551.652 467.202L540.459 480.544M551.652 467.202L562.845 453.859" stroke="#982E0A" stroke-opacity="0.35" stroke-width="2" stroke-linecap="round" stroke-linejoin="round"/>
<path d="M640.304 457.746L655.384 466.455M655.384 466.455L670.464 475.164M655.384 466.455L646.677 481.539M655.384 466.455L664.09 451.371" stroke="#982E0A" stroke-opacity="0.35" stroke-width="2" stroke-linecap="round" stroke-linejoin="round"/>
<path d="M744.781 461.781L761.144 467.738M761.144 467.738L777.507 473.695M761.144 467.738L755.188 484.105M761.144 467.738L767.099 451.371" stroke="#982E0A" stroke-opacity="0.35" stroke-width="2" stroke-linecap="round" stroke-linejoin="round"/>
<path d="M851.746 465.499L868.894 468.524M868.894 468.524L886.043 471.548M868.894 468.524L865.871 485.677M868.894 468.524L871.918 451.371" stroke="#982E0A" stroke-opacity="0.35" stroke-width="2" stroke-linecap="round" stroke-linejoin="round"/>
<path d="M961.199 468.788H978.612M978.612 468.788L996.025 468.788M978.612 468.788L978.612 486.206M978.612 468.788L978.612 451.371" stroke="#982E0A" stroke-opacity="0.35" stroke-width="2" stroke-linecap="round" stroke-linejoin="round"/>
<path d="M550.751 560.853V578.271M550.751 578.271V595.689M550.751 578.271H533.338M550.751 578.271H568.164" stroke="#982E0A" stroke-opacity="0.35" stroke-width="2" stroke-linecap="round" stroke-linejoin="round"/>
<path d="M656.915 563.341L659.939 580.494M659.939 580.494L662.963 597.648M659.939 580.494L642.791 583.519M659.939 580.494L677.088 577.47" stroke="#982E0A" stroke-opacity="0.35" stroke-width="2" stroke-linecap="round" stroke-linejoin="round"/>
<path d="M762.651 563.341L768.607 579.709M768.607 579.709L774.562 596.076M768.607 579.709L752.244 585.666M768.607 579.709L784.97 573.751" stroke="#982E0A" stroke-opacity="0.35" stroke-width="2" stroke-linecap="round" stroke-linejoin="round"/>
<path d="M865.582 563.341L874.289 578.426M874.289 578.426L882.995 593.51M874.289 578.426L859.209 587.134M874.289 578.426L889.369 569.717" stroke="#982E0A" stroke-opacity="0.35" stroke-width="2" stroke-linecap="round" stroke-linejoin="round"/>
<path d="M965.832 565.83L977.025 579.172M977.025 579.172L988.218 592.515M977.025 579.172L963.686 590.368M977.025 579.172L990.364 567.977" stroke="#982E0A" stroke-opacity="0.35" stroke-width="2" stroke-linecap="round" stroke-linejoin="round"/>
<path d="M5.97498 567.977L19.3141 579.172M19.3141 579.172L32.6531 590.368M19.3141 579.172L8.12124 592.515M19.3141 579.172L30.5069 565.83" stroke="#982E0A" stroke-opacity="0.35" stroke-width="2" stroke-linecap="round" stroke-linejoin="round"/>
<path d="M107.965 569.717L123.045 578.426M123.045 578.426L138.125 587.134M123.045 578.426L114.339 593.51M123.045 578.426L131.752 563.341" stroke="#982E0A" stroke-opacity="0.35" stroke-width="2" stroke-linecap="round" stroke-linejoin="round"/>
<path d="M212.442 573.751L228.805 579.709M228.805 579.709L245.168 585.666M228.805 579.709L222.849 596.076M228.805 579.709L234.761 563.341" stroke="#982E0A" stroke-opacity="0.35" stroke-width="2" stroke-linecap="round" stroke-linejoin="round"/>
<path d="M319.408 577.47L336.556 580.494M336.556 580.494L353.704 583.519M336.556 580.494L333.532 597.648M336.556 580.494L339.58 563.341" stroke="#982E0A" stroke-opacity="0.35" stroke-width="2" stroke-linecap="round" stroke-linejoin="round"/>
<path d="M428.861 580.759H446.274M446.274 580.759L463.687 580.759M446.274 580.759L446.274 598.177M446.274 580.759L446.274 563.341" stroke="#982E0A" stroke-opacity="0.35" stroke-width="2" stroke-linecap="round" stroke-linejoin="round"/>
<path d="M550.751 560.853V578.271M550.751 578.271V595.689M550.751 578.271H533.338M550.751 578.271H568.164" stroke="#982E0A" stroke-opacity="0.35" stroke-width="2" stroke-linecap="round" stroke-linejoin="round"/>
<path d="M656.915 563.341L659.939 580.494M659.939 580.494L662.963 597.648M659.939 580.494L642.791 583.519M659.939 580.494L677.088 577.47" stroke="#982E0A" stroke-opacity="0.35" stroke-width="2" stroke-linecap="round" stroke-linejoin="round"/>
<path d="M762.651 563.341L768.607 579.709M768.607 579.709L774.562 596.076M768.607 579.709L752.244 585.666M768.607 579.709L784.97 573.751" stroke="#982E0A" stroke-opacity="0.35" stroke-width="2" stroke-linecap="round" stroke-linejoin="round"/>
<path d="M865.582 563.341L874.289 578.426M874.289 578.426L882.995 593.51M874.289 578.426L859.209 587.134M874.289 578.426L889.369 569.717" stroke="#982E0A" stroke-opacity="0.35" stroke-width="2" stroke-linecap="round" stroke-linejoin="round"/>
<path d="M965.832 565.83L977.025 579.172M977.025 579.172L988.218 592.515M977.025 579.172L963.686 590.368M977.025 579.172L990.364 567.977" stroke="#982E0A" stroke-opacity="0.35" stroke-width="2" stroke-linecap="round" stroke-linejoin="round"/>
<path d="M5.97498 567.977L19.3141 579.172M19.3141 579.172L32.6531 590.368M19.3141 579.172L8.12124 592.515M19.3141 579.172L30.5069 565.83" stroke="#982E0A" stroke-opacity="0.35" stroke-width="2" stroke-linecap="round" stroke-linejoin="round"/>
<path d="M107.965 569.717L123.045 578.426M123.045 578.426L138.125 587.134M123.045 578.426L114.339 593.51M123.045 578.426L131.752 563.341" stroke="#982E0A" stroke-opacity="0.35" stroke-width="2" stroke-linecap="round" stroke-linejoin="round"/>
<path d="M212.442 573.751L228.805 579.709M228.805 579.709L245.168 585.666M228.805 579.709L222.849 596.076M228.805 579.709L234.761 563.341" stroke="#982E0A" stroke-opacity="0.35" stroke-width="2" stroke-linecap="round" stroke-linejoin="round"/>
<path d="M319.408 577.47L336.556 580.494M336.556 580.494L353.704 583.519M336.556 580.494L333.532 597.648M336.556 580.494L339.58 563.341" stroke="#982E0A" stroke-opacity="0.35" stroke-width="2" stroke-linecap="round" stroke-linejoin="round"/>
<path d="M428.861 580.759H446.274M446.274 580.759L463.687 580.759M446.274 580.759L446.274 598.177M446.274 580.759L446.274 563.341" stroke="#982E0A" stroke-opacity="0.35" stroke-width="2" stroke-linecap="round" stroke-linejoin="round"/>
<path d="M23.3879 672.824V690.242M23.3879 690.242V707.659M23.3879 690.242H5.97498M23.3879 690.242H40.8009" stroke="#982E0A" stroke-opacity="0.35" stroke-width="2" stroke-linecap="round" stroke-linejoin="round"/>
<path d="M129.552 675.312L132.576 692.465M132.576 692.465L135.6 709.618M132.576 692.465L115.427 695.49M132.576 692.465L149.724 689.441" stroke="#982E0A" stroke-opacity="0.35" stroke-width="2" stroke-linecap="round" stroke-linejoin="round"/>
<path d="M235.288 675.312L241.243 691.679M241.243 691.679L247.199 708.047M241.243 691.679L224.881 697.637M241.243 691.679L257.606 685.722" stroke="#982E0A" stroke-opacity="0.35" stroke-width="2" stroke-linecap="round" stroke-linejoin="round"/>
<path d="M338.219 675.312L346.925 690.396M346.925 690.396L355.632 705.48M346.925 690.396L331.845 699.105M346.925 690.396L362.005 681.687" stroke="#982E0A" stroke-opacity="0.35" stroke-width="2" stroke-linecap="round" stroke-linejoin="round"/>
<path d="M438.47 677.8L449.663 691.143M449.663 691.143L460.855 704.486M449.663 691.143L436.323 702.339M449.663 691.143L463.002 679.947" stroke="#982E0A" stroke-opacity="0.35" stroke-width="2" stroke-linecap="round" stroke-linejoin="round"/>
<path d="M538.313 679.947L551.652 691.143M551.652 691.143L564.991 702.339M551.652 691.143L540.459 704.486M551.652 691.143L562.845 677.8" stroke="#982E0A" stroke-opacity="0.35" stroke-width="2" stroke-linecap="round" stroke-linejoin="round"/>
<path d="M640.304 681.687L655.384 690.396M655.384 690.396L670.464 699.105M655.384 690.396L646.677 705.48M655.384 690.396L664.09 675.312" stroke="#982E0A" stroke-opacity="0.35" stroke-width="2" stroke-linecap="round" stroke-linejoin="round"/>
<path d="M744.781 685.722L761.144 691.679M761.144 691.679L777.507 697.637M761.144 691.679L755.188 708.047M761.144 691.679L767.099 675.312" stroke="#982E0A" stroke-opacity="0.35" stroke-width="2" stroke-linecap="round" stroke-linejoin="round"/>
<path d="M851.746 689.441L868.894 692.465M868.894 692.465L886.043 695.49M868.894 692.465L865.871 709.618M868.894 692.465L871.918 675.312" stroke="#982E0A" stroke-opacity="0.35" stroke-width="2" stroke-linecap="round" stroke-linejoin="round"/>
<path d="M961.199 692.73H978.612M978.612 692.73L996.025 692.73M978.612 692.73L978.612 710.147M978.612 692.73L978.612 675.312" stroke="#982E0A" stroke-opacity="0.35" stroke-width="2" stroke-linecap="round" stroke-linejoin="round"/>
<path d="M23.3879 672.824V690.242M23.3879 690.242V707.659M23.3879 690.242H5.97498M23.3879 690.242H40.8009" stroke="#982E0A" stroke-opacity="0.35" stroke-width="2" stroke-linecap="round" stroke-linejoin="round"/>
<path d="M129.552 675.312L132.576 692.465M132.576 692.465L135.6 709.618M132.576 692.465L115.427 695.49M132.576 692.465L149.724 689.441" stroke="#982E0A" stroke-opacity="0.35" stroke-width="2" stroke-linecap="round" stroke-linejoin="round"/>
<path d="M235.288 675.312L241.243 691.679M241.243 691.679L247.199 708.047M241.243 691.679L224.881 697.637M241.243 691.679L257.606 685.722" stroke="#982E0A" stroke-opacity="0.35" stroke-width="2" stroke-linecap="round" stroke-linejoin="round"/>
<path d="M338.219 675.312L346.925 690.396M346.925 690.396L355.632 705.48M346.925 690.396L331.845 699.105M346.925 690.396L362.005 681.687" stroke="#982E0A" stroke-opacity="0.35" stroke-width="2" stroke-linecap="round" stroke-linejoin="round"/>
<path d="M438.47 677.8L449.663 691.143M449.663 691.143L460.855 704.486M449.663 691.143L436.323 702.339M449.663 691.143L463.002 679.947" stroke="#982E0A" stroke-opacity="0.35" stroke-width="2" stroke-linecap="round" stroke-linejoin="round"/>
<path d="M538.313 679.947L551.652 691.143M551.652 691.143L564.991 702.339M551.652 691.143L540.459 704.486M551.652 691.143L562.845 677.8" stroke="#982E0A" stroke-opacity="0.35" stroke-width="2" stroke-linecap="round" stroke-linejoin="round"/>
<path d="M640.304 681.687L655.384 690.396M655.384 690.396L670.464 699.105M655.384 690.396L646.677 705.48M655.384 690.396L664.09 675.312" stroke="#982E0A" stroke-opacity="0.35" stroke-width="2" stroke-linecap="round" stroke-linejoin="round"/>
<path d="M744.781 685.722L761.144 691.679M761.144 691.679L777.507 697.637M761.144 691.679L755.188 708.047M761.144 691.679L767.099 675.312" stroke="#982E0A" stroke-opacity="0.35" stroke-width="2" stroke-linecap="round" stroke-linejoin="round"/>
<path d="M851.746 689.441L868.894 692.465M868.894 692.465L886.043 695.49M868.894 692.465L865.871 709.618M868.894 692.465L871.918 675.312" stroke="#982E0A" stroke-opacity="0.35" stroke-width="2" stroke-linecap="round" stroke-linejoin="round"/>
<path d="M961.199 692.73H978.612M978.612 692.73L996.025 692.73M978.612 692.73L978.612 710.147M978.612 692.73L978.612 675.312" stroke="#982E0A" stroke-opacity="0.35" stroke-width="2" stroke-linecap="round" stroke-linejoin="round"/>
<path d="M550.751 784.794V802.212M550.751 802.212V819.63M550.751 802.212H533.338M550.751 802.212H568.164" stroke="#982E0A" stroke-opacity="0.35" stroke-width="2" stroke-linecap="round" stroke-linejoin="round"/>
<path d="M656.915 787.283L659.939 804.436M659.939 804.436L662.963 821.589M659.939 804.436L642.791 807.46M659.939 804.436L677.088 801.411" stroke="#982E0A" stroke-opacity="0.35" stroke-width="2" stroke-linecap="round" stroke-linejoin="round"/>
<path d="M762.651 787.283L768.607 803.65M768.607 803.65L774.562 820.017M768.607 803.65L752.244 809.607M768.607 803.65L784.97 797.693" stroke="#982E0A" stroke-opacity="0.35" stroke-width="2" stroke-linecap="round" stroke-linejoin="round"/>
<path d="M865.582 787.283L874.289 802.367M874.289 802.367L882.995 817.451M874.289 802.367L859.209 811.076M874.289 802.367L889.369 793.658" stroke="#982E0A" stroke-opacity="0.35" stroke-width="2" stroke-linecap="round" stroke-linejoin="round"/>
<path d="M965.832 789.771L977.025 803.114M977.025 803.114L988.218 816.456M977.025 803.114L963.686 814.309M977.025 803.114L990.364 791.918" stroke="#982E0A" stroke-opacity="0.35" stroke-width="2" stroke-linecap="round" stroke-linejoin="round"/>
<path d="M5.97498 791.918L19.3141 803.114M19.3141 803.114L32.6531 814.309M19.3141 803.114L8.12124 816.456M19.3141 803.114L30.5069 789.771" stroke="#982E0A" stroke-opacity="0.35" stroke-width="2" stroke-linecap="round" stroke-linejoin="round"/>
<path d="M107.965 793.658L123.045 802.367M123.045 802.367L138.125 811.076M123.045 802.367L114.339 817.451M123.045 802.367L131.752 787.283" stroke="#982E0A" stroke-opacity="0.35" stroke-width="2" stroke-linecap="round" stroke-linejoin="round"/>
<path d="M212.442 797.693L228.805 803.65M228.805 803.65L245.168 809.607M228.805 803.65L222.849 820.017M228.805 803.65L234.761 787.283" stroke="#982E0A" stroke-opacity="0.35" stroke-width="2" stroke-linecap="round" stroke-linejoin="round"/>
<path d="M319.408 801.411L336.556 804.436M336.556 804.436L353.704 807.46M336.556 804.436L333.532 821.589M336.556 804.436L339.58 787.283" stroke="#982E0A" stroke-opacity="0.35" stroke-width="2" stroke-linecap="round" stroke-linejoin="round"/>
<path d="M428.861 804.7H446.274M446.274 804.7L463.687 804.7M446.274 804.7L446.274 822.118M446.274 804.7L446.274 787.283" stroke="#982E0A" stroke-opacity="0.35" stroke-width="2" stroke-linecap="round" stroke-linejoin="round"/>
<path d="M550.751 784.794V802.212M550.751 802.212V819.63M550.751 802.212H533.338M550.751 802.212H568.164" stroke="#982E0A" stroke-opacity="0.35" stroke-width="2" stroke-linecap="round" stroke-linejoin="round"/>
<path d="M656.915 787.283L659.939 804.436M659.939 804.436L662.963 821.589M659.939 804.436L642.791 807.46M659.939 804.436L677.088 801.411" stroke="#982E0A" stroke-opacity="0.35" stroke-width="2" stroke-linecap="round" stroke-linejoin="round"/>
<path d="M762.651 787.283L768.607 803.65M768.607 803.65L774.562 820.017M768.607 803.65L752.244 809.607M768.607 803.65L784.97 797.693" stroke="#982E0A" stroke-opacity="0.35" stroke-width="2" stroke-linecap="round" stroke-linejoin="round"/>
<path d="M865.582 787.283L874.289 802.367M874.289 802.367L882.995 817.451M874.289 802.367L859.209 811.076M874.289 802.367L889.369 793.658" stroke="#982E0A" stroke-opacity="0.35" stroke-width="2" stroke-linecap="round" stroke-linejoin="round"/>
<path d="M965.832 789.771L977.025 803.114M977.025 803.114L988.218 816.456M977.025 803.114L963.686 814.309M977.025 803.114L990.364 791.918" stroke="#982E0A" stroke-opacity="0.35" stroke-width="2" stroke-linecap="round" stroke-linejoin="round"/>
<path d="M5.97498 791.918L19.3141 803.114M19.3141 803.114L32.6531 814.309M19.3141 803.114L8.12124 816.456M19.3141 803.114L30.5069 789.771" stroke="#982E0A" stroke-opacity="0.35" stroke-width="2" stroke-linecap="round" stroke-linejoin="round"/>
<path d="M107.965 793.658L123.045 802.367M123.045 802.367L138.125 811.076M123.045 802.367L114.339 817.451M123.045 802.367L131.752 787.283" stroke="#982E0A" stroke-opacity="0.35" stroke-width="2" stroke-linecap="round" stroke-linejoin="round"/>
<path d="M212.442 797.693L228.805 803.65M228.805 803.65L245.168 809.607M228.805 803.65L222.849 820.017M228.805 803.65L234.761 787.283" stroke="#982E0A" stroke-opacity="0.35" stroke-width="2" stroke-linecap="round" stroke-linejoin="round"/>
<path d="M319.408 801.411L336.556 804.436M336.556 804.436L353.704 807.46M336.556 804.436L333.532 821.589M336.556 804.436L339.58 787.283" stroke="#982E0A" stroke-opacity="0.35" stroke-width="2" stroke-linecap="round" stroke-linejoin="round"/>
<path d="M428.861 804.7H446.274M446.274 804.7L463.687 804.7M446.274 804.7L446.274 822.118M446.274 804.7L446.274 787.283" stroke="#982E0A" stroke-opacity="0.35" stroke-width="2" stroke-linecap="round" stroke-linejoin="round"/>
<path d="M18.4129 896.765V914.183M18.4129 914.183V931.6M18.4129 914.183H1M18.4129 914.183H35.8259" stroke="#982E0A" stroke-opacity="0.35" stroke-width="2" stroke-linecap="round" stroke-linejoin="round"/>
<path d="M124.578 899.253L127.601 916.406M127.601 916.406L130.625 933.559M127.601 916.406L110.453 919.431M127.601 916.406L144.75 913.382" stroke="#982E0A" stroke-opacity="0.35" stroke-width="2" stroke-linecap="round" stroke-linejoin="round"/>
<path d="M230.313 899.253L236.268 915.621M236.268 915.621L242.224 931.988M236.268 915.621L219.906 921.578M236.268 915.621L252.631 909.663" stroke="#982E0A" stroke-opacity="0.35" stroke-width="2" stroke-linecap="round" stroke-linejoin="round"/>
<path d="M333.244 899.253L341.95 914.338M341.95 914.338L350.657 929.422M341.95 914.338L326.87 923.046M341.95 914.338L357.03 905.629" stroke="#982E0A" stroke-opacity="0.35" stroke-width="2" stroke-linecap="round" stroke-linejoin="round"/>
<path d="M433.494 901.742L444.687 915.084M444.687 915.084L455.88 928.427M444.687 915.084L431.348 926.28M444.687 915.084L458.026 903.888" stroke="#982E0A" stroke-opacity="0.35" stroke-width="2" stroke-linecap="round" stroke-linejoin="round"/>
<path d="M533.338 903.888L546.677 915.084M546.677 915.084L560.016 926.28M546.677 915.084L535.485 928.427M546.677 915.084L557.87 901.742" stroke="#982E0A" stroke-opacity="0.35" stroke-width="2" stroke-linecap="round" stroke-linejoin="round"/>
<path d="M635.329 905.629L650.409 914.338M650.409 914.338L665.489 923.046M650.409 914.338L641.702 929.422M650.409 914.338L659.115 899.253" stroke="#982E0A" stroke-opacity="0.35" stroke-width="2" stroke-linecap="round" stroke-linejoin="round"/>
<path d="M739.806 909.663L756.169 915.621M756.169 915.621L772.532 921.578M756.169 915.621L750.213 931.988M756.169 915.621L762.125 899.253" stroke="#982E0A" stroke-opacity="0.35" stroke-width="2" stroke-linecap="round" stroke-linejoin="round"/>
<path d="M846.771 913.382L863.919 916.406M863.919 916.406L881.068 919.431M863.919 916.406L860.896 933.559M863.919 916.406L866.943 899.253" stroke="#982E0A" stroke-opacity="0.35" stroke-width="2" stroke-linecap="round" stroke-linejoin="round"/>
<path d="M956.224 916.671H973.637M973.637 916.671L991.05 916.671M973.637 916.671L973.637 934.089M973.637 916.671L973.637 899.253" stroke="#982E0A" stroke-opacity="0.35" stroke-width="2" stroke-linecap="round" stroke-linejoin="round"/>
<path d="M18.4129 896.765V914.183M18.4129 914.183V931.6M18.4129 914.183H1M18.4129 914.183H35.8259" stroke="#982E0A" stroke-opacity="0.35" stroke-width="2" stroke-linecap="round" stroke-linejoin="round"/>
<path d="M124.578 899.253L127.601 916.406M127.601 916.406L130.625 933.559M127.601 916.406L110.453 919.431M127.601 916.406L144.75 913.382" stroke="#982E0A" stroke-opacity="0.35" stroke-width="2" stroke-linecap="round" stroke-linejoin="round"/>
<path d="M230.313 899.253L236.268 915.621M236.268 915.621L242.224 931.988M236.268 915.621L219.906 921.578M236.268 915.621L252.631 909.663" stroke="#982E0A" stroke-opacity="0.35" stroke-width="2" stroke-linecap="round" stroke-linejoin="round"/>
<path d="M333.244 899.253L341.95 914.338M341.95 914.338L350.657 929.422M341.95 914.338L326.87 923.046M341.95 914.338L357.03 905.629" stroke="#982E0A" stroke-opacity="0.35" stroke-width="2" stroke-linecap="round" stroke-linejoin="round"/>
<path d="M433.494 901.742L444.687 915.084M444.687 915.084L455.88 928.427M444.687 915.084L431.348 926.28M444.687 915.084L458.026 903.888" stroke="#982E0A" stroke-opacity="0.35" stroke-width="2" stroke-linecap="round" stroke-linejoin="round"/>
<path d="M533.338 903.888L546.677 915.084M546.677 915.084L560.016 926.28M546.677 915.084L535.485 928.427M546.677 915.084L557.87 901.742" stroke="#982E0A" stroke-opacity="0.35" stroke-width="2" stroke-linecap="round" stroke-linejoin="round"/>
<path d="M635.329 905.629L650.409 914.338M650.409 914.338L665.489 923.046M650.409 914.338L641.702 929.422M650.409 914.338L659.115 899.253" stroke="#982E0A" stroke-opacity="0.35" stroke-width="2" stroke-linecap="round" stroke-linejoin="round"/>
<path d="M739.806 909.663L756.169 915.621M756.169 915.621L772.532 921.578M756.169 915.621L750.213 931.988M756.169 915.621L762.125 899.253" stroke="#982E0A" stroke-opacity="0.35" stroke-width="2" stroke-linecap="round" stroke-linejoin="round"/>
<path d="M846.771 913.382L863.919 916.406M863.919 916.406L881.068 919.431M863.919 916.406L860.896 933.559M863.919 916.406L866.943 899.253" stroke="#982E0A" stroke-opacity="0.35" stroke-width="2" stroke-linecap="round" stroke-linejoin="round"/>
<path d="M956.224 916.671H973.637M973.637 916.671L991.05 916.671M973.637 916.671L973.637 934.089M973.637 916.671L973.637 899.253" stroke="#982E0A" stroke-opacity="0.35" stroke-width="2" stroke-linecap="round" stroke-linejoin="round"/>
<path d="M545.776 1008.74V1026.15M545.776 1026.15V1043.57M545.776 1026.15H528.363M545.776 1026.15H563.189" stroke="#982E0A" stroke-opacity="0.35" stroke-width="2" stroke-linecap="round" stroke-linejoin="round"/>
<path d="M651.941 1011.22L654.964 1028.38M654.964 1028.38L657.988 1045.53M654.964 1028.38L637.816 1031.4M654.964 1028.38L672.113 1025.35" stroke="#982E0A" stroke-opacity="0.35" stroke-width="2" stroke-linecap="round" stroke-linejoin="round"/>
<path d="M757.676 1011.22L763.631 1027.59M763.631 1027.59L769.587 1043.96M763.631 1027.59L747.268 1033.55M763.631 1027.59L779.994 1021.63" stroke="#982E0A" stroke-opacity="0.35" stroke-width="2" stroke-linecap="round" stroke-linejoin="round"/>
<path d="M860.607 1011.22L869.314 1026.31M869.314 1026.31L878.02 1041.39M869.314 1026.31L854.234 1035.02M869.314 1026.31L884.394 1017.6" stroke="#982E0A" stroke-opacity="0.35" stroke-width="2" stroke-linecap="round" stroke-linejoin="round"/>
<path d="M960.857 1013.71L972.05 1027.05M972.05 1027.05L983.243 1040.4M972.05 1027.05L958.711 1038.25M972.05 1027.05L985.389 1015.86" stroke="#982E0A" stroke-opacity="0.35" stroke-width="2" stroke-linecap="round" stroke-linejoin="round"/>
<path d="M1 1015.86L14.3391 1027.05M14.3391 1027.05L27.6782 1038.25M14.3391 1027.05L3.14626 1040.4M14.3391 1027.05L25.5319 1013.71" stroke="#982E0A" stroke-opacity="0.35" stroke-width="2" stroke-linecap="round" stroke-linejoin="round"/>
<path d="M102.99 1017.6L118.07 1026.31M118.07 1026.31L133.15 1035.02M118.07 1026.31L109.363 1041.39M118.07 1026.31L126.776 1011.22" stroke="#982E0A" stroke-opacity="0.35" stroke-width="2" stroke-linecap="round" stroke-linejoin="round"/>
<path d="M207.468 1021.63L223.831 1027.59M223.831 1027.59L240.194 1033.55M223.831 1027.59L217.875 1043.96M223.831 1027.59L229.786 1011.22" stroke="#982E0A" stroke-opacity="0.35" stroke-width="2" stroke-linecap="round" stroke-linejoin="round"/>
<path d="M314.433 1025.35L331.581 1028.38M331.581 1028.38L348.729 1031.4M331.581 1028.38L328.557 1045.53M331.581 1028.38L334.605 1011.22" stroke="#982E0A" stroke-opacity="0.35" stroke-width="2" stroke-linecap="round" stroke-linejoin="round"/>
<path d="M423.886 1028.64H441.299M441.299 1028.64L458.712 1028.64M441.299 1028.64L441.299 1046.06M441.299 1028.64L441.299 1011.22" stroke="#982E0A" stroke-opacity="0.35" stroke-width="2" stroke-linecap="round" stroke-linejoin="round"/>
<path d="M545.776 1008.74V1026.15M545.776 1026.15V1043.57M545.776 1026.15H528.363M545.776 1026.15H563.189" stroke="#982E0A" stroke-opacity="0.35" stroke-width="2" stroke-linecap="round" stroke-linejoin="round"/>
<path d="M651.941 1011.22L654.964 1028.38M654.964 1028.38L657.988 1045.53M654.964 1028.38L637.816 1031.4M654.964 1028.38L672.113 1025.35" stroke="#982E0A" stroke-opacity="0.35" stroke-width="2" stroke-linecap="round" stroke-linejoin="round"/>
<path d="M757.676 1011.22L763.631 1027.59M763.631 1027.59L769.587 1043.96M763.631 1027.59L747.268 1033.55M763.631 1027.59L779.994 1021.63" stroke="#982E0A" stroke-opacity="0.35" stroke-width="2" stroke-linecap="round" stroke-linejoin="round"/>
<path d="M860.607 1011.22L869.314 1026.31M869.314 1026.31L878.02 1041.39M869.314 1026.31L854.234 1035.02M869.314 1026.31L884.394 1017.6" stroke="#982E0A" stroke-opacity="0.35" stroke-width="2" stroke-linecap="round" stroke-linejoin="round"/>
<path d="M960.857 1013.71L972.05 1027.05M972.05 1027.05L983.243 1040.4M972.05 1027.05L958.711 1038.25M972.05 1027.05L985.389 1015.86" stroke="#982E0A" stroke-opacity="0.35" stroke-width="2" stroke-linecap="round" stroke-linejoin="round"/>
<path d="M1 1015.86L14.3391 1027.05M14.3391 1027.05L27.6782 1038.25M14.3391 1027.05L3.14626 1040.4M14.3391 1027.05L25.5319 1013.71" stroke="#982E0A" stroke-opacity="0.35" stroke-width="2" stroke-linecap="round" stroke-linejoin="round"/>
<path d="M102.99 1017.6L118.07 1026.31M118.07 1026.31L133.15 1035.02M118.07 1026.31L109.363 1041.39M118.07 1026.31L126.776 1011.22" stroke="#982E0A" stroke-opacity="0.35" stroke-width="2" stroke-linecap="round" stroke-linejoin="round"/>
<path d="M207.468 1021.63L223.831 1027.59M223.831 1027.59L240.194 1033.55M223.831 1027.59L217.875 1043.96M223.831 1027.59L229.786 1011.22" stroke="#982E0A" stroke-opacity="0.35" stroke-width="2" stroke-linecap="round" stroke-linejoin="round"/>
<path d="M314.433 1025.35L331.581 1028.38M331.581 1028.38L348.729 1031.4M331.581 1028.38L328.557 1045.53M331.581 1028.38L334.605 1011.22" stroke="#982E0A" stroke-opacity="0.35" stroke-width="2" stroke-linecap="round" stroke-linejoin="round"/>
<path d="M423.886 1028.64H441.299M441.299 1028.64L458.712 1028.64M441.299 1028.64L441.299 1046.06M441.299 1028.64L441.299 1011.22" stroke="#982E0A" stroke-opacity="0.35" stroke-width="2" stroke-linecap="round" stroke-linejoin="round"/>
</svg>
