<?xml version="1.0" standalone="no"?>
<!DOCTYPE svg PUBLIC "-//W3C//DTD SVG 20010904//EN"
 "http://www.w3.org/TR/2001/REC-SVG-20010904/DTD/svg10.dtd">
<svg version="1.0" xmlns="http://www.w3.org/2000/svg"
 width="700.000000pt" height="700.000000pt" viewBox="0 0 700.000000 700.000000"
 preserveAspectRatio="xMidYMid meet">
<metadata>
Created by potrace 1.14, written by Peter Selinger 2001-2017
</metadata>
<g transform="translate(0.000000,700.000000) scale(0.100000,-0.100000)"
fill="#000000" stroke="none">
<path d="M2737 6434 c-1 -1 -38 -5 -82 -8 -44 -4 -91 -8 -105 -11 -14 -2 -68
-11 -120 -20 -212 -36 -477 -116 -670 -202 -347 -155 -625 -347 -896 -617
-278 -278 -453 -535 -628 -920 -20 -43 -36 -83 -36 -88 0 -6 -6 -24 -14 -41
-56 -125 -123 -393 -160 -637 -18 -120 -21 -339 -21 -1759 l0 -1575 60 1 c75
1 257 13 264 17 4 2 38 7 76 10 39 4 86 11 105 16 19 5 49 11 65 13 24 4 90
19 180 41 312 77 695 260 975 465 67 49 184 144 265 216 l30 27 5 -404 5 -403
45 1 c70 2 241 14 280 19 19 3 55 7 80 10 278 33 581 127 886 276 149 72 398
223 474 286 8 7 60 50 115 95 55 45 102 86 103 90 2 5 12 13 22 18 16 9 17
-10 17 -393 l0 -402 90 3 c176 5 381 30 543 67 14 3 36 7 50 10 143 26 447
139 645 239 693 351 1215 955 1463 1691 35 105 82 278 96 355 18 101 26 152
32 200 3 30 9 66 12 80 3 14 7 749 9 1633 l4 1609 -139 -6 c-76 -4 -150 -8
-163 -11 -13 -2 -46 -6 -74 -10 -493 -60 -973 -255 -1394 -567 -93 -69 -121
-93 -213 -177 l-48 -44 0 408 0 407 -122 -6 c-141 -7 -220 -14 -263 -21 -16
-2 -48 -7 -70 -10 -194 -28 -470 -106 -675 -190 -71 -30 -253 -119 -328 -161
-173 -99 -454 -307 -564 -419 -4 -4 -7 159 -6 361 0 203 0 386 -1 407 l-1 38
-101 -3 c-55 -2 -101 -4 -102 -4z m-14 -1609 c0 -1248 -3 -1558 -18 -1650 -38
-244 -63 -356 -116 -522 -94 -293 -263 -604 -465 -858 -86 -107 -255 -283
-343 -355 -30 -25 -62 -52 -70 -60 -51 -48 -271 -197 -373 -253 -129 -71 -155
-84 -248 -124 -162 -71 -375 -139 -525 -169 -116 -23 -183 -34 -241 -39 -38
-3 -77 -9 -87 -11 -17 -5 -18 59 -14 1488 1 821 6 1504 9 1518 3 14 9 48 12
75 6 47 10 76 20 128 18 90 28 136 37 171 6 23 13 48 14 56 30 141 189 515
281 663 212 337 422 572 699 781 116 87 118 89 141 103 176 111 341 198 480
254 179 71 443 145 589 165 28 3 68 9 90 13 22 4 60 7 84 7 l45 -1 -1 -1380z
m2027 1368 c3 -223 -2 -2860 -5 -2888 -2 -22 -7 -67 -10 -100 -76 -757 -491
-1469 -1118 -1918 -153 -110 -430 -266 -517 -292 -14 -4 -30 -11 -35 -16 -24
-18 -334 -117 -425 -135 -14 -3 -44 -9 -68 -15 -23 -5 -59 -12 -80 -15 -20 -3
-44 -7 -52 -9 -8 -2 -46 -7 -85 -10 -38 -4 -78 -9 -87 -11 -13 -4 -18 1 -18
18 -1 13 -1 198 -1 412 l0 388 38 47 c253 306 459 714 558 1103 30 116 61 272
70 348 3 30 8 66 10 80 14 81 17 324 17 1180 l-1 955 132 130 c139 137 309
272 467 369 84 53 339 186 354 186 4 0 25 9 49 19 75 35 292 105 388 127 125
28 206 42 279 50 30 4 56 7 57 8 1 1 21 3 43 4 33 2 40 0 40 -15z m2027 -1470
c-2 -818 -6 -1501 -9 -1518 -4 -16 -9 -50 -11 -75 -7 -59 -14 -95 -38 -210
-22 -102 -23 -105 -70 -255 -294 -932 -1097 -1648 -2064 -1839 -77 -15 -103
-19 -210 -32 -27 -3 -60 -7 -72 -9 -16 -3 -23 1 -24 13 0 9 -1 193 -1 407 l-1
390 94 125 c353 466 559 1020 594 1595 2 22 3 481 4 1020 l1 980 63 65 c238
244 473 416 770 563 254 125 554 218 822 253 28 3 51 7 52 8 1 0 24 2 53 4
l51 3 -4 -1488z"/>
</g>
</svg>
