<?xml version="1.0" encoding="UTF-8"?>
<svg width="100px" height="33px" viewBox="0 0 100 33" version="1.1" xmlns="http://www.w3.org/2000/svg" xmlns:xlink="http://www.w3.org/1999/xlink">
    <title>Érudit</title>
    <defs></defs>
    <g id="Page-1" stroke="none" stroke-width="1" fill="none" fill-rule="evenodd">
        <g id="Layer_1" fill-rule="nonzero" fill="#FF4242">
            <g id="Group">
                <path d="M1.44021739,11.2771739 L1.44021739,5.78804348 C4.64673913,5.78804348 7.22826087,3.17934783 7.22826087,0 L12.7173913,0 C12.7173913,6.22282609 7.66304348,11.2771739 1.44021739,11.2771739 Z" id="Shape"></path>
                <path d="M5.65217391,24.1032609 C5.97826087,26.1141304 7.5,27.6358696 9.97282609,27.6358696 C11.9836957,27.6358696 13.5054348,26.9021739 14.673913,25.4076087 L18.3695652,28.8586957 C16.6847826,30.9782609 14.2391304,32.7445652 10.1358696,32.7445652 C4.34782609,32.7445652 0,28.8586957 0,22.826087 C0,17.0108696 3.88586957,12.6358696 9.45652174,12.6358696 C15.6521739,12.6358696 18.7228261,17.6086957 18.7228261,22.4728261 C18.7228261,23.1521739 18.6956522,24.1304348 18.6956522,24.1304348 L5.65217391,24.1304348 L5.65217391,24.1032609 Z M9.56521739,17.5271739 C7.5,17.5271739 6.27717391,18.8315217 5.92391304,20.3804348 L12.826087,20.3804348 C12.7173913,18.7771739 11.4130435,17.5271739 9.56521739,17.5271739 L9.56521739,17.5271739 Z" id="Shape"></path>
                <path d="M33.1793478,18.2336957 L32.3097826,18.2336957 C29.2119565,18.2336957 26.9836957,20.1902174 26.9836957,24.2663043 L26.9836957,32.3097826 L21.4130435,32.3097826 L21.4130435,13.0978261 L26.9021739,13.0978261 L26.9021739,14.8097826 C27.9619565,13.5597826 29.7282609,12.798913 31.6847826,12.798913 C32.3641304,12.798913 32.6358696,12.798913 33.1793478,12.826087 L33.1793478,18.2336957 Z" id="Shape"></path>
                <path d="M46.875,13.0978261 L52.4728261,13.0978261 L52.4728261,32.3097826 L46.9836957,32.3097826 L46.9836957,30.9782609 C45.8152174,32.201087 44.048913,32.7445652 42.201087,32.7445652 C37.7445652,32.7445652 35.0271739,29.7282609 35.0271739,24.2663043 L35.0271739,13.0978261 L40.625,13.0978261 L40.625,24.048913 C40.625,26.1141304 41.576087,27.6086957 43.5597826,27.6086957 C45.9782609,27.6086957 46.8478261,25.8967391 46.8478261,22.9347826 L46.8478261,13.0978261 L46.875,13.0978261 Z" id="Shape"></path>
                <path d="M64.8913043,12.6358696 C67.0923913,12.6358696 68.8586957,13.451087 69.8369565,14.3206522 L69.8369565,4.80978261 L75.4076087,4.80978261 L75.4076087,32.3097826 L69.9184783,32.3097826 L69.9184783,30.923913 C68.8858696,31.9021739 67.0652174,32.7173913 64.8913043,32.7173913 C59.5923913,32.7173913 55.2717391,28.8858696 55.2717391,22.6902174 C55.298913,16.6304348 59.5923913,12.6358696 64.8913043,12.6358696 M65.4347826,17.6902174 C62.8804348,17.6902174 60.951087,19.7282609 60.951087,22.7173913 C60.951087,25.7065217 62.8804348,27.7445652 65.4347826,27.7445652 C67.9891304,27.7445652 69.8913043,25.7065217 69.8913043,22.7173913 C69.9184783,19.7282609 67.9891304,17.6902174 65.4347826,17.6902174" id="Shape"></path>
                <path d="M81.9021739,4.80978261 C83.6956522,4.80978261 85.1630435,6.25 85.1630435,8.07065217 C85.1630435,9.83695652 83.7228261,11.2771739 81.9021739,11.2771739 C80.1086957,11.2771739 78.6956522,9.83695652 78.6956522,8.07065217 C78.6956522,6.25 80.1086957,4.80978261 81.9021739,4.80978261" id="Shape"></path>
                <rect id="Rectangle-path" x="79.1304348" y="13.0978261" width="5.59782609" height="19.2119565"></rect>
                <path d="M90.0271739,25.4891304 L90.0271739,18.1793478 L87.5,18.1793478 L87.5,13.0434783 L90,13.0434783 L90,7.69021739 L95.5163043,7.69021739 L95.5163043,13.0434783 L99.7826087,13.0434783 L99.7826087,18.1793478 L95.5163043,18.1793478 L95.5163043,24.8097826 C95.5163043,26.7391304 96.4673913,27.173913 98.0706522,27.173913 L99.7282609,27.173913 L99.7282609,32.2826087 C99.7282609,32.2826087 98.2336957,32.3641304 96.7119565,32.3641304 C92.173913,32.3369565 90.0271739,29.9184783 90.0271739,25.4891304" id="Shape"></path>
            </g>
        </g>
    </g>
</svg>
