<?xml version="1.0" encoding="UTF-8"?>
<svg width="20px" height="35px" viewBox="0 0 20 35" version="1.1" xmlns="http://www.w3.org/2000/svg" xmlns:xlink="http://www.w3.org/1999/xlink">
    <title>Érudit</title>
    <desc>Symbole</desc>
    <defs></defs>
    <g id="Page-1" stroke="none" stroke-width="1" fill="none" fill-rule="evenodd">
        <g id="Layer_1" fill-rule="nonzero" fill="#FF4242">
            <path d="M6.01652893,25.6570248 C6.36363636,27.7975207 7.98347107,29.4173554 10.6157025,29.4173554 C12.7561983,29.4173554 14.3760331,28.6363636 15.6198347,27.0454545 L19.553719,30.7190083 C17.7603306,32.9752066 15.1570248,34.8553719 10.7892562,34.8553719 C4.62809917,34.8553719 0,30.7190083 0,24.2975207 C0,18.107438 4.13636364,13.4504132 10.0661157,13.4504132 C16.661157,13.4504132 19.9297521,18.7438017 19.9297521,23.9214876 C19.9297521,24.6446281 19.9008264,25.6859504 19.9008264,25.6859504 L6.01652893,25.6859504 L6.01652893,25.6570248 Z M10.1818182,18.6570248 C7.98347107,18.6570248 6.68181818,20.0454545 6.30578512,21.6942149 L13.6528926,21.6942149 C13.5371901,19.9876033 12.1487603,18.6570248 10.1818182,18.6570248 L10.1818182,18.6570248 Z" id="Shape"></path>
            <path d="M1.53305785,12.0041322 L1.53305785,6.16115702 C4.94628099,6.16115702 7.69421488,3.38429752 7.69421488,0 L13.5371901,0 C13.5371901,6.62396694 8.15702479,12.0041322 1.53305785,12.0041322 Z" id="Shape"></path>
        </g>
    </g>
</svg>
