<svg width="238" height="197" viewBox="0 0 238 197" fill="none" xmlns="http://www.w3.org/2000/svg">
<path d="M48.338 167.983C48.338 170.495 47.978 172.79 47.253 174.87C46.523 176.95 45.5 178.71 44.181 180.148C42.953 181.52 41.505 182.573 39.838 183.321C38.168 184.071 36.412 184.444 34.551 184.444C32.931 184.444 31.461 184.27 30.151 183.918C28.841 183.568 27.501 183.024 26.145 182.284V195.254H20.879V152.858H26.145V156.123C27.541 154.957 29.11 153.987 30.851 153.199C32.589 152.413 34.447 152.019 36.421 152.019C40.178 152.019 43.106 153.429 45.201 156.247C47.295 159.067 48.339 162.977 48.339 167.984L48.338 167.983ZM42.888 168.123C42.888 164.383 42.245 161.587 40.961 159.733C39.681 157.885 37.711 156.956 35.059 156.956C33.553 156.956 32.039 157.284 30.516 157.929C28.999 158.579 27.539 159.429 26.146 160.486V178.063C27.626 178.729 28.906 179.183 29.976 179.421C31.041 179.663 32.256 179.784 33.611 179.784C36.524 179.784 38.801 178.804 40.435 176.84C42.065 174.88 42.888 171.974 42.888 168.122V168.123ZM83.93 183.793H78.66V166.18C78.66 164.76 78.58 163.423 78.41 162.178C78.244 160.933 77.94 159.96 77.494 159.258C77.032 158.481 76.364 157.902 75.491 157.525C74.621 157.145 73.491 156.955 72.101 156.955C70.671 156.955 69.181 157.311 67.626 158.011C66.066 158.713 64.572 159.606 63.143 160.696V183.794H57.875V140.65H63.143V156.31C64.779 154.963 66.468 153.912 68.213 153.156C69.961 152.399 71.753 152.019 73.593 152.019C76.955 152.019 79.521 153.024 81.283 155.035C83.049 157.048 83.93 159.941 83.93 163.725V183.792V183.793ZM122.43 152.857L104.202 195.253H98.59L104.398 182.333L91.958 152.857H97.666L107.25 175.8L116.907 152.857H122.431H122.43ZM152.94 174.78C152.94 177.605 151.762 179.922 149.407 181.73C147.054 183.542 143.839 184.443 139.769 184.443C137.459 184.443 135.344 184.169 133.417 183.623C131.494 183.077 129.88 182.48 128.577 181.83V175.964H128.857C130.5 177.219 132.337 178.216 134.351 178.954C136.368 179.694 138.301 180.064 140.151 180.064C142.446 180.064 144.239 179.694 145.539 178.95C146.831 178.21 147.482 177.042 147.482 175.445C147.482 174.229 147.13 173.305 146.424 172.679C145.716 172.046 144.364 171.509 142.362 171.069C141.62 170.905 140.649 170.709 139.452 170.489C138.257 170.269 137.167 170.026 136.182 169.769C133.459 169.049 131.524 167.991 130.382 166.595C129.242 165.205 128.672 163.492 128.672 161.46C128.672 160.19 128.935 158.99 129.469 157.863C130.002 156.735 130.804 155.733 131.889 154.843C132.929 153.977 134.259 153.289 135.869 152.783C137.485 152.275 139.289 152.019 141.281 152.019C143.144 152.019 145.036 152.247 146.946 152.699C148.854 153.155 150.446 153.704 151.714 154.353V159.938H151.434C150.101 158.944 148.472 158.108 146.564 157.425C144.654 156.737 142.778 156.395 140.944 156.395C139.034 156.395 137.421 156.765 136.104 157.499C134.784 158.232 134.124 159.321 134.124 160.769C134.124 162.042 134.526 163.003 135.321 163.647C136.103 164.295 137.361 164.82 139.108 165.225C140.07 165.445 141.15 165.67 142.348 165.892C143.543 166.112 144.542 166.318 145.338 166.5C147.768 167.055 149.641 168.007 150.958 169.352C152.278 170.72 152.938 172.528 152.938 174.779L152.94 174.78ZM167.072 183.793H161.802V152.857H167.072V183.793ZM201.877 181.804C200.133 182.638 198.479 183.286 196.91 183.749C195.348 184.213 193.68 184.442 191.92 184.442C189.673 184.442 187.613 184.112 185.743 183.456C183.868 182.802 182.263 181.806 180.931 180.474C179.581 179.14 178.531 177.457 177.789 175.424C177.045 173.387 176.673 171.007 176.673 168.284C176.673 163.216 178.069 159.237 180.857 156.35C183.65 153.463 187.337 152.02 191.92 152.02C193.7 152.02 195.444 152.27 197.163 152.77C198.879 153.27 200.45 153.88 201.877 154.602V160.405H201.602C200.01 159.177 198.364 158.235 196.67 157.575C194.976 156.917 193.322 156.585 191.714 156.585C188.749 156.585 186.409 157.578 184.696 159.56C182.981 161.543 182.129 164.45 182.129 168.285C182.129 172.013 182.963 174.875 184.641 176.875C186.315 178.877 188.671 179.878 191.713 179.878C192.766 179.878 193.84 179.742 194.933 179.468C196.026 179.193 197.007 178.834 197.879 178.395C198.634 178.011 199.349 177.605 200.019 177.175C200.684 176.741 201.213 176.369 201.601 176.059H201.876V181.803L201.877 181.804ZM232.282 174.78C232.282 177.605 231.104 179.922 228.752 181.73C226.396 183.542 223.185 184.443 219.112 184.443C216.802 184.443 214.688 184.169 212.764 183.623C210.836 183.077 209.224 182.48 207.924 181.83V175.964H208.199C209.846 177.219 211.679 178.216 213.697 178.954C215.711 179.694 217.645 180.064 219.501 180.064C221.791 180.064 223.584 179.694 224.881 178.95C226.183 178.21 226.824 177.042 226.824 175.445C226.824 174.229 226.474 173.305 225.767 172.679C225.064 172.046 223.709 171.509 221.703 171.069C220.963 170.905 219.993 170.709 218.799 170.489C217.603 170.269 216.512 170.026 215.529 169.769C212.803 169.049 210.869 167.991 209.726 166.595C208.588 165.205 208.016 163.492 208.016 161.46C208.016 160.19 208.28 158.99 208.814 157.863C209.344 156.735 210.152 155.733 211.23 154.843C212.276 153.977 213.6 153.289 215.22 152.783C216.825 152.275 218.633 152.019 220.63 152.019C222.49 152.019 224.38 152.247 226.29 152.699C228.2 153.155 229.79 153.704 231.06 154.353V159.938H230.783C229.443 158.944 227.819 158.108 225.907 157.425C224 156.737 222.127 156.395 220.287 156.395C218.38 156.395 216.761 156.765 215.447 157.499C214.131 158.232 213.472 159.321 213.472 160.769C213.472 162.042 213.868 163.003 214.667 163.647C215.447 164.295 216.707 164.82 218.449 165.225C219.412 165.445 220.497 165.67 221.689 165.892C222.886 166.112 223.887 166.318 224.685 166.5C227.113 167.055 228.987 168.007 230.305 169.352C231.62 170.72 232.281 172.528 232.281 174.779L232.282 174.78Z" fill="#005A9B" stroke="#005A9B" stroke-width="2.56"/>
<path d="M57.92 31.02H61.43L87.2 96.067C88.228 98.682 90.342 99.987 93.535 99.987H95.761V103.651H67.143V99.988H69.423C72.398 99.988 74.498 99.668 75.727 99.033C76.567 98.588 76.99 97.903 76.99 96.978C76.99 96.436 76.874 95.862 76.646 95.254L70.696 80.239H42.34L38.886 88.846C38.013 91.142 37.576 92.959 37.576 94.298C37.576 95.86 38.311 97.2 39.783 98.315C41.259 99.431 43.405 99.988 46.223 99.988H48.653V103.652H22.61V99.989C25.398 99.989 27.6 99.393 29.226 98.197C30.846 97.002 32.339 94.731 33.7 91.382L57.92 31.02ZM56.61 44.68L43.812 76.573H69.246L56.61 44.68V44.68ZM197.858 38.452L202.248 32.08H205.625L205.947 58.044H202.57C200.576 50.134 197.62 44.361 193.718 40.722C189.805 37.086 185.31 35.266 180.228 35.266C175.982 35.266 172.508 36.529 169.804 39.049C167.102 41.569 165.754 44.646 165.754 48.286C165.754 50.551 166.269 52.536 167.309 54.243C168.339 55.951 169.889 57.339 171.946 58.406C174.006 59.476 177.869 60.633 183.549 61.872C191.512 63.639 197.109 65.405 200.339 67.169C203.569 68.933 205.982 71.154 207.574 73.829C209.167 76.509 209.967 79.645 209.967 83.237C209.967 89.65 207.779 94.967 203.407 99.183C199.037 103.397 193.393 105.507 186.473 105.507C179.031 105.507 172.568 103.117 167.076 98.34L161.571 105.03H158.195V77.476H161.571C162.933 85.063 165.984 91.043 170.721 95.429C175.458 99.813 180.801 102.001 186.743 102.001C191.546 102.001 195.463 100.604 198.498 97.804C201.533 95.007 203.051 91.608 203.051 87.607C203.051 85.337 202.481 83.347 201.355 81.635C200.222 79.921 198.43 78.482 195.977 77.308C193.522 76.133 188.691 74.714 181.493 73.043C173.58 71.177 168.173 69.093 165.271 66.788C161.195 63.523 159.156 58.9 159.156 52.915C159.156 46.675 161.176 41.563 165.223 37.579C169.266 33.596 174.439 31.604 180.748 31.604C183.768 31.604 186.648 32.131 189.376 33.184C192.106 34.238 194.934 35.991 197.854 38.451L197.858 38.452ZM95.658 32.352H131.125C139.135 32.352 145.248 34.152 149.465 37.756C153.681 41.362 155.788 46.071 155.788 51.896C155.788 57.719 153.845 62.156 149.958 65.211C144.614 69.431 138.024 71.534 130.186 71.534H117.363V95.719C117.363 97.127 117.703 98.129 118.373 98.735C119.268 99.505 120.473 99.885 121.981 99.885H130.065V103.548H95.658V99.885H102.908C104.344 99.885 105.396 99.608 106.066 99.045C106.734 98.483 107.071 97.725 107.071 96.762V40.1C107.071 38.657 106.649 37.618 105.801 36.976C104.953 36.336 103.351 36.014 101.001 36.014H95.659V32.352H95.658ZM117.363 67.87H127.097C133.267 67.87 137.713 66.6 140.441 64.053C143.171 61.506 144.533 57.303 144.533 51.438C144.533 47.34 143.92 44.198 142.693 42.002C141.467 39.805 139.666 38.18 137.295 37.122C134.922 36.068 131.025 35.539 125.6 35.539C122.013 35.539 119.743 35.875 118.792 36.544C117.836 37.219 117.362 38.388 117.362 40.054V67.87H117.363Z" fill="black"/>
<path d="M65.185 86.853C29.355 60.748 4.525 29.723 12.808 14.287C19.978 0.927008 46.718 -0.0229931 80.95 9.59401C41.49 -2.68599 10.078 -2.48999 2.02 12.52C-7.143 29.6 21.326 64.065 62.558 92.76C72.151 99.118 82.605 105.25 93.701 111.09C156.785 144.324 217.387 153.647 229.051 131.915C232.224 125.995 231.441 118.385 227.349 109.771C229.842 116.457 230.003 122.391 227.449 127.154C216.414 147.71 159.104 138.889 99.435 107.464C87.005 100.914 75.589 94.04 65.185 86.854V86.853Z" fill="#005A9B"/>
<path d="M164.153 144.095C169.711 144.095 174.217 139.632 174.217 134.126C174.217 128.62 169.711 124.157 164.153 124.157C158.595 124.157 154.089 128.62 154.089 134.126C154.089 139.632 158.595 144.095 164.153 144.095Z" fill="black"/>
<path d="M223.792 141.176H221.127V140.213H227.614V141.176H224.936V148.976H223.792V141.176ZM235.947 145.127C235.883 143.905 235.805 142.424 235.805 141.345H235.778C235.468 142.358 235.115 143.463 234.674 144.673L233.126 148.923H232.269L230.837 144.75C230.421 143.502 230.083 142.385 229.837 141.345H229.81C229.785 142.437 229.72 143.893 229.643 145.219L229.408 148.975H228.328L228.94 140.212H230.384L231.878 144.45C232.242 145.53 232.528 146.492 232.763 147.402H232.788C233.022 146.519 233.334 145.557 233.725 144.452L235.285 140.212H236.727L237.273 148.976H236.155L235.947 145.126V145.127Z" fill="black"/>
</svg>
