<svg id="Layer_1" data-name="Layer 1" xmlns="http://www.w3.org/2000/svg" viewBox="0 0 428.17 79.16"><defs><style>.cls-1,.cls-2{fill:#232960;}.cls-2{fill-rule:evenodd;}</style></defs><title>Logo-C-Pub-RGB</title><path class="cls-1" d="M96.49,23l-.13-2.91a11.63,11.63,0,0,0-3-1.44A11.79,11.79,0,0,0,90,18.18a9.5,9.5,0,0,0-7.07,2.68A9.76,9.76,0,0,0,80.27,28a11.57,11.57,0,0,0,1.34,5.61,10.09,10.09,0,0,0,3.84,3.91A10.27,10.27,0,0,0,90.69,39,18.64,18.64,0,0,0,95,38.48a8.8,8.8,0,0,0,3.22-1.57l.34.33c-.23.5-.44,1-.64,1.52a19,19,0,0,1-3.85,1.43,16.06,16.06,0,0,1-3.89.48,15.46,15.46,0,0,1-7.07-1.55,11.34,11.34,0,0,1-4.67-4.28,11.85,11.85,0,0,1-1.63-6.19,11.62,11.62,0,0,1,1.65-6.16,11,11,0,0,1,4.65-4.21,16.6,16.6,0,0,1,7.42-1.5,23.16,23.16,0,0,1,5.38.75c1,.24,1.86.42,2.5.54A14.57,14.57,0,0,0,97.58,23Z" transform="translate(-5 -3.04)"/><path class="cls-2" d="M99.37,32.5a7.92,7.92,0,0,1,1-4.06,7.31,7.31,0,0,1,2.92-2.86,8.79,8.79,0,0,1,4.3-1,7.59,7.59,0,0,1,5.56,2.06,7.32,7.32,0,0,1,2.09,5.48,8.11,8.11,0,0,1-2.72,6.44,8.58,8.58,0,0,1-5.83,2.14,7,7,0,0,1-5.33-2.19,8.46,8.46,0,0,1-2-6Zm3.07-1.16a11.48,11.48,0,0,0,1.37,5.77,4.38,4.38,0,0,0,4,2.38A3.87,3.87,0,0,0,111,38a7.09,7.09,0,0,0,1.23-4.56,11.44,11.44,0,0,0-.72-4.26,5.64,5.64,0,0,0-1.89-2.63,4.51,4.51,0,0,0-2.63-.83,4.39,4.39,0,0,0-2.34.65,4,4,0,0,0-1.52,1.75,7.88,7.88,0,0,0-.67,3.23Z" transform="translate(-5 -3.04)"/><path class="cls-2" d="M121.77,27.85l2.29-2a4.4,4.4,0,0,1,1.47-1,7.24,7.24,0,0,1,2.25-.31,6.33,6.33,0,0,1,4.7,1.8,6.25,6.25,0,0,1,1.8,4.63,10,10,0,0,1-.41,2.81,8.37,8.37,0,0,1-1,2.26,6.89,6.89,0,0,1-1.33,1.45c-.16.13-.83.56-2,1.29l-.65.47a8.66,8.66,0,0,1-2,1.13,5.1,5.1,0,0,1-1.73.28,6.39,6.39,0,0,1-1.62-.23,10.39,10.39,0,0,1-1.78-.64v2.3c0,2.37,0,4,.1,5a1.21,1.21,0,0,0,.41.92,2.67,2.67,0,0,0,1.52.29h.88v.91q-3.09-.09-4.53-.09c-1.05,0-2.4,0-4,.09v-.91h1.19c.84,0,1.34-.18,1.49-.54A33.66,33.66,0,0,0,119,42V32c0-1.75,0-3.09-.13-4a1.39,1.39,0,0,0-.33-.9,2,2,0,0,0-1.18-.22h-1.27v-1a22.82,22.82,0,0,0,4.46-.93l1-.39c.18,0,.27.15.27.46l0,1.73,0,1.16Zm0,9a6.81,6.81,0,0,0,2.09,1.67,5.35,5.35,0,0,0,2.25.49,4.56,4.56,0,0,0,4-2,7.81,7.81,0,0,0,1.37-4.62,6.73,6.73,0,0,0-.64-3.07,4.57,4.57,0,0,0-1.83-2,4.88,4.88,0,0,0-2.59-.73,5,5,0,0,0-1.93.39,5.07,5.07,0,0,0-1.63,1.09,3.35,3.35,0,0,0-.9,1.28,10.18,10.18,0,0,0-.15,2.33v5.13Z" transform="translate(-5 -3.04)"/><path class="cls-2" d="M139.59,32.44a7.11,7.11,0,0,0,1.65,4.88A5.37,5.37,0,0,0,145.35,39a7.16,7.16,0,0,0,2.27-.38,9.25,9.25,0,0,0,2.24-1.13l.28.25-.53,1.37a11.65,11.65,0,0,1-2.79,1.17,10.82,10.82,0,0,1-2.95.4,7.16,7.16,0,0,1-5.36-2.09,7.9,7.9,0,0,1-2-5.7,9.34,9.34,0,0,1,1.15-4.75,6.87,6.87,0,0,1,2.77-2.45,8,8,0,0,1,3.94-1.13,6.14,6.14,0,0,1,4.57,1.7,6.42,6.42,0,0,1,1.7,4.75l0,1a13.66,13.66,0,0,1-2.06.35c-1.17.08-2.78.13-4.85.13Zm0-1.23q2.52.12,5.58.12a22.64,22.64,0,0,0,2.37-.12V30.3a6.68,6.68,0,0,0-.57-2.73,3,3,0,0,0-1.26-1.32,3.94,3.94,0,0,0-2.07-.54,3.6,3.6,0,0,0-2.93,1.34,6.63,6.63,0,0,0-1.12,4.16Z" transform="translate(-5 -3.04)"/><path class="cls-1" d="M157.78,28.24a14,14,0,0,0,1.42-1.63A6.07,6.07,0,0,1,160.9,25a3.34,3.34,0,0,1,1.65-.44,3.31,3.31,0,0,1,1.37.22.32.32,0,0,1,.23.31l0,.16a23.47,23.47,0,0,0-.28,3.71h-.73a2.65,2.65,0,0,0-.9-1.18,2.13,2.13,0,0,0-1.22-.34,2.87,2.87,0,0,0-1.8.65,3.23,3.23,0,0,0-1.1,1.83,25.07,25.07,0,0,0-.27,4.62,34,34,0,0,0,.18,3.82.9.9,0,0,0,.32.72,3.9,3.9,0,0,0,1.83.34h1v1c-1.66-.08-3.24-.11-4.73-.11s-2.88,0-4.3.11v-1l1.57-.13a1.58,1.58,0,0,0,1-.31,3.21,3.21,0,0,0,.3-1.58c.07-1.57.11-3.43.11-5.59a17.84,17.84,0,0,0-.31-4.62c-.14-.29-.59-.44-1.34-.44h-1.37v-.95a28.62,28.62,0,0,0,2.83-.45,11.81,11.81,0,0,0,2.2-.74,1,1,0,0,1,.38-.11.25.25,0,0,1,.24.1.82.82,0,0,1,.07.44l-.05,3.23Z" transform="translate(-5 -3.04)"/><path class="cls-1" d="M171,27.67l2.47-2.19a2.85,2.85,0,0,1,.93-.57,6.74,6.74,0,0,1,2.15-.36,6,6,0,0,1,3,.72,4.22,4.22,0,0,1,1.83,1.84,8.48,8.48,0,0,1,.56,3.55l-.08,5.14a10.7,10.7,0,0,0,.22,3.07,1.29,1.29,0,0,0,1.21.52h1.18v1c-1.17-.08-2.17-.11-3-.11s-1.72,0-2.66.11c.2-2.12.31-5,.31-8.61a8.44,8.44,0,0,0-.4-3.1,3.05,3.05,0,0,0-1.29-1.47,4,4,0,0,0-2.17-.55,4.44,4.44,0,0,0-2.69.8,3.35,3.35,0,0,0-1.36,1.76,19.23,19.23,0,0,0-.16,3.33c0,2,0,3.85,0,5.55,0,.52.08.84.23,1a1.93,1.93,0,0,0,1.34.37h1.15v1c-1.84-.08-3.3-.11-4.39-.11s-2.46,0-3.93.11v-1h1.17c.81,0,1.28-.18,1.41-.55a49.9,49.9,0,0,0,.21-6.8c0-1.86,0-3.32-.07-4.37A1,1,0,0,0,168,27a2.45,2.45,0,0,0-1.29-.2h-1.17v-.93a19.37,19.37,0,0,0,2.51-.44,18.07,18.07,0,0,0,2.5-.85.74.74,0,0,1,.28-.06c.17,0,.26.12.26.37l0,.62,0,2.21Z" transform="translate(-5 -3.04)"/><path class="cls-2" d="M189.47,17.25a1.77,1.77,0,0,1,1.29.55,1.86,1.86,0,0,1,0,2.62,1.83,1.83,0,0,1-2.6,0,1.86,1.86,0,0,1,1.31-3.17Zm1.3,7.23.39.25c-.07.82-.12,1.71-.14,2.69q-.12,4.77-.12,7t.15,3.63a1.28,1.28,0,0,0,.31.81,2.32,2.32,0,0,0,1.18.35l1.11.14v1c-1.59-.08-3-.11-4.35-.11s-2.58,0-3.88.11v-1l1.4-.14c.55,0,.88-.15,1-.3a3.68,3.68,0,0,0,.24-1.58c.06-1.38.08-3.29.08-5.72,0-1.68,0-3-.08-3.9a1,1,0,0,0-.29-.72,2,2,0,0,0-1.13-.21h-1.22v-1c1.32-.2,2.3-.38,2.92-.54a21.78,21.78,0,0,0,2.43-.84Z" transform="translate(-5 -3.04)"/><path class="cls-1" d="M207.54,38l.44.39-.67,1.05a10,10,0,0,1-2.28.9,9.63,9.63,0,0,1-2.4.31,8.42,8.42,0,0,1-4.08-.92A6.32,6.32,0,0,1,196,37.11a8.73,8.73,0,0,1-.92-4.12,8.82,8.82,0,0,1,.7-3.66,5.94,5.94,0,0,1,2-2.45,21.11,21.11,0,0,1,3.17-1.73,7.23,7.23,0,0,1,3-.6,9.47,9.47,0,0,1,2.15.21,8.13,8.13,0,0,1,2,.72,26.25,26.25,0,0,0-.44,4.31h-1V29a2.68,2.68,0,0,0-.31-1.47,3,3,0,0,0-1.38-.86,6.63,6.63,0,0,0-2.35-.43,4.28,4.28,0,0,0-3.39,1.36,5.85,5.85,0,0,0-1.2,4,8.22,8.22,0,0,0,1.77,5.52A5.08,5.08,0,0,0,203.74,39a7.92,7.92,0,0,0,1.93-.25,8.78,8.78,0,0,0,1.87-.72Z" transform="translate(-5 -3.04)"/><path class="cls-1" d="M222.88,40.34l.19-2.94-1,1.05a7.06,7.06,0,0,1-2.3,1.73,7.56,7.56,0,0,1-2.88.49,5,5,0,0,1-2.53-.62,3.9,3.9,0,0,1-1.55-1.6,7.88,7.88,0,0,1-.47-3.14c0-.74,0-1.6.05-2.58l0-2.63a13.35,13.35,0,0,0-.17-3.07c-.1-.21-.44-.31-1-.31h-1.45v-.9a18.28,18.28,0,0,0,4.1-.81l1.35-.51c.19,0,.28.14.28.41l-.11,1.66c-.16,2.31-.23,4.46-.23,6.44a17.89,17.89,0,0,0,.24,3.8,2.66,2.66,0,0,0,1,1.38,3.37,3.37,0,0,0,1.91.53,4.37,4.37,0,0,0,2.78-1,5,5,0,0,0,1.67-2,15.25,15.25,0,0,0,.21-3.45,34.72,34.72,0,0,0-.18-5.26c-.11-.22-.6-.34-1.47-.34h-1.29v-.9c1.12-.13,2.07-.28,2.86-.45a16.77,16.77,0,0,0,2.48-.79.75.75,0,0,1,.29-.08c.19,0,.28.1.28.31L226,26.33q-.24,5.58-.24,9.83a7.85,7.85,0,0,0,.24,2.73c.24.34.76.5,1.56.5h.94v1c-1.36-.08-2.51-.11-3.46-.11a18.82,18.82,0,0,0-2.12.11Z" transform="translate(-5 -3.04)"/><path class="cls-1" d="M231.81,35.34V36.4A3.34,3.34,0,0,0,232,38a4.11,4.11,0,0,0,1.65,1,6.84,6.84,0,0,0,2.55.49,4.09,4.09,0,0,0,2.74-.9A2.77,2.77,0,0,0,240,36.42a2.15,2.15,0,0,0-.62-1.6,4.93,4.93,0,0,0-2.37-1,22.82,22.82,0,0,1-4.29-1.15,3.34,3.34,0,0,1-2.09-3.28,4.44,4.44,0,0,1,1.57-3.53,6.67,6.67,0,0,1,4.47-1.35,12.16,12.16,0,0,1,4.56.91c-.09.74-.16,2-.22,3.73h-1a4.49,4.49,0,0,0-.31-1.9,3.31,3.31,0,0,0-1.37-1.09,4.71,4.71,0,0,0-2.12-.49,3.5,3.5,0,0,0-2.39.77,2.37,2.37,0,0,0-.88,1.89,2,2,0,0,0,.7,1.65,11.44,11.44,0,0,0,3.89,1.21,12.9,12.9,0,0,1,3.1.88,3.08,3.08,0,0,1,1.21,1.24,4,4,0,0,1,.46,1.91,4.84,4.84,0,0,1-1.9,3.81,7.53,7.53,0,0,1-5,1.6A18.57,18.57,0,0,1,231,40c-.3-.08-.45-.19-.45-.34l.05-.23a5.4,5.4,0,0,0,.12-.87q.15-1.58.15-2.46l0-.79Z" transform="translate(-5 -3.04)"/><path class="cls-1" d="M259.13,18.88c-.08,1.57-.12,3.24-.12,5v9.32c0,3.28.1,5.11.3,5.5s.83.59,1.92.59h1.13v1c-1.93-.08-3.44-.11-4.56-.11s-2.71,0-5.21.11v-1h1.48a2.37,2.37,0,0,0,1.32-.24,1.64,1.64,0,0,0,.37-1c.06-.52.12-2.11.18-4.75V24.57l-.05-3.38a4.85,4.85,0,0,0-.45-2.59,2.91,2.91,0,0,0-2-.47h-.82v-1c1.37.06,3.09.08,5.18.08,1.23,0,2.6,0,4.1-.09,1-.05,1.74-.07,2.25-.07,2.64,0,4.55.48,5.75,1.44a4.72,4.72,0,0,1,1.78,3.88,6.35,6.35,0,0,1-1,3.43,7.4,7.4,0,0,1-2.92,2.63,8.38,8.38,0,0,1-4,1,12.07,12.07,0,0,1-2.45-.31l-.32-1.24a9.83,9.83,0,0,0,2.4.37,4.76,4.76,0,0,0,3.57-1.35,5.14,5.14,0,0,0,1.33-3.74,4.55,4.55,0,0,0-1.42-3.56,6,6,0,0,0-4.2-1.29,11.4,11.4,0,0,0-3.46.6Z" transform="translate(-5 -3.04)"/><path class="cls-1" d="M285.78,40.34,286,37.4l-1,1.05a7.06,7.06,0,0,1-2.3,1.73,7.56,7.56,0,0,1-2.88.49,5,5,0,0,1-2.53-.62,3.9,3.9,0,0,1-1.55-1.6,7.88,7.88,0,0,1-.47-3.14c0-.74,0-1.6.05-2.58l.05-2.63a13.35,13.35,0,0,0-.17-3.07c-.1-.21-.44-.31-1-.31h-1.45v-.9a18.28,18.28,0,0,0,4.1-.81l1.35-.51c.19,0,.28.14.28.41l-.11,1.66q-.23,3.46-.23,6.44a17.89,17.89,0,0,0,.24,3.8,2.66,2.66,0,0,0,1,1.38,3.37,3.37,0,0,0,1.91.53,4.37,4.37,0,0,0,2.78-1,5,5,0,0,0,1.67-2,15.25,15.25,0,0,0,.21-3.45,34.72,34.72,0,0,0-.18-5.26c-.11-.22-.6-.34-1.47-.34H283v-.9c1.12-.13,2.07-.28,2.86-.45a16.77,16.77,0,0,0,2.48-.79.71.71,0,0,1,.29-.08c.19,0,.28.1.28.31l-.07,1.52q-.24,5.58-.24,9.83a7.85,7.85,0,0,0,.24,2.73c.24.34.76.5,1.56.5h.94v1c-1.36-.08-2.51-.11-3.46-.11a18.82,18.82,0,0,0-2.12.11Z" transform="translate(-5 -3.04)"/><path class="cls-2" d="M292.46,18.05v-.91a28,28,0,0,0,2.94-.48,13.39,13.39,0,0,0,2.22-.67.83.83,0,0,1,.31-.08c.23,0,.34.21.34.62l-.08.82c-.08.62-.12,1.08-.13,1.39,0,1.4-.05,3.32-.05,5.74V28l2-2a4.56,4.56,0,0,1,1.67-1,6.24,6.24,0,0,1,2.22-.39,5.68,5.68,0,0,1,4.33,1.81,6.78,6.78,0,0,1,1.69,4.82,9,9,0,0,1-.6,3.22,8,8,0,0,1-1.44,2.51,15.86,15.86,0,0,1-2.19,1.76,18.23,18.23,0,0,1-2.3,1.54,5.53,5.53,0,0,1-2.33.46,6.93,6.93,0,0,1-2.21-.33,7.16,7.16,0,0,1-2-1.13l-1.31,1.21-.55-.21a46.9,46.9,0,0,0,.31-5.29V24.55q0-2.4-.15-4.92a2.66,2.66,0,0,0-.28-1.37,1.46,1.46,0,0,0-1-.21ZM298,35a7.71,7.71,0,0,0,.13,2,3.68,3.68,0,0,0,1.4,1.24,4.82,4.82,0,0,0,2.54.71,4.2,4.2,0,0,0,3.69-1.92,8,8,0,0,0,1.3-4.63,6.47,6.47,0,0,0-1.27-4.33,4.21,4.21,0,0,0-3.4-1.5,4.55,4.55,0,0,0-2.61.81,4.41,4.41,0,0,0-1.62,1.91,7.09,7.09,0,0,0-.16,2V35Z" transform="translate(-5 -3.04)"/><path class="cls-1" d="M317.23,16.09c-.19,3.19-.28,6.07-.28,8.66v8.39a37.32,37.32,0,0,0,.21,5.67c.08.22.44.37,1.08.44l1.39.14v1c-1.19-.08-2.32-.11-3.4-.11s-2.76,0-4.7.11v-1l1.4-.11c.63-.05,1-.21,1.07-.47a38.39,38.39,0,0,0,.21-5.8V24.66l0-3.13-.05-2.14a1.62,1.62,0,0,0-.18-1,1.62,1.62,0,0,0-1.09-.26h-1.34v-1A16.16,16.16,0,0,0,317,15.89l.28.2Z" transform="translate(-5 -3.04)"/><path class="cls-2" d="M325.35,17.25A1.86,1.86,0,1,1,324,20.42a1.86,1.86,0,0,1,1.31-3.17Zm1.3,7.23.39.25c-.07.82-.12,1.71-.14,2.69q-.12,4.77-.12,7t.15,3.63a1.28,1.28,0,0,0,.31.81,2.28,2.28,0,0,0,1.18.35l1.11.14v1c-1.59-.08-3-.11-4.35-.11s-2.58,0-3.88.11v-1l1.4-.14a1.6,1.6,0,0,0,1-.3,3.68,3.68,0,0,0,.24-1.58c.06-1.38.08-3.29.08-5.72,0-1.68,0-3-.08-3.9a1,1,0,0,0-.29-.72,2,2,0,0,0-1.13-.21H321.3v-1c1.32-.2,2.3-.38,2.92-.54a21.78,21.78,0,0,0,2.43-.84Z" transform="translate(-5 -3.04)"/><path class="cls-1" d="M343.42,38l.44.39-.67,1.05a10,10,0,0,1-2.28.9,9.75,9.75,0,0,1-2.4.31,8.42,8.42,0,0,1-4.08-.92,6.28,6.28,0,0,1-2.59-2.64,8.85,8.85,0,0,1-.91-4.12,8.82,8.82,0,0,1,.7-3.66,5.86,5.86,0,0,1,2-2.45,21.11,21.11,0,0,1,3.17-1.73,7.23,7.23,0,0,1,3-.6,9.47,9.47,0,0,1,2.15.21,8.13,8.13,0,0,1,2,.72,25.2,25.2,0,0,0-.44,4.31h-1V29a2.59,2.59,0,0,0-.31-1.47,2.94,2.94,0,0,0-1.37-.86,6.63,6.63,0,0,0-2.35-.43,4.31,4.31,0,0,0-3.4,1.36,5.9,5.9,0,0,0-1.19,4,8.22,8.22,0,0,0,1.77,5.52A5.08,5.08,0,0,0,339.62,39a7.92,7.92,0,0,0,1.93-.25,8.78,8.78,0,0,0,1.87-.72Z" transform="translate(-5 -3.04)"/><path class="cls-2" d="M347.38,29V26.75l1.78-1a10.19,10.19,0,0,1,2.1-.95,7.23,7.23,0,0,1,1.95-.26,5.91,5.91,0,0,1,3.62,1,4,4,0,0,1,1.67,2.58,52.85,52.85,0,0,1,.24,5.83,33.39,33.39,0,0,0,.2,4.85.76.76,0,0,0,.81.45H361v1.08c-1.24-.08-2.11-.11-2.6-.11s-1.43,0-2.45.11l0-1.45c0-.47,0-.94,0-1.42l-3.38,2.58a3,3,0,0,1-.9.47,3.91,3.91,0,0,1-1.22.15,4.59,4.59,0,0,1-3.22-1,3.66,3.66,0,0,1-1.11-2.79,5.26,5.26,0,0,1,.78-2.88,4.77,4.77,0,0,1,2.26-1.83A45.17,45.17,0,0,1,356,30.61a4.86,4.86,0,0,0-.91-3.11,4,4,0,0,0-3.17-1.29,5.38,5.38,0,0,0-1.47.2,4.46,4.46,0,0,0-1.27.59q-.48,1.16-.87,2.22l-.91-.25Zm8.6,2.6q-4.55,1-5.76,1.85A3,3,0,0,0,349,36.06a2.74,2.74,0,0,0,.7,1.95,2.47,2.47,0,0,0,1.82.71,4.34,4.34,0,0,0,2.33-.68A7.84,7.84,0,0,0,356,36l0-3.63,0-.8Z" transform="translate(-5 -3.04)"/><path class="cls-1" d="M367.82,27.5v6.41a18.7,18.7,0,0,0,.16,3.2,1.88,1.88,0,0,0,.66,1.09,2,2,0,0,0,1.27.39,2.43,2.43,0,0,0,.92-.18,3.51,3.51,0,0,0,.89-.57l.48.57-1.59,1.88a8.55,8.55,0,0,1-1,.28,5.29,5.29,0,0,1-1,.1,4.39,4.39,0,0,1-2-.44,2.86,2.86,0,0,1-1.21-1.11A4.64,4.64,0,0,1,365,37l.05-3.15V27.65c-.84,0-1.71,0-2.6.12v-.71c.94-.36,1.8-.73,2.6-1.12,0-1.56-.06-3.25-.13-5.06a25.12,25.12,0,0,0,2.72-1.3l.43.33q-.14,1.28-.28,6c1.33,0,2.41,0,3.25-.05l1.31-.07-.18,1.68h-4.38Z" transform="translate(-5 -3.04)"/><path class="cls-2" d="M377.55,17.25a1.77,1.77,0,0,1,1.29.55,1.86,1.86,0,0,1,0,2.62,1.82,1.82,0,0,1-2.59,0,1.86,1.86,0,0,1,1.3-3.17Zm1.31,7.23.39.25c-.08.82-.12,1.71-.15,2.69q-.11,4.77-.11,7t.15,3.63a1.22,1.22,0,0,0,.31.81,2.27,2.27,0,0,0,1.17.35l1.11.14v1c-1.59-.08-3-.11-4.34-.11s-2.58,0-3.89.11v-1l1.41-.14a1.57,1.57,0,0,0,1-.3,3.62,3.62,0,0,0,.25-1.58c.05-1.38.08-3.29.08-5.72,0-1.68,0-3-.08-3.9a.93.93,0,0,0-.3-.72,1.91,1.91,0,0,0-1.12-.21H373.5v-1c1.33-.2,2.31-.38,2.93-.54a21.78,21.78,0,0,0,2.43-.84Z" transform="translate(-5 -3.04)"/><path class="cls-2" d="M383.58,32.5a8,8,0,0,1,1-4.06,7.33,7.33,0,0,1,2.93-2.86,8.78,8.78,0,0,1,4.29-1,7.6,7.6,0,0,1,5.57,2.06,7.36,7.36,0,0,1,2.09,5.48,8.12,8.12,0,0,1-2.73,6.44,8.55,8.55,0,0,1-5.83,2.14,7,7,0,0,1-5.32-2.19,8.46,8.46,0,0,1-2-6Zm3.07-1.16A11.48,11.48,0,0,0,388,37.11a4.37,4.37,0,0,0,4,2.38,3.9,3.9,0,0,0,3.18-1.5,7.09,7.09,0,0,0,1.22-4.56,11.66,11.66,0,0,0-.71-4.26,5.65,5.65,0,0,0-1.9-2.63,4.47,4.47,0,0,0-2.63-.83,4.33,4.33,0,0,0-2.33.65,4,4,0,0,0-1.52,1.75,7.72,7.72,0,0,0-.67,3.23Z" transform="translate(-5 -3.04)"/><path class="cls-1" d="M406.57,27.67,409,25.48a2.85,2.85,0,0,1,.93-.57,6.78,6.78,0,0,1,2.15-.36,6.06,6.06,0,0,1,3,.72A4.25,4.25,0,0,1,417,27.11a8.48,8.48,0,0,1,.56,3.55l-.08,5.14a10.13,10.13,0,0,0,.23,3.07,1.27,1.27,0,0,0,1.2.52h1.18v1c-1.16-.08-2.17-.11-3-.11s-1.71,0-2.66.11c.2-2.12.31-5,.31-8.61a8.71,8.71,0,0,0-.39-3.1A3.1,3.1,0,0,0,413,27.16a4.08,4.08,0,0,0-2.18-.55,4.44,4.44,0,0,0-2.69.8,3.35,3.35,0,0,0-1.36,1.76,19.23,19.23,0,0,0-.16,3.33c0,2,0,3.85.05,5.55a1.47,1.47,0,0,0,.23,1,2,2,0,0,0,1.34.37h1.16v1c-1.84-.08-3.31-.11-4.4-.11s-2.46,0-3.93.11v-1h1.17c.81,0,1.28-.18,1.41-.55a49.9,49.9,0,0,0,.21-6.8c0-1.86,0-3.32-.06-4.37a1,1,0,0,0-.27-.72,2.45,2.45,0,0,0-1.29-.2h-1.17v-.93a19.37,19.37,0,0,0,2.51-.44,17.63,17.63,0,0,0,2.5-.85.74.74,0,0,1,.28-.06c.17,0,.26.12.26.37l0,.62,0,2.21Z" transform="translate(-5 -3.04)"/><path class="cls-1" d="M422.61,35.34V36.4a3.22,3.22,0,0,0,.23,1.59,4.11,4.11,0,0,0,1.65,1,6.75,6.75,0,0,0,2.54.49,4.12,4.12,0,0,0,2.75-.9,2.8,2.8,0,0,0,1.06-2.17,2.15,2.15,0,0,0-.62-1.6,5,5,0,0,0-2.37-1,22.76,22.76,0,0,1-4.3-1.15,3.56,3.56,0,0,1-1.56-1.3,3.61,3.61,0,0,1-.53-2A4.47,4.47,0,0,1,423,25.9a6.71,6.71,0,0,1,4.48-1.35,12.07,12.07,0,0,1,4.55.91c-.08.74-.15,2-.21,3.73h-1a4.49,4.49,0,0,0-.31-1.9,3.31,3.31,0,0,0-1.37-1.09,4.75,4.75,0,0,0-2.13-.49,3.5,3.5,0,0,0-2.38.77,2.37,2.37,0,0,0-.88,1.89,2,2,0,0,0,.7,1.65,11.44,11.44,0,0,0,3.89,1.21,13.05,13.05,0,0,1,3.1.88,3.08,3.08,0,0,1,1.21,1.24,4,4,0,0,1,.45,1.91,4.85,4.85,0,0,1-1.89,3.81,7.53,7.53,0,0,1-5,1.6,18.71,18.71,0,0,1-4.51-.64c-.29-.08-.44-.19-.44-.34l.05-.23a5.74,5.74,0,0,0,.11-.87q.15-1.58.15-2.46v-.79Z" transform="translate(-5 -3.04)"/><polygon class="cls-1" points="81.66 53.64 77.5 53.64 77.5 63.9 75.96 63.9 75.96 53.64 71.8 53.64 71.8 52.26 81.66 52.26 81.66 53.64 81.66 53.64"/><path class="cls-1" d="M95.4,66.93H93.93V62a8.06,8.06,0,0,0-.07-1.13,2.09,2.09,0,0,0-.25-.83,1.13,1.13,0,0,0-.57-.48,2.31,2.31,0,0,0-1-.17,3,3,0,0,0-1.26.3,6.92,6.92,0,0,0-1.26.76v6.51H88.11V54.78h1.46v4.4A5.93,5.93,0,0,1,91,58.29,3.62,3.62,0,0,1,92.5,58a2.69,2.69,0,0,1,2.16.85,3.59,3.59,0,0,1,.74,2.45v5.66Z" transform="translate(-5 -3.04)"/><path class="cls-2" d="M105.54,62.72H99.11a3.78,3.78,0,0,0,.24,1.41,2.65,2.65,0,0,0,.66,1,2.7,2.7,0,0,0,1,.56,4.08,4.08,0,0,0,1.24.19A4.8,4.8,0,0,0,104,65.5a4.6,4.6,0,0,0,1.29-.7h.07v1.6a11.76,11.76,0,0,1-1.51.53,6.22,6.22,0,0,1-1.63.21A4.7,4.7,0,0,1,98.83,66a4.46,4.46,0,0,1-1.22-3.35,4.79,4.79,0,0,1,1.17-3.4A4,4,0,0,1,101.86,58a3.49,3.49,0,0,1,2.71,1,4.08,4.08,0,0,1,1,2.93v.79Zm-1.43-1.12a2.59,2.59,0,0,0-.59-1.79,2.23,2.23,0,0,0-1.74-.63,2.55,2.55,0,0,0-1.88.69,2.66,2.66,0,0,0-.79,1.73Z" transform="translate(-5 -3.04)"/><polygon class="cls-1" points="112.61 63.9 108.01 63.9 108.01 62.71 109.54 62.71 109.54 53.45 108.01 53.45 108.01 52.26 112.61 52.26 112.61 53.45 111.08 53.45 111.08 62.71 112.61 62.71 112.61 63.9 112.61 63.9"/><path class="cls-1" d="M127.42,66.93H126V62a8.06,8.06,0,0,0-.07-1.13,2.08,2.08,0,0,0-.26-.83,1.15,1.15,0,0,0-.56-.48,2.34,2.34,0,0,0-1-.17,3,3,0,0,0-1.26.3,6.3,6.3,0,0,0-1.26.76v6.51h-1.47V58.21h1.47v1a5.88,5.88,0,0,1,1.42-.89,3.63,3.63,0,0,1,1.51-.32,2.72,2.72,0,0,1,2.16.85,3.64,3.64,0,0,1,.74,2.45v5.66Z" transform="translate(-5 -3.04)"/><path class="cls-1" d="M137.54,66.93h-1.47V62a8.06,8.06,0,0,0-.07-1.13,2.09,2.09,0,0,0-.25-.83,1.13,1.13,0,0,0-.57-.48,2.31,2.31,0,0,0-1-.17,3,3,0,0,0-1.26.3,6.53,6.53,0,0,0-1.25.76v6.51h-1.47V58.21h1.47v1a5.69,5.69,0,0,1,1.42-.89,3.63,3.63,0,0,1,1.51-.32,2.68,2.68,0,0,1,2.15.85,3.59,3.59,0,0,1,.74,2.45v5.66Z" transform="translate(-5 -3.04)"/><path class="cls-2" d="M147.81,62.58a4.92,4.92,0,0,1-1.09,3.36,4.11,4.11,0,0,1-5.88,0,5.74,5.74,0,0,1,0-6.73,4.11,4.11,0,0,1,5.88,0,4.93,4.93,0,0,1,1.09,3.37Zm-1.52,0a4,4,0,0,0-.66-2.52,2.48,2.48,0,0,0-3.7,0,4,4,0,0,0-.66,2.52,4,4,0,0,0,.66,2.49,2.24,2.24,0,0,0,1.86.84,2.22,2.22,0,0,0,1.83-.83,4,4,0,0,0,.67-2.5Z" transform="translate(-5 -3.04)"/><polygon class="cls-1" points="152.63 55.17 149.1 63.9 147.62 63.9 144.11 55.17 145.71 55.17 148.41 62.11 151.09 55.17 152.63 55.17 152.63 55.17"/><path class="cls-2" d="M166.33,66.93h-1.46V66l-.53.38a3.28,3.28,0,0,1-.64.37,4.34,4.34,0,0,1-.84.3,4.6,4.6,0,0,1-1.12.13,2.79,2.79,0,0,1-2-.78,2.65,2.65,0,0,1-.82-2,2.78,2.78,0,0,1,.42-1.6,2.92,2.92,0,0,1,1.22-1,6.6,6.6,0,0,1,1.91-.47c.75-.09,1.55-.15,2.4-.19v-.23a1.73,1.73,0,0,0-.18-.83,1.23,1.23,0,0,0-.5-.51,2.07,2.07,0,0,0-.75-.24,6.59,6.59,0,0,0-.91-.07,6.3,6.3,0,0,0-1.29.16,8.73,8.73,0,0,0-1.47.44h-.08V58.4a12.62,12.62,0,0,1,1.24-.26,8.91,8.91,0,0,1,1.61-.14,7.57,7.57,0,0,1,1.6.15,3,3,0,0,1,1.18.52,2.28,2.28,0,0,1,.75.93,3.29,3.29,0,0,1,.26,1.41v5.92Zm-1.46-2.14V62.36c-.45,0-1,.06-1.58.11a8.67,8.67,0,0,0-1.44.23,2.43,2.43,0,0,0-1,.56,1.6,1.6,0,0,0,.07,2.17,2.12,2.12,0,0,0,1.38.38,3.24,3.24,0,0,0,1.41-.3,6.18,6.18,0,0,0,1.19-.72Z" transform="translate(-5 -3.04)"/><path class="cls-1" d="M173.69,66.86c-.27.07-.58.13-.9.18a7.56,7.56,0,0,1-.87.07,2.69,2.69,0,0,1-2-.72,3.21,3.21,0,0,1-.7-2.31V59.44h-1V58.21h1V55.7h1.47v2.51h3v1.23h-3v4q0,.69,0,1.08a1.88,1.88,0,0,0,.22.72,1.16,1.16,0,0,0,.47.46,2.36,2.36,0,0,0,.92.14,3.37,3.37,0,0,0,.75-.1l.56-.18h.08v1.32Z" transform="translate(-5 -3.04)"/><path class="cls-2" d="M177,56.75h-1.65V55.22H177v1.53ZM177,66.93h-1.47V58.21H177v8.72Z" transform="translate(-5 -3.04)"/><polygon class="cls-1" points="182.4 55.17 178.87 63.9 177.4 63.9 173.89 55.17 175.48 55.17 178.18 62.11 180.86 55.17 182.4 55.17 182.4 55.17"/><path class="cls-2" d="M196.63,62.72H190.2a3.78,3.78,0,0,0,.24,1.41,2.55,2.55,0,0,0,.67,1,2.7,2.7,0,0,0,1,.56,4,4,0,0,0,1.23.19,4.77,4.77,0,0,0,1.79-.36,4.6,4.6,0,0,0,1.29-.7h.08v1.6a11.9,11.9,0,0,1-1.52.53,6.15,6.15,0,0,1-1.62.21A4.69,4.69,0,0,1,189.93,66a4.42,4.42,0,0,1-1.22-3.35,4.83,4.83,0,0,1,1.16-3.4A4,4,0,0,1,193,58a3.51,3.51,0,0,1,2.72,1,4.12,4.12,0,0,1,1,2.93v.79ZM195.2,61.6a2.59,2.59,0,0,0-.59-1.79,2.23,2.23,0,0,0-1.74-.63,2.56,2.56,0,0,0-1.88.69,2.71,2.71,0,0,0-.79,1.73Z" transform="translate(-5 -3.04)"/><path class="cls-2" d="M213.27,56.64a5.34,5.34,0,0,1,1.09,1.91,8.17,8.17,0,0,1,.38,2.57,8,8,0,0,1-.39,2.58,5.35,5.35,0,0,1-1.08,1.89,4.68,4.68,0,0,1-1.7,1.19,6,6,0,0,1-2.24.4,5.9,5.9,0,0,1-2.23-.41,4.45,4.45,0,0,1-1.7-1.18,5.21,5.21,0,0,1-1.09-1.9,8.12,8.12,0,0,1-.38-2.57,8,8,0,0,1,.38-2.54,5.32,5.32,0,0,1,1.09-1.94,4.5,4.5,0,0,1,1.71-1.17,5.77,5.77,0,0,1,2.22-.41,5.85,5.85,0,0,1,2.24.41,4.54,4.54,0,0,1,1.7,1.17Zm-.14,4.48a5.32,5.32,0,0,0-1-3.49,3.39,3.39,0,0,0-2.77-1.23,3.43,3.43,0,0,0-2.79,1.23,5.38,5.38,0,0,0-1,3.49,5.32,5.32,0,0,0,1,3.51,3.76,3.76,0,0,0,5.53,0,5.27,5.27,0,0,0,1-3.51Z" transform="translate(-5 -3.04)"/><path class="cls-2" d="M224.75,62.47a6,6,0,0,1-.3,1.94,4.2,4.2,0,0,1-.86,1.49,3.59,3.59,0,0,1-1.22.89,3.5,3.5,0,0,1-1.47.32,4.73,4.73,0,0,1-1.24-.15,5.2,5.2,0,0,1-1.12-.46v3.65h-1.47V58.21h1.47v.91a5.53,5.53,0,0,1,1.32-.82,3.77,3.77,0,0,1,1.56-.33,2.85,2.85,0,0,1,2.45,1.19,5.43,5.43,0,0,1,.88,3.31Zm-1.51,0a4.14,4.14,0,0,0-.54-2.35,1.86,1.86,0,0,0-1.66-.79,3.28,3.28,0,0,0-1.27.28,5.49,5.49,0,0,0-1.23.72V65.3a5.39,5.39,0,0,0,1.07.38,4.65,4.65,0,0,0,1,.11,2.35,2.35,0,0,0,1.91-.83,3.76,3.76,0,0,0,.69-2.46Z" transform="translate(-5 -3.04)"/><path class="cls-2" d="M234.35,62.72h-6.43a3.78,3.78,0,0,0,.24,1.41,2.55,2.55,0,0,0,.67,1,2.7,2.7,0,0,0,1,.56,4,4,0,0,0,1.23.19,4.8,4.8,0,0,0,1.79-.36,4.6,4.6,0,0,0,1.29-.7h.08v1.6a11.9,11.9,0,0,1-1.52.53,6.15,6.15,0,0,1-1.62.21A4.69,4.69,0,0,1,227.65,66a4.42,4.42,0,0,1-1.22-3.35,4.79,4.79,0,0,1,1.16-3.4A4,4,0,0,1,230.67,58a3.51,3.51,0,0,1,2.72,1,4.12,4.12,0,0,1,1,2.93v.79Zm-1.43-1.12a2.59,2.59,0,0,0-.59-1.79,2.23,2.23,0,0,0-1.74-.63,2.56,2.56,0,0,0-1.88.69,2.66,2.66,0,0,0-.79,1.73Z" transform="translate(-5 -3.04)"/><path class="cls-1" d="M243.87,66.93H242.4V62a8.06,8.06,0,0,0-.07-1.13,2.09,2.09,0,0,0-.25-.83,1.17,1.17,0,0,0-.57-.48,2.31,2.31,0,0,0-.95-.17,3,3,0,0,0-1.26.3,6.3,6.3,0,0,0-1.26.76v6.51h-1.46V58.21H238v1a5.93,5.93,0,0,1,1.43-.89A3.62,3.62,0,0,1,241,58a2.7,2.7,0,0,1,2.16.85,3.64,3.64,0,0,1,.74,2.45v5.66Z" transform="translate(-5 -3.04)"/><path class="cls-2" d="M261.61,66.93H260l-1.14-3.24h-5l-1.14,3.24h-1.57l4.24-11.63h2.06l4.23,11.63Zm-3.26-4.57-2-5.71-2.05,5.71Z" transform="translate(-5 -3.04)"/><path class="cls-1" d="M269.72,66.39a10,10,0,0,1-1.4.54,4.93,4.93,0,0,1-1.4.2,5.38,5.38,0,0,1-1.74-.27,3.65,3.65,0,0,1-1.35-.85,3.77,3.77,0,0,1-.88-1.42,5.82,5.82,0,0,1-.31-2,4.68,4.68,0,0,1,1.17-3.36A4.14,4.14,0,0,1,266.92,58a5.23,5.23,0,0,1,1.47.22,8.35,8.35,0,0,1,1.33.51v1.63h-.08a5.61,5.61,0,0,0-1.39-.8,3.75,3.75,0,0,0-1.39-.28,2.47,2.47,0,0,0-2,.84,3.68,3.68,0,0,0-.72,2.46,3.76,3.76,0,0,0,.7,2.43,2.46,2.46,0,0,0,2,.85,3.54,3.54,0,0,0,.9-.12,3.68,3.68,0,0,0,.83-.31,5.82,5.82,0,0,0,.6-.34,4.58,4.58,0,0,0,.45-.32h.08v1.62Z" transform="translate(-5 -3.04)"/><path class="cls-1" d="M278.05,66.39a9.51,9.51,0,0,1-1.4.54,4.83,4.83,0,0,1-1.4.2,5.36,5.36,0,0,1-1.73-.27,3.49,3.49,0,0,1-1.35-.85,3.65,3.65,0,0,1-.88-1.42,5.81,5.81,0,0,1-.32-2,4.64,4.64,0,0,1,1.18-3.36,4.12,4.12,0,0,1,3.1-1.22,5.23,5.23,0,0,1,1.47.22,7.67,7.67,0,0,1,1.33.51v1.63H278a5.43,5.43,0,0,0-1.39-.8,3.67,3.67,0,0,0-1.39-.28,2.46,2.46,0,0,0-2,.84,4.57,4.57,0,0,0,0,4.89,2.44,2.44,0,0,0,2,.85,3.61,3.61,0,0,0,.91-.12,3.87,3.87,0,0,0,.83-.31,5.82,5.82,0,0,0,.6-.34,4.28,4.28,0,0,0,.44-.32h.08v1.62Z" transform="translate(-5 -3.04)"/><path class="cls-2" d="M287.24,62.72h-6.43a3.78,3.78,0,0,0,.24,1.41,2.55,2.55,0,0,0,.67,1,2.7,2.7,0,0,0,1,.56,4,4,0,0,0,1.23.19,4.8,4.8,0,0,0,1.79-.36,4.6,4.6,0,0,0,1.29-.7h.08v1.6a11.9,11.9,0,0,1-1.52.53,6.15,6.15,0,0,1-1.62.21A4.69,4.69,0,0,1,280.54,66a4.42,4.42,0,0,1-1.22-3.35,4.83,4.83,0,0,1,1.16-3.4A4,4,0,0,1,283.56,58a3.51,3.51,0,0,1,2.72,1,4.12,4.12,0,0,1,1,2.93v.79Zm-1.43-1.12a2.59,2.59,0,0,0-.59-1.79,2.23,2.23,0,0,0-1.74-.63,2.56,2.56,0,0,0-1.88.69,2.66,2.66,0,0,0-.79,1.73Z" transform="translate(-5 -3.04)"/><path class="cls-1" d="M295.7,64.42a2.37,2.37,0,0,1-1,2,4.31,4.31,0,0,1-2.7.77,6.67,6.67,0,0,1-1.78-.23,8.77,8.77,0,0,1-1.35-.51V64.76H289a6,6,0,0,0,1.54.84,5,5,0,0,0,1.64.3,3,3,0,0,0,1.51-.31,1,1,0,0,0,.55-1,1,1,0,0,0-.3-.78,2.6,2.6,0,0,0-1.14-.46l-.82-.16A8.81,8.81,0,0,1,291,63a3,3,0,0,1-1.63-.89,2.22,2.22,0,0,1-.48-1.45,2.29,2.29,0,0,1,.22-1,2.4,2.4,0,0,1,.68-.86,3.22,3.22,0,0,1,1.11-.57,4.75,4.75,0,0,1,1.51-.22,6.62,6.62,0,0,1,1.58.19,6.31,6.31,0,0,1,1.34.46v1.57h-.08a5.48,5.48,0,0,0-1.37-.69,4.45,4.45,0,0,0-1.58-.29,2.73,2.73,0,0,0-1.36.31,1.09,1.09,0,0,0-.22,1.73,2.64,2.64,0,0,0,1.07.44c.27.07.57.13.9.19l.85.17a3.16,3.16,0,0,1,1.58.81,2.14,2.14,0,0,1,.55,1.53Z" transform="translate(-5 -3.04)"/><path class="cls-1" d="M304,64.42a2.35,2.35,0,0,1-1,2,4.26,4.26,0,0,1-2.69.77,6.61,6.61,0,0,1-1.78-.23,8.39,8.39,0,0,1-1.35-.51V64.76h.07a6.1,6.1,0,0,0,1.55.84,4.91,4.91,0,0,0,1.63.3,3.05,3.05,0,0,0,1.52-.31,1.07,1.07,0,0,0,.55-1,1,1,0,0,0-.3-.78,2.72,2.72,0,0,0-1.14-.46l-.82-.16a9,9,0,0,1-.92-.21,3.07,3.07,0,0,1-1.63-.89,2.22,2.22,0,0,1-.48-1.45,2.44,2.44,0,0,1,.22-1,2.52,2.52,0,0,1,.68-.86,3.22,3.22,0,0,1,1.11-.57,4.85,4.85,0,0,1,1.52-.22,6.62,6.62,0,0,1,1.58.19,6.2,6.2,0,0,1,1.33.46v1.57h-.08a5.41,5.41,0,0,0-1.36-.69,4.53,4.53,0,0,0-1.58-.29,2.71,2.71,0,0,0-1.36.31,1.08,1.08,0,0,0-.22,1.73,2.59,2.59,0,0,0,1.06.44c.27.07.58.13.91.19l.84.17a3.16,3.16,0,0,1,1.58.81,2.1,2.1,0,0,1,.56,1.53Z" transform="translate(-5 -3.04)"/><path class="cls-2" d="M319.49,58.82a3.75,3.75,0,0,1-.27,1.43,3.58,3.58,0,0,1-.75,1.15,4,4,0,0,1-1.43.9,6,6,0,0,1-2.07.3h-1.54v4.33h-1.55V55.3H315a7.48,7.48,0,0,1,1.77.18,4.16,4.16,0,0,1,1.29.55,3.09,3.09,0,0,1,1,1.11,3.37,3.37,0,0,1,.37,1.68Zm-1.61,0a2.46,2.46,0,0,0-.21-1,1.8,1.8,0,0,0-.64-.73,2.62,2.62,0,0,0-.86-.34,5.74,5.74,0,0,0-1.21-.11h-1.53v4.65h1.3a5.69,5.69,0,0,0,1.52-.17,2.18,2.18,0,0,0,1-.53,2.31,2.31,0,0,0,.51-.79,2.52,2.52,0,0,0,.16-.93Z" transform="translate(-5 -3.04)"/><path class="cls-1" d="M328.65,66.93h-1.47V66a6.75,6.75,0,0,1-1.43.89,3.51,3.51,0,0,1-1.5.32,2.77,2.77,0,0,1-2.14-.84,3.55,3.55,0,0,1-.76-2.47V58.21h1.47v5a9.34,9.34,0,0,0,.06,1.14,1.94,1.94,0,0,0,.27.8,1.23,1.23,0,0,0,.54.5,2.32,2.32,0,0,0,1,.16,3.07,3.07,0,0,0,1.24-.3,5.86,5.86,0,0,0,1.27-.76V58.21h1.47v8.72Z" transform="translate(-5 -3.04)"/><path class="cls-2" d="M339.22,62.5a5.77,5.77,0,0,1-.32,2,4.33,4.33,0,0,1-.82,1.47,3.93,3.93,0,0,1-1.22.93,3.38,3.38,0,0,1-1.46.31,4.21,4.21,0,0,1-1.3-.18,6.17,6.17,0,0,1-1.1-.47l-.09.4h-1.37V54.78H333v4.34a6.34,6.34,0,0,1,1.32-.83,3.72,3.72,0,0,1,1.56-.32,2.89,2.89,0,0,1,2.44,1.18,5.52,5.52,0,0,1,.9,3.35Zm-1.52,0a4.32,4.32,0,0,0-.52-2.36,1.82,1.82,0,0,0-1.66-.82,3.26,3.26,0,0,0-1.3.29,5.55,5.55,0,0,0-1.22.71v5a8.18,8.18,0,0,0,1.08.39,4.49,4.49,0,0,0,1,.11,2.37,2.37,0,0,0,1.9-.8,3.77,3.77,0,0,0,.7-2.52Z" transform="translate(-5 -3.04)"/><polygon class="cls-1" points="337.99 63.9 336.52 63.9 336.52 51.74 337.99 51.74 337.99 63.9 337.99 63.9"/><path class="cls-2" d="M347.47,56.75h-1.65V55.22h1.65v1.53Zm-.09,10.18h-1.47V58.21h1.47v8.72Z" transform="translate(-5 -3.04)"/><path class="cls-1" d="M356.52,64.42a2.37,2.37,0,0,1-1,2,4.31,4.31,0,0,1-2.7.77,6.67,6.67,0,0,1-1.78-.23,8.77,8.77,0,0,1-1.35-.51V64.76h.08a5.94,5.94,0,0,0,1.55.84,4.86,4.86,0,0,0,1.63.3,3,3,0,0,0,1.51-.31,1,1,0,0,0,.55-1,1,1,0,0,0-.3-.78,2.6,2.6,0,0,0-1.14-.46l-.82-.16a8.81,8.81,0,0,1-.91-.21,3,3,0,0,1-1.63-.89,2.22,2.22,0,0,1-.48-1.45,2.29,2.29,0,0,1,.22-1,2.4,2.4,0,0,1,.68-.86,3.22,3.22,0,0,1,1.11-.57,4.79,4.79,0,0,1,1.51-.22,6.62,6.62,0,0,1,1.58.19,6.31,6.31,0,0,1,1.34.46v1.57h-.08a5.48,5.48,0,0,0-1.37-.69,4.45,4.45,0,0,0-1.58-.29,2.73,2.73,0,0,0-1.36.31,1,1,0,0,0-.55.92,1,1,0,0,0,.34.81,2.53,2.53,0,0,0,1.06.44c.27.07.57.13.9.19l.85.17a3.16,3.16,0,0,1,1.58.81,2.14,2.14,0,0,1,.55,1.53Z" transform="translate(-5 -3.04)"/><path class="cls-1" d="M365.92,66.93h-1.47V62a8.06,8.06,0,0,0-.07-1.13,2.08,2.08,0,0,0-.26-.83,1.15,1.15,0,0,0-.56-.48,2.34,2.34,0,0,0-.95-.17,3,3,0,0,0-1.26.3,6.3,6.3,0,0,0-1.26.76v6.51h-1.47V54.78h1.47v4.4a5.88,5.88,0,0,1,1.42-.89A3.63,3.63,0,0,1,363,58a2.72,2.72,0,0,1,2.16.85,3.64,3.64,0,0,1,.74,2.45v5.66Z" transform="translate(-5 -3.04)"/><path class="cls-2" d="M376.05,62.72h-6.43a3.78,3.78,0,0,0,.24,1.41,2.8,2.8,0,0,0,.67,1,2.7,2.7,0,0,0,1,.56,4,4,0,0,0,1.23.19,4.77,4.77,0,0,0,1.79-.36,4.32,4.32,0,0,0,1.29-.7h.08v1.6a11.9,11.9,0,0,1-1.52.53,6.09,6.09,0,0,1-1.62.21A4.69,4.69,0,0,1,369.35,66a4.46,4.46,0,0,1-1.22-3.35,4.83,4.83,0,0,1,1.16-3.4A4.05,4.05,0,0,1,372.37,58a3.5,3.5,0,0,1,2.72,1,4.12,4.12,0,0,1,1,2.93v.79Zm-1.43-1.12a2.58,2.58,0,0,0-.58-1.79,2.24,2.24,0,0,0-1.75-.63,2.58,2.58,0,0,0-1.88.69,2.71,2.71,0,0,0-.79,1.73Z" transform="translate(-5 -3.04)"/><path class="cls-1" d="M383.72,59.81h-.07a5.19,5.19,0,0,0-.65-.11,5,5,0,0,0-.72,0A2.9,2.9,0,0,0,381,60a5.31,5.31,0,0,0-1.22.77v6.19h-1.47V58.21h1.47V59.5a7.17,7.17,0,0,1,1.54-1,3.43,3.43,0,0,1,1.36-.29l.56,0,.51.07v1.51Z" transform="translate(-5 -3.04)"/><path class="cls-1" d="M53.66,3.86a.4.4,0,0,1,0,.37,1.64,1.64,0,0,1-.85.32c-1.91.31-4.3.39-5.06,2.53-.4,1.87.41,3.52,1.18,5.06a53.4,53.4,0,0,0,6.23,8.47c1.86,3,.52,7-.83,9.88-1.6,3.14-4.79,6.35-8.56,6.23A2.82,2.82,0,0,1,43.17,35a.27.27,0,0,1,.16-.2c2.38-.34,5.07-1.17,6.05-3.7.79-2.26,0-4.63-.94-6.59a41.84,41.84,0,0,0-7.22-9.83,10.71,10.71,0,0,0-3.93,4.51,13.71,13.71,0,0,0-.21,2.9l.14,4.64.19,5.62v4.36c-.24,6.2-.58,12.36-4.16,17.18-2.41,3.41-5.85,6.94-10.29,6.35a6.57,6.57,0,0,1-5-4.39,4.26,4.26,0,0,1,.54-4,2.43,2.43,0,0,1,1.89-.93.56.56,0,0,1,.5.3,1.2,1.2,0,0,1-.06.75c-.48,1.28-1.27,2.9-.4,4.25A5.12,5.12,0,0,0,23.25,58a3,3,0,0,0,3.14-.85c1.48-1.87,1.82-4.22,2.18-6.57a72.52,72.52,0,0,0,.47-9L29,37.06l-.22-5.61-.4-6.66a4.24,4.24,0,0,0-2.32-3.19c-2.67-1.27-5.85-.29-8,1.48C14.19,26.43,12.9,31,12.32,35.79A40.7,40.7,0,0,0,14.05,52.3a32.18,32.18,0,0,0,12,16.25,38.34,38.34,0,0,0,13,5.72c3.84.91,8.68,1.19,12.24-.49a16.17,16.17,0,0,0,7.16-6.55,29.37,29.37,0,0,0,2.77-14.59c0-1-.25-2.23.74-2.83a1,1,0,0,1,.65-.17c.86.33.88,1.34,1,2.12a34.33,34.33,0,0,1-1.75,12.7c-2,6.34-6.72,13-13.09,16.05a14,14,0,0,1-6.94,1.67A35.3,35.3,0,0,1,32,80.83L29.21,80l-4-1.46A34.5,34.5,0,0,1,9.76,63.93,41.78,41.78,0,0,1,5.13,49.09,33.8,33.8,0,0,1,9.06,30.62c2.43-4.84,6.85-10,11.89-12.35A20.4,20.4,0,0,1,24,17.06a3.82,3.82,0,0,1,4.12,1.41A15.85,15.85,0,0,1,30.3,23c.09.16.24.38.44.42s.38-.28.55-.46a33.8,33.8,0,0,1,8.59-10.76,90.7,90.7,0,0,0,7.28-6.57C48.55,4.41,49.91,3.19,51.72,3a2.27,2.27,0,0,1,1.94.82Z" transform="translate(-5 -3.04)"/></svg>