<svg width="129" height="43" viewBox="0 0 129 43" fill="none" xmlns="http://www.w3.org/2000/svg">
<path d="M21.5 42C32.8218 42 42 32.8218 42 21.5C42 10.1782 32.8218 1 21.5 1C10.1782 1 1 10.1782 1 21.5C1 32.8218 10.1782 42 21.5 42Z" fill="white" stroke="#BEC3C5" stroke-width="2"/>
<path fill-rule="evenodd" clip-rule="evenodd" d="M18.4541 18.454C19.5481 19.548 21.3381 19.548 22.4316 18.454L32.7246 8.16155C31.2541 6.90905 29.5746 5.89805 27.7456 5.18555L18.4541 14.4765C17.3601 15.5705 17.3601 17.36 18.4541 18.454Z" fill="#7CB13F"/>
<path fill-rule="evenodd" clip-rule="evenodd" d="M24.4204 24.4211C25.5144 25.5151 25.5144 27.3046 24.4204 28.3986L16.4654 36.3536C15.3714 37.4471 13.5819 37.4471 12.4879 36.3536C11.3939 35.2596 11.3939 33.4701 12.4879 32.3761L20.4429 24.4211C21.5364 23.3271 23.3264 23.3271 24.4204 24.4211Z" fill="#D71D62"/>
<path fill-rule="evenodd" clip-rule="evenodd" d="M16.4653 20.4435C17.5593 21.5375 17.5593 23.3275 16.4653 24.421C15.3713 25.515 13.5818 25.515 12.4878 24.421C11.3938 23.3275 11.3938 21.5375 12.4878 20.4435C13.5818 19.3495 15.3713 19.3495 16.4653 20.4435Z" fill="#336A2D"/>
<path fill-rule="evenodd" clip-rule="evenodd" d="M26.4092 10.4992C27.5032 11.5932 27.5032 13.3827 26.4092 14.4767C25.3152 15.5707 23.5252 15.5707 22.4317 14.4767C21.3377 13.3827 21.3377 11.5932 22.4317 10.4992C23.5252 9.40521 25.3152 9.40521 26.4092 10.4992Z" fill="#336A2D"/>
<path fill-rule="evenodd" clip-rule="evenodd" d="M18.4541 30.3869C19.5481 31.4809 19.5481 33.2709 18.4541 34.3644C17.3601 35.4584 15.5701 35.4584 14.4766 34.3644C13.3826 33.2709 13.3826 31.4809 14.4766 30.3869C15.5701 29.2929 17.3601 29.2929 18.4541 30.3869Z" fill="#861450"/>
<path fill-rule="evenodd" clip-rule="evenodd" d="M36.3531 12.4885C37.4471 13.5825 37.4471 15.372 36.3531 16.466C35.2591 17.56 33.469 17.56 32.3755 16.466C31.2815 15.372 31.2815 13.5825 32.3755 12.4885C33.469 11.3945 35.2591 11.3945 36.3531 12.4885Z" fill="#861450"/>
<path fill-rule="evenodd" clip-rule="evenodd" d="M30.3867 18.4543C31.4807 19.5483 31.4807 21.3383 30.3867 22.4318C29.2927 23.5258 27.5028 23.5258 26.4093 22.4318C25.3153 21.3383 25.3153 19.5483 26.4093 18.4543C27.5028 17.3603 29.2927 17.3603 30.3867 18.4543Z" fill="#D71D62"/>
<path fill-rule="evenodd" clip-rule="evenodd" d="M32.3755 28.3986C33.4695 29.4926 33.4695 31.2821 32.3755 32.3761C31.2815 33.4701 29.4915 33.4701 28.398 32.3761C27.304 31.2821 27.304 29.4926 28.398 28.3986C29.4915 27.3046 31.2815 27.3046 32.3755 28.3986Z" fill="#2994D2"/>
<path fill-rule="evenodd" clip-rule="evenodd" d="M16.4653 8.51093C17.5593 9.60493 17.5593 11.3944 16.4653 12.4884C15.3713 13.5824 13.5818 13.5824 12.4878 12.4884C11.3938 11.3944 11.3938 9.60493 12.4878 8.51093C13.5818 7.41693 15.3713 7.41693 16.4653 8.51093Z" fill="#08589B"/>
<path fill-rule="evenodd" clip-rule="evenodd" d="M10.4995 26.4094C9.4055 25.3154 7.6155 25.3154 6.522 26.4094L5.1855 27.7454C5.898 29.5749 6.909 31.2539 8.1615 32.7244L10.4995 30.3869C11.5935 29.2929 11.5935 27.5034 10.4995 26.4094Z" fill="#861450"/>
<path fill-rule="evenodd" clip-rule="evenodd" d="M18.4541 6.522C19.5481 7.616 21.3381 7.616 22.4316 6.522L24.4206 4.533C24.4941 4.4595 24.5506 4.3755 24.6141 4.2955C23.5836 4.105 22.5226 4 21.4376 4C20.1346 4 18.8666 4.148 17.6446 4.4205C17.6141 5.1785 17.8786 5.9465 18.4541 6.522Z" fill="#D71D62"/>
<path fill-rule="evenodd" clip-rule="evenodd" d="M10.4995 18.4542C11.5935 17.3602 11.5935 15.5707 10.4995 14.4768C9.4055 13.3828 7.6155 13.3828 6.522 14.4768L4.8075 16.1907C4.284 17.8477 4 19.6097 4 21.4372C4 22.3617 4.0735 23.2693 4.213 24.1553C4.695 24.0373 5.153 23.8008 5.5275 23.4263L10.4995 18.4542Z" fill="#2994D2"/>
<path fill-rule="evenodd" clip-rule="evenodd" d="M34.3643 22.4322C33.2703 23.5262 33.2703 25.3157 34.3643 26.4097C35.3798 27.4252 36.9887 27.4852 38.0902 26.6147C38.6002 24.9782 38.8747 23.2397 38.8747 21.4377C38.8747 20.3522 38.7703 19.2917 38.5798 18.2607C38.4998 18.3247 38.4158 18.3807 38.3418 18.4547L34.3643 22.4322Z" fill="#08589B"/>
<path fill-rule="evenodd" clip-rule="evenodd" d="M26.4092 34.3644C25.3152 33.2704 23.5252 33.2704 22.4317 34.3644L18.4542 38.3419C18.3802 38.4159 18.3242 38.4999 18.2602 38.5799C19.2912 38.7704 20.3522 38.8749 21.4377 38.8749C23.2392 38.8749 24.9782 38.6004 26.6142 38.0909C27.4847 36.9894 27.4247 35.3804 26.4092 34.3644Z" fill="#7CB13F"/>
<path fill-rule="evenodd" clip-rule="evenodd" d="M57.334 17.8145C56.1975 17.8145 55.3065 18.175 54.662 18.8955C54.0175 19.6165 53.6485 20.6385 53.5545 21.963H61.078C61.0545 20.6385 60.709 19.6165 60.041 18.8955C59.373 18.175 58.4705 17.8145 57.334 17.8145ZM58.09 34.373C54.926 34.373 52.453 33.5 50.672 31.754C48.8905 30.008 48 27.535 48 24.336C48 21.043 48.8235 18.497 50.4695 16.6985C52.116 14.8995 54.3925 14 57.299 14C60.076 14 62.2385 14.791 63.785 16.373C65.332 17.955 66.1055 20.1405 66.1055 22.9295V25.5315H53.4315C53.4905 27.0545 53.9415 28.244 54.785 29.0995C55.629 29.955 56.8125 30.383 58.336 30.383C59.5195 30.383 60.6385 30.26 61.6935 30.0135C62.748 29.7675 63.8495 29.375 64.998 28.836V32.9845C64.0605 33.453 63.0585 33.802 61.992 34.0305C60.926 34.259 59.625 34.373 58.09 34.373Z" fill="#666B6E"/>
<path fill-rule="evenodd" clip-rule="evenodd" d="M69 34V9H74V30H84V34H69Z" fill="#666B6E"/>
<path fill-rule="evenodd" clip-rule="evenodd" d="M87 34H92V15H87V34ZM87 10.4919C87 8.83048 87.8336 8 89.5 8C91.1668 8 92 8.83048 92 10.4919C92 11.2834 91.7918 11.8994 91.375 12.3393C90.9586 12.7798 90.3336 13 89.5 13C87.8336 13 87 12.1638 87 10.4919Z" fill="#666B6E"/>
<path fill-rule="evenodd" clip-rule="evenodd" d="M108 19H103V34H98V19H95V16L98 15V14C98 11.762 98.6075 9.578 99.709 8.547C100.81 7.5155 102.574 7 105 7C106.852 7 108.498 7.2755 109.939 7.826L108.488 11.5095C107.41 11.17 105.914 11 105 11C104.238 11 103.687 11.2255 103.347 11.6765C103.008 12.128 103 13.297 103 14V15H108V19Z" fill="#666B6E"/>
<path fill-rule="evenodd" clip-rule="evenodd" d="M119.334 17.8145C118.197 17.8145 117.307 18.175 116.662 18.8955C116.018 19.6165 115.648 20.6385 115.554 21.963H123.078C123.055 20.6385 122.709 19.6165 122.041 18.8955C121.373 18.175 120.47 17.8145 119.334 17.8145ZM120.09 34.373C116.926 34.373 114.453 33.5 112.672 31.754C110.89 30.008 110 27.535 110 24.336C110 21.043 110.823 18.497 112.469 16.6985C114.116 14.8995 116.393 14 119.299 14C122.076 14 124.239 14.791 125.785 16.373C127.332 17.955 128.105 20.1405 128.105 22.9295V25.5315H115.432C115.491 27.0545 115.942 28.244 116.785 29.0995C117.629 29.955 118.812 30.383 120.336 30.383C121.519 30.383 122.638 30.26 123.693 30.0135C124.748 29.7675 125.85 29.375 126.998 28.836V32.9845C126.061 33.453 125.058 33.802 123.992 34.0305C122.926 34.259 121.625 34.373 120.09 34.373Z" fill="#666B6E"/>
</svg>
