<svg fill="none" height="108" viewBox="0 0 384 108" width="384" xmlns="http://www.w3.org/2000/svg"><path d="m36.5 42.3-24.2-4.7-3.00001-24 24.40001 4.6z" fill="#d4181a"/><path d="m33.7 18.2-24.40001-4.6 13.50001-13.399988 24.4 4.599978z" fill="#30b6bb"/><path d="m49.9 28.9-13.4 13.4-2.8-24.1 13.5-13.40001z" fill="#007c3e"/><path d="m.799988 91.5.1-38.2 35.600012-11-.1 38z" fill="#94c11f"/><path d="m36.4 80.3.1-38 24.1 16.5-.1 38z" fill="#efd500"/><path d="m24.9 108-24.100012-16.5 35.600012-11.2 24.1 16.5z" fill="#134391"/><path d="m35.7 40.4 9.6-22.3 12.5 29.4-9.6 22.2z" fill="#70296b"/><path d="m48.2 69.7 9.6-22.2 32.7-5.3-9.7 21.9z" fill="#0094cd"/><path d="m57.8 47.5-12.5-29.4 32.7-5.2 12.5 29.3z" fill="#f29104"/><g fill="#706f6f"><path d="m104 63.9h-5.8v-7.7h5.8c0-10.4 3.7-13.7 13.9-13.7 1.9 0 3.9.1 5.8.2v8.4c-1.1-.1-2.1-.2-3.2-.2-2.7 0-4.5.3-4.5 3.7v1.6h7.2v7.7h-7.2v28.7h-12z"/><path d="m126.9 56.2h11.6v6.4h.1c1.7-4.7 5.9-7.1 11-7.1.9 0 1.9.1 2.8.3v10.9c-1.5-.4-2.9-.7-4.6-.7-5.9 0-9 4.1-9 8.6v18h-12v-36.4z"/><path d="m172.9 55.1c11.4 0 19.3 8.3 19.3 19.4 0 11-7.9 19.3-19.3 19.3s-19.2-8.3-19.2-19.3 7.9-19.4 19.2-19.4zm0 29.4c5.6 0 7.3-5.5 7.3-10.1s-1.7-10.1-7.3-10.1-7.2 5.6-7.2 10.1 1.7 10.1 7.2 10.1z"/><path d="m195.3 56.2h11.6v5h.1c2.1-3.8 7.1-6.1 11.5-6.1 12.2 0 13.2 8.8 13.2 14.1v23.4h-12v-17.6c0-5 .6-10-6-10-4.5 0-6.5 3.8-6.5 7.8v19.9h-12v-36.4h.1z"/><path d="m259.1 63.9h-7.4v16.5c0 2.8 1.7 3.5 4.3 3.5 1 0 2-.1 3-.1v8.8c-2.1.1-4.4.3-6.5.3-10.1 0-12.8-2.9-12.8-12.9v-16.2h-6.1v-7.7h6.1v-11.1h12v11.1h7.4z"/><path d="m274.7 51.5h-12v-9.1h12zm-12 4.7h12v36.5h-12z"/><path d="m290.1 77.3c.2 5 3 8.3 8.1 8.3 2.8 0 5.7-1.3 6.8-4h11.2c-2.1 8.4-9.9 12.1-18.2 12.1-11.9 0-20-7.2-20-19.4 0-11.2 8.9-19.2 19.7-19.2 13.1 0 19.6 9.8 19.1 22.2zm14.8-6.7c-.2-4.1-3-7.4-7.1-7.4-4.3 0-7 3-7.7 7.4z"/><path d="m320.3 56.2h11.6v6.4h.1c1.7-4.7 5.9-7.1 11-7.1.9 0 1.9.1 2.8.3v10.9c-1.5-.4-2.9-.7-4.6-.7-5.9 0-9 4.1-9 8.6v18h-12v-36.4z"/><path d="m360 80.6c0 1.8.8 3.1 1.9 4.1 1.1.8 2.7 1.2 4.5 1.2 2.3 0 5.6-1 5.6-3.9 0-2.8-3.8-3.3-5.9-3.9-7.5-1.9-16.9-2.1-16.9-12 0-8.8 9.5-11.2 16.6-11.2 8 0 16.3 2.3 16.8 11.8h-11.1c0-1.5-.6-2.5-1.5-3.1-1-.6-2.3-.9-3.8-.9-1.9 0-5.2.2-5.2 2.7 0 3.4 8 4.1 13.5 5.3 7.4 1.5 9.2 6.8 9.2 9.8 0 9.7-9.2 13-17.5 13-8.6 0-17.5-2.8-17.8-13.1h11.6z"/></g></svg>