<svg width="384" height="108" viewBox="0 0 384 108" fill="none" xmlns="http://www.w3.org/2000/svg">
<path d="M36.5 42.3L12.3 37.6L9.29999 13.6L33.7 18.2L36.5 42.3Z" fill="#D4181A"/>
<path d="M33.7 18.2L9.29999 13.6L22.8 0.200012L47.2 4.79999L33.7 18.2Z" fill="#30B6BB"/>
<path d="M49.9 28.9L36.5 42.3L33.7 18.2L47.2 4.79999L49.9 28.9Z" fill="#007C3E"/>
<path d="M0.799988 91.5L0.899988 53.3L36.5 42.3L36.4 80.3L0.799988 91.5Z" fill="#94C11F"/>
<path d="M36.4 80.3L36.5 42.3L60.6 58.8L60.5 96.8L36.4 80.3Z" fill="#EFD500"/>
<path d="M24.9 108L0.799988 91.5L36.4 80.3L60.5 96.8L24.9 108Z" fill="#134391"/>
<path d="M35.7 40.4L45.3 18.1L57.8 47.5L48.2 69.7L35.7 40.4Z" fill="#70296B"/>
<path d="M48.2 69.7L57.8 47.5L90.5 42.2L80.8 64.1L48.2 69.7Z" fill="#0094CD"/>
<path d="M57.8 47.5L45.3 18.1L78 12.9L90.5 42.2L57.8 47.5Z" fill="#F29104"/>
<path d="M104 63.9H98.2V56.2H104C104 45.8 107.7 42.5 117.9 42.5C119.8 42.5 121.8 42.6 123.7 42.7V51.1C122.6 51 121.6 50.9 120.5 50.9C117.8 50.9 116 51.2 116 54.6V56.2H123.2V63.9H116V92.6H104C104 92.6 104 63.9 104 63.9Z" fill="#706F6F"/>
<path d="M126.9 56.2H138.5V62.6H138.6C140.3 57.9 144.5 55.5 149.6 55.5C150.5 55.5 151.5 55.6 152.4 55.8V66.7C150.9 66.3 149.5 66 147.8 66C141.9 66 138.8 70.1 138.8 74.6V92.6H126.8V56.2H126.9Z" fill="#706F6F"/>
<path d="M172.9 55.1C184.3 55.1 192.2 63.4 192.2 74.5C192.2 85.5 184.3 93.8 172.9 93.8C161.5 93.8 153.7 85.5 153.7 74.5C153.7 63.5 161.6 55.1 172.9 55.1ZM172.9 84.5C178.5 84.5 180.2 79 180.2 74.4C180.2 69.8 178.5 64.3 172.9 64.3C167.3 64.3 165.7 69.9 165.7 74.4C165.7 78.9 167.4 84.5 172.9 84.5Z" fill="#706F6F"/>
<path d="M195.3 56.2H206.9V61.2H207C209.1 57.4 214.1 55.1 218.5 55.1C230.7 55.1 231.7 63.9 231.7 69.2V92.6H219.7V75C219.7 70 220.3 65 213.7 65C209.2 65 207.2 68.8 207.2 72.8V92.7H195.2V56.3H195.3V56.2Z" fill="#706F6F"/>
<path d="M259.1 63.9H251.7V80.4C251.7 83.2 253.4 83.9 256 83.9C257 83.9 258 83.8 259 83.8V92.6C256.9 92.7 254.6 92.9 252.5 92.9C242.4 92.9 239.7 90 239.7 80V63.8H233.6V56.1H239.7V45H251.7V56.1H259.1V63.9Z" fill="#706F6F"/>
<path d="M274.7 51.5H262.7V42.4H274.7V51.5ZM262.7 56.2H274.7V92.7H262.7V56.2Z" fill="#706F6F"/>
<path d="M290.1 77.3C290.3 82.3 293.1 85.6 298.2 85.6C301 85.6 303.9 84.3 305 81.6H316.2C314.1 90 306.3 93.7 298 93.7C286.1 93.7 278 86.5 278 74.3C278 63.1 286.9 55.1 297.7 55.1C310.8 55.1 317.3 64.9 316.8 77.3H290.1V77.3V77.3ZM304.9 70.6C304.7 66.5 301.9 63.2 297.8 63.2C293.5 63.2 290.8 66.2 290.1 70.6H304.9Z" fill="#706F6F"/>
<path d="M320.3 56.2H331.9V62.6H332C333.7 57.9 337.9 55.5 343 55.5C343.9 55.5 344.9 55.6 345.8 55.8V66.7C344.3 66.3 342.9 66 341.2 66C335.3 66 332.2 70.1 332.2 74.6V92.6H320.2V56.2C320.2 56.2 320.3 56.2 320.3 56.2Z" fill="#706F6F"/>
<path d="M360 80.6C360 82.4 360.8 83.7 361.9 84.7C363 85.5 364.6 85.9 366.4 85.9C368.7 85.9 372 84.9 372 82C372 79.2 368.2 78.7 366.1 78.1C358.6 76.2 349.2 76 349.2 66.1C349.2 57.3 358.7 54.9 365.8 54.9C373.8 54.9 382.1 57.2 382.6 66.7H371.5C371.5 65.2 370.9 64.2 370 63.6C369 63 367.7 62.7 366.2 62.7C364.3 62.7 361 62.9 361 65.4C361 68.8 369 69.5 374.5 70.7C381.9 72.2 383.7 77.5 383.7 80.5C383.7 90.2 374.5 93.5 366.2 93.5C357.6 93.5 348.7 90.7 348.4 80.4H360V80.6Z" fill="#706F6F"/>
</svg>
