<?xml version="1.0" encoding="UTF-8" standalone="no"?>
<svg
   xmlns:dc="http://purl.org/dc/elements/1.1/"
   xmlns:cc="http://creativecommons.org/ns#"
   xmlns:rdf="http://www.w3.org/1999/02/22-rdf-syntax-ns#"
   xmlns:svg="http://www.w3.org/2000/svg"
   xmlns="http://www.w3.org/2000/svg"
   xmlns:sodipodi="http://sodipodi.sourceforge.net/DTD/sodipodi-0.dtd"
   xmlns:inkscape="http://www.inkscape.org/namespaces/inkscape"
   version="1.0"
   width="375.26706pt"
   height="196.08093pt"
   viewBox="0 0 375.26706 196.08092"
   preserveAspectRatio="xMidYMid meet"
   id="svg16"
   sodipodi:docname="IET Logo.svg"
   inkscape:version="0.92.4 (5da689c313, 2019-01-14)">
  <defs
     id="defs20" />
  <sodipodi:namedview
     pagecolor="#ffffff"
     bordercolor="#666666"
     borderopacity="1"
     objecttolerance="10"
     gridtolerance="10"
     guidetolerance="10"
     inkscape:pageopacity="0"
     inkscape:pageshadow="2"
     inkscape:window-width="1920"
     inkscape:window-height="1017"
     id="namedview18"
     showgrid="false"
     inkscape:snap-global="false"
     inkscape:zoom="1"
     inkscape:cx="385.21706"
     inkscape:cy="201.56759"
     inkscape:window-x="1912"
     inkscape:window-y="32"
     inkscape:window-maximized="1"
     inkscape:current-layer="svg16"
     fit-margin-top="10"
     fit-margin-left="10"
     fit-margin-right="10"
     fit-margin-bottom="10" />
  <metadata
     id="metadata2">
Created by potrace 1.15, written by Peter Selinger 2001-2017
<rdf:RDF>
  <cc:Work
     rdf:about="">
    <dc:format>image/svg+xml</dc:format>
    <dc:type
       rdf:resource="http://purl.org/dc/dcmitype/StillImage" />
    <dc:title></dc:title>
  </cc:Work>
</rdf:RDF>
</metadata>
  <g
     transform="matrix(0.1,0,0,-0.1,-11.732954,298.06817)"
     id="g14"
     style="fill:#000000;stroke:none">
    <path
       d="m 220,2000 v -880 h 195 195 v 880 880 H 415 220 Z"
       id="path4"
       inkscape:connector-curvature="0" />
    <path
       d="m 920,2683 v -198 l 657,1 658,2 -1,33 c -1,19 -2,107 -3,197 l -1,162 H 1575 920 Z"
       id="path6"
       inkscape:connector-curvature="0" />
    <path
       d="m 2450,2683 v -198 h 227 228 l 3,-682 2,-683 h 200 200 l 2,683 3,682 h 228 227 v 198 197 h -660 -660 z"
       id="path8"
       inkscape:connector-curvature="0" />
    <path
       d="m 924,2187 c -2,-7 -3,-96 -2,-197 l 3,-185 653,-3 652,-2 v 200 200 h -650 c -520,0 -652,-3 -656,-13 z"
       id="path10"
       inkscape:connector-curvature="0" />
    <path
       d="m 920,1315 v -195 h 655 655 v 195 195 H 1575 920 Z"
       id="path12"
       inkscape:connector-curvature="0" />
  </g>
  <rect
     style="fill:#964f9f;fill-opacity:1;stroke-width:0.75000006"
     id="rect4642"
     width="130.8362"
     height="40.089458"
     x="80.423912"
     y="78.023453" />
  <rect
     style="fill:#964f9f;fill-opacity:1;stroke-width:0.75000006"
     id="rect4644"
     width="131.18079"
     height="39.016739"
     x="80.125504"
     y="147.04164" />
  <rect
     style="fill:#53264d;fill-opacity:1;stroke-width:0.75000006"
     id="rect4646"
     width="131.62102"
     height="39.611885"
     x="80.162025"
     y="10.054482" />
  <rect
     style="fill:#53264d;fill-opacity:1;stroke-width:0.75000006"
     id="rect4648"
     width="39.337902"
     height="176.08093"
     x="10"
     y="10" />
  <rect
     style="fill:#53264d;fill-opacity:1;stroke-width:0.75000006"
     id="rect4650"
     width="131.97598"
     height="39.567627"
     x="233.27483"
     y="10.017326" />
  <rect
     style="fill:#53264d;fill-opacity:1;stroke-width:0.75000006"
     id="rect4652"
     width="40.929657"
     height="138.72092"
     x="278.76959"
     y="47.337208" />
</svg>
