<svg enable-background="new 0 0 160 50" viewBox="0 0 160 50" xmlns="http://www.w3.org/2000/svg"><g fill="#8f1b59"><path d="m0 .7v48.5h8.4v-48.5z"/><path d="m26.4 0c-2.2 0-4.3.8-5.6 2.4-1.5 1.6-2.2 3.6-2.2 6.2 0 2.3.5 4.2 1.5 5.8.5.9 1.4 2 2.5 3.3 1.2 1.4 2.7 3 4.5 4.9 3.4 3.6 5.7 6.7 7 9.3 1.2 2.5 1.9 5.6 1.9 9.3 0 3-.5 5.6-1.4 8 1.7.7 2.9.8 4.5.8 2.3 0 4.6-.8 5.9-2.4s1.9-3.7 1.9-6.4c0-2.3-.5-4.4-1.5-6.3-.5-.9-1.2-1.9-2.1-3.1s-2.1-2.4-3.4-3.9c-2.1-2.2-3.9-4.1-5.3-5.8s-2.4-3.1-3.1-4.4c-1.3-2.4-1.9-5.5-1.9-9.3 0-3 .4-5.6 1.3-7.8-1.8-.5-3.1-.6-4.5-.6z"/><path d="m45.1 0c-2.2 0-4 .8-5.4 2.4s-2.1 3.6-2.1 6.2c0 2.3.5 4.2 1.5 5.8.5.9 1.4 2 2.5 3.3 1.2 1.4 2.7 3 4.5 4.9.8.8 1.5 1.7 2.2 2.4v-24.3c-1-.5-2.1-.7-3.2-.7z"/><path d="m16.8 49.3c1.2.5 2.3.7 3.4.7 2.3 0 4.3-.8 5.6-2.4s1.9-3.7 1.9-6.4c0-2.3-.5-4.4-1.5-6.3-.4-.9-1.2-1.9-2.1-3-.9-1.2-2.1-2.4-3.4-3.9-1.5-1.5-2.8-2.9-3.9-4.2z"/><path d="m70 .7h-13.7l13.7 30.7z"/><path d="m56.3 18.6v30.6h13.5z"/></g><path d="m81 7.2v-.3c.8-.1.9-.1.9-1v-3.9c0-.8-.1-.9-.9-1v-.3h2.7v.3c-.8.1-.9.1-.9 1v3.9c0 .8.1.9.9 1v.3z"/><path d="m91.4 1c-.6 0-.8.2-.8.6 0 .3-.1.8-.1 1.7v4h-.3l-4.2-5.2v2.4c0 .9 0 1.4.1 1.7 0 .5.3.6.9.7v.3h-2.4v-.3c.6 0 .8-.2.9-.6 0-.3.1-.8.1-1.7v-2.2c0-.7 0-.8-.2-1s-.4-.3-.9-.4v-.3h1.5l4 4.9v-2.3c0-.9 0-1.4-.1-1.6 0-.4-.3-.6-1-.6v-.4h2.4v.3z"/><path d="m97.2 2.3c-.1-.5-.2-.7-.3-.9-.2-.2-.3-.3-1.1-.3h-.7v4.8c0 .8.1.9 1 .9v.3h-2.9v-.2c.9-.1 1-.2 1-.9v-4.9h-.6c-.8 0-1 .1-1.1.3s-.2.5-.3.9h-.3c.1-.6.1-1.3.1-1.8h.2c.1.2.3.2.5.2h3.9c.3 0 .4-.1.5-.2h.2c0 .4 0 1.2.1 1.8z"/><path d="m103.3 5.6c0 .3-.3 1.3-.3 1.6h-4.8v-.3c.9-.1 1-.1 1-1v-3.9c0-.9-.1-.9-.8-1v-.3h4.4c0 .2 0 .9.1 1.4h-.3c-.1-.4-.2-.6-.3-.8s-.4-.3-1.1-.3h-.7c-.3 0-.3 0-.3.3v2.2h.9c.9 0 .9-.1 1.1-.7h.3v1.9h-.5c-.1-.7-.2-.8-1.1-.8h-.9v1.8c0 .5.1.7.2.8.2.1.5.1 1 .1.7 0 1-.1 1.2-.3s.4-.5.5-.9z"/><path d="m110 7.2c-.1 0-.2 0-.3 0-.8 0-1.2-.3-1.7-.9-.3-.5-.7-1.1-1-1.6-.2-.3-.3-.4-.8-.4h-.3v1.6c0 .8.1.9.9 1v.3h-2.7v-.3c.8-.1.9-.1.9-1v-3.9c0-.8-.1-.9-.8-.9v-.4h2.5c.8 0 1.2.1 1.6.3.4.3.7.7.7 1.3 0 .9-.5 1.4-1.3 1.7.2.3.6 1 .9 1.4.4.5.6.8.8 1 .3.3.5.4.7.5z"/><path d="m106.3 4c.5 0 .8-.1 1.1-.3.4-.3.5-.7.5-1.2 0-1.1-.7-1.5-1.4-1.5-.3 0-.4 0-.5.1s-.1.2-.1.4v2.5z" fill="#fff"/><path d="m117.1 1c-.6 0-.8.2-.8.6 0 .3-.1.8-.1 1.7v4h-.3l-4.2-5.1v2.4c0 .9 0 1.4.1 1.7 0 .5.3.6.9.7v.3h-2.4v-.4c.6 0 .8-.2.9-.6 0-.3.1-.8.1-1.7v-2.2c0-.7 0-.8-.2-1s-.4-.3-.9-.4v-.3h1.5l4.1 4.8v-2.2c0-.9 0-1.4-.1-1.6 0-.4-.3-.6-1-.6v-.4h2.4z"/><path d="m120.8 7.2v-.3c.6-.1.7-.2.6-.6s-.3-.9-.5-1.5h-2.1c-.1.4-.3.8-.4 1.2-.2.6-.1.7.6.8v.3h-2.2v-.2c.6-.1.8-.2 1.1-1l2-5.2.3-.1c.6 1.7 1.3 3.6 1.9 5.3.3.9.4.9 1.1 1v.3z"/><path d="m119.9 2c-.3.8-.6 1.7-.9 2.5h1.8z" fill="#fff"/><path d="m128.4 2.3c-.1-.5-.2-.7-.3-.9-.2-.2-.3-.3-1.1-.3h-.7v4.8c0 .8.1.9 1 .9v.3h-2.9v-.2c.9-.1 1-.2 1-.9v-4.9h-.6c-.8 0-1 .1-1.1.3s-.2.5-.3.9h-.3c0-.6.1-1.3.1-1.8h.2c.1.2.3.2.5.2h3.9c.3 0 .4-.1.5-.2h.2c0 .4 0 1.2.1 1.8z"/><path d="m129.4 7.2v-.3c.8-.1.9-.1.9-1v-3.9c0-.8-.1-.9-.9-1v-.3h2.7v.3c-.8.1-.9.1-.9 1v3.9c0 .8.1.9.9 1v.3z"/><path d="m139.5 3.9c0 2.1-1.5 3.4-3.3 3.4s-3.2-1.4-3.2-3.3c0-1.8 1.2-3.4 3.4-3.4 1.6 0 3.1 1.3 3.1 3.3z"/><path d="m134.1 3.7c0 1.8 1 3.2 2.3 3.2 1.1 0 2-.9 2-2.8 0-2.1-1-3.2-2.3-3.2-1.1.1-2 1-2 2.8z" fill="#fff"/><path d="m147.1 1c-.6 0-.8.2-.8.6 0 .3-.1.8-.1 1.7v4h-.3l-4.2-5.1v2.4c0 .9 0 1.4.1 1.7 0 .5.3.6.9.7v.3h-2.4v-.4c.6 0 .8-.2.9-.6 0-.3.1-.8.1-1.7v-2.2c0-.7 0-.8-.2-1s-.4-.3-.9-.4v-.3h1.5l4.1 4.8v-2.2c0-.9 0-1.4-.1-1.6 0-.4-.3-.6-1-.6v-.4h2.4z"/><path d="m151.2 7.2v-.3c.6-.1.7-.2.6-.6s-.3-.9-.5-1.5h-2.1c-.1.4-.3.8-.4 1.2-.2.6-.1.7.6.8v.3h-2.2v-.2c.6-.1.8-.2 1.1-1l2-5.2.3-.1c.6 1.7 1.3 3.6 1.9 5.3.3.9.4.9 1.1 1v.3z"/><path d="m150.2 2c-.3.8-.6 1.7-.9 2.5h1.8z" fill="#fff"/><path d="m158.9 5.6c-.1.3-.3 1.3-.4 1.6h-4.5v-.3c.8-.1.9-.1.9-1v-3.9c0-.8-.1-.9-.9-1v-.3h2.7v.3c-.8.1-.9.1-.9 1v3.9c0 .5 0 .7.2.8s.5.1.9.1c.5 0 .9 0 1.1-.3.2-.2.4-.5.5-1z"/><path d="m84.4 16.3c-.2-.6-.5-1.3-1.3-1.3-.7 0-1.1.5-1.1 1.1 0 .7.5 1 1.3 1.4s1.7.9 1.7 2-.9 1.9-2.2 1.9c-.4 0-.7-.1-1-.1-.3-.1-.4-.2-.5-.2-.1-.2-.2-1.1-.3-1.6l.3-.1c.2.6.6 1.6 1.6 1.6.7 0 1.2-.5 1.2-1.2s-.5-1.1-1.3-1.5c-.7-.4-1.7-.9-1.7-2 0-1 .8-1.8 2.1-1.8.5 0 .9.1 1.3.2 0 .4.1.8.2 1.4z"/><path d="m91 16.3c-.1-.5-.2-.7-.3-.9-.2-.2-.3-.3-1.1-.3h-.7v4.8c0 .8.1.9 1 .9v.3h-2.9v-.3c.9-.1 1-.2 1-.9v-4.8h-.6c-.8 0-1 .1-1.1.3s-.2.5-.3.9h-.3c0-.6.1-1.3.1-1.8h.2c.1.2.3.2.5.2h3.9c.3 0 .4-.1.5-.2h.2c0 .4 0 1.2.1 1.8z"/><path d="m94.9 21.2v-.3c.6-.1.7-.2.6-.6s-.3-.9-.5-1.5h-2.1c-.1.4-.3.8-.4 1.2-.2.6-.1.7.6.8v.3h-2.2v-.3c.6-.1.8-.2 1.1-1l2-5.2.3-.1c.6 1.7 1.3 3.6 1.9 5.3.3.9.4.9 1.1 1v.3h-2.4z"/><path d="m93.9 16c-.3.8-.6 1.7-.9 2.5h1.8z" fill="#fff"/><path d="m104.5 15c-.6 0-.8.2-.8.6 0 .3-.1.8-.1 1.7v4h-.3l-4.2-5.1v2.4c0 .9 0 1.4.1 1.7 0 .5.3.6.9.7v.3h-2.4v-.3c.6 0 .8-.2.9-.6 0-.3.1-.8.1-1.7v-2.2c0-.7 0-.8-.2-1s-.4-.3-.9-.4v-.3h1.5l4.1 4.8v-2.3c0-.9 0-1.4-.1-1.6 0-.4-.3-.6-1-.6v-.3h2.4z"/><path d="m108.2 14.7c1.3 0 2.2.3 2.8.9.5.5.8 1.2.8 2.1 0 1.2-.5 2.1-1.2 2.6-.7.6-1.7.8-3 .8h-2.4v-.3c.8-.1.9-.1.9-1v-3.8c0-.8-.1-.9-.8-.9v-.3h2.9z"/><path d="m107.2 19.9c0 .7.3.9 1 .9 1.8 0 2.6-1.3 2.6-2.9 0-1-.4-1.9-1.1-2.3-.4-.3-1-.4-1.7-.4-.4 0-.7.1-.8.1-.1.1-.1.2-.1.6v4z" fill="#fff"/><path d="m116.4 21.2v-.3c.6-.1.7-.2.6-.6s-.3-.9-.5-1.5h-2.1c-.1.4-.3.8-.4 1.2-.2.6-.1.7.6.8v.3h-2.2v-.3c.6-.1.8-.2 1.1-1l2-5.2.3-.1c.6 1.7 1.3 3.6 1.9 5.3.3.9.4.9 1.1 1v.3h-2.4z"/><path d="m115.4 16c-.3.8-.6 1.7-.9 2.5h1.8z" fill="#fff"/><path d="m124.9 21.2c-.1 0-.2 0-.3 0-.8 0-1.2-.3-1.7-.9-.3-.5-.7-1.1-1-1.6-.2-.3-.3-.4-.8-.4h-.3v1.6c0 .8.1.9.9 1v.3h-2.7v-.3c.8-.1.9-.1.9-1v-3.9c0-.8-.1-.9-.9-.9v-.3h2.5c.8 0 1.2.1 1.6.3.4.3.7.7.7 1.3 0 .9-.5 1.4-1.3 1.7.2.3.6 1 .9 1.4.4.5.6.8.8 1 .3.3.5.4.7.5z"/><path d="m121.2 18c.5 0 .8-.1 1.1-.3.4-.3.5-.7.5-1.2 0-1.1-.7-1.5-1.4-1.5-.3 0-.4 0-.5.1s-.1.2-.1.4v2.5z" fill="#fff"/><path d="m128.3 14.7c1.3 0 2.2.3 2.8.9.5.5.8 1.2.8 2.1 0 1.2-.5 2.1-1.2 2.6-.7.6-1.7.8-3 .8h-2.4v-.3c.8-.1.9-.1.9-1v-3.8c0-.8-.1-.9-.8-.9v-.3h2.9z"/><path d="m127.3 19.9c0 .7.3.9 1 .9 1.8 0 2.6-1.3 2.6-2.9 0-1-.4-1.9-1.1-2.3-.4-.3-1-.4-1.7-.4-.4 0-.7.1-.8.1-.1.1-.1.2-.1.6v4z" fill="#fff"/><path d="m84.4 30.3c-.2-.6-.5-1.3-1.3-1.3-.7 0-1.1.5-1.1 1.1 0 .7.5 1 1.3 1.4s1.7.9 1.7 2-.9 1.9-2.2 1.9c-.4 0-.7-.1-1-.1-.3-.1-.4-.2-.5-.2-.1-.2-.2-1.1-.3-1.6l.3-.1c.2.6.6 1.6 1.6 1.6.7 0 1.2-.5 1.2-1.2s-.5-1.1-1.3-1.5c-.7-.4-1.7-.9-1.7-2 0-1 .8-1.8 2.1-1.8.5 0 .9.1 1.3.2 0 .4.1.8.2 1.4z"/><path d="m91 33.6c0 .3-.3 1.3-.3 1.6h-4.8v-.3c.9-.1 1-.1 1-1v-3.9c0-.9-.1-.9-.8-1v-.3h4.4c0 .2 0 .9.1 1.4h-.3c-.1-.4-.2-.6-.3-.8s-.4-.3-1.1-.3h-.7c-.3 0-.3 0-.3.3v2.2h.9c.9 0 .9-.1 1.1-.7h.1v1.9h-.3c-.1-.7-.2-.8-1.1-.8h-.9v1.8c0 .5.1.7.2.8.2.1.5.1 1 .1.7 0 1-.1 1.2-.3s.4-.5.5-.9z"/><path d="m97.8 35.3c-.1 0-.2 0-.3 0-.8 0-1.2-.3-1.7-.9-.3-.5-.7-1.1-1-1.6-.2-.3-.3-.4-.8-.4h-.3v1.6c0 .8.1.9.9 1v.3h-2.7v-.3c.8-.1.9-.1.9-1v-4c0-.8-.1-.9-.9-.9v-.3h2.5c.8 0 1.2.1 1.6.3.4.3.7.7.7 1.3 0 .9-.5 1.4-1.3 1.7.2.3.6 1 .9 1.4.4.5.6.8.8 1 .3.3.5.4.7.5z"/><path d="m94.1 32c.5 0 .8-.1 1.1-.3.4-.3.5-.7.5-1.2 0-1.1-.7-1.5-1.4-1.5-.3 0-.4 0-.5.1s-.1.2-.1.4v2.5z" fill="#fff"/><path d="m98.6 35.2v-.3c.8-.1.9-.1.9-1v-3.9c0-.8-.1-.9-.9-1v-.3h2.7v.3c-.8.1-.9.1-.9 1v3.9c0 .8.1.9.9 1v.3z"/><path d="m105.6 35.2v-.3c.6-.1.7-.2.6-.6s-.3-.9-.5-1.5h-2.1c-.1.4-.3.8-.4 1.2-.2.6-.1.7.6.8v.3h-2.2v-.3c.6-.1.8-.2 1.1-1l2-5.2.3-.1c.6 1.7 1.3 3.6 1.9 5.3.3.9.4.9 1.1 1v.3h-2.4z"/><path d="m104.7 30c-.3.8-.6 1.7-.9 2.5h1.8z" fill="#fff"/><path d="m113.4 33.6c-.1.3-.3 1.3-.4 1.6h-4.5v-.3c.8-.1.9-.1.9-1v-3.9c0-.8-.1-.9-.9-1v-.3h2.7v.3c-.8.1-.9.1-.9 1v3.9c0 .5 0 .7.2.8s.5.1.9.1c.5 0 .9 0 1.1-.3.2-.2.4-.5.5-1z"/><path d="m87.7 43c-.6 0-.8.2-.8.6 0 .3-.1.8-.1 1.7v4h-.3l-4.2-5.1v2.4c0 .9 0 1.4.1 1.7 0 .5.3.6.9.7v.3h-2.4v-.3c.6 0 .8-.2.9-.6 0-.3.1-.8.1-1.7v-2.2c0-.7 0-.8-.2-1s-.4-.3-.9-.4v-.3h1.5l4.1 4.8v-2.3c0-.9 0-1.4-.1-1.6 0-.4-.3-.6-1-.6v-.3h2.4z"/><path d="m95.1 43c-.6 0-.8.2-.9.6 0 .3-.1.7-.1 1.6v.9c0 1.1-.2 2-.7 2.6-.5.5-1.1.7-1.8.7-.6 0-1.2-.1-1.6-.5-.6-.4-.9-1.2-.9-2.3v-2.4c0-.9-.1-.9-.9-1v-.3h2.6v.1c-.8.1-.8.1-.8 1v2.2c0 1.6.6 2.5 1.8 2.5 1.4 0 1.8-1.1 1.8-2.8v-.8c0-.9 0-1.3-.1-1.6-.1-.4-.3-.5-1-.6v-.3h2.4v.4z"/><path d="m101.1 49.2v-.3c.8-.1.8-.1.8-1.2v-4l-2.4 5.4h-.2l-2.2-5.2-.1 2.8v1.6c0 .5.2.5.9.6v.3h-2.3v-.3c.6-.1.8-.2.8-.6 0-.3.1-.8.2-1.8l.1-2c.1-1.3 0-1.3-.9-1.4v-.3h1.7l2.2 4.8 2.2-4.8h1.7v.2c-.9.1-.9.1-.9 1.1l.1 3.6c0 1 .1 1.1.9 1.2v.3z"/><path d="m108.1 45.7c1 .1 1.8.6 1.8 1.6 0 .7-.4 1.2-.9 1.5s-1.2.4-2 .4h-2.2v-.3c.8-.1.9-.1.9-.9v-4c0-.8 0-.9-.8-.9v-.3h2.6c.8 0 1.2.1 1.5.3s.6.7.6 1.1c-.2 1-1 1.3-1.5 1.5z"/><path d="m106.9 45.6c1.1 0 1.5-.4 1.5-1.3 0-.7-.4-1.3-1.3-1.3-.2 0-.4 0-.5.1s-.1.2-.1.5v1.9h.4z" fill="#fff"/><path d="m106.5 47.9c0 .7.2.9.8.9.8 0 1.5-.4 1.5-1.4s-.7-1.4-1.9-1.4h-.4z" fill="#fff"/><path d="m116.1 47.6c0 .3-.3 1.3-.3 1.6h-4.8v-.3c.9-.1 1-.1 1-1v-3.9c0-.9-.1-.9-.8-1v-.3h4.4c0 .2 0 .9.1 1.4h-.3c-.1-.4-.2-.6-.3-.8s-.4-.3-1.1-.3h-.7c-.3 0-.3 0-.3.3v2.2h.9c.9 0 .9-.1 1.1-.7h.3v1.9h-.3c-.1-.7-.2-.8-1.1-.8h-.9v1.8c0 .5.1.7.2.8.2.1.5.1 1 .1.7 0 1-.1 1.2-.3s.4-.5.5-.9z"/><path d="m122.6 49.3c-.1 0-.2 0-.3 0-.8 0-1.2-.3-1.7-.9-.3-.5-.7-1.1-1-1.6-.2-.3-.3-.4-.8-.4h-.3v1.6c0 .8.1.9.9 1v.3h-2.7v-.3c.8-.1.9-.1.9-1v-4c0-.8-.1-.9-.9-.9v-.3h2.5c.8 0 1.2.1 1.6.3.4.3.7.7.7 1.3 0 .9-.5 1.4-1.3 1.7.2.3.6 1 .9 1.4.4.5.6.8.8 1 .3.3.5.4.7.5z"/><path d="m119 46c.5 0 .8-.1 1.1-.3.4-.3.5-.7.5-1.2 0-1.1-.7-1.5-1.4-1.5-.3 0-.4 0-.5.1s-.1.2-.1.4v2.5z" fill="#fff"/></svg>