<svg fill="none" height="263" viewBox="0 0 503 263" width="503" xmlns="http://www.w3.org/2000/svg" xmlns:xlink="http://www.w3.org/1999/xlink"><clipPath id="a"><path d="m0 0h503v263h-503z"/></clipPath><g clip-path="url(#a)"><path d="m110.7 182.2c-1.6 0-2.7-.1-3.2-.1l-6-.7-80-159h-1.5v158.7h-20v-179.4h33.9l80.3 160.4c7.7-.5 19.3-2.5 26-8.9 3.8-3.7 5.7-8.5 5.7-14.7 0-14-10.5-23.3-22.6-34-13.2-11.7-28.2-25.1-28.2-46.5 0-37.1 35.9-54.1 54.9-58l4 19.6c-1.6.3-38.9 8.5-38.9 38.3 0 12.5 10 21.3 21.5 31.6 13.7 12.2 29.3 26 29.3 49 0 11.8-4.2 21.9-12 29.3-13.9 13-35 14.4-43.2 14.4z" fill="#ea4d33"/><path d="m187.7 181.1h-10v-179.80001h10c25.8 0 48.2 5.4 64.8 17.90001 19.5 14.6 29.9 36.7 29.9 63.8 0 26.1-10.2 51-28.7 70.1-18 18.5-42.1 28-66 28zm10-159.4v138.6c35.5-5.5 64.7-38.7 64.7-77.3 0-49.7-41.6-59.2-64.7-61.3z" fill="#ea4d33"/><g fill="#000"><path d="m113.3 222.3v-25.9h5.3l11.6 20.7h.2v-20.7h3.2v25.9h-3.9l-12.9-22.6h-.2v22.6z"/><path d="m140.4 209.1c0-7.8 4.3-13.3 12.2-13.3 7.1 0 11.6 5.2 11.6 13.1 0 8.8-4 13.9-12 13.9-8.2 0-11.8-5.8-11.8-13.7zm3.7-.4c0 4.8 1.4 11.2 8.5 11.2 5.4 0 7.9-4 7.9-10.2 0-6.7-2.5-10.9-8.6-10.9-5 0-7.8 3.7-7.8 9.9z"/><path d="m177.4 211.1h-2.8v11.3h-3.6v-25.9h7.9c4.2 0 8 1.5 8 6.8 0 3.8-2.4 6.5-5.7 7.4l7.5 11.7h-4.2zm.9-3c2.9 0 4.9-1.5 4.9-4.6 0-3.3-1.8-4.2-5-4.2h-3.6v8.9h3.7z"/><path d="m205.2 196.5h3.5l6.3 21.8h.4l5.2-21.8h3.2l-6.4 25.9h-4.8l-4.7-16.7h-.2l-5.4 16.7h-4.2l-6.6-25.9h3.4l5.4 21.6h.3l5.6-17.4z"/><path d="m229.8 196.5h14.4v2.9h-11v8.2h9v2.9h-9.1v8.9h11.8v2.9h-15.3v-25.8z"/><path d="m268.2 200.7c-1.8-1.1-3.9-1.9-6.8-1.9-5.1 0-8.7 3.2-8.7 10.2 0 5.8 2.1 10.8 9.3 10.8 1.4 0 3-.2 4.2-.6v-9h3.5v10.8c-1.9 1.1-5.2 1.8-8.1 1.8-9.4 0-12.6-5.9-12.6-13.4 0-7.8 4.5-13.6 12.8-13.6 3.1 0 6.4 1.2 8 2.5z"/><path d="m280.9 222.3h-3.5v-25.9h3.5z"/><path d="m299.5 196.5 8.9 25.9h-3.8l-2.6-7.6h-9.2l-2.6 7.6h-3.6l7.6-22.4 1.1-3.5zm-5.8 15.2h7.5l-3.6-11.3h-.3z"/><path d="m314 222.3v-25.9h5.3l11.6 20.7h.2v-20.7h3.2v25.9h-3.9l-12.9-22.6h-.2v22.6z"/><path d="m370.1 200.8c-1.6-1-3.5-2-6.8-2-5 0-8.6 3.2-8.6 10.2 0 5.5 2.1 10.7 8.7 10.7 3.1 0 5.1-1 7-2.3l1.6 2.4c-2 1.7-5 2.9-8.6 2.9-8.8 0-12.4-5.8-12.4-13.4 0-7.8 4.5-13.6 12.6-13.6 3.6 0 6.6 1.3 8.1 2.5z"/><path d="m377.7 196.5h14.4v2.9h-11v8.2h9v2.9h-9.1v8.9h11.8v2.9h-15.3v-25.8z"/><path d="m399.1 222.3v-25.9h5.3l11.6 20.7h.2v-20.7h3.2v25.9h-3.9l-12.9-22.6h-.2v22.6z"/><path d="m425.1 199.3v-2.9h20.1v2.9h-8.4v23h-3.5v-23z"/><path d="m457.4 211.1h-2.8v11.3h-3.6v-25.9h7.9c4.2 0 8 1.5 8 6.8 0 3.8-2.4 6.5-5.7 7.4l7.5 11.7h-4.2zm.9-3c2.9 0 4.9-1.5 4.9-4.6 0-3.3-1.8-4.2-5-4.2h-3.6v8.9h3.7z"/><path d="m474.3 196.5h14.4v2.9h-11v8.2h9v2.9h-9.1v8.9h11.8v2.9h-15.3v-25.8z"/><path d="m136.7 236.5h14.4v2.9h-11v8.6h9v2.9h-9v11.4h-3.5v-25.8z"/><path d="m154.8 249.1c0-7.8 4.3-13.3 12.2-13.3 7.1 0 11.6 5.2 11.6 13.1 0 8.8-4 13.9-12 13.9-8.2 0-11.8-5.8-11.8-13.7zm3.7-.4c0 4.8 1.4 11.2 8.5 11.2 5.4 0 7.9-4 7.9-10.2 0-6.7-2.5-10.9-8.6-10.9-5 0-7.8 3.7-7.8 9.9z"/><path d="m191.9 251.1h-2.9v11.3h-3.6v-25.9h7.9c4.2 0 8 1.5 8 6.8 0 3.8-2.4 6.5-5.7 7.4l7.5 11.7h-4.1zm.8-3c2.9 0 4.9-1.5 4.9-4.6 0-3.3-1.8-4.2-5-4.2h-3.6v8.9h3.7z"/><path d="m224.9 251.1h-2.8v11.3h-3.6v-25.9h7.9c4.2 0 8 1.5 8 6.8 0 3.8-2.4 6.5-5.7 7.4l7.5 11.7h-4.2zm.8-3c2.9 0 4.9-1.5 4.9-4.6 0-3.3-1.8-4.2-5-4.2h-3.6v8.9h3.7z"/><path d="m241.8 236.5h14.4v2.9h-11v8.2h9v2.9h-9.1v8.9h11.8v2.9h-15.3v-25.8z"/><path d="m276.2 240.6c-1.4-.8-3.4-1.6-5.7-1.6-3 0-4.6 1.5-4.6 3.5 0 2.6 1.8 3.4 5.2 4.8 3.2 1.4 7 2.8 7 7.6 0 5.4-3.6 7.9-8.8 7.9-3.5 0-6.9-1.4-8.4-2.6l1.6-2.8c1 .8 4 2.3 6.8 2.3 3.6 0 5.4-1.4 5.4-4.3 0-3.2-2.7-4.3-5.5-5.3-3.5-1.3-6.8-2.8-6.8-7.1 0-4.8 3.9-7 8.2-7 2.5 0 5.3.8 7 2z"/><path d="m285.2 236.5h14.4v2.9h-11v8.2h9v2.9h-9.1v8.9h11.8v2.9h-15.3v-25.8z"/><path d="m316.7 236.5 8.9 25.9h-3.8l-2.6-7.6h-9.2l-2.6 7.6h-3.6l7.6-22.4 1.1-3.5zm-5.9 15.2h7.5l-3.6-11.3h-.3z"/><path d="m337.5 251.1h-2.8v11.3h-3.6v-25.9h7.9c4.2 0 8 1.5 8 6.8 0 3.8-2.4 6.5-5.7 7.4l7.5 11.7h-4.2zm.9-3c2.9 0 4.9-1.5 4.9-4.6 0-3.3-1.8-4.2-5-4.2h-3.6v8.9h3.7z"/><path d="m372 240.8c-1.6-1-3.5-2-6.8-2-5 0-8.6 3.2-8.6 10.2 0 5.5 2.1 10.7 8.7 10.7 3.1 0 5.1-1 7-2.3l1.6 2.4c-2 1.7-5 2.9-8.6 2.9-8.8 0-12.4-5.8-12.4-13.4 0-7.8 4.5-13.6 12.6-13.6 3.6 0 6.6 1.3 8.1 2.5z"/><path d="m395.3 236.5h3.5v25.9h-3.5v-11.7h-12.3v11.7h-3.5v-25.9h3.5v11.2h12.3z"/><path d="m416.9 262.3v-25.9h7.9c6.2 0 12.4 2.6 12.4 12 0 10.6-5.7 13.9-11.8 13.9zm7.2-23h-3.7v20.2h4c6.4 0 9.1-3.8 9.1-10.2 0-8.1-3.8-10-9.4-10z"/><path d="m453 236.5 8.9 25.9h-3.8l-2.6-7.6h-9.2l-2.6 7.6h-3.6l7.6-22.4 1.1-3.5zm-5.9 15.2h7.5l-3.6-11.3h-.3z"/><path d="m461.7 239.3v-2.9h20.1v2.9h-8.4v23h-3.5v-23z"/><path d="m494.1 236.5 8.9 25.9h-3.8l-2.6-7.6h-9.2l-2.6 7.6h-3.6l7.6-22.4 1.1-3.5zm-5.9 15.2h7.5l-3.6-11.3h-.3z"/></g></g></svg>