<?xml version="1.0" encoding="UTF-8" standalone="no"?>
<svg
   xmlns:dc="http://purl.org/dc/elements/1.1/"
   xmlns:cc="http://creativecommons.org/ns#"
   xmlns:rdf="http://www.w3.org/1999/02/22-rdf-syntax-ns#"
   xmlns:svg="http://www.w3.org/2000/svg"
   xmlns="http://www.w3.org/2000/svg"
   viewBox="0 0 708.66086 68.497498"
   height="68.497498"
   width="708.66089"
   xml:space="preserve"
   version="1.1"
   id="svg4190"><metadata
     id="metadata4196"><rdf:RDF><cc:Work
         rdf:about=""><dc:format>image/svg+xml</dc:format><dc:type
           rdf:resource="http://purl.org/dc/dcmitype/StillImage" /><dc:title></dc:title></cc:Work></rdf:RDF></metadata><defs
     id="defs4194"><clipPath
       id="clipPath4204"
       clipPathUnits="userSpaceOnUse"><path
         id="path4206"
         d="m 0,595.28 841.89,0 L 841.89,0 0,0 0,595.28 Z" /></clipPath></defs><g
     transform="matrix(1.25,0,0,-1.25,-171.8505,464.40112)"
     id="g4198"><g
       id="g4200"><g
         clip-path="url(#clipPath4204)"
         id="g4202"><g
           transform="translate(137.4804,321.8499)"
           id="g4208"><path
             id="path4210"
             style="fill:#002b5c;fill-opacity:1;fill-rule:nonzero;stroke:none"
             d="m 0,0 c 5.726,-3.244 10.953,-4.69 16.93,-4.69 11.06,0 17.666,6.122 17.666,16.376 0,9.696 -7.428,13.176 -13.397,15.97 -4.115,1.928 -7.668,3.592 -7.668,6.809 0,2.639 1.712,5.302 5.536,5.302 2.771,0 6.06,-0.919 10.344,-2.891 l 4.266,8.505 c -4.954,2.887 -10.031,4.29 -15.518,4.29 -10.649,0 -17.006,-5.711 -17.006,-15.275 0,-9.56 7.435,-13.252 13.41,-16.22 4.336,-2.152 8.077,-4.013 8.077,-7.516 0,-3.022 -2.694,-5.052 -6.703,-5.052 -3.214,0 -7.138,1.177 -11.664,3.505 L 0,0 Z" /></g><g
           transform="translate(193.993,341.3846)"
           id="g4212"><path
             id="path4214"
             style="fill:#002b5c;fill-opacity:1;fill-rule:nonzero;stroke:none"
             d="m 0,0 c -1.476,0 -2.451,0 -3.345,0.073 l -0.15,0.013 0,15.017 0.152,0.01 c 1.041,0.07 2.399,0.07 3.49,0.07 5.435,0 6.528,-3.122 6.528,-8.157 C 6.675,2.168 4.616,0 0,0 m 0.369,24.019 c -4.63,0 -11.596,0 -15.611,-0.134 l 0,-47.08 11.747,0 0,14.362 3.568,0 c 5.346,0 17.783,1.72 17.783,17.673 0,9.788 -6.21,15.179 -17.487,15.179" /></g><g
           transform="translate(232.989,341.3873)"
           id="g4216"><path
             id="path4218"
             style="fill:#002b5c;fill-opacity:1;fill-rule:nonzero;stroke:none"
             d="m 0,0 c -1.476,0 -2.45,0 -3.344,0.07 l -0.151,0.011 0,15.019 0.152,0.01 c 1.041,0.073 2.398,0.073 3.49,0.073 5.436,0 6.528,-3.124 6.528,-8.163 C 6.675,2.165 4.617,0 0,0 m 13.022,-5.1 -0.076,0.123 0.114,0.088 c 3.916,3.112 6.074,7.926 6.074,13.557 0,11.318 -9.694,15.348 -18.766,15.348 -4.629,0 -11.596,0 -15.61,-0.134 l 0,-47.08 11.747,0 0,14.362 3.568,0 c 0.713,0 1.385,0.038 2.005,0.078 l 0.099,0.008 0.05,-0.081 c 1.951,-3.11 4.436,-8.117 5.236,-14.369 2.574,0 12.853,-0.002 12.853,-0.002 -1.089,7.199 -5.029,14.422 -7.294,18.102" /></g><g
           transform="translate(260.7369,365.3308)"
           id="g4220"><path
             id="path4222"
             style="fill:#002b5c;fill-opacity:1;fill-rule:nonzero;stroke:none"
             d="m 0,0 0,-2.582 0,-3.752 0,-4.755 0,-5.631 0,-8.134 0,-6.633 0,-6.756 0,-8.901 11.733,-0.007 0,4.654 0,9.259 0,7.383 0,7.258 0,6.507 0,3.629 0,5.004 0,3.458 L 0,0 Z" /></g><g
           transform="translate(307.7224,318.1898)"
           id="g4224"><path
             id="path4226"
             style="fill:#002b5c;fill-opacity:1;fill-rule:nonzero;stroke:none"
             d="m 0,0 12.379,0 0,47.142 -10.397,0 0,-30.847 -14.066,30.847 -12.843,0 0,-47.142 10.339,0 0,29.738 L 0,0 Z" /></g><g
           transform="translate(488.0396,318.1898)"
           id="g4228"><path
             id="path4230"
             style="fill:#dc1730;fill-opacity:1;fill-rule:nonzero;stroke:none"
             d="m 0,0 13.891,0 0,52.849 -10.838,0 0.004,-36.873 -17.28,36.873 -13.705,0 0,-52.849 10.782,0 0.001,36.469 L 0,0 Z" /></g><g
           transform="translate(348.4333,366.3709)"
           id="g4232"><path
             id="path4234"
             style="fill:#002b5c;fill-opacity:1;fill-rule:nonzero;stroke:none"
             d="m 0,0 c -7.12,0 -12.252,-1.995 -15.691,-6.099 -3.413,-4.077 -5.072,-10.124 -5.072,-18.489 0,-18.268 5.327,-25.06 19.652,-25.06 4.561,0 11.43,1.18 16.544,3.812 l 0,23.434 -15.488,0 0,-8.042 4.888,0 0,-9.63 -0.108,-0.038 c -1.182,-0.423 -3.995,-0.644 -5.169,-0.644 -6.203,0 -8.622,4.573 -8.622,16.308 0,10.31 3.571,15.321 10.915,15.321 2.453,0 6.033,-1.092 9.845,-3.001 l 3.182,7.859 C 10.612,-1.595 5.062,0 0,0" /></g><g
           transform="translate(560.8365,318.1898)"
           id="g4236"><path
             id="path4238"
             style="fill:#dc1730;fill-opacity:1;fill-rule:nonzero;stroke:none"
             d="m 0,0 12.237,0 0,37.533 9.02,0 0,9.612 -31.84,0 0,-9.612 L 0,37.533 0,0 Z" /></g><g
           transform="translate(589.1583,365.3326)"
           id="g4240"><path
             id="path4242"
             style="fill:#dc1730;fill-opacity:1;fill-rule:nonzero;stroke:none"
             d="m 0,0 0,-31.957 c 0,-11.246 5.46,-16.263 17.699,-16.263 12.527,0 18.362,5.704 18.362,17.957 l 0,30.263 -12.163,0 0,-31.393 c 0,-4.825 -0.274,-7.78 -5.68,-7.78 -5.181,0 -6.055,2.422 -6.055,7.85 L 12.163,0 0,0 Z" /></g><g
           transform="translate(371.8772,365.3326)"
           id="g4244"><path
             id="path4246"
             style="fill:#002b5c;fill-opacity:1;fill-rule:nonzero;stroke:none"
             d="m 0,0 0,-38.802 c -0.001,-0.041 -0.069,-3.73 2.382,-6.257 1.53,-1.582 3.713,-2.389 6.486,-2.404 8.544,-0.048 17.905,0.267 19.224,0.313 l 0,9.206 -16.855,0 0,10.349 15.228,0 0,9.116 -15.228,0 0,9.293 16.633,0 L 27.87,0 0,0 Z" /></g><g
           transform="translate(676.3191,365.3326)"
           id="g4248"><path
             id="path4250"
             style="fill:#dc1730;fill-opacity:1;fill-rule:nonzero;stroke:none"
             d="m 0,0 0,-38.802 c 0,-0.041 -0.069,-3.73 2.383,-6.257 1.53,-1.582 3.711,-2.389 6.485,-2.404 8.542,-0.048 17.903,0.267 19.222,0.313 l 0,9.206 -16.853,0 0,10.349 15.226,0 0,9.116 -15.226,0 0,9.293 16.632,0 0,9.186 L 0,0 Z" /></g><g
           transform="translate(523.7396,334.5814)"
           id="g4252"><path
             id="path4254"
             style="fill:#dc1730;fill-opacity:1;fill-rule:nonzero;stroke:none"
             d="m 0,0 4.884,20.5 0.487,0 L 10.369,0 0,0 Z m 14.745,30.751 -18.318,0 -11.481,-47.143 11.983,0 1.688,7.486 13.135,0 1.69,-7.486 12.637,0 -11.334,47.143 z" /></g><g
           transform="translate(423.8512,341.3873)"
           id="g4256"><path
             id="path4258"
             style="fill:#002b5c;fill-opacity:1;fill-rule:nonzero;stroke:none"
             d="m 0,0 c -1.476,0 -2.45,0 -3.344,0.07 l -0.151,0.011 0,15.019 0.152,0.01 c 1.041,0.073 2.398,0.073 3.49,0.073 5.436,0 6.528,-3.124 6.528,-8.163 C 6.675,2.165 4.617,0 0,0 m 13.022,-5.1 -0.076,0.123 0.114,0.088 c 3.916,3.112 6.074,7.926 6.074,13.557 0,11.318 -9.694,15.348 -18.766,15.348 -4.629,0 -11.596,0 -15.61,-0.134 l 0,-47.08 11.747,0 0,14.362 3.568,0 c 0.713,0 1.385,0.038 2.005,0.078 l 0.099,0.008 0.05,-0.081 c 1.951,-3.11 4.436,-8.117 5.236,-14.369 2.574,0 12.853,-0.002 12.853,-0.002 -1.089,7.199 -5.029,14.422 -7.294,18.102" /></g><g
           transform="translate(649.1468,341.3873)"
           id="g4260"><path
             id="path4262"
             style="fill:#dc1730;fill-opacity:1;fill-rule:nonzero;stroke:none"
             d="m 0,0 c -1.476,0 -2.45,0 -3.344,0.07 l -0.151,0.011 0,15.019 0.152,0.01 c 1.041,0.073 2.398,0.073 3.49,0.073 5.436,0 6.528,-3.124 6.528,-8.163 C 6.675,2.165 4.617,0 0,0 m 13.022,-5.1 -0.076,0.123 0.114,0.088 c 3.916,3.112 6.074,7.926 6.074,13.557 0,11.318 -9.694,15.348 -18.766,15.348 -4.629,0 -11.596,0 -15.61,-0.134 l 0,-47.08 11.747,0 0,14.362 3.568,0 c 0.713,0 1.385,0.038 2.005,0.078 l 0.099,0.008 0.05,-0.081 c 1.951,-3.11 4.436,-8.117 5.237,-14.369 2.573,0 12.852,-0.002 12.852,-0.002 -1.089,7.199 -5.029,14.422 -7.294,18.102" /></g></g></g></g></svg>