<?xml version="1.0" encoding="UTF-8" standalone="no"?>
<svg
   xmlns:dc="http://purl.org/dc/elements/1.1/"
   xmlns:cc="http://creativecommons.org/ns#"
   xmlns:rdf="http://www.w3.org/1999/02/22-rdf-syntax-ns#"
   xmlns:svg="http://www.w3.org/2000/svg"
   xmlns="http://www.w3.org/2000/svg"
   height="110.8"
   width="612"
   xml:space="preserve"
   enable-background="new 0 0 612 792"
   viewBox="0 0 612 110.8"
   y="0px"
   x="0px"
   id="Layer_1"
   version="1.1"><metadata
     id="metadata87"><rdf:RDF><cc:Work
         rdf:about=""><dc:format>image/svg+xml</dc:format><dc:type
           rdf:resource="http://purl.org/dc/dcmitype/StillImage" /><dc:title></dc:title></cc:Work></rdf:RDF></metadata><defs
     id="defs85" /><g
     transform="translate(0,-340.6)"
     id="g3"><g
       id="g5"><path
         style="fill:#10147e"
         id="path7"
         d="m 86.9,400.1 c -0.9,2.3 -2.5,4.8 -2.5,4.8 -1,1.5 -2,2.9 -3.1,4.2 1.9,-0.1 8.6,-0.9 13,-11 l -7.4,2 z" /><path
         style="fill:#10147e"
         id="path9"
         d="M 55.4,340.6 C 24.8,340.6 0,365.4 0,396 c 0,30.6 24.8,55.4 55.4,55.4 30.6,0 55.4,-24.8 55.4,-55.4 0,-30.6 -24.8,-55.4 -55.4,-55.4 z m 6.4,32.8 c -6.7,8.6 -6.2,14 -6.2,14 -10.5,-6.7 6.2,-14 6.2,-14 z m 13.3,16.5 -1.1,2.7 -35.8,0 -1.2,-2.7 38.1,0 z m -1.7,4.2 -1.2,2.7 -32.3,0 -1.1,-2.7 34.6,0 z M 20,377.7 c 6.6,15.8 0.1,15.5 0.1,15.5 C 13.1,393 20,377.7 20,377.7 Z m 58.8,33.7 c -5.9,5.8 -14.1,9.3 -23,9.3 -12.8,0 -23.9,-7.3 -29.5,-17.9 l -10.1,0 -2,-4.7 1.9,0 0,-1.5 8.1,0 0,1.5 c 0,0 49.5,0 60.8,0 l 12.5,-3.5 c 0,0 -3.7,18 -18.7,16.8 z" /></g><polygon
       style="fill:#10147e"
       id="polygon11"
       points="127.7,356.3 154.9,356.3 154.9,359.8 143.7,359.8 143.7,391.2 138.8,391.2 138.8,359.8 127.7,359.8 " /><path
       style="fill:#10147e"
       id="path13"
       d="m 165.7,388.5 c -1.7,1.7 -3.9,3.3 -6.2,3.3 -4.2,0 -7.1,-3 -7.1,-7.7 0,-4.3 3.7,-7.1 8.9,-8.6 l 6,-1.9 c -0.2,-3 -2.5,-5 -5,-5 -2.9,0 -4.7,1.2 -6.5,2.7 l -1.7,-2.2 c 2.5,-2.4 5,-3.4 8.5,-3.4 3.7,0 9.2,1.2 9.2,8.5 l 0,11 c 0,1.9 0.2,4.3 1.1,6.1 l -4.9,0 c -0.6,-1 -0.7,-2.6 -0.7,-4.2 l -1.6,1.4 0,0 z M 163,377.9 c -3.9,1.2 -6,3.1 -6,6.2 0,2.6 1.8,4.2 3.6,4.2 3.2,0 7.3,-3.9 6.7,-11.7 l -4.3,1.3 0,0 z" /><path
       style="fill:#10147e"
       id="path15"
       d="m 180.2,365.8 c 2.5,6.3 5.1,12.7 7.6,20.2 l 0.1,0 c 2.6,-7.5 5.2,-13.9 7.8,-20.2 l 3.9,0.9 -12.8,28.9 c -2.3,5.3 -5.4,8.1 -9.7,8.1 l -2.2,0 0,-3.2 1.7,0 c 3.1,0 5.3,-0.8 8.8,-10.7 l -9.8,-22.8 4.6,-1.2 0,0 z" /><polygon
       style="fill:#10147e"
       id="polygon17"
       points="208.1,391.2 203.7,391.2 203.7,354.6 208.1,354.6 " /><path
       style="fill:#10147e"
       id="path19"
       d="m 213.8,378.5 c 0,-8.1 6,-12.8 12.3,-12.8 6.3,0 12.3,4.7 12.3,12.8 0,7.7 -4.9,13.4 -12.3,13.4 -7.3,-0.1 -12.3,-5.7 -12.3,-13.4 l 0,0 z m 4.9,0 c 0,4.7 1.6,10.2 7.4,10.2 5.9,0 7.5,-5.5 7.5,-10.2 0,-4.5 -1.8,-9.6 -7.5,-9.6 -5.6,0 -7.4,5.1 -7.4,9.6 l 0,0 z" /><path
       style="fill:#10147e"
       id="path21"
       d="m 248.5,369.4 1.8,-1.9 c 1,-1 2.7,-1.8 3.7,-1.8 1.1,0 2.7,0.8 4.1,2.4 l -2,2.9 c -1.1,-0.5 -2.2,-1 -3.3,-1 -2.3,0 -4.2,2.3 -4.2,7.8 l 0,13.4 -4.5,0 0,-24.9 4.4,0 0,3.1 0,0 z" /><polygon
       style="fill:#10147e"
       id="polygon23"
       points="332.3,373.1 332.3,376.6 320.1,376.6 320.1,391.2 315.3,391.2 315.3,356.3 332.5,356.3 332.5,359.8 320.1,359.8 320.1,373.1 " /><path
       style="fill:#10147e"
       id="path25"
       d="m 343.2,369.4 1.8,-1.9 c 1.1,-1 2.7,-1.8 3.7,-1.8 1.1,0 2.7,0.8 4.1,2.4 l -2,2.9 c -1.1,-0.5 -2.2,-1 -3.3,-1 -2.3,0 -4.2,2.3 -4.2,7.8 l 0,13.4 -4.5,0 0,-24.9 4.4,0 0,3.1 0,0 z" /><path
       style="fill:#10147e"
       id="path27"
       d="m 367.8,388.5 c -1.7,1.7 -3.9,3.3 -6.2,3.3 -4.2,0 -7.1,-3 -7.1,-7.7 0,-4.3 3.7,-7.1 8.9,-8.6 l 6,-1.9 c -0.2,-3 -2.5,-5 -5,-5 -2.9,0 -4.7,1.2 -6.5,2.7 l -1.7,-2.2 c 2.5,-2.4 5,-3.4 8.5,-3.4 3.7,0 9.2,1.2 9.2,8.5 l 0,11 c 0,1.9 0.2,4.3 1.1,6.1 l -4.9,0 c -0.6,-1 -0.7,-2.6 -0.7,-4.2 l -1.6,1.4 0,0 z m -2.7,-10.6 c -3.9,1.2 -6,3.1 -6,6.2 0,2.6 1.8,4.2 3.6,4.2 3.2,0 7.3,-3.9 6.7,-11.7 l -4.3,1.3 0,0 z" /><path
       style="fill:#10147e"
       id="path29"
       d="m 385.5,369.4 c 2.3,-2.5 5.9,-3.7 8.5,-3.7 5.7,0 8.8,3.2 8.8,9.5 l 0,16.1 -4.5,0 0,-15.1 c 0,-4.7 -2,-7.1 -6,-7.1 -3.5,0 -6.8,2.4 -6.8,7.2 l 0,15 -4.5,0 0,-24.9 4.4,0 0.1,3 0,0 z" /><path
       style="fill:#10147e"
       id="path31"
       d="m 429.4,389.2 c -2.4,1.7 -5.4,2.6 -7.5,2.6 -11.8,0 -13.3,-9.7 -13.3,-13.1 0,-6.2 4.1,-13 13.5,-13 2.5,0 4.8,0.6 6.7,2 l -1.5,2.5 c -1.4,-0.7 -3.3,-1.3 -5.1,-1.3 -4.1,0 -8.7,2.7 -8.7,9.5 0,5.2 2.6,10.1 8.7,10.1 2.1,0 4.1,-0.5 6.1,-1.8 l 1.1,2.5 0,0 z" /><path
       style="fill:#10147e"
       id="path33"
       d="m 433.6,358.1 c 0,-1.2 1,-2.6 2.8,-2.6 1.8,0 2.8,1.4 2.8,2.6 0,1.3 -0.6,3 -2.8,3 -2.1,0 -2.8,-1.7 -2.8,-3 l 0,0 z m 5.1,8.2 0,24.9 -4.5,0 0,-24.9 4.5,0 0,0 z" /><path
       style="fill:#10147e"
       id="path35"
       d="m 457.8,370.3 c -1.8,-1.2 -3.2,-1.6 -4.6,-1.6 -1.6,0 -3.6,0.8 -3.6,2.8 0,2.1 2.3,3.1 5.1,5.3 3.2,2.4 5.3,4.5 5.3,8 0,4.2 -4.1,7 -8.7,7 -2.8,0 -6,-1.2 -7.7,-3.1 l 2.2,-2.5 c 1.4,1.3 3.4,2.5 5.4,2.5 2.1,0 4.2,-1.1 4.2,-3.5 0,-2.9 -2.6,-4.1 -4.9,-5.8 -2.8,-2 -5.3,-3.7 -5.3,-7.1 0,-3.9 3.9,-6.4 8.3,-6.4 2.4,0 4.8,1 6.1,2.3 l -1.8,2.1 0,0 z" /><path
       style="fill:#10147e"
       id="path37"
       d="m 506.3,375.3 0,14.2 c -3.4,1.2 -7.6,2.3 -12.1,2.3 -12.4,0 -18.8,-8.6 -18.8,-18.1 0,-8.8 6.9,-17.9 19.4,-17.9 5.1,0 9.1,1.6 11.2,3.4 l -2,2.9 c -2.1,-1.4 -5.3,-2.8 -9.1,-2.8 -9.1,0 -14.2,6.2 -14.2,14.4 0,8.8 6,14.8 13.6,14.8 2.9,0 5.1,-0.3 7.1,-1.2 l 0,-11.8 4.9,0 0,-0.2 0,0 z" /><path
       style="fill:#10147e"
       id="path39"
       d="m 517.9,369.4 1.8,-1.9 c 1,-1 2.7,-1.8 3.7,-1.8 1.1,0 2.7,0.8 4.1,2.4 l -2,2.9 c -1.1,-0.5 -2.2,-1 -3.3,-1 -2.3,0 -4.2,2.3 -4.2,7.8 l 0,13.4 -4.5,0 0,-24.9 4.4,0 0,3.1 0,0 z" /><path
       style="fill:#10147e"
       id="path41"
       d="m 529.2,378.5 c 0,-8.1 6,-12.8 12.3,-12.8 6.3,0 12.3,4.7 12.3,12.8 0,7.7 -4.9,13.4 -12.3,13.4 -7.4,-0.1 -12.3,-5.7 -12.3,-13.4 l 0,0 z m 4.8,0 c 0,4.7 1.6,10.2 7.4,10.2 5.9,0 7.5,-5.5 7.5,-10.2 0,-4.5 -1.8,-9.6 -7.5,-9.6 -5.5,0 -7.4,5.1 -7.4,9.6 l 0,0 z" /><path
       style="fill:#10147e"
       id="path43"
       d="m 576.1,388.3 c -2.5,2.2 -4.8,3.5 -8,3.5 -5.7,0 -8.8,-3.2 -8.8,-9.5 l 0,-16 4.5,0 0,15.1 c 0,4.7 2,7.2 6,7.2 3.4,0 6.3,-2.8 6.3,-7.7 l 0,-14.6 4.5,0 0,24.9 -4.4,0 -0.1,-2.9 0,0 z" /><path
       style="fill:#10147e"
       id="path45"
       d="m 592.4,370.2 0,0 c 1.9,-3 5.5,-4.5 8.3,-4.5 9.7,0 11.3,8.7 11.3,12.3 0,7.6 -4.5,13.8 -11.8,13.8 -3.1,0 -5.8,-1.5 -7.7,-3.9 l -0.1,0 0,15.8 -4.5,0 0,-37.4 4.5,0 0,3.9 0,0 z m 14.8,7.9 c 0,-4.5 -2.3,-9.2 -6.9,-9.2 -5.1,0 -7.8,3.9 -7.8,10.4 0,4.8 2.2,9.4 7.8,9.4 5.3,-0.1 6.9,-6.1 6.9,-10.6 l 0,0 z" /><path
       style="fill:#10147e"
       id="path47"
       d="m 296.3,383.1 c 1.7,-3.3 1.9,-7 1.3,-10 l -3.9,0 c 0.8,2.6 0.9,5.6 -0.1,7.6 l -11.2,-10.4 c -3.4,-3.1 -4.7,-5 -4.7,-7 0,-2.2 1.6,-4 4.9,-4 2.1,0 4.1,1.1 4.9,1.7 l 1.7,-2.8 c -2.2,-1.6 -4.5,-2.4 -7.1,-2.4 -5.6,0 -9.3,3.7 -9.3,7.8 0,3.6 2.6,6 4.5,7.8 -4.1,1.9 -7.5,5.5 -7.5,10.1 0,2.1 1.5,10.4 12.4,10.4 4.8,0 8.8,-2.2 11.5,-5.2 l 5.7,5.2 4.4,-2.2 -7.5,-6.6 z m -13.4,5.4 c -5.3,0 -7.8,-4.4 -7.8,-7.6 0,-2.9 1.3,-5.5 4.5,-7.2 l 11.8,10.6 c -1.5,2 -4.7,4.2 -8.5,4.2 z" /><path
       style="fill:#10147e"
       id="path49"
       d="m 147.5,437.1 c -1.3,0 -1.8,-1.2 -1.6,-2.3 -1.4,1.9 -2.8,2.5 -5.1,2.5 -2.5,0 -4.5,-2 -4.5,-4.5 0,-5.1 5.5,-6.3 9.5,-6.5 l 0,-1 c 0,-2 -1.1,-3.7 -3.2,-3.7 -1.3,0 -3.1,0.5 -4.3,0.9 l 0,-1.2 c 1.4,-0.9 3.3,-1.6 5,-1.6 3,0 5.1,2.1 5.1,5 l 0,7.8 c 0,0.5 0,2.4 0.3,2.8 0.2,0.3 0.6,0.2 1,0.2 l 0,1.2 c -0.9,0.3 -1.5,0.4 -2.2,0.4 z m -1.7,-9 c -2.4,0 -7,0.7 -7,4 0,2 0.9,3.2 3,3.2 3.4,0 4,-3 4,-5.8 l 0,-1.4 z" /><path
       style="fill:#10147e"
       id="path51"
       d="m 164.2,436.9 0,-10.9 c 0,-2.4 -0.6,-4.1 -3.4,-4.1 -1.6,0 -3.6,0.7 -5,1.7 l 0,13.3 -2.5,0 0,-16.6 2.5,0 0,1.3 c 1.6,-0.8 4.2,-1.8 6,-1.8 3.9,0 4.9,2.9 4.9,6.3 l 0,10.8 -2.5,0 0,0 z" /><path
       style="fill:#10147e"
       id="path53"
       d="m 180.1,418.2 c -1.3,0 -2.3,-1 -2.3,-2.3 0,-1.3 1.1,-2.3 2.3,-2.3 1.3,0 2.3,1 2.3,2.3 0,1.2 -1,2.3 -2.3,2.3 z m -2.2,18.7 0,-16.6 4.4,0 0,16.6 c 0,0 -4.4,0 -4.4,0 z" /><path
       style="fill:#10147e"
       id="path55"
       d="m 197.3,436.9 0,-10.1 c 0,-1.8 -0.2,-3.8 -2.5,-3.8 -1.3,0 -2.9,0.5 -4,1.2 l 0,12.7 -4.4,0 0,-16.6 4.4,0 0,1.7 c 1.5,-1.1 3.9,-2.2 5.8,-2.2 3.5,0 5.1,2.6 5.1,5.9 l 0,11.3 -4.4,-0.1 0,0 z" /><path
       style="fill:#10147e"
       id="path57"
       d="m 213.8,416.7 c -2.4,0 -2.9,1.4 -2.9,3.5 l 4.6,0 0,2.6 -4.6,0 0,14 -4.4,0 0,-14 -2.7,0 0,-2.6 2.7,0 c 0,-3.6 1.6,-6.2 5.5,-6.2 1.3,0 2.6,0.4 3.8,1 l 0,1.8 c -0.7,0 -1.4,-0.1 -2,-0.1 z" /><path
       style="fill:#10147e"
       id="path59"
       d="m 225.2,437.3 c -5.6,0 -8.6,-3.4 -8.6,-8.9 0,-5.6 3,-8.7 8.6,-8.7 5.5,0 8.6,3.2 8.6,8.7 0.1,5.6 -2.9,8.9 -8.6,8.9 z m 0,-14.6 c -3.2,0 -4.3,3 -4.3,5.8 0,2.7 1,6.1 4.3,6.1 3.3,0 4.3,-3.3 4.3,-6.1 0,-2.7 -1.1,-5.8 -4.3,-5.8 z" /><path
       style="fill:#10147e"
       id="path61"
       d="m 245.1,423.2 c -1.4,0 -3,0.9 -3.9,1.9 l 0,11.8 -4.4,0 0,-16.6 4.4,0 0,2.2 c 0.8,-1.6 3.5,-2.7 5.2,-2.7 0.2,0 0.4,0 0.6,0 l 0,3.9 c -0.5,-0.4 -1.4,-0.5 -1.9,-0.5 z" /><path
       style="fill:#10147e"
       id="path63"
       d="m 270.4,436.9 0,-10.1 c 0,-1.9 -0.4,-3.8 -2.6,-3.8 -1.2,0 -2.4,0.5 -3.4,1.2 0.1,0.4 0.1,0.9 0.1,1.4 l 0,11.3 -4.5,0 0,-10.1 c 0,-1.8 -0.2,-3.8 -2.5,-3.8 -1.1,0 -2.5,0.5 -3.4,1.2 l 0,12.7 -4.4,0 0,-16.6 4.4,0 0,1.7 c 1.4,-1.1 3.7,-2.2 5.4,-2.2 1.9,0 3.4,0.8 4.2,2.5 1.6,-1.1 4,-2.5 6,-2.5 3.6,0 5.1,2.6 5.1,5.9 l 0,11.3 -4.4,-0.1 0,0 z" /><path
       style="fill:#10147e"
       id="path65"
       d="m 289.5,437.1 c -1.7,0 -1.6,-1.5 -1.8,-2.6 -1.2,1.6 -3.4,2.9 -5.4,2.9 -2.7,0 -5.1,-1.8 -5.1,-4.7 0,-5.4 6,-6.1 10.2,-6.2 l 0,-1 c 0,-1.9 -1.6,-2.8 -3.3,-2.8 -1.7,0 -3.4,0.2 -5,0.8 l 0,-1.9 c 1.8,-1.1 3.8,-1.8 5.9,-1.8 3.3,0 6.7,1.4 6.7,5.2 l 0,6.4 c 0,0.6 -0.1,3.6 0.4,4 0.2,0.1 0.5,0.1 0.7,0.1 l 0,1.5 c -1.1,-0.1 -2.2,0.1 -3.3,0.1 z m -8,-5.1 c 0,1.5 1,2.5 2.4,2.5 1.9,0 3.5,-1.6 3.5,-3.4 l 0,-2.4 c -1.9,0.1 -5.9,0.8 -5.9,3.3 z" /><path
       style="fill:#10147e"
       id="path67"
       d="m 310.4,437.3 c -1.4,0 -3.5,-0.7 -4.9,-1.2 l 0,0.8 -2.5,0 0,-23.1 2.5,0 0,9 c 1.2,-1.8 3.2,-3 5.4,-3 4.7,0 6.5,4.3 6.5,8.4 0,4.3 -2,9.1 -7,9.1 z m 0,-15.3 c -2.4,0 -4.8,1.7 -4.8,4.3 l 0,8.2 c 1.3,0.5 3.2,0.9 4.6,0.9 3.6,0 4.7,-3.9 4.7,-6.8 0,-3.1 -0.9,-6.6 -4.5,-6.6 z" /><path
       style="fill:#10147e"
       id="path69"
       d="m 332,436.9 0,-1.7 c -1.6,0.9 -4.2,2.1 -6,2.1 -3.9,0 -4.9,-2.9 -4.9,-6.3 l 0,-10.8 2.5,0 0,10.9 c 0,2.4 0.6,4.1 3.4,4.1 1.7,0 3.7,-0.9 5,-2 l 0,-13 2.5,0 0,16.6 -2.5,0 0,0.1 z" /><path
       style="fill:#10147e"
       id="path71"
       d="m 344,437.3 c -1.7,0 -3.8,-0.8 -5.3,-1.7 l 0,-1.9 c 1.4,0.8 3.6,1.8 5.2,1.8 1.8,0 3.4,-1 3.4,-2.9 0,-3.8 -8.8,-2.1 -8.8,-8 0,-3.1 2.7,-4.8 5.6,-4.8 1.7,0 3.1,0.5 4.5,1.3 l 0,1.5 c -1.8,-0.7 -3.3,-0.9 -4.6,-0.9 -1.7,0 -3.2,0.9 -3.2,2.7 0,3.5 8.9,2.2 8.9,7.9 0.1,3.2 -2.8,5 -5.7,5 z" /><path
       style="fill:#10147e"
       id="path73"
       d="m 354.9,417.3 c -0.8,0 -1.6,-0.6 -1.6,-1.4 0,-0.8 0.6,-1.6 1.5,-1.6 0.8,0 1.6,0.6 1.6,1.5 0,0.8 -0.6,1.5 -1.5,1.5 z m -1.4,19.6 0,-16.6 2.5,0 0,16.6 c 0,0 -2.5,0 -2.5,0 z" /><path
       style="fill:#10147e"
       id="path75"
       d="m 372.1,436.9 0,-10.9 c 0,-2.4 -0.6,-4.1 -3.4,-4.1 -1.6,0 -3.6,0.7 -5,1.7 l 0,13.3 -2.5,0 0,-16.6 2.5,0 0,1.3 c 1.6,-0.8 4.2,-1.8 6,-1.8 3.9,0 4.9,2.9 4.9,6.3 l 0,10.8 -2.5,0 0,0 z" /><path
       style="fill:#10147e"
       id="path77"
       d="m 380.7,428.9 c 0,3.4 1.8,6.4 5.5,6.4 1.7,0 3.5,-0.3 5.1,-0.8 l 0,1.8 c -1.7,0.7 -3.6,1 -5.4,1 -5.3,0 -7.7,-3.5 -7.7,-8.6 0,-4.8 2.3,-8.8 7.5,-8.8 4.5,0 6.4,3.8 6.4,7.8 l 0,1.2 -11.4,0 0,0 z m 4.8,-7.3 c -2.9,0 -4.8,3.1 -4.8,5.7 l 9.1,0 c 0,-2.5 -1.3,-5.7 -4.3,-5.7 z" /><path
       style="fill:#10147e"
       id="path79"
       d="m 400.3,437.3 c -1.7,0 -3.8,-0.8 -5.3,-1.7 l 0,-1.9 c 1.4,0.8 3.6,1.8 5.2,1.8 1.8,0 3.4,-1 3.4,-2.9 0,-3.8 -8.8,-2.1 -8.8,-8 0,-3.1 2.7,-4.8 5.6,-4.8 1.7,0 3.1,0.5 4.5,1.3 l 0,1.5 c -1.8,-0.7 -3.3,-0.9 -4.6,-0.9 -1.7,0 -3.2,0.9 -3.2,2.7 0,3.5 8.9,2.2 8.9,7.9 0.2,3.2 -2.7,5 -5.7,5 z" /><path
       style="fill:#10147e"
       id="path81"
       d="m 414.2,437.3 c -1.7,0 -3.8,-0.8 -5.3,-1.7 l 0,-1.9 c 1.4,0.8 3.6,1.8 5.2,1.8 1.8,0 3.4,-1 3.4,-2.9 0,-3.8 -8.8,-2.1 -8.8,-8 0,-3.1 2.7,-4.8 5.6,-4.8 1.7,0 3.1,0.5 4.5,1.3 l 0,1.5 c -1.8,-0.7 -3.3,-0.9 -4.6,-0.9 -1.7,0 -3.2,0.9 -3.2,2.7 0,3.5 8.9,2.2 8.9,7.9 0.2,3.2 -2.7,5 -5.7,5 z" /></g></svg>