<?xml version="1.0" encoding="utf-8"?>
<!-- Generator: Adobe Illustrator 25.0.0, SVG Export Plug-In . SVG Version: 6.00 Build 0)  -->
<svg version="1.1" id="Ebene_2" xmlns="http://www.w3.org/2000/svg" xmlns:xlink="http://www.w3.org/1999/xlink" x="0px" y="0px"
	 viewBox="0 0 144.7 34.8" style="enable-background:new 0 0 144.7 34.8;" xml:space="preserve">
<style type="text/css">
	.Grün_x0020_bogenförmig{fill:url(#SVGID_1_);stroke:#FFFFFF;stroke-width:0.25;stroke-miterlimit:1;}
	.st0{fill:#013476;}
</style>
<linearGradient id="SVGID_1_" gradientUnits="userSpaceOnUse" x1="-21.9158" y1="817.5489" x2="-21.2087" y2="816.8418">
	<stop  offset="0" style="stop-color:#259E2E"/>
	<stop  offset="0.9831" style="stop-color:#1C381D"/>
</linearGradient>
<g>
	<path class="st0" d="M22.2,18.1c-0.5-0.3-1-0.6-1.6-0.7c-1.4-0.1-1.7,1.3-2.9,0.9c-0.6-0.2-1.6-0.8-1.5-1.6c0.7-1,2.1-1,3.1-1.2
		c1-0.2,1.2-1.3,1.8-1.9c0,0,0-0.1,0-0.1c-0.3-0.1-1.4-0.3-2.2,0.1c-0.5,0.2-1.1,0.9-1.4,1.3c-0.1,0.2-0.4,0.3-0.7,0.2
		c0.6-0.9,0.7-2.1,1.4-3c0.3-0.4,0.8-0.7,1.5-0.8c1.1-0.3,0.9-1.6,1.5-2.3c0,0,0-0.1,0-0.1c-0.4-0.2-1.6-0.2-2.3,0.9
		c-0.4,0.7-0.5,1.4-1.3,1.7c0,0-0.3-0.8-0.2-1.3c0-0.7,1.1-1.2,1.6-1.8c0.6-0.7,0.2-1.8,0.3-2.6c0,0,0-0.1-0.1,0
		c-0.6,0.2-1.3,0.7-1.7,1.3C17.2,8,18,8.9,17.3,9.4c-0.3-0.5-0.5-1.1-0.7-1.7c-0.2-0.4,0-1.2-0.2-1.8c-0.3-0.8-1.2-1.2-1.8-1.5
		c0,0-0.1,0-0.1,0c-0.2,0.7-0.3,1.8,0.1,2.3c0.4,0.5,1.2,1,1.4,1.3c0.2,0.4,0.5,1.1,0.4,1.8c-0.2,0-0.4-0.1-0.4-0.2
		c0.1-1.6-1.6-1.5-2.6-2c0,0-0.1,0-0.1,0c0,0.7,0.2,1.4,0.7,2.1c0.8,1,2.3,0.3,2.5,1.1c0.3,1.5-0.6,3.4-1.5,4.7
		c-0.5-0.8,0.2-1.5,0.3-2.5c0-0.5-0.4-1.3-0.8-1.8c0,0-0.1,0-0.1,0c-0.4,0.7-0.9,1.2-1.1,1.9c-0.1,0.6,0.2,1,0.5,1.4
		c0.6,0.6,0.7,1.3,0.5,2c-0.2,1.3-1.1,2.5-1.3,2.7c-0.1,0.1-0.3,0.3-0.5,0c-0.4-0.8-0.9-1.8-1.3-2.4c-1-1.7,1.4-2.7,0.8-4.4
		c-0.2-0.4-0.5-0.8-0.8-1.1c0,0-0.1,0-0.1,0c-0.2,0.4-0.6,0.9-0.8,1.5c-0.2,0.8,0.4,1.2,0.3,1.6c0,0.3-0.1,0.5-0.3,0.7
		c-0.7-1.1-1.6-2.3-1.8-3.4c-0.2-1.6,2.1-1.5,2.8-2.6c0.4-0.5,0.5-1.2,0.4-1.8c0-0.1,0-0.1-0.1-0.1c-0.2,0-0.6,0.1-1,0.3
		c-1.4,0.5-1,1.9-2,2.6C8.5,9.4,9,7.9,9.2,7.6c0.3-0.5,0.8-0.4,1.2-1c0.4-0.6,0.6-1.4,0.5-2.1c0-0.1,0-0.1-0.1-0.1
		C9.9,4.7,9.2,4.8,8.7,5.6C8.3,6,8.3,6.7,8.4,7c0.1,0.4-0.6,2.2-0.8,2.9C7.1,9.5,7.6,9,7.5,8.5C7.4,7.7,6.7,7,6.3,6.2
		c0,0,0-0.1-0.1,0C5.7,6.9,5.6,8,5.7,8.4c0.1,0.6,0.4,1.2,1,1.5c0.7,0.5,0.8,1.4,0.7,2.3c0,0-0.5-0.1-0.5-0.6
		c-0.1-1.5-1.7-1.3-2.6-2c0,0-0.1,0-0.1,0c-0.2,1.6,1.1,2.7,2.1,3c1.2,0.3,1.8,1.6,2.4,2.7c-1.2,0.1-1.3-1-2.2-1.4
		c-0.8-0.4-2.4,0-2.8,0.1c-0.1,0-0.1,0,0,0.1c1.2,0.8,1.9,2,3.5,1.6c0.4-0.1,1.4,0.4,2,0.8c-0.2,0.8-1.1,1.8-1.4,1.9
		c-0.8,0.3-1.2-0.5-1.9-0.8C5,17.2,4,17.4,3.2,17.8c-0.1,0-0.1,0.1,0,0.1c0.2,0.2,0.8,0.7,1,0.8c0.9,0.6,1.8-0.1,2.7,0.4
		c-0.4,0.5-1.3,0.5-1.8,1.2c-0.4,0.5-0.5,1.3-0.5,1.9c0,0.1,0,0.1,0.1,0.1C5.5,21.8,6.7,22,7,21c0.3-0.7,0.1-1.3,1.3-2.2
		c0,0.7-0.1,1.2-0.5,2c-0.5,1.1,0.1,2,0.6,2.8c0,0.1,0.1,0.1,0.1,0c0.5-0.5,0.9-1,1-1.3c0.3-0.8-0.2-1.7-0.5-2.2
		c-0.3-0.5,0.1-1.8,0.6-2.3c1,2.1,1.9,3.6,1.7,6.4c-0.1,1.3-0.1,2.5-0.7,3.7c-0.5,0.9-2.4,1.4-1.5,2.8c0.3,0.4,0.6,0.8,1,0.7
		c0.4-0.1,0.3-0.5,0.4-0.9c0.7,0,1.2,0.6,1.8,0.5c0.7-0.1,0.2-0.8,0.2-1c0.1-0.3,0.7-0.8,1.3-0.8c0.7,0.1,0.4-0.5,0.9-0.5
		c1,0,2.5,0.8,3.7,1.3c0,0,0.2-0.1,0.3-0.2c0-0.5-0.7-0.7-0.9-1.1c0.1-0.2,0.3-0.2,0.3-0.5c-0.5-0.4-1.3-0.5-1.9-0.7
		c-0.5-0.2-1.4-0.4-1.6-1.1c-0.9-2.6-0.2-6,0.9-8.3c1.4,1,0.2,2.5,0,3.5c-0.2,0.8,0.4,1.4,0.8,2c0,0,0.1,0.1,0.1,0
		c0.2-0.2,0.6-0.6,0.9-1.3c0.6-1.2-0.9-2-0.4-3.1c1.1,0.6,1.1,1.4,1.3,2.1c0.3,0.9,1.4,0.9,2.2,1.5c0.1,0,0.1,0,0.1,0
		c0.2-0.9-0.1-1.7-0.4-2.2c-0.5-0.8-1.7-0.3-2.1-1.3c0.4-0.5,1.2-0.1,1.7,0c0.8,0.1,1.7-0.1,2.2-0.9C22.2,18.2,22.2,18.2,22.2,18.1z
		"/>
	<path class="st0" d="M21.7,5.5c-1.1-1.6-2.5-2.8-3.9-3.7c-1.5-0.9-3.2-1.4-4.9-1.4c-1.7,0-3.3,0.5-4.9,1.4C6.5,2.7,5.1,3.9,4,5.5
		c-2.3,3.2-3.6,7.5-3.6,12c0,4.5,1.3,8.8,3.6,12c1.1,1.6,2.5,2.8,3.9,3.7c1.5,0.9,3.2,1.4,4.9,1.4c1.7,0,3.3-0.5,4.9-1.4
		c1.5-0.9,2.8-2.1,3.9-3.7c2.3-3.2,3.6-7.5,3.6-12C25.2,13,24,8.7,21.7,5.5z M12.8,33.6c-6.3,0-11.5-7.2-11.5-16.1
		c0-8.9,5.2-16.1,11.5-16.1c3,0,5.9,1.7,8.1,4.7c1.1,1.5,1.9,3.2,2.5,5.1c0.6,2,0.9,4.1,0.9,6.3C24.3,26.3,19.2,33.6,12.8,33.6z"/>
</g>
<path class="st0" d="M45,12.8l-1.2-1.6c-0.3-0.3-0.6-0.6-0.8-0.7c-0.4-0.1-1-0.2-1.9-0.2h-1.8v16c0,1,0.1,1.6,0.2,1.9
	c0.1,0.3,0.4,0.6,0.8,0.7l1,0.4V30h-6.8v-0.6l1-0.4c0.4-0.2,0.7-0.4,0.8-0.7c0.1-0.3,0.2-0.9,0.2-1.9v-16h-1.8
	c-0.8,0-1.4,0.1-1.8,0.2c-0.4,0.1-0.7,0.4-1,0.7l-1.2,1.6h-0.7v-4h15.9v4H45z"/>
<path class="st0" d="M55.9,30v-0.6l0.7-0.4c0.4-0.2,0.6-0.5,0.7-0.8c0.1-0.3,0.2-0.9,0.2-1.8v-5.2c0-1.3,0-2.2-0.1-2.7
	c-0.2-1.6-1.3-2.3-3.3-2.3c-1.1,0-2.1,0.2-3,0.6v9.7c0,0.9,0.1,1.5,0.2,1.8c0.1,0.3,0.3,0.6,0.7,0.8l0.7,0.4V30h-5.9v-0.6l0.7-0.4
	c0.4-0.2,0.6-0.4,0.7-0.8c0.1-0.3,0.2-0.9,0.2-1.8V11.7c0-0.8-0.1-1.4-0.2-1.6c-0.1-0.3-0.3-0.5-0.7-0.6l-0.7-0.3V8.6L51,7.3v9
	c1.4-1.4,3-2.1,4.7-2.1c1.1,0,2.1,0.3,2.9,0.8c0.7,0.4,1.1,1.1,1.4,1.9c0.2,0.7,0.3,2,0.3,3.7v6c0,0.9,0,1.5,0.1,1.8
	c0.1,0.3,0.3,0.6,0.7,0.8l0.7,0.4V30H55.9z"/>
<path class="st0" d="M64.1,30v-0.6l0.7-0.4c0.4-0.2,0.6-0.4,0.7-0.8c0.1-0.3,0.2-0.9,0.2-1.8v-7.9c0-0.8-0.1-1.4-0.2-1.6
	c-0.1-0.3-0.3-0.5-0.7-0.6L64.1,16v-0.6l4.4-1.2v12.3c0,0.9,0.1,1.5,0.2,1.8c0.1,0.3,0.3,0.6,0.7,0.8l0.7,0.4V30H64.1z"/>
<path class="st0" d="M67.1,7.7c0.5,0,0.9,0.1,1.2,0.4c0.3,0.3,0.5,0.7,0.5,1.2c0,0.4-0.1,0.8-0.3,1c-0.3,0.4-0.7,0.6-1.4,0.6
	c-0.5,0-0.9-0.1-1.2-0.4c-0.3-0.3-0.4-0.7-0.4-1.2s0.1-0.9,0.4-1.2C66.2,7.9,66.6,7.7,67.1,7.7z"/>
<path class="st0" d="M85.3,21.6v-0.3c0-2.4-0.5-4.2-1.4-5.4c-0.9-1.1-2.4-1.7-4.4-1.7c-2.2,0-3.9,0.8-5.1,2.3
	c-1.2,1.5-1.9,3.5-1.9,6.2c0,2.5,0.6,4.5,1.7,5.8c1.1,1.3,2.9,1.9,5.1,1.9c1.3,0,2.5-0.2,3.4-0.7c0.6-0.3,1.3-0.8,1.9-1.4v-0.6
	c-1.2,0.4-2.5,0.7-3.8,0.7c-2,0-3.4-0.5-4.3-1.5c-0.9-1-1.3-2.6-1.3-4.9v-0.3H85.3z M79.1,15.9c1.2,0,2.1,0.4,2.6,1.3
	c0.3,0.6,0.5,1.5,0.5,2.6l-6.8,0.7C75.6,17.4,76.8,15.9,79.1,15.9z"/>
<path class="st0" d="M106.4,30v-0.6l0.7-0.4c0.4-0.2,0.6-0.5,0.7-0.8c0.1-0.3,0.2-0.9,0.2-1.8v-5.2c0-1.5,0-2.4-0.1-2.7
	c0-0.1-0.1-0.3-0.1-0.6c-0.4-1.2-1.5-1.8-3.4-1.8c-1.1,0-2.2,0.2-3.2,0.5c0.3,0.7,0.4,2,0.4,3.9v6c0,0.9,0,1.5,0.1,1.8
	c0.1,0.3,0.3,0.6,0.7,0.8l0.7,0.4V30h-5.9v-0.6l0.7-0.4c0.4-0.2,0.6-0.5,0.7-0.8c0.1-0.3,0.2-0.9,0.2-1.8v-5.2c0-1.3,0-2.2-0.1-2.7
	c-0.2-1.6-1.3-2.3-3.3-2.3c-1.2,0-2.2,0.2-3,0.5v9.7c0,0.9,0.1,1.5,0.2,1.8c0.1,0.3,0.3,0.6,0.7,0.8l0.7,0.4V30h-5.9v-0.6l0.7-0.4
	c0.4-0.2,0.6-0.4,0.7-0.8c0.1-0.3,0.2-0.9,0.2-1.8v-7.9c0-0.8-0.1-1.4-0.2-1.6c-0.1-0.3-0.3-0.5-0.7-0.6L87.9,16v-0.6l4.3-1.2v2.1
	c0.6-0.6,1.1-1,1.6-1.2c1-0.6,2-0.9,3.2-0.9c1.4,0,2.5,0.4,3.2,1.1c0.2,0.2,0.4,0.5,0.7,0.9c1.6-1.4,3.3-2,5.1-2
	c2.4,0,3.9,1,4.5,2.9c0.2,0.6,0.3,1.8,0.3,3.4v6c0,0.9,0,1.5,0.1,1.8c0.1,0.3,0.3,0.6,0.7,0.8l0.7,0.4V30H106.4z"/>
<path class="st0" d="M126.7,21.6v-0.3c0-2.4-0.5-4.2-1.4-5.4c-0.9-1.1-2.4-1.7-4.4-1.7c-2.2,0-3.9,0.8-5.1,2.3
	c-1.2,1.5-1.9,3.5-1.9,6.2c0,2.5,0.6,4.5,1.7,5.8c1.1,1.3,2.9,1.9,5.1,1.9c1.3,0,2.5-0.2,3.4-0.7c0.6-0.3,1.3-0.8,1.9-1.4v-0.6
	c-1.2,0.4-2.5,0.7-3.8,0.7c-2,0-3.4-0.5-4.3-1.5c-0.9-1-1.3-2.6-1.3-4.9v-0.3H126.7z M120.5,15.9c1.2,0,2.1,0.4,2.6,1.3
	c0.3,0.6,0.5,1.5,0.5,2.6l-6.8,0.7C117,17.4,118.3,15.9,120.5,15.9z"/>
</svg>
