<svg enable-background="new 0 0 618.5 144.3" height="131.59959" viewBox="0 0 565.2641 131.59959" width="565.2641" xmlns="http://www.w3.org/2000/svg"><path d="m123.4925 131.54521c-2.22123-.16862-4.15174-1.02101-5.63035-2.48601-1.47379-1.46021-2.27682-3.21937-2.45346-5.37467-.20404-2.48962.629-4.86778 2.31464-6.60781 1.33128-1.37423 3.04422-2.22757 5.14063-2.56091.77388-.12305 2.67144-.0923 3.50314.0568 2.41059.43211 4.44957 1.69777 5.69351 3.53416 1.71834 2.53673 1.94945 5.9532.5902 8.72491-1.10322 2.24962-3.09966 3.82485-5.62654 4.43944-1.07346.26108-2.37376.362-3.53177.27409zm2.13217-2.22407c2.73482-.46553 4.77073-2.39659 5.31344-5.03977.20748-1.01053.17149-1.97585-.11339-3.0416-.36797-1.37659-1.24869-2.62454-2.44024-3.45776-2.35128-1.64416-5.78234-1.59788-8.02413.10822-3.03398 2.30899-3.39605 6.75771-.7741 9.51152.93474.98175 2.23585 1.67248 3.61762 1.92051.60437.10849 1.78012.10794 2.4208-.001zm48.64057 2.22109c-3.56983-.2715-6.47002-2.39942-7.60186-5.57763-.37193-1.04437-.46038-1.61364-.45968-2.95839.00072-1.34652.0703-1.83711.39839-2.80767.95155-2.81516 3.25165-4.84231 6.27543-5.53075 1.77493-.40411 3.93242-.30861 5.65683.25038 2.90356.94123 4.99516 3.29904 5.60893 6.32282.17792.87652.19078 2.56868.0258 3.39408-.70036 3.50384-3.22939 6.01653-6.77207 6.72832-.54701.10991-2.00361.25412-2.36449.23411-.0823-.005-.42758-.0294-.76727-.0553zm2.68281-2.32845c1.23461-.32997 2.02777-.76307 2.88756-1.57676.67026-.63432 1.18064-1.34215 1.47792-2.04967 1.17149-2.78815.35865-5.93037-1.98912-7.68935-1.28279-.96109-3.06298-1.45118-4.71166-1.29714-1.60909.15034-2.90543.71781-4.00225 1.75196-.88981.83897-1.47993 1.82525-1.78334 2.98052-.20322.77378-.25503 1.99917-.11755 2.78022.47172 2.67993 2.50952 4.68892 5.28115 5.20649.75474.14093 2.23078.0879 2.95729-.10627zm105.60952 2.33066c-1.31132-.12403-2.73096-.64344-3.64357-1.33312l-.20287-.15331v-1.49838-1.49837l.67343.65929c.73815.72264 1.32463 1.12287 2.05991 1.40575 1.82831.7034 3.62184.27166 4.31575-1.03889.13934-.26317.16256-.37846.16328-.81091.00072-.44273-.022-.55182-.18642-.89571-.2257-.47195-.82034-1.11942-1.46418-1.59428-.24983-.18426-.86939-.58515-1.3768-.89087-1.83887-1.10793-2.47759-1.56741-3.11286-2.23933-.45129-.47731-.78666-1.02006-.96164-1.55626-.17719-.54299-.2174-1.59633-.0863-2.26045.12171-.61651.52199-1.44605.90579-1.87715.81914-.9201 2.14296-1.46345 3.73917-1.53471 1.29839-.058 2.37442.17949 3.50461.77337l.59585.31309.0161 1.37328.0161 1.37329-.47369-.37891c-1.12916-.90323-2.26403-1.34154-3.46827-1.3395-.93768.002-1.64989.25218-2.16062.76024-.37191.36997-.50423.66009-.532 1.16644-.0335.61166.12878.99411.65478 1.54276.49886.52034.95798.84034 2.29617 1.6004 2.44857 1.39075 3.23865 2.06284 3.83495 3.26226.39154.78756.4707 1.15009.47273 2.1648.002 1.01833-.0741 1.36231-.48541 2.19189-.55543 1.12035-1.68658 1.95916-3.00349 2.22724-.55152.11228-1.43056.14846-2.09043.0861zm164.6993.002c-1.30765-.12353-2.39572-.50589-3.49499-1.22817l-.31427-.20649v-1.49607-1.49608l.61357.60032c.6967.68164 1.36218 1.14007 2.01977 1.39132 1.39257.53209 2.74071.45622 3.64765-.20529.7983-.58226 1.08829-1.43117.78614-2.30129-.31369-.90338-1.06728-1.58187-3.17373-2.85747-1.56068-.94511-2.07155-1.30775-2.67231-1.89701-.91411-.89658-1.27316-1.65198-1.32525-2.78812-.0499-1.08754.16824-1.92502.71052-2.72834.66626-.98696 1.78599-1.61803 3.26208-1.83846 1.51887-.22683 2.885-.001 4.24268.70131l.5986.30966.0161 1.3789.0161 1.37891-.41293-.34236c-.59985-.49734-1.29771-.892-1.99793-1.12988-.52265-.17757-.71705-.21292-1.30272-.23693-1.0442-.0428-1.80312.19042-2.35788.72462-.42854.41267-.54406.68453-.54317 1.27844.00096.65794.13966.94723.74249 1.54889.49224.49129.97498.8177 2.39801 1.62144 2.18719 1.23535 3.08629 2.00905 3.64359 3.13536.33268.67233.43059 1.07802.46889 1.94269.0507 1.14476-.13369 1.8983-.67646 2.76445-.54548.87051-1.56463 1.5794-2.66456 1.85341-.5523.13758-1.51119.19015-2.22994.12224zm17.03316-.004c-3.62656-.27581-6.55474-2.46346-7.64268-5.70984-.32154-.95948-.39497-1.39598-.43051-2.55928-.0278-.90846-.0143-1.17365.0905-1.77929.30874-1.78522 1.09214-3.30267 2.34252-4.53747 1.87314-1.8498 4.52405-2.73819 7.4653-2.50179 1.362.10946 2.39375.36988 3.46811.87538 2.38857 1.12384 4.05325 3.27075 4.58335 5.91105.17446.86895.19048 2.50839.0327 3.35019-.65549 3.49786-3.21633 6.0567-6.77753 6.77221-.54702.10991-2.00361.25413-2.3645.23412-.0823-.005-.42758-.0294-.76727-.0553zm2.68281-2.32754c1.20425-.32003 2.023-.76721 2.8821-1.57414.67161-.63082 1.1834-1.3392 1.48338-2.05315 1.1715-2.78815.35865-5.93037-1.98911-7.68935-1.2828-.96109-3.06299-1.45118-4.71166-1.29714-1.6091.15034-2.90544.71781-4.00226 1.75196-.88867.83791-1.47756 1.8214-1.78466 2.98052-.20339.76763-.25436 1.99076-.11589 2.78022.47011 2.68013 2.50721 4.68856 5.28081 5.20649.75251.14052 2.23004.0879 2.95729-.10541zm19.24174 2.32896c-4.12654-.30692-7.17529-2.89638-8.02827-6.81883-.16634-.7649-.14903-2.53412.0331-3.37922.4644-2.15542 1.54585-3.87362 3.23032-5.13234.57069-.42644 1.82023-1.06558 2.53037-1.29428.63973-.20602 1.4731-.3765 2.19943-.44992 1.92227-.19433 3.69551.0867 6.06951.96184l.82308.30343v1.29023 1.29023l-.43399-.24371c-4.35274-2.44435-8.92195-1.83317-11.12235 1.48774-1.16869 1.76381-1.33494 4.25829-.41448 6.21883.92295 1.96582 2.77225 3.23862 5.2011 3.57975.69127.0971 2.148.0361 2.87087-.12018 1.17628-.25431 2.53566-.78429 3.5596-1.38778.25788-.15199.48011-.27635.49385-.27635.0137 0 .025.58333.025 1.29628v1.29627l-.61357.2823c-1.89701.87279-4.18143 1.26247-6.42351 1.09571zm73.41883-.001c-1.13982-.10609-2.17289-.44792-3.17118-1.04929l-.56641-.34121-.016-1.51716-.0159-1.51716.61456.60128c.33801.33071.8294.74047 1.09198.91056 1.52791.98981 3.43697 1.10754 4.56909.2818.80587-.58778 1.09673-1.43333.79348-2.30665-.31085-.89517-1.08642-1.59346-3.17373-2.85746-1.56068-.94511-2.07155-1.30776-2.67231-1.89701-.91411-.89658-1.27316-1.65198-1.32525-2.78812-.0753-1.64182.53705-2.95453 1.75452-3.76132.80937-.53635 1.79147-.8212 3.01877-.87557 1.24093-.055 2.30592.18371 3.44199.7714l.5986.30965.0161 1.37724.0161 1.37724-.47896-.38313c-1.08272-.86608-2.07737-1.2725-3.23461-1.32168-1.04322-.0443-1.80232.18862-2.35788.72359-.42855.41267-.54406.68454-.54317 1.27845.00096.63097.13286.92427.66893 1.4873.46389.48722.9356.81212 2.31273 1.59295 1.34523.76275 1.63003.9419 2.22839 1.40177 1.41214 1.08528 2.06083 2.34411 2.06083 3.99924 0 1.3854-.46171 2.49932-1.38823 3.34924-.49623.4552-1.26585.8603-1.96397 1.03377-.55958.13904-1.52767.19015-2.2784.12028zm-559.63341-8.53632v-8.36263h4.48955 4.48955v1.03791 1.03792h-3.25508c-2.67954 0-3.26708.0143-3.32298.0811-.0487.0581-.0635.72653-.0522 2.35755l.0157 2.27648 3.3073.0153 3.3073.0153v1.03742 1.03741h-3.25044c-2.4483 0-3.26815.0176-3.32226.0712-.0544.0539-.0718 1.00431-.0718 3.91443v3.84325h-1.16729-1.16728v-8.36264zm12.9299 0v-8.36263h4.78885 4.78885v1.03744 1.03746l-3.57667.0153-3.57667.0153v2.55031 2.55031l3.45695.0153 3.45695.0153v1.03696 1.03696l-3.45695.0153-3.45695.0153v2.60962 2.60962l3.66646.0153 3.66646.0153v1.06712 1.06711h-4.87864-4.87864v-8.36264zm13.82781.004v-8.36649l3.66646.00059c4.31439.0006 4.88188.0444 6.23337.48156 2.8317.91591 4.78764 3.09646 5.43623 6.06048.18136.82881.19584 2.71433.0267 3.47766-.36652 1.6542-1.12078 3.03993-2.27957 4.18806-1.22937 1.21805-2.73864 1.98856-4.60499 2.35094-.63473.12324-.85197.13044-4.5723.15159l-3.90591.0222v-8.36648zm7.50104 6.1596c1.74282-.2593 2.99916-.91101 4.0497-2.10075 1.42385-1.6125 1.88364-4.1867 1.12749-6.31237-.32613-.91683-.67209-1.46214-1.36002-2.14374-.93816-.92952-2.03945-1.46435-3.59619-1.74644-.74274-.13459-5.15248-.20703-5.29841-.087-.0778.064-.089.85184-.089 6.22427 0 3.38307.018 6.16883.0399 6.19058.0675.0668 4.6601.0449 5.12657-.0245zm12.43255-6.16346v-8.36263h4.75892 4.75892v1.03791 1.03792h-3.5198c-2.65782 0-3.5374.0174-3.59164.0712-.10324.10229-.10324 4.91529 0 5.01758.0542.0537.90722.0712 3.47191.0712h3.40009v1.03792 1.03792h-3.40473c-2.80437 0-3.41669.0143-3.47256.081-.0488.0582-.0634.79602-.0522 2.62445l.0156 2.54346 3.69639.0153 3.6964.0153v1.06711 1.06712h-4.87865-4.87864v-8.36264zm13.82781 0v-8.36263l2.46925.00059c2.7524.00059 3.23137.0416 4.20748.36233 1.54942.50904 2.57086 1.57097 2.94176 3.05834.14052.56349.1411 1.92292.001 2.45062-.30116 1.13476-1.07731 2.1046-2.09177 2.61377-.28792.14451-.51689.27864-.50882.29808.008.0194.22911.20626.4912.41516.87667.69878 1.56243 1.59124 3.07181 3.99771.42966.68503 1.14724 1.7526 1.59463 2.37238l.81343 1.12688-1.39065.016c-.76486.009-1.41948.005-1.4547-.008-.0352-.0134-.66855-.9547-1.4074-2.09179s-1.57975-2.38177-1.86866-2.76597c-.94994-1.2632-1.77927-2.00594-2.52871-2.26471-.39134-.13512-1.78112-.20173-1.91483-.0918-.0789.0649-.0905.53216-.0905 3.65538v3.58097h-1.16728-1.16729v-8.36264zm5.12611-1.15226c1.4529-.35078 2.28181-1.43717 2.15425-2.82344-.10271-1.11634-.64806-1.79364-1.74852-2.17161-.46038-.15813-.51127-.16277-1.82048-.16591l-1.34687-.003-.0156 2.57312c-.0121 1.9936.001 2.59329.0594 2.66269.0641.0765.24037.0843 1.21282.0533.67893-.0216 1.28588-.072 1.50499-.12491zm9.30257 9.47042c.001-.0245 1.62473-3.80767 3.60775-8.40712l3.60547-8.36264.86684-.0156.86684-.0156 3.75626 8.37828c2.06594 4.60805 3.75626 8.39829 3.75625 8.42275 0 .0245-.54664.0445-1.21475.0445h-1.21475l-1.09932-2.41686c-.60463-1.32927-1.12549-2.45043-1.15746-2.49146-.0458-.0588-.81616-.0714-3.6271-.0593l-3.56896.0153-1.07331 2.47617-1.07332 2.47617h-1.21635c-.669 0-1.21534-.02-1.21409-.0445zm10.73451-7.05951c.0403-.0647-2.6167-5.95567-2.6861-5.95545-.0658 0-2.53953 5.8906-2.5018 5.95713.0336.0592 5.15094.0576 5.1879-.002zm10.91804-.2059-.0152-7.3099-2.91821-.0154-2.9182-.0154v-1.03735-1.03735h7.06355 7.06356v1.03791 1.03792h-2.86134c-2.14567 0-2.8793.0178-2.93317.0712-.0551.0546-.0718 1.76215-.0718 7.32472v7.25355h-1.19698-1.19698l-.0152-7.30989zm11.98686-1.05275v-8.36263h1.19721 1.19721v8.36263 8.36264h-1.19721-1.19721zm29.27185 0v-8.36263h.98852.98852l5.66456 6.42025c3.11551 3.53114 5.68765 6.42915 5.71587 6.44002.0283.0109.0513-2.86626.0513-6.42025v-6.44002h1.13735 1.13736v8.36397 8.36398l-1.06704-.0162-1.06703-.0162-5.58623-6.37577c-3.07243-3.50668-5.60924-6.38467-5.63736-6.39554-.0281-.0109-.0511 2.86489-.0511 6.3906v6.41036h-1.13735-1.13735v-8.36264zm50.82168 0v-8.36263h4.51948 4.51948v1.03791 1.03792h-3.25508c-2.67954 0-3.26708.0143-3.32298.0811-.0487.0581-.0635.72653-.0522 2.35755l.0157 2.27648 3.3073.0153 3.3073.0153v1.03742 1.03741h-3.25043c-2.4483 0-3.26816.0176-3.32227.0712-.0544.0539-.0718 1.00431-.0718 3.91443v3.84325h-1.19722-1.19721v-8.36264zm21.25053 0v-8.36263h4.48955 4.48954v1.03741 1.0374l-3.27737.0153-3.27737.0153v2.34273 2.34272l3.27737.0153 3.27737.0153v1.0369 1.03691l-3.27737.0153-3.27737.0153-.0154 3.8996-.0154 3.8996h-1.19678-1.19678v-8.36264zm12.98976 0v-8.36263h1.19721 1.19721v8.36263 8.36264h-1.19721-1.19721zm7.54244 0v-8.36263l.97273.00088.97274.00089 5.67674 6.43422c3.12222 3.53882 5.70146 6.43421 5.73166 6.43421.033 0 .0549-2.57122.0549-6.43508v-6.43508h1.10742 1.10742v8.36264 8.36264h-1.04309-1.04309l-5.61283-6.40543c-3.08705-3.52298-5.63464-6.40542-5.6613-6.40542-.0267 0-.0485 2.88244-.0485 6.40542v6.40543h-1.10742-1.10742v-8.36264zm20.71178 0v-8.36263h.98382.98382l5.66879 6.42025c3.11784 3.53114 5.6921 6.42915 5.72057 6.44002.0289.011.0518-2.82141.0518-6.42025v-6.44002h1.13735 1.13736v8.36263 8.36264l-1.06253-.002-1.06253-.002-5.59697-6.39972c-3.07833-3.51986-5.61717-6.40136-5.64186-6.40334-.0247-.002-.0449 2.87883-.0449 6.40181v6.40543h-1.13735-1.13735v-8.36264zm20.8315 0v-8.36263h1.16728 1.16729v8.36263 8.36264h-1.16729-1.16728zm20.2329 0v-8.36263h1.16682 1.16682l.0154 3.6327.0154 3.63271h4.75892 4.75892l.0154-3.63271.0154-3.6327h1.19675 1.19675v8.36263 8.36264h-1.19675-1.19675l-.0154-3.6327-.0154-3.63271h-4.75892-4.75892l-.0154 3.63271-.0154 3.6327h-1.16682-1.16682zm27.65561 0v-8.36263h1.19698 1.19697l.0152 7.28024.0152 7.28024 3.81611.0153 3.81612.0153v1.06713 1.06713h-5.02829-5.0283v-8.36264zm13.52851 0v-8.36263h4.78885 4.78885v1.03744 1.03746l-3.57667.0153-3.57668.0153v2.55031 2.55031l3.45695.0153 3.45696.0153v1.03696 1.03696l-3.45696.0153-3.45695.0153v2.60962 2.60962l3.6964.0153 3.69639.0153v1.06711 1.06712h-4.90857-4.90857v-8.36264zm12.11378 7.90419c.10891-.25346 1.74212-4.04457 3.62936-8.42467l3.43134-7.96383.86514.0164.86514.0164 3.76452 8.39197c2.07049 4.61559 3.76452 8.39934 3.76452 8.40833 0 .009-.55623.009-1.23605.00059l-1.23606-.016-1.08429-2.37899c-.59637-1.30844-1.12093-2.42272-1.16571-2.47617-.0737-.088-.41375-.0972-3.60864-.0972h-3.52722l-.0935.1631c-.0514.0897-.54252 1.20398-1.09133 2.47617l-.99783 2.31307-1.2387.016-1.23869.016.19801-.46085zm10.5734-6.66568c0-.0995-2.64714-5.98327-2.69189-5.98327-.0614 0-2.51918 5.93715-2.48229 5.99631.0513.0823 5.17418.0694 5.17418-.013zm9.03895-1.23851v-8.36263l2.49919.00059c2.65756.00059 3.21019.0411 4.05555.29908 1.68954.51553 2.73174 1.57933 3.12246 3.18715.1341.5518.13278 1.80378-.002 2.3554-.27977 1.14105-1.05378 2.12089-2.0871 2.64212-.28792.14522-.51689.28055-.50882.30072.008.0202.22222.20152.47588.40299.82249.65328 1.50395 1.51619 2.69721 3.41546.90762 1.4446 1.4409 2.2438 2.07771 3.11374.25073.34252.51713.70949.59201.81551l.13615.19276-1.4557-.002-1.45569-.002-.92429-1.43622c-2.04107-3.17157-2.57191-3.90493-3.45011-4.76647-.87999-.86328-1.50399-1.1092-2.72926-1.07561l-.61837.017-.0154 3.6327-.0154 3.63271h-1.19675-1.19675v-8.36264zm4.57934-1.0691c.9851-.10946 1.62642-.38866 2.12583-.92547.87895-.94476.83161-2.73198-.0948-3.57803-.64661-.59053-1.43183-.78426-3.08074-.76007l-1.1053.0162-.0156 2.57312c-.0112 1.85037.003 2.59587.0522 2.6541.0834.0995 1.29984.1111 2.11836.0201zm11.70276 1.0691v-8.36263h.98471.98472l5.66619 6.42025c3.11641 3.53114 5.69027 6.42915 5.71968 6.44002.0312.0115.0535-2.66408.0535-6.42025v-6.44002h1.10742 1.10743v8.36263 8.36264l-1.0326-.001-1.0326-.001-5.6269-6.42694c-3.09479-3.53481-5.6471-6.41502-5.67179-6.40047-.0247.0145-.0449 2.90732-.0449 6.42838v6.40193h-1.10742-1.10742v-8.36264zm20.77164 0v-8.36263h4.78885 4.78885v1.03744 1.03746l-3.57667.0153-3.57667.0153v2.55031 2.55031l3.45695.0153 3.45695.0153v1.03696 1.03696l-3.45695.0153-3.45695.0153v2.60962 2.60962l3.66646.0153 3.66646.0153v1.06712 1.06711h-4.87864-4.87864v-8.36264zm13.82781.004v-8.36649l3.66646.00059c3.63044.0006 4.27733.0271 5.22284.21461 3.30951.65644 5.73193 3.02576 6.4383 6.29715.19467.90158.22419 2.33714.0667 3.24417-.30332 1.74694-1.06826 3.22044-2.31109 4.45183-1.22938 1.21805-2.73865 1.98856-4.605 2.35094-.63473.12324-.85196.13044-4.5723.15159l-3.9059.0222v-8.36648zm7.50104 6.1596c1.00541-.14959 1.85986-.43793 2.63191-.88814.57749-.33677 1.61443-1.36326 1.95309-1.93339 1.02319-1.72258 1.24006-3.77031.5922-5.59159-.32614-.91683-.6721-1.46214-1.36003-2.14374-.93816-.92952-2.03945-1.46435-3.59619-1.74644-.74274-.13459-5.15248-.20703-5.29841-.087-.0778.064-.089.85184-.089 6.22427 0 3.38307.018 6.16883.0399 6.19058.0675.0668 4.6601.0449 5.12657-.0245zm74.14887-6.16346v-8.36263h1.16728 1.16728v8.36263 8.36264h-1.16728-1.16728zm7.48258 0v-8.36263h4.78885 4.78885v1.03791 1.03792h-3.52445c-2.90592 0-3.53635.0142-3.5923.081-.0487.0582-.0634.78057-.0522 2.56514l.0156 2.48413 3.45696.0153 3.45695.0153v1.03744 1.03744h-3.40473c-2.80438 0-3.41668.0143-3.47256.081-.0488.0582-.0635.79602-.0522 2.62445l.0156 2.54346 3.6964.0153 3.69639.0153v1.06711 1.06712h-4.90857-4.90857v-8.36264zm18.1829 1.05275-.0152-7.3099-2.9182-.0154-2.91821-.0154v-1.03735-1.03735h7.06356 7.06355v1.03735 1.03735l-2.9182.0154-2.91821.0154-.0152 7.3099-.0152 7.30989h-1.19674-1.19674l-.0152-7.30989zm11.98686-1.05275v-8.36263h1.19721 1.19722v8.36263 8.36264h-1.19722-1.19721zm7.54244 0v-8.36263h4.75892 4.75892v1.03791 1.03792h-3.52445c-2.90591 0-3.53635.0142-3.59229.081-.0488.0582-.0635.78057-.0522 2.56514l.0156 2.48413 3.45695.0153 3.45695.0153v1.03744 1.03744h-3.40473c-2.80437 0-3.41668.0143-3.47256.081-.0488.0582-.0634.79602-.0522 2.62445l.0156 2.54346 3.69639.0153 3.6964.0153v1.06711 1.06712h-4.87865-4.87864v-8.36264zm-264.64388-25.629036c-8.45571-.473426-16.46705-3.013409-23.60946-7.485333-10.36422-6.489129-17.98361-16.760205-21.15863-28.522224-1.98777-7.3638-2.18878-15.46091-.56946-22.93935 1.63945-7.57145 5.09774-14.66679 10.07224-20.66514 5.45845-6.5819 12.62678-11.6642805 20.68924-14.6687705 7.50703-2.79750998 15.74461-3.72341998 23.85447-2.68126998 7.49651.96333998 14.71534 3.68001998 21.06182 7.92624998 2.70747 1.8114805 4.865 3.5783205 7.22554 5.9171305 2.43046 2.40808 4.21884 4.56356 6.10448 7.35756 4.41719 6.54502 7.1157 13.8608 7.98512 21.64797.22157 1.9846.27122 2.98345.27122 5.45647s-.0496 3.47186-.27122 5.45647c-1.10999 9.94189-5.21498 19.134425-11.97125 26.807893-.87409.992752-3.33443 3.430438-4.33641 4.296481-8.50562 7.351684-18.82636 11.51632-29.99018 12.101663-1.30605.06848-4.08463.06547-5.35752-.0058zm27.28107-24.443371 10.19169-10.097206v-14.20557-14.20558l-10.16135-10.06697-10.16134-10.06696-14.33662.0009-14.33663.00089-10.2212 10.11853-10.2212 10.11854-.003 14.18253-.003 14.18253 10.1943 10.066218 10.19429 10.066221 14.33621.0015 14.3362.0015 10.19169-10.097204zm-31.06722 2.312869 6.53974-6.479535 6.53974 6.479535 6.53974 6.479527h-13.07948-13.07949zm-17.13515-3.128615-9.21839-9.13366h9.23343 9.23343v9.13366c0 5.023518-.007 9.133666-.015 9.133666s-4.16332-4.110148-9.23344-9.133666zm38.04144-.0297v-9.16331h9.26336 9.26336l-9.24832 9.16331c-5.08658 5.039828-9.25509 9.163321-9.26336 9.163321-.008 0-.015-4.123493-.015-9.163321zm-27.53589-.54864v-8.55444l3.63653-.0153 3.63653-.0153.0154-3.63271.0154-3.63271h1.39189 1.39188l1.13634 1.12705 1.13633 1.12704-2.52868 2.50593-2.5287 2.50592 2.48422 2.46081c1.36633 1.35345 2.48423 2.48769 2.48423 2.52053 0 .0516-6.8509 6.848666-10.9096 10.823802l-1.36183 1.333787v-8.554439zm20.14318 2.41697-6.10549-6.04949 2.52893-2.50617 2.52893-2.50617-2.48422-2.46081c-1.36633-1.35344-2.48422-2.48789-2.48422-2.52099s.49187-.54699 1.09305-1.14197l1.09304-1.0818h1.39071 1.3907l.0154 3.60305.0154 3.60305 3.57667.0153 3.57668.0153v8.54011c0 4.697048-.007 8.540095-.0151 8.540095-.008 0-2.76254-2.72227-6.12056-6.049491zm-9.06897-8.98546-2.06453-2.04618 2.06453-2.04618c1.1355-1.1254 2.09177-2.04618 2.12506-2.04618.0333 0 .98955.92078 2.12505 2.04618l2.06454 2.04618-2.06454 2.04618c-1.1355 1.12539-2.09177 2.04617-2.12505 2.04617-.0333 0-.98956-.92078-2.12506-2.04617zm-23.58509-9.3116c3.37453-3.34357 6.17608-6.07922 6.22567-6.07922.0496 0 1.20121 1.10105 2.55915 2.44678l2.46898 2.44678v3.63245 3.63244h-8.69465-8.69464zm12.51088 3.05444v-3.02478h3.02296 3.02296v3.02478 3.02479h-3.02296-3.02296zm20.41247-.0297v-2.99513h2.93318 2.93317v2.99513 2.99513h-2.93317-2.93318zm7.12342-.60818v-3.60331l2.54419-2.52025 2.54419-2.52024 6.18046 6.12356 6.18046 6.12355h-8.72465-8.72465zm-47.82865-9.41512c0-7.12752.0203-12.95913.045-12.95913.0685 0 13.06448 12.89138 13.06448 12.95933 0 .0678-12.99631 12.95892-13.06469 12.95892-.0246 0-.0448-5.8316-.0448-12.95912zm60.33949 6.40539-6.55457-6.49442 6.56963-6.50915 6.56964-6.50915v13.00357c0 7.15197-.007 13.00357-.0151 13.00357-.008 0-2.96463-2.92249-6.56964-6.49442zm-27.53586 1.30484-.68645-.68206h1.40478 1.40477l-.68644.68206c-.37755.37514-.7008.68206-.71833.68206-.0175 0-.34078-.30692-.71833-.68206zm-11.17914-4.40338 2.49883-2.47583 1.10768 1.09628 1.10768 1.09628v1.37955 1.37954h-3.60651-3.60652zm5.97126 1.72052v-.75531l.74826.73959c.41154.40677.74826.74666.74826.75531 0 .009-.33672.0157-.74826.0157h-.74826v-.75531zm1.6308-.86128-1.6308-1.61658v-2.57996-2.57996l1.66153-1.64544 1.66153-1.64545h2.54408 2.54407l1.69067 1.67588 1.69067 1.67588v2.57999 2.57999l-1.60168 1.58612-1.60168 1.58611h-2.6638-2.66379zm9.38356.87522c.41056-.40776.7536-.74137.76233-.74137.009 0 .0159.33361.0159.74137v.74136h-.76233-.76232l.74646-.74136zm2.09512-.66787v-1.40924l1.03322-1.02245c.56828-.56235 1.06-1.02245 1.09273-1.02245.0327 0 1.1637 1.09426 2.51325 2.43169l2.45375 2.43168h-3.54648-3.54647zm-23.75003-2.2831c-1.12744-1.11742-2.0499-2.05836-2.0499-2.09098 0-.0775 4.0827-4.12137 4.16096-4.12137.0782 0 4.15967 4.04511 4.15967 4.12265 0 .0775-4.08271 4.12137-4.16096 4.12137-.0329 0-.98232-.91425-2.10977-2.03167zm28.74839-.0442-2.0346-2.01653 2.09447-2.07582c1.15196-1.14171 2.12171-2.07583 2.15499-2.07583.0333 0 .97608.90744 2.09512 2.01653l2.0346 2.01652-2.09447 2.07583c-1.15196 1.14171-2.12171 2.07583-2.15499 2.07583-.0333 0-.97608-.90744-2.09512-2.01653zm-20.05365-1.42376-.65677-.65275.67276-.66656.67275-.66656v1.31931c0 .72561-.007 1.3193-.016 1.3193s-.31152-.29373-.67275-.65274zm15.05529-.59276v-1.27293l.59861.59087c.32923.32498.59861.63191.59861.68206 0 .0502-.26938.35708-.59861.68206l-.59861.59087zm1.03196-1.91335-1.03196-1.0237v-1.49649-1.49648l3.60661-.0153 3.6066-.0153.0154-3.5734.0154-3.57339h8.60446 8.60446l-6.1206 6.06424-6.12059 6.06424-2.48434-2.46092-2.48433-2.46093-2.52937 2.50556c-1.39116 1.37806-2.55648 2.50556-2.58962 2.50556-.0331 0-.52462-.46067-1.09219-1.02371zm-33.92538-5.08517-6.10556-6.04957h8.66425 8.66424l.0154 3.54375.0154 3.54374 3.63654.0153 3.63653.0153v1.43719 1.4372l-1.0619 1.05334c-.58405.57934-1.08901 1.05335-1.12213 1.05335-.0331 0-1.18497-1.11416-2.55966-2.47591l-2.49945-2.47591-2.49944 2.47591c-1.37469 1.36175-2.53979 2.47591-2.58909 2.47591s-2.83713-2.72231-6.1952-6.04957zm30.70851 1.89791-.83644-.83034h.85221.85221v.83034c0 .45668-.007.83033-.0158.83033-.009 0-.39216-.37365-.85221-.83033zm-10.92457-.0593v-.77103h.82223.82221l-.77646.77103c-.42705.42406-.79705.77102-.82222.77102-.0252 0-.0458-.34696-.0458-.77102zm-7.30299-4.95235v-2.93582h3.02296 3.02296v2.93582 2.93582h-3.02296-3.02296zm7.2885-.60792-.0154-3.54374-3.63653-.0153-3.63653-.0153v-8.52524-8.52525l6.15052 6.0939 6.15053 6.0939-2.48379 2.46146-2.4838 2.46146 2.46899 2.44678c1.35793 1.34573 2.46898 2.47364 2.46898 2.50646 0 .0328-.46495.51979-1.03322 1.08214l-1.03322 1.02245h-1.45053-1.45053l-.0154-3.54374zm5.19244 2.95065c.328-.3262.63778-.5931.6884-.5931.0506 0 .36039.2669.68839.5931l.59637.59309h-1.28476-1.28476zm2.61826-.43061c-.56757-.56304-1.03195-1.05-1.03195-1.08214 0-.0321 1.11104-1.15947 2.46898-2.5052l2.46898-2.44679-2.4838-2.46146-2.48379-2.46146 6.18046-6.12355 6.18046-6.12355v8.49605 8.49605h-3.57967c-2.70437 0-3.59723.0174-3.6515.0712-.0543.0538-.0718.9384-.0718 3.61787v3.54671h-1.48219-1.48219l-1.03196-1.0237zm5.31327-1.94177v-2.96548h2.99304 2.99303v2.96548 2.96547h-2.99303-2.99304zm-9.32363-2.03168c-1.09451-1.0848-1.99003-1.99906-1.99003-2.03168 0-.0326.91363-.96422 2.03028-2.07023l2.03027-2.01093 2.04014 1.9816c1.12207 1.08988 2.04019 2.02178 2.04025 2.0709 0 .11638-3.95345 4.03271-4.07108 4.03271-.0494 0-.98531-.88757-2.07983-1.97237zm-21.59439-11.25364c5.07012-5.02351 9.22516-9.13366 9.23344-9.13366.008 0 .015 4.11015.015 9.13366v9.13367h-9.23343-9.23343l9.21839-9.13367zm38.16116-.10372v-9.11876l9.18861 9.10386c5.05373 5.00713 9.18861 9.11057 9.18861 9.11877 0 .008-4.13488.0149-9.18861.0149h-9.18861zm-21.08601-3.02495c-3.61328-3.58013-6.5696-6.52929-6.5696-6.5537 0-.0244 5.94635-.0444 13.21413-.0444h13.21413l-6.61439 6.5537c-3.63792 3.60453-6.62796 6.5537-6.64453 6.5537-.0166 0-2.98646-2.9292-6.59974-6.50932z"/></svg>