<?xml version="1.0" encoding="utf-8"?>
<!-- Generator: Adobe Illustrator 22.1.0, SVG Export Plug-In . SVG Version: 6.00 Build 0)  -->
<svg version="1.1" id="Layer_1" xmlns="http://www.w3.org/2000/svg" xmlns:xlink="http://www.w3.org/1999/xlink" x="0px" y="0px"
	 viewBox="0 0 197.9 31" style="enable-background:new 0 0 197.9 31;" xml:space="preserve">
<style type="text/css">
	.st0{fill:#0071BC;}
</style>
<g>
	<path class="st0" d="M48.3,9.8h3.2v12.7h-3.2v-1c-0.1,0.1-0.1,0.1-0.2,0.2s-0.1,0.1-0.2,0.2c-0.3,0.3-0.8,0.5-1.4,0.8
		c-0.4,0.2-1,0.3-1.6,0.3c-0.7,0-1.3-0.1-1.8-0.3c-0.6-0.2-1-0.4-1.5-0.7c-0.5-0.4-0.8-0.9-1.1-1.6c-0.2-0.7-0.4-1.5-0.4-2.4v-8h3.2
		V17c0,1.9,0.2,3,0.5,3.3c0.5,0.4,1,0.6,1.5,0.6c0.2,0,0.4,0,0.7-0.1c0.3-0.1,0.5-0.2,0.8-0.4c0.2-0.1,0.4-0.3,0.6-0.6
		c0.2-0.2,0.4-0.6,0.6-0.9c0.3-0.6,0.4-1.5,0.4-2.7V9.8z"/>
	<path class="st0" d="M53.5,22.5c0-0.2,0-0.5,0.1-0.7s0-0.6,0-0.9c0-0.5,0-0.8,0-1.1c0-0.3,0-0.5,0-0.6c0-0.2,0-0.3,0-0.3
		c0-0.1,0-0.1,0-0.1V4.2h3.2v6.6c0.1-0.1,0.1-0.1,0.2-0.2s0.1-0.1,0.2-0.2c0.2-0.1,0.4-0.3,0.6-0.4c0.3-0.1,0.5-0.2,0.8-0.4h0
		c0.5-0.2,1.1-0.3,1.7-0.3c0.5,0,1.1,0.1,1.6,0.2c0.5,0.1,0.9,0.3,1.3,0.6c0.5,0.3,0.9,0.7,1.2,1.1c0.4,0.4,0.6,0.8,0.8,1.3
		c0.2,0.6,0.4,1.1,0.5,1.7c0.1,0.6,0.2,1.2,0.2,1.8c0,0.9-0.1,1.8-0.4,2.6c-0.3,0.8-0.6,1.6-1.1,2.2c-0.5,0.6-1.1,1.1-1.8,1.4
		c-0.7,0.3-1.6,0.5-2.5,0.5c-0.7,0-1.2-0.1-1.8-0.2c-0.5-0.2-1-0.4-1.4-0.7c-0.1-0.1-0.1-0.1-0.2-0.2s-0.1-0.1-0.2-0.2
		c0,0.2,0,0.4,0,0.5c0,0.2,0,0.3-0.1,0.4H53.5z M56.9,16.2c0,0.7,0.1,1.4,0.2,2c0.1,0.6,0.3,1.1,0.6,1.5l0,0c0.3,0.4,0.6,0.7,1,1
		c0.4,0.2,0.7,0.4,1.1,0.4c0.8,0,1.5-0.4,2.1-1.2c0.6-0.7,0.9-1.9,0.9-3.6c0-2-0.3-3.2-0.9-3.8c-0.7-0.7-1.4-1.1-2.1-1.1
		c-0.5,0-1,0.2-1.6,0.6c-0.4,0.3-0.8,0.9-1.1,1.7C57,14.3,56.9,15.2,56.9,16.2z"/>
	<path class="st0" d="M67.7,7.2V4.9h3.2v2.3H67.7z M67.7,9.8h3.2v12.7h-3.2V9.8z"/>
	<path class="st0" d="M81.8,9.8h3.2v17.6h-3.2v-5.8l-0.4,0.3c-0.3,0.2-0.8,0.5-1.5,0.7h0c-0.3,0.1-0.5,0.2-0.8,0.2
		c-0.3,0-0.6,0.1-0.9,0.1c-0.6,0-1.1-0.1-1.6-0.2s-0.9-0.3-1.3-0.6c-0.5-0.3-0.9-0.7-1.2-1.1c-0.4-0.4-0.6-0.8-0.8-1.3
		c-0.2-0.6-0.4-1.1-0.5-1.7c-0.1-0.6-0.2-1.2-0.2-1.8c0-0.9,0.1-1.8,0.4-2.6c0.3-0.8,0.6-1.6,1.1-2.2c0.5-0.6,1.1-1.1,1.8-1.4
		c0.7-0.3,1.6-0.5,2.5-0.5c0.6,0,1.2,0.1,1.7,0.2s1,0.4,1.4,0.7c0.1,0,0.1,0.1,0.2,0.1c0.1,0.1,0.1,0.1,0.2,0.2V9.8z M81.8,16.2
		c0-1.5-0.3-2.6-0.8-3.4c-0.6-0.9-1.3-1.3-2.1-1.3c-0.8,0-1.5,0.4-2.1,1.2c-0.6,0.7-0.9,1.9-0.9,3.6c0,1.9,0.3,3.2,0.9,3.9
		c0.7,0.7,1.4,1.1,2,1.1c0.5,0,1-0.2,1.5-0.6c0.2-0.1,0.4-0.4,0.6-0.7s0.4-0.7,0.5-1.1c0.1-0.4,0.2-0.8,0.3-1.2
		C81.7,17,81.8,16.6,81.8,16.2z"/>
	<path class="st0" d="M95,9.8h3.2v12.7H95v-1c-0.1,0.1-0.1,0.1-0.2,0.2c-0.1,0.1-0.1,0.1-0.2,0.2c-0.3,0.3-0.8,0.5-1.4,0.8
		c-0.4,0.2-1,0.3-1.6,0.3c-0.7,0-1.3-0.1-1.8-0.3c-0.6-0.2-1-0.4-1.5-0.7c-0.5-0.4-0.8-0.9-1.1-1.6s-0.4-1.5-0.4-2.4v-8H90V17
		c0,1.9,0.2,3,0.5,3.3c0.5,0.4,1,0.6,1.5,0.6c0.2,0,0.4,0,0.7-0.1c0.3-0.1,0.5-0.2,0.8-0.4c0.2-0.1,0.4-0.3,0.6-0.6
		c0.2-0.2,0.4-0.6,0.6-0.9c0.3-0.6,0.4-1.5,0.4-2.7V9.8z"/>
	<path class="st0" d="M100.4,7.2V4.9h3.2v2.3H100.4z M100.4,9.8h3.2v12.7h-3.2V9.8z"/>
	<path class="st0" d="M114.5,22.4c-0.6,0.2-1.2,0.3-1.7,0.4c-0.5,0.1-0.9,0.1-1.2,0.1c-0.5,0-0.9,0-1.3-0.1
		c-0.4-0.1-0.8-0.2-1.1-0.4c-0.3-0.2-0.7-0.4-0.9-0.6s-0.5-0.5-0.7-0.8c-0.2-0.3-0.3-0.8-0.4-1.2c-0.1-0.5-0.1-1-0.1-1.7v-6.4h-2.2
		V9.8h2.2v-3h3.2v3h3.7v1.9h-3.7v5.8c0,1.1,0.1,1.9,0.2,2.3h0c0.1,0.2,0.2,0.4,0.3,0.6c0.1,0.2,0.2,0.3,0.3,0.3
		c0.2,0.1,0.4,0.2,0.5,0.2s0.4,0.1,0.5,0.1c0.3,0,1.1-0.2,2.4-0.6V22.4z"/>
	<path class="st0" d="M120.5,21.9c-0.9-2-1.8-4-2.7-6c-0.9-2-1.8-4-2.7-6h3.3l3.7,8.2l1.2-3c0.4-0.9,0.7-1.8,1.1-2.7
		c0.4-0.9,0.8-1.8,1.1-2.6h3.1l-5.3,12.7c-0.3,0.8-0.7,1.4-1,2s-0.6,1-0.9,1.4c-0.4,0.5-1,0.9-1.7,1.2c-0.5,0.2-1.3,0.4-2.4,0.4
		h-2.1v-1.9h1.7c0.5,0,0.9-0.1,1.2-0.2c0.4-0.1,0.7-0.4,1-0.7c0.2-0.2,0.5-1,1.1-2.2L120.5,21.9z"/>
	<path class="st0" d="M140.5,27.4h-3.2V9.8h3.2v0.9c0.1,0,0.1-0.1,0.2-0.1c0.1-0.1,0.1-0.1,0.2-0.1c0.3-0.2,0.8-0.5,1.5-0.7h0
		c0.5-0.2,1.1-0.3,1.7-0.3c0.6,0,1.1,0.1,1.6,0.2c0.5,0.1,0.9,0.3,1.3,0.6c0.5,0.3,0.9,0.7,1.2,1.1s0.6,0.8,0.8,1.3
		c0.2,0.6,0.4,1.1,0.5,1.7c0.1,0.6,0.2,1.2,0.2,1.8c0,0.9-0.1,1.8-0.4,2.6c-0.3,0.8-0.6,1.6-1.1,2.2c-0.5,0.6-1.1,1.1-1.8,1.4
		c-0.7,0.3-1.6,0.5-2.5,0.5c-0.6,0-1.2-0.1-1.8-0.2s-1-0.4-1.4-0.7c-0.1,0-0.1-0.1-0.1-0.1c0,0,0,0-0.1,0c0,0,0,0-0.1,0
		c0,0-0.1-0.1-0.1-0.1V27.4z M140.5,16.2c0,0.7,0.1,1.4,0.2,2c0.1,0.6,0.3,1.1,0.6,1.5l0,0c0.3,0.4,0.6,0.7,1,1
		c0.4,0.2,0.8,0.4,1.2,0.4c0.8,0,1.5-0.4,2.1-1.2c0.6-0.7,0.9-1.9,0.9-3.6c0-1.9-0.3-3.2-0.9-3.8c-0.7-0.7-1.4-1.1-2-1.1
		c-0.5,0-1,0.2-1.5,0.6c-0.2,0.1-0.4,0.4-0.6,0.7s-0.4,0.7-0.5,1.1v0c-0.1,0.4-0.2,0.8-0.3,1.2C140.6,15.2,140.5,15.7,140.5,16.2z"
		/>
	<path class="st0" d="M154.5,22.5h-3.2V9.8h3.2v1c0.2-0.2,0.5-0.4,0.8-0.6c0.3-0.2,0.6-0.3,0.9-0.4h0c0.2-0.1,0.5-0.2,0.8-0.2
		s0.6-0.1,0.9-0.1c0.3,0,0.6,0,0.8,0.1s0.6,0.1,0.8,0.2v2.6c-0.5-0.3-0.9-0.4-1.3-0.6c-0.4-0.1-0.6-0.2-0.8-0.2
		c-0.6,0-1.2,0.3-1.9,1c-0.6,0.6-0.9,1.8-0.9,3.6V22.5z"/>
	<path class="st0" d="M169.2,19.1h3.2v0.2c0,0.5-0.3,1.1-0.8,1.8c-0.4,0.5-1.1,1-2,1.3c-0.7,0.3-1.6,0.5-2.7,0.5
		c-2.2,0-3.8-0.6-4.8-1.9c-1.1-1.3-1.7-2.9-1.7-4.7c0-1.9,0.6-3.5,1.8-4.9c1.1-1.3,2.7-1.9,4.6-1.9c0.5,0,1,0.1,1.5,0.2
		s0.9,0.3,1.4,0.5c0.4,0.2,0.8,0.5,1.1,0.8c0.3,0.3,0.6,0.7,0.9,1.1c0.2,0.5,0.4,1,0.5,1.6s0.2,1.3,0.2,2v0.8h-8.9
		c0,0.7,0.1,1.3,0.3,1.8s0.4,1,0.7,1.4c0.4,0.4,0.7,0.7,1.2,0.9s0.9,0.3,1.4,0.3c0.3,0,0.7,0,0.9-0.1c0.3-0.1,0.5-0.2,0.7-0.4
		c0.1-0.1,0.2-0.3,0.3-0.5c0.1-0.2,0.1-0.4,0.1-0.6V19.1z M169.4,14.8v-0.2c0-0.4-0.1-0.9-0.2-1.3c-0.1-0.4-0.3-0.7-0.5-1
		s-0.5-0.5-0.8-0.7c-0.3-0.2-0.7-0.3-1.2-0.3c-0.4,0-0.7,0.1-1.1,0.3c-0.3,0.2-0.6,0.5-0.9,0.8c-0.2,0.3-0.5,0.7-0.6,1.1
		s-0.3,0.8-0.4,1.2H169.4z"/>
	<path class="st0" d="M173.5,19h3.2v0.1c0,0.6,0.1,1,0.4,1.3v0c0.4,0.3,1,0.5,1.7,0.5c0.7,0,1.3-0.2,1.8-0.6
		c0.4-0.3,0.6-0.8,0.6-1.4c0-0.8-0.4-1.3-1.2-1.6l-1.1-0.3l-0.7-0.2c-0.2-0.1-0.5-0.1-0.7-0.2c-0.2-0.1-0.5-0.2-0.7-0.2
		c-1.9-0.7-2.8-1.7-2.8-3.1c0-0.5,0.1-0.9,0.3-1.4s0.6-0.9,1-1.3c0.4-0.4,1-0.6,1.6-0.8s1.4-0.3,2.3-0.3c1.8,0,3,0.3,3.7,1
		c0.8,0.7,1.2,1.5,1.2,2.2v0.1h-3.2v-0.1c0-0.4-0.2-0.7-0.5-0.9s-0.8-0.3-1.3-0.3c-0.3,0-0.6,0-0.9,0.1c-0.3,0.1-0.5,0.2-0.7,0.4h0
		c-0.3,0.2-0.5,0.6-0.5,1.2c0,0.2,0,0.4,0.1,0.5c0.1,0.2,0.1,0.3,0.3,0.4c0.1,0.1,0.3,0.2,0.5,0.3c0.2,0.1,0.4,0.2,0.7,0.3h0l1,0.3
		l0.8,0.2c0.5,0.1,0.9,0.3,1.3,0.4c0.3,0.1,0.6,0.2,0.7,0.2c0.2,0.1,0.4,0.2,0.5,0.3c0.1,0.1,0.3,0.1,0.4,0.2c0.4,0.3,0.8,0.7,1,1.1
		c0.2,0.4,0.3,0.8,0.3,1.3c0,1.1-0.5,2.1-1.4,3.1c-0.9,0.8-2.2,1.2-4.1,1.2c-0.6,0-1.1,0-1.6-0.1c-0.5-0.1-0.9-0.2-1.3-0.4
		c-0.4-0.2-0.7-0.3-1-0.6c-0.3-0.2-0.5-0.5-0.7-0.7c-0.5-0.6-0.7-1.3-0.7-1.9V19z"/>
	<path class="st0" d="M185.2,19h3.2v0.1c0,0.6,0.1,1,0.4,1.3v0c0.4,0.3,1,0.5,1.7,0.5c0.7,0,1.3-0.2,1.8-0.6
		c0.4-0.3,0.6-0.8,0.6-1.4c0-0.8-0.4-1.3-1.2-1.6l-1.1-0.3l-0.7-0.2c-0.2-0.1-0.5-0.1-0.7-0.2c-0.2-0.1-0.5-0.2-0.7-0.2
		c-1.9-0.7-2.8-1.7-2.8-3.1c0-0.5,0.1-0.9,0.3-1.4s0.6-0.9,1-1.3c0.4-0.4,1-0.6,1.6-0.8s1.4-0.3,2.3-0.3c1.8,0,3,0.3,3.7,1
		c0.8,0.7,1.2,1.5,1.2,2.2v0.1h-3.2v-0.1c0-0.4-0.2-0.7-0.5-0.9s-0.8-0.3-1.3-0.3c-0.3,0-0.6,0-0.9,0.1c-0.3,0.1-0.5,0.2-0.7,0.4h0
		c-0.3,0.2-0.5,0.6-0.5,1.2c0,0.2,0,0.4,0.1,0.5c0.1,0.2,0.1,0.3,0.3,0.4c0.1,0.1,0.3,0.2,0.5,0.3c0.2,0.1,0.4,0.2,0.7,0.3h0l1,0.3
		l0.8,0.2c0.5,0.1,0.9,0.3,1.3,0.4c0.3,0.1,0.6,0.2,0.7,0.2c0.2,0.1,0.4,0.2,0.5,0.3c0.1,0.1,0.3,0.1,0.4,0.2c0.4,0.3,0.8,0.7,1,1.1
		c0.2,0.4,0.3,0.8,0.3,1.3c0,1.1-0.5,2.1-1.4,3.1c-0.9,0.8-2.2,1.2-4.1,1.2c-0.6,0-1.1,0-1.6-0.1c-0.5-0.1-0.9-0.2-1.3-0.4
		c-0.4-0.2-0.7-0.3-1-0.6c-0.3-0.2-0.5-0.5-0.7-0.7c-0.5-0.6-0.7-1.3-0.7-1.9V19z"/>
</g>
<g>
	<path d="M0.9,29.3v-0.8L1,28.4c1.4,0,2.2-0.1,2.3-0.1c0.3,0,0.5-0.1,0.7-0.2c0.1-0.1,0.2-0.2,0.2-0.4c0.1-0.4,0.2-1.3,0.2-2.6
		s0-3.2,0-5.7c0-2.5,0-6,0-10.6c0-2.1,0-3.5-0.1-4.3S4.2,3.2,4.1,3C4.1,3,4,2.9,3.9,2.8C3.8,2.7,3.6,2.7,3.3,2.6L1,2.5L0.9,2.4V1.5
		L1,1.4c1.4,0,2.4,0.1,3,0.1c0.6,0,1.6,0,2.8-0.1L7,1.7C7,2.8,6.9,3.7,6.9,4.4c0,1.5,0,4.9,0,10.2c0,5.2,0,8.4,0,9.8
		c0,1.8,0.1,3.5,0.2,5l-0.2,0.1c-1.2,0-2.2-0.1-2.9-0.1c-0.6,0-1.6,0-3,0.1L0.9,29.3z"/>
</g>
<g>
	<path d="M26.4,22.2V23c-1.3-0.1-2.2-0.1-2.9-0.1c-0.7,0-1.5,0-2.2,0.1c0.1-0.8,0.1-1.7,0.1-2.7c-0.6,0.5-1.3,1.1-2.1,1.9
		c-0.2,0.2-0.4,0.3-0.5,0.4c-0.4,0.2-0.8,0.4-1.3,0.5s-0.9,0.2-1.5,0.2c-0.8,0-1.5-0.1-2-0.3s-1-0.5-1.4-1c-0.3-0.3-0.5-0.7-0.7-1.3
		s-0.2-1.1-0.2-1.9c0-0.3,0-0.7,0-1s0-0.6,0-0.9v-2.5c0-0.3,0-0.9,0-1.9c0-0.6-0.1-1.1-0.1-1.3c0-0.1-0.1-0.2-0.2-0.2
		c-0.1-0.1-0.4-0.1-0.8-0.1c-0.5,0-1,0-1.3,0v-0.8c2.1-0.2,3.6-0.6,4.6-1.1c0.2-0.1,0.3-0.1,0.4-0.1c0.1,0,0.1,0,0.2,0.1
		s0.1,0.1,0.1,0.2c0,0.1,0,0.2,0,0.3c0,0.3-0.1,0.9-0.1,1.8c-0.1,1.6-0.1,2.7-0.1,3.3v2.9c0,1.2,0.1,2,0.2,2.5s0.5,0.9,0.9,1.2
		c0.5,0.3,1,0.4,1.7,0.4c0.5,0,0.9-0.1,1.4-0.2s0.9-0.4,1.3-0.7c0.3-0.2,0.6-0.5,0.8-0.9c0.2-0.3,0.4-0.5,0.4-0.7s0.1-0.4,0.1-0.7
		c0-0.9,0.1-1.7,0.1-2.6v-1.2c0-0.3,0-0.9,0-1.9c0-0.6-0.1-1.1-0.1-1.3c0-0.1-0.1-0.2-0.2-0.2C21,11.1,20.7,11,20.3,11
		c-0.5,0-1,0-1.3,0v-0.8c2.1-0.2,3.6-0.6,4.6-1.1C23.8,9,23.9,8.9,24,8.9c0.1,0,0.1,0,0.2,0.1s0.1,0.1,0.1,0.2c0,0.1,0,0.2,0,0.3
		c0,0.3-0.1,0.9-0.1,1.9C24.1,13,24,14,24,14.6v2l0,2c0,1.2,0,1.9,0.1,2.1c0,0.5,0.1,0.8,0.2,1.1c0,0.1,0.1,0.2,0.2,0.2
		s0.2,0.1,0.4,0.2C24.9,22.2,25.4,22.2,26.4,22.2z"/>
</g>
<g>
	<path d="M35.3,28.5v0.8h-0.1c-1.4,0-2.4,0.1-3,0.1c-0.7,0-1.6,0-2.9,0.1l-0.2-0.1c0.1-1.3,0.1-2.6,0.1-3.9s0-4.6,0-10
		c0-5.3,0-9,0-11c0-0.7-0.1-1.6-0.1-2.7l0.2-0.2c1.2,0,2.2,0.1,2.9,0.1c0.6,0,1.6,0,3-0.1l0.1,0.1v0.8l-0.1,0.1l-2.4,0.2
		c-0.3,0-0.5,0.1-0.6,0.2C32.2,2.9,32.1,3,32,3.1c-0.1,0.2-0.2,0.7-0.2,1.5s-0.1,2.9-0.1,6.3c0,3.6,0,6.2,0,7.7c0,1.2,0,2.6,0,4.3
		c0,2.1,0,3.4,0.1,3.8s0.1,0.7,0.1,1.1c0.1,0.2,0.2,0.3,0.3,0.4c0.1,0.1,0.3,0.2,0.6,0.2c0.1,0,0.9,0,2.4,0.1L35.3,28.5z"/>
</g>
</svg>
