<svg xmlns="http://www.w3.org/2000/svg" fill="none" viewBox="0 0 494 534">
  <path fill="#282624" d="M25.035 372.422v133.397h45.737c35.826 0 54.883-17.723 54.883-54.121v-25.155c0-36.398-19.057-54.121-54.883-54.121H25.035ZM50.19 395.29h20.963c21.534 0 29.347 11.053 29.347 30.491v26.679c0 19.438-7.813 30.491-29.347 30.491H50.19V395.29ZM140.94 425.018v28.204c0 35.065 20.772 55.265 54.884 55.265 34.111 0 54.883-20.2 54.883-55.265v-28.204c0-34.111-20.772-55.264-54.883-55.264-34.112 0-54.884 21.153-54.884 55.264Zm25.155-1.143c0-18.104 10.482-31.634 29.729-31.634 18.675 0 29.728 12.768 29.728 31.634v30.491c0 18.485-8.956 31.634-29.728 31.634-20.2 0-29.729-12.387-29.729-31.634v-30.491ZM294.746 372.422l-36.97 133.397h25.917l8.004-29.729h46.498l8.004 29.729h25.917l-36.97-133.397h-40.4Zm2.859 80.8 16.198-59.838h2.287l16.198 59.838h-34.683ZM468.07 372.422h-25.155V465.8c0 12.577-6.479 19.819-17.723 19.819-12.005 0-18.866-7.432-18.866-19.819v-12.578h-25.155V465.8c0 26.87 17.342 42.687 44.784 42.687 26.107 0 42.115-15.055 42.115-42.687v-93.378ZM25 316.305v1.772h9.743v-1.624c0-6.717 4.503-9.743 9.817-9.743 5.315 0 8.784 3.026 8.784 8.119 0 6.053-4.429 8.489-11.81 10.482-9.522 2.583-16.239 7.159-16.239 16.534v8.857h37.497v-8.857H35.038v-.886c0-4.798 3.839-6.348 11.072-8.193 10.85-2.731 16.977-7.455 16.977-17.642 0-10.629-8.636-17.124-18.674-17.124C33.93 298 25 304.2 25 316.305ZM68.576 318.815v12.105c0 13.582 7.972 20.815 19.782 20.815 11.81 0 19.781-7.233 19.781-20.815v-12.105c0-13.139-7.971-20.815-19.781-20.815-11.81 0-19.782 7.676-19.782 20.815Zm9.743-.443c0-6.864 3.69-11.662 10.038-11.662 6.127 0 10.039 4.502 10.039 11.662v12.991c0 7.012-3.1 11.663-10.038 11.663-6.717 0-10.039-4.355-10.039-11.663v-12.991ZM132.736 299.033l18.158 34.176v17.493h9.743v-17.493l18.158-34.176h-11.072l-11.293 21.996h-1.329l-11.293-21.996h-11.072ZM184.132 299.033v51.669h34.397v-8.857h-24.654v-12.77h22.144v-8.857h-22.144v-12.327h24.211v-8.858h-33.954ZM236.521 299.033l-14.32 51.669h10.039l3.1-11.515h18.01l3.1 11.515h10.039l-14.32-51.669h-15.648Zm1.107 31.297 6.274-23.177h.886l6.274 23.177h-13.434ZM311.626 315.346c0-9.817-6.791-16.239-16.534-16.239h-22.734v51.595h9.743v-19.117h8.636l9.522 19.117h10.777l-10.482-19.929c6.643-1.993 11.072-7.603 11.072-15.427Zm-29.525-7.381h12.032c4.65 0 7.75 2.878 7.75 7.381 0 4.502-3.1 7.381-7.75 7.381h-12.032v-14.762ZM336.959 298c-10.038 0-17.936 5.757-17.936 14.984 0 9.374 6.348 13.065 17.051 15.427l.664.147c6.791 1.477 10.629 2.953 10.629 7.455 0 3.839-2.953 7.16-9.227 7.16-7.824 0-11.441-4.281-11.441-10.629v-1.328h-9.595v1.623c0 12.106 8.119 18.896 20.741 18.896 10.998 0 19.117-5.831 19.117-16.238 0-9.374-6.274-13.139-16.903-15.501l-.664-.148c-6.2-1.402-10.776-2.288-10.776-7.159 0-3.543 3.173-6.127 8.34-6.127 5.905 0 9.67 2.584 9.67 8.489v1.55h9.448v-2.215c0-10.333-8.046-16.386-19.118-16.386ZM384.646 319.406v10.924c0 13.581 8.045 21.405 21.257 21.405 13.213 0 21.258-7.824 21.258-21.405v-10.924c0-13.213-8.045-21.406-21.258-21.406-13.212 0-21.257 8.193-21.257 21.406Zm9.743-.443c0-7.012 4.059-12.253 11.514-12.253 7.234 0 11.515 4.945 11.515 12.253v11.81c0 7.159-3.469 12.253-11.515 12.253-7.824 0-11.514-4.798-11.514-12.253v-11.81ZM435.114 299.033v51.669h9.743v-21.479h21.701v-8.858h-21.701v-12.474h23.177v-8.858h-32.92Z"/>
  <path fill="#3A5959" d="M468.072 148.775C468.072 80.415 412.656 25 344.297 25v247.55c68.359 0 123.775-55.416 123.775-123.775Z"/>
  <path fill="#47A178" d="M220.522 148.775C220.522 80.415 275.938 25 344.297 25v247.55c-68.359 0-123.775-55.416-123.775-123.775Z"/>
  <path fill="#A3C386" d="M164.705 201.17c-36.374 0-65.862 29.645-65.862 66.214h131.724c0-36.569-29.487-66.214-65.862-66.214ZM41.082 30h82.415v72.554H41.082z"/>
  <path fill="#47A178" d="M43.9 201.17h118.34v66.214H43.9z"/>
  <path fill="#3A5959" d="M198.869 105.371c0-41.626-33.745-75.371-75.372-75.371v150.743c41.627 0 75.372-33.745 75.372-75.372Z"/>
  <path fill="#3A5959" d="M43.016 180.563c-24.021 24.021-24.021 62.966 0 86.987l86.987-86.987c-24.021-24.021-62.967-24.021-86.987 0Z"/>
  <path fill="#47A178" d="M137.586 105.019c0 26.649-21.604 48.252-48.252 48.252-26.649 0-48.252-21.603-48.252-48.252s21.603-48.252 48.252-48.252c26.648 0 48.252 21.603 48.252 48.252Z"/>
</svg>
