<svg width="48" height="48" viewBox="0 0 48 48" fill="none" xmlns="http://www.w3.org/2000/svg">
<path fill-rule="evenodd" clip-rule="evenodd" d="M24.2222 0.5C11.1208 0.5 0.5 11.1208 0.5 24.2222C0.5 37.3236 11.1208 47.9444 24.2222 47.9444C37.3236 47.9444 47.9444 37.3236 47.9444 24.2222C47.9444 11.1208 37.3236 0.5 24.2222 0.5ZM3.5 24.2222C3.5 12.7777 12.7777 3.5 24.2222 3.5C35.6668 3.5 44.9444 12.7777 44.9444 24.2222C44.9444 35.6668 35.6668 44.9444 24.2222 44.9444C12.7777 44.9444 3.5 35.6668 3.5 24.2222ZM22.9438 14.7252C25.0271 14.2633 27.2052 14.5163 29.1272 15.4434C31.0492 16.3704 32.6031 17.9176 33.5385 19.8355C33.9017 20.5801 34.7997 20.8893 35.5443 20.5261C36.2889 20.163 36.5981 19.265 36.2349 18.5204C35.0041 15.9968 32.9595 13.9611 30.4306 12.7413C27.9016 11.5215 25.0357 11.1886 22.2945 11.7963C19.5533 12.404 17.0966 13.9169 15.3201 16.0912C13.5436 18.2655 12.5509 20.9745 12.5019 23.7818C12.4529 26.5892 13.3505 29.3312 15.05 31.5662C16.7495 33.8011 19.1519 35.3988 21.8702 36.1018C24.5885 36.8048 27.4644 36.5722 30.0343 35.4414C32.6043 34.3106 34.7187 32.3475 36.0368 29.8684C36.4258 29.1369 36.1481 28.2287 35.4166 27.8398C34.6852 27.4508 33.7769 27.7285 33.388 28.46C32.3862 30.3441 30.7792 31.836 28.8261 32.6954C26.8729 33.5549 24.6873 33.7317 22.6214 33.1974C20.5555 32.6631 18.7296 31.4489 17.438 29.7503C16.1464 28.0517 15.4642 25.9678 15.5014 23.8342C15.5387 21.7006 16.2932 19.6418 17.6433 17.9893C18.9934 16.3368 20.8605 15.1871 22.9438 14.7252Z" fill="black"/>
</svg>
