<svg height="163.32874mm" viewBox="0 0 499.97281 578.72386" width="141.10344mm" xmlns="http://www.w3.org/2000/svg"><g transform="matrix(.20840885 0 0 .20840885 82.66388 129.428)"><path d="m-396.64285 778.07648v-1400h1199.5 1199.50005v1400 1400.00002h-1199.50005-1199.5z" fill="#fdfdfd"/><path d="m-395.39285 1757.5807c-1.84047-2.0904-1.84047-1974.09035 0-1975.82565.89345-.8424 8.95146-1.19141 28.25-1.22359 30.05599-.0501 44.7002-1.44682 69.5-6.62865 78.47572-16.39722 151.26929-62.25035 200.5478-126.32633 37.73243-49.06281 60.21656-102.96056 69.11623-165.68166 2.54273-17.92007 2.55714-68.03426.0249-86.58824-.99609-7.29845-1.52826-14.16095-1.18261-15.25.62581-1.97175 4.90906-1.9801 1016.06108-1.9801h1015.43265v1189.0714c0 1029.19532-.1922 1189.26352-1.4287 1190.50002-2.1514 2.1514-2394.4271 2.0843-2396.32135-.067zm1310.6217-1541.0627c12.1082-1.77549 30.3945-7.53791 41.2496-12.99868 61.05605-30.71497 91.32915-99.45227 72.46705-164.54153-13.0748-45.11835-50.23495-82.3997-95.05855-95.3687-19.2002-5.55529-43.2348-7.12581-62.0298-4.05329-66.8877 10.93452-117.1388 68.84559-117.79 135.74503-.052 5.34839.87589 13.398576 1.15499 13.677646.279.27907 3.99787-.620564 8.91187-1.416054 7.0028-1.1336 9.23611-1.713848 10.13691-.761888.632.66802 2.07603 2.736316 3.53283 7.576756 3.4797 11.56205 9.9491 24.95881 17.7223 36.69919 8.1669 12.33493 28.0383 32.37124 40.3311 40.66576 16.2716 10.97921 37.7519 20.76409 56.7342 25.84409 12.0064 3.21312 7.9805 2.23499 6.0706 10.33767-.834 3.53824-1.84109 7.26073-1.84919 7.94823-.019 1.59707 5.57839 2.52821 18.41609.64577zm-482.8725-268.95067c96.75807-13.93099 178.5319-86.30828 204.4793-180.98286 5.9525-21.71887 7.6924-34.41785 8.2218-60.00799.6773-32.73185-2.3488-54.80393-11.3472-82.76823-26.0891-81.07639-92.95577-144.23109-174.99752-165.28278-37.43652-9.60611-76.96127-10.42543-115.35558-2.39124-74.97799 15.68949-141.75314 69.3123-174.20843 139.89553-21.0771 45.83816-27.74302 98.07894-18.70667 146.60422 1.13252 6.08162 2.36801 11.55729 2.74554 12.16815.49049.79363 5.83061 4.16449 16.45595 2.42516 15.40783-2.52219 16.69635-6.08831 16.72648-2.27837.007.89516 2.00369 7.55462 4.43691 14.79881 23.11174 68.80835 81.21589 119.92929 161.24002 141.86146 7.00288 1.91928 10.39641 4.002463 10.93162 4.537673.63081.63081-1.04954 4.990619-3.11902 13.914149-1.75584 7.57116-4.31335 14.052611-4.30885 14.678131.005.69664 8.77801 2.576147 15.05645 3.309957 5.6375.65889 10.925 1.36672 11.75 1.57296 3.43031.8575 40.29418-.65743 49.9992-2.05473z" fill="#cce3e0"/><path d="m692.35715 2154.5048c-16.7708-2.1253-23.9392-4.1529-34.4648-9.7485-20.654-10.9802-30.1863-35.2487-22.8519-58.1798 4.2359-13.2437 16.9575-25.1597 32.0667-30.0359 2.8875-.9319 5.25-2.2641 5.25-2.9605s-1.5119-2.4194-3.3598-3.8289c-1.8479-1.4094-4.8346-4.8609-6.6372-7.67-2.6457-4.123-3.3717-6.4252-3.7666-11.9449-.9296-12.9916 3.0513-21.5028 14.5172-31.0383 3.4395-2.8604 6.0072-5.5995 5.706-6.0869s-3.0035-2.5163-6.0051-4.5086c-18.0831-12.0028-27.8441-36.0181-24.5216-60.3308 2.7732-20.2932 9.6098-32.6727 23.5288-42.6051 7.9262-5.656 17.1784-9.1781 30.4577-11.5943 12.8287-2.3342 21.8748-2.3917 33.5806-.2135 6.7852 1.2626 17.4901 1.8154 43.5 2.2462l34.5.5715.2906 8.2593c.3519 10.0008 1.0038 9.5658-16.9221 11.2924-11.8408 1.1406-16.8685 2.1871-16.8685 3.5111 0 .3367 1.5241 3.3853 3.3868 6.7747 6.1094 11.1162 7.1156 15.5718 7.0378 31.1625-.072 14.4076-.7438 17.8-5.5448 28-5.3371 11.3387-17.8377 22.3823-31.179 27.5449-11.6137 4.494-22.7744 6.1363-39.2008 5.7686l-14-.3135-5.5912 4.2503c-10.0333 7.627-14.3795 20.1177-9.347 26.8627 2.9766 3.9895 6.5369 6.3908 11.0156 7.4295 2.1574.5004 13.8226.9221 25.9226.9371 44.1118.055 61.014 3.5852 74.2847 15.5168 10.6295 9.5567 14.5254 19.5042 14.4926 37.0036-.022 11.4608-1.5814 19.086-5.5232 27-8.7808 17.6289-28.9578 30.1136-56.426 34.9139-20.9272 3.6573-39.2767 4.302-57.3281 2.0144zm51-23.4529c10.8993-2.2869 23.4489-7.9456 29.708-13.3954 8.562-7.455 13.1553-22.1233 10.3796-33.1464-4.1638-16.5358-17.1047-20.8061-61.3227-20.2355l-23.403.3019-6.388 3.3509c-16.7677 8.7956-31.9739 25.3379-31.9739 34.7833 0 6.2326 3.0016 13.4201 7.471 17.8894 5.1471 5.1472 9.9685 7.755 19.208 10.3895 10.0649 2.8698 42.768 2.906 56.321.062zm-5.5844-154.4255c7.1546-2.2617 14.2236-7.1651 17.7786-12.3322 6.567-9.5448 9.2007-25.1853 6.4665-38.4031-3.7866-18.3056-11.7578-26.9587-28.5329-30.9734-22.9877-5.5017-43.9158 2.1069-52.6337 19.1355-6.1045 11.9238-5.9764 33.4513.2709 45.5233 4.5075 8.7102 15.8623 16.5008 27.0155 18.5355 6.6693 1.2167 23.8042.3577 29.6351-1.4856zm-868.9156 94.8173c-1.1-.2896-5.59593-1.4023-9.99096-2.4727-20.41532-4.9718-37.78118-18.6411-47.67868-37.5297-5.6807-10.8411-8.37276-19.3491-10.87359-34.3648-4.79193-28.7721-.41356-61.4001 11.11784-82.8513 12.40935-23.0843 31.52112-36.0972 59.54472-40.5432 12.73907-2.0211 21.91592-2.0295 34.76134-.032 18.13962 2.8212 30.17494 6.4507 31.10474 9.3802.64783 2.0412-6.77965 22.3107-8.36963 22.8407-.61168.2039-4.60046-.7698-8.86396-2.1639-23.13952-7.5661-43.76974-7.5245-60.12849.1213-2.991 1.398-8.1243 5.2274-11.56908 8.6304-10.36034 10.235-15.45979 22.0795-18.10561 42.0539-1.72757 13.0422-1.81759 21.3083-.3741 34.353 4.29618 38.8242 23.24282 58.1879 56.92546 58.1784 12.93309 0 24.85184-2.0198 39.22571-6.6352 4.24913-1.3644 8.18663-2.1958 8.75-1.8476.5974.3692 1.02429 5.163 1.02429 11.5026 0 8.3263-.35081 11.2204-1.49933 12.3689-1.88587 1.8858-11.15088 5.4622-19.00067 7.3344-6.00646 1.4325-41.95102 2.7424-46 1.6763zm174 .026c-1.1-.2729-4.925-1.1819-8.5-2.02-8.67197-2.0332-20.98447-8.0536-29.17791-14.2673-14.9066-11.3047-25.82762-29.7658-31.55772-53.3458-2.54146-10.4584-2.54658-48.8141-.008-59.9992 4.4714-19.7013 11.97037-34.2056 23.70577-45.851 12.63818-12.5413 26.32618-19.1925 46.03787-22.3707 12.03875-1.941 21.38154-1.9448 32.61901-.013 11.43739 1.9659 17.12444 3.8184 26.45464 8.6173 21.85061 11.2387 36.65244 32.3946 43.03588 61.5101 1.7786 8.1124 2.1589 13.1033 2.15991 28.346.002 29.1868-4.2047 46.2635-15.76559 64-10.54787 16.1823-25.05236 26.8829-44.20726 32.6134-7.70508 2.3052-10.90601 2.6717-25.79659 2.9541-9.35.1773-17.9.099-19-.1738zm32.86894-24.9016c27.88691-7.2636 42.47508-32.6896 42.60018-74.2487.0793-26.3415-6.6414-47.7098-18.96912-60.3119-11.01625-11.2614-30.11659-17.1927-47.77166-14.8348-28.29154 3.7784-43.33438 19.7653-49.3088 52.4033-1.82194 9.9532-1.54872 38.0195.46404 47.667 5.75686 27.5938 18.39633 43.2288 39.56715 48.9445 8.39431 2.2663 25.43354 2.4604 33.41821.3806zm168.13106 24.8599c-21.23971-4.4234-33.38899-15.2934-39.21394-35.0847-1.50269-5.1057-1.7371-13.2384-2.04464-70.9383-.27112-50.8664-.62407-65.4012-1.60797-66.2177-.69333-.5755-6.85699-1.1733-13.69702-1.3285l-12.43643-.2823-.2936-6.0914c-.19775-4.1028.1287-6.4167 1-7.0881.71148-.5482 6.2436-3.1527 12.2936-5.7879 6.05-2.6351 11.94852-5.7454 13.10783-6.9119 1.35529-1.3635 3.81542-8.0116 6.89069-18.6207 4.947-17.0662 6.03416-19.988 7.90118-21.2347.60517-.4041 3.89697-.7416 7.31512-.75 5.13039-.013 6.39544.3222 7.25 1.919.61439 1.148 1.03518 10.0472 1.03518 21.893 0 17.2773.21251 20.0403 1.58179 20.5657.86998.3339 12.92998.607 26.8.607 18.28083 0 25.54832.3301 26.41821 1.2 1.25292 1.2529 1.7169 16.2894.59301 19.2182-.53186 1.386-3.84262 1.5837-26.75 1.5971-14.37865.01-26.72167.3825-27.42893.8312-1.03062.6539-1.22915 13.3073-1 63.7347l.28592 62.9188 2.63784 5.5c3.40237 7.0941 7.31122 11.1804 13.8779 14.508 5.15639 2.6129 5.60866 2.6642 18.88359 2.1426 7.48037-.294 15.28817-.8349 17.35067-1.202l3.75-.6674v10.5742c0 12.2814.52035 11.63-11.22766 14.0566-7.07831 1.4621-27.93527 2.051-33.27234.9395zm122.5-1.2253c-9.24096-2.6757-13.00501-4.4817-18.66426-8.955-8.17361-6.4609-13.89623-17.0869-16.51797-30.6712-.75794-3.9272-1.35832-27.7642-1.73788-69l-.57989-63-13-.5-13-.5-.29633-6.1966c-.3499-7.3167-.78292-6.9127 14.29633-13.3374 5.5-2.3433 10.80459-5.0114 11.78798-5.929 1.01658-.9487 4.14502-9.6218 7.25116-20.1028 3.26584-11.0198 6.14289-18.937 7.15315-19.6842 2.15636-1.595 12.52599-1.6317 14.10771-.05.85373.8537 1.2 7 1.2 21.3s.34627 20.4463 1.2 21.3c.87203.872 8.33333 1.2 27.3 1.2s26.42797.328 27.3 1.2c1.25292 1.2529 1.7169 16.2894.59301 19.2182-.53221 1.3869-3.84831 1.5818-26.91821 1.5818-14.47117 0-27.02303.2731-27.89301.607-1.41697.5437-1.581 6.5611-1.57424 57.75.004 33.3886.42656 59.8451 1.01551 63.643 1.98322 12.7892 7.45242 21.1874 16.62345 25.526 5.45473 2.5805 6.02777 2.6438 19.23784 2.1249 7.48861-.2942 15.30315-.8352 17.36565-1.2023l3.75-.6674v10.5504c0 6.5292-.41503 10.8069-1.08891 11.2233-3.63766 2.2482-12.98902 3.6484-26.91109 4.0293-13.07479.3577-16.51702.1296-22-1.458zm115.5-.037c-8.63756-2.1757-13.22044-4.1131-18.78289-7.9401-14.6954-10.1104-21.71711-24.7385-21.71711-45.2421 0-26.2266 11.80862-43.1319 36.88255-52.8015 16.46488-6.3495 32.30103-8.7497 63.62029-9.6427 14.75658-.4207 23.49271-1.0628 24.38009-1.792 1.1021-.9056 1.27133-3.7798.83338-14.1536-.75057-17.7785-3.75603-25.9548-12.29694-33.4538-5.40574-4.7464-10.67237-6.7957-20.95919-8.1555-7.59622-1.0042-10.55853-.9306-19.46018.4834-11.71012 1.8602-13.11628 2.256-28 7.8806-15.48542 5.852-14.73279 6.0675-19.34063-5.538-3.09292-7.79-3.63529-10.058-2.68035-11.2086 1.7145-2.0659 20.02041-9.0194 30.02098-11.4035 24.17407-5.763 44.21977-5.8945 64-.42 13.6182 3.7691 25.57566 13.6748 31.03106 25.7064 5.94538 13.1123 6.00747 14.1282 5.72556 93.678l-.25662 72.4138-9.69579.2856c-8.46323.2492-9.81639.058-10.64451-1.5-.80187-1.5092-2.74883-10.1101-4.87496-21.5356-.76097-4.0893-3.47754-3.4411-7.82793 1.868-2.08126 2.5399-7.02353 7.1923-10.98281 10.3386-12.68525 10.0805-26.66363 14.0917-48.68184 13.9698-9.16804-.051-15.46403-.6207-20.29216-1.8369zm49.39977-25.0398c13.99121-4.8697 23.20532-12.5051 29.1188-24.1297 4.87078-9.5748 6.06856-16.2659 5.75888-32.1703l-.27745-14.2494-17 .2994c-45.86076.8079-65.60715 7.5054-74.29855 25.2006-2.3885 4.8629-2.70145 6.6584-2.70145 15.5 0 8.3203.38614 10.8378 2.29885 14.9875 2.66551 5.7831 5.28033 8.8447 10.28025 12.0368 6.81504 4.3509 11.63769 5.3782 25.4209 5.4146 11.83639.031 13.75185-.2273 21.39977-2.8892zm388.10023 26.3295c-23.5163-4.3268-34.76-9.8929-49.0332-24.2738-10.4677-10.5466-15.5335-18.8476-20.5165-33.6191-7.9708-23.6287-7.1469-62.2206 1.8586-87.0572 7.116-19.6253 22.2485-37.2755 39.1911-45.7115 24.747-12.3219 59.3217-10.9734 81.1995 3.1669 15.7608 10.1867 26.8034 26.641 32.32095 48.1606 2.258 8.8065 3.9827 36.822 2.6048 42.3119l-.6633 2.6433-64.73105.015c-35.9375.01-65.3545.4101-66.1328.9029-1.1146.7057-1.2599 2.5979-.7091 9.2347 2.5938 31.2505 19.6083 52.7784 46.111 58.3427 18.2955 3.8412 50.0465.01 71.2603-8.6013 4.5527-1.8478 5.574-1.9769 6.3197-.7991.4891.7726.8963 6.2319.9047 12.1317.018 12.4879.3555 12.0292-12.0421 16.3606-15.1606 5.2968-23.9579 6.6439-45.4426 6.9585-11 .161-21.125.086-22.5-.1671zm55.8-118.5789c1.5847-1.5847 1.5118-5.5125-.2924-15.765-4.0746-23.1528-17.8731-37.1735-39.5076-40.1436-14.6897-2.0168-30.3295 2.3651-40.5492 11.3608-10.7788 9.4879-21.4438 33.6709-19.052 43.2006l.6393 2.5472h48.781c36.6074 0 49.0804-.2995 49.9809-1.2zm299.70005 118.5515c-22.1848-4.6203-35.672-15.114-42.5625-33.116-2.699-7.0512-3.8594-27.7098-2.0344-36.2191 1.3651-6.3655 5.9075-15.6536 10.3728-21.2101 4.3249-5.3817 15.9169-12.9644 25.4153-16.625 16.6172-6.404 32.5903-8.8153 64.8088-9.7837 11.55-.3472 21.8394-1.0722 22.8652-1.6113 1.7098-.8983 1.8266-2.0346 1.4018-13.6332-.6331-17.2841-3.0393-24.5133-10.721-32.21-4.5945-4.6036-6.747-5.9317-12.546-7.7409-9.4044-2.9341-19.8728-3.5193-30.9487-1.73-9.9267 1.6036-24.1975 5.9105-33.6705 10.1618-4.2573 1.9105-6.5319 2.4451-7.5831 1.782-1.8844-1.1887-8.6418-18.077-7.9521-19.8743 1.1672-3.0417 22.3841-11.1051 36.6544-13.9305 11.9912-2.3741 26.6819-3.6933 33.8596-3.0406 35.3545 3.2152 51.583 14.5226 58.7425 40.9294 1.7837 6.5788 1.8979 11.4529 1.8979 81v74l-9.599.2844c-6.9254.2052-9.8691-.073-10.5685-1-.9207-1.2197-3.4769-11.8708-4.8209-20.087-1.0174-6.22-2.8286-5.7191-11.7655 3.2539-11.8968 11.9448-22.3771 17.4854-37.8115 19.9896-6.1552.9987-29.249 1.2823-33.4346.4106zm44.5-26.2023c14.2386-4.9335 26.1863-16.0691 31.0339-28.9244 4.0598-10.7662 6.4657-35.5543 3.9137-40.3228-1.0004-1.8691-1.8795-1.94-17.75-1.4311-31.7173 1.017-46.4852 3.4829-58.3891 9.7492-12.1945 6.4195-17.9087 15.291-18.6007 28.8782-.6299 12.3685 1.3734 18.6134 8.1428 25.3828 8.1624 8.1624 12.8569 9.5736 30.6494 9.2137 11.9314-.2414 15.6514-.6923 21-2.5456zm196 25.2967c-13.9232-2.9883-23.6503-8.18-34.1876-18.2474-4.2757-4.085-8.3614-7.2018-9.0793-6.9263-.718.2754-2.3698 4.9394-3.671 10.3643-3.454 14.4018-2.4864 13.4842-13.8664 13.1491l-9.6958-.2856-.2536-136.7775-.2535-136.7775 14.2535.2775 14.2536.2775.02 51.6868c.011 28.4278.2856 51.9524.6102 52.2769.3245.3245 3.9155-2.7114 7.9799-6.7465 11.5943-11.5109 22.5776-16.6379 41.1397-19.2042 10.8445-1.4992 12.6556-1.4992 23.5 0 19.6947 2.7229 31.3448 8.5166 43.9051 21.8347 8.8586 9.3929 14.4356 19.4404 18.6793 33.6523 9.5369 31.9389 6.8949 76.4769-6.0803 102.5-8.0594 16.1639-22.2204 29.5365-37.8369 35.7306-11.713 4.6458-35.5316 6.1956-49.4172 3.2153zm31.1892-24.2888c24.7216-6.8551 37.7252-32.4031 37.791-74.2481.025-15.8141-1.3766-27.0401-4.7327-37.909-3.4486-11.1688-7.8404-18.4818-15.1796-25.2767-6.9288-6.4148-13.265-9.1649-26.2885-11.4098-7.8702-1.3566-9.7181-1.3452-18.9466.1165-32.8469 5.2024-45.6966 26.1953-45.8011 74.8266-.065 30.3375 5.4737 50.2223 17.2655 61.9835 5.838 5.8228 13.6396 10.065 22.4237 12.1932 8.6394 2.093 25.4236 1.9546 33.4683-.2762zm146.8108 25.3614c-.825-.1972-5.1-.9173-9.5-1.6-8.7907-1.364-23.1266-5.7886-27.019-8.339-2.4219-1.5869-2.481-1.9227-2.481-14.1026 0-8.5821.3515-12.4769 1.126-12.4769.6193 0 5.0068 1.5511 9.75 3.4469 17.2973 6.9134 26.6826 8.7819 46.6277 9.2831 14.6564.3683 19.2003.1423 24.44-1.2154 12.7471-3.3031 20.2016-8.4061 23.8175-16.3042 5.2175-11.3965 2.0002-23.6179-8.279-31.449-6.4585-4.9205-21.9383-12.4636-39.7719-19.3804-7.8157-3.0314-19.245-7.9738-25.3985-10.9831-20.0587-9.8098-30.3342-21.9516-32.3529-38.2293-2.5337-20.4302 6.1755-37.5891 24.3622-47.9981 9.4311-5.3978 31.0929-10.1589 46.2548-10.1665 8.7841 0 25.3072 2.064 35.4991 4.4439 10.3947 2.4271 23.2145 7.064 24.3036 8.7905.754 1.1953.03 3.8362-2.8579 10.4311-5.7465 13.1208-5.0137 12.6842-15.3322 9.1374-15.8884-5.4614-32.4463-8.7879-43.8075-8.801-16.1306-.019-32.2817 5.8437-37.7697 13.709-6.1689 8.8413-4.4208 20.448 4.3096 28.6143 6.7388 6.3034 14.1245 9.8379 48.5791 23.248 39.3354 15.3099 52.5 29.0748 52.5 54.8942 0 26.9168-15.7677 45.009-46 52.7815-5.9378 1.5266-11.8741 2.0007-28.5 2.2763-11.55.1914-21.675.1866-22.5-.011zm-541.4979-4.7405c-.3026-1.2529-.4268-62.803-.2761-136.778l.274-134.5h14 14v136.5 136.5l-13.7239.278c-13.5592.2748-13.7305.2508-14.274-2zm-1548.50215-486.1584v-178.4984l308.75-.2516 308.75-.2516-.13419-6c-.0738-3.3-4.25191-39.525-9.28468-80.5-5.03276-40.975-13.86762-113.2-19.63302-160.5s-11.37079-93.2-12.45642-102c-2.68334-21.7507-15.04614-123.18954-19.43899-159.50004-1.9629-16.225-3.79198-30.4852-4.06462-31.6893-.38931-1.7194-1.40718-2.2976-4.7419-2.6938-2.3354-.2775-39.57118-1.2079-82.74618-2.0676-89.29895-1.778-102-2.265-102-3.9108 0-.6273 81.64953-82.77887 181.432-182.5705l181.43199-181.4299 162.31801-10.7685c89.2749-5.92267 217.443-14.3855 284.818-18.8062 67.375-4.4208 125.2-8.381 128.5-8.8006l6-.7628.5-48 .5-48h46.5 46.50005l.2606 44.4606c.1433 24.4533.5933 44.7709 1 45.1502.4066.3793 14.6894-.27783 31.7394-1.4605l31-2.1503.5-37.5.5-37.5h41 41l.2636 33.9636c.145 18.6799.6181 34.3181 1.0514 34.7514.4334.4334 41.2025-1.9083 90.598-5.2036 49.3955-3.2954 90.1916-5.7558 90.658-5.4675.4665.2883 15.5821 19.7463 33.5902 43.2401 56.1525 73.2575 165.4073 215.7122 220.0256 286.8859 45.0497 58.7047 53.587 70.2403 52.0632 70.3477-.1375.01-31.6776 1.9998-70.0892 4.4225-38.4115 2.4227-70.0782 4.644-70.3704 4.9362-.6991.6991-1.1221 3.0223-9.3991 51.6237-13.781 80.9211-21.9289 128.71854-39.378 231.00004-9.7113 56.925-19.6116 114.975-22.0007 129s-9.3477 54.8797-15.4636 90.7883c-6.1159 35.9085-10.8523 65.721-10.5254 66.25.3784.6121 109.4278.9617 300.0354.9617h299.441v178.5 178.5h-1199.50005-1199.5zm1273.97056-1346.08523c-47.87602-6.11177-88.04812-30.59827-114.15281-69.5806-16.2617-24.28365-24.68664-50.70223-25.75938-80.774993-.64766-18.154844.51823-29.717803 4.5838-45.463685 19.216-74.42242 91.22045-124.810158 167.16376-116.979021 93.41462 9.632713 157.60802 96.715661 138.80182 188.294579-10.6818 52.01671-49.48928 97.08952-99.45592 115.5128-17.65851 6.51089-36.2804 9.68614-55.65679 9.49012-6.9375-.0702-13.92351-.29482-15.52448-.4992zm45.56114-21.78098c24.86225-4.97241 47.10911-16.79972 66.33171-35.26456 12.99934-12.48705 21.14374-23.38209 28.30434-37.86465 10.1201-20.46767 13.4381-33.56817 14.2537-56.276224.669-18.62512-.9844-31.314806-6.1839-47.460473-15.2207-47.263195-54.65499-82.539264-104.4152-93.404931-11.39409-2.488011-42.4213-2.487662-54.03972.000611-28.26192 6.052779-50.51771 18.134041-70.86826 38.469861-18.47257 18.4592794-30.02462 38.901723-36.20511 64.068885-2.81614 11.467173-4.6521 30.047679-3.69123 37.355767.72567 5.518931.10071 5.33619 13.32504 3.896274l6.8655-.747542 3.0461 9.58385c10.10472 31.792222 33.19172 60.855212 63.38856 79.796522 13.2254 8.29583 36.59391 18.01511 53.93455 22.4321 2.24552.57197 4.27923 1.35794 4.51947 1.74659.24014.38865-.22423 3.65285-1.03199 7.25376-2.08523 9.29533-1.71827 9.82271 6.26868 9.0108 3.59537-.36548 10.88431-1.53396 16.19776-2.59664zm-545.16917-246.513686c-65.56156-5.145195-123.89685-31.856987-169.78428-77.744434-60.79764-60.79762-88.37744-145.92008-74.74055-230.67962 5.98203-37.18107 20.18751-73.36863 41.07174-104.62763 12.01094-17.97767 22.78284-30.89446 37.81516-45.34482 35.92655-34.53571 79.98598-57.84224 129.53598-68.52186 34.18453-7.36787 75.97156-7.20808 111.32742.42572 78.03354 16.84846 146.49818 70.36461 181.59967 141.94941 18.13473 36.9833 26.23469 69.04273 27.66927 109.5134 1.86428 52.59227-11.9347 104.76123-39.48837 149.29182-37.82196 61.125637-100.80651 105.59239-170.36901 120.27964-23.7354 5.011432-53.03172 7.153937-74.63703 5.458374zm53.90519-21.101219c64.80893-9.50707 123.52583-44.612117 162.69505-97.270425 24.28819-32.65258 39.25126-68.25439 46.3048-110.17404 2.56085-15.21865 2.56645-58.79152.01-74.93244-6.69692-42.27716-24.72096-83.27746-51.39692-116.91479-13.44348-16.95172-36.6456-38.35515-55.35086-51.05991-80.99593-55.01311-190.97042-55.6055-273.07107-1.47092-20.37514 13.43472-41.5828 32.7229-57.21851 52.03974-27.40658 33.85892-45.62946 75.67025-52.43867 120.31742-2.08707 13.68466-2.39881 51.15985-.52698 63.3508 2.37102 15.44214 4.33103 24.94158 5.46659 26.49456 1.0534 1.44061 2.40879 1.37639 15.60971-.73953 7.95088-1.27441 14.84638-2.06587 15.32335-1.75879s2.04716 4.67672 3.48932 9.71029c15.38103 53.68432 55.87498 100.33991 111.26425 128.19443 11.2693 5.66718 33.61308 14.106997 48.44294 18.298159 7.75001 2.190268 14.27698 4.168365 14.50438 4.39576.22739.227385-.95621 6.174788-2.63022 13.216431-1.67401 7.041653-3.04366 13.671575-3.04366 14.733148 0 2.279587.95736 2.615936 11.29511 3.968323 4.3216.565355 9.18341 1.217632 10.80401 1.449506 6.03027.862799 40.62411-.403756 50.46755-1.847722zm-820.20675-149.069345-7.08603-.41107.00036-9.48668.00036-9.48668 28.09944-.0176c30.88411-.0193 42.87301-1.14808 68.48719-6.44824 79.63711-16.47877 151.38016-62.35806 201.256936-128.70271 37.541465-49.93658 60.527338-110.36868 65.809192-173.01879 1.466135-17.39035-.265809-68.84787-.277284-71.03787-.02249-4.29284-.283905-11.20327-.300951-12.95035l-.299824-5.61512h8.050483c9.32326 0 7.310597.0397 7.310597.0397s1.095461 13.87468 1.166433 18.85605c.652084 45.76826 3.319537 78.95705-7.052276 124.3765-10.371813 45.41946-36.848329 103.28164-66.994946 141.14183-10.69811 13.43542-38.52683 41.43852-52.11314 52.43968-54.74875 44.33139-116.37908 70.3278-186.19174 78.53787-12.90497 1.51765-46.96001 2.54835-59.8648 1.78348z" fill="#060908"/></g></svg>