<svg enable-background="new 0 0 141.8 30" viewBox="0 0 141.8 30" xmlns="http://www.w3.org/2000/svg"><g fill="#002f56"><path d="m0 29.6v-1.7c3.1 0 4-.9 4-3.4v-18.9c0-2.5-.9-3.4-4-3.4v-1.7h22.4l1.2 4.1c.1.4.2.9.2 1 0 .2-.4.7-.9.7-.3 0-.5-.2-.9-.9-2-3.1-4.7-3.6-8.8-3.6-2.9 0-3.2.4-3.2 2.3v9.1h3.6c2.7 0 3.7-.6 4.3-3.3.1-.5.2-.5.9-.6.5 0 .8.1.8.9v9c0 .4-.4.6-.9.6s-.6-.1-.6-.3c-1.2-4.1-2-4.3-4.4-4.3h-3.8v9.8c0 2.5.4 2.9 4.7 2.9 5.6 0 7.3-1.7 9.5-5.6.1-.2.2-.4.8-.4.5 0 .7.1.7.3s0 .4-.1.8l-1 6.7h-24.5z"/><path d="m33.2 5.6c0-2.5-.9-3.4-4.2-3.4v-1.7h11.9c7.5 0 11.5 2.5 11.5 6.9 0 4.1-3.9 5.9-6.6 6.8v.1c5.5.7 8.2 4.4 8.2 7.8 0 3.2-2.4 7.7-10.6 7.7h-14.4v-1.8c3.4 0 4.2-.9 4.2-3.4zm6 6.1c0 1.3.6 1.8 2.6 1.8 2.9 0 5.1-1.2 5.1-5.6 0-4.3-2-5.5-5.3-5.5-1.8 0-2.3.7-2.3 2.4v7h-.1zm0 13c0 2.5.7 3.2 3.5 3.2 3.7 0 5.5-2.6 5.5-6.2 0-4.4-2.9-6.5-6.8-6.5-1.9 0-2.3.4-2.3 2.3.1-.1.1 7.2.1 7.2z"/><path d="m75.6 6.6c0 .9-.2 1.1-.8 1.1-.5 0-.7-.3-1.3-1.4-1-2.2-3.4-4.4-6.3-4.4-2.7 0-4.9 1.8-4.9 4.3-.2 6.4 14.7 4.8 14.7 14.8 0 4.1-2.3 8.9-10.8 8.9-2.5 0-6.5-.9-8.1-1.7-.3-.4-.7-4.1-.7-6 0-.9.2-1.3.9-1.3.8 0 .9.1 1.3 1.3.5 1.8 2.5 6 7.5 6 3 0 5.5-1.4 5.5-4.6 0-6.9-14.8-5.9-14.8-15.2 0-5.7 5.5-8.4 10-8.4 4.3 0 7.3 1.3 7.5 1.6 0 .6.2 1.2.2 3.1v1.9z"/><path d="m107.2 24.6c-.1 1.2-.3 1.7-.7 2.3-.7.8-4.4 3.2-10.9 3.2-8.6 0-15.5-6.8-15.5-14.9s6.9-15.1 15.5-15.1c5.3 0 11.4 2.3 11.4 4.3s-.3 3.8-.3 4.5c0 .3-.2.9-.8.9-.4 0-.6-.1-1.3-1.8-1.5-3.9-4.8-6.1-9-6.1-4.1 0-9 3.5-9 13.2s5 13.2 10.4 13.2c5 0 8.1-4.8 8.7-6.2.4-.9.5-1 1.1-1 .5 0 .7.2.7.6 0 .3 0 .7-.1 1.4z"/><path d="m126.3.1c8.6 0 15.5 6.8 15.5 14.9s-6.9 15-15.5 15-15.5-6.8-15.5-14.9 6.9-15 15.5-15zm0 28.2c4.1 0 9-3.5 9-13.2s-4.9-13.2-9-13.2-9 3.5-9 13.2c-.1 9.7 4.9 13.2 9 13.2z"/></g></svg>