<svg width="601" height="204" viewBox="0 0 601 204" fill="none" xmlns="http://www.w3.org/2000/svg">
<path d="M251.8 110.9V112.5C251.8 116.7 254.4 119.5 259.4 119.5C263.8 119.5 266.8 117.6 266.8 113.8C266.8 110.7 264.4 109.2 261.5 108.4L251.3 105.3C243.3 102.9 239.2 98.7 239.2 91.9C239.2 83.9 245.1 77.4 260.1 77.4C273.3 77.4 279.5 82.4 279.5 91.1V93.1H266.4C266.4 88.3 264.7 85.9 260 85.9C256.3 85.9 253.1 87.7 253.1 91.1C253.1 93.4 254.6 95.4 259.4 96.7L268.1 99.2C277.3 101.8 280.6 105.7 280.6 113C280.6 123.1 271.7 128.1 259.5 128.1C243.2 128.1 238.6 122 238.6 112.8V111.1H251.8" fill="black"/>
<path d="M315.2 95.9C315.2 91.3 314.1 86.2 308.7 86.2C301.5 86.2 300.4 91.6 300.4 102.6C300.4 114.5 301.7 119.4 308.2 119.4C313.1 119.4 315.3 115.9 315.3 108.1H329.2C329.2 120.7 323 127.8 307.6 127.8C293 127.8 285.9 121.8 285.9 102.5C285.9 82.7 295.5 77.2 308.9 77.2C322.3 77.2 329.2 84.4 329.2 95.8H315.2" fill="black"/>
<path d="M337.3 62.1H351.8V72.6H337.3V62.1ZM337.3 78.6H351.8V126.7H337.3V78.6Z" fill="black"/>
<path d="M374.5 104.5V108.3C374.5 113.9 376.3 119.5 381.7 119.5C386.6 119.5 388.6 116.4 389.4 110.5H402.5C402 121.7 395.6 127.9 381.9 127.9C360.8 127.9 360 114.1 360 102.2C360 89.3 363 77.4 382.6 77.4C399.6 77.4 403.4 87.1 403.4 101.8V104.6H374.5V104.5ZM389.4 97.2C389.1 89.9 388 85.8 382 85.8C376.2 85.8 374.5 90.9 374.5 95.4V97.3H389.4V97.2Z" fill="black"/>
<path d="M410.9 78.6H424.8V84.2H425C428.1 79.5 433.3 77.3 439.4 77.3C448.5 77.3 453.9 81.5 453.9 91V126.7H439.4V93.5C439.4 88.7 437.5 86.8 433.2 86.8C428.2 86.8 425.5 89.4 425.5 94.8V126.7H410.9V78.6" fill="black"/>
<path d="M490.9 95.9C490.9 91.3 489.8 86.2 484.4 86.2C477.2 86.2 476.1 91.6 476.1 102.6C476.1 114.5 477.4 119.4 483.9 119.4C488.8 119.4 491 115.9 491 108.1H504.9C504.9 120.7 498.7 127.8 483.3 127.8C468.7 127.8 461.6 121.8 461.6 102.5C461.6 82.7 471.2 77.2 484.6 77.2C498 77.2 504.9 84.4 504.9 95.8H490.9" fill="black"/>
<path d="M524.9 104.5V108.3C524.9 113.9 526.7 119.5 532.1 119.5C536.9 119.5 538.9 116.4 539.8 110.5H552.9C552.4 121.7 546 127.9 532.3 127.9C511.2 127.9 510.4 114.1 510.4 102.2C510.4 89.3 513.3 77.4 533 77.4C550 77.4 553.8 87.1 553.8 101.8V104.6H524.9V104.5ZM539.7 97.2C539.4 89.9 538.3 85.8 532.3 85.8C526.5 85.8 524.8 90.9 524.8 95.4V97.3H539.7V97.2Z" fill="black"/>
<path d="M571.9 110.9V112.5C571.9 116.7 574.5 119.5 579.5 119.5C583.9 119.5 586.9 117.6 586.9 113.8C586.9 110.7 584.5 109.2 581.6 108.4L571.4 105.3C563.4 102.9 559.3 98.7 559.3 91.9C559.3 83.9 565.2 77.4 580.2 77.4C593.4 77.4 599.6 82.4 599.6 91.1V93.1H586.5C586.5 88.3 584.8 85.9 580.1 85.9C576.4 85.9 573.3 87.7 573.3 91.1C573.3 93.4 574.8 95.4 579.6 96.7L588.4 99.2C597.6 101.8 600.9 105.7 600.9 113C600.9 123.1 592 128.1 579.8 128.1C563.5 128.1 558.9 122 558.9 112.8V111.1H571.9" fill="black"/>
<path d="M182.5 62.3C161.4 62.3 151.9 80 142.7 97.1C134.4 112.4 126.6 126.8 111.3 126.8C105.1 126.8 99.2 124.3 94.8 119.9C90 115.1 87.3 108.6 87.3 101.6C87.3 87.7 98.1 76.4 111.3 76.4C126 76.4 134.1 90.5 134.1 90.6L134.8 91.8L142.3 78.9L142.2 0.600006L127.5 15C127.5 15 127.5 63.4 127.5 65.7C122.3 63.2 116.7 61.8 111.3 61.8C95.8 61.8 82.1 71.2 76 85.9C69.4 72.5 56.3 64 41.2 63.8C18.5 63.8 0.799988 81.1 0.799988 103.1C0.899988 124.6 19 142.1 41.1 142.1C53.7 142.1 62 136 68.9 130.2L69.6 129.6L58.8 119.4L58.3 119.9C53.2 124.9 47.6 127.4 41.2 127.5C28.1 127.5 18.8 118 17.6 109.1C17.6 109.1 17.6 108.8 17.5 108.7H73.5C76.8 127.3 93 141.3 111.4 141.4C133.7 141.5 144.2 122.2 153.5 105.1C161.5 90.4 169 76.5 182.7 76.9C196.2 77.2 206.7 88.3 206.7 102.1C206.7 116 195.9 127.3 182.7 127.3C172.2 127.3 164.1 120.1 159 114.7L150 129.8V192.4L164.5 203.7V137.6C170.9 140.4 177 141.9 182.7 141.9C204 141.9 221.4 124 221.4 102C221.3 80.2 203.9 62.3 182.5 62.3ZM17.1 95.2C18.8 91.4 25.5 78.3 40.5 78.1C55.5 78.1 61.8 91.4 63.3 95.2H17.1Z" fill="#C4122F"/>
</svg>
