<svg width="58" height="64" xmlns="http://www.w3.org/2000/svg" class="gh-logo" aria-labelledby="gh-elsevier-logo-wordmark"><path d="M16.16 24.15c.62-.33.98-.73 1.04-1.2.1-.42-.28-.38-.37-.3-.35.28-.8.71-1.23 1a4.5 4.5 0 0 0-.6.08c-.05-.02-.11-.1-.08-.13.39-.25.82-.5 1.1-.83.18-.21.1-.4-.25-.44-.39-.06-.85.1-1.21.42-.61.52-.9 1.67-.96 2.4-.13.12-.17.12-.3.18a3.04 3.04 0 0 1 .32-2.37c.06-.15.02-.39-.2-.46-.13-.05-.19-.02-.25.12-.3.86-.82 1.23-1.55 1.77-.07.06-.73.42-.9.52-.58-.18-1.23-1.26-1.78-2.07a.5.5 0 0 0-.48-.21c-1.2.13-2.09.04-2.73-.9-.29-.39-.42-.46-.78-.12-.4.42-.8.74-1.2 1.08-.21.13-.36.09-.45-.18a7.57 7.57 0 0 1-.4-2.52c0-.36.04-.9.05-1.25a3.08 3.08 0 0 0-.76-.51C1.18 17.75.01 16.63 0 16.3c0-.08.06-.28.34-.44 1.47-.65 2.61-.1 3.05-.17.37-.03.49-.3.43-.83a2.9 2.9 0 0 1 .94-2.6c.5-.53.46-1.12.34-1.77-.06-.3-.13-.38-.43-.35-.8.18-.76.2-.91.9-.09.45-.25.91-.5 1.28-.32.51-.75.94-1.13 1.39-.13.18-.28.18-.47.06a2.62 2.62 0 0 1-1.03-3.31c.13-.35.32-.72.53-.91l.1.04c0 .06 0 .14-.02.2l-.24.74c-.3.87-.25 1.69.33 2.43.19.24.36.31.46.2.37-.37.75-.72 1.07-1.12.4-.45.51-1 .4-1.57a9.96 9.96 0 0 0-.11-.65c-.06-.31-.19-.29-.34-.1-.36.36-.53.65-.7 1.32a.52.52 0 0 1-.17.24.7.7 0 0 1-.08-.35c.1-.6.24-1.13.62-1.52.25-.27.19-.42-.05-.49-.86-.24-1.6-.48-2.25-1.28A.72.72 0 0 1 0 7.2c0-.17.09-.3.28-.44.76-.52 1.52-1.06 2.27-1.22.3-.06.46-.08.61-.1-.34-1.06-.7-2.33-.9-3.51 0-.24.17-.9.26-1.09.17-.02.37-.02.67.09.35.12.67.34.99.54.31.18.4.18.6-.1.35-.51.75-.96 1.28-1.23.18-.09.3-.15.42-.15.17 0 .3.1.47.36.29.47.54 1.01.8 1.5.3.51.62.54 1.08.21.51-.34.97-.67 1.44-1.06.44-.34.56-.34 1.04-.01.43.3.9.85 1.13 1.33.05.09 1.05-.45 1.08-.69.04-.43.16-.74.32-1.09.21-.43.51-.55.78-.55.25 0 .72.28 1.07.5l.76.44c.4.22.42.22.66-.15.27-.42.5-.5 1.06-.5 1.1 0 2.1.28 2.86 1.19.14.18.27.2.44.03.31-.32.6-.44 1.18-.44h1.02c.23 0 .38.02.59-.28.28-.4.6-.79 1.05-.79.72 0 1.66 1.01 2.14 1.88L27.2 2A5.12 5.12 0 0 0 25.32.82c-.44-.18-.63 0-.57.45.06.53.2 1.07.33 1.6.15.49.58.92 1.06 1.13l.03.18c-.08-.02-.18-.05-.3-.06a2.19 2.19 0 0 0-.94.03c-.6.15-1.15.41-1.69.64-.27.13-.27.2-.04.42.3.28.58.6.92.85.97.73 1.93.58 3 .17l.5-.17c.45-.08.93.1 1.3.44l1.08.97c.34.33.42.62.2 1.03-.35.69-.74 1.39-1.13 2.06a.67.67 0 0 1-.25.26c-.13-.1-.25-.35-.12-.57.48-.6.78-1.44.88-2.01.1-.56-.2-.82-.73-.68l-.45.17c-.19.07-.26 0-.3-.2-.07-.17-.16-.28-.22-.46-.12-.3-.3-.4-.55-.2-.45.28-.77.56-1.04 1a3.79 3.79 0 0 0-.42 2.33c.01.1.09.17.15.23a.43.43 0 0 0 .2-.2c.14-.35.23-.7.29-1.08.03-.21.06-.59.13-.78.05-.1.21-.06.3-.03.23.09.32.2.35.36-.45.57-.73 1.42-1.03 2.18-.05.1-.24.23-.36.23-.14-.01-.33-.13-.37-.25-.18-.48-.5-.95-.63-1.43-.33-1.63-.43-1.72-.5-1.82a10.02 10.02 0 0 0-2.42-2.76c-.08-.08-.12-.17-.18-.24.09-.04.16-.12.25-.15.31-.13.63-.25.95-.36.4-.15.68-.4.86-.77.11-.21.26-.42.38-.63.17-.3.15-.46-.07-.72a1.55 1.55 0 0 0-1.58-.49c-.61.15-.99.59-1.18 1.17-.08.2-.1.43-.1.65 0 .33.1.4.37.23.45-.37.95-.67 1.43-.99-.22.51-.54.91-.98 1.2-.3.19-.6.35-.9.52-.25.18-.34.1-.42-.2-.07-.32-.04-.65-.04-.97A2.12 2.12 0 0 0 19.35.97l-.79-.33a.76.76 0 0 0-.3.69c.06.87.19 1.5.34 2.24.14.3.47.42.81.48.2-.1.36-.38.09-.82l-.39-.77c-.04-.1-.09-.19-.12-.3-.01-.04-.03-.11 0-.16.05.02.1.02.2.12.5.54.9 1.15 1.16 1.91.1.3.01.42-.28.45-.66.06-1.33.1-1.97.24-1.05.22-1.4.6-1.78 1.3-.16.3-.24.49-.25.67.37.03.79.01 1.39-.1a3.98 3.98 0 0 0 1.44-.47c.28-.33.5-.66.92-.96.12-.09.4-.12.51-.06a5.5 5.5 0 0 1 2.75 2.7c.04.12.16.24.22.34.12.14.07.19-.1.18-.24-.07-.5-.13-.72-.22-.09-.04-.16-.18-.2-.28l-.22-.62c-.12-.25-.18-.25-.43-.16-.13.05-.27.1-.48.2-.18.07-.27.1-.31-.1-.06-.3-.14-.6-.21-.87-.12-.33-.25-.4-.57-.24-.6.31-1.04.77-1.34 1.37-.28.58-.39.98-.13 2.52.06.3.3.67.58.76l2.6.8c.13 0 .21.15.05.25-.32.22-.67.41-1 .62-.17.1-.26.05-.34-.1a2.04 2.04 0 0 0-1.07-.98c-.17-.08-.26-.05-.33.13-.12.28-.25.69-.36.98-.06.15-.13.21-.3.1-.74-.62-1.52-.65-2.43-.53-.45.06-.66.18-.55.63.25 1.25 1.34 1.83 2.27 2.23a.63.63 0 0 0 .32-.25c.14-.2.1-.4-.1-.58-.36-.31-1.12-.67-1.5-1.01-.06-.2.37-.38.6-.23.68.31 1.2.87 1.74 1.4.28.27.41.24.5-.15.1-.3.2-.76.29-1.1.05-.18.16-.12.2-.01.07.26.15.6.15.9 0 .32-.11.6-.2.9-.06.3-.29.46-.54.4-1.15-.11-2.02.43-2.73.45-.16 0-.5-.1-.67-.18-.25-.2.12-.22.2-.22.3 0 .75 0 .99-.13-.07-.1-.2-.21-.31-.29-.64-.52-1.36.03-1.91.31-.31.17-.33.21-.2.54.2.5.56.69 1.05.69.28 0 .55.04.84.03a1 1 0 0 0 .4-.1c.37-.14.7-.32 1.04-.47.42-.06.41.15.22.36l-.85.52c-.09.05-.19.08-.25.14-.12.09-.27.24-.25.3.06.11.18.23.32.28.4.12.8.18 1.18.27.62.12.88-.05 1.05-.66.09-.34.2-.66.36-.97.1-.2.22-.22.34-.02.42.78.86 1.54 1.31 2.3.08.17 0 .25-.16.23-.97-.1-1.93-.21-2.9-.36-.33-.05-.65-.26-.98-.4-.5-.23-1-.44-1.57-.42-.49.01-.77.3-.6.77.22.67.47 1.36.74 2.03.19.46.64.63 1.13.67.23.03.15-.13.09-.24l-.8-1.73c-.1-.29-.02-.33.14-.09.44.66.9 1.29 1.3 1.96.24.42-.06.54-.36.55-1.01-.1-1.93-.45-2.9-.82-.1-.04-.24-.25-.21-.34.18-.17.4 0 .6 0 .23.04.33-.06.24-.24a.92.92 0 0 0-.49-.45 5.97 5.97 0 0 0-1.44-.52c-.3-.06-.5.07-.44.34.08.35.24.66.42 1.02.05.1.05.24.02.34-.18-.01-.4.05-1.15-.27-.75-.31-.76-.52-.76-1.44 0-.2 0-.59.04-.77.08-.25.1-.3.33-.26.78.16 1.57.37 2.34.74.23.1.45.3.69.39.2.07.3 0 .27-.2a.7.7 0 0 0-.44-.6c-.82-.35-1.64-.74-2.46-1.07-.2-.08-.27-.17-.16-.38.33-.54.5-1.17.36-1.85 0-.05.06-.12.12-.18a.5.5 0 0 1 .37.46c.06.58.45.98.83 1.37.77.8.77.8 1.85.54.14-.02.24-.12.36-.2-.1-.08-.2-.22-.34-.28-.2-.1-.42-.16-.64-.25-.72-.27-.93-.78-.69-1.54a26 26 0 0 0 .67-2.09c.08-.33.1-.68.12-1.03 0-.2.15-.2.27-.22l1.57-.1c.4-.03.85-.5 1.01-.77l.52-.85a1.09 1.09 0 0 0-1.07-.16c.12-.39.28-.76.28-1.13 0-.24-.06-.53-.16-.78-.1-.24-.27-.28-.47-.13-.38.32-.7.7-.82 1.22s-.34 1.47-.23 1.64c.24-.18.56-.42.77-.48.1-.03.27-.01.36.06-.35.33-.77.6-1.16.8-.29.13-.4-.04-.35-.32.34-1.3.13-1.4.02-2.04a7.5 7.5 0 0 0-.97-2.24c-.14-.18-.36-.12-.66.24-.48.58-.6 1.07-.85 2.07l-.06.2-.34.3-.15-.17c.13-.46.27-.73.27-1.1 0-.45-.2-.77-.5-1.02-.37.24-.71.54-.8.7a.99.99 0 0 0 .02 1.14c.38.67.32 1.34.2 2.13l-.1-.03a8.88 8.88 0 0 0-.28-1.52c-.08-.32-.29-.59-.46-.87-.17-.25-.32-.79-.18-1.01.2-.35.83-.53 1.07-.85.25-.38.13-.54.45-.88.19-.23.6-.7.9-.54.9.45 1.86.55 2.87.42.43-.06.52-.05.64-.48.1-.36.15-.12.51-.24.61-.2.93-.75.93-1.4 0-.36.02-.73-.02-1.1-.03-.32-.15-.63-.25-.92-.08-.19-.21-.15-.3-.01-.25.33-.67.98-.9 1.34-.13.21-.24.42-.35.64-.06.17-.14.21-.29.05a3.26 3.26 0 0 0-.53-.46c-.33-.21-.36-.87-.23-1.29.14.08.24.24.33.45.12.28.18.6.4.7.29.15.58-.45.54-.86 0-.05-.03-.2-.1-.3-.32-.57-1.05-1.03-1.5-1.03-.52 0-.85.64-.64 1.25.06.16.12.28.2.43-1.23.65-1.56 1.06-2.05 1.63-.06.07-.12.27-.06.37.23.44.14.59-.33.85-.21.12-.5.23-.72.3-.03.02-.09-.03-.15-.04a.3.3 0 0 1 .06-.12c.3-.67.63-1.31.91-1.99.3-.73-.36-1.41-.95-1.64-.39-.15-.7-.06-.96.29-.65.78-.79 2.05.12 3.25.14.2.1.28-.13.3-.52.04-1.04.1-1.58.13a2.1 2.1 0 0 0-1.6.85c-.12.18-.28.22-.45.1-.41-.25-.76-.19-1.19.06-.7.37-1.52.66-1.97.66-.07 0-.16-.06-.22-.12.04-.06.1-.15.25-.2.43-.1.78-.21 1.16-.32.07-.07.1-.24.14-.31-.07-.1-.22-.23-.33-.24a5.28 5.28 0 0 0-1.09 0C2.16 6 1.46 6.44.86 7c-.28.28-.3.57 0 .8.7.5 1.45 1 2.4.75.66-.21 1.07-.7 1.5-1.18.36-.38.8-.83 1.22-.35.61.7.73 1.43 1.73 1.3.38-.04.54-.17.64-.53l.08-.43c.03-.28-.12-.42-.39-.31-.18.06-.34.16-.52.2-.1.03-.21-.01-.33-.04.01-.1.03-.24.1-.3.18-.12.4-.22.6-.31.75-.2 1.46-.35 2.2-.5a.64.64 0 0 1 .23 0l-.07.21c-.27.62-.63.81-1.12.93-.06.06-.18.2-.27.48-.31 1-.13 2.04.54 2.76.24.27.54.49.85.68.52.3.66.8.85 1.33.12.33.25.66.4.99-.42.3-.77.65-1.01 1.08-.1.1-.18.06-.24-.06l-.29-.71c-.26-.63-.7-1.03-1.4-1.09-.25-.02-.5-.06-.74-.09-.29-.03-.48.1-.58.43-.39 1.2-.02 2.24 1.13 2.88-.92.23-1.68.6-2.15 1.24.05.18.33.42.69.57.9.37 1.82.33 2.67.04.5-.18.52-.06.61.3l.25 1.12c.06.27-.09.42-.34.33-1.37-.4-3-1.06-4.18-1.85a6.2 6.2 0 0 0-1.55-.46c-.18.1-.33.23-.49.2a8.77 8.77 0 0 1-1.48-.52c-.24-.14-.25-.21.05-.25.46 0 1.3.2 1.73.2.42-.13.42-.2.16-.38-1.01-.8-2.15-.61-3.28-.42-.4.08-.43.27-.2.59 1.46 1.65 2.54 1.64 4.32 1.43 1.16.74 2.32 1.4 3.67 1.83l.03.2c-.97.06-1.88.22-2.76.4-.44.09-.53.36-.29.76.36.58.93.85 1.58 1.01.47.14.94.1 1.4-.09.54-.25.89-.7 1.4-.98.3-.16.8.02 1.1.1.46.15.9.35 1.37.42 1.86.25 3.84.42 5.57.28-.21.4-.36.78-.5 1.17-.09.24-.01.3.24.28.36-.01.72-.22.87-.5.03-.28.03-.53.09-.81.03-.15.07-.36.17-.38.07-.01.5.06.45.18-.15.44-.28.77-.46 1.2.16.03.33.06.5.06.7 0 .81-.1.78-.8a2.9 2.9 0 0 0-.09-.59c-.09-.52.02-.88.47-1.12.44-.22.9-.15 1.34-.1a8.2 8.2 0 0 1 3.79 1.71c.55.44.07 1.05.07 1.88 0 .52-.1 1.06-.09 1.33.02.43.2.66.36.78.48.37 1.01.74 1.52 1.07.52.34.78.55 1.4.76.14.04.32.04.44.03a1.6 1.6 0 0 0-.03-.64c-.3-.2-.72-.3-1.2-.46-.09-.03-.18-.15-.23-.26a.9.9 0 0 1 .35-.2l.78-.17c.06-.02.16-.1.2-.17-.04-.07-.1-.16-.16-.17-.32-.1-.74-.17-1.01-.24-.1-.03-.15-.12-.23-.21a.98.98 0 0 1 .38-.2l.8-.1a.42.42 0 0 0 .21-.13c-.03-.08-.07-.18-.13-.21-.17-.08-.99-.38-1.08-.47-.07-.07-.09-.17-.12-.3.12-.05.27-.1.38-.08l.67.01c.09 0 .2-.06.27-.13a.6.6 0 0 0-.18-.21c-.32-.2-.44-.34-.8-.5-.17-.1-.25-.2-.28-.41.12-.03.3-.05.45-.02.24.06.37.14.63.18.07.02.2-.01.28-.03a.28.28 0 0 0-.07-.2c-.1-.1-.23-.15-.35-.24-.18-.12-.49-.42-.67-.57-.06-.05-.03-.2-.04-.25l.2.01c.24.05.6.15.8.18.36.07.31.02.16-.24-.22-.2-.45-.33-.66-.56-.06-.08-.04-.21-.03-.32.34.02.69.18 1 .18.03-.06.05-.1.05-.18a5.1 5.1 0 0 0-.25-.6c-.09-.23.03-.32.2-.25.24.1.62.3.88.36.1.03.23 0 .36-.05-.12-.24-.26-.43-.42-.67-.03-.06 0-.15.05-.22.41.12.83.4 1.2.5.17.07.28 0 .32-.08.03-.1-.27-.4-.25-.52.01-.08.03-.1.07-.15l.7.22c.51.13.8.18.88.06.1-.03-.01-.27-.16-.55.4-.03.45.16 1.16.3.27.07 4.02-.46 5.54-.93.6-.2 1.3-.5 1.86-.76l.18.04c.43 1.1 1.34 1.44 2.27 1.54.27.03.56.05.85.06.27 0 .33-.07.25-.34a4.8 4.8 0 0 0-1.39-2.36l-.6-.37c-.26-.27-.23-.58.05-.8.48-.32 1.12-.63 1.6-.93.7-.45.94-1.14.9-1.87a.62.62 0 0 0-.26-.49.78.78 0 0 0-.36.25c-.19.4-.38.73-.55 1.08-.13.07-.27.1-.39.15-.03-.12-.1-.24-.07-.36.21-.62.76-1.12 1.12-1.52.15-.25-.07-.35-.18-.33-.4.09-.84.24-1.14.58a8.06 8.06 0 0 0-1.58 3.27c-.07.31-.2.42-.3.71-.13.44-.12.54.26.81.55.36 1.27.69 1.79 1.06.21.23.1.32-.12.31a2.07 2.07 0 0 1-1.5-.67c-.2-.22-.37-.36-.6-.39-.54.14-1.29.36-1.85.44-.32.06-.57.19-.74.49-.11.25-.34.3-.6.2-.4-.11-.8-.25-1.2-.34a4.5 4.5 0 0 0-2 .14c-.27.04-.33-.02-.25-.28.07-.33.18-.65.24-.97.01-.14.03-.35-.1-.42-.13.06-.32.09-.38.18-.21.31-.37.64-.57.98-.13.27-.18.27-.46.15a5.1 5.1 0 0 1-1.13-.69c-.27-.43-.56-.79-.7-1.16-.05-.1.1-.18.23-.18.3.24.66.54.93.8.18.2.24.4.36.66.03.06.32.05.37-.06.04-.1.09-.25.13-.46.1-.4.03-.95-.33-1.31-.44-.45-.74-.54-1.35-.96-.76-.52-.87-.49-1.15.02-.22.42-.37.88-.37 1.4.2 1.22.49 1.72 1.97 2.48a.41.41 0 0 1-.12.2c-.1.08-.15.13-.32.13-.52-.02-1.25-.03-1.82-.08-.16-.01-.26-.06-.3-.15a7.5 7.5 0 0 1 .66-5.4.9.9 0 0 1 .36-.39c.31-.16.8-.37 1.1-.5.18-.08.27-.02.35.16.13.48.18.82.22 1.23.02.25.03.5.13.55.24.1.45-.1.57-.3.45-.73.57-1.55.24-2.43-.03-.08.04-.24.13-.29 1.02-.41 1.97-.83 3-1.23.58-.03 1.32.03 2.35.2.17.02.53.32.9.53-.47.24-1.16.74-1.64 1.2-.13.14-.3.32-.18.7.4-.02.6-.13.9-.22.46-.13.75-.2 1.12-.2a2 2 0 0 1 .3.04.55.55 0 0 1-.14.31c-.13.12-.34.1-.49.18-.15.1-.3.25-.2.43.07.12.27.26.41.24.48-.03.92-.09 1.42-.24.22-.18 1.06-1.28.58-1.38-.27-.06-.85-.1-1.1-.23a.5.5 0 0 1 .3-.34c.26.04.56.12.96.16a5.9 5.9 0 0 0 1.97-.09c.27-.1.36-.2.27-.37a3.1 3.1 0 0 0-1.83-1.6c-.36-.1-.8-.02-1.17-.02l-3.22-.03c-.07 0-.15-.06-.22-.1.06-.05.12-.11.18-.14.3-.18.65-.33.95-.54.46-.31.75-.76.88-1.33a.55.55 0 0 0 0-.31c-.3-1.1-.9-1.9-2.15-2.04l-.62-.1c-.23-.02-.32.08-.32.29 0 .39.02.6 0 1 0 .2.1.27.33.3a7.7 7.7 0 0 1 1.7.49c.33.13.4.33 0 .67l-.9.64c-.16.1-.23.02-.25-.13-.02-.24-.02-.5-.06-.73a.5.5 0 0 0-.13-.23.66.66 0 0 0-.48.4c-.12.32-.2.62-.25.93a.98.98 0 0 1-.69.8c-.18.05-.34-.02-.31-.19.03-.2.07-.4.13-.6.29-.7.44-1.3.38-1.96a14.1 14.1 0 0 1-.1-1.38c-.02-.2.1-.38.3-.44.54-.21 1.05-.42 1.62-.6.19-.07.35.01.5.2l1.14 1.34c.3.32.38.31.64-.05.24-.34.5-.65.88-.86.2-.1.2-.29-.03-.38-.43-.16-.86-.25-1.31-.4-.1-.03-.21-.03-.32-.07-.07-.03-.16-.12-.16-.18s.09-.15.16-.18c.82-.29 1.5-.56 2.23-.84.2-.09.3-.25.27-.46-.02-.27-.1-.5-.14-.76-.04-.24-.2-.42-.45-.45-1-.1-1.6.18-2.28.88a.62.62 0 0 0-.16.55c.12.02.22.02.31-.01.48-.14.8-.28 1.07-.45.18-.2.32-.4.42-.4.06 0 .17.25.2.34-.1.12-.2.24-.99.58a22.83 22.83 0 0 1-4.38 1.51c-.2.02-.19-.11-.14-.2.28-.49.6-1 .91-1.52.3-.18.38-.1.27.18-.09.21-.2.4-.33.62-.03.2.06.25.18.23a1.68 1.68 0 0 0 1.24-1.49c0-.25-.12-.34-.38-.33-.38.03-.8.06-1.17.17-.7.18-1.12.67-1.35 1.31-.1.3-.16.6-.22.91-.06.33-.34.45-.63.61-.49.3-.74.24-1.16.32a6.9 6.9 0 0 0-1.05.24c0-.12-.03-.23 0-.3.24-.38.45-.75.7-1.1.35-.51.26-.8-.3-1a2.08 2.08 0 0 0-2.4.84c-.3.48-.52 1.05-.73 1.57-.13.31 0 .5.33.57.51.09 1.12-.1 1.58-.23-.03.15-.04.73-.09.85l-.3.65c-.19.32-.4.43-.75.26a15.8 15.8 0 0 1-1.57-.85c-.6-.35-1.18-.6-1.85-.6a.9.9 0 0 1-.2-.02c-.22-.05-.23-.12-.1-.26.17-.17.18-.34.08-.55l-.69-1.28a3.5 3.5 0 0 1-.33-.75c.17-.03.8.18.8.3.05.7.26 1.2.63 1.64.28.28.54.1.57-.18.05-.37-.45-.97.2-2.35.28-.62 1.14-1.68 1.7-1.68.3 0 .55.13.73.57.1.2.17.68.26.88.08.2.18.3.4.28.54-.07 1.29-.4 1.9-.48.39-.06.69.91.88 1.26.3.52.44.97.78.41.58-.8.85-1.7 1.47-1.98A4.33 4.33 0 0 1 39.05.5c.27.03.35.13.29.4-.05.16-.06.33-.1.5-.06.19.11.26.32.1.29-.17.5-.4.7-.66C40.78.28 41.3 0 42.32 0c.48 0 .85.1 1.28.25.33.12.38.17.29.5l-.29.96c-.1.44-.03.5.36.72.34.2.61.34.82.6a.7.7 0 0 0 .43-.15A5.17 5.17 0 0 1 47.06.79c.32-.18.4-.16.53.15.27.68.42 1.27.47 1.91.36-.42.78-.87 1.08-1.2C50.22.63 51.29.64 52.74 1c.36.1.08.46-.13.74l-.28.42c-.09.15-.16.16-.28.03-.18-.21-.36-.58-.54-.76-.33-.33-.91-.14-1.31.1a5.37 5.37 0 0 0-1.94 1.99 10.5 10.5 0 0 1-1.7 2.01c-.26.1-.26.09-.2-.18a7.15 7.15 0 0 0 1.18-3.71.89.89 0 0 0-.69.15c-1 .56-1.5 2.55-1.64 3.88-.03.28-.03.5-.28.64-.42.24-.58.34-1 .53-.1.02-.16 0-.25-.01.2-.88.06-1.5-.45-2.33-.09-.16-.2-.24-.39-.18-.1.06-.2.14-.43.32a3.77 3.77 0 0 0-1.18 2.89c0 .2.2.2.34.1.18-.15.27-.27.38-.46.25-.42.46-.86.7-1.28.04-.1.16-.17.25-.2.05.1.05.21.03.3l-.18.8a2.5 2.5 0 0 1-.8 1.1c-.07.1-.12.28.08.3.86.04 1.36-.06 2.1-.45.78-.4 1.3-.73 1.64-.69.23.03 1.4.37 1.5.45-.06.12-.15.16-.22.24-.12.1-.69.41-.94.62-.4.33-.54.48-.46 1.15.04.3.09.58.16.87.03.09.1.22.16.24.1 0 .2-.08.26-.15.33-.4.64-.84.97-1.24a.76.76 0 0 1 .2-.12c0 .08.02.15 0 .2-.07.49-.32.86-.62 1.22l-.2.25c-.26.37-.28.43-.02.8.3.44.35.93.25 1.4-.07.35-.18.87-.25 1.38-.63.29-1.27.7-1.8 1.06-.34.3-.4.54-.4.61.16.2.31.23.62.36.44.14 1.26-.03 1.41-.5.05-.11.1-.32.1-.51.16.03.3.03.34.16.16.5.3.84.62 1.17-.04.13-.1.23-.24.44-.19.31-.35.58-.62.52-.1-.01-.21-.04-.33-.04-.2 0-.4 0-.37.36.04.46.1.67 0 1.14-.06.26-.14.54-.4.53-.63-.05-1.04-.51-1.65-.5-.52.02-.88-.07-1.15-.2-.32-.17-.55-.35-.7-.44-2.53.42-5.32.93-7.49 1.4-.23.05-.22.2-.26.44-.12.55-.33 1.09-.42 1.64-.02.09.1.2.16.28.06-.06.15-.1.21-.18.13-.19.22-.41.37-.6.26-.28.94.02 1.06.4.1.23-.22.34-.2.6.02.22.34.42.34.7 0 .25-.1.41-.14.54.94.6 1.17 1.1 1.2 1.88.03.24.03.36.16.5.13.13.34.32.43.44.44.51.84 1.32 1.14 1.4.15.05.53.08.82.05l.06.16c-.1.23-.36.51-.6.59-.69.22-1.03-.81-1.4-1.4a5 5 0 0 0-.58-.77c-.3.33-.8 1.66-.76 2.29.2.85.7 1.69 1.03 2.3.23.38.68.51 1.12.68.37.13.64.2 1.02.09.2-.05.27-.06.36-.13l-.01-.77c.1-1.4.32-2.8.41-4 0-.32.24-.86.65-1.14.43-.3.6-.7.58-1.21a.95.95 0 0 1 .1-.5c.14-.28-.13-.28-.4-.32-.3-.05-.37-.16-.22-.43.28-.47.68-.87 1-1.32.2-.32.3-.55.37-.74-.08-.39-.05-.97.34-.99 1.27-.15 1.8-.04 2.61.57.05.08.06.2.06.3 0 .1.23.18.66.61.33.31.65 1.18.09 2.52.28.17.27.43.24.73-.02.26.06.3.3.39.3.1.46.28.71.9.22.6.87 2.17 1.25 6.02-.07 1.21-.28 2.1-.52 3.09.26 1.85.55 4.12.78 7.23.19 2.94.24 4.45.3 5.66.52.04.68.15.79-.29l.1-.41c.1-.29.39-.19.4-.03l.32.94c.07.27.15.44.25.7.35.48.5.06.5-.29.04-.3.04-.55.04-.82.06-.35.24-.37.37-.13l.46 1.09c.17.38.35.48.42.25.06-.31.07-.86.06-1.3-.07-.25-.18-.52-.22-.74 0-.3.24-.24.3-.15a34.9 34.9 0 0 1 1.63 2.13c.3.18.48-.13.4-.25-.02-.12-.17-.27-.17-.51.04-.38.4-.21.48-.07.33.33.55.76.74 1.11a.7.7 0 0 0 .3.15c.07-.1.1-.25.09-.35-.02-.12-.16-.4-.2-.53.14-.23.42.06.51.15.1.1.2.27.33.48.18.28.48.52 1.14.61.01.06.04.14.04.2-.09.06-.24.13-.64.2-.69.14-1.55.16-2.5.05a2.9 2.9 0 0 0-1.84.4c-.4.23-.8.2-1.27.18-.9-.04-1.8-.04-2.72-.06-1.9-.05-2.85.33-5 .44-.7 0-2.16-.36-2.16-.81 0-.31.18-.57.18-.73 0-.2-.04-.25-.22-.3-1.53-.27-3.04.08-4.43.34-1.18.18-1.8-.01-2.42-.5a3.13 3.13 0 0 1-.86-.91 12.22 12.22 0 0 0-2.39-2.27c-1-.8-2.27-2.25-3.06-3.25-.18-.21-.49-1.23-.6-1.52a3.06 3.06 0 0 1-.14-1.32c.12-.1.27-.22.38-.23.67-.02 1.5-.34 1.53-.54.07-.15-.04-.28-.17-.24-.35.06-.83.06-1.18 0-.2-.03-.44-.12-.53-.22.12-.15.2-.26.33-.33a3.51 3.51 0 0 0 1.56-.6.38.38 0 0 0-.04-.2c-.44-.02-.78-.02-1.27-.14a1.13 1.13 0 0 1-.48-.28c.13-.17.2-.23.36-.3.56-.18.97-.45 1.35-.8l-.01-.22c-.45-.01-1-.04-1.52-.16-.23-.12-.25-.14.01-.42.36-.09 1.02-.15 1.38-.27.27-.14.22-.37-.05-.45a8.2 8.2 0 0 1-1.3-.14c-.27-.24-.3-.26.05-.42l1.15-.24c.44-.15.37-.43 0-.54-.35-.04-.59-.12-.94-.18-.46-.23-.45-.25-.08-.4l.73-.2c.2-.05.4-.13.44-.28a.22.22 0 0 0-.02-.15c-.31-.09-.94-.03-1.22-.12-.1-.02-.2-.13-.26-.26l.27-.15c.34-.08.72-.23.99-.38a.87.87 0 0 0 .11-.25.65.65 0 0 0-.2-.1c-.36-.1-.57-.18-.93-.32-.2-.25-.19-.3.08-.41l.52-.14a3.33 3.33 0 0 0-.26-.52.52.52 0 0 0-.18-.18c-.3-.18-.73-.36-1.05-.57-.6-.37-1.23-.73-1.7-1.2a3.9 3.9 0 0 1-1.26-2.06c-.09-.5-.1-1.03-.01-1.52.06-.38.27-.78.47-1.14.08-.13.14-.25.06-.36-.3-.38-.55-.65-.93-1a1.58 1.58 0 0 0-.59-.3c-1.19-.21-1.92-.45-2.46-.38a1.9 1.9 0 0 0-.46.69c.1.4.3 1.02.31 1.53.44.05.96.2 1.5.5.43.28.53.43.7.96.37 1.2.47 2.73.73 4.37.23 1.56-.59 2.85-2.17 2.91-.86.04-1.56-.13-1.79-.71-.28-.82-.49-1.51-.76-2.33-1.12.28-2.3.66-3.5 1.24-1.05.5-1.91.98-3.02 1.43-2.11.87-4.44 1.4-6.53 1.4-1.1 0-2.33-.22-3.18-.56-.76-.3-1.03-.61-1.2-1.57a9.11 9.11 0 0 1-.04-2.46c.1-.8.23-1.36.78-2.86.24-.66.55-.97 1.06-1.23a5.6 5.6 0 0 1 2.76-.55c.33.02.76.07 1.06.2.6.22.69.7.71 1.3 0 .35.02.7-.01 1.05-.03.28-.02.39-.02.5.76.11 2.35.07 3.1-.1.62-.13.87-.23 2-.76.78-.35 1.84-1.14 3.07-1.78zM40.1 37.52c.07.15.24.9.24 1.16 0 .61-.05 1.17-.12 2.12-.1 1.24.03 2.5-.14 3.72-.07.6-.22 1.53-.17 2.35.01.33.06.42.25.46.6.14 1 .2 1.3.2.92 0 1.52-.42 1.44-.93a12.5 12.5 0 0 1-.43-3.44l.24-.02c.34 1.4.63 2.09.73 2.82.12.66 0 1.79.13 2.37 1.54.17 3.38.02 3.94-.1.14-1.26.1-2.55-.45-3.03-.23-.21-.92-.73-1.22-.93a6.89 6.89 0 0 1-1.64-1.82c-.66-1.04-.84-1.37-1.42-2.38-.54-.94-.9-1.75-1.27-2.3-.23-.37-.43-.6-.53-.7-.48-.15-.88-.2-1.4-.26-.65-.07-1.08-.14-1.45-.55-.32-.32-.45-.58-.26-1.01.1-.23-.03-.39-.2-.58-.19-.24-.14-.5.1-.68.57-.56 1.1-.84 1.85-1.04l-.12-.52c-.3.04-.63.13-1.23.13-.83 0-1.58-.34-1.88-1.43-.11-.39-.6-1.49-.74-1.98-.1-.3.01-.67.15-1.1-.26-.32-.48-.68-.7-.98-.45-.19-.99-.38-1.35-.82-.15-.18-.22-.19-.35-.1-.12.09-.15.22-.32.37-.16.14-.49.15-.8.02-.3-.12-.45-.43-.44-.73.03-.4.23-.75.05-.91-.31-.33-.6-.7-.23-.96.1-.09.33-.07.47-.14a1 1 0 0 0 .48-1.12c-.08-.33-.26-.48-.59-.51-.47-.03-.68-.27-.68-.58 0-.4.35-.57.67-.5.13.03.31.1.42.2.03.15.1.36.22.34.54-.06.96-.62.96-1.15 0-.18-.12-.27-.47-.19-.64.1-1.44.34-2.23.61-.44.15-.5.5-.26.9.08.09.14.2.2.3.1.16.06.28-.1.37l-.2.15c-.24.18-.27.38-.12.65.04.1.1.17.18.24.18.16.18.3.01.5a.76.76 0 0 0-.16.81c.07.23.25 1.53.25 1.78-.01.67.12 1.34.08 1.97-.03.46.2.86.64 1.36.48.53.83 1.01 1.48 1.64.77.73 1.19 1.6 1.26 2.67.03.5.27.68.75.94 1.01.28 1.36.85 1.48 1.62.2 1.37-.47 2.7-1.7 2.58-.63-.06-.94-.44-.94-.77 0-.35.18-.7.47-.8.05-.02.23 0 .27 0a.6.6 0 0 1 .03.22c0 .09-.12.14-.16.32-.03.12-.03.36.09.51.13.17.36.23.6.15.28-.09.47-.33.6-.58.57-1.03.28-2.25-.81-2.52-.35-.1-.85-.15-1.17.04-.68.42-1.26.66-1.83 1.18a.44.44 0 0 0-.14.33 55.93 55.93 0 0 0 .48 6.8c0 .49.36 1.1.5 1.18.4-.29.5-.58.85-1.13.17-.1.25-.04.3.11-.01.51-.11 1-.05 1.44.03.13.18.25.28.34.24-.22.25-.55.35-.8.27-.28.33.03.34.11-.02.33 0 .63.03.8.01.13.13.16.24.19.29-.58.66-1.1 1.13-1.42.28-.2.46-.03.3.25a7.09 7.09 0 0 0-.64 1.69 1 1 0 0 0 .28-.03c.06-.02.15-.04.18-.2.2-.5.31-.56.54-.2.1.34.25.58.45.68.3-.08.32-.44.44-.7.32.02.34.37.5.54.11.09 1.02.12 1.19.1l-.03-.53c-.02-1.06 0-1.91.07-2.96.08-1.1.2-2.23.26-3.2.04-.8.14-2.02.2-2.97zm14.98-20.44c-.24-.04-1.24-.1-1.51-.1-.22 0-.82 0-.84.31 0 .09.12.25.26.34.73.5 2.77.59 3.6.45.02-.2 0-.43-.07-.61-.2-.61-.95-1.15-1.64-1.37a5.65 5.65 0 0 0-2.22-.08l-.14-.37c.24-1.08.21-2.08.06-2.87-.09-.44-.2-.65-.44-1-.14-.2-.3-.19-.48-.04-.12.1-.24.23-.45.5-.69.84-.66 1.4-.54 2.66.08.06.17.12.4.12.22 0 .32-.1.35-.4.02-.42.12-.86.18-1.25.1.03.28.15.3.22.04.65-.17 1.33-.33 1.94.04.07.52.28.45.48-.06.15-.8.34-1.32.38a2.64 2.64 0 0 0-1.23-1.01c-.3-.12-.63-.22-.38-.42l.4-.16c.7-.29.47-.69.44-1.37-.03-.26-.13-.33-.37-.32-.35.02-.58.05-.87.2-.52.32-.92.85-1.3 1.28-.07.07-.22.04-.34.04.2-.63.46-1.32.66-1.88.07-.2.16-.4.38-.35 1.08.25 2.18.04 2.94-.72.32-.34.32-.5-.09-.79a2.54 2.54 0 0 0-2.3-.5c-.33.13-.55.32-.6.66-.03.2.97-.08 1.32-.05.1.01.17.1.24.15-.64.28-1.38.42-2 .6-.2.05-.28 0-.31-.2a.87.87 0 0 1 .31-.88c.47-.4.84-.87.94-1.5.06-.34-.22-.85-.37-1.14-.02-.08.02-.14.03-.2.39.1.94.36 1.27.6a2.83 2.83 0 0 0 1.97 2.18c.35.12.71.25 1.09.36.34.1.6.01.58-.36l-.02-.5c.3-.13.64-.23.72-.22.57.08 1.15.36 1.74.55.4.2.2.34-.08.3-.44-.07-.87-.2-1.29-.3-.27-.06-.49.06-.53.32.18.32 1 .7 1.3.82.44.16 2.1.35 2.08-.1a5.86 5.86 0 0 0-.2-1.32c-.1-.37-.42-.58-.77-.67a9 9 0 0 0-2.22-.26c-.18 0-.5.1-.8.26L52.95 9c-.16-.67-.48-.83-.98-1 .03-.2.03-.33.03-.54.44-.25.98-.67 1.19-1.02-.18-.17-.5-.26-.67-.32-.68-.24-.75-.5-1.21-.7a3 3 0 0 0-1.08-.27c-.34-.01-.8.08-.9.21-.05.09 0 .23.2.37.3.23.93.4 1.24.62.2.11.1.16-.03.18a3.09 3.09 0 0 1-1.22-.35c-.23-.12-.3-.22-.47-.28-.3-.1-.35-.02-.55.33-.15.25.03.38.24.5.72.4 1.25.63 2.16.73.1.1.12.27.15.47-.9-.12-1.2-.13-1.76-.33-.89-.48-1.6-.86-2.46-1.14-.16-.07-.22-.17-.04-.28.9-.54 1.76-1.2 2.67-1.7.13-.07.34-.04.5-.01.44.08.59.22 1.03.35.26.1.51.17.56-.07.13-.66.34-1.15.53-1.43.4-.61.97-.93 1.72-1.4C54.08.97 55 0 55.33 0c.9 0 1.8 1.63 1.98 2.24.12.44-.6.82-.12.82.42 0 .81.07.81.43 0 .63-.18 1.27-.5 1.73-.34.46-.7.96-1.16 1.27l.03.16c.78.58 1.63 1 1.63 1.88 0 .47-.13.8-.4 1.03-.21.18-.38.36-.36.63.03.61.07.95.03 1.55-.03.4-1.25.48-1.42.66a5 5 0 0 1-.34 3.04l.25.46c1.24.87 1.4 1.66 1.58 2.34-.34.33-.9.61-1.1.61-.8 0-2.57-.6-2.92-.65-.14.25-.06.48.12.98.16.45.46.76.46 1.18 0 .2-.03.52-.6.61a4.02 4.02 0 0 1-2.67-.73c-.16-.09-.3-.2-.46-.27-.27-.15-.61-.04-.7.27l-.18.6c-.1.33-.27.36-.72.27-1.27-.27-1.86-1.64-1.86-2.85.06-.25.26-.15.3-.03.08.59.34 1.16.53 1.64.24.46.54.71 1.04.77.1 0 .24-.19.36-.4.27-.57.52-.95.44-1.62-.03-.23-.1-.56-.27-.77-.08-.1-.21-.17-.36-.3.07-.11.18-.23.27-.2.56.2.98.2 1.33.01.22-.12.32-.27.47-.46.48-.12 1.27-.3 1.93-.39.9 0 1.7.12 2.37.42zM20.85 39.02c.48 0 1.06.24 1.05.76l-.1.26a.27.27 0 0 1-.12-.03c-.18-.39-.47-.61-.94-.52-.44.09-.82.31-1.1.62-.19.2.2.32.44.45l.5.3c0 .26-.68 2.16-.34 2.22.86.15 2-1.03 2.12-2.7-.03-.6.31-.9.97-1.12.78-.3 1.15-.65 1.02-1.5-.06-.42.18-.3.41-.65l.26-.28c.04.12.13.4.1.52-.18.69-.04 1.23.3 1.85l.64 1.66c.15.16.29.03.44.2.55 1.11 1.17 2.77 2.01 3.48.69.57 1.42 1.57 2.07 2.17.38.34.64 1.19 1.12 1.35.34.12.33.3.28.61-.06.38.1.45.24.45.23-.03.45-.09.69-.1.52.11.4.46.02.52-.26.03-.51-.02-.77-.02-.09.02-.18.06-.27.1.03.1.07.2.14.26.42.23.72.26 1.13.35.08 0 .14.06.23.09-.03.07-.12.23-.2.27-.13.02-.3.02-.46 0-.37-.08-.71-.24-1.06-.4-.12-.04-.2-.17-.31-.25-.09-.04-.2-.06-.3-.09 0 .12-.04.23-.03.33.08.16.25.44.18.5-.03.05-.27.2-.34.16-.3-.14-.54-.48-.82-.64-.36-.23-.69-.23-1.03.01-.35.24-.66.45-.99.64-.41.27-.85.7-1.34.7-.27 0-.94-.41-1.24-.5-.56-.18-.74-.2-1.34-.33-.5-.12-.94.07-1.45.24-.62.19-1.3.27-1.97.39-.38.07-.82 0-1.22-.02-.6-.02-1.18-.07-1.77-.06-.4 0-.82.07-1.2.2-.18.05-.37.08-.53.08-.27 0-.53-.07-.78-.24a1.14 1.14 0 0 0-.85-.16c-.28.06-.83.16-1.06-.05-.28-.28-.95-.84-1.33-.77-1.19.2-1.76.88-2.92.57-.82-.21-1.36-.4-2.16-.14-.2.08-.72-.04-.93-.01-.3.04-.4-.02-.36-.32l.03-.16c.05-.31-.25-.54-.55-.43-.33.1-.52.44-.83.6-.57.28-1.1.2-1.72-.04-.42-.18-.85-.1-1.25.1-.26.14-.68.75-.96.75-.1 0-.25-.16-.3-.3v-.29a2 2 0 0 1 .66-.61 3.75 3.75 0 0 1 2.28-.3c.36.06.75.1 1.09-.04.27-.12.55-.14.8-.27.45-.24.84-.45 1.35-.27.37-.17.57-.29.76-.57.09-.45-.07-.92.04-1.36.1-.4.27-.9.4-1.28.08-.2.22-.18.35-.16.36.53.8 1.03.58 1.52-.15.34.63.58.5.92-.13.26-.07.42.19.45l.2.02c.23 0 .24-.15.23-.44.01-1.64-.52-2.78-1.08-4.07-.23-.5-.19-1-.01-1.5l.34-1.02c.18-.48.58-.9 1.03-1.08.06-.01.23.06.27.14.73 1.03 1 2.28.64 3.52-.1.37-.18.76-.25 1.16-.02.1.01.2.03.3.07-.06.16-.12.22-.2.36-.54.73-1.07 1.02-1.65.28-.56.74-.79 1.32-.9.63-.13.81-.05.65.56-.1.36-.21.72-.33 1.04a2.07 2.07 0 0 1-1.06 1.29c-.36.2-.69.47-1 .7-.12.16-.15.15-.02.31.12.15.3.06.45-.03.59-.43 1.2-.77 1.8-1.1.22-.1.29-.02.27.24-.03.3-.07.71-.37.82-.33.11-.77.16-1.06.3a2 2 0 0 0-.5.43c-.2.3-.2.5-.36.82-.03.07 0 .19.01.3.1-.04.2-.04.27-.08.39-.28.6-.6.99-.9.3-.23.37-.2.49.17.04.12.13.22.25.33.12-.08.25-.15.34-.27.35-.52.57-1.56 1.03-2.25.08 0 .18.06.24.09.1.23-.03 1.02-.01 1.19.01.48.16.58.6.36.34-.17.65-.35.98-.53.36-.18.65-.04.44.24-.11.17-.28.3-.38.48-.06.1-.05.27-.06.4.1 0 .24.02.34-.03.27-.07.52-.19.78-.3.35-.16.71-.11 1.1 0 .37.13.75.22 1.1.32.29.07.61-.06.87-.18a9.28 9.28 0 0 1 1.58-.61 5.1 5.1 0 0 0 1.97-1.13c.13-.14.33-.21.48-.35.12-.1.22-.57.23-.72.1-.4-.06-1.34.02-1.76.05-.1.13-.32.2-.43l.17.05c.05.15.12.38.12.5-.03.72-.04 2.32-.12 3.02 0 .16-.28.42-.44.48-1.26.46-2.53.94-3.8 1.3-.57.16-1.2.07-1.8.08-.48 0-.95-.07-1.42-.04-.37.03-.9.37-1.28.43-1.04.16-1.94.09-2.97.28-.95.18-1.86.44-2.77.69-.24.07-.37.14-.57.28-.07.06-.09.17-.12.24.1.05.2.12.3.1.23-.02.42.05.66.02.56-.09 1.12-.15 1.7-.2.12 0 .28.08.39.16.28.19.56.25.88.18.34-.08.64.01.94.23.52.42.65.44 1.25.1.46-.25.97-.25 1.48-.22 1.14.06 2.2.23 3.23.42a2.2 2.2 0 0 0 2.12-.82c.29-.37.57-.73.8-1.09.19-.25.4-.42.7-.42.64-.01 1.3-.16 1.93-.12.36.03.53.36.53.57-.02.21-.1.34-.35.33-.49-.03-.97-.06-1.44-.12-.5-.04-.9.1-1.2.48-.16.18-.12.3.12.36.1.01.23.06.34.07.26.03.38.15.45.39.05.15.36.3.88.33.67.04 1.02.04 1.6-.15.24-.08.4-.36.57-.57.38-.55.64-.69 1.32-.55.48.09.8-.42 1.23-.39.79.1-.1-1.49-.6-2.01-.69-.51-1.24-1.52-1.84-2.27-.44-.55-.97-.76-1.35-1.43-.73-1.21-1.33-2.69-2.14-3.66-.32-.33-1.01-.1-1.35.08a.95.95 0 0 0-.4.28c.98.83 1.02 1.98.68 2.83-.1.27-.2.26-.48.15-.25-.09-.53-.2-.77-.31-.17-.09-.32-.05-.5.06-.74.45-1.65 1.06-1.8.91-.3-.3-.78-1.2-.75-1.66.02-.38.15-.7.29-.91a7.5 7.5 0 0 1-.96-.62l-.01-.33c.62-.6 1.46-1.18 2.11-1.18zm-18.72-8.7c.08.59.33 1.07.9 1.29.82.34 1.9.54 2.82.55 1.09.03 2.28-.06 3.56-.3a23.2 23.2 0 0 0 5.76-2.01 15.94 15.94 0 0 1 3.5-1.33 7.92 7.92 0 0 1 3.87-.1c.57.13.69.13.61-.28-.04-.27-.12-.54-.16-.82-.14-.96-.1-1.86-.46-2.68a1.11 1.11 0 0 0-.53-.49 3.16 3.16 0 0 0-.92-.28 6.5 6.5 0 0 0-1.94 0 9.74 9.74 0 0 0-2.92.9c-1 .49-2 1.04-2.75 1.49a7.9 7.9 0 0 1-4.06 1.17c-.95 0-1.58-.03-2.53-.13a9.04 9.04 0 0 1-3.73-1.03c-.26-.13-.4-.09-.5.18a8.37 8.37 0 0 0-.5 3.86zm44.49 10.5c-.33.05-1.02.14-1.42.16a1.9 1.9 0 0 1-.39-.05c.06-.12.1-.16.17-.19.49-.25 1.01-.48 1.37-.76.2-.15.16-.3.1-.43-.67.3-1.3.43-2.01.55-.05 0-.08-.05-.1-.08.55-.41 1.28-.74 1.68-1.1.27-.22.07-.28-.02-.37-.58.2-1.16.39-1.77.56a.7.7 0 0 1-.28-.03c0-.12.12-.17.22-.23a9.33 9.33 0 0 0 1.7-1.12l-.03-.15-.2-.02c-.47.08-1.51.23-2.08.29-.28 0-.23-.16-.18-.2.45-.2.8-.44 1.13-.79.12-.13.1-.25.06-.31-.54.25-1.16.26-1.52.3-.07-.09.02-.2.06-.24.44-.17.53-.31.76-.46.15-.1.47-.32.54-.44.03-.04.02-.16-.01-.2a7 7 0 0 1-1.33.32.67.67 0 0 1-.24-.04c.04-.1.06-.18.12-.21.62-.32.95-.45 1.39-.72.13-.09.25-.28.3-.39l-.04-.06c-.5.16-1.01.33-1.53.47-.1-.02-.15-.08-.24-.15a.61.61 0 0 1 .18-.18 8.17 8.17 0 0 0 2.83-1.63c.24-.2.45-.43.54-.61l-.07-.12c-1 .7-1.97 1.31-3.12 1.76-.23-.02-.18-.16-.1-.22.1-.1.4-.44.64-.76a9.03 9.03 0 0 0 2.62-1.51c.06-.06.09-.23.05-.34-.51.23-1.29.67-1.97.92L44.3 32c.03-.12.09-.23.16-.35.46-.3 1.12-.77 1.64-1.34.02-.07.05-.16 0-.24-.43.23-.91.4-1.35.55-.15-.1.03-.36.05-.42.63-.52.93-.86 1.24-1.3.06-.1.06-.19 0-.35-.35.25-.85.4-1.24.55l-.11-.03c-.02-.13 0-.1.04-.2.46-.42.85-.75 1.13-1.23.03-.05.02-.18-.03-.27-.38.13-.67.24-1.08.34a.32.32 0 0 1-.14-.03c.02-.13 0-.16.05-.26.28-.24.56-.57.82-.96.07-.1.06-.2.01-.27-.2.05-.56.1-.74.12-.08.02-.18-.07-.23-.16l.7-.5a.6.6 0 0 0 .12-.19c-.09-.04-.16-.09-.22-.07-.3.04-.58.07-.88.13-.66.14-.66.23-.72.42a14.63 14.63 0 0 1-.73 2.18c-.09.2-.2.39-.4.47-.28.14-.22.29-.3.56-.12.54-.2.5-.42 1.03a2.9 2.9 0 0 1-.62 1h-.15l-.05-.75c-.06-.5-.16-.39-.24-.9-.05-.45.06-.93.12-1.32.05-.45.1-1.23.1-1.67-.04-.03-.08-.1-.14-.14a.42.42 0 0 0-.14.2c-.09.34-.25.88-.3 1.23-.11.82.06 1.61 0 2.44a9.3 9.3 0 0 0-.1 2.58c.27-.03.25-.06.63-.21.5-.2.86-.27 1.37-.72.36-.31.3-.92.43-1.42.17-.6.4-.82.64-.92.07-.02.14.01.21.03-.14.34-.22.52-.35.88-.12.31-.24.82.1.88l.25.04c.02.06.02.15-.03.2-.32.31-.58.68-2.05 1.1-.17.05-.54.5-.56.67-.03.23-.03.5.02.88.15 1.47.88 2.85 1.7 4.21.69 1.16 1.2 2.04 1.95 2.8.35.32.72.56 1.3.29.31-.15.7-.39.8-.48.05-.06.06-.16.05-.25zm-20-21.16c.04.58-.07.73-.81.54-.78-.24-1.14-.16-1.64-.73-.3-.35-.68-.35-1-.02-.15.18-.26.36-.5.4-.04-.08-.09-.19-.06-.28.08-.34.29-.6.61-.76.23-.12.51-.2.75-.27.69-.27 1.03-.68 1.03-1.49 0-.46.14-.92.14-1.4 0-.34-.12-.45-.45-.34-.57.22-1.1.44-1.67.68-.2.08-.32.2-.4.38-.16.3-.26.6-.4.9-.13.17-.24.09-.28.02-.27-.43-.6-.88-.88-1.25-.25-.3-.25-.4.03-.61l.93-.81c.46-.43.64-1 .69-1.64v-.87c-.02-.38.06-.49.44-.44.27.03.54.1.76.22.42.18.84.42 1.26.64.22.14.38.33.4.61.01.33-.2.54-.5.42a9.2 9.2 0 0 0-1.41-.49c-.24-.06-.48.07-.52.3-.1.55.37.58.33.73-.12.39-.75.5-.84.86-.07.33-.07.54.22.48.79-.16 1.56-.65 2.17-.9.52-.22.79-.14.86.44.28 1.7.54 3.16.73 4.68zm12.3-5.4c.15.04.34.13.46.24.29.67.91 1.42 1.69 1.82.25.13.5.18.7.2.07-.3.2-.8.2-1.35 0-.43-.13-.9-.53-1.3a5.2 5.2 0 0 0-1.2-.9.51.51 0 0 0-.59.05c-.01.1-.01.25.05.34.19.33.65.63.85.94.07.32.05.3-.21.2a5.05 5.05 0 0 1-1.43-1.25c-.23-.26-.38-.26-.54.02a4.84 4.84 0 0 0-.72 2.15 2.2 2.2 0 0 0 1.2 2.3c.37.16.64.12.82-.23.19-.35.32-.65.44-1.04.06-.2.06-.28-.09-.46a6.61 6.61 0 0 0-.6-.67.87.87 0 0 0-.3-.24.4.4 0 0 0-.08.25c.01.31.06.63.07.94 0 .08-.01.2-.06.27a.61.61 0 0 1-.34-.4c-.2-.74-.17-1.39.21-1.88zM4.36 3.37l.58.69c.24.45.37.86.49 1.22.1.36.25.36.48.2.2-.15.36-.4.34-.7a2.33 2.33 0 0 0-.13-.63c-.2-.78-.06-1.44.62-1.93.23-.16.4-.42.31-.7-.1-.39-.19-.76-.34-1.12-.06-.16-.28-.2-.43-.12-.76.4-1.66 1.55-.97 2.51.03.06-.01.24-.06.34-.63-.63-1.87-1.91-2.24-1.88-.1.18-.18.55-.1 1.3.09.73.28 1.48.83 2.5.14.23.27.37.47.53.13.12.4.25.6.25.07-.16.08-.42.04-.6-.19-.68-.37-1.2-.6-1.83zm50.5 2.88c.53-.1.96-.25 1.16-.33.86-.33 1.43-.88 1.62-1.82.06-.25-.09-.39-.36-.46l-.56-.15c-.55-.16-.66.07-.87.6-.16.4-.33.86-.76 1.2-.13.11-.58-.22-.7-.3.84-.5 1.39-1.3 1.8-2.26.1-.18 0-.36-.19-.42-.27-.09-.55-.12-.86-.09a4.31 4.31 0 0 0-3.1 2.31c-.04.1 0 .33.07.36.12.05.42.02.55-.03.08-.01.12-.12.17-.2.35-.62.94-1 1.62-1.3.2-.1.27-.03.16.2-.13.17-1.35 1.03-1.38 1.15-.16.35.08.4.28.4l.37-.1c.13.64.52 1.06.97 1.24zm-18.5-.1c-.02.3-.13.47-.4.37-.56-.24-.9-.85-1.53-1.06-.23-.08-.37.13-.4.34-.1.64-.2 1.21-.2 1.45 0 .88.47 1.36.94 1.83.14.12.14.2-.01.27l-1.93 1.08c-.18.12-.4.15-.6 0-.19-.17-.25-.38-.19-.59.23-.97.39-1.97.64-2.92.4-1.5 1.05-2.01 2.14-2.15.39-.06.68-.06.98-.06.32 0 .46.06.5.35.04.2.05.42.05 1.09zm1.46 6.63c0-.73-.59-.94-.84-1.56-.24-.61-.46-.61-.95-.17-.56.53-.9.99-1.1 1.75a4.2 4.2 0 0 0 .02 2.1c.05.21.17.45.4.38a.4.4 0 0 0 .29-.4c0-.62.06-1.22.37-1.62.14-.18.2-.22.28-.27.1.15.06.33.06.36-.09.46-.16.93-.26 1.39-.06.31-.06.48.1.76.18.28.33.31.45.12.57-.91 1.18-2.22 1.18-2.84zM6.6 14.8a5.6 5.6 0 0 0-.4-1.8c-.24-.57-.6-.9-.84-.9-.22 0-.73.6-.9 1.09-.44 1.23-.2 2.23.51 3.41.1.15.3.43.57.15.22-.25.39-.43.6-.7.28-.33.47-.8.46-1.25zm26.94 19.3c-.13-1.03-.9-2.03-2.2-2.9-.27-.11-.3.07-.3.3.13 1.43.3 2.87.48 4.14.05.28.18.36.44.22.39-.18.76-.37 1.13-.58.34-.2.55-.39.45-1.18zm11.77-11.7c-.2-.5-.54-.71-1.04-.75-.5-.06-.92-.13-1.45-.21-.3.04-.5.28-.67.68.01.08.04.18.1.2.17.06.48.12.52.15.06.04.26.25.3.41-.04.14-.22.29-.45.33-.3.06-.3.3-.25.61.04.3.15.55.39.87.2-.12.3-.17.45-.33a.68.68 0 0 0 .2-.58c-.04-.65.32-1.12.77-1.55l.1.06c-.07.37-.27.64-.31 1.01-.1.76-.35 1.4-1.1 1.91.23.3.8.08.98-.1.31-.29.56-.63.68-1.06l.12-.38a.3.3 0 0 1 .1.03c.15.28-.06.85.04 1.26a.94.94 0 0 0 .37-.3c.28-.66.42-1.64.15-2.25zM54.73 7c-.13 0-.65.01-.8.04-.12.03-.18.31-.12.36.15.1.24.18.36.22.47.05.68.05 1.22.14.09.01.2.06.27.15-.05.04-.1.11-.2.13-1 .12-1.3.1-2-.37-.19-.08-.26.06-.2.24.1.34.38.62.9.83.41.18.81.4 1.23.39.64-.02 1.1-.06 1.63-.15.28-.04.56-.2.6-.34.05-.14 0-.45-.16-.65l-.38-.38c-.6-.63-.99-1.03-1.88-.94-.12.01-.3.33-.47.33zm.62 6.66c0-.37-.05-.64-.15-.97a1.7 1.7 0 0 0-1.48-1.22c-.37-.01-.55.06-.4.4.04.12.37.47.5.75.17.34.33.69.33.99a1 1 0 0 1-.09.4c-.22-.12-.34-.39-.39-.52-.1-.32-.12-.51-.22-.69-.09-.16-.2-.2-.25-.2-.14 0-.2.05-.21.24a2.87 2.87 0 0 0 1.57 2.87c.28.1.35.03.44-.22a6 6 0 0 0 .35-1.82zM6 9.8c-.14.53-.17.88-.15 1.18.01.38.2.7.55.86a6.7 6.7 0 0 0 3.33.52c.04 0 .15-.07.15-.1-.03-.23-.15-.27-.36-.33-.47-.16-1.73-.5-1.9-.7-.13-.18-.07-.37.14-.4.18-.02.37.01.55.09.31.15.58.35.9.53.1.06.22.17.34 0 .09-.15.18-.28-.02-.43l-.74-.58c-.64-.51-1.6-.75-2.8-.64zm22.87 8.28c-.05.11-.15.22-.26.35-.12-.12-.24-.2-.3-.33a24.03 24.03 0 0 1-1.2-4c-.02-.26.08-.35.3-.34.57.06 1.07.32 1.57.58.08.06.14.23.15.35.1 1.13-.04 2.4-.26 3.38zm-24.63 2.3l-.08-.04c.05-.68.4-1.65.27-1.9a1.4 1.4 0 0 0-.69.07c-.24.1-.34.34-.39.74-.06.89.08 1.8.27 2.6.06.3.18.33.4.12.57-.52 1.11-1.18 1.54-1.69.3-.39.35-.76.23-1.13-.1-.31-.31-.43-.54-.43-.25 0-.34.19-.4.38-.14.49-.37.84-.61 1.27zm46.18-2.05c.45 0 .82.09.94.13.54.2.78.44.88.63.1.18.1.27.1.36a.97.97 0 0 1-.89-.18c-.48-.45-1.18-.64-1.6-.45.03.31.33.7.58.9.84.65 1.58.76 2.48.55.15-.06.21-.27.2-.45-.03-.58.01-1.2-.54-1.7-.6-.57-1.46-.55-2.05-.3-.1.05-.25.12-.32.2.01.07.09.22.22.3zM29.62 2.48c.18-.04.1.04.05.2-.1.51-.4.91-.76 1.27-.2.18-.24.46-.1.6.26.24.56.03.76-.16.4-.45.65-1 .88-1.54.28-.67.22-1.5-.1-2.06-.17-.24-.43-.27-.63-.09a3.47 3.47 0 0 0-1.22 2.4c0 .13.01.37.1.42.46-.2.74-.7 1-1.03zm12.2 24.2c.05-.04.13 0 .16.02 0 .54.13 1.19.2 1.38a.62.62 0 0 0 .2-.14l.15-.73c.34-1.03.09-1.85-.34-2.79-.08-.18-.2-.2-.38-.12-.13.06-.24.15-.13.33.1.15.09.27 0 .42-.14.27-.24.56-.39.88-.06.2-.07.36-.09.6l-.15 3.7c.06.2.18.16.25.04.08-.2.14-.39.18-.6.1-.58.27-.6.3-1.18.05-.6.05-1.2.03-1.8zM7.94 3.83c-.01-.06 0-.2.02-.23l.62.1c.3.06.45.02.55-.21.17-.44.08-.84-.38-.93-.7-.13-1.4.1-2 .24-.39.13-.48.54-.2.82.45.43.88.86 1.35 1.24.38.31.83.39 1.27.3.2-.05.37-.18.37-.36a.5.5 0 0 0-.15-.36 1.35 1.35 0 0 0-.35-.2zm-.63 26.93c-.04.2-.13.37-.46.35a4.12 4.12 0 0 1-.9-.13c-.32-.09-.41-.21-.43-.33-.1-.6-.04-1.42.1-1.98.04-.1.38-.3.52-.38.43.05.77.12 1.08.2.12.07.36.43.38.48.06.19.06.4.06.6-.12.5-.27.93-.35 1.19zm33.4 18.05c.8.3 1.42.39 1.66.34.25-.05.4-.29.37-.54-.01-.22-.12-.4-.4-.48-.61-.13-1.24-.22-1.82-.43-.34-.1-.6-.09-.9.14-.46.35-.9.53-1.47.64a.7.7 0 0 0-.37.13c-.16.21-.12.36.13.5.99.09 1.92-.1 2.8-.3zM44 50.77c.5 0 .87-.1 1.21-.32a3 3 0 0 1 1.45-.64c.22-.04.44-.27.46-.45 0-.25-.2-.28-.37-.34-.48-.15-1.05-.13-1.54-.25-.16-.03-.39-.03-.52.07-1.03 1.04-1.23.8-1.72 1.31-.13.17-.13.38.23.47.28.07.64.13.8.15zm-17.12-39.1c0-.26.46-.66.71-.62.05.02.1.05.14.1l.1.54c.03.21.1.4.21.4.52.04 1.13-.32 1.42-.77.31-.48.53-1.03.79-1.55.24-.57.61-.22.48.13-.33.99-.74 2-1.06 2.97-.1.36-.15.38-.5.26l-1.65-.59a.85.85 0 0 1-.64-.87zm12.66 24.68c.27.13.25.08.61-.12a.82.82 0 0 0 .32-.58l-.1-2.17c0-.07-.1-.18-.14-.18-.3 0-.66-.06-.9.07-.46.25-.85.61-1.27.94-.16.16-.01.32.23.3.2-.08.43-.18.63-.29l.38-.2c0 .07-.01.13-.04.18-.36.4-.63.88-1.12 1.14-.13.02-.1.34.09.35.15-.02.45-.18.55-.26.3-.24.43-.39.73-.64.1.15.17.27.02.4l-.8.72c-.12.12-.03.24.11.22.21-.03.4-.12.57-.22.2-.13.37-.31.55-.5.01.02.12.13.1.14-.15.23-.32.45-.52.7zM13.95 11.2c-.12 1.21-.42 2.43-.96 2.98-.44-.84-.74-1.82-1.04-2.68.24-.3.54-.75.67-1.1.06-.17.16-.2.31-.08.36.33.67.6 1.02.88zm1.43 17.24a1 1 0 0 1-.55.69c-.21.1-.55.25-.94.25-.18 0-.31-.04-.34-.2-.1-.56-.23-1.08-.32-1.62-.01-.13.1-.3.21-.4.35-.33.8-.42 1.27-.45.1 0 .43.14.48.23.1.5.15.95.19 1.5zm-4.37-6.47c-.64.1-1.2.67-1.1.9.01.5.11.98.38 1.41.17.25.3.31.56.14a4.8 4.8 0 0 0 1.92-1.96c.12-.24-.13-.31-.37-.43-.32-.15-.66-.15-.84-.06-.18.09-.25.28-.28.43-.2.73-.24.75-.46 1a1.94 1.94 0 0 1 .19-1.43zm4.33 27.45c.04-.08.06-.14.13-.15.12-.02.4-.02.43 0 .57.16 1.1-.25 1.63-.33.12-.01.25-.03.39-.01.35.01.7.02 1.09-.08.16-.06.37.02.55.1.61.27 1.2.42 1.79.07.31-.21.62-.4.95-.57.55-.21.6.15.62.36a.52.52 0 0 1-.3.31c-1.9.68-3.54.69-5.67.43a4.8 4.8 0 0 1-1.61-.13zm-11.9-20c-.04.26.04.65.25.86l.09.09-.05.16a4.5 4.5 0 0 1-.98-.13c-.14-.05.25-.26.28-.5.07-.49.2-1.3.2-1.89 0-.1-.25-.2-.25-.3a.36.36 0 0 1 .12-.2c.7.17.8.16.94.49.14.3.27.8.48 1.16.04-.02.1-.04.13-.07.03-.33.02-.81.03-1.03.02-.18.1-.27.29-.27.15 0 .52.01.67.04.02.03.02.06.02.1 0 .1-.12.13-.15.14-.33.12-.35.15-.5 1.07l-.16 1.06c-.02.08-.04.24-.09.35-.09.01-.25 0-.28-.08-.23-.56-.53-1.16-.82-1.67l-.1-.01c-.08.22-.08.43-.13.64zm22 4.93c.03-.2.03-.42 0-.61-.12-.34-.27-.67-.22-.97.15-.52.26-1.06.21-1.6a6.74 6.74 0 0 1 .06-2c.18.06.32.18.36.3.05.21.1.42.1.61.07.57.02 1.12-.01 1.67-.09 1.08-.18 2.08-.15 3.14.02.16.05.37.1.52.14.33.07.67-.19 1.04l-.16-.07c-.12-.45-.42-1.06-.55-1.54-.02-.09 0-.16.12-.18.2-.04.33-.16.34-.3zm10.4-7.95c-.44-.04-.89-.43-.86-1.13-.22.3-.49.6-.73.71.02.24.61.58 1.02.75.23.31.4.46.7.8.18-.46.4-.85.47-1.1a3.55 3.55 0 0 0-.35-1.63c-.33-.37-.85-.68-1.36-1.01-.25.27.07.85.69 1.2-.14.38-.12.96.49 1.3zm-29.9-1.07c.31-.02.64-.07 1.01-.12.24-.06.51-.12.52-.42.02-.27-.3-.42-.52-.48a4.76 4.76 0 0 0-3.15.31c-.26.15-.49.3-.64.46-.24.26-.19.42-.01.56.2.15.49.31.86.4.05-.22.1-.58.17-.8.34-.56 1.3-.66 1.97-.68.16.03.16.23.03.27-.19.15-.57.12-.67.28 0 .17.16.23.43.21zm2.14 5.8c-.01-.12.13-.27.14-.35.03-.16.03-.38.03-.55.02-.43-.07-1.13-.07-1.55l.23-.15c.08-.03.14.02.23.1.2.2.65.7.86.89.02 0 .05-.05.06-.06v-.32c0-.22-.04-.38-.1-.62-.08-.27-.27-.46-.06-.48l.82-.06c-.08.16-.14.28-.17.52-.04.33-.1.63-.11.94.04.48.14.96.18 1.36 0 .03-.06.07-.12.1a.75.75 0 0 1-.23-.15c-.4-.4-.68-.77-1.2-1.26a.44.44 0 0 0-.07.22c.1.31.23.66.44.95.13.18.16.24-.17.36-.18.06-.48.14-.68.1zm14.62.09c.47-.29.66-1.26.54-1.73a.62.62 0 0 0-.16-.33c-.15-.15-.32-.1-.4.16-.09.37-.13.77-.18 1.12a3.5 3.5 0 0 0-1.06-.03c-.36.05-1.06.26-1.06.69 0 .7 1.61.54 2.32.12zm2.82-4.84a.8.8 0 0 0 .2.56c.72.75 1.71 1.53 2.34 1.68.56.15 1.03.48 1.37.93l.33.45c.24.3.55.5.97.56.07.02.16 0 .24 0-.06-.25-.06-.28-.24-.46-1.48-1.32-3.05-2.35-4.58-3.42-.15-.09-.42-.27-.63-.3zm-15.46 17v-.02c-.15-.63-.32-1.24-.48-1.85-.12-.22-.34-.06-.32.03-.16.45-.32.9-.46 1.37a.66.66 0 0 0 0 .42c.24.66.46 1.31.72 1.97.04.09.16.15.23.2.06-.08.15-.17.17-.25zm2.62-15.68c.04.12.1.27.12.41.01.1.01.18-.02.24-.01.03-.07.02-.13-.01-.31-.14-.66-.34-.94-.15-.1.07-.06.25.07.31l.88.36c.4.15.5.33.42.8-.07.45-.4.63-.79.74-.16.04-.33.06-.55.04-.03.14.01.3-.09.36-.07.04-.09.03-.16.06a3.86 3.86 0 0 1-.3-1.09c0-.09.03-.1.06-.13.13.04.25.22.45.41.24.08.65.15.71.08.12-.15.17-.24.17-.3 0-.1-.14-.2-.26-.25-.31-.17-.48-.23-.8-.36-.3-.12-.35-.39-.35-.64 0-.27.14-.56.57-.7.13-.05.37-.1.5-.14.04-.09.07-.39.07-.45.07-.01.2-.03.22.02zM6.44 8.86c-.6 0-.98-.16-1.58-.1-.43.03-.85.22-1.27.38-.25.12-.2.23.02.32.22.1.37.16.58.15 1.24-.1 2.63-.24 3.87-.36.07-.1.13-.18.2-.34-.47-.31-1.08-.25-1.65-.42zm14.24 18.51c-.06.03-.14.1-.29.26a.78.78 0 0 1-.25.18l-.17-.1.27-.65c.1-.25.2-.28.44-.12l.22.18c.18.15.42.27.64.17.21-.1.1-.4-.12-.51-.32-.2-.56-.26-.95-.5-.24-.14-.34-.35-.34-.65 0-.25.17-.55.49-.58.12-.03.27-.03.44-.03.21 0 .35-.03.48-.21.1-.13.21-.21.24-.07.08.36.03.75-.06.98-.07-.02-.12-.02-.18-.05-.19-.3-.44-.44-.65-.41-.2.03-.3.18-.15.34.27.28.65.43.97.61.46.25.43.6.37.85a.65.65 0 0 1-.67.54c-.24 0-.47-.06-.73-.23zm-.91-.92c.04.77-.58 1.05-1.02 1.04-.41 0-.65-.09-.79-.5-.07-.24-.15-.97-.2-1.24-.08-.1-.22-.14-.43-.2-.1-.02-.11-.1-.13-.19.15-.07.42-.15.61-.18.44-.07.44-.04.51.36.06.46.13.94.22 1.4.15.45.63.35.63-.03 0-.36.02-.77 0-1.15-.07-.09-.2-.28-.34-.41-.17-.2-.18-.26.06-.35.56-.22.6-.36.68.38.03.28.2.71.2 1.07zm.52 3.94l1.4-.33c.37-.1.58-.5.55-.85-.04-.27-.2-.42-.48-.48a3.8 3.8 0 0 0-1.8.25c-.05.48.12 1 .33 1.4zM7.43 25.42c-.18 0-.42.04-.6.09-.35.09-.53.12-.88.09-.2-.02-.52-.15-.71-.2-.21.02-.42.21-.5.51-.04.3.14.51.47.57.67.15 1.3.27 1.92.27.24 0 .27-.03.28-.23.03-.38.02-.7.02-1.1zm16-14.3a4.05 4.05 0 0 1-.87-.27c-.1-.03-.17-.27-.17-.4.03-.35-.06-.7 0-1.07.03-.2.14-.26.33-.22.27.06.52.12.78.2.34.14.85 1.08.7 1.41-.15.3-.42.34-.76.36zm-5.77 16.39a1 1 0 0 1-.28.27c-.33.22-.93.35-1.34.62-.2.14-.1-.34-.12-.52l-.21-1.12a1.46 1.46 0 0 0-.36-.6c-.12-.14.22-.2.39-.25l.65-.2c.24-.08.3.09.23.14-.33.24-.3.35-.26.66.05.3.05.63.06.88.05.12.12.28.21.39.2-.06.42-.21.42-.27l.05-.64c.24-.3.28-.15.32-.02.1.24.15.39.24.66zm.99-7.1c-.14-.43-.27-.88-.38-1.33-.03-.18.12-.28.29-.25.6.13 1.19.27 1.79.43.2.04.2.2.07.33-.39.4-.8.74-1.34.98-.27.15-.28.04-.43-.16zM44.56 4.55a4.4 4.4 0 0 0-.69-1.66c-.27-.34-.6-.37-.9-.06-.1.1-.19.2-.26.3-.3.38-.27.5.18.72.68.2 1.07.6 1.56 1.1zM12.78 43.4a2.8 2.8 0 0 0-.9.8c-.2.37-.42.72-.62 1.08-.07.17-.19.58-.24.85l.12.12a5 5 0 0 0 .88-.65c.51-.5.63-.97.91-1.97l.05-.12zM56.85 2.28c-.27-.56-.77-1.31-.98-1.58-.27-.34-.4-.37-.7-.06-.1.1-.2.2-.27.3-.3.37-.48.83.01.9.42.07.99 0 1.26.19.25.16.47.33.58.39zM6.15 29.15c-.08.73-.06.73-.06 1.24 0 .28.13.28.38.3.23.01.3-.2.35-.47l.15-1.01c.04-.33.06-.52-.14-.55-.37-.05-.65.18-.68.49zm3.9-13.52a3.86 3.86 0 0 1-.94-.33c-.5-.26-.98-.8-.9-1.3.04-.23.17-.3.37-.19.38.28.7.7.98 1 .23.23.4.5.5.82zm3.75 11.88c.01.2.18.79.24 1.13.03.18.07.32.33.29.34-.05.46-.2.41-.47-.04-.31-.12-.62-.18-.94-.06-.3-.19-.47-.46-.46-.28.03-.37.13-.34.45zM28.66 8.64c-.21.38-.4.76-.65 1.09-.19.27-.49.44-.76.67-.26.07-.27.05-.18-.21.39-.64.76-1.14 1.18-1.69.3-.16.41-.03.4.14zm20.06 10.38c0 .24-.04.46-.12.69l-.06.03c-.31-.78-1.06-2.04-1.01-2.17-.02-.09.18-.14.27-.12l.34.14c.2.46.4.9.58 1.43zM50.9 2.45c.04.01.16.04.25.12.15.12.17.26-.03.34-.47.22-1.26.64-1.77.83-.1.05-.21.06-.17-.12.1-.3 1.3-1.17 1.72-1.17zM33.79 24.18c-.33 0-.61.26-.61.52.01.29.38.6.71.6.3 0 .51-.2.51-.5.02-.36-.24-.62-.61-.62zM7.43 49.41c-.07 0-.2.22-.31.23-.4.03-.54.07-.54.24 0 .23.12.35.31.29.6-.18.74-.16 1.52-.1l.27-.32c-.09-.08-.16-.18-.27-.21a4.47 4.47 0 0 0-.98-.13zm35.22-28.78c-.13.08-.24.16-.2.31l.1.24c.23-.04.49-.06.73-.04.32.1.86.22 1.2.28.08.02.18-.07.24-.15.02-.01-.04-.07-.07-.13-.46-.46-1.23-.47-2-.5zM20.62 10.52l-.82-.36c-.05-.03-.08-.18-.03-.24.18-.27.37-.52.56-.76.1-.1.18-.09.23.04l.41 1.02c.08.2-.01.28-.35.3zM9.86 20.57c.2-.04.3.08.27.26-.02.1-.05.14-.21.22-.62.19-1.18.18-1.82.06-.2-.03-.33-.07-.36-.12a.38.38 0 0 1 .23-.16zM15.6 4.52c-.06.02-.13.07-.17.04-.53-.3-1.29-.7-1.77-1.01-.11-.16-.04-.22.11-.2.39.13 1.07.33 1.46.48.25.12.33.35.37.69zm8.15 11.68c.06.09.12.18-.05.45-.27.42-.34.85-.52 1.43-.04.12-.12.25-.18.34-.06.06-.15.08-.22.12-.02-.07-.06-.16-.05-.22l.54-1.76c.08-.21.24-.32.48-.36zm19.53-5.9a9.7 9.7 0 0 1-2.1-.74c-.23-.2-.19-.19.11-.2l1.97.53c.38.29.3.28.02.4zm-8.13 12.52a.67.67 0 0 0-.3-.37c-.1-.06-.29-.03-.4.06-.1.07-.23.18-.32.28-.15.21-.06.42.18.59.2.14.42.13.55-.06.12-.15.23-.26.29-.5zm-13.18-9.66c-.07.15-.09.3-.19.41-.27.32-.57.63-.86.94-.29.13-.3-.05-.27-.19.27-.5.65-.92 1-1.33.04-.04.15-.07.2-.04.05.03.08.1.12.2zm-11.3-2.75c-.07.05-1.13-1.6-1.26-1.94 0-.06.17-.18.26-.25.07.04.15.1.18.16.34.72.93 1.94.88 1.99zM10.22 17l-.45-.2c-.33.07-.6.22-.97.26-.39.03-.55-.05-.7-.15.06-.12.27-.24.58-.3.18-.03.97-.1 1.66-.04zm40.7-8.4l1.16.87c.12.08.1.24.15.34l-.26-.03c-.5-.25-1.02-.45-1.35-.94-.28-.41.18-.36.3-.24zm-29.38 1.43l-.13.2c-.05-.06-.12-.12-.15-.2-.1-.2-.1-.43-.12-.64-.06-.5-.03-.77.27-1.07.12-.14.22-.06.22.07.02.63-.01 1.02-.09 1.64zM14.1 8.21c.11.04.3 1.23.43 1.84.03.14.02.32 0 .45-.05.14-.1.17-.22.05-.2-.63-.3-1.27-.4-1.87-.04-.18-.04-.37.19-.47zm33.92 7.23c.48.27 1.04.75 1.27 1.03.06.06.03.22 0 .34-.08-.03-.17-.04-.23-.09-.4-.25-.77-.53-1.14-.79-.05-.04-.06-.33-.1-.39a.42.42 0 0 1 .2-.1zM26.15 5.14c.08.05.12.1.17.17a.42.42 0 0 1-.17.18c-.34.13-1.13.13-1.46-.06a1.02 1.02 0 0 1-.17-.2l.23-.13c.47-.1 1-.06 1.4.05zm9 1.92c.32.5.46.98.6 1.52 0 .03-.02.04-.02.12-.08-.05-.12-.06-.15-.1a2.8 2.8 0 0 1-.8-1.32c-.04-.12-.02-.22.13-.31.09.01.16.04.24.09zm-6.22 34.23c.38-.22.49-.39.83-.6.14-.08.12-.1.05-.23-.08-.15-.15-.15-.35-.1-.37.13-.52.22-.9.37-.16.06-.22.13-.05.25zM17.22 5.83c.46-.32.96-.49 1.47-.68.08-.02.2.01.29.09l-.18.16c-.4.28-.8.5-1.18.73-.12-.01-.3-.04-.4-.07a.3.3 0 0 1 0-.23zm-11.95 9.8c-.11-.54-.26-1.2-.17-1.68.03-.1.1-.2.21-.3.1.09.2.16.21.25.1.56-.06 1.2-.1 1.72l-.15.01zM31.3 3.56c.35-.28.93-.58 1.35-.79a5.05 5.05 0 0 1-1.38 1.47c-.03-.2-.1-.56.03-.68zm-6.4 20.89c0 .22.1.46.28.63.1-.08.18-.23.18-.3.04-.42.07-.85.07-1.29.05-.17-.2-.22-.26-.04-.1.33-.26.66-.27 1zm21.96 17.3l-1.85.62c.43.49 1.68.09 1.85-.62zM19.62 8.15c.03.49-.06 1.1-.33 1.55-.03.06-.1.1-.18.16-.03-.09-.12-.16-.1-.22.1-.5.23-1.1.35-1.6.02-.03.1-.06.14-.07zm25.9 35.36c.4 0 .78-.01 1.08-.1.27-.17.26-.52.35-.76l-.1-.03-.44.4c-.3.08-.57.14-.9.18-.06.06-.1.1-.14.18.05.07.1.12.16.13zm-3.7-19.82c.13-.29.25-.55.35-.82.02-.06-.07-.21-.18-.31a.78.78 0 0 0-.22.1 4 4 0 0 0-.58.88c.04.07.24.07.62.15zm-30.96-7.83l.39-1c.07-.02.13-.02.18.01.06.3.01.78-.02.97-.06.27-.16.43-.4.55a1.63 1.63 0 0 1-.15-.53zm22.57 7.34c-.27 0-.48.16-.5.4 0 .2.22.39.46.39.25-.02.44-.2.46-.42 0-.24-.15-.37-.42-.37zm-.24 2.46c0-.27-.16-.45-.45-.45-.23 0-.4.15-.4.36 0 .24.25.48.5.46.22 0 .35-.16.35-.37zm-1.01-2.52c0 .22-.14.35-.35.35-.28 0-.49-.17-.49-.43 0-.2.2-.4.4-.4.21-.02.44.18.44.48zm.18 1c-.24 0-.4.15-.4.35 0 .21.22.4.45.4.18 0 .35-.19.35-.4.01-.19-.17-.35-.4-.35zm-2.63 17.88c-.31 0-.58.15-.57.32.02.17.26.4.45.4.2 0 .31-.21.31-.48-.01-.2 0-.24-.19-.24zM10.67 4.18c-.15-.6-.08-1.14.07-1.75.25.52.27 1.36-.07 1.75zm22.5 17.52c-.16.1-.3.26-.28.33.02.12.15.23.23.35.12-.06.22-.2.27-.32.03-.07-.12-.2-.23-.36z" fill="#53565a"/><path d="M52.8 56.98v2.97h.78c1.12 0 1.64-.6 1.64-1.49 0-.72-.35-1.48-1.83-1.48h-.59zm3.1 6.82a46.29 46.29 0 0 1-2.29-3.3h-.8v2.74l1.21.12v.48c-.56-.02-.95-.04-1.43-.04h-.86c-.48 0-.95.02-1.5.04v-.48l1.29-.12v-6.27l-1.3-.1v-.5c.7.03 1.2.05 1.6.05h1.8c1.58 0 2.95.55 2.95 1.98 0 1-.74 1.57-1.67 1.85a19.1 19.1 0 0 0 2.31 3.02l.79.08v.49l-2.1-.04zm-17.82-6.82l-1.26-.11v-.49l1.47.04h.86l1.52-.04v.48l-1.3.12v6.27l1.3.1v.49c-.56-.02-1.04-.04-1.52-.04h-.86c-.47 0-.95.02-1.5.04v-.49l1.29-.1v-6.27zm-3.01 0l-2.41 6.9h-.97l-2.4-6.9-.91-.11v-.49l1.63.04 1.85-.04v.48l-1.19.12 1.83 5.5 1.8-5.5-1.18-.11v-.49l1.52.04 1.28-.04v.48l-.85.12zM1.3 63.24v-6.27l-1.3-.1v-.5c.7.03 1.2.05 1.51.05H5.2l.1-.42h.52v2.11H5.3l-.2-1.14H2.58v2.84h1.86l.14-.84h.49v2.21h-.49l-.14-.83H2.58v2.24c0 .5.03.56.06.59.03.03.13.06.95.06h.74c.6 0 .89-.04 1.02-.17.14-.14.3-.52.5-1.35h.5l-.2 2.08H1.98c-.7 0-1.45.02-1.99.04v-.49l1.3-.1zm18.56-1.32c0 1.27-1.04 2.02-2.4 2.02-.7 0-1.37-.22-1.84-.52l-.13.58h-.5v-2.48h.5c.05.34.13.78.2 1.09.43.45 1.12.77 1.72.77.8 0 1.25-.46 1.25-1.18 0-1.68-3.51-1.7-3.51-4 0-1.22 1-1.92 2.28-1.92.5 0 1 .1 1.38.26l.15-.56h.49v2.17h-.5a8.49 8.49 0 0 0-.2-.96 2.13 2.13 0 0 0-1.17-.35c-.72 0-1.25.33-1.25 1.07 0 1.64 3.53 1.65 3.53 4zM9.18 63.24v-6.27l-1.3-.1v-.5c.7.03 1.2.05 1.52.05h.85l1.52-.04v.48l-1.3.11v5.68c0 .35 0 .48.07.54.03.04.42.05.88.05h.38c.68 0 .9-.07 1-.17.14-.15.33-.54.55-1.63h.5l-.15 2.36H9.8c-.75 0-1.36.02-1.92.04v-.48l1.3-.12zm13.54 0v-6.27l-1.3-.1v-.5c.7.03 1.2.05 1.6.05h3.6l.1-.42h.52v2.11h-.51l-.2-1.14h-2.52v2.84h1.85l.15-.84h.48v2.21h-.48l-.15-.82h-1.85v2.23c0 .5.02.56.05.59.04.03.13.06.95.06h.89c.6 0 .89-.04 1.01-.17.15-.14.31-.52.5-1.35h.51l-.21 2.08h-4.3c-.69 0-1.44.02-1.98.04v-.49l1.29-.1zm20.91 0v-6.27l-1.3-.1v-.5c.7.03 1.2.05 1.6.05h3.6l.11-.42h.51v2.11h-.5l-.2-1.14h-2.53v2.84h1.86l.14-.84h.49v2.21h-.49l-.14-.82h-1.86v2.23c0 .5.03.56.06.59.03.03.13.06.95.06h.76c.6 0 .87-.04 1-.17.14-.14.3-.52.5-1.35h.5l-.2 2.08h-4.16c-.7 0-1.45.02-2 .04v-.49l1.3-.1z" fill="#FF6C00"/></svg>
