<svg fill="none" height="53" viewBox="0 0 150 53" width="150" xmlns="http://www.w3.org/2000/svg"><g fill="#025257"><path d="m53.1001 29.2998h4.7c2.3 0 3.9 1.6 3.9 4s-1.6 4-3.9 4h-2.5v4.2h-2.2zm4.3 6.1c1.3 0 2.1-.8 2.1-2.1s-.8-2.1-2-2.1h-2.1v4.2z"/><path d="m63 29.2998h2.2v7.9c0 1.6 1.1 2.6 2.7 2.6s2.7-.9 2.7-2.6v-7.9h2.4v7.9c0 2.8-2 4.6-5 4.6s-5-1.9-5-4.6z"/><path d="m75.2001 29.2998h4.4c2.2 0 3.8 1.1 3.8 3.2 0 1.1-.6 2.1-1.5 2.6 1.3.4 2 1.6 2 2.9 0 2.5-2 3.6-4.2 3.6h-4.4v-12.3zm4.4 5c1 0 1.5-.7 1.5-1.6s-.5-1.5-1.6-1.5h-2.1v3.1zm.2 5.4c1.1 0 1.8-.7 1.8-1.8 0-1-.7-1.8-1.8-1.8h-2.4v3.5h2.4z"/><path d="m85.8 29.2998h2.2v10.4h5.3v1.9h-7.5z"/><path d="m97.2 29.2998h-2.2v12.3h2.2z"/><path d="m100.2 38.4s1.3 1.3 3.1 1.3c.9 0 1.8-.5 1.8-1.5 0-2.2-5.8-1.8-5.8-5.6 0-2 1.8-3.6 4.1-3.6 2.4 0 3.7 1.3 3.7 1.3l-1 1.8s-1.2-1.1-2.7-1.1c-1 0-1.9.6-1.9 1.5 0 2.2 5.8 1.6 5.8 5.6 0 2-1.5 3.6-4.1 3.6-2.7 0-4.2-1.7-4.2-1.7z"/><path d="m109 29.2998h2.2v5.2h5.6v-5.2h2.3v12.3h-2.3v-5.2h-5.6v5.2h-2.2z"/><path d="m123.9 29.2998h-2.2v12.3h2.2z"/><path d="m126.5 29.2998h2.2l4.7 7.1c.5.7 1 1.9 1 1.9s-.1-1.2-.1-1.9v-7.1h2.2v12.3h-2.2l-4.7-7.1c-.5-.7-1-1.9-1-1.9s.1 1.2.1 1.9v7.1h-2.2z"/><path d="m144.7 29.0996c3 0 4.6 1.6 4.6 1.6l-1.1 1.7s-1.3-1.2-3.3-1.2c-2.8 0-4.2 1.9-4.2 4.2 0 2.7 1.8 4.4 4.1 4.4 1.9 0 3.1-1.3 3.1-1.3v-1.5h-1.9v-1.9h3.9v6.5h-1.9v-.6c0-.3 0-.5 0-.5s-1.3 1.3-3.6 1.3c-3.2 0-6-2.5-6-6.4-.1-3.5 2.6-6.3 6.3-6.3z"/><path d="m58.9 9.89941c4.2 0 6.3 3.29999 6.3 6.99999 0 .3-.1.8-.1.8h-12.3c0 4.4 3 7 6.6 7 2.9 0 4.8-1.9 4.8-1.9l.7 1.1s-2.1 2.1-5.5 2.1c-4.3 0-7.9-3.1-7.9-8 0-5.3 3.5-8.09999 7.4-8.09999zm4.9 6.59999c-.2-3.7-2.4-5.4-4.9-5.4-2.8 0-5.4 1.8-6 5.4z"/><path d="m68 10.1994h1.3v2.7c0 .7-.1 1.3-.1 1.3h.1c.8-2.3 3.5-4.29999 5.9-4.29999 3.1 0 4.5 1.39999 4.8 4.19999.9-2.1 3.2-4.19999 5.8-4.19999 4 0 5.1 2.29999 5.1 5.99999v9.7h-1.3v-9.3c0-2.9-.6-5.2-3.8-5.2-2.5 0-4.7 2.3-5.4 4.7-.2.7-.3 1.5-.3 2.4v7.5h-1.3v-9.3c0-2.6-.4-5.2-3.7-5.2-2.7 0-4.9 2.4-5.6 4.9-.2.6-.2 1.4-.2 2.1v7.5h-1.3z"/><path d="m101 9.89941c4.2 0 6.3 3.29999 6.3 6.99999 0 .3-.1.8-.1.8h-12.2999c0 4.4 3 7 6.5999 7 2.9 0 4.8-1.9 4.8-1.9l.7 1.1s-2.1 2.1-5.5 2.1c-4.2999 0-7.8999-3.1-7.8999-8 0-5.3 3.5-8.09999 7.3999-8.09999zm4.9 6.59999c-.2-3.7-2.4-5.4-4.9-5.4-2.7999 0-5.3999 1.8-5.9999 5.4z"/><path d="m110.1 10.1996h1.3v2.9c0 .7-.1 1.3-.1 1.3h.1c.8-2.4 2.5-4.3 4.9-4.3.5 0 .9.1.9.1v1.3s-.4-.1-.7-.1c-2.4 0-3.9 2-4.6 4.3-.3 1.1-.5 2.2-.5 3.2v6.6h-1.3z"/><path d="m127.2 16.1994h1v-.5c0-3.4-1.7-4.6-4.2-4.6-2.7 0-4.4 1.5-4.4 1.5l-.7-1s1.8-1.69999 5.2-1.69999c3.5 0 5.4 1.99999 5.4 5.79999v9.9h-1.3v-2c0-.8.1-1.4.1-1.4h-.1s-1.4 3.8-5.4 3.8c-2.5 0-5.2-1.4-5.2-4.4 0-5.3 6.8-5.4 9.6-5.4zm-4.3 8.5c3.3 0 5.2-3.5 5.2-6.5v-.8h-1c-2.6 0-8.2 0-8.2 4 .1 1.6 1.4 3.3 4 3.3z"/><path d="m132.7 25.6v-21.6h1.2v21.6"/><path d="m143.2 9.8998c3.9 0 5.3 3.5 5.3 3.5h.1s-.1-.6-.1-1.3v-8.3h1.3v21.8h-1.3v-1.9c0-.7.1-1.2.1-1.2h-.1s-1.3 3.5-5.6 3.5c-4.1 0-6.6-3.3-6.6-8 0-5 2.9-8.1 6.9-8.1zm-.2 14.8c2.8 0 5.5-2 5.5-6.8 0-3.4-1.7-6.8-5.3-6.8-3 0-5.5 2.5-5.5 6.8 0 4.1 2.2 6.8 5.3 6.8z"/></g><path d="m36.5 33.0998 7.5-3.8v12.3z" fill="#e8e34a"/><path d="m22.4 52.4996 14.1-19.4 7.5 8.5z" fill="#cad206"/><path d="m22.4 40.2996v12.2l14.1-19.4z" fill="#dcdd30"/><path d="m22.4001 52.4994-8.6001-16.6 8.6001 4.4z" fill="#cfc60a"/><path d="m.800049 41.4994 21.600051 11-8.6001-16.6z" fill="#9fc63c"/><path d="m.800049 23.2998v18.2l12.999951-5.6z" fill="#008973"/><path d="m13.9 17.5996-13.099951 5.7 12.999951 12.6z" fill="#03a685"/><path d="m.800049 12.2002v11.1l13.099951-5.7z" fill="#06a291"/><path d="m22.7001.799805-21.900051 11.399995 13.099951 5.4 8.8001-4.6z" fill="#01727a"/><path d="m36.0001 7.3998-13.3-6.599995v12.199995z" fill="#50baae"/><path d="m32.0001 17.5994 4-10.19999-13.3 5.59999z" fill="#6bc4ce"/><path d="m44 11.3994-8-3.99999-4 10.19999z" fill="#09a9b6"/><path d="m22.7001 22.2994v12.2l21.3-11v-12.1z" fill="#009983"/><path d="m18.8 20.7002 3.9001 1.6v12.2l-3.9001-1.7z" fill="#06a291"/></svg>