<svg height="196.08093pt" preserveAspectRatio="xMidYMid meet" viewBox="0 0 375.26706 196.08092" width="375.26706pt" xmlns="http://www.w3.org/2000/svg"><g transform="matrix(.1 0 0 -.1 -11.732954 298.06817)"><path d="m220 2000v-880h195 195v880 880h-195-195z"/><path d="m920 2683v-198l657 1 658 2-1 33c-1 19-2 107-3 197l-1 162h-655-655z"/><path d="m2450 2683v-198h227 228l3-682 2-683h200 200l2 683 3 682h228 227v198 197h-660-660z"/><path d="m924 2187c-2-7-3-96-2-197l3-185 653-3 652-2v200 200h-650c-520 0-652-3-656-13z"/><path d="m920 1315v-195h655 655v195 195h-655-655z"/></g><g stroke-width=".75"><path d="m80.423912 78.023453h130.8362v40.089458h-130.8362z" fill="#964f9f"/><path d="m80.125504 147.04164h131.18079v39.016739h-131.18079z" fill="#964f9f"/><path d="m80.162025 10.054482h131.62102v39.611885h-131.62102z" fill="#53264d"/><path d="m10 10h39.337902v176.08093h-39.337902z" fill="#53264d"/><path d="m233.27483 10.017326h131.97598v39.567627h-131.97598z" fill="#53264d"/><path d="m278.76959 47.337208h40.929657v138.72092h-40.929657z" fill="#53264d"/></g></svg>