<?xml version="1.0" encoding="utf-8"?>
<!-- Generator: Adobe Illustrator 21.0.2, SVG Export Plug-In . SVG Version: 6.00 Build 0)  -->
<svg version="1.1" xmlns="http://www.w3.org/2000/svg" xmlns:xlink="http://www.w3.org/1999/xlink" x="0px" y="0px"
	 viewBox="0 0 160 50" style="enable-background:new 0 0 160 50;" xml:space="preserve">
<style type="text/css">
	.st0{fill:#8F1B59;}
	.st1{fill:#FFFFFF;}
</style>
<g id="ISSN_x5F_LOGO">
	<g>
		<polygon class="st0" points="0,0.7 0,49.2 8.4,49.2 8.4,0.7 0,0.7 		"/>
		<g>
			<path class="st0" d="M26.4,0c-2.2,0-4.3,0.8-5.6,2.4C19.3,4,18.6,6,18.6,8.6c0,2.3,0.5,4.2,1.5,5.8c0.5,0.9,1.4,2,2.5,3.3
				c1.2,1.4,2.7,3,4.5,4.9c3.4,3.6,5.7,6.7,7,9.3c1.2,2.5,1.9,5.6,1.9,9.3c0,3-0.5,5.6-1.4,8c1.7,0.7,2.9,0.8,4.5,0.8
				c2.3,0,4.6-0.8,5.9-2.4c1.3-1.6,1.9-3.7,1.9-6.4c0-2.3-0.5-4.4-1.5-6.3c-0.5-0.9-1.2-1.9-2.1-3.1c-0.9-1.2-2.1-2.4-3.4-3.9
				c-2.1-2.2-3.9-4.1-5.3-5.8c-1.4-1.7-2.4-3.1-3.1-4.4c-1.3-2.4-1.9-5.5-1.9-9.3c0-3,0.4-5.6,1.3-7.8C29.1,0.1,27.8,0,26.4,0z"/>
			<path class="st0" d="M45.1,0c-2.2,0-4,0.8-5.4,2.4C38.3,4,37.6,6,37.6,8.6c0,2.3,0.5,4.2,1.5,5.8c0.5,0.9,1.4,2,2.5,3.3
				c1.2,1.4,2.7,3,4.5,4.9c0.8,0.8,1.5,1.7,2.2,2.4V0.7l0,0C47.3,0.2,46.2,0,45.1,0z"/>
			<path class="st0" d="M16.8,49.3c1.2,0.5,2.3,0.7,3.4,0.7c2.3,0,4.3-0.8,5.6-2.4c1.3-1.6,1.9-3.7,1.9-6.4c0-2.3-0.5-4.4-1.5-6.3
				C25.8,34,25,33,24.1,31.9c-0.9-1.2-2.1-2.4-3.4-3.9c-1.5-1.5-2.8-2.9-3.9-4.2V49.3z"/>
			<g>
				<polygon class="st0" points="70,0.7 56.3,0.7 70,31.4 				"/>
				<polygon class="st0" points="56.3,18.6 56.3,49.2 69.8,49.2 				"/>
			</g>
		</g>
	</g>
</g>
<g id="ISSN_x5F_TEXT">
	<path d="M81,7.2V6.9c0.8-0.1,0.9-0.1,0.9-1V2c0-0.8-0.1-0.9-0.9-1V0.7h2.7V1c-0.8,0.1-0.9,0.1-0.9,1v3.9c0,0.8,0.1,0.9,0.9,1v0.3
		H81z"/>
	<path d="M91.4,1c-0.6,0-0.8,0.2-0.8,0.6c0,0.3-0.1,0.8-0.1,1.7v4h-0.3L86,2.1h0v2.4c0,0.9,0,1.4,0.1,1.7c0,0.5,0.3,0.6,0.9,0.7v0.3
		h-2.4V6.9c0.6,0,0.8-0.2,0.9-0.6c0-0.3,0.1-0.8,0.1-1.7V2.4c0-0.7,0-0.8-0.2-1c-0.2-0.2-0.4-0.3-0.9-0.4V0.7H86L90,5.6h0V3.3
		c0-0.9,0-1.4-0.1-1.6c0-0.4-0.3-0.6-1-0.6V0.7h2.4V1z"/>
	<path d="M97.2,2.3c-0.1-0.5-0.2-0.7-0.3-0.9c-0.2-0.2-0.3-0.3-1.1-0.3h-0.7v4.8c0,0.8,0.1,0.9,1,0.9v0.3h-2.9V6.9
		c0.9-0.1,1-0.2,1-0.9V1.1h-0.6c-0.8,0-1,0.1-1.1,0.3c-0.1,0.2-0.2,0.5-0.3,0.9h-0.3C92,1.7,92,1,92,0.5h0.2
		c0.1,0.2,0.3,0.2,0.5,0.2h3.9c0.3,0,0.4-0.1,0.5-0.2h0.2c0,0.4,0,1.2,0.1,1.8L97.2,2.3z"/>
	<path d="M103.3,5.6c0,0.3-0.3,1.3-0.3,1.6h-4.8V6.9c0.9-0.1,1-0.1,1-1V2c0-0.9-0.1-0.9-0.8-1V0.7h4.4c0,0.2,0,0.9,0.1,1.4l-0.3,0
		c-0.1-0.4-0.2-0.6-0.3-0.8c-0.1-0.2-0.4-0.3-1.1-0.3h-0.7c-0.3,0-0.3,0-0.3,0.3v2.2h0.9c0.9,0,0.9-0.1,1.1-0.7h0.3v1.9H102
		c-0.1-0.7-0.2-0.8-1.1-0.8H100v1.8c0,0.5,0.1,0.7,0.2,0.8c0.2,0.1,0.5,0.1,1,0.1c0.7,0,1-0.1,1.2-0.3c0.2-0.2,0.4-0.5,0.5-0.9
		L103.3,5.6z"/>
	<path d="M110,7.2c-0.1,0-0.2,0-0.3,0c-0.8,0-1.2-0.3-1.7-0.9c-0.3-0.5-0.7-1.1-1-1.6c-0.2-0.3-0.3-0.4-0.8-0.4h-0.3v1.6
		c0,0.8,0.1,0.9,0.9,1v0.3h-2.7V6.9c0.8-0.1,0.9-0.1,0.9-1V2c0-0.8-0.1-0.9-0.8-0.9V0.7h2.5c0.8,0,1.2,0.1,1.6,0.3
		c0.4,0.3,0.7,0.7,0.7,1.3c0,0.9-0.5,1.4-1.3,1.7c0.2,0.3,0.6,1,0.9,1.4c0.4,0.5,0.6,0.8,0.8,1c0.3,0.3,0.5,0.4,0.7,0.5L110,7.2z"/>
	<path class="st1" d="M106.3,4c0.5,0,0.8-0.1,1.1-0.3c0.4-0.3,0.5-0.7,0.5-1.2c0-1.1-0.7-1.5-1.4-1.5c-0.3,0-0.4,0-0.5,0.1
		c-0.1,0.1-0.1,0.2-0.1,0.4V4H106.3z"/>
	<path d="M117.1,1c-0.6,0-0.8,0.2-0.8,0.6c0,0.3-0.1,0.8-0.1,1.7v4h-0.3l-4.2-5.1h0v2.4c0,0.9,0,1.4,0.1,1.7c0,0.5,0.3,0.6,0.9,0.7
		v0.3h-2.4V6.9c0.6,0,0.8-0.2,0.9-0.6c0-0.3,0.1-0.8,0.1-1.7V2.4c0-0.7,0-0.8-0.2-1c-0.2-0.2-0.4-0.3-0.9-0.4V0.7h1.5l4.1,4.8h0V3.3
		c0-0.9,0-1.4-0.1-1.6c0-0.4-0.3-0.6-1-0.6V0.7h2.4V1z"/>
	<path d="M120.8,7.2V6.9c0.6-0.1,0.7-0.2,0.6-0.6c-0.1-0.4-0.3-0.9-0.5-1.5h-2.1c-0.1,0.4-0.3,0.8-0.4,1.2c-0.2,0.6-0.1,0.7,0.6,0.8
		v0.3h-2.2V6.9c0.6-0.1,0.8-0.2,1.1-1l2-5.2l0.3-0.1c0.6,1.7,1.3,3.6,1.9,5.3c0.3,0.9,0.4,0.9,1.1,1v0.3H120.8z"/>
	<path class="st1" d="M119.9,2L119.9,2c-0.3,0.8-0.6,1.7-0.9,2.5h1.8L119.9,2z"/>
	<path d="M128.4,2.3c-0.1-0.5-0.2-0.7-0.3-0.9c-0.2-0.2-0.3-0.3-1.1-0.3h-0.7v4.8c0,0.8,0.1,0.9,1,0.9v0.3h-2.9V6.9
		c0.9-0.1,1-0.2,1-0.9V1.1h-0.6c-0.8,0-1,0.1-1.1,0.3c-0.1,0.2-0.2,0.5-0.3,0.9h-0.3c0-0.6,0.1-1.3,0.1-1.8h0.2
		c0.1,0.2,0.3,0.2,0.5,0.2h3.9c0.3,0,0.4-0.1,0.5-0.2h0.2c0,0.4,0,1.2,0.1,1.8L128.4,2.3z"/>
	<path d="M129.4,7.2V6.9c0.8-0.1,0.9-0.1,0.9-1V2c0-0.8-0.1-0.9-0.9-1V0.7h2.7V1c-0.8,0.1-0.9,0.1-0.9,1v3.9c0,0.8,0.1,0.9,0.9,1
		v0.3H129.4z"/>
	<path d="M139.5,3.9c0,2.1-1.5,3.4-3.3,3.4c-1.8,0-3.2-1.4-3.2-3.3c0-1.8,1.2-3.4,3.4-3.4C138,0.6,139.5,1.9,139.5,3.9z"/>
	<path class="st1" d="M134.1,3.7c0,1.8,1,3.2,2.3,3.2c1.1,0,2-0.9,2-2.8c0-2.1-1-3.2-2.3-3.2C135,1,134.1,1.9,134.1,3.7z"/>
	<path d="M147.1,1c-0.6,0-0.8,0.2-0.8,0.6c0,0.3-0.1,0.8-0.1,1.7v4h-0.3l-4.2-5.1h0v2.4c0,0.9,0,1.4,0.1,1.7c0,0.5,0.3,0.6,0.9,0.7
		v0.3h-2.4V6.9c0.6,0,0.8-0.2,0.9-0.6c0-0.3,0.1-0.8,0.1-1.7V2.4c0-0.7,0-0.8-0.2-1c-0.2-0.2-0.4-0.3-0.9-0.4V0.7h1.5l4.1,4.8h0V3.3
		c0-0.9,0-1.4-0.1-1.6c0-0.4-0.3-0.6-1-0.6V0.7h2.4V1z"/>
	<path d="M151.2,7.2V6.9c0.6-0.1,0.7-0.2,0.6-0.6c-0.1-0.4-0.3-0.9-0.5-1.5h-2.1c-0.1,0.4-0.3,0.8-0.4,1.2c-0.2,0.6-0.1,0.7,0.6,0.8
		v0.3h-2.2V6.9c0.6-0.1,0.8-0.2,1.1-1l2-5.2l0.3-0.1c0.6,1.7,1.3,3.6,1.9,5.3c0.3,0.9,0.4,0.9,1.1,1v0.3H151.2z"/>
	<path class="st1" d="M150.2,2L150.2,2c-0.3,0.8-0.6,1.7-0.9,2.5h1.8L150.2,2z"/>
	<path d="M158.9,5.6c-0.1,0.3-0.3,1.3-0.4,1.6H154V6.9c0.8-0.1,0.9-0.1,0.9-1V2c0-0.8-0.1-0.9-0.9-1V0.7h2.7V1
		c-0.8,0.1-0.9,0.1-0.9,1v3.9c0,0.5,0,0.7,0.2,0.8c0.2,0.1,0.5,0.1,0.9,0.1c0.5,0,0.9,0,1.1-0.3c0.2-0.2,0.4-0.5,0.5-1L158.9,5.6z"
		/>
	<path d="M84.4,16.3c-0.2-0.6-0.5-1.3-1.3-1.3c-0.7,0-1.1,0.5-1.1,1.1c0,0.7,0.5,1,1.3,1.4c0.8,0.4,1.7,0.9,1.7,2
		c0,1.1-0.9,1.9-2.2,1.9c-0.4,0-0.7-0.1-1-0.1c-0.3-0.1-0.4-0.2-0.5-0.2c-0.1-0.2-0.2-1.1-0.3-1.6l0.3-0.1c0.2,0.6,0.6,1.6,1.6,1.6
		c0.7,0,1.2-0.5,1.2-1.2c0-0.7-0.5-1.1-1.3-1.5c-0.7-0.4-1.7-0.9-1.7-2c0-1,0.8-1.8,2.1-1.8c0.5,0,0.9,0.1,1.3,0.2
		c0,0.4,0.1,0.8,0.2,1.4L84.4,16.3z"/>
	<path d="M91,16.3c-0.1-0.5-0.2-0.7-0.3-0.9c-0.2-0.2-0.3-0.3-1.1-0.3h-0.7v4.8c0,0.8,0.1,0.9,1,0.9v0.3H87v-0.3
		c0.9-0.1,1-0.2,1-0.9v-4.8h-0.6c-0.8,0-1,0.1-1.1,0.3c-0.1,0.2-0.2,0.5-0.3,0.9h-0.3c0-0.6,0.1-1.3,0.1-1.8H86
		c0.1,0.2,0.3,0.2,0.5,0.2h3.9c0.3,0,0.4-0.1,0.5-0.2h0.2c0,0.4,0,1.2,0.1,1.8L91,16.3z"/>
	<path d="M94.9,21.2v-0.3c0.6-0.1,0.7-0.2,0.6-0.6c-0.1-0.4-0.3-0.9-0.5-1.5h-2.1c-0.1,0.4-0.3,0.8-0.4,1.2
		c-0.2,0.6-0.1,0.7,0.6,0.8v0.3h-2.2v-0.3c0.6-0.1,0.8-0.2,1.1-1l2-5.2l0.3-0.1c0.6,1.7,1.3,3.6,1.9,5.3c0.3,0.9,0.4,0.9,1.1,1v0.3
		H94.9z"/>
	<path class="st1" d="M93.9,16L93.9,16c-0.3,0.8-0.6,1.7-0.9,2.5h1.8L93.9,16z"/>
	<path d="M104.5,15c-0.6,0-0.8,0.2-0.8,0.6c0,0.3-0.1,0.8-0.1,1.7v4h-0.3l-4.2-5.1h0v2.4c0,0.9,0,1.4,0.1,1.7c0,0.5,0.3,0.6,0.9,0.7
		v0.3h-2.4v-0.3c0.6,0,0.8-0.2,0.9-0.6c0-0.3,0.1-0.8,0.1-1.7v-2.2c0-0.7,0-0.8-0.2-1c-0.2-0.2-0.4-0.3-0.9-0.4v-0.3h1.5l4.1,4.8h0
		v-2.3c0-0.9,0-1.4-0.1-1.6c0-0.4-0.3-0.6-1-0.6v-0.3h2.4V15z"/>
	<path d="M108.2,14.7c1.3,0,2.2,0.3,2.8,0.9c0.5,0.5,0.8,1.2,0.8,2.1c0,1.2-0.5,2.1-1.2,2.6c-0.7,0.6-1.7,0.8-3,0.8h-2.4v-0.3
		c0.8-0.1,0.9-0.1,0.9-1V16c0-0.8-0.1-0.9-0.8-0.9v-0.3H108.2z"/>
	<path class="st1" d="M107.2,19.9c0,0.7,0.3,0.9,1,0.9c1.8,0,2.6-1.3,2.6-2.9c0-1-0.4-1.9-1.1-2.3c-0.4-0.3-1-0.4-1.7-0.4
		c-0.4,0-0.7,0.1-0.8,0.1c-0.1,0.1-0.1,0.2-0.1,0.6V19.9z"/>
	<path d="M116.4,21.2v-0.3c0.6-0.1,0.7-0.2,0.6-0.6c-0.1-0.4-0.3-0.9-0.5-1.5h-2.1c-0.1,0.4-0.3,0.8-0.4,1.2
		c-0.2,0.6-0.1,0.7,0.6,0.8v0.3h-2.2v-0.3c0.6-0.1,0.8-0.2,1.1-1l2-5.2l0.3-0.1c0.6,1.7,1.3,3.6,1.9,5.3c0.3,0.9,0.4,0.9,1.1,1v0.3
		H116.4z"/>
	<path class="st1" d="M115.4,16L115.4,16c-0.3,0.8-0.6,1.7-0.9,2.5h1.8L115.4,16z"/>
	<path d="M124.9,21.2c-0.1,0-0.2,0-0.3,0c-0.8,0-1.2-0.3-1.7-0.9c-0.3-0.5-0.7-1.1-1-1.6c-0.2-0.3-0.3-0.4-0.8-0.4h-0.3v1.6
		c0,0.8,0.1,0.9,0.9,1v0.3H119v-0.3c0.8-0.1,0.9-0.1,0.9-1V16c0-0.8-0.1-0.9-0.9-0.9v-0.3h2.5c0.8,0,1.2,0.1,1.6,0.3
		c0.4,0.3,0.7,0.7,0.7,1.3c0,0.9-0.5,1.4-1.3,1.7c0.2,0.3,0.6,1,0.9,1.4c0.4,0.5,0.6,0.8,0.8,1c0.3,0.3,0.5,0.4,0.7,0.5L124.9,21.2z
		"/>
	<path class="st1" d="M121.2,18c0.5,0,0.8-0.1,1.1-0.3c0.4-0.3,0.5-0.7,0.5-1.2c0-1.1-0.7-1.5-1.4-1.5c-0.3,0-0.4,0-0.5,0.1
		c-0.1,0.1-0.1,0.2-0.1,0.4V18H121.2z"/>
	<path d="M128.3,14.7c1.3,0,2.2,0.3,2.8,0.9c0.5,0.5,0.8,1.2,0.8,2.1c0,1.2-0.5,2.1-1.2,2.6c-0.7,0.6-1.7,0.8-3,0.8h-2.4v-0.3
		c0.8-0.1,0.9-0.1,0.9-1V16c0-0.8-0.1-0.9-0.8-0.9v-0.3H128.3z"/>
	<path class="st1" d="M127.3,19.9c0,0.7,0.3,0.9,1,0.9c1.8,0,2.6-1.3,2.6-2.9c0-1-0.4-1.9-1.1-2.3c-0.4-0.3-1-0.4-1.7-0.4
		c-0.4,0-0.7,0.1-0.8,0.1c-0.1,0.1-0.1,0.2-0.1,0.6V19.9z"/>
	<path d="M84.4,30.3c-0.2-0.6-0.5-1.3-1.3-1.3c-0.7,0-1.1,0.5-1.1,1.1c0,0.7,0.5,1,1.3,1.4c0.8,0.4,1.7,0.9,1.7,2
		c0,1.1-0.9,1.9-2.2,1.9c-0.4,0-0.7-0.1-1-0.1c-0.3-0.1-0.4-0.2-0.5-0.2c-0.1-0.2-0.2-1.1-0.3-1.6l0.3-0.1c0.2,0.6,0.6,1.6,1.6,1.6
		c0.7,0,1.2-0.5,1.2-1.2c0-0.7-0.5-1.1-1.3-1.5c-0.7-0.4-1.7-0.9-1.7-2c0-1,0.8-1.8,2.1-1.8c0.5,0,0.9,0.1,1.3,0.2
		c0,0.4,0.1,0.8,0.2,1.4L84.4,30.3z"/>
	<path d="M91,33.6c0,0.3-0.3,1.3-0.3,1.6h-4.8v-0.3c0.9-0.1,1-0.1,1-1V30c0-0.9-0.1-0.9-0.8-1v-0.3h4.4c0,0.2,0,0.9,0.1,1.4l-0.3,0
		c-0.1-0.4-0.2-0.6-0.3-0.8c-0.1-0.2-0.4-0.3-1.1-0.3h-0.7c-0.3,0-0.3,0-0.3,0.3v2.2h0.9c0.9,0,0.9-0.1,1.1-0.7H90v1.9h-0.3
		c-0.1-0.7-0.2-0.8-1.1-0.8h-0.9v1.8c0,0.5,0.1,0.7,0.2,0.8c0.2,0.1,0.5,0.1,1,0.1c0.7,0,1-0.1,1.2-0.3c0.2-0.2,0.4-0.5,0.5-0.9
		L91,33.6z"/>
	<path d="M97.8,35.3c-0.1,0-0.2,0-0.3,0c-0.8,0-1.2-0.3-1.7-0.9c-0.3-0.5-0.7-1.1-1-1.6c-0.2-0.3-0.3-0.4-0.8-0.4h-0.3v1.6
		c0,0.8,0.1,0.9,0.9,1v0.3h-2.7v-0.3c0.8-0.1,0.9-0.1,0.9-1V30c0-0.8-0.1-0.9-0.9-0.9v-0.3h2.5c0.8,0,1.2,0.1,1.6,0.3
		c0.4,0.3,0.7,0.7,0.7,1.3c0,0.9-0.5,1.4-1.3,1.7c0.2,0.3,0.6,1,0.9,1.4c0.4,0.5,0.6,0.8,0.8,1c0.3,0.3,0.5,0.4,0.7,0.5L97.8,35.3z"
		/>
	<path class="st1" d="M94.1,32c0.5,0,0.8-0.1,1.1-0.3c0.4-0.3,0.5-0.7,0.5-1.2c0-1.1-0.7-1.5-1.4-1.5c-0.3,0-0.4,0-0.5,0.1
		c-0.1,0.1-0.1,0.2-0.1,0.4V32H94.1z"/>
	<path d="M98.6,35.2v-0.3c0.8-0.1,0.9-0.1,0.9-1V30c0-0.8-0.1-0.9-0.9-1v-0.3h2.7V29c-0.8,0.1-0.9,0.1-0.9,1v3.9
		c0,0.8,0.1,0.9,0.9,1v0.3H98.6z"/>
	<path d="M105.6,35.2v-0.3c0.6-0.1,0.7-0.2,0.6-0.6c-0.1-0.4-0.3-0.9-0.5-1.5h-2.1c-0.1,0.4-0.3,0.8-0.4,1.2
		c-0.2,0.6-0.1,0.7,0.6,0.8v0.3h-2.2v-0.3c0.6-0.1,0.8-0.2,1.1-1l2-5.2l0.3-0.1c0.6,1.7,1.3,3.6,1.9,5.3c0.3,0.9,0.4,0.9,1.1,1v0.3
		H105.6z"/>
	<path class="st1" d="M104.7,30L104.7,30c-0.3,0.8-0.6,1.7-0.9,2.5h1.8L104.7,30z"/>
	<path d="M113.4,33.6c-0.1,0.3-0.3,1.3-0.4,1.6h-4.5v-0.3c0.8-0.1,0.9-0.1,0.9-1V30c0-0.8-0.1-0.9-0.9-1v-0.3h2.7V29
		c-0.8,0.1-0.9,0.1-0.9,1v3.9c0,0.5,0,0.7,0.2,0.8c0.2,0.1,0.5,0.1,0.9,0.1c0.5,0,0.9,0,1.1-0.3c0.2-0.2,0.4-0.5,0.5-1L113.4,33.6z"
		/>
	<path d="M87.7,43c-0.6,0-0.8,0.2-0.8,0.6c0,0.3-0.1,0.8-0.1,1.7v4h-0.3l-4.2-5.1h0v2.4c0,0.9,0,1.4,0.1,1.7c0,0.5,0.3,0.6,0.9,0.7
		v0.3h-2.4v-0.3c0.6,0,0.8-0.2,0.9-0.6c0-0.3,0.1-0.8,0.1-1.7v-2.2c0-0.7,0-0.8-0.2-1c-0.2-0.2-0.4-0.3-0.9-0.4v-0.3h1.5l4.1,4.8h0
		v-2.3c0-0.9,0-1.4-0.1-1.6c0-0.4-0.3-0.6-1-0.6v-0.3h2.4V43z"/>
	<path d="M95.1,43c-0.6,0-0.8,0.2-0.9,0.6c0,0.3-0.1,0.7-0.1,1.6v0.9c0,1.1-0.2,2-0.7,2.6c-0.5,0.5-1.1,0.7-1.8,0.7
		c-0.6,0-1.2-0.1-1.6-0.5c-0.6-0.4-0.9-1.2-0.9-2.3v-2.4c0-0.9-0.1-0.9-0.9-1v-0.3h2.6V43c-0.8,0.1-0.8,0.1-0.8,1v2.2
		c0,1.6,0.6,2.5,1.8,2.5c1.4,0,1.8-1.1,1.8-2.8v-0.8c0-0.9,0-1.3-0.1-1.6c-0.1-0.4-0.3-0.5-1-0.6v-0.3h2.4V43z"/>
	<path d="M101.1,49.2v-0.3c0.8-0.1,0.8-0.1,0.8-1.2l0-4h0l-2.4,5.4h-0.2l-2.2-5.2h0L97,46.7c0,0.8,0,1.3,0,1.6
		c0,0.5,0.2,0.5,0.9,0.6v0.3h-2.3v-0.3c0.6-0.1,0.8-0.2,0.8-0.6c0-0.3,0.1-0.8,0.2-1.8l0.1-2c0.1-1.3,0-1.3-0.9-1.4v-0.3h1.7
		l2.2,4.8l2.2-4.8h1.7V43c-0.9,0.1-0.9,0.1-0.9,1.1l0.1,3.6c0,1,0.1,1.1,0.9,1.2v0.3H101.1z"/>
	<path d="M108.1,45.7c1,0.1,1.8,0.6,1.8,1.6c0,0.7-0.4,1.2-0.9,1.5c-0.5,0.3-1.2,0.4-2,0.4h-2.2v-0.3c0.8-0.1,0.9-0.1,0.9-0.9v-4
		c0-0.8,0-0.9-0.8-0.9v-0.3h2.6c0.8,0,1.2,0.1,1.5,0.3c0.3,0.2,0.6,0.7,0.6,1.1C109.4,45.2,108.6,45.5,108.1,45.7L108.1,45.7z"/>
	<path class="st1" d="M106.9,45.6c1.1,0,1.5-0.4,1.5-1.3c0-0.7-0.4-1.3-1.3-1.3c-0.2,0-0.4,0-0.5,0.1c-0.1,0.1-0.1,0.2-0.1,0.5v1.9
		H106.9z"/>
	<path class="st1" d="M106.5,47.9c0,0.7,0.2,0.9,0.8,0.9c0.8,0,1.5-0.4,1.5-1.4c0-1-0.7-1.4-1.9-1.4h-0.4V47.9z"/>
	<path d="M116.1,47.6c0,0.3-0.3,1.3-0.3,1.6H111v-0.3c0.9-0.1,1-0.1,1-1V44c0-0.9-0.1-0.9-0.8-1v-0.3h4.4c0,0.2,0,0.9,0.1,1.4
		l-0.3,0c-0.1-0.4-0.2-0.6-0.3-0.8c-0.1-0.2-0.4-0.3-1.1-0.3h-0.7c-0.3,0-0.3,0-0.3,0.3v2.2h0.9c0.9,0,0.9-0.1,1.1-0.7h0.3v1.9h-0.3
		c-0.1-0.7-0.2-0.8-1.1-0.8h-0.9v1.8c0,0.5,0.1,0.7,0.2,0.8c0.2,0.1,0.5,0.1,1,0.1c0.7,0,1-0.1,1.2-0.3c0.2-0.2,0.4-0.5,0.5-0.9
		L116.1,47.6z"/>
	<path d="M122.6,49.3c-0.1,0-0.2,0-0.3,0c-0.8,0-1.2-0.3-1.7-0.9c-0.3-0.5-0.7-1.1-1-1.6c-0.2-0.3-0.3-0.4-0.8-0.4h-0.3v1.6
		c0,0.8,0.1,0.9,0.9,1v0.3h-2.7v-0.3c0.8-0.1,0.9-0.1,0.9-1V44c0-0.8-0.1-0.9-0.9-0.9v-0.3h2.5c0.8,0,1.2,0.1,1.6,0.3
		c0.4,0.3,0.7,0.7,0.7,1.3c0,0.9-0.5,1.4-1.3,1.7c0.2,0.3,0.6,1,0.9,1.4c0.4,0.5,0.6,0.8,0.8,1c0.3,0.3,0.5,0.4,0.7,0.5L122.6,49.3z
		"/>
	<path class="st1" d="M119,46c0.5,0,0.8-0.1,1.1-0.3c0.4-0.3,0.5-0.7,0.5-1.2c0-1.1-0.7-1.5-1.4-1.5c-0.3,0-0.4,0-0.5,0.1
		c-0.1,0.1-0.1,0.2-0.1,0.4V46H119z"/>
</g>
</svg>
