<svg height="88.737503" viewBox="0 0 83.887497 88.737503" width="83.887497" xmlns="http://www.w3.org/2000/svg"><g fill="#231f20" transform="matrix(.125 0 0 -.125 0 88.7375)"><path d="m56.7461 77.7422h-11.707l-31.0977 34.8048v-34.8048h-13.9414v56.2618h12.7773l30.1133-33.164v33.164h13.8555z"/><path d="m110.367 87.1484-.488-.2539c-2.149-1.2304-3.141-1.5547-4.133-1.5547-1.48 0-1.898.7344-1.898 3.0469v15.0113c0 3.633-.328 5.36-1.149 6.934-2.152 3.875-7.5935 6.18-14.9295 6.18-2.6445 0-6.1093-.41-8.4179-1.074-2.4727-.653-5.9453-2.227-8.1641-3.543v-9.739c3.793 3.957 9.2422 6.438 14.0234 6.438 4.5352 0 6.5938-1.895 6.5938-5.938v-.5l-.5742-.156-1.8125-.586-2.4024-.742c-7.2461-2.3048-9.3984-3.047-11.707-4.2853-3.8789-2.1484-6.1016-5.6054-6.1016-9.4062 0-5.7696 4.5313-9.9805 10.6407-9.9805 4.1211 0 7.5898 1.0742 11.7109 3.7109l.8281.5c.8203-2.9804 2.7188-4.2109 6.7617-4.2109 3.2186 0 7.9216 1.4063 11.2186 3.4688zm-18.5623 8.9844v-9.1523c-1.8164-1.7383-4.3672-2.8008-6.3477-2.8008-2.3906 0-4.1289 1.7266-4.1289 4.0312 0 2.7266 1.9805 4.7188 6.2696 6.2696l3.1406 1.2422z"/><path d="m145.84 107.52h-13.692v-11.7192c0-8 1.153-9.9805 5.688-9.9805 2.473 0 4.371.5078 7.344 1.9805.168 0 .41.1758.66.2539v-8.6602c-4.211-1.7304-7.262-2.3945-11.145-2.3945-5.355 0-9.808 2.0625-12.367 5.6953-1.812 2.6367-2.308 4.9492-2.308 11.043v13.7817h-5.442v2.234l15.918 17.98h1.652v-11.964h13.692z"/><path d="m161.68 121.797c-3.633 0-6.602 2.891-6.602 6.348 0 3.796 2.969 6.765 6.758 6.765 3.551 0 6.441-2.969 6.441-6.765-.078-3.457-2.968-6.348-6.597-6.348m5.527-44.0548h-11.469v38.0278h11.469z"/><path d="m220.328 96.6289c0 5.2851-1.32 9.1601-4.121 12.4531-4.051 4.793-10.23 7.43-17.16 7.43-12.461 0-21.621-8.496-21.621-19.8831 0-11.543 8.91-19.6289 21.527-19.6289 12.715 0 21.375 7.9102 21.375 19.6289m-12.871.1758c-.078-4.5391-.738-7.1758-2.141-9.1602-1.57-2.1484-3.718-3.2226-6.363-3.2226-5.687 0-8.656 4.0429-8.656 11.8867 0 8.7384 2.73 12.8714 8.34 12.8714 5.851 0 8.82-3.965 8.82-11.8089z"/><path d="m243.59 110.332c3.789 4.285 7.508 6.191 12.367 6.191 5.609 0 10.152-2.734 12.461-7.433 1.152-2.313 1.48-4.121 1.48-8.914v-22.4416h-12.039v21.4531c0 6.6795-1.57 9.0035-5.941 9.0035-3.051 0-6.27-2.324-8.328-5.945v-24.5116h-11.961v38.0356h11.961z"/><path d="m321.957 87.1484-.488-.2539c-2.153-1.2304-3.145-1.5547-4.129-1.5547-1.481 0-1.902.7344-1.902 3.0469v15.0113c0 3.633-.333 5.36-1.153 6.934-2.148 3.875-7.586 6.18-14.93 6.18-2.636 0-6.109-.41-8.417-1.074-2.473-.653-5.942-2.227-8.161-3.543v-9.739c3.789 3.957 9.231 6.438 14.02 6.438 4.539 0 6.601-1.895 6.601-5.938v-.5l-.582-.156-1.812-.586-2.395-.742c-7.261-2.3048-9.398-3.047-11.711-4.2853-3.882-2.1484-6.101-5.6054-6.101-9.4062 0-5.7696 4.531-9.9805 10.637-9.9805 4.121 0 7.593 1.0742 11.714 3.7109l.832.5c.821-2.9804 2.719-4.2109 6.758-4.2109 3.215 0 7.918 1.4063 11.219 3.4688zm-18.559 8.9844v-9.1523c-1.82-1.7383-4.371-2.8008-6.351-2.8008-2.399 0-4.129 1.7266-4.129 4.0312 0 2.7266 1.98 4.7188 6.27 6.2696l3.14 1.2422z"/><path d="m330.543 77.7422h12.0352v56.2617h-12.0352z"/><path d="m421.27 77.7422h-42.891v56.2618h14.18v-45.7813h28.711z"/><path d="m437.441 121.797c-3.632 0-6.601 2.891-6.601 6.348 0 3.796 2.969 6.765 6.758 6.765 3.554 0 6.445-2.969 6.445-6.765-.078-3.457-2.969-6.348-6.602-6.348m5.528-44.0548h-11.465v38.0278h11.465z"/><path d="m468.535 134.004h-11.953v-56.2618h11.953v2.8906c3.301-2.3906 6.856-3.6328 10.645-3.6328 10.476 0 17.734 8.1758 17.734 19.8828 0 11.6332-7.578 19.6292-18.555 19.6292-3.711 0-6.015-.664-9.824-2.879zm0-28.137c1.992 1.496 4.707 2.481 6.934 2.481 5.937 0 9.492-4.285 9.492-11.4652 0-7.0976-3.555-11.4726-9.316-11.4726-2.317 0-4.551.8281-7.11 2.8125z"/><path d="m520.43 104.883h.156c1.16 2.89 2.734 5.359 4.461 7.586 2.141 2.648 4.777 4.043 7.668 4.043 2.39 0 4.551-.907 7.93-3.457l-3.301-10.567c-2.727 1.895-4.875 2.805-7.012 2.805-3.711 0-7.344-3.711-9.238-9.1602l-.41-1.3984-.254-.5742v-16.418h-11.953v38.0278h11.953z"/><path d="m585.684 87.1484-.508-.2539c-2.129-1.2304-3.125-1.5547-4.121-1.5547-1.485 0-1.895.7344-1.895 3.0469v15.0113c0 3.633-.332 5.36-1.152 6.934-2.149 3.875-7.59 6.18-14.922 6.18-2.648 0-6.113-.41-8.43-1.074-2.468-.653-5.937-2.227-8.152-3.543v-9.739c3.789 3.957 9.226 6.438 14.023 6.438 4.532 0 6.59-1.895 6.59-5.938v-.5l-.574-.156-1.816-.586-2.403-.742c-7.258-2.3048-9.394-3.047-11.699-4.2853-3.887-2.1484-6.105-5.6054-6.105-9.4062 0-5.7696 4.531-9.9805 10.636-9.9805 4.121 0 7.598 1.0742 11.719 3.7109l.82.5c.821-2.9804 2.723-4.2109 6.766-4.2109 3.215 0 7.922 1.4063 11.223 3.4688zm-18.567 8.9844v-9.1523c-1.816-1.7383-4.363-2.8008-6.347-2.8008-2.403 0-4.129 1.7266-4.129 4.0312 0 2.7266 1.972 4.7188 6.269 6.2696l3.145 1.2422z"/><path d="m606.133 104.883h.164c1.164 2.89 2.726 5.359 4.465 7.586 2.129 2.648 4.773 4.043 7.664 4.043 2.394 0 4.543-.907 7.922-3.457l-3.301-10.567c-2.715 1.895-4.863 2.805-7.012 2.805-3.711 0-7.344-3.711-9.238-9.1602l-.41-1.3984-.254-.5742v-16.418h-11.953v38.0278h11.953z"/><path d="m645.645 59.5117h-12.696l11.133 24.4219-14.855 31.8364h12.793l8-18.8091 8.574 18.8091h12.547z"/><path d="m165.965 19.6367c0 5.2852-1.317 9.1602-4.113 12.4531-4.055 4.793-10.235 7.4297-17.164 7.4297-12.461 0-21.622-8.4961-21.622-19.8828 0-11.54295 8.911-19.6288875 21.532-19.6288875 12.711 0 21.367 7.9101575 21.367 19.6288875m-12.863.168c-.086-4.5313-.743-7.168-2.145-9.1524-1.566-2.14839-3.723-3.22261-6.359-3.22261-5.692 0-8.66 4.04301-8.66 11.88671 0 8.7383 2.73 12.8711 8.328 12.8711 5.859 0 8.836-3.9648 8.836-11.8086z"/><path d="m196.406 38.7773v-7.996h-5.441v-30.0313h-11.973v30.0313h-5.437v7.996h5.437v.9961c.254 5.3516.914 8.1641 2.567 10.8907.988 1.8047 2.48 3.3007 4.207 4.4414 2.718 1.8281 5.937 2.6484 9.898 2.6484 1.324 0 2.641-.0781 3.871-.2461l2.813-.418.578-.0781v-9.6484l-.66.0781c-1.899.2539-3.391.4102-4.621.4102-4.868 0-6.68-2.1407-6.68-8v-1.0743z"/><path d="m270.816 41.8359-.992.4961c-6.773 3.3789-12.211 4.9414-17.164 4.9414-5.105 0-8.406-1.8164-8.406-4.5312 0-2.3906 2.879-4.4609 9.148-6.6797l4.457-1.6484c10.801-3.8789 15.516-9.2383 15.516-17.7461 0-9.9805-8.836-16.6601875-22.031-16.6601875-4.781 0-9.153.9101565-14.852 3.0585975-3.301 1.3164-3.539 1.39453-5.027 2.38281v12.12888c4.117-2.5586 6.269-3.8008 9.066-4.8633 3.551-1.4843 6.934-2.1406 10.403-2.1406 5.531 0 8.5 1.7305 8.5 5.1094 0 2.8125-1.899 4.3633-7.59 6.3477l-3.059 1.0742c-4.371 1.5625-6.68 2.5586-9.324 4.0429-2.137 1.1524-3.879 2.5664-5.277 4.1211-2.309 2.6446-3.711 6.5235-3.711 10.4766 0 9.6602 8.41 16.0078 21.281 16.0078 6.269 0 11.879-1.2305 19.062-4.375z"/><path d="m326.988.0078125h-5.605l-9.246 20.7148875-9.571-20.7148875h-5.609l-17.156 38.7694875h12.211l8.008-20.2148 8.492 20.2148h7.176l8.414-20.2148 8.168 20.2148h12.128z"/><path d="m389.688 12.7148-.5-.4101c-5.36-3.63282-8.907-4.87501-13.614-4.87501-7.504 0-12.121 3.80081-12.531 10.39061h27.297v1.086c0 12.2851-7.918 20.6132-19.547 20.6132-11.551 0-20.133-8.4062-20.133-19.7929 0-11.88676 8.422-19.7266 20.949-19.7266 7.512 0 13.625 1.74609 18.079 5.04688zm-26.407 11.375c.418 4.875 3.711 8.1758 8.168 8.1758 4.625 0 7.848-3.2226 8.336-8.1758z"/><path d="m439.59 57.0117h-11.875v-19.8828c-3.137 1.5703-6.438 2.3906-9.902 2.3906-10.899 0-18.399-8.0859-18.399-19.707 0-11.47266 7.5-19.8046875 17.734-19.8046875 4.043 0 7.188 1.0742175 10.567 3.7890675v-3.04688h11.875zm-11.875-45.8594c-2.402-1.90621-4.551-2.73433-7.012-2.73433-5.527 0-8.992 4.29683-8.992 11.21873 0 7.5899 3.375 11.8867 9.324 11.8867 2.129 0 4.942-.9179 6.68-2.2382z"/><path d="m489.902 12.7148-.488-.4101c-5.371-3.63282-8.906-4.87501-13.613-4.87501-7.5 0-12.129 3.80081-12.539 10.39061h27.304v1.086c0 12.2851-7.921 20.6132-19.55 20.6132-11.543 0-20.129-8.4062-20.129-19.7929 0-11.88676 8.418-19.7266 20.949-19.7266 7.508 0 13.625 1.74609 18.066 5.04688zm-26.398 11.375c.422 4.875 3.711 8.1758 8.176 8.1758 4.617 0 7.832-3.2226 8.328-8.1758z"/><path d="m513.574 33.3398c3.797 4.2852 7.52 6.1915 12.383 6.1915 5.606 0 10.145-2.7344 12.461-7.4336 1.152-2.3125 1.484-4.1211 1.484-8.9141v-22.4336h-12.05v21.4453c0 6.6797-1.575 9.0039-5.938 9.0039-3.047 0-6.269-2.3242-8.34-5.9453v-24.5039h-11.953v38.0273h11.953z"/><path d="m170.844 613.633 38.851-1.641-11.808-13-34.571 1.203 19.539-17.754-9.48-10.441-41.652 37.824 9.484 10.438 18.867-17.129.121.117-6.949 30.273 10.367 11.407z"/><path d="m269.262 671.328c.91-2.031 1.672-4.133 2.218-5.781 1.313-3.945 1.379-8.332.411-12.024-1.34-4.668-5.118-9.968-9.539-13.222-2.403-1.699-5.2-3.321-8.364-4.727-6.625-2.969-11.726-3.886-17.347-3.242-3.09.422-5.93 1.32-8.34 2.688-4.469 2.519-7.52 6.308-10.449 12.851l-12.672 28.309 12.949 5.8 11.391-25.457c2.261-5.039 3.894-7.472 6.14-9.269 3.86-2.969 8.973-3.484 14.012-1.231 6.176 2.766 9.582 8.887 8.246 14.895-.277 1.238-.598 2.352-1.066 3.406l-1.653 3.692-11.386 25.449 12.949 5.801z"/><path d="m364.773 652.82-11.707.176-30.582 35.274-.515-34.805-13.942.207.84 56.25 12.778-.188 29.621-33.613.492 33.164 13.855-.215z"/><path d="m459.316 658.691-.644.77c-4.531 5.578-10.207 10.137-16.004 12.941-11.379 5.477-21.438 2.821-26.176-6.984-4.226-8.77-.242-18.379 9.485-23.066 3.125-1.512 6.375-2.352 9.921-2.598l2.872 5.949-7.286 3.516 4.551 9.433 20.137-9.718-10.07-20.879c-7.098-1.797-16.454-.489-25 3.633-17.606 8.488-24.891 25.292-17.547 40.519 7.488 15.535 24.883 20.059 43.164 11.238 4.375-2.109 8.769-4.968 12.246-8.007 2.207-1.895 3.183-2.911 5.644-5.75z"/><path d="m495.098 569.785-28.438 32.098 42.09 37.324 9.414-10.625-34.258-30.371 19.043-21.473z"/><path d="m113.008 507.332-1.113-6.172c-1.692-9.324-3.762-11.98-8.868-11.055-4.9528.899-6.1325 4.122-4.5622 12.805l1.2305 6.824zm34.515 8.273-55.3667 10-4.6602-25.402c-.8789-4.871-1.0039-7.871-.582-10.633 1.1132-7.316 5.914-12.297 12.8906-13.554 7.3083-1.309 12.6333 1.668 16.4803 9.101 1.438-5.051 5.149-8.644 9.778-9.472 5.761-1.047 11.734 2.312 14.656 8.25 1.449 2.921 1.945 4.757 2.996 10.605zm-12.437-12.257-.981-5.438c-1.16-6.418-3.425-8.769-7.652-8.008-4.379.789-5.617 3.7-4.398 10.43l.941 5.203z"/><path d="m87.4023 418.027-1.8984 14.063 55.7501 7.539 1.898-14.063z"/><path d="m127.895 365.488 2.796-5.617c4.231-8.484 4.153-11.844-.496-14.168-4.511-2.238-7.382-.363-11.324 7.539l-3.09 6.211zm22.718 27.266-50.351-25.09 11.441-23.152c2.207-4.426 3.91-6.895 5.899-8.86 5.257-5.214 12.089-6.328 18.441-3.164 6.641 3.313 9.117 8.887 7.77 17.149 4.16-3.184 9.292-3.856 13.5-1.758 5.242 2.617 8.007 8.887 6.808 15.383-.586 3.211-1.289 4.98-3.937 10.293zm-2.64-17.258 2.472-4.949c2.899-5.832 2.489-9.082-1.355-10.996-3.977-1.985-6.707-.403-9.754 5.73l-2.363 4.727z"/><path d="m181.758 259.316-31.469 29.149 38.231 41.269 10.41-9.636-31.114-33.594 21.059-19.492z"/><path d="m218.98 236.883-12.402 6.906 27.336 49.168 12.402-6.902z"/><path d="m328.777 234.754c2.723 16.105-9.101 30.898-26.992 33.906-17.976 3.039-33.91-7.078-36.621-23.191-2.687-15.938 9.047-30.715 26.774-33.703 18.14-3.055 34.132 6.875 36.839 22.988m-14.367 2.09c-1.652-9.766-10.164-15.606-20.254-13.914-10.488 1.777-16.418 9.804-14.718 19.89 1.757 10.41 9.699 15.84 20.277 14.063 10.746-1.817 16.531-9.637 14.695-20.039"/><path d="m408.984 266.895-19.718-4.786 10.773-44.414-13.867-3.359-10.781 44.402-19.797-4.793-2.489 10.254 53.399 12.949z"/><path d="m498.836 269.773-33.504-24.46-33.184 45.429 33.047 24.129 6.172-8.465-21.582-15.761 6.719-9.192 20.586 15.031 6.219-8.527-20.575-15.027 7.969-10.93 22.051 16.105z"/><path d="m523.992 347.656 38.508 5.399-9.258-14.93-34.219-5.051 22.411-13.926-7.45-11.98-47.773 29.687 7.441 11.981 21.661-13.445.078.136-12.297 28.524 8.156 13.097z"/><path d="m583.652 434.219-7.597-40.781-55.313 10.292 7.5 40.235 10.293-1.926-4.902-26.277 11.191-2.082 4.668 25.058 10.391-1.933-4.68-25.059 13.301-2.469 5 26.836z"/><path d="m528.242 527.723 4.16-19.864 44.727 9.375 2.93-13.972-44.739-9.367 4.18-19.942-10.332-2.168-11.258 53.781z"/><path d="m325.859 521.531.039 17.52s8.129.109 18.731.019l-.039-17.527z"/><path d="m325.938 409.813-.094 94.316s18.683.07 18.683.039l.149-94.316z"/><path d="m247.641 391.785-3.887 18.117 82.18-.089-.02-18.145z"/><path d="m422.617 391.621 3.985 18.621-81.997-.066v-18.555z"/><path d="m221.816 507.391s54.469 14.738 104.028 14.16l-.028-17.391s-44.324 1.531-100.191-13.859z"/><path d="m448.875 507.48s-54.773 14.649-104.316 14.071l.058-17.422s44.582 1.633 100.449-13.738z"/><path d="m203.414 503.055-3.82 17.101s7.902 1.895 18.273 4.141l3.817-17.109z"/><path d="m225.484 405.73-18.121 80.372s18.25 4.152 18.262 4.199l18.129-80.399z"/><path d="m466.875 503.25 3.809 17.102s-7.891 1.902-18.262 4.148l-3.828-17.109z"/><path d="m444.793 405.938 18.117 80.371s-18.242 4.148-18.262 4.199l-18.117-80.41z"/><path d="m133.867 548.418c-3.883 0-7.262 3.301-7.262 7.187 0 3.954 3.223 7.168 7.184 7.168 4.039 0 7.168-3.136 7.168-7.089 0-3.965-3.207-7.266-7.09-7.266"/><path d="m534.414 548.621c-3.887 0-7.266 3.301-7.266 7.18 0 3.965 3.223 7.176 7.188 7.176 4.031 0 7.168-3.133 7.168-7.09 0-3.965-3.211-7.266-7.09-7.266"/></g></svg>