<svg width="600" height="396" viewBox="0 0 600 396" fill="none" xmlns="http://www.w3.org/2000/svg">
<path d="M208 264.6H170V169.2L145.2 264.6H119.2L93.6 169.2V264.6H63V131.2H116.4L135.8 202L154.2 131.2H208V264.6Z" fill="#385072"/>
<path d="M231.4 131.2H283C305 131.2 320 137 332.2 150C343.8 162.4 350 179 350 197.6C350 237.4 323.8 264.6 285.6 264.6H231.4V131.2V131.2ZM283 234C297.2 234 307.2 219 307.2 197.8C307.2 188.2 305.2 179.4 301.2 172.4C297 165 291 161.4 283 161.4H272.4V234H283Z" fill="#385072"/>
<path d="M408.8 264.6H367.4V131.2H424.2C444.8 131.2 456.2 134.2 466 141.8C475.2 149.2 480.8 161 480.8 173.8C480.8 199.2 461.4 216.2 432 216.2H408.8V264.6V264.6ZM422 187.6C434.4 187.6 440 183.4 440 174.4C440 166 434.4 161.8 423.2 161.8H408.4V187.6H422V187.6Z" fill="#385072"/>
<path d="M535.4 264.6H494.4V131.2H535.4V264.6Z" fill="#385072"/>
<path d="M10.6 292.4H0.600006V89.2L154.6 0.599998L309.6 88.9L300.2 94.9L154.6 12.2L10.6 95V292.4Z" fill="#385072"/>
<path d="M25.4 111.2L25.5 99.7L149.3 28.4L149.2 40.4L25.4 111.2Z" fill="#385072"/>
<path d="M589.2 103.7H599.2V307L445.3 395.5L290.2 307.3L299.7 301.2L445.2 384L589.2 301.2V103.7Z" fill="#385072"/>
<path d="M574.4 284.9L574.3 296.5L450.5 367.8L450.6 355.7L574.4 284.9Z" fill="#385072"/>
</svg>
