<svg width="503" height="263" viewBox="0 0 503 263" fill="none" xmlns="http://www.w3.org/2000/svg">
<g clip-path="url(#clip0)">
<path d="M110.7 182.2C109.1 182.2 108 182.1 107.5 182.1L101.5 181.4L21.5 22.4H20V181.1H0V1.7H33.9L114.2 162.1C121.9 161.6 133.5 159.6 140.2 153.2C144 149.5 145.9 144.7 145.9 138.5C145.9 124.5 135.4 115.2 123.3 104.5C110.1 92.8 95.1 79.4 95.1 58C95.1 20.9 131 3.9 150 0L154 19.6C152.4 19.9 115.1 28.1 115.1 57.9C115.1 70.4 125.1 79.2 136.6 89.5C150.3 101.7 165.9 115.5 165.9 138.5C165.9 150.3 161.7 160.4 153.9 167.8C140 180.8 118.9 182.2 110.7 182.2Z" fill="#EA4D33"/>
<path d="M187.7 181.1H177.7V1.29999H187.7C213.5 1.29999 235.9 6.69999 252.5 19.2C272 33.8 282.4 55.9 282.4 83C282.4 109.1 272.2 134 253.7 153.1C235.7 171.6 211.6 181.1 187.7 181.1ZM197.7 21.7V160.3C233.2 154.8 262.4 121.6 262.4 83C262.4 33.3 220.8 23.8 197.7 21.7Z" fill="#EA4D33"/>
<path d="M113.3 222.3V196.4H118.6L130.2 217.1H130.4V196.4H133.6V222.3H129.7L116.8 199.7H116.6V222.3H113.3Z" fill="black"/>
<path d="M140.4 209.1C140.4 201.3 144.7 195.8 152.6 195.8C159.7 195.8 164.2 201 164.2 208.9C164.2 217.7 160.2 222.8 152.2 222.8C144 222.8 140.4 217 140.4 209.1ZM144.1 208.7C144.1 213.5 145.5 219.9 152.6 219.9C158 219.9 160.5 215.9 160.5 209.7C160.5 203 158 198.8 151.9 198.8C146.9 198.8 144.1 202.5 144.1 208.7Z" fill="black"/>
<path d="M177.4 211.1H174.6V222.4H171V196.5H178.9C183.1 196.5 186.9 198 186.9 203.3C186.9 207.1 184.5 209.8 181.2 210.7L188.7 222.4H184.5L177.4 211.1ZM178.3 208.1C181.2 208.1 183.2 206.6 183.2 203.5C183.2 200.2 181.4 199.3 178.2 199.3H174.6V208.2H178.3V208.1Z" fill="black"/>
<path d="M205.2 196.5H208.7L215 218.3H215.4L220.6 196.5H223.8L217.4 222.4H212.6L207.9 205.7H207.7L202.3 222.4H198.1L191.5 196.5H194.9L200.3 218.1H200.6L206.2 200.7L205.2 196.5Z" fill="black"/>
<path d="M229.8 196.5H244.2V199.4H233.2V207.6H242.2V210.5H233.1V219.4H244.9V222.3H229.6V196.5H229.8Z" fill="black"/>
<path d="M268.2 200.7C266.4 199.6 264.3 198.8 261.4 198.8C256.3 198.8 252.7 202 252.7 209C252.7 214.8 254.8 219.8 262 219.8C263.4 219.8 265 219.6 266.2 219.2V210.2H269.7V221C267.8 222.1 264.5 222.8 261.6 222.8C252.2 222.8 249 216.9 249 209.4C249 201.6 253.5 195.8 261.8 195.8C264.9 195.8 268.2 197 269.8 198.3L268.2 200.7Z" fill="black"/>
<path d="M280.9 222.3H277.4V196.4H280.9V222.3Z" fill="black"/>
<path d="M299.5 196.5L308.4 222.4H304.6L302 214.8H292.8L290.2 222.4H286.6L294.2 200L295.3 196.5H299.5ZM293.7 211.7H301.2L297.6 200.4H297.3L293.7 211.7Z" fill="black"/>
<path d="M314 222.3V196.4H319.3L330.9 217.1H331.1V196.4H334.3V222.3H330.4L317.5 199.7H317.3V222.3H314Z" fill="black"/>
<path d="M370.1 200.8C368.5 199.8 366.6 198.8 363.3 198.8C358.3 198.8 354.7 202 354.7 209C354.7 214.5 356.8 219.7 363.4 219.7C366.5 219.7 368.5 218.7 370.4 217.4L372 219.8C370 221.5 367 222.7 363.4 222.7C354.6 222.7 351 216.9 351 209.3C351 201.5 355.5 195.7 363.6 195.7C367.2 195.7 370.2 197 371.7 198.2L370.1 200.8Z" fill="black"/>
<path d="M377.7 196.5H392.1V199.4H381.1V207.6H390.1V210.5H381V219.4H392.8V222.3H377.5V196.5H377.7Z" fill="black"/>
<path d="M399.1 222.3V196.4H404.4L416 217.1H416.2V196.4H419.4V222.3H415.5L402.6 199.7H402.4V222.3H399.1Z" fill="black"/>
<path d="M425.1 199.3V196.4H445.2V199.3H436.8V222.3H433.3V199.3H425.1Z" fill="black"/>
<path d="M457.4 211.1H454.6V222.4H451V196.5H458.9C463.1 196.5 466.9 198 466.9 203.3C466.9 207.1 464.5 209.8 461.2 210.7L468.7 222.4H464.5L457.4 211.1ZM458.3 208.1C461.2 208.1 463.2 206.6 463.2 203.5C463.2 200.2 461.4 199.3 458.2 199.3H454.6V208.2H458.3V208.1Z" fill="black"/>
<path d="M474.3 196.5H488.7V199.4H477.7V207.6H486.7V210.5H477.6V219.4H489.4V222.3H474.1V196.5H474.3Z" fill="black"/>
<path d="M136.7 236.5H151.1V239.4H140.1V248H149.1V250.9H140.1V262.3H136.6V236.5H136.7Z" fill="black"/>
<path d="M154.8 249.1C154.8 241.3 159.1 235.8 167 235.8C174.1 235.8 178.6 241 178.6 248.9C178.6 257.7 174.6 262.8 166.6 262.8C158.4 262.8 154.8 257 154.8 249.1ZM158.5 248.7C158.5 253.5 159.9 259.9 167 259.9C172.4 259.9 174.9 255.9 174.9 249.7C174.9 243 172.4 238.8 166.3 238.8C161.3 238.8 158.5 242.5 158.5 248.7Z" fill="black"/>
<path d="M191.9 251.1H189V262.4H185.4V236.5H193.3C197.5 236.5 201.3 238 201.3 243.3C201.3 247.1 198.9 249.8 195.6 250.7L203.1 262.4H199L191.9 251.1ZM192.7 248.1C195.6 248.1 197.6 246.6 197.6 243.5C197.6 240.2 195.8 239.3 192.6 239.3H189V248.2H192.7V248.1Z" fill="black"/>
<path d="M224.9 251.1H222.1V262.4H218.5V236.5H226.4C230.6 236.5 234.4 238 234.4 243.3C234.4 247.1 232 249.8 228.7 250.7L236.2 262.4H232L224.9 251.1ZM225.7 248.1C228.6 248.1 230.6 246.6 230.6 243.5C230.6 240.2 228.8 239.3 225.6 239.3H222V248.2H225.7V248.1Z" fill="black"/>
<path d="M241.8 236.5H256.2V239.4H245.2V247.6H254.2V250.5H245.1V259.4H256.9V262.3H241.6V236.5H241.8Z" fill="black"/>
<path d="M276.2 240.6C274.8 239.8 272.8 239 270.5 239C267.5 239 265.9 240.5 265.9 242.5C265.9 245.1 267.7 245.9 271.1 247.3C274.3 248.7 278.1 250.1 278.1 254.9C278.1 260.3 274.5 262.8 269.3 262.8C265.8 262.8 262.4 261.4 260.9 260.2L262.5 257.4C263.5 258.2 266.5 259.7 269.3 259.7C272.9 259.7 274.7 258.3 274.7 255.4C274.7 252.2 272 251.1 269.2 250.1C265.7 248.8 262.4 247.3 262.4 243C262.4 238.2 266.3 236 270.6 236C273.1 236 275.9 236.8 277.6 238L276.2 240.6Z" fill="black"/>
<path d="M285.2 236.5H299.6V239.4H288.6V247.6H297.6V250.5H288.5V259.4H300.3V262.3H285V236.5H285.2Z" fill="black"/>
<path d="M316.7 236.5L325.6 262.4H321.8L319.2 254.8H310L307.4 262.4H303.8L311.4 240L312.5 236.5H316.7V236.5ZM310.8 251.7H318.3L314.7 240.4H314.4L310.8 251.7Z" fill="black"/>
<path d="M337.5 251.1H334.7V262.4H331.1V236.5H339C343.2 236.5 347 238 347 243.3C347 247.1 344.6 249.8 341.3 250.7L348.8 262.4H344.6L337.5 251.1ZM338.4 248.1C341.3 248.1 343.3 246.6 343.3 243.5C343.3 240.2 341.5 239.3 338.3 239.3H334.7V248.2H338.4V248.1Z" fill="black"/>
<path d="M372 240.8C370.4 239.8 368.5 238.8 365.2 238.8C360.2 238.8 356.6 242 356.6 249C356.6 254.5 358.7 259.7 365.3 259.7C368.4 259.7 370.4 258.7 372.3 257.4L373.9 259.8C371.9 261.5 368.9 262.7 365.3 262.7C356.5 262.7 352.9 256.9 352.9 249.3C352.9 241.5 357.4 235.7 365.5 235.7C369.1 235.7 372.1 237 373.6 238.2L372 240.8Z" fill="black"/>
<path d="M395.3 236.5H398.8V262.4H395.3V250.7H383V262.4H379.5V236.5H383V247.7H395.3V236.5Z" fill="black"/>
<path d="M416.9 262.3V236.4H424.8C431 236.4 437.2 239 437.2 248.4C437.2 259 431.5 262.3 425.4 262.3H416.9ZM424.1 239.3H420.4V259.5H424.4C430.8 259.5 433.5 255.7 433.5 249.3C433.5 241.2 429.7 239.3 424.1 239.3Z" fill="black"/>
<path d="M453 236.5L461.9 262.4H458.1L455.5 254.8H446.3L443.7 262.4H440.1L447.7 240L448.8 236.5H453V236.5ZM447.1 251.7H454.6L451 240.4H450.7L447.1 251.7Z" fill="black"/>
<path d="M461.7 239.3V236.4H481.8V239.3H473.4V262.3H469.9V239.3H461.7Z" fill="black"/>
<path d="M494.1 236.5L503 262.4H499.2L496.6 254.8H487.4L484.8 262.4H481.2L488.8 240L489.9 236.5H494.1V236.5ZM488.2 251.7H495.7L492.1 240.4H491.8L488.2 251.7Z" fill="black"/>
</g>
<defs>
<clipPath id="clip0">
<rect width="503" height="263" fill="white"/>
</clipPath>
</defs>
</svg>
