<?xml version="1.0" encoding="UTF-8" standalone="no"?>
<!DOCTYPE svg PUBLIC "-//W3C//DTD SVG 1.1//EN" "http://www.w3.org/Graphics/SVG/1.1/DTD/svg11.dtd">
<svg width="100%" height="100%" viewBox="0 0 1334 1246" version="1.1" xmlns="http://www.w3.org/2000/svg" xmlns:xlink="http://www.w3.org/1999/xlink" xml:space="preserve" xmlns:serif="http://www.serif.com/" style="fill-rule:evenodd;clip-rule:evenodd;stroke-linejoin:round;stroke-miterlimit:2;">
    <g transform="matrix(4.16667,0,0,4.16667,0,0)">
        <g>
            <path d="M318.973,299L1,299C0.45,299 0,298.55 0,298L0,1.279C0,0.729 0.45,0.279 1,0.279L318.973,0.279C319.523,0.279 319.973,0.729 319.973,1.279L319.973,298C319.973,298.55 319.523,299 318.973,299Z" style="fill:rgb(1,167,251);fill-rule:nonzero;"/>
            <g transform="matrix(1,0,0,1,0,22.32)">
                <path d="M71.256,125.097C77.159,125.207 81.532,124.004 84.265,121.49C86.998,118.976 88.309,115.478 88.309,110.777C88.309,106.076 86.998,102.578 84.265,100.064C81.532,97.659 77.159,96.457 71.256,96.457L50.924,96.457L50.924,125.097L71.256,125.097ZM74.754,87.712C82.625,87.712 88.637,89.679 92.682,93.724C96.727,97.769 98.694,103.453 98.694,110.777C98.694,118.101 96.727,123.786 92.682,127.83C88.637,131.875 82.625,133.952 74.754,133.843L50.924,133.843L50.924,165.762L40.539,165.762L40.539,87.712L74.754,87.712Z" style="fill:white;fill-rule:nonzero;"/>
            </g>
            <g transform="matrix(1,0,0,1,0,22.32)">
                <path d="M138.922,125.863C138.047,123.895 136.954,122.146 135.533,120.725C134.112,119.304 132.363,118.21 130.504,117.336C128.537,116.571 126.35,116.133 124.055,116.133C121.65,116.133 119.464,116.571 117.605,117.336C115.638,118.21 113.998,119.413 112.577,120.834C111.156,122.255 110.062,124.004 109.297,125.863C108.532,127.83 107.986,129.907 107.876,132.093L140.343,132.093C140.233,129.907 139.687,127.83 138.922,125.863ZM141.108,162.155C136.845,165.325 131.598,166.965 125.148,166.965C120.666,166.965 116.731,166.2 113.451,164.779C110.062,163.358 107.33,161.281 105.034,158.657C102.738,156.033 101.099,152.863 100.006,149.256C98.803,145.649 98.147,141.604 98.038,137.341C98.038,133.077 98.694,129.142 100.006,125.535C101.317,121.927 103.176,118.866 105.581,116.243C107.876,113.619 110.718,111.542 113.998,110.121C117.168,108.7 120.775,107.935 124.601,107.935C129.63,107.935 133.784,108.919 137.173,110.996C140.452,113.073 143.076,115.806 145.153,118.976C147.12,122.146 148.541,125.644 149.307,129.47C150.072,133.296 150.29,136.903 150.181,140.292L107.876,140.292C107.767,142.806 108.095,145.102 108.751,147.288C109.407,149.584 110.5,151.552 111.921,153.191C113.342,154.94 115.2,156.361 117.496,157.345C119.792,158.329 122.415,158.876 125.476,158.876C129.411,158.876 132.691,158.001 135.205,156.143C137.719,154.284 139.359,151.552 140.124,147.835L149.307,147.835C148.104,154.175 145.371,158.985 141.108,162.155Z" style="fill:white;fill-rule:nonzero;"/>
            </g>
            <g transform="matrix(1,0,0,1,0,22.32)">
                <path d="M194.343,125.863C193.468,123.895 192.375,122.146 190.954,120.725C189.533,119.304 187.784,118.21 185.925,117.336C183.958,116.571 181.771,116.133 179.476,116.133C177.071,116.133 174.885,116.571 173.026,117.336C171.059,118.21 169.419,119.413 167.998,120.834C166.577,122.255 165.483,124.004 164.718,125.863C163.953,127.83 163.407,129.907 163.297,132.093L195.764,132.093C195.654,129.907 195.108,127.83 194.343,125.863ZM196.529,162.155C192.266,165.325 187.019,166.965 180.569,166.965C176.087,166.965 172.152,166.2 168.872,164.779C165.483,163.358 162.751,161.281 160.455,158.657C158.159,156.033 156.52,152.863 155.427,149.256C154.224,145.649 153.568,141.604 153.459,137.341C153.459,133.077 154.115,129.142 155.427,125.535C156.738,121.927 158.597,118.866 161.002,116.243C163.297,113.619 166.139,111.542 169.419,110.121C172.589,108.7 176.196,107.935 180.022,107.935C185.051,107.935 189.205,108.919 192.594,110.996C195.873,113.073 198.497,115.806 200.574,118.976C202.541,122.146 203.962,125.644 204.728,129.47C205.493,133.296 205.711,136.903 205.602,140.292L163.297,140.292C163.188,142.806 163.516,145.102 164.172,147.288C164.828,149.584 165.921,151.552 167.342,153.191C168.763,154.94 170.621,156.361 172.917,157.345C175.213,158.329 177.836,158.876 180.897,158.876C184.832,158.876 188.112,158.001 190.626,156.143C193.14,154.284 194.78,151.552 195.545,147.835L204.728,147.835C203.525,154.175 200.792,158.985 196.529,162.155Z" style="fill:white;fill-rule:nonzero;"/>
            </g>
            <g transform="matrix(1,0,0,1,0,22.32)">
                <path d="M218.719,109.247L218.719,121.162L218.938,121.162C221.233,116.571 223.966,113.182 227.245,110.996C230.525,108.809 234.679,107.826 239.707,107.935L239.707,117.773C235.991,117.773 232.821,118.32 230.197,119.304C227.573,120.287 225.496,121.818 223.857,123.786C222.217,125.753 221.124,128.158 220.359,130.891C219.593,133.733 219.265,137.013 219.265,140.62L219.265,165.762L209.974,165.762L209.974,109.247L218.719,109.247Z" style="fill:white;fill-rule:nonzero;"/>
            </g>
            <g transform="matrix(1,0,0,1,0,22.32)">
                <path d="M278.404,87.712L278.404,145.43C278.404,148.709 278.076,151.661 277.311,154.394C276.545,157.127 275.234,159.422 273.594,161.39C271.954,163.358 269.768,164.888 267.035,165.872C264.302,166.965 260.913,167.512 256.978,167.512C253.261,167.512 250.091,166.965 247.468,165.872C244.844,164.888 242.658,163.358 241.018,161.499C239.378,159.641 238.176,157.345 237.411,154.722C236.645,152.207 236.208,149.365 236.208,146.304L236.208,141.604L238.394,141.604L238.394,146.304C238.394,152.754 239.925,157.455 243.095,160.625C246.265,163.795 250.856,165.435 256.978,165.435C260.148,165.435 262.881,165.107 265.286,164.341C267.582,163.576 269.659,162.374 271.298,160.734C272.938,159.094 274.14,156.799 275.015,154.066C275.78,151.333 276.217,147.835 276.217,143.79L276.217,87.712L278.404,87.712Z" style="fill:white;fill-rule:nonzero;"/>
            </g>
        </g>
    </g>
</svg>
