<svg width="820" height="572" viewBox="0 0 820 572" fill="none" xmlns="http://www.w3.org/2000/svg">
<path d="M504.7 49.8003C507.2 47.0003 510.5 43.8002 515.6 43.1002C519.4 42.6002 522.8 43.1003 525.6 45.8003C533.6 53.2003 541.9 60.4002 549.6 68.2002C566.9 85.9002 582.6 104.9 597.8 124.5C612.2 143 625.5 162.4 638.1 182.2C641.8 188.1 645.6 193.9 649.3 199.8C652.7 205.2 656.1 210.7 659.3 216.2C662.6 221.7 665.8 227.3 669.1 232.9C672.1 238 675.2 243.1 678.1 248.3C682.6 256.5 686.9 264.8 691.2 273.1C694.3 279.2 697.3 285.4 700.2 291.6C704 299.4 707.9 307.1 711.3 315.1C714.7 322.8 717.6 330.7 720.6 338.6C723.5 346.3 726.3 354 728.9 361.7C729.6 363.9 729.7 366.2 730.4 368.5C732.2 375 734.5 381.4 735.8 388C737.7 397.2 739 406.5 740.4 415.9C741 419.5 741.3 423.2 741.7 426.9C741.8 427.6 741.2 428.4 740.9 429.2C740.3 428.6 739.2 428.1 739 427.4C737.2 419.5 736 411.4 733.8 403.6C730.6 392.4 727.1 381.2 723.1 370.3C719.3 360.1 715 350 710.5 340.2C705.8 330.1 700.7 320.2 695.4 310.4C690.1 300.6 684.6 290.9 678.8 281.4C672.2 270.5 665.4 259.7 658.3 249.1C648.7 234.7 639 220.3 629 206.2C620.5 194.2 611.8 182.4 602.9 170.7C593.1 157.9 583.1 145.3 572.8 132.9C563.7 122 554.2 111.3 544.6 100.8C535.3 90.8003 525.5 81.3002 515.9 71.6002C512.3 68.0002 508.3 64.8002 504.8 61.2002C501.1 57.3002 501.1 55.0003 504.7 49.8003Z" fill="#F63C3D"/>
<path d="M679.1 46.5002C682.7 45.7002 687.3 45.1002 691.8 47.5002C695.2 49.3002 697.6 51.7002 698.3 55.5002C700.4 66.2002 703 76.9002 704.6 87.7002C708.2 112.2 709.8 136.8 710.6 161.6C711.3 185 710.8 208.5 709.3 231.9C708.9 238.8 708.5 245.8 708 252.7C707.6 259.1 707.1 265.5 706.5 271.9C705.9 278.3 705.3 284.7 704.6 291.1C704 297 703.6 302.9 702.8 308.8C701.6 318.1 700.3 327.3 698.8 336.5C697.8 343.3 696.5 350 695.2 356.8C693.7 365.3 692.3 373.9 690.4 382.3C688.6 390.5 686.4 398.7 684.1 406.8C681.9 414.7 679.6 422.6 677.3 430.4C676.6 432.6 675.3 434.6 674.5 436.7C672.1 443 670.2 449.5 667.5 455.7C663.6 464.3 659.2 472.6 654.9 481C653.2 484.3 651.4 487.5 649.5 490.6C649.1 491.2 648.2 491.5 647.5 492C647.3 491.1 646.8 490.1 647 489.4C650.2 481.9 654 474.7 656.8 467.1C660.8 456.1 664.5 445.1 667.7 433.9C670.7 423.4 673.1 412.8 675.2 402.1C677.3 391.2 679 380.1 680.5 369.1C682 358.1 683.2 347 684.1 335.9C685.1 323.2 685.9 310.5 686.5 297.7C687.2 280.4 687.7 263.1 688 245.7C688.2 231 688.1 216.3 687.7 201.7C687.3 185.6 686.6 169.5 685.6 153.4C684.6 139.2 683.3 125 681.5 110.9C679.8 97.4002 677.5 83.9002 675.4 70.4002C674.6 65.4002 673.2 60.5002 672.5 55.4002C671.7 50.5002 673.1 48.6002 679.1 46.5002Z" fill="#17BAFA"/>
<g opacity="0.93">
<path opacity="0.93" d="M379 88.3001C379.5 84.7001 380.6 80.2001 384.5 76.9001C387.4 74.5001 390.5 73.1001 394.4 73.7001C405.2 75.5001 416.2 77.0001 426.9 79.3001C451.2 84.6001 474.9 91.9001 498.4 99.9001C520.7 107.5 542.5 116.3 564 125.9C570.4 128.8 576.8 131.5 583.1 134.4C588.9 137.1 594.8 139.8 600.6 142.6C606.4 145.4 612.2 148.3 618 151.1C623.3 153.7 628.7 156.2 634 159C642.3 163.4 650.5 167.9 658.6 172.4C664.6 175.8 670.5 179.3 676.4 182.8C683.9 187.2 691.4 191.5 698.7 196.2C705.8 200.8 712.6 205.7 719.5 210.6C726.1 215.4 732.7 220.2 739.2 225.2C741 226.6 742.4 228.5 744.1 230C749.2 234.4 754.6 238.5 759.4 243.2C766.1 249.8 772.2 256.8 778.6 263.7C781.1 266.4 783.4 269.2 785.7 272.1C786.2 272.7 786.1 273.6 786.2 274.4C785.3 274.3 784.2 274.4 783.6 273.9C777.8 268.3 772.3 262.3 766.2 257C757.4 249.4 748.3 242.1 738.9 235.2C730.1 228.8 721 222.8 711.7 217.1C702.2 211.3 692.4 205.9 682.6 200.6C672.8 195.3 662.8 190.3 652.7 185.6C641.2 180.2 629.5 174.9 617.7 170C601.7 163.2 585.6 156.6 569.4 150.3C555.7 144.9 541.9 139.9 527.9 135C512.6 129.7 497.3 124.6 481.8 119.9C468.1 115.8 454.3 112 440.4 108.6C427.1 105.3 413.6 102.7 400.2 99.9001C395.2 98.9001 390.1 98.4001 385.1 97.2001C380.1 96.5001 378.9 94.5001 379 88.3001Z" fill="#003D80"/>
</g>
<path d="M769.3 200.4C772.9 201.5 777.1 203.3 779.9 207.6C781.9 210.8 782.8 214.1 781.6 217.8C778.1 228.2 775 238.7 771.1 248.8C762.1 271.8 751.2 294 739.6 315.9C728.6 336.6 716.5 356.7 703.6 376.3C699.8 382.1 696 388 692.1 393.8C688.5 399.1 684.9 404.4 681.3 409.7C677.6 415 673.9 420.2 670.1 425.5C666.7 430.3 663.3 435.3 659.8 440C654.2 447.5 648.4 454.8 642.6 462.1C638.3 467.5 633.9 472.7 629.4 478C623.8 484.6 618.4 491.4 612.6 497.8C606.9 504 601 510 595 516C589.2 521.8 583.3 527.5 577.4 533.1C575.7 534.7 573.6 535.7 571.8 537.2C566.6 541.5 561.7 546.2 556.3 550.2C548.7 555.7 540.7 560.7 532.8 565.9C529.7 567.9 526.5 569.8 523.3 571.6C522.7 571.9 521.7 571.7 520.9 571.8C521.2 571 521.2 569.8 521.8 569.4C528.3 564.5 535.2 560.1 541.3 554.9C550.2 547.4 559 539.6 567.3 531.4C575.1 523.8 582.5 515.7 589.6 507.5C596.9 499.1 603.8 490.3 610.5 481.5C617.2 472.7 623.8 463.6 630.1 454.5C637.3 444 644.3 433.3 651.1 422.5C660.3 407.8 669.3 393 678.1 378.1C685.6 365.5 692.8 352.6 699.7 339.7C707.3 325.5 714.8 311.2 721.8 296.7C728 283.9 733.9 270.9 739.4 257.8C744.7 245.2 749.3 232.4 754.2 219.6C756 214.8 757.3 209.9 759.1 205.2C760.9 200.2 763 199.2 769.3 200.4Z" fill="#D2DA20"/>
<g opacity="0.83">
<path opacity="0.83" d="M798.5 349.8C800.4 353 802.3 357.3 801.3 362.3C800.6 366 799 369.1 795.6 370.9C786 376.1 776.5 381.6 766.7 386.3C744.4 397 721.3 405.7 697.9 413.7C675.7 421.3 653.1 427.7 630.3 433.1C623.5 434.7 616.8 436.4 610 438C603.8 439.5 597.5 440.9 591.2 442.2C584.9 443.5 578.6 444.8 572.3 446.1C566.5 447.3 560.7 448.6 554.8 449.6C545.6 451.2 536.4 452.6 527.1 454C520.3 455 513.5 455.8 506.6 456.6C498 457.6 489.4 458.8 480.8 459.5C472.4 460.2 464 460.4 455.5 460.7C447.3 461 439.1 461.1 430.9 461.1C428.6 461.1 426.3 460.4 424 460.3C417.3 459.9 410.5 460 403.8 459.1C394.5 457.9 385.2 456.1 375.9 454.5C372.3 453.9 368.7 453 365.1 452.1C364.4 451.9 363.8 451.1 363.2 450.6C364 450.2 364.8 449.3 365.5 449.4C373.6 450.3 381.6 451.8 389.7 452.2C401.3 452.8 413 453.1 424.7 452.9C435.6 452.7 446.5 451.8 457.3 450.7C468.4 449.5 479.4 447.9 490.4 446C501.4 444.2 512.3 442.1 523.2 439.7C535.7 437 548.1 434 560.4 430.8C577.2 426.4 593.9 421.8 610.5 416.9C624.6 412.8 638.6 408.4 652.5 403.7C667.8 398.6 683 393.2 698 387.5C711.3 382.4 724.5 376.9 737.5 371.1C750 365.5 762.1 359.4 774.4 353.4C779 351.2 783.3 348.4 787.9 346.3C792.5 344 794.8 344.8 798.5 349.8Z" fill="#007165"/>
</g>
<path d="M755.1 132C763.439 132 770.2 125.24 770.2 116.9C770.2 108.561 763.439 101.8 755.1 101.8C746.76 101.8 740 108.561 740 116.9C740 125.24 746.76 132 755.1 132Z" fill="#007165"/>
<path d="M600.7 30.9002C609.04 30.9002 615.8 24.1397 615.8 15.8002C615.8 7.46069 609.04 0.700195 600.7 0.700195C592.361 0.700195 585.6 7.46069 585.6 15.8002C585.6 24.1397 592.361 30.9002 600.7 30.9002Z" fill="#003D80"/>
<path d="M432.2 525.9C440.54 525.9 447.3 519.14 447.3 510.8C447.3 502.461 440.54 495.7 432.2 495.7C423.861 495.7 417.1 502.461 417.1 510.8C417.1 519.14 423.861 525.9 432.2 525.9Z" fill="#003D80"/>
<path d="M712.8 491.2C721.139 491.2 727.9 484.44 727.9 476.1C727.9 467.761 721.139 461 712.8 461C704.46 461 697.7 467.761 697.7 476.1C697.7 484.44 704.46 491.2 712.8 491.2Z" fill="#003D80"/>
<path d="M570.5 495.7C578.84 495.7 585.6 488.94 585.6 480.6C585.6 472.261 578.84 465.5 570.5 465.5C562.161 465.5 555.4 472.261 555.4 480.6C555.4 488.94 562.161 495.7 570.5 495.7Z" fill="#D2DA20"/>
<path d="M460.79 37.7037C464.52 30.2449 461.498 21.1743 454.039 17.444C446.58 13.7138 437.51 16.7364 433.779 24.1953C430.049 31.6541 433.072 40.7247 440.531 44.4549C447.989 48.1852 457.06 45.1626 460.79 37.7037Z" fill="#D2DA20"/>
<path d="M804.6 325.4C812.939 325.4 819.7 318.64 819.7 310.3C819.7 301.961 812.939 295.2 804.6 295.2C796.26 295.2 789.5 301.961 789.5 310.3C789.5 318.64 796.26 325.4 804.6 325.4Z" fill="#F63C3D"/>
<path d="M0 220.301H67.3C107.3 220.301 132.2 243.001 132.2 277.401V277.901C132.2 316.201 101.5 336.201 63.9 336.201H30V391.101H0V220.301ZM64.9 309.101C87.6 309.101 101.7 296.401 101.7 278.601V278.101C101.7 258.101 87.3 247.601 64.9 247.601H30V309.101H64.9Z" fill="#45C6EB"/>
<path d="M162.9 220.301H192.9V363.801H282.7V391.101H162.9V220.301Z" fill="#45C6EB"/>
<path d="M295.7 306.2V305.7C295.7 257.6 332.8 217.4 385.2 217.4C437.6 217.4 474.3 257.2 474.3 305.2V305.7C474.3 353.8 437.2 394 384.8 394C332.4 394 295.7 354.3 295.7 306.2ZM442.8 306.2V305.7C442.8 272.5 418.6 245.2 384.7 245.2C350.8 245.2 327.1 272 327.1 305.2V305.7C327.1 338.9 351.3 366.2 385.2 366.2C419.1 366.2 442.8 339.4 442.8 306.2Z" fill="#45C6EB"/>
<path d="M498 366.2L516.1 344.7C532.4 358.8 549 366.9 570 366.9C588.5 366.9 600.3 358.1 600.3 345.4V345C600.3 332.8 593.5 326.2 561.8 318.9C525.4 310.1 505 299.4 505 267.9V267.4C505 238.1 529.4 217.9 563.3 217.9C588.2 217.9 608 225.5 625.3 239.4L609 262.1C593.6 250.6 578.3 244.5 562.6 244.5C545 244.5 534.8 253.5 534.8 264.7V265.2C534.8 278.4 542.6 284.2 575.6 292C611.7 300.8 630.3 313.7 630.3 342V342.5C630.3 374.5 605.2 393.5 569.3 393.5C543.1 393.6 518.5 384.5 498 366.2Z" fill="#45C6EB"/>
</svg>
