<svg fill="none" height="572" viewBox="0 0 820 572" width="820" xmlns="http://www.w3.org/2000/svg"><path d="m504.7 49.8003c2.5-2.8 5.8-6.0001 10.9-6.7001 3.8-.5 7.2.0001 10 2.7001 8 7.4 16.3 14.5999 24 22.3999 17.3 17.7 33 36.6998 48.2 56.2998 14.4 18.5 27.7 37.9 40.3 57.7 3.7 5.9 7.5 11.7 11.2 17.6 3.4 5.4 6.8 10.9 10 16.4 3.3 5.5 6.5 11.1 9.8 16.7 3 5.1 6.1 10.2 9 15.4 4.5 8.2 8.8 16.5 13.1 24.8 3.1 6.1 6.1 12.3 9 18.5 3.8 7.8 7.7 15.5 11.1 23.5 3.4 7.7 6.3 15.6 9.3 23.5 2.9 7.7 5.7 15.4 8.3 23.1.7 2.2.8 4.5 1.5 6.8 1.8 6.5 4.1 12.9 5.4 19.5 1.9 9.2 3.2 18.5 4.6 27.9.6 3.6.9 7.3 1.3 11 .1.7-.5 1.5-.8 2.3-.6-.6-1.7-1.1-1.9-1.8-1.8-7.9-3-16-5.2-23.8-3.2-11.2-6.7-22.4-10.7-33.3-3.8-10.2-8.1-20.3-12.6-30.1-4.7-10.1-9.8-20-15.1-29.8s-10.8-19.5-16.6-29c-6.6-10.9-13.4-21.7-20.5-32.3-9.6-14.4-19.3-28.8-29.3-42.9-8.5-12-17.2-23.8-26.1-35.5-9.8-12.8-19.8-25.4-30.1-37.8-9.1-10.9-18.6-21.6-28.2-32.1-9.3-9.9997-19.1-19.4998-28.7-29.1998-3.6-3.6-7.6-6.8-11.1-10.4-3.7-3.9-3.7-6.1999-.1-11.3999z" fill="#f63c3d"/><path d="m679.1 46.5002c3.6-.8 8.2-1.4 12.7 1 3.4 1.8 5.8 4.2 6.5 8 2.1 10.7 4.7 21.4 6.3 32.2 3.6 24.4998 5.2 49.0998 6 73.8998.7 23.4.2 46.9-1.3 70.3-.4 6.9-.8 13.9-1.3 20.8-.4 6.4-.9 12.8-1.5 19.2s-1.2 12.8-1.9 19.2c-.6 5.9-1 11.8-1.8 17.7-1.2 9.3-2.5 18.5-4 27.7-1 6.8-2.3 13.5-3.6 20.3-1.5 8.5-2.9 17.1-4.8 25.5-1.8 8.2-4 16.4-6.3 24.5-2.2 7.9-4.5 15.8-6.8 23.6-.7 2.2-2 4.2-2.8 6.3-2.4 6.3-4.3 12.8-7 19-3.9 8.6-8.3 16.9-12.6 25.3-1.7 3.3-3.5 6.5-5.4 9.6-.4.6-1.3.9-2 1.4-.2-.9-.7-1.9-.5-2.6 3.2-7.5 7-14.7 9.8-22.3 4-11 7.7-22 10.9-33.2 3-10.5 5.4-21.1 7.5-31.8 2.1-10.9 3.8-22 5.3-33s2.7-22.1 3.6-33.2c1-12.7 1.8-25.4 2.4-38.2.7-17.3 1.2-34.6 1.5-52 .2-14.7.1-29.4-.3-44-.4-16.1-1.1-32.2-2.1-48.3-1-14.2-2.3-28.4-4.1-42.5-1.7-13.4998-4-26.9998-6.1-40.4998-.8-5-2.2-9.9-2.9-15-.8-4.9.6-6.8 6.6-8.9z" fill="#17bafa"/><path d="m379 88.3001c.5-3.6 1.6-8.1 5.5-11.4 2.9-2.4 6-3.8 9.9-3.2 10.8 1.8 21.8 3.3 32.5 5.6 24.3 5.3 48 12.6 71.5 20.6 22.3 7.5999 44.1 16.3999 65.6 25.9999 6.4 2.9 12.8 5.6 19.1 8.5 5.8 2.7 11.7 5.4 17.5 8.2s11.6 5.7 17.4 8.5c5.3 2.6 10.7 5.1 16 7.9 8.3 4.4 16.5 8.9 24.6 13.4 6 3.4 11.9 6.9 17.8 10.4 7.5 4.4 15 8.7 22.3 13.4 7.1 4.6 13.9 9.5 20.8 14.4 6.6 4.8 13.2 9.6 19.7 14.6 1.8 1.4 3.2 3.3 4.9 4.8 5.1 4.4 10.5 8.5 15.3 13.2 6.7 6.6 12.8 13.6 19.2 20.5 2.5 2.7 4.8 5.5 7.1 8.4.5.6.4 1.5.5 2.3-.9-.1-2 0-2.6-.5-5.8-5.6-11.3-11.6-17.4-16.9-8.8-7.6-17.9-14.9-27.3-21.8-8.8-6.4-17.9-12.4-27.2-18.1-9.5-5.8-19.3-11.2-29.1-16.5s-19.8-10.3-29.9-15c-11.5-5.4-23.2-10.7-35-15.6-16-6.8-32.1-13.4-48.3-19.7-13.7-5.4-27.5-10.4-41.5-15.3-15.3-5.3-30.6-10.4-46.1-15.1-13.7-4.1-27.5-7.9-41.4-11.3-13.3-3.3-26.8-5.9-40.2-8.6999-5-1-10.1-1.5-15.1-2.7-5-.7-6.2-2.7-6.1-8.9z" fill="#003d80" opacity=".8649"/><path d="m769.3 200.4c3.6 1.1 7.8 2.9 10.6 7.2 2 3.2 2.9 6.5 1.7 10.2-3.5 10.4-6.6 20.9-10.5 31-9 23-19.9 45.2-31.5 67.1-11 20.7-23.1 40.8-36 60.4-3.8 5.8-7.6 11.7-11.5 17.5-3.6 5.3-7.2 10.6-10.8 15.9-3.7 5.3-7.4 10.5-11.2 15.8-3.4 4.8-6.8 9.8-10.3 14.5-5.6 7.5-11.4 14.8-17.2 22.1-4.3 5.4-8.7 10.6-13.2 15.9-5.6 6.6-11 13.4-16.8 19.8-5.7 6.2-11.6 12.2-17.6 18.2-5.8 5.8-11.7 11.5-17.6 17.1-1.7 1.6-3.8 2.6-5.6 4.1-5.2 4.3-10.1 9-15.5 13-7.6 5.5-15.6 10.5-23.5 15.7-3.1 2-6.3 3.9-9.5 5.7-.6.3-1.6.1-2.4.2.3-.8.3-2 .9-2.4 6.5-4.9 13.4-9.3 19.5-14.5 8.9-7.5 17.7-15.3 26-23.5 7.8-7.6 15.2-15.7 22.3-23.9 7.3-8.4 14.2-17.2 20.9-26s13.3-17.9 19.6-27c7.2-10.5 14.2-21.2 21-32 9.2-14.7 18.2-29.5 27-44.4 7.5-12.6 14.7-25.5 21.6-38.4 7.6-14.2 15.1-28.5 22.1-43 6.2-12.8 12.1-25.8 17.6-38.9 5.3-12.6 9.9-25.4 14.8-38.2 1.8-4.8 3.1-9.7 4.9-14.4 1.8-5 3.9-6 10.2-4.8z" fill="#d2da20"/><path d="m798.5 349.8c1.9 3.2 3.8 7.5 2.8 12.5-.7 3.7-2.3 6.8-5.7 8.6-9.6 5.2-19.1 10.7-28.9 15.4-22.3 10.7-45.4 19.4-68.8 27.4-22.2 7.6-44.8 14-67.6 19.4-6.8 1.6-13.5 3.3-20.3 4.9-6.2 1.5-12.5 2.9-18.8 4.2s-12.6 2.6-18.9 3.9c-5.8 1.2-11.6 2.5-17.5 3.5-9.2 1.6-18.4 3-27.7 4.4-6.8 1-13.6 1.8-20.5 2.6-8.6 1-17.2 2.2-25.8 2.9-8.4.7-16.8.9-25.3 1.2-8.2.3-16.4.4-24.6.4-2.3 0-4.6-.7-6.9-.8-6.7-.4-13.5-.3-20.2-1.2-9.3-1.2-18.6-3-27.9-4.6-3.6-.6-7.2-1.5-10.8-2.4-.7-.2-1.3-1-1.9-1.5.8-.4 1.6-1.3 2.3-1.2 8.1.9 16.1 2.4 24.2 2.8 11.6.6 23.3.9 35 .7 10.9-.2 21.8-1.1 32.6-2.2 11.1-1.2 22.1-2.8 33.1-4.7 11-1.8 21.9-3.9 32.8-6.3 12.5-2.7 24.9-5.7 37.2-8.9 16.8-4.4 33.5-9 50.1-13.9 14.1-4.1 28.1-8.5 42-13.2 15.3-5.1 30.5-10.5 45.5-16.2 13.3-5.1 26.5-10.6 39.5-16.4 12.5-5.6 24.6-11.7 36.9-17.7 4.6-2.2 8.9-5 13.5-7.1 4.6-2.3 6.9-1.5 10.6 3.5z" fill="#007165" opacity=".6889"/><path d="m755.1 132c8.339 0 15.1-6.76 15.1-15.1 0-8.339-6.761-15.1-15.1-15.1-8.34 0-15.1 6.761-15.1 15.1 0 8.34 6.76 15.1 15.1 15.1z" fill="#007165"/><path d="m600.7 30.9002c8.34 0 15.1-6.7605 15.1-15.1 0-8.33951-6.76-15.100005-15.1-15.100005-8.339 0-15.1 6.760495-15.1 15.100005 0 8.3395 6.761 15.1 15.1 15.1z" fill="#003d80"/><path d="m432.2 525.9c8.34 0 15.1-6.76 15.1-15.1 0-8.339-6.76-15.1-15.1-15.1-8.339 0-15.1 6.761-15.1 15.1 0 8.34 6.761 15.1 15.1 15.1z" fill="#003d80"/><path d="m712.8 491.2c8.339 0 15.1-6.76 15.1-15.1 0-8.339-6.761-15.1-15.1-15.1-8.34 0-15.1 6.761-15.1 15.1 0 8.34 6.76 15.1 15.1 15.1z" fill="#003d80"/><path d="m570.5 495.7c8.34 0 15.1-6.76 15.1-15.1 0-8.339-6.76-15.1-15.1-15.1-8.339 0-15.1 6.761-15.1 15.1 0 8.34 6.761 15.1 15.1 15.1z" fill="#d2da20"/><path d="m460.79 37.7037c3.73-7.4588.708-16.5294-6.751-20.2597-7.459-3.7302-16.529-.7076-20.26 6.7513-3.73 7.4588-.707 16.5294 6.752 20.2596 7.458 3.7303 16.529.7077 20.259-6.7512z" fill="#d2da20"/><path d="m804.6 325.4c8.339 0 15.1-6.76 15.1-15.1 0-8.339-6.761-15.1-15.1-15.1-8.34 0-15.1 6.761-15.1 15.1 0 8.34 6.76 15.1 15.1 15.1z" fill="#f63c3d"/><g fill="#45c6eb"><path d="m0 220.301h67.3c40 0 64.9 22.7 64.9 57.1v.5c0 38.3-30.7 58.3-68.3 58.3h-33.9v54.9h-30zm64.9 88.8c22.7 0 36.8-12.7 36.8-30.5v-.5c0-20-14.4-30.5-36.8-30.5h-34.9v61.5z"/><path d="m162.9 220.301h30v143.5h89.8v27.3h-119.8z"/><path d="m295.7 306.2v-.5c0-48.1 37.1-88.3 89.5-88.3s89.1 39.8 89.1 87.8v.5c0 48.1-37.1 88.3-89.5 88.3s-89.1-39.7-89.1-87.8zm147.1 0v-.5c0-33.2-24.2-60.5-58.1-60.5s-57.6 26.8-57.6 60v.5c0 33.2 24.2 60.5 58.1 60.5s57.6-26.8 57.6-60z"/><path d="m498 366.2 18.1-21.5c16.3 14.1 32.9 22.2 53.9 22.2 18.5 0 30.3-8.8 30.3-21.5v-.4c0-12.2-6.8-18.8-38.5-26.1-36.4-8.8-56.8-19.5-56.8-51v-.5c0-29.3 24.4-49.5 58.3-49.5 24.9 0 44.7 7.6 62 21.5l-16.3 22.7c-15.4-11.5-30.7-17.6-46.4-17.6-17.6 0-27.8 9-27.8 20.2v.5c0 13.2 7.8 19 40.8 26.8 36.1 8.8 54.7 21.7 54.7 50v.5c0 32-25.1 51-61 51-26.2.1-50.8-9-71.3-27.3z"/></g></svg>