<svg width="285" height="108" viewBox="0 0 285 108" fill="none" xmlns="http://www.w3.org/2000/svg">
<path d="M33.08 2.34C18.44 2.34 6.53 20.13 6.53 41.65C6.53 63.46 18.44 80.94 33.08 80.94C47.72 80.94 59.6 63.46 59.6 41.65C59.6 20.17 47.66 2.34 33.08 2.34V2.34ZM32.87 0C50.75 0 65.75 18.8 65.75 41.76C65.75 64.88 50.75 83.67 32.87 83.67C14.6 83.67 0 64.88 0 41.76C0 18.76 14.6 0 32.87 0" fill="#003399"/>
<path d="M53.41 30.1302C53.03 22.4002 44.81 10.3502 33.98 9.93018V31.1302H52.49C52.6202 31.1392 52.7507 31.1188 52.8719 31.0705C52.9932 31.0223 53.102 30.9473 53.1903 30.8513C53.2787 30.7553 53.3443 30.6406 53.3823 30.5158C53.4203 30.3909 53.4298 30.2592 53.41 30.1302" fill="#003399"/>
<path d="M53.4 53.2402C53.3986 53.0232 53.3536 52.8087 53.2677 52.6094C53.1818 52.4102 53.0568 52.2302 52.9 52.0802L31.81 30.8702V9.93018C20.92 10.3602 12.81 22.4902 12.39 30.2502C12.3646 30.475 12.3891 30.7027 12.4616 30.917C12.5342 31.1313 12.6532 31.327 12.81 31.4902L33.98 52.8202V73.7302C44.98 73.3002 53.19 61.0002 53.4 53.2402Z" fill="#003399"/>
<path d="M12.34 53.5701C12.81 61.3401 20.94 73.3101 31.81 73.7301V52.5501H13.23C13.1002 52.5378 12.9693 52.5562 12.848 52.6039C12.7267 52.6516 12.6183 52.7272 12.5316 52.8246C12.4449 52.922 12.3824 53.0384 12.3491 53.1645C12.3158 53.2905 12.3127 53.4226 12.34 53.5501" fill="#003399"/>
<path d="M111.28 28.6001C110.84 18.7401 102.67 15.6001 95.47 15.6001C90.06 15.6001 80.91 17.1101 80.91 26.7901C80.91 32.2101 84.73 33.9801 88.46 34.8701L106.67 39.1301C114.92 41.0801 121.14 46.0501 121.14 56.1301C121.14 71.2301 107.14 75.4001 96.14 75.4001C84.33 75.4001 79.72 71.8501 76.87 69.2701C71.5 64.3901 70.43 59.0601 70.43 53.1301H78.51C78.51 64.6701 87.93 68.0501 96.1 68.0501C102.31 68.0501 112.79 66.4501 112.79 57.3001C112.79 50.6401 109.68 48.5101 99.2 46.0201L86.2 43.0201C82.02 42.0201 72.61 39.1201 72.61 28.0201C72.61 18.0801 79.09 8.31006 94.55 8.31006C116.84 8.31006 119.06 21.6301 119.41 28.6501L111.28 28.6001Z" fill="#003399"/>
<path d="M203.56 39.6101H231.56V73.7101H224.19L223.92 65.4501C219.57 71.4501 211.58 75.4501 202.92 75.4501C191.99 75.4501 186.66 71.4501 183.38 68.2601C173.61 59.0201 173.38 48.1001 173.38 41.3501C173.38 25.8001 182.79 8.3501 203.58 8.3501C215.48 8.3501 228.71 15.1001 230.58 29.4001H222.23C219.47 18.3001 210.15 15.9901 203.13 15.9901C191.68 15.9901 182.26 25.1301 182.26 41.8301C182.26 54.8301 186.53 68.1201 203.49 68.1201C208.183 68.3105 212.796 66.8648 216.54 64.0301C222.14 59.5901 223.54 53.9101 223.54 47.0301H203.56V39.6101Z" fill="#003399"/>
<path d="M237.57 9.9502V73.7202H284.64V66.0802H246.19V44.7702H281.09V37.1302H246.19V17.5902H284.02V9.9502H237.57Z" fill="#003399"/>
<path d="M161.02 55.1302L167.32 73.6902H176.73L153.64 9.9502H143.88L119.88 73.7102H128.81L135.44 55.1302H161.02ZM138.1 47.4902L148.32 19.4302H148.49L157.91 47.4902H138.1Z" fill="#003399"/>
<path d="M284.64 87.1299H282.41V89.1299C281.987 88.3744 281.363 87.7505 280.608 87.327C279.853 86.9035 278.995 86.6968 278.13 86.7299C273.13 86.7299 271.48 90.9299 271.48 94.3199C271.48 98.2399 273.62 101.61 277.9 101.61C278.819 101.648 279.73 101.422 280.525 100.958C281.319 100.493 281.963 99.81 282.38 98.9899H282.43V99.9899C282.43 103.21 281.21 105.44 278.13 105.44C276.57 105.44 274.51 104.82 274.4 103.1H272.04C272.18 106.24 275.29 107.33 278.04 107.33C282.57 107.33 284.71 104.94 284.71 100.27V87.1299H284.64ZM278.02 99.5799C274.91 99.5799 273.96 96.6899 273.96 94.1099C273.96 91.3499 275.19 88.8799 278.22 88.8799C281.25 88.8799 282.3 91.4899 282.3 94.0199C282.3 96.7199 281.14 99.5799 278.02 99.5799ZM257.65 101.5H260.01V93.3799C260.01 90.7999 261.4 88.8799 264.26 88.8799C264.649 88.8487 265.04 88.9018 265.406 89.0356C265.773 89.1694 266.106 89.3807 266.383 89.6551C266.66 89.9294 266.875 90.2604 267.012 90.6254C267.15 90.9904 267.207 91.3808 267.18 91.7699V101.5H269.54V92.0499C269.54 88.9599 268.37 86.7899 264.54 86.7899C263.593 86.7389 262.652 86.9581 261.825 87.422C260.998 87.8859 260.32 88.5753 259.87 89.4099H259.82V87.1299H257.6V101.5H257.65ZM254.91 81.6499H252.55V84.5399H254.91V81.6499ZM252.55 101.5H254.91V87.1299H252.55V101.5ZM237.89 101.5H240.25V93.3799C240.25 90.7999 241.64 88.8799 244.5 88.8799C244.889 88.8487 245.28 88.9018 245.646 89.0356C246.013 89.1694 246.346 89.3807 246.623 89.6551C246.9 89.9294 247.115 90.2604 247.253 90.6254C247.39 90.9904 247.447 91.3808 247.42 91.7699V101.5H249.81V92.0499C249.81 88.9599 248.65 86.7899 244.87 86.7899C243.14 86.7899 241.11 87.5199 240.34 89.2399H240.28V81.6499H237.92V101.5H237.89ZM223.89 96.9699C224.03 100.53 226.75 101.83 229.98 101.83C232.89 101.83 236.09 100.72 236.09 97.2999C236.09 94.5199 233.76 93.7399 231.39 93.2199C229.2 92.6899 226.7 92.4099 226.7 90.7099C226.7 89.2699 228.34 88.8799 229.75 88.8799C231.31 88.8799 232.92 89.4599 233.09 91.2999H235.45C235.26 87.7999 232.73 86.7899 229.56 86.7899C227.06 86.7899 224.19 87.9899 224.19 90.8799C224.19 93.7699 226.56 94.4099 228.89 94.9399C231.22 95.4699 233.59 95.7699 233.59 97.6099C233.59 99.4499 231.59 99.7499 230.11 99.7499C228.17 99.7499 226.33 99.0799 226.25 96.9699H223.89ZM221.98 81.6499H219.62V84.5399H221.98V81.6499ZM219.62 101.5H221.98V87.1299H219.62V101.5ZM214.46 101.5H216.81V81.6099H214.45V101.46L214.46 101.5ZM198.73 101.5H201.09V99.5799H201.15C201.68 100.306 202.38 100.891 203.189 101.284C203.998 101.676 204.892 101.863 205.79 101.83C210.18 101.83 212.35 98.4099 212.35 94.3599C212.35 90.3099 210.15 86.7899 205.74 86.7899C203.74 86.7899 201.93 87.4899 201.15 89.0699H201.09V81.6499H198.73V101.5V101.5ZM209.81 94.1299C209.81 96.9399 208.72 99.6899 205.5 99.6899C202.28 99.6899 200.97 97.0699 200.97 94.2399C200.97 91.4099 202.19 88.8199 205.36 88.8199C208.53 88.8199 209.81 91.4499 209.81 94.1299ZM195.94 87.1299H193.58V95.2399C193.58 97.8299 192.19 99.7499 189.32 99.7499C188.931 99.781 188.54 99.7279 188.174 99.5941C187.808 99.4603 187.474 99.249 187.197 98.9747C186.92 98.7003 186.705 98.3693 186.568 98.0043C186.43 97.6393 186.373 97.249 186.4 96.8599V87.1299H184.04V96.5799C184.04 99.6599 185.21 101.83 189.04 101.83C189.986 101.882 190.927 101.664 191.753 101.202C192.58 100.74 193.259 100.053 193.71 99.2199H193.77V101.5H195.99V87.1299H195.94ZM170.2 83.8799H175.37C178.37 83.8799 179.71 85.1499 179.71 87.5199C179.71 89.8899 178.35 91.1899 175.37 91.1599H170.2V83.8799ZM167.56 101.5H170.2V93.3799H176.26C180.26 93.3799 182.35 91.1899 182.35 87.5199C182.35 83.8499 180.21 81.6499 176.26 81.6499H167.56V101.5Z" fill="#003399"/>
</svg>
