<svg width="537" height="538" viewBox="0 0 537 538" fill="none" xmlns="http://www.w3.org/2000/svg">
<g filter="url(#filter0_f)">
<path d="M188.3 241.5C188.3 241.5 333 -7.39985 415.1 22.6001C451.4 35.8001 449.2 131.4 402.8 238.7C344.3 374 232.4 525 228.7 517.7C228 516.3 235.7 509.2 242.3 499.8C253.8 483.5 269.8 457.9 289.9 425.1C312.4 388.3 332.4 344 352 299.1C400.6 188.1 416.9 73.3002 379.9 73.3002C307 73.3002 188.3 241.5 188.3 241.5Z" fill="black"/>
</g>
<path d="M0.800049 380V324.1H3.60005C6.00005 341.2 10.9001 354.4 18.2001 363.8C25.5001 373.2 34.6 377.9 45.5 377.9C52.8 377.9 58.9001 375.5 63.8001 370.6C68.7001 365.7 71.1001 359.6 71.1001 352.2C71.1001 346.1 69.3 340.8 65.8 336.1C62.2 331.4 55.7 326.3 46.2 320.6C43.2 318.8 38.9001 316.4 33.3001 313.5C23.3001 308.2 16.5001 303.9 12.9001 300.5C10.2001 297.8 8.00005 294.6 6.50005 290.9C5.00005 287.2 4.20005 283.4 4.20005 279.3C4.20005 269.4 7.10005 261.3 12.9001 255C18.7001 248.7 26.1 245.6 35.1 245.6C41 245.6 46.3 247 51.1 249.8C55.9 252.6 60.5001 257 65.1001 263.1L75.3 245.7H76.4001V296H73.6001C70.7001 280.8 66.0001 269.2 59.4001 261.1C52.9001 253 44.9 249 35.6 249C28.5 249 22.6001 251 17.9001 255.1C13.2001 259.2 10.8 264.2 10.8 270.3C10.8 278.1 20.2 287.1 39.1 297.3C42.8 299.3 45.6 300.8 47.6 301.9C59.7 308.6 68.2 315 73 321.3C77.9 327.5 80.3 334.8 80.3 343C80.3 354 76.9 363.1 70.2 370.4C63.5 377.6 55.1 381.3 45 381.3C38.9 381.3 33.1 379.7 27.7 376.4C22.3 373.1 17.3 368.3 12.8 361.9L2.80005 379.9L0.800049 380Z" fill="#D81F2B"/>
<path d="M159 345.8C158.1 357 155.1 365.7 149.9 371.9C144.7 378.2 138 381.3 129.8 381.3C120.5 381.3 112.4 376.9 105.6 368C98.8 359.1 95.5 348.4 95.5 335.8C95.5 328.7 96.8 321.9 99.3 315.5C101.9 309.1 105.5 303.5 110.3 298.7C113.3 295.8 116.5 293.6 119.9 292.2C123.4 290.8 127.2 290.1 131.5 290.1C137.5 290.1 142.6 292.2 146.9 296.5C151.1 300.8 153.2 306 153.2 312.1C153.2 315.5 152.3 318.3 150.5 320.4C148.7 322.5 146.4 323.6 143.5 323.6C141 323.6 139 322.8 137.3 321.1C135.7 319.4 134.8 317.3 134.8 314.8C134.8 312.3 135.6 310.2 137.2 308.5C138.8 306.9 140.8 306.1 143.3 306.1C144.6 306.1 145.7 306.4 146.8 306.9C147.8 307.4 148.9 308.3 149.9 309.3C148.9 304.2 146.8 300.2 143.5 297.3C140.2 294.4 136.1 293 131.2 293C123.5 293 118.2 296 115.2 302.1C112.2 308.2 110.7 320.6 110.7 339.5C110.7 354 112.2 364 115.1 369.6C118 375.2 123.1 378 130.2 378C137.4 378 143.3 375.1 148 369.3C152.7 363.5 155.3 355.7 156 345.7L159 345.8Z" fill="#D81F2B"/>
<path d="M194.1 376.1H207.1V379.1H167.6V376.1H180.4V295.1H167.6V292.1H194.1V376.1Z" fill="#D81F2B"/>
<path d="M179.6 270.8C187.498 270.8 193.9 264.577 193.9 256.9C193.9 249.223 187.498 243 179.6 243C171.702 243 165.3 249.223 165.3 256.9C165.3 264.577 171.702 270.8 179.6 270.8Z" fill="url(#paint0_radial)"/>
<path d="M222.8 421.6V418.1H240.8V293.8H222.8V290.3H314.1V335H312.1C309.9 319.8 306.3 309.1 301.4 303C296.5 296.9 289 293.8 279.1 293.8H256.2V349.4H263.2C269.9 349.4 275.2 346.8 279.1 341.7C283 336.6 285.1 329.4 285.4 320.2H287.1V379.8H285.4C284.8 370 282.9 363.1 279.6 358.9C276.3 354.7 271.2 352.6 264.3 352.6H256.2V418H278.7C288.8 418 296.8 414.1 302.5 406.2C308.2 398.3 312 386.1 313.9 369.6H316.1V421.5L222.8 421.6Z" fill="#D81F2B"/>
<path d="M387.3 290.3V293.8H369.3V418.1H385.5C397.7 418.1 407.2 413.7 414 404.8C420.8 395.9 425.3 381.9 427.7 362.8H429.7V421.7H335.9V418.2H353.9V293.8H335.9V290.3H387.3Z" fill="#D81F2B"/>
<path d="M491.1 288.3C496.2 288.3 501.2 289.5 506 292C510.8 294.5 515.1 298 519 302.5C524.9 309.6 529.4 317.8 532.4 327.2C535.4 336.6 537 346.9 537 358C537 367.7 535.8 376.6 533.4 384.6C531 392.6 527.4 399.9 522.6 406.4C518.5 411.9 513.7 416.1 508.2 419.2C502.7 422.3 497 423.8 491.2 423.8C485.4 423.8 479.7 422.3 474.1 419.2C468.5 416.1 463.7 411.9 459.6 406.4C454.8 399.9 451.2 392.7 448.8 384.6C446.4 376.6 445.2 367.7 445.2 358C445.2 350.6 445.9 343.4 447.4 336.5C448.8 329.6 450.9 323.2 453.7 317.3C458.1 308 463.6 300.8 470.1 295.8C476.5 290.9 483.5 288.3 491.1 288.3ZM491.1 420.3C495.9 420.3 500.2 418.9 504.1 416.1C508 413.3 511.4 409.2 514.2 403.8C516.1 400.3 517.4 395.5 518.2 389.6C519 383.7 519.4 372.5 519.4 356C519.4 337.8 518.8 325.4 517.6 318.9C516.4 312.4 514.3 307.1 511.4 303C508.8 299.4 505.7 296.6 502.1 294.6C498.5 292.6 494.8 291.6 491 291.6C487.1 291.6 483.3 292.6 479.7 294.6C476.1 296.6 473 299.4 470.5 303C467.5 307.1 465.5 312.5 464.3 319C463.1 325.5 462.5 337.8 462.5 356.1V360.3C462.5 374.5 462.9 384.4 463.7 390.1C464.5 395.7 465.8 400.3 467.7 403.9C470.5 409.3 473.9 413.4 477.9 416.2C481.9 418.9 486.3 420.3 491.1 420.3Z" fill="#D81F2B"/>
<defs>
<filter id="filter0_f" x="168.3" y="0.0908203" width="291.901" height="537.864" filterUnits="userSpaceOnUse" color-interpolation-filters="sRGB">
<feFlood flood-opacity="0" result="BackgroundImageFix"/>
<feBlend mode="normal" in="SourceGraphic" in2="BackgroundImageFix" result="shape"/>
<feGaussianBlur stdDeviation="10" result="effect1_foregroundBlur"/>
</filter>
<radialGradient id="paint0_radial" cx="0" cy="0" r="1" gradientUnits="userSpaceOnUse" gradientTransform="translate(176.836 250.277) scale(7.85227 7.61374)">
<stop stop-color="white"/>
<stop offset="1"/>
</radialGradient>
</defs>
</svg>
