<?xml version="1.0" encoding="UTF-8" standalone="no"?>
<svg height="214.31076" viewBox="0 0 345 160.73307" width="460" xmlns="http://www.w3.org/2000/svg" xmlns:xlink="http://www.w3.org/1999/xlink">
   <clipPath id="a">
      <path d="m374 100h17.5v35h-17.5zm0 0"/>
   </clipPath>
   <clipPath id="b">
      <path d="m227 148h27v34.39844h-27zm0 0"/>
   </clipPath>
   <clipPath id="c">
      <path d="m257 158h20v24.39844h-20zm0 0"/>
   </clipPath>
   <clipPath id="d">
      <path d="m280 159h18v23.39844h-18zm0 0"/>
   </clipPath>
   <clipPath id="e">
      <path d="m322 158h19v24.39844h-19zm0 0"/>
   </clipPath>
   <g fill="#211e1e" transform="translate(-23.249967 -10.833359)">
      <path d="m24.410039 170.23082c-.440613-.49913-1.242666-1.53182-1.153166-3.15313 0 0 0-.0861 0-.31325.0069-.73665.409632-2.48878 2.970695-3.8416 3.345906-1.77277 11.177114-4.12042 13.641794-4.69528 2.258141-.52323 13.724408-2.93627 16.030741-3.29083 2.302892-.35111 15.390476-1.80031 17.173583-1.99308 1.783105-.19277 22.91532-1.93113 24.801695-2.06537 1.882933-.12393 12.757129-.64028 15.806989-.83305 0 0 6.49216-.22374 12.66074-1.64197 0 0 2.60238-.93285 5.61437-1.54558 0 0 4.77102-1.34938 8.05497 3.80029 0 0 3.38721 5.74518 1.61099 8.87766 0 0-.0964.21687-.28916.4888-.47159.86057-1.81064 2.73662-5.25981 4.71594-.75387.46815-1.96555 1.02924-3.24952 1.07744-1.84507.13769-5.83125.358-9.70037-.0206 0 0-2.0585-.16179-2.67122-.19965-2.15143-.12737-7.85875-.36833-12.97399-.57486-6.52314-.26506-11.975726-.65404-15.125421-.58864-3.146253.0619-8.863896-.0654-13.924061.41996-5.063608.48193-17.204563 1.4492-20.030682 1.70393-2.822678.25817-12.581568 1.21169-15.648648 1.73836-3.263291.5611-8.440494 1.67639-9.672833 1.99653 0 0-4.46465 1.17382-7.528288.50258-.261614-.0551-.808938-.19622-1.139398-.56454"/>
      <path d="m93.610384 130.17978c-2.292564.11015-2.922503-2.68843-4.251228-5.01885-1.411338-2.47157-6.929328-13.35953-8.251167-15.82076-1.321839-2.4578-8.99126-17.352587-10.151311-19.173558-.808939-1.266762-5.249492-9.411219-8.079054-14.313039-1.352819-2.33043-3.817499-6.189236-5.7142-8.760627-2.406161-3.270174-5.321779-7.208153-6.382005-8.598838-1.903586-2.492218-5.8037-7.731383-9.025683-12.140955 0 0-2.963811-4.733149.967283-7.927593 0 0 2.722851-1.800318 6.196121-1.845067.695343-.01033 1.283975.07917 2.330431.437171 1.146282.39242 2.929387 1.197916 4.364823 2.302891 2.289122 1.75901 6.963751 5.834681 12.37503 13.263141 3.042984 4.175498 8.158226 13.965369 9.927562 17.128832 1.776222 3.163464 6.736561 15.149517 7.765805 17.514369 1.032687 2.364853 4.771014 13.101353 6.320044 17.256203 1.545588 4.15484 3.576539 10.25801 4.894936 15.21147.94663 3.54212 1.09809 4.88461.950072 6.19613-.01377.54387-.106712 1.01891-.333902 1.6041 0 0-1.194475 2.55418-3.903557 2.68498"/>
      <path d="m102.18513 76.679722c0 0-.80894.282268-1.62476-1.280532-.13769-.265056-.28227-1.060225-.179-1.693606.36832-2.320103 2.18241-11.555765 7.51107-24.894637 0 0 5.66945-13.614254 9.47318-19.142572 3.80374-5.528316 9.25288-13.39739 12.75712-15.545379 0 0 5.15656-3.882902 9.49729-3.211656 0 0 4.27187.316691 5.94827 3.738326 0 0 1.35626 3.962076-.70911 6.709023 0 0-2.03095 3.858806-5.09114 5.497336 0 0-7.42847 4.337285-9.73136 6.357909-1.85196 1.621318-3.36312 3.397539-5.32522 5.542086-.60929.753861-2.26847 2.712524-3.81406 4.60234-.65059.7814-2.22371 2.894966-2.62647 3.373444 0 0-3.80029 5.246049-7.35272 12.564357-3.54212 7.314865-4.10666 8.708992-6.37857 13.965368 0 0-1.03268 3.160022-2.35452 3.418193"/>
      <path d="m110.24008 100.51758c0 0-2.08947-.41308-1.9621-2.072262.20998-1.249551.28227-1.638529.79173-2.97758 1.74179-4.557591 3.42508-9.986081 6.37511-15.314745 3.728-6.733118 11.79673-19.466147 20.58145-26.450552 5.27359-4.189267 7.97923-5.93795 12.30275-6.82606.67813-.144577 1.67639-.574863 3.67292-.07573 1.54215.440613 3.80717 1.521492 4.49219 4.120421 0 0 .8055 4.633321-4.18927 8.020534 0 0-14.69858 10.068696-17.20801 12.175378-2.5163 2.113566-3.98616 2.877753-8.75718 7.548941 0 0-6.79508 7.634997-9.29418 11.583304 0 0-2.29601 3.972401-4.35794 7.42846-.31325.671246-.87778 1.559355-1.55936 2.344201 0 0-.24784.4234-.88811.49569"/>
      <path d="m241.87323 66.569718c-.26161-3.4595-2.02751-6.385447-7.44223-6.385447-4.32007 0-7.5868 1.986202-7.5868 5.972372 0 3.270176 1.57657 4.846744 5.63503 5.521433l5.41127.939744c4.58514.75042 6.91212 3.118715 6.91212 7.101444 0 4.963782-3.75898 8.567858-10.37162 8.567858-6.98785 0-10.3303-4.172055-10.67109-8.567858h1.91735c.41651 3.270175 2.70564 6.915559 8.75374 6.915559 5.90353 0 8.34411-3.194445 8.34411-6.726233 0-2.967254-1.35281-4.698725-5.18753-5.373414l-5.10835-.90188c-5.67634-.97761-7.66598-3.418193-7.66598-7.476653 0-4.81232 4.20991-7.628113 9.61775-7.628113 6.08597 0 9.24255 3.005119 9.39401 8.041188z"/>
      <path d="m254.06582 87.688164l-6.23742-19.617608h2.03094l4.84674 15.559149c.26162.90188.52668 1.765894.52668 1.765894h.0757c0 0 .26161-.905322.5611-1.80376l4.80888-15.521283h2.14454l4.88461 15.521283c.18592.598959.52326 1.80376.52326 1.80376h.0757l.45094-1.80376 4.80888-15.521283h1.99308l-6.27529 19.617608h-2.21683l-4.50937-14.282059c-.45094-1.387242-.82615-2.891523-.82615-2.891523h-.0757c0 0-.37521 1.504281-.82615 2.891523l-4.50939 14.282059h-2.2547"/>
      <path d="m291.10142 76.60055c0-2.815793-.90188-7.400923-5.63847-7.400923-4.09289 0-6.1617 3.156579-6.46118 7.552384h12.09965zm-5.56274 11.572977c-5.93451 0-8.56442-3.717673-8.56442-10.106562 0-6.051545 2.96381-10.481771 8.48869-10.481771 5.74862 0 7.5868 4.733148 7.5868 9.091086v1.576569l-14.08585.03787c.11359 5.263261 2.10324 8.26838 6.61264 8.26838 3.56966 0 4.92247-2.554179 5.29768-3.569654h1.84163c-.71256 2.8571-3.30804 5.184087-7.17717 5.184087"/>
      <path d="m310.7982 75.887996c0-3.270176-2.0998-6.650503-6.08597-6.650503-4.43367 0-6.49904 3.721114-6.49904 8.567858 0 5.259818 1.95522 8.715877 6.31315 8.715877 4.3958 0 6.27186-3.679807 6.27186-6.764099zm1.95522 11.800168h-1.84163v-3.531789h-.11359c-.97417 2.103239-2.92939 4.017152-6.27186 4.017152-3.72112 0-8.37853-2.178969-8.37853-10.216715 0-6.61608 3.26673-10.371618 8.37853-10.371618 2.93284 0 5.18753 1.462973 6.1617 3.941421h.0757v-13.449025h1.98964v29.610574"/>
      <path d="m317.53131 68.070556h1.98965v19.617608h-1.98965zm-.11359-7.590248h2.25125v2.406161h-2.25125z"/>
      <path d="m335.9338 72.61782c-.37178-2.027508-2.13767-3.418193-5.03263-3.418193-3.00513 0-4.84675 1.72803-4.84675 3.793404 0 2.182411 1.20481 3.118713 3.19445 3.38377l3.86569.523228c3.46294.45094 5.1531 2.519755 5.1531 5.18753 0 3.566212-2.92939 6.085968-7.36649 6.085968-3.8657 0-6.98785-1.466415-7.70385-5.934507h1.95522c.56454 2.929388 2.55418 4.320073 5.74863 4.320073 3.3459 0 5.37685-1.841625 5.37685-4.20992 0-1.913913-.79173-3.23231-3.72112-3.607519l-3.38032-.450941c-3.15658-.413074-5.03951-2.027508-5.03951-5.070492 0-3.4595 2.93282-5.635027 6.7641-5.635027 3.9483 0 6.65049 1.876047 6.99128 5.032626z"/>
      <path d="m354.67706 75.061846c0-1.803759-.26162-3.270175-.97417-4.28565-.67813-.939745-1.72803-1.466415-3.4595-1.466415-4.35794 0-6.19957 3.573096-6.19957 6.953424v11.424959h-1.98964v-29.610574h1.98964v13.600486h.0757c.93974-2.368295 3.15658-4.092882 6.46462-4.092882 4.61955 0 6.08941 2.667774 6.08941 7.025712v13.077258h-1.99652v-12.626318"/>
      <path d="m235.60138 115.3504c3.91045 0 7.21504-1.95178 7.21504-6.80196 0-3.98273-2.70564-6.19957-7.21504-6.19957h-8.3028v13.00153zm.75387 1.69017h-9.05667v12.28897h-2.02751v-28.74656h10.18229c2.06538 0 4.09289.37521 5.71076 1.27709 2.17897 1.23922 3.67981 3.34246 3.67981 6.6505 0 4.39581-2.7022 7.29077-6.34759 8.15479v.0757l6.68838 12.58845h-2.33043l-6.49904-12.28897"/>
      <path d="m262.98823 118.24536c0-2.81922-.90188-7.40436-5.63502-7.40436-4.09633 0-6.1617 3.15658-6.46462 7.55583h12.09964zm-5.55929 11.56954c-5.93795 0-8.56786-3.71767-8.56786-10.10656 0-6.0481 2.96725-10.48177 8.49213-10.48177 5.74862 0 7.58681 4.73314 7.58681 9.09453v1.57312l-14.0893.0413c.1136 5.25982 2.10669 8.26494 6.61609 8.26494 3.56965 0 4.92246-2.55418 5.29768-3.56965h1.84162c-.71255 2.8571-3.30804 5.18409-7.17717 5.18409"/>
      <path d="m280.01036 114.26263c-.37521-2.03094-2.14111-3.42163-5.03608-3.42163-3.00167 0-4.84329 1.73147-4.84329 3.79684 0 2.17898 1.20135 3.11872 3.19444 3.38033l3.86569.52668c3.4595.45094 5.14967 2.51975 5.14967 5.18408 0 3.56966-2.93284 6.08597-7.36651 6.08597-3.86568 0-6.9844-1.46641-7.70383-5.9345h1.95865c.5611 2.92939 2.55419 4.32007 5.74518 4.32007 3.34591 0 5.37342-1.84162 5.37342-4.20992 0-1.91392-.78828-3.22887-3.72112-3.60408l-3.37688-.45094c-3.15658-.41308-5.03607-2.03095-5.03607-5.07049 0-3.4595 2.93283-5.63847 6.76065-5.63847 3.94831 0 6.65396 1.87949 6.98785 5.03606z"/>
      <path d="m299.02556 118.24536c0-2.81922-.90187-7.40436-5.63846-7.40436-4.09289 0-6.1617 3.15658-6.45774 7.55583h12.0962zm-5.55929 11.56954c-5.93795 0-8.56786-3.71767-8.56786-10.10656 0-6.0481 2.96725-10.48177 8.48869-10.48177 5.74861 0 7.59025 4.73314 7.59025 9.09453v1.57312l-14.08929.0413c.11359 5.25982 2.10323 8.26494 6.61263 8.26494 3.56965 0 4.92247-2.55418 5.29768-3.56965h1.84162c-.71255 2.8571-3.30459 5.18409-7.17372 5.18409"/>
      <path d="m316.31274 120.57235v-1.16349c-5.37685.37521-7.89661.67813-9.09797 1.54215-1.01547.71255-1.57657 1.80375-1.57657 3.19444 0 2.55418 1.7659 3.86913 4.28221 3.86913 3.08429 0 6.39233-2.63335 6.39233-7.44223m-11.69001-5.78304c0-3.00856 2.55417-5.56274 6.83982-5.56274 5.86223 0 6.76066 3.75554 6.76066 7.17373v8.94651c0 1.98964.67813 2.66777 1.99653 2.66777v1.53871h-.30292c-2.51976 0-3.49737-1.31496-3.53179-4.17206h-.0723c-1.3184 2.70908-3.76242 4.24778-6.80541 4.24778-3.45261 0-5.89664-1.99307-5.89664-5.44914 0-2.29256 1.05334-3.75553 2.51632-4.61955 1.84162-1.08776 5.18408-1.42855 10.22015-1.76589v-1.54215c0-2.66777-.82615-5.41128-4.88461-5.41128-3.11871 0-4.77101 1.65575-4.96033 3.94831h-1.87949"/>
      <path d="m324.16461 109.71538h1.84162v4.39235h.0757c.70911-2.44058 3.11183-4.77101 6.12038-4.77101h.34079v1.87949h-.41307c-2.74351 0-5.97582 1.99309-5.97582 7.32864v10.78469h-1.98964v-19.61416"/>
      <path d="m347.88198 114.82373c-.26506-1.95178-1.98964-3.94142-5.25982-3.94142-3.98617 0-6.54035 3.0774-6.54035 8.60228 0 5.48701 1.99308 8.67801 6.38889 8.67801 3.60751 0 4.85018-2.17896 5.41128-4.58169h1.98964c-.67468 4.17206-3.56965 6.23744-7.47321 6.23744-5.67633 0-8.41983-4.0206-8.41983-10.11001 0-5.93795 3.08429-10.51964 8.56785-10.51964 3.27018 0 6.72623 1.50085 7.32519 5.63503z"/>
      <g clip-path="url(#a)" transform="matrix(.88122609 0 0 .88122609 23.249988 10.832168)">
         <path d="m389.23438 120.14453c0-2.05078-.29688-3.71484-1.10547-4.86719-.76953-1.0625-1.96094-1.66406-3.92578-1.66406-4.94141 0-7.03516 4.05469-7.03516 7.89063v12.96484h-2.25781v-33.60156h2.25781v15.43359h.0898c1.0625-2.6875 3.58203-4.64453 7.33203-4.64453 5.24219 0 6.91016 3.02734 6.91016 7.97266v14.83984h-2.26562v-14.32422"/>
      </g>
      <g clip-path="url(#b)" transform="matrix(.88122609 0 0 .88122609 23.249988 10.832168)">
         <path d="m229.55469 165.55859c0 8.95704 4.17578 14.96875 12.10547 14.96875 6.57031 0 9.21093-3.96875 9.64062-7.71875h2.21485c-.46875 5.62891-5.03125 9.58985-12.28125 9.58985-7.92969 0-14.11329-5.11328-14.11329-16.83985 0-10.875 6.3086-16.96875 14.28516-16.96875 5.5 0 11.42969 2.51172 12.10938 9.59375h-2.21485c-.42969-3.7539-3.03125-7.71875-9.89453-7.71875-7.92969 0-11.85156 6.52344-11.85156 15.09375"/>
      </g>
      <g clip-path="url(#c)" transform="matrix(.88122609 0 0 .88122609 23.249988 10.832168)">
         <path d="m259.82031 170.58984c0 5.96875 2.34766 9.85157 7.29297 9.85157 4.77344 0 7.16406-3.88282 7.16406-9.85157 0-5.96875-2.25781-9.85156-7.16406-9.85156-4.64844 0-7.29297 3.88281-7.29297 9.85156m-2.30078 0c0-6.5664 3.45313-11.68359 9.59375-11.68359 6.73828 0 9.50781 5.16016 9.50781 11.68359 0 6.73829-3.28125 11.6836-9.50781 11.6836-6.73828 0-9.59375-4.98828-9.59375-11.6836"/>
      </g>
      <g clip-path="url(#d)" transform="matrix(.88122609 0 0 .88122609 23.249988 10.832168)">
         <path d="m282.93359 174.17188c0 1.875.30079 3.45703 1.07032 4.51953.80468 1.0664 2.13281 1.66406 4.21875 1.66406 4.43359 0 6.69531-3.79688 6.69531-8.91016v-11.98437h2.25781v22.25781h-2.08984v-4.34766h-.08594c-1.10547 2.59766-3.41016 4.90235-7.20312 4.90235-5.16016 0-7.1211-2.85547-7.1211-7.84375v-14.96875h2.25781z"/>
      </g>
      <path d="m302.2269 158.3446c0-1.80376-.26162-3.27018-.97417-4.28565-.67813-.93975-1.72459-1.46642-3.4595-1.46642-4.32008 0-6.19612 3.4595-6.19612 6.95342v11.42152h-1.99309v-19.61416h1.84507v3.60752h.0723c1.08776-2.32699 3.30803-4.09633 6.61608-4.09633 4.61955 0 6.08596 2.67122 6.08596 7.02915v13.07382h-1.99652v-12.62287"/>
      <g clip-path="url(#e)" transform="matrix(.88122609 0 0 .88122609 23.249988 10.832168)">
         <path d="m338.5 165.25781c-.29687-2.21484-2.26172-4.47265-5.96875-4.47265-4.51953 0-7.41797 3.49609-7.41797 9.76172 0 6.22656 2.25781 9.84765 7.2461 9.84765 4.09375 0 5.5-2.46875 6.14062-5.19922h2.25781c-.76953 4.73438-4.04687 7.07813-8.48437 7.07813-6.4375 0-9.55078-4.5586-9.55078-11.47266 0-6.73437 3.49609-11.9375 9.72265-11.9375 3.70703 0 7.63282 1.70313 8.3125 6.39453z"/>
      </g>
      <path d="m327.094 151.35331h1.98964v19.61761h-1.98964zm-.11705-7.59025h2.25814v2.40616h-2.25814z"/>
      <path d="m333.67221 141.3569h1.99308v29.61402h-1.99308z"/>
   </g>
</svg>
