<svg fill="none" height="90" viewBox="0 0 432 90" width="432" xmlns="http://www.w3.org/2000/svg"><g fill="#000"><path d="m0 .899999c0 .500001.7 1.400001 1.6 2.200001 2.4 2 3.7 4.9 20.6 46.4 8.7 21.4 16.3 39.4 16.9 40 1.4 1.4 1.1 2 15-31 6.8-16.2 12.7-29.1 13-28.7.4.4 6.2 14.1 13 30.4 6.7 16.4 12.8 29.8 13.3 29.8.6 0 8.2-17.8 17-39.5 14.9-37.2 20.2-48.5 22.6-48.5.5 0 1-.5 1-1.000001 0-.6-4-1.00000034-10-1.00000034-5.5 0-10 .30000034-10 .70000034 0 .3.8 1.500001 1.7 2.600001 1.1 1.1 1.7 3.3 1.6 5.5-.1 3.3-17.3 48.5-19.2 50.5-.4.4-6-12.3-12.6-28.2-6.5-16-12.2-29.6-12.6-30.300001-.5-.80000034-1.2-.9-1.8-.3-.5.600001-6.8 14.300001-13.8 30.600001l-12.9 29.7-9.7-24.7c-11.4-29-11.7-30.1-8.8-33 1.2-1.2 2.1-2.300001 2.1-2.600001s-6.3-.50000034-14-.50000034-14 .40000034-14 .90000034z"/><path d="m143 16c0 .5.4 1 1 1 .5 0 1.6 1.3 2.5 3 1.2 2.4 1.5 7.9 1.5 31.9v28.9l-2.5 3c-1.4 1.7-2.5 3.3-2.5 3.6s5.9.6 13 .6c7.2 0 13-.3 13-.6s-1.1-1.9-2.5-3.6l-2.5-3v-28.9c0-24 .3-29.5 1.5-31.9.9-1.7 2-3 2.5-3 .6 0 1-.5 1-1 0-.6-5-1-13-1s-13 .4-13 1z"/><path d="m193 15.5c0 .2 1.1 1.5 2.5 2.9l2.5 2.5v30.4 30.4l-2.5 2.7c-1.4 1.5-2.5 2.9-2.5 3.2 0 .2 15 .4 33.3.4h33.3l1.8-7.6c1-4.1 1.6-7.8 1.2-8.1-.3-.3-2.4 1-4.6 3-5.6 4.8-10.3 5.7-28.4 5.7h-15.6v-29.4-29.4l2.5-3c1.4-1.7 2.5-3.3 2.5-3.6s-5.8-.6-13-.6c-7.1 0-13 .2-13 .5z"/><path d="m273 15.7c0 .4 1 1.7 2.3 3.1 2.2 2.3 2.2 2.6 2.2 32.7s0 30.4-2.2 32.7c-1.3 1.4-2.3 2.7-2.3 3.1s15.7.7 34.8.7h34.8l1.2-7.7c.7-4.2 1-7.8.7-8.1s-2 .9-3.9 2.7c-5.2 5-10.5 6.1-30.3 6.1h-17.3v-14.1-14l14.9.3c13.9.3 15.1.5 17.3 2.5 1.4 1.3 2.7 2.3 3.1 2.3s.7-3.8.7-8.5-.2-8.5-.4-8.5c-.3 0-2.2 1-4.3 2.2-3.3 2-5.5 2.3-17.5 2.6l-13.8.4v-12.1-12.1h16.3c18.1 0 22.2.8 27.1 5.1 1.9 1.6 3.6 2.9 4 2.9.6 0 .3-3.2-1-11.8l-.5-3.2h-32.9c-18.2 0-33 .3-33 .7z"/><path d="m352 15.5c0 .2 1.8 2.1 4 4.2s9.6 11.9 16.5 21.7l12.5 17.9v9.4c0 9.8-1.6 15.8-4.5 16.9-4.1 1.6-.3 2.4 12 2.4 7.4 0 13.5-.3 13.5-.8 0-.4-.9-1.3-1.9-1.9-2.8-1.8-4.1-7.4-4.1-17.8v-9l11.9-17c6.6-9.4 13.8-18.9 16-21.3 2.3-2.4 4.1-4.5 4.1-4.7 0-.3-4.5-.5-10-.5s-10 .2-10 .5.7 1.7 1.6 3c1 1.5 1.3 3.2.8 4.7-1.1 3.6-17.6 27-18.4 26.1-.4-.4-4.6-6.6-9.4-13.6-8-12.1-10-16.7-7.6-18.2 3-1.9-.2-2.5-13-2.5-7.7 0-14 .2-14 .5z"/></g></svg>