<?xml version="1.0" encoding="utf-8"?>
<!-- Generator: Adobe Illustrator 22.0.1, SVG Export Plug-In . SVG Version: 6.00 Build 0)  -->
<svg version="1.1" xmlns="http://www.w3.org/2000/svg" xmlns:xlink="http://www.w3.org/1999/xlink" x="0px" y="0px"
	 viewBox="0 0 1843.9 474" style="enable-background:new 0 0 1843.9 474;" xml:space="preserve">
<style type="text/css">
	.st0{fill:#385072;}
	.st1{fill:none;}
	.st2{font-family:'SourceSansPro-Bold';}
	.st3{font-size:71px;}
	.st4{font-family:'SourceSansPro-Regular';}
</style>
<g id="Font">
</g>
<g id="Layer_3">
	<g>
		<g>
			<path class="st0" d="M274,304.6h-38v-95.4l-24.8,95.4h-26l-25.6-95.4v95.4H129V171.2h53.4l19.4,70.8l18.4-70.8H274V304.6z"/>
			<path class="st0" d="M297.4,171.2H349c22,0,37,5.8,49.2,18.8c11.6,12.4,17.8,29,17.8,47.6c0,39.8-26.2,67-64.4,67h-54.2V171.2z
				 M349,274c14.2,0,24.2-15,24.2-36.2c0-9.6-2-18.4-6-25.4c-4.2-7.4-10.2-11-18.2-11h-10.6V274H349z"/>
			<path class="st0" d="M474.8,304.6h-41.4V171.2h56.8c20.6,0,32,3,41.8,10.6c9.2,7.4,14.8,19.2,14.8,32c0,25.4-19.4,42.4-48.8,42.4
				h-23.2V304.6z M488,227.6c12.4,0,18-4.2,18-13.2c0-8.4-5.6-12.6-16.8-12.6h-14.8v25.8H488z"/>
			<path class="st0" d="M601.4,304.6h-41V171.2h41V304.6z"/>
		</g>
		<g>
			<g>
				<polygon class="st0" points="76.6,332.4 66.6,332.4 66.6,129.2 220.6,40.6 375.6,128.9 366.2,134.9 220.6,52.2 76.6,135 				"/>
			</g>
			<g>
				<polygon class="st0" points="91.4,151.2 91.5,139.7 215.3,68.4 215.2,80.4 				"/>
			</g>
		</g>
		<g>
			<g>
				<polygon class="st0" points="655.2,143.7 665.2,143.7 665.2,347 511.3,435.5 356.2,347.3 365.7,341.2 511.2,424 655.2,341.2 
									"/>
			</g>
			<g>
				<polygon class="st0" points="640.4,324.9 640.3,336.5 516.5,407.8 516.6,395.7 				"/>
			</g>
		</g>
	</g>
	<rect x="747.5" y="176.3" class="st1" width="1069.2" height="157.9"/>
	<text transform="matrix(1 0 0 1 747.5237 226.1075)"><tspan x="0" y="0" class="st2 st3">Academic Open Access Publishing</tspan><tspan x="1065.1" y="0" class="st2 st3"> </tspan><tspan x="0" y="74" class="st4 st3">since 1996</tspan></text>
</g>
</svg>
