<?xml version="1.0" encoding="UTF-8" standalone="no"?>
<svg
   xmlns:dc="http://purl.org/dc/elements/1.1/"
   xmlns:cc="http://creativecommons.org/ns#"
   xmlns:rdf="http://www.w3.org/1999/02/22-rdf-syntax-ns#"
   xmlns:svg="http://www.w3.org/2000/svg"
   xmlns="http://www.w3.org/2000/svg"
   height="470.04901"
   width="522.74902"
   xml:space="preserve"
   viewBox="0 0 522.74902 470.04901"
   y="0px"
   x="0px"
   id="Layer_1"
   version="1.1"><metadata
     id="metadata4397"><rdf:RDF><cc:Work
         rdf:about=""><dc:format>image/svg+xml</dc:format><dc:type
           rdf:resource="http://purl.org/dc/dcmitype/StillImage" /><dc:title></dc:title></cc:Work></rdf:RDF></metadata><defs
     id="defs4395" /><style
     id="style4361"
     type="text/css">
	.st0{fill:#FFFFFF;}
	.st1{fill:none;stroke:#939598;stroke-width:3.149;}
	.st2{fill:#FBAD27;}
	.st3{fill:#00377B;}
	.st4{font-family:'ThiemeArgo2011-Medium';}
	.st5{font-size:126.009px;}
</style><g
     transform="translate(-44.025499,-161.0255)"
     id="g4363"><path
       style="fill:#ffffff"
       id="path4365"
       d="m 99.7,162.6 c 0,0 -54.1,0 -54.1,54.1 l 0,358.7 c 0,0 0,54.1 54.1,54.1 l 411.4,0 c 0,0 54.1,0 54.1,-54.1 l 0,-358.7 c 0,0 0,-54.1 -54.1,-54.1 l -411.4,0 0,0 z"
       class="st0" /><path
       style="fill:none;stroke:#939598;stroke-width:3.14899993"
       id="path4367"
       d="m 99.7,162.6 c 0,0 -54.1,0 -54.1,54.1 l 0,358.7 c 0,0 0,54.1 54.1,54.1 l 411.4,0 c 0,0 54.1,0 54.1,-54.1 l 0,-358.7 c 0,0 0,-54.1 -54.1,-54.1 l -411.4,0 0,0 z"
       class="st1" /><path
       style="fill:#fbad27"
       id="path4369"
       d="m 536.3,556.3 c 0,26.4 -21.4,47.8 -47.8,47.8 l -366.3,0 c -26.4,0 -47.8,-21.4 -47.8,-47.8 l 0,-199.1 c 0,-26.4 21.4,-47.8 47.8,-47.8 l 366.3,0 c 26.4,0 47.8,21.4 47.8,47.8 l 0,199.1 0,0 z"
       class="st2" /><path
       style="fill:#ffffff"
       id="path4371"
       d="m 159.2,344.6 c 17.4,0 30.9,5.3 40.3,15.9 8.9,10 13.3,24.1 13.3,42.3 0,21.4 -6,37.5 -17.9,48.5 -9.3,8.6 -21.6,12.8 -36.9,12.8 -17.3,0 -30.6,-5.3 -40,-15.9 -8.9,-10.1 -13.4,-24.3 -13.4,-42.7 0,-10 1.5,-19.1 4.5,-27.3 5,-14 13.7,-23.7 26,-29 7,-3 15.1,-4.6 24.1,-4.6 l 0,0 z m 0,17 c -19.5,0 -29.3,14.5 -29.3,43.5 0,28 9.4,42 28.2,42 19.6,0 29.4,-14.5 29.4,-43.4 0,-28 -9.4,-42.1 -28.3,-42.1 l 0,0 z"
       class="st0" /><path
       style="fill:#ffffff"
       id="path4373"
       d="m 229.4,462.1 0,-115.3 35.7,0 c 8,0 13.5,0.2 16.4,0.6 7.1,1 12.8,3.1 17.3,6.5 7.8,6 11.7,14.9 11.7,27 0,14.8 -5.6,25.3 -16.8,31.7 -6.7,3.8 -16.7,5.7 -29.9,5.7 l -9.8,0 0,43.8 -24.6,0 0,0 z m 24.7,-58.6 10.5,0 c 14,0 21,-7.1 21,-21.3 0,-13.8 -6.9,-20.7 -20.7,-20.7 l -10.8,0 0,42 0,0 z"
       class="st0" /><polygon
       style="fill:#ffffff"
       id="polygon4375"
       points="350.3,394.3 385.3,394.3 385.3,410.7 350.3,410.7 350.3,445.8 397.2,445.8 397.2,462.1 325.7,462.1 325.7,346.8 394.4,346.8 394.4,346.8 394.4,363.1 350.3,363.1 "
       class="st0" /><polygon
       style="fill:#ffffff"
       id="polygon4377"
       points="489.2,437.7 489.2,346.8 508.5,346.8 508.5,462.1 476.8,462.1 434,369.7 434.2,462.1 414.7,462.1 414.7,462.1 414.7,346.8 447.4,346.8 "
       class="st0" /><path
       style="fill:#ffffff"
       id="path4379"
       d="m 104.4,573 29.6,-86.5 20.8,0 28.5,86.5 -19.4,0 -7.8,-25.4 -27.8,0 -7.5,25.4 -16.4,0 0,0 z m 27.2,-37.2 21.1,0 -10.7,-35.6 -10.4,35.6 0,0 z"
       class="st0" /><path
       style="fill:#ffffff"
       id="path4381"
       d="m 250.8,489.5 0,11 c -5.5,-1.3 -11.1,-2 -16.8,-2 -20.3,0 -30.4,10.6 -30.4,31.7 0,20.2 9.6,30.3 28.7,30.3 5.3,0 11.5,-0.7 18.5,-2.1 l 0,11.6 -1.6,0.4 c -10.5,2.4 -18.6,3.6 -24.3,3.6 -7.3,0 -13.4,-1 -18.3,-2.9 -6.7,-2.8 -12,-7.3 -15.9,-13.6 -4,-6.6 -6,-15 -6,-25.1 0,-15 4.2,-26.7 12.6,-35.2 4.3,-4.4 9.7,-7.6 16,-9.5 4.7,-1.5 9.4,-2.2 14.2,-2.2 0.6,0 2,0.1 4.1,0.2 5.2,0.6 11.2,1.8 18,3.8 l 1.2,0 0,0 z"
       class="st0" /><path
       style="fill:#ffffff"
       id="path4383"
       d="m 321.2,489.5 0,11 c -5.5,-1.3 -11.1,-2 -16.8,-2 -20.3,0 -30.4,10.6 -30.4,31.7 0,20.2 9.6,30.3 28.7,30.3 5.3,0 11.5,-0.7 18.5,-2.1 l 0,11.6 -1.6,0.4 c -10.5,2.4 -18.6,3.6 -24.3,3.6 -7.3,0 -13.4,-1 -18.3,-2.9 -6.7,-2.8 -12,-7.3 -15.9,-13.6 -4,-6.6 -6,-15 -6,-25.1 0,-15 4.2,-26.7 12.6,-35.2 4.3,-4.4 9.7,-7.6 16,-9.5 4.7,-1.5 9.4,-2.2 14.2,-2.2 0.6,0 2,0.1 4.1,0.2 5.2,0.6 11.2,1.8 18,3.8 l 1.2,0 0,0 z"
       class="st0" /><polygon
       style="fill:#ffffff"
       id="polygon4385"
       points="350.2,522.1 376.5,522.1 376.5,534.4 350.2,534.4 350.2,560.7 385.4,560.7 385.4,573 331.7,573 331.7,486.5 383.3,486.5 383.3,486.5 383.3,498.8 350.2,498.8 "
       class="st0" /><path
       style="fill:#ffffff"
       id="path4387"
       d="m 392.9,558.3 c 9,2 16.4,2.9 22.2,2.9 10.5,0 15.7,-3.6 15.7,-10.8 0,-2.8 -0.9,-5.2 -2.8,-7 -1.2,-1.2 -3.1,-2.5 -5.6,-3.8 l -13.4,-7 c -5.3,-2.8 -9.2,-6 -11.6,-9.5 -2.4,-3.6 -3.6,-7.9 -3.6,-13 0,-7.6 2.4,-13.5 7.2,-17.8 5.1,-4.5 12.4,-6.8 21.8,-6.8 3.5,0 7.6,0.5 12.2,1.4 4.5,0.9 7.8,1.7 9.8,2.3 l 1.1,0.4 0,11.5 c -7.3,-2 -14.1,-3.1 -20.5,-3.1 -9.2,0 -13.8,3.2 -13.8,9.5 0,2.7 1,4.9 3.1,6.6 1.3,1.2 3.7,2.6 7.2,4.4 l 11.3,5.6 c 5.5,2.8 9.5,6 12,9.8 2.5,3.8 3.7,8.4 3.7,13.9 0,8.2 -2.6,14.6 -7.8,19.2 -5.3,4.7 -12.9,7.1 -22.6,7.1 -5.3,0 -13.4,-1.3 -24.3,-4 l -1.1,-0.2 0,-11.6 -0.2,0 z"
       class="st0" /><path
       style="fill:#ffffff"
       id="path4389"
       d="m 456.2,558.3 c 9,2 16.4,2.9 22.2,2.9 10.5,0 15.7,-3.6 15.7,-10.8 0,-2.8 -0.9,-5.2 -2.8,-7 -1.2,-1.2 -3.1,-2.5 -5.6,-3.8 l -13.4,-7 c -5.3,-2.8 -9.2,-6 -11.6,-9.5 -2.4,-3.6 -3.6,-7.9 -3.6,-13 0,-7.6 2.4,-13.5 7.2,-17.8 5.1,-4.5 12.4,-6.8 21.8,-6.8 3.5,0 7.6,0.5 12.2,1.4 4.5,0.9 7.8,1.7 9.8,2.3 l 1.1,0.4 0,11.5 c -7.3,-2 -14.1,-3.1 -20.5,-3.1 -9.2,0 -13.8,3.2 -13.8,9.5 0,2.7 1,4.9 3.1,6.6 1.3,1.2 3.7,2.6 7.2,4.4 l 11.3,5.6 c 5.5,2.8 9.5,6 12,9.8 2.5,3.8 3.7,8.4 3.7,13.9 0,8.2 -2.6,14.6 -7.8,19.2 -5.3,4.7 -12.9,7.1 -22.6,7.1 -5.3,0 -13.4,-1.3 -24.3,-4 l -1.1,-0.2 0,-11.6 -0.2,0 z"
       class="st0" /><text
       style="font-size:126.00900269px;font-family:ThiemeArgo2011-Medium;fill:#00377b"
       id="text4391"
       class="st3 st4 st5"
       transform="translate(88.062,292.6289)">THIEME</text>
</g></svg>