<?xml version="1.0" standalone="no"?>
<!DOCTYPE svg PUBLIC "-//W3C//DTD SVG 20010904//EN"
 "http://www.w3.org/TR/2001/REC-SVG-20010904/DTD/svg10.dtd">
<svg version="1.0" xmlns="http://www.w3.org/2000/svg"
 width="576.000000pt" height="231.000000pt" viewBox="0 0 576.000000 231.000000"
 preserveAspectRatio="xMidYMid meet">
<metadata>
Created by potrace 1.15, written by Peter Selinger 2001-2017
</metadata>
<g transform="translate(0.000000,231.000000) scale(0.100000,-0.100000)"
fill="#000000" stroke="none">
<path d="M720 1601 c0 -5 7 -14 16 -22 24 -20 37 -49 206 -464 87 -214 163
-394 169 -400 14 -14 11 -20 150 310 68 162 127 291 130 287 4 -4 62 -141 130
-304 67 -164 128 -298 133 -298 6 0 82 178 170 395 149 372 202 485 226 485 5
0 10 5 10 10 0 6 -40 10 -100 10 -55 0 -100 -3 -100 -7 0 -3 8 -15 17 -26 11
-11 17 -33 16 -55 -1 -33 -173 -485 -192 -505 -4 -4 -60 123 -126 282 -65 160
-122 296 -126 303 -5 8 -12 9 -18 3 -5 -6 -68 -143 -138 -306 l-129 -297 -97
247 c-114 290 -117 301 -88 330 12 12 21 23 21 26 0 3 -63 5 -140 5 -77 0
-140 -4 -140 -9z"/>
<path d="M2150 1450 c0 -5 4 -10 10 -10 5 0 16 -13 25 -30 12 -24 15 -79 15
-319 l0 -289 -25 -30 c-14 -17 -25 -33 -25 -36 0 -3 59 -6 130 -6 72 0 130 3
130 6 0 3 -11 19 -25 36 l-25 30 0 289 c0 240 3 295 15 319 9 17 20 30 25 30
6 0 10 5 10 10 0 6 -50 10 -130 10 -80 0 -130 -4 -130 -10z"/>
<path d="M2650 1455 c0 -2 11 -15 25 -29 l25 -25 0 -304 0 -304 -25 -27 c-14
-15 -25 -29 -25 -32 0 -2 150 -4 333 -4 l333 0 18 76 c10 41 16 78 12 81 -3 3
-24 -10 -46 -30 -56 -48 -103 -57 -284 -57 l-156 0 0 294 0 294 25 30 c14 17
25 33 25 36 0 3 -58 6 -130 6 -71 0 -130 -2 -130 -5z"/>
<path d="M3450 1453 c0 -4 10 -17 23 -31 22 -23 22 -26 22 -327 0 -301 0 -304
-22 -327 -13 -14 -23 -27 -23 -31 0 -4 157 -7 348 -7 l348 0 12 77 c7 42 10
78 7 81 -3 3 -20 -9 -39 -27 -52 -50 -105 -61 -303 -61 l-173 0 0 141 0 140
149 -3 c139 -3 151 -5 173 -25 14 -13 27 -23 31 -23 4 0 7 38 7 85 0 47 -2 85
-4 85 -3 0 -22 -10 -43 -22 -33 -20 -55 -23 -175 -26 l-138 -4 0 121 0 121
163 0 c181 0 222 -8 271 -51 19 -16 36 -29 40 -29 6 0 3 32 -10 118 l-5 32
-329 0 c-182 0 -330 -3 -330 -7z"/>
<path d="M4240 1455 c0 -2 18 -21 40 -42 22 -21 96 -119 165 -217 l125 -179 0
-94 c0 -98 -16 -158 -45 -169 -41 -16 -3 -24 120 -24 74 0 135 3 135 8 0 4 -9
13 -19 19 -28 18 -41 74 -41 178 l0 90 119 170 c66 94 138 189 160 213 23 24
41 45 41 47 0 3 -45 5 -100 5 -55 0 -100 -2 -100 -5 0 -3 7 -17 16 -30 10 -15
13 -32 8 -47 -11 -36 -176 -270 -184 -261 -4 4 -46 66 -94 136 -80 121 -100
167 -76 182 30 19 -2 25 -130 25 -77 0 -140 -2 -140 -5z"/>
</g>
</svg>
