<svg id="Layer_1" data-name="Layer 1" xmlns="http://www.w3.org/2000/svg" viewBox="0 0 199.7 51.62"><defs><style>.cls-1{fill:#fff;}</style></defs><path class="cls-1" d="M98.25,9.58V3.64h4c2.5,0,3.8,1.07,3.8,3s-1.3,3-3.8,3Zm0,3.68h4.27c4.75,0,7.71-2.26,7.71-6.53S107.27.2,102.52.2H94V21h4.27ZM90.42.08H86.14V20.85h4.28ZM73.8,4.83l3,8H70.83ZM71.43.08,63.71,20.85H68l1.66-4.51h8.54l1.66,4.51h4.28L76.29.08Z"/><polygon class="cls-1" points="42.83 26.67 1.64 43.76 46.62 33.08 42.83 26.67"/><polygon class="cls-1" points="3.78 40.55 39.03 20.14 35.47 13.97 3.78 40.55"/><polygon class="cls-1" points="27.28 0.08 5.68 36.64 31.31 7.08 27.28 0.08"/><polygon class="cls-1" points="0.22 46.01 0.22 46.01 54.22 46.01 50.18 39.48 0.22 46.01"/><path class="cls-1" d="M67.87,46H63.59V25.24h8.55c4.75,0,7.71,2.26,7.71,6.53s-3,6.53-7.71,6.53H67.87Zm4-11.27c2.49,0,3.8-1.07,3.8-3s-1.31-3-3.8-3h-4v5.94Z"/><path class="cls-1" d="M95,46H91V44.47a5.32,5.32,0,0,1-4.15,1.9c-3.21,0-5.23-2.14-5.23-5.46V30.82h4V40c0,1.66.71,2.73,2.37,2.73a2.84,2.84,0,0,0,2.85-3v-8.9h4V46Z"/><path class="cls-1" d="M102.4,44.47V46h-4V25.24h4v7.12a5.62,5.62,0,0,1,4.27-1.9c4.16,0,6.65,3.56,6.65,8s-2.37,7.95-6.65,7.95A6,6,0,0,1,102.4,44.47Zm0-5.7c0,2.61,1.43,4,3.44,4,2.26,0,3.56-1.78,3.56-4.51s-1.18-4.39-3.56-4.39c-1.9,0-3.44,1.42-3.44,4Z"/><path class="cls-1" d="M119.85,46h-4V25.24h4Z"/><path class="cls-1" d="M123.05,25.24h4.16V29h-4.16ZM127.21,46h-4V30.7h4Z"/><path class="cls-1" d="M131.6,40.79a6,6,0,0,0,4.63,2.37c1.3,0,2.49-.47,2.49-1.54s-1.19-1.31-3.56-1.78-5.22-1.19-5.22-4.39c0-3,2.61-5,6.17-5a8,8,0,0,1,6.29,2.62L140,35.57a5.16,5.16,0,0,0-4-2c-1.31,0-2.14.59-2.14,1.42s1.07,1.19,2.85,1.55c2.61.59,5.82,1.18,5.82,4.63,0,3.2-3,5.1-6.65,5.1-2.73,0-5.7-1.07-7-2.85Z"/><path class="cls-1" d="M145,25.24h4v7.12a5.53,5.53,0,0,1,4.16-1.9c3.2,0,5.1,2.14,5.1,5.46V46h-4v-8.9c0-1.66-.71-3-2.37-3a2.84,2.84,0,0,0-2.85,3v8.78h-4V25.24Z"/><path class="cls-1" d="M161.62,25.24h4.16V29h-4.16Zm4,20.77h-4V30.7h4Z"/><path class="cls-1" d="M169,30.7h4v1.66a5.51,5.51,0,0,1,4.15-1.9c3.2,0,5.1,2.14,5.1,5.46V46h-4v-8.9c0-1.66-.71-3-2.38-3a2.84,2.84,0,0,0-2.84,3v8.78h-4Z"/><path class="cls-1" d="M192,51.47c-3.68,0-6.17-1.54-7.12-4.51l3.8-1.07A3.22,3.22,0,0,0,192,48.27c2.14,0,3.56-1.07,3.56-3.56V43.64a5.38,5.38,0,0,1-4.27,1.9c-4.15,0-6.64-3.45-6.64-7.6s2.37-7.48,6.64-7.48a5.42,5.42,0,0,1,4.27,1.9V30.82h4V44.35C199.6,48.86,196.51,51.47,192,51.47Zm.36-17.56c-2.25,0-3.44,1.54-3.44,4.15s1.19,4.15,3.44,4.15c1.9,0,3.32-1.42,3.32-3.91v-.36C195.56,35.33,194.26,33.91,192.36,33.91Z"/></svg>