<svg height="125" width="591.65503" xmlns="http://www.w3.org/2000/svg" xmlns:xlink="http://www.w3.org/1999/xlink"><clipPath id="a"><path d="m0 0h595.276v558.425h-595.276z"/></clipPath><clipPath id="b"><path d="m0 0h595.276v558.425h-595.276z"/></clipPath><clipPath id="c"><path d="m0 0h595.276v558.425h-595.276z"/></clipPath><g transform="matrix(2.9729167 0 0 2.9729167 -840.0019 -2143.85156)"><g clip-path="url(#a)" transform="matrix(1.25 0 0 -1.25 -.618309 829.94923)"><path d="m0 0c1.034.547 2.119 1.067 3.077 1.526l1.38.669c7.477 3.704 9.091 6.049 9.091 13.204v11.079l.019 1.984.009 2.093c.006 1.264.019 1.543.117 2.489l.019.183-.836-.035c-1.703-.072-2.993-.11-3.73-.11h-1.558l-.713-.009h-15.302l-.712.009h-1.559c-.737 0-2.027.038-3.73.11l-.835.035.018-.183c.099-.946.112-1.225.118-2.489l.009-2.093.018-1.984v-11.079c0-7.155 1.614-9.5 9.091-13.204l1.38-.669c.958-.459 2.044-.979 3.077-1.526l.776-.41z" fill="#323133" transform="translate(241.7988 53.8305)"/><path d="m0 0v6.091h-10.929v11.132h-6.156v-11.132h-10.928v-6.091h10.928l-.001-14.025c.792-.382 1.636-.795 2.452-1.227 0 0 .54-.285.628-.332.087.046.627.332.627.332.816.432 1.66.845 2.452 1.226l-.001 14.026z" fill="#fff" transform="translate(255.0294 69.3634)"/><path d="m0 0 .019-.086.001-13.968c.216.104.431.207.637.306l1.376.666c7.415 3.674 8.914 5.847 8.914 12.92v.133h-10.899zm-17.066-.029v-.133c0-7.073 1.5-9.246 8.915-12.92l1.376-.666c.206-.099.421-.202.637-.306l.001 13.968.019.086-.048-.029h-10.9zm0 6.092 10.852-.001.095-.028-.019.095v11.065h-4.574s-.713.009-.713.009h-1.556c-.742 0-2.036.038-3.744.11 0 0-.279.012-.468.02.082-.815.094-1.148.1-2.338 0 0 .009-2.092.009-2.093 0 0 .018-1.983.018-1.985zm27.673 11.25c-1.708-.072-3.003-.11-3.744-.11h-1.555s-.714-.009-.716-.009h-4.573v-11.065l-.019-.095.095.028 10.852.001v4.856l.019 1.983.009 2.093c.005 1.19.018 1.523.1 2.338-.193-.008-.468-.02-.468-.02" fill="#c63639" transform="translate(244.0821 69.3919)"/><path d="m0 0 .038-.143c.034-.128.06-.23.076-.304.12-.542.221-.685.485-.685.15 0 .275.084.313.21l.057.19c.013.044.046.069.091.069.103 0 .151-.106.156-.344.002-.069.024-.225.067-.466.025-.143.038-.282.038-.415 0-.121-.01-.172-.057-.297.033-.187.057-.438.057-.583 0-.235-.044-.453-.114-.567.04-.158.048-.221.048-.358 0-.101-.01-.211-.029-.317-.042-.228-.05-.286-.05-.328 0-.044.007-.087.021-.128.019-.054.029-.093.029-.114 0-.026-.013-.048-.029-.048l-.19.077-.209.114c-.068.036-.114.073-.218.17-.185-.166-.239-.191-.722-.323-.097-.026-.168-.055-.21-.085-.059-.043-.103-.067-.126-.067-.081 0-.121.132-.121.403 0 .201.021.389.057.529-.141.055-.262.086-.339.086-.014 0-.063-.007-.145-.02l-.035-.003c-.028 0-.052.042-.052.092 0 .036.026.128.059.206l.095.227c.034.083.112.178.227.276.095.08.18.129.248.142l.342.067c.203.04.324.147.324.288 0 .137-.092.23-.296.301l-.408.143c-.106.036-.23.098-.371.18-.227.134-.265.152-.319.152-.082 0-.128-.061-.128-.168 0-.169.109-.288.266-.288.032 0 .065.007.095.019.047.019.079.029.098.029.043 0 .067-.025.067-.072l-.003-.042-.019-.161c-.016-.138-.105-.306-.304-.571l-.086-.114c-.077-.306-.266-.583-.512-.751-.062-.041-.097-.067-.105-.075-.008-.009-.033-.054-.076-.134-.019-.035-.083-.112-.19-.227-.08-.087-.16-.16-.238-.219-.105-.08-.17-.138-.19-.171l-.095-.162c-.017-.029-.046-.048-.076-.048-.084 0-.162.089-.209.238-.035.111-.065.143-.138.143-.036 0-.092-.009-.166-.029l-.133-.018h-.342c-.171 0-.412-.044-.522-.096-.044-.02-.078-.03-.099-.03-.024 0-.038.013-.063.059-.017.031-.021.045-.021.076 0 .173.124.5.287.76.104.164.136.203.257.304-.039.161-.143.287-.266.323l-.162.048c-.022.006-.038.025-.038.046 0 .049.077.117.219.191.185.098.372.152.521.152.158 0 .311-.062.486-.2.257-.201.326-.237.453-.237.203 0 .396.185.396.38 0 .13-.07.269-.251.504-.265.343-.344.52-.344.772 0 .156.048.355.107.444l.095.142c.021.031.032.063.032.092 0 .063-.073.109-.172.109-.151 0-.438-.107-.668-.248-.114-.07-.191-.152-.191-.202 0-.031.014-.058.039-.073l.105-.067c.012-.008.02-.023.02-.039 0-.015-.016-.045-.039-.075l-.19-.247c-.098-.128-.25-.286-.399-.418-.05-.044-.082-.076-.095-.095-.002-.002-.027-.05-.076-.143-.068-.127-.248-.311-.418-.427-.071-.048-.115-.083-.133-.105-.014-.016-.04-.061-.076-.133-.024-.047-.066-.114-.124-.199-.093-.138-.17-.237-.228-.295l-.266-.266c-.082-.082-.154-.241-.266-.589-.068-.21-.128-.333-.163-.333-.016 0-.043.021-.075.058-.188.215-.35.343-.435.343-.02 0-.056-.017-.106-.049-.069-.044-.157-.076-.257-.095l-.351-.066c-.265-.051-.37-.108-.523-.285-.036-.042-.066-.067-.082-.067-.03 0-.051.048-.051.111l.01.089.047.256c.051.274.114.478.19.618l.162.294c.031.057.047.11.047.155 0 .219-.226.418-.503.443-.07.007-.097.025-.097.063 0 .049.078.143.182.223.191.144.44.247.599.247.096 0 .245-.04.427-.114l.209-.086c.078-.032.15-.048.212-.048.221 0 .436.201.701.656.119.205.171.354.171.488 0 .24-.115.387-.302.387-.143 0-.298-.069-.411-.181-.096-.096-.146-.196-.146-.294l.003-.105.001-.024c0-.089-.029-.138-.083-.138-.089 0-.22.128-.592.58-.278.337-.34.481-.352.817-.322.412-.402.586-.402.878l.013.196c-.223.268-.286.414-.286.661 0 .089.014.142.067.251-.113.166-.149.241-.18.37l-.048.2c-.032.136-.083.253-.152.352-.086.122-.095.139-.095.181 0 .111.076.154.409.237-.013.092-.02.162-.02.21 0 .056.007.109.029.227l.067.351c.026.143.04.244.04.305 0 .066-.011.112-.069.303-.033.109-.062.182-.085.219-.031.048-.058.108-.058.13 0 .033.024.052.065.052.095 0 .344-.15.601-.363.545-.452.657-.632.732-1.178.005-.043.014-.106.028-.19.262-.193.399-.424.399-.673 0-.197-.072-.426-.19-.61l-.19-.294c-.056-.087-.086-.196-.086-.315 0-.179.052-.342.181-.569.145-.256.269-.361.423-.361.25 0 .471.436.471.931l-.001.067-.002.172c0 .095.007.191.021.312.017.148.027.24.029.276l.009.228.003.15c0 .053-.028.107-.098.182l-.209.228c-.302.33-.468.639-.468.872 0 .288.208.505.485.505.055 0 .105-.009.201-.037v.065c0 .418.086.728.202.728l.045-.014.171-.152.209-.133.057-.057c0 .118.007.13.124.266.029.033.073.093.133.18.049.071.08.118.095.143.015.024.031.053.048.085.025.049.05.072.079.072.026 0 .047-.035.082-.138.023-.066.037-.082.2-.228.057-.051.096-.093.114-.124.015-.026.041-.089.076-.189.006-.017.015-.043.028-.076.071.089.105.119.19.171l.143.085c.053.032.09.049.106.049.011 0 .029-.023.046-.058.015-.034.04-.081.076-.143.101-.176.134-.261.134-.344l-.001-.093v-.114c.311-.098.428-.26.428-.595 0-.243-.127-.52-.371-.811-.163-.195-.182-.233-.182-.369 0-.703.489-1.11 1.35-1.123l.637-.01c.409-.005.654-.046 1.036-.17.451-.147.583-.181.713-.181.044 0 .087.013.123.038.035.025.057.057.057.085 0 .133-.234.24-.998.457-1.567.444-2.233 1.074-2.233 2.113 0 .802.668 1.423 1.53 1.423.278 0 .705-.074.95-.163l.389-.143c.071-.026.141-.039.205-.039.132 0 .2.11.204.334.003.12.03.162.108.162.11 0 .279-.138.434-.352.156-.217.257-.461.257-.624 0-.216-.101-.366-.333-.498-.213-.324-.476-.475-.829-.475-.274 0-.664.156-1.309.523-.225.128-.34.171-.458.171-.168 0-.278-.098-.278-.248 0-.136.106-.225.385-.322.409-.143.511-.199.674-.371.484-.083.695-.167.998-.399.834-.264 1.351-.833 1.351-1.485 0-.634-.429-1.09-1.025-1.09-.142 0-.229.011-.45.058" fill="#323133" transform="translate(235.6175 81.1366)"/><path d="m0 0 .038-.143c.035-.128.059-.23.076-.304.12-.542.221-.685.485-.685.15 0 .276.084.313.21l.057.19c.013.044.046.069.091.069.103 0 .158-.114.166-.344.003-.089.022-.244.057-.466.025-.16.038-.307.038-.439 0-.097-.012-.154-.057-.273l.019-.114c.031-.189.04-.261.04-.349 0-.407-.021-.528-.116-.687.039-.156.05-.229.05-.341 0-.071-.01-.174-.031-.334l-.038-.285.009-.171c.025-.063.038-.101.038-.114 0-.026-.017-.048-.038-.048l-.19.077-.209.114c-.067.036-.114.073-.218.17-.183-.162-.21-.177-.428-.237-.315-.086-.431-.127-.494-.171-.061-.043-.107-.066-.131-.066-.074 0-.126.143-.126.352 0 .303.018.461.067.579-.185.063-.278.086-.346.086-.025 0-.04-.002-.138-.02l-.043-.003c-.028 0-.044.033-.044.09 0 .093.066.28.153.435.119.213.315.389.465.418l.342.067c.204.04.325.147.325.288 0 .137-.09.228-.296.301l-.399.143c-.134.048-.261.108-.38.18-.101.061-.17.103-.209.124-.035.019-.07.029-.104.029-.084 0-.135-.062-.135-.163 0-.161.125-.295.276-.295.034 0 .066.008.096.02.043.019.073.029.087.029.044 0 .075-.042.075-.101 0-.169-.106-.461-.219-.602l-.114-.143-.086-.114c-.031-.245-.271-.595-.513-.751-.057-.037-.093-.062-.104-.075-.008-.009-.033-.054-.076-.134-.02-.035-.083-.112-.19-.227-.08-.087-.16-.16-.238-.219-.106-.08-.17-.138-.19-.171l-.095-.162c-.019-.033-.043-.049-.074-.049-.085 0-.163.089-.211.239-.035.111-.065.143-.138.143-.036 0-.092-.009-.166-.029l-.133-.018h-.332c-.18 0-.421-.044-.532-.096-.044-.02-.077-.03-.099-.03-.048 0-.074.05-.074.145 0 .301.232.759.534 1.054-.045.175-.137.291-.257.323-.108.029-.165.045-.171.048-.017.009-.028.026-.028.045 0 .061.067.121.218.192.269.128.349.152.5.152.172 0 .317-.058.497-.2.258-.201.329-.238.453-.238.203 0 .397.186.397.38 0 .132-.072.278-.251.505-.253.323-.342.534-.342.808 0 .184.036.283.2.55.026.043.039.078.039.101 0 .053-.086.1-.182.1-.101 0-.228-.037-.399-.115-.286-.131-.456-.254-.456-.329 0-.029.018-.059.047-.079l.096-.067c.012-.009.02-.024.02-.039 0-.017-.018-.05-.039-.075-.019-.022-.083-.104-.191-.247-.133-.177-.259-.31-.398-.418-.05-.039-.083-.072-.096-.095l-.075-.143c-.064-.119-.251-.315-.409-.427-.072-.052-.116-.086-.133-.105-.019-.021-.048-.066-.085-.133-.098-.174-.251-.389-.352-.494l-.257-.266c-.073-.076-.176-.296-.275-.589-.078-.23-.128-.333-.164-.333-.015 0-.042.021-.073.058-.185.21-.35.342-.431.342-.021 0-.059-.016-.111-.048-.073-.044-.16-.076-.256-.095l-.343-.066c-.285-.056-.4-.117-.532-.285-.033-.042-.061-.067-.075-.067-.034 0-.059.049-.059.116l.011.084c.002.009.018.094.047.256.049.27.118.494.19.618l.171.294c.031.054.048.107.048.154 0 .219-.204.396-.513.444-.064.01-.096.034-.096.07 0 .044.074.128.191.216.201.152.424.247.581.247.106 0 .247-.037.436-.114l.208-.086c.078-.032.15-.048.212-.048.221 0 .436.201.7.656.12.206.171.353.171.489 0 .241-.111.386-.298.386-.148 0-.288-.063-.405-.181-.103-.105-.158-.209-.158-.302l.007-.097.003-.051c0-.077-.026-.111-.083-.111-.072 0-.155.07-.32.266-.068.082-.156.186-.266.314-.289.337-.349.473-.361.817-.322.412-.402.586-.402.878l.013.196c-.231.277-.276.384-.276.658 0 .123.007.155.057.254-.113.166-.15.241-.18.37l-.048.2c-.033.136-.082.252-.152.352-.085.122-.095.139-.095.176 0 .099.095.163.333.223l.076.019c-.013.092-.02.162-.02.21 0 .056.007.109.029.227l.066.351c.026.138.04.242.04.312 0 .082-.013.147-.058.296-.03.097-.062.171-.095.219-.037.053-.057.096-.057.125 0 .033.032.057.075.057.023 0 .063-.012.095-.03.322-.176.672-.453.922-.732.216-.239.284-.438.333-.969.291-.217.4-.413.4-.721 0-.184-.06-.36-.191-.562-.116-.178-.179-.276-.19-.294-.056-.095-.086-.207-.086-.322 0-.172.052-.333.181-.562.142-.252.269-.361.42-.361.249 0 .475.43.475.904l-.002.094v.256l.028.228.019.276.019.228.008.127c0 .094-.02.121-.312.433-.322.346-.475.637-.475.907 0 .256.22.47.483.47.056 0 .105-.009.201-.037v.114l.01.199.057.247c.045.198.066.234.134.234l.046-.015.172-.152.208-.133.057-.057c.014.119.025.143.124.266.05.062.094.122.133.18l.095.143.057.085c.038.058.054.072.079.072.026 0 .043-.033.073-.138.012-.043.042-.087.085-.123l.124-.105c.101-.085.167-.21.209-.389.075.094.112.127.19.171l.152.085c.056.032.091.048.1.048.01 0 .027-.022.043-.057.022-.05.047-.097.076-.143.123-.197.133-.225.133-.358v-.079-.114c.308-.085.428-.251.428-.592 0-.255-.117-.519-.362-.814-.162-.195-.19-.256-.19-.402 0-.671.505-1.077 1.359-1.09l.627-.01c.41-.005.659-.047 1.036-.17.44-.145.583-.181.716-.181.096 0 .177.054.177.118 0 .138-.23.245-.998.462-1.565.442-2.233 1.074-2.233 2.112 0 .803.67 1.424 1.537 1.424.273 0 .7-.074.943-.163l.39-.143c.07-.026.14-.039.204-.039.134 0 .184.083.204.334.009.112.044.162.116.162.1 0 .294-.157.435-.352.145-.2.247-.465.247-.638 0-.202-.106-.355-.332-.484-.213-.324-.476-.475-.829-.475-.27 0-.729.184-1.309.523-.228.133-.328.171-.454.171-.172 0-.282-.096-.282-.248 0-.136.102-.222.384-.322.45-.16.546-.213.675-.371.484-.083.695-.167.998-.399.867-.278 1.35-.814 1.35-1.499 0-.625-.424-1.076-1.012-1.076-.157 0-.239.01-.462.058" fill="#323133" transform="translate(253.3467 81.1366)"/><path d="m0 0c.083-.21.111-.312.123-.447l.019-.399c.015-.399.148-.598.399-.598.092 0 .167.024.21.066l.104.105.041.012c.067 0 .103-.043.103-.124l-.011-.154c-.008-.07.005-.217.038-.437.019-.129.029-.258.029-.384 0-.202-.015-.28-.086-.461.066-.188.104-.398.104-.574 0-.207-.034-.347-.113-.462.037-.164.047-.231.047-.323 0-.094-.013-.215-.038-.362-.034-.198-.047-.351-.038-.456l.001-.024c0-.059-.019-.09-.055-.09s-.079.028-.117.076c-.058.075-.096.102-.14.102-.065 0-.085-.035-.183-.32-.03-.088-.108-.207-.228-.352-.095-.113-.153-.207-.171-.275-.031-.114-.05-.181-.057-.2-.011-.026-.033-.044-.057-.047l-.013-.001c-.156 0-.335.335-.519.97-.052.179-.118.258-.215.258-.069 0-.139-.045-.165-.106l-.057-.133c-.01-.023-.03-.038-.05-.038-.076 0-.192.138-.264.313-.059.145-.093.303-.093.437 0 .298.22.52.882.894.288.162.399.368.399.74 0 .295-.088.464-.342.656-.2.152-.317.209-.424.209-.09 0-.16-.059-.16-.136 0-.088.051-.143.175-.187.147-.052.211-.103.211-.169 0-.06-.062-.19-.163-.344-.108-.164-.155-.212-.304-.313-.045-.262-.168-.43-.456-.618-.058-.164-.09-.222-.19-.352l-.2-.256c-.062-.08-.133-.225-.142-.295-.021-.145-.035-.171-.091-.171-.075 0-.23.134-.385.333-.091.118-.113.173-.123.314-.099-.078-.13-.089-.323-.115-.116-.015-.203-.037-.256-.066-.147-.077-.194-.098-.221-.098-.039 0-.052.021-.055.088l-.01.21c0 .287.113.622.286.845-.167.144-.333.232-.466.247-.056.006-.071.013-.071.034 0 .035.037.109.09.175.071.09.128.153.171.19.135.115.368.2.551.2.123 0 .305-.045.541-.133.085-.032.162-.048.227-.048.105 0 .164.068.164.188 0 .172-.085.443-.277.876-.129.295-.188.491-.188.628 0 .329.155.671.35.769-.092.046-.133.057-.212.057-.095 0-.17-.024-.292-.095-.141-.082-.219-.154-.219-.203 0-.018.029-.048.077-.082.074-.052.086-.071.086-.14 0-.235-.194-.549-.466-.753-.06-.333-.213-.534-.513-.675-.039-.18-.065-.233-.209-.437-.248-.349-.307-.458-.352-.655-.023-.102-.046-.145-.078-.145-.04 0-.124.063-.216.164-.08.086-.13.147-.152.18-.041.063-.062.124-.105.304-.068-.019-.087-.023-.135-.023l-.14.004-.094.003c-.209 0-.43-.048-.543-.117-.041-.025-.069-.038-.082-.038-.062 0-.111.129-.111.288 0 .344.095.627.317.938-.082.068-.109.093-.181.171-.031.034-.057.056-.076.067l-.104.057c-.036.019-.058.042-.058.062 0 .05.139.182.305.289.182.118.327.172.46.172.156 0 .238-.041.433-.21.134-.117.226-.172.292-.172.046 0 .096.032.135.086.032.044.049.093.049.142 0 .182-.217.489-.457.647-.179.118-.376.181-.567.181-.264 0-.492-.132-.592-.342l-.105-.219c-.025-.052-.055-.077-.09-.077-.062 0-.093.027-.309.276l-.247.285c-.076.088-.128.172-.152.247-.022.07-.039.112-.048.124s-.041.038-.095.076c-.19.135-.328.402-.408.789-.006.027-.015.069-.029.123-.232.285-.371.638-.371.945 0 .04.002.058.02.129-.135.137-.151.169-.257.532-.075.259-.124.369-.218.494-.025.032-.038.058-.038.074 0 .051.08.094.218.116.131.021.139.022.191.022l.189-.012-.011.26c0 .153.011.252.049.433.019.091.029.157.029.199 0 .016-.006.07-.019.162-.01.071-.019.119-.029.143-.013.035-.02.063-.02.081 0 .03.02.046.058.046.026 0 .065-.013.124-.042.166-.081.302-.164.408-.246.328-.257.585-.652.585-.896l-.005-.074c-.013-.085-.019-.132-.019-.14 0-.041.024-.096.067-.154l.104-.143c.093-.126.153-.274.153-.373 0-.089-.019-.127-.172-.349-.115-.166-.162-.29-.162-.425 0-.172.069-.387.191-.601.112-.198.241-.306.365-.306.213 0 .304.189.338.695.017.264.042.502.076.722l.009.13c0 .059-.017.094-.095.184l-.285.332c-.272.318-.354.482-.354.708 0 .262.172.443.421.443l.114-.011-.001.075c0 .06.015.147.048.258.06.204.135.361.174.361.013 0 .045-.016.092-.047.015-.01.073-.033.171-.067.054-.018.091-.038.19-.095.045.165.08.239.152.333.123.158.262.285.312.285.029 0 .085-.041.154-.114l.18-.19c.031-.032.066-.093.105-.181l.038-.085c.05.029.088.051.114.066.074.044.125.073.152.085.116.055.176.083.18.086.05.032.084.048.098.048.032 0 .05-.056.121-.371.048-.215.055-.261.067-.418.303-.043.446-.216.446-.542 0-.307-.15-.611-.475-.959-.088-.095-.11-.139-.11-.228 0-.84.293-1.105 1.345-1.216.647-.069.838-.11 1.615-.342.409-.123.643-.174.795-.174.179 0 .28.065.28.181 0 .176-.128.232-.885.392-1.76.37-2.451.972-2.451 2.132 0 .829.619 1.45 1.445 1.45.365 0 .691-.111 1.206-.409.478-.277.576-.323.686-.323.128 0 .178.082.178.288 0 .132.041.197.124.197.075 0 .191-.078.295-.2.157-.185.218-.335.218-.539 0-.344-.182-.569-.542-.668-.038-.042-.066-.073-.085-.094-.195-.221-.367-.295-.679-.295-.27 0-.61.111-.842.276l-.455.322c-.197.14-.341.2-.478.2-.195 0-.311-.117-.311-.312 0-.19.125-.346.333-.41l.427-.133c.152-.047.224-.077.409-.171.105.016.154.02.212.02.266 0 .553-.071.804-.2.08-.042.138-.067.171-.077l.238-.066c.539-.151.979-.755.979-1.344 0-.672-.435-1.089-1.139-1.089z" fill="#323133" transform="translate(235.7984 63.1979)"/><path d="m0 0c.165-.219.398-.362.589-.362.059 0 .162.015.256.039.052.012.094.019.127.019.046 0 .065-.017.065-.06 0-.033-.023-.114-.049-.178-.03-.072-.049-.129-.057-.171l-.038-.199-.095-.171-.133-.124-.038-.038v-.085-.043c0-.233-.069-.364-.257-.489-.015-.01-.037-.027-.066-.048l-.019-.076c-.042-.176-.074-.288-.095-.333-.024-.05-.085-.139-.18-.265-.116-.151-.19-.274-.238-.39-.039-.095-.069-.122-.131-.122-.094 0-.186.116-.202.255-.022-.029-.037-.048-.047-.057l-.114-.076-.181-.124c-.08-.054-.131-.092-.152-.114l-.104-.104c-.019-.019-.038-.029-.055-.029-.048 0-.097.082-.145.238l-.095.313c-.025.084-.038.188-.038.307 0 .158.011.213.067.34-.19-.021-.244-.031-.342-.067-.03-.011-.066-.019-.083-.019-.032 0-.051.021-.051.059 0 .021.018.086.038.141l.124.322c.096.251.405.478.651.478.059 0 .14-.016.243-.05.061-.02.111-.031.143-.031.111 0 .198.081.198.183 0 .049-.033.104-.076.124-.015.007-.13.042-.342.104-.159.047-.238.106-.418.314-.13.15-.181.193-.229.193-.036 0-.056-.023-.056-.067l.01-.126.003-.058c0-.265-.079-.516-.269-.864l-.267-.485c-.126-.229-.18-.404-.18-.579 0-.192.083-.361.19-.389l.143-.038c.017-.005.034-.015.047-.029.019-.019.029-.039.029-.055 0-.021-.017-.052-.048-.087-.016-.02-.073-.093-.171-.219-.165-.214-.267-.291-.466-.352-.114-.279-.301-.44-.636-.551l-.038-.066c-.114-.199-.364-.381-.525-.381l-.036.001c-.021-.175-.145-.355-.332-.485-.129-.09-.203-.144-.219-.161-.011-.013-.027-.042-.047-.086-.043-.094-.082-.133-.135-.133-.102 0-.186.095-.245.276-.039-.025-.067-.044-.086-.057-.107-.076-.167-.118-.18-.124-.043-.021-.155-.053-.333-.095-.233-.055-.434-.154-.484-.237l-.086-.143-.039-.016c-.046 0-.1.064-.123.149-.052.198-.086.402-.086.534 0 .337.112.557.458.901l-.002.082c0 .524.401.88.99.88l.094-.003.323-.019.031-.001c.174 0 .335.067.511.211.232.19.299.306.299.519 0 .067-.018.145-.09.383-.047.157-.071.304-.071.446 0 .392.289.88.679 1.15.101.07.176.161.176.216 0 .022-.012.039-.026.039-.025 0-.069-.026-.121-.074-.046-.042-.123-.09-.229-.143l-.151-.076-.172-.066c-.052-.021-.078-.049-.078-.086 0-.021.007-.05.021-.086.013-.031.02-.055.02-.069 0-.021-.017-.06-.048-.111l-.133-.218c-.13-.215-.224-.306-.39-.38-.106-.313-.259-.472-.484-.504-.179-.361-.337-.488-.656-.523-.044-.138-.12-.255-.285-.437-.067-.074-.109-.125-.123-.152-.074-.134-.08-.142-.115-.142-.044 0-.144.064-.218.142-.034.036-.063.075-.085.114l-.086.153c-.028.048-.056.07-.092.07l-.06-.004-.209-.028c-.131-.018-.318-.126-.38-.219l-.114-.171c-.012-.018-.029-.029-.046-.029-.085 0-.137.189-.137.499 0 .273.042.454.135.585l.267.37c.037.052.057.103.057.145 0 .041-.017.084-.048.121-.056.067-.11.108-.152.114l-.199.029c-.037.005-.051.013-.051.029 0 .017.012.04.032.065.065.083.146.154.237.21.235.144.39.201.549.201.16 0 .335-.058.496-.163l.276-.181c.039-.025.085-.039.132-.039.128 0 .224.076.314.248.087.166.126.3.126.44 0 .357-.256.615-.61.615-.165 0-.333-.065-.494-.19-.049-.039-.081-.074-.095-.105l-.076-.171c-.018-.041-.045-.067-.068-.067-.048 0-.156.138-.246.314-.047.093-.092.208-.133.342-.057.187-.081.327-.081.475l.014.257c-.129.202-.171.348-.171.588 0 .086.013.153.067.333-.08.133-.105.232-.105.424l.01.118.028.133.019.114c-.091.12-.118.2-.209.617-.05.236-.082.339-.123.4-.019.027-.028.047-.028.057 0 .055.132.105.283.105l.134-.011c-.032.089-.04.123-.04.193 0 .117.024.247.069.378.05.145.06.185.06.232 0 .113-.016.228-.041.29l-.076.19c-.017.043-.024.072-.024.098 0 .019.012.026.047.026.187 0 .542-.201.823-.465.277-.263.367-.475.367-.866l-.015-.208c.258-.226.371-.415.371-.618 0-.149-.048-.248-.191-.389-.256-.255-.314-.387-.314-.715 0-.505.15-.777.428-.777.246 0 .434.265.465.655l.029.362c.007.093.023.207.047.342.016.085.029.199.029.247 0 .129-.084.269-.333.56-.266.312-.357.499-.357.744 0 .291.202.505.476.505.068 0 .103-.009.185-.052.004.166.011.196.105.428.074.184.153.314.19.314.013 0 .033-.014.057-.038.041-.042.082-.077.124-.105.058-.041.089-.063.094-.067.021-.017.05-.045.086-.085.059.213.12.313.294.484.133.131.183.171.21.171.019 0 .044-.017.066-.047l.114-.152.161-.181c.062-.068.085-.127.115-.294l.095.057.152.086c.027.015.065.04.113.076.027.019.048.029.061.029.015 0 .033-.028.044-.067l.057-.219.124-.247c.036-.074.048-.131.048-.245l-.001-.059.064.002c.186 0 .348-.221.348-.477 0-.338-.269-.776-.621-1.007-.032-.115-.04-.161-.04-.253 0-.755.199-.914 1.361-1.087.29-.043.55-.097.778-.162.038-.01.288-.092.752-.247.257-.085.429-.123.562-.123.142 0 .22.04.22.115 0 .129-.19.247-.773.474l-.827.323c-.84.328-1.237.841-1.237 1.597 0 .879.66 1.539 1.541 1.539.332 0 .655-.068 1.121-.238.601-.219.631-.229.697-.229.115 0 .179.08.196.248.016.142.054.2.133.2.117 0 .243-.109.333-.286.079-.154.124-.334.124-.493 0-.314-.166-.519-.466-.58-.201-.263-.455-.393-.765-.393-.378 0-.566.074-1.211.478-.232.145-.33.181-.5.181-.227 0-.393-.141-.393-.332 0-.174.14-.288.456-.372.188-.049.216-.063.313-.161.077.018.111.023.158.023.309 0 .689-.166 1.011-.441.586-.181 1.106-.812 1.106-1.342 0-.587-.508-1.112-1.075-1.112-.153 0-.459.049-.734.117" fill="#323133" transform="translate(252.3304 63.3406)"/><path d="m0 0c-.026.114-.035.173-.035.23l.006.074.029.152.01.123c0 .132-.023.226-.067.286l-.114.152c-.038.05-.07.111-.095.18-.013.036-.019.063-.019.082 0 .042.026.068.068.068.026 0 .036-.004.122-.055.037-.021.069-.033.093-.033.056 0 .088.093.088.254 0 .183-.018.285-.058.331l-.142.161-.123.104c-.031.026-.051.059-.051.083 0 .042.032.07.078.07.043 0 .133-.021.21-.048l.043-.01c.039 0 .054.023.054.079l-.002.035-.028.2-.057.209c-.019.068-.029.078-.072.078l-.024-.002-.237-.048-.038-.003c-.311 0-.64.263-.741.593l-.19.617c-.059.191-.201.371-.456.58-.078.063-.144.099-.19.104l-.172.019c-.031.004-.051.022-.051.048 0 .039.036.057.118.057l.313-.029c.115-.01.287-.054.514-.133.284-.097.475-.14.637-.14.475 0 .759.258.759.688 0 .294-.153.626-.389.839-.133.121-.266.211-.313.211-.027 0-.049-.023-.049-.05l.01-.123.001-.011c0-.047-.028-.084-.065-.084-.048 0-.102.063-.164.191-.18.373-.465.596-.76.596-.05 0-.085-.021-.085-.051 0-.02.016-.066.047-.137l.076-.171c.02-.045.031-.075.031-.087s-.018-.022-.04-.022c-.044 0-.114.039-.162.09l-.142.152-.124.19c-.099.152-.179.221-.389.333-.118.062-.194.104-.228.123-.044.025-.085.038-.118.038-.034 0-.051-.016-.051-.049 0-.031.012-.067.036-.103.07-.109.098-.163.098-.19 0-.031-.022-.057-.05-.057-.073 0-.227.149-.362.352-.111.167-.171.354-.171.533 0 .409.298.711.702.711.207 0 .471-.087.714-.237l.446-.276c.155-.096.384-.171.519-.171.061 0 .186.022.279.047.042.012.08.028.114.048.027.015.045.037.045.053 0 .02-.01.037-.026.042l-.057.019-.209.039c-.054.009-.14.041-.256.094-.251.115-.41.194-.475.238-.156.102-.262.163-.314.18-.077.026-.125.061-.125.09 0 .028.015.043.042.043.028 0 .063-.013.102-.038.14-.087.261-.132.352-.132l.408-.143c.203-.071.499-.133.632-.133.173 0 .313.14.313.314 0 .111-.067.279-.166.417-.022.031-.045.049-.064.049-.038 0-.059-.027-.059-.077l.009-.076.015-.114c0-.123-.083-.219-.188-.219-.039 0-.089.009-.15.028l-.617.2c-.518.168-.757.219-1.017.219-.739-.001-1.302-.508-1.302-1.175 0-.757.531-1.244 1.844-1.695 1.291-.442 1.472-.551 1.472-.883 0-.191-.193-.361-.409-.361-.087 0-.164.006-.227.019-.044.009-.26.059-.646.152-.39.093-.745.133-1.183.133-.932 0-1.449-.163-1.896-.599-.111-.109-.149-.126-.278-.126l-.063.003-.134.01h-.017c-.112 0-.194-.053-.268-.172-.1-.161-.154-.247-.161-.256-.027-.036-.067-.057-.109-.057-.085 0-.137.064-.233.294-.047.112-.115.209-.2.285l-.19.172c-.03.027-.048.054-.048.072 0 .021.014.052.039.089.09.132.122.191.133.247.025.126.029.133.081.133.058 0 .075-.059.08-.276.001-.063.027-.15.076-.256l.105-.228c.013-.029.047-.048.086-.048.098 0 .223.231.256.475.027.204.049.267.092.267.017 0 .032-.007.041-.019.009-.014.038-.072.085-.172.025-.052.067-.101.124-.142.055-.04.093-.063.114-.067l.011-.001c.077 0 .104.05.122.23l.009.094-.019.133-.013.092c0 .062.021.099.056.099.021 0 .047-.014.071-.039l.096-.095c.062-.063.126-.095.188-.095.079 0 .127.032.127.084 0 .046-.018.091-.088.221l-.066.123c-.077.142-.137.2-.208.2l-.096-.01-.114-.048c-.035-.014-.06-.021-.074-.021-.017 0-.031.016-.031.038 0 .085.056.219.162.387.075.12.128.377.152.746.032.496.098.817.168.817.047 0 .065-.04.065-.145l-.005-.13-.003-.092c0-.088.019-.16.043-.16.081 0 .177.121.254.318.033.082.049.148.049.194l-.01.044-.19.351-.191.057c-.034.011-.058.026-.066.043v.128.105l-.019.113-.038.096-.047.105c-.208-.114-.307-.188-.381-.286-.074-.099-.116-.136-.153-.136-.025 0-.046.022-.046.049 0 .023.009.075.028.153l.007.055c0 .203-.125.405-.33.535l-.057-.076-.066-.095-.114-.133c-.036-.043-.069-.107-.095-.19-.013-.041-.02-.078-.02-.109l.001-.015.001-.035c0-.078-.009-.098-.044-.098l-.024.01-.066.095-.105.114-.161.104-.086.067c-.017-.038-.029-.066-.038-.085-.029-.066-.045-.118-.047-.153l-.01-.152-.009-.161.001-.028c0-.083-.02-.116-.071-.116-.017 0-.065.021-.111.048-.042.025-.09.039-.138.039-.147 0-.242-.102-.242-.262 0-.19.055-.372.153-.498l.123-.162c.033-.044.096-.08.099-.057l.024.2-.029.161-.006.073c0 .061.022.099.058.099.053 0 .085-.059.12-.219l.075-.352.076-.446c.021-.121.059-.248.115-.381.075-.179.129-.29.161-.332.105-.135.117-.154.117-.184 0-.023-.019-.044-.041-.044-.02 0-.05.01-.085.028-.033.017-.071.03-.114.039l-.075.01c-.152 0-.184-.131-.184-.765 0-.388.082-.912.183-1.164l.199-.504c.032-.08.048-.16.048-.236 0-.694-.919-1.781-1.929-2.282-.375-.187-.495-.365-.522-.779l-.01-.124c.153.079.216.105.323.133.283.074.337.109.38.247l.038.124c.014.046.038.063.257.18.074.041.127.083.151.124.049.079.088.122.114.122.023 0 .036-.01.036-.03l-.007-.035-.095-.271-.011-.067c0-.201.11-.365.315-.47.034.221.057.296.124.399l.171.266c.063.099.089.219.089.407 0 .106-.008.216-.023.296l-.007.076c0 .048.026.076.068.076.033 0 .059-.011.063-.028l.038-.181c.008-.038.047-.066.092-.066.092 0 .211.118.335.333.047.079.071.166.071.251l-.014.128-.028.143-.003.028c0 .061.035.105.084.105.022 0 .039-.008.042-.019l.057-.219c.019-.072.07-.123.123-.123.064 0 .174.109.238.237.057.114.086.243.086.389 0 .203.021.261.095.261.024 0 .043-.009.047-.023l.038-.123c.014-.045.042-.076.068-.076.04 0 .146.116.218.238.018.031.028.062.028.088 0 .041-.027.081-.086.13-.099.082-.105.095-.105.22 0 .118.02.181.105.331.046.081.087.157.124.228.12.235.162.295.207.295.036 0 .069-.039.069-.083 0-.025-.007-.051-.02-.079-.025-.052-.039-.091-.039-.113 0-.037.032-.067.071-.067.044 0 .102.019.168.056.026.015.114.05.266.105l.314.114c.051.019.116.029.19.029.058 0 .115-.006.171-.019.111-.026.184-.039.218-.039.086 0 .162.075.162.159 0 .063-.065.187-.153.289-.032.037-.048.066-.048.085l.011.038c.012.023.032.038.051.038.063 0 .214-.16.347-.371.819-1.288 1.112-1.6 1.663-1.767.56-.17.705-.3.705-.633 0-.181-.092-.393-.296-.678-.413-.579-.514-.813-.514-1.194l.001-.07c.047.02.082.036.104.048.078.039.129.062.153.066l.237.048c.071.014.135.105.135.194l-.002.024-.029.209-.002.028c0 .074.038.159.088.2.015.013.033.02.049.02.027 0 .059-.025.074-.058l.152-.323c.063-.132.136-.194.333-.285" fill="#e0b438" transform="translate(236.5584 76.9744)"/><path d="m0 0c-.069 0-.105-.059-.112-.19l-.019-.18c-.022-.169-.024-.186-.024-.23 0-.136.041-.236.096-.236.061 0 .156.115.204.247.029.08.042.151.042.223 0 .063-.015.138-.042.214-.035.097-.088.152-.145.152" fill="#e0b438" transform="translate(228.8984 83.8628)"/><path d="m0 0 .001-.083c0-.117-.028-.258-.124-.62-.018-.068-.029-.133-.029-.173 0-.064.024-.133.076-.217.031-.049.06-.082.086-.094l.114-.057.018-.134c-.004-.052.006-.123.029-.209.026-.094.039-.19.039-.284 0-.08-.006-.111-.024-.111-.036 0-.099.098-.157.243-.092.23-.174.315-.304.315-.104 0-.171-.018-.295-.078.029-.036.048-.061.057-.075.007-.012.036-.066.086-.162l.133-.256c.091-.178.146-.279.161-.304.035-.056.08-.101.133-.134.016-.009.067-.038.152-.085.046-.025.078-.061.078-.088 0-.042-.035-.074-.082-.074h-.006l-.123.02-.069.007c-.038 0-.055-.034-.055-.106 0-.257.205-.554.561-.814.043-.031.077-.076.077-.101 0-.032-.033-.061-.07-.061-.023 0-.078.018-.121.039-.027.013-.049.02-.066.02-.047 0-.077-.039-.077-.097 0-.067.054-.202.172-.426.077-.148.191-.259.323-.314l.427-.18c.023-.01.038-.033.038-.057 0-.035-.025-.064-.057-.067l-.085-.01-.076-.009-.124.009-.018.001c-.059 0-.084-.012-.084-.042 0-.048.053-.166.14-.311.102-.169.191-.266.245-.266.023 0 .045.019.059.048l.105.218c.018.039.104.105.247.191.091.055.181.09.266.104l.171.029c.045.007.068.039.068.09l-.002.024-.028.18-.019.2-.019.18-.019.209c-.002.054-.017.078-.047.078-.023 0-.062-.031-.086-.068-.149-.228-.253-.304-.412-.304-.507 0-.89.891-.89 2.069 0 .103.006.234.019.392.025.301.029.377.029.489 0 .511-.107.871-.324 1.088l-.133.133z" fill="#e0b438" transform="translate(228.0262 85.3452)"/><path d="m0 0c-.133.02-.195.034-.275.066-.023.009-.083.035-.181.076-.154.066-.268.096-.364.096-.143 0-.261-.048-.396-.162l.086-.066.19-.134.18-.142c.047-.037.102-.057.157-.057.185 0 .348.087.603.323" fill="#e0b438" transform="translate(229.2519 78.3998)"/><path d="m0 0c.052.118.077.151.19.247.266.228.389.397.389.532v.096.113c0 .122.021.162.084.162.029 0 .052-.011.059-.028l.047-.115c.012-.026.043-.043.08-.043s.091.043.139.11l.095.133c.048.067.069.123.069.185 0 .038-.008.075-.021.109-.008.019-.03.07-.067.152-.022.05-.039.115-.039.149 0 .062.032.099.085.099.029 0 .054-.011.068-.029l.076-.095c.017-.021.044-.033.072-.033.035 0 .075.033.099.08l.076.153c.02.038.03.068.03.085 0 .029-.031.06-.087.086l-.124.056c-.162.076-.285.338-.285.61 0 .036.007.072.02.103l.066.162c.019.046.029.097.029.152 0 .097-.032.198-.095.294-.077.117-.118.184-.124.2-.056.15-.085.192-.132.192l-.048-.012-.067-.038-.105-.057-.123-.152-.133-.066c-.08-.04-.155-.209-.155-.35 0-.246.028-.315.354-.876.127-.217.193-.405.193-.543 0-.39-.348-.667-1.048-.835l-.437-.104c-.321-.077-.512-.298-.579-.675.132.069.185.078.421.078l.14-.002h.021c.127 0 .144.009.226.124.093.131.185.21.313.265l.152.067.123.067.038.01c.034 0 .053-.014.053-.039 0-.037-.035-.099-.091-.161-.109-.122-.152-.225-.152-.368 0-.092.023-.146.105-.25" fill="#e0b438" transform="translate(232.9099 76.6703)"/><path d="m0 0c.109-.069.22-.168.285-.257.091-.124.104-.133.193-.133.039 0 .085.007.139.019l.086.019c.156.03.21.054.21.092 0 .023-.018.052-.049.079l-.104.095-.104.096c-.067.06-.2.105-.313.105-.115 0-.182-.022-.343-.115" fill="#e0b438" transform="translate(231.7129 78.1435)"/><path d="m0 0 .057.01.086.009.085-.009.042-.003c.212 0 .414.179.414.367 0 .065-.06.101-.168.101-.256 0-.416-.148-.516-.475" fill="#e0b438" transform="translate(234.7911 77.6303)"/><path d="m0 0c-.023.087-.03.128-.03.175l.011.129c.024.178.031.263.031.37 0 .07-.021.126-.069.191l-.114.152c-.074.099-.105.174-.105.259 0 .055.014.073.052.073l.043-.009c.005-.002.034-.019.086-.048.038-.021.071-.032.094-.032.058 0 .087.089.087.267 0 .247-.048.366-.19.478l-.134.104c-.023.019-.038.05-.038.078 0 .046.027.075.07.075.026 0 .064-.006.111-.019l.105-.029.04-.01c.032 0 .047.026.047.08l-.002.034-.029.2c-.029.208-.064.286-.125.286l-.017-.001-.247-.048-.042-.003c-.296 0-.646.281-.737.593l-.181.617c-.054.185-.214.388-.456.58-.079.062-.148.098-.199.104l-.171.019c-.031.004-.052.023-.052.047 0 .039.033.058.103.058.241 0 .499-.049.842-.162.313-.102.483-.14.635-.14.476 0 .762.249.762.66 0 .206-.074.464-.181.63-.092.143-.249.289-.447.418-.029.02-.056.03-.075.03-.027 0-.048-.022-.048-.049l.009-.124.001-.011c0-.046-.028-.084-.061-.084-.053 0-.107.062-.168.191-.174.371-.456.595-.747.595-.064 0-.1-.023-.1-.061 0-.03.017-.074.049-.126.031-.048.059-.106.086-.171.015-.037.023-.065.023-.081 0-.019-.015-.028-.043-.028-.043 0-.113.039-.161.09-.095.101-.142.152-.142.152l-.123.19c-.096.147-.202.24-.381.333l-.237.123c-.048.025-.09.038-.122.038-.03 0-.045-.014-.045-.042 0-.031.015-.069.043-.11.051-.074.088-.155.088-.189 0-.033-.021-.058-.047-.058-.067 0-.187.12-.354.352-.12.165-.181.346-.181.533 0 .401.307.711.705.711.203 0 .459-.085.711-.237l.456-.276c.163-.098.384-.171.522-.171.075 0 .097.004.267.047.05.014.091.029.123.048.021.012.035.035.035.056 0 .037-.023.054-.083.058-.211.016-.651.189-.94.371-.169.105-.273.166-.314.18-.078.027-.13.069-.13.101 0 .014.016.023.041.023l.056-.01.414-.151.399-.143c.195-.07.498-.133.638-.133.179 0 .305.125.305.305 0 .091-.023.194-.06.265-.058.113-.134.209-.165.209-.037 0-.058-.037-.058-.102l.004-.05.013-.122c0-.129-.071-.212-.18-.212-.043 0-.095.01-.156.029l-.617.2c-.536.174-.746.219-1.009.219-.747 0-1.31-.504-1.31-1.175 0-.758.52-1.233 1.853-1.695 1.295-.448 1.463-.551 1.463-.892 0-.196-.183-.352-.413-.352-.085 0-.16.006-.223.019-.056.011-.272.062-.646.152-.397.095-.733.133-1.182.133-.942 0-1.395-.144-1.887-.599-.114-.106-.16-.126-.287-.126l-.065.003-.149.01c-.114 0-.199-.055-.268-.172l-.153-.256c-.02-.036-.062-.057-.109-.057-.098 0-.151.065-.242.294-.049.122-.114.22-.19.285l-.2.172c-.03.025-.047.051-.047.069 0 .019.016.051.047.092.03.038.058.083.086.133.029.052.045.092.048.114l.009.085c.007.028.035.048.067.048.063 0 .075-.042.076-.276 0-.06.025-.148.075-.256l.104-.228c.014-.029.048-.048.087-.048.098 0 .223.231.256.475.027.203.049.267.091.267.039 0 .056-.024.137-.191.025-.051.064-.1.114-.142.046-.039.086-.062.114-.067h.01c.079 0 .105.048.123.229l.009.094-.018.133-.014.092c0 .062.022.099.057.099.021 0 .046-.014.071-.039l.094-.095c.064-.063.129-.096.192-.096.081 0 .131.036.131.094 0 .048-.01.071-.095.212-.007.013-.03.054-.066.123-.084.161-.123.2-.198.2l-.097-.01-.123-.048c-.037-.014-.062-.021-.075-.021-.017 0-.03.017-.03.038 0 .087.056.22.162.387.065.103.12.358.162.746l.047.447c.029.273.059.37.114.37.02 0 .036-.008.038-.019l.028-.142v-.114c0-.139.015-.252.033-.252.041 0 .099.048.157.128.042.057.074.121.096.19.031.102.047.185.047.249 0 .22-.092.314-.389.397-.03.009-.05.019-.058.029l-.009.085v.162l-.019.113-.038.096-.047.105-.077-.049c-.194-.121-.24-.157-.304-.237-.086-.109-.117-.135-.152-.135-.026 0-.047.017-.047.04l.038.161.003.029c0 .208-.117.41-.326.561l-.067-.076-.066-.095-.114-.133c-.067-.077-.106-.183-.106-.282l.002-.032v-.031c0-.075-.012-.101-.046-.101l-.021.009-.076.095-.095.114-.171.104-.086.067c-.091-.2-.095-.221-.095-.476v-.08c0-.086-.028-.138-.074-.138-.022 0-.062.016-.116.047-.043.025-.093.039-.141.039-.138 0-.24-.117-.24-.278 0-.174.038-.293.154-.482.074-.123.172-.224.218-.224.005 0 .017.089.028.205l-.028.161-.007.073c0 .061.022.099.057.099.054 0 .086-.059.121-.219l.076-.352.076-.446c.02-.121.059-.248.114-.381.074-.179.129-.29.161-.332.105-.135.117-.154.117-.184 0-.023-.019-.044-.041-.044-.02 0-.049.01-.085.028-.033.017-.071.03-.114.039l-.069.009c-.158 0-.189-.126-.189-.756 0-.395.081-.918.182-1.172l.199-.504c.032-.08.048-.16.048-.237 0-.695-.939-1.806-1.929-2.281-.385-.185-.499-.378-.532-.903.165.078.231.104.333.133.279.079.34.118.38.247l.038.124c.016.053.052.079.246.18.074.038.126.081.153.124.049.081.087.122.112.122.027 0 .043-.018.043-.049l-.004-.016-.104-.271-.012-.067c0-.199.112-.366.316-.47.013.051.023.088.029.114.033.145.065.242.095.285l.18.266c.066.097.078.16.078.405l-.012.298-.005.077c0 .049.023.076.066.076.034 0 .06-.012.063-.029l.028-.181c.007-.038.046-.066.094-.066.091 0 .209.117.335.333.047.082.068.148.068.227 0 .06-.014.192-.031.295l-.004.056c0 .047.028.077.073.077.023 0 .042-.008.046-.019l.066-.219c.022-.073.073-.123.125-.123.146 0 .296.298.312.617.01.201.035.272.096.272.023 0 .042-.01.046-.025l.038-.123c.014-.045.042-.076.068-.076.024 0 .073.042.132.114.034.041.062.082.085.124.019.033.029.067.029.1 0 .047-.01.061-.086.118-.069.053-.104.12-.104.2 0 .137.058.286.228.579.154.267.176.297.213.297.036 0 .063-.035.063-.08 0-.028-.007-.056-.019-.084-.026-.054-.039-.093-.039-.113 0-.037.033-.067.075-.067.046 0 .105.019.172.056.041.023.127.058.257.105.177.064.285.102.323.114.059.019.127.029.195.029.055 0 .111-.006.166-.019.109-.026.183-.039.219-.039.087 0 .154.066.154.151 0 .037-.027.11-.059.163-.049.08-.078.126-.086.134-.042.043-.058.067-.058.084l.01.039c.012.023.032.038.053.038.076 0 .223-.153.356-.371.746-1.216 1.105-1.601 1.653-1.767.571-.173.705-.294.705-.634 0-.181-.095-.399-.296-.677-.38-.527-.514-.836-.514-1.186l.001-.078c.047.02.081.036.104.048.078.039.129.062.152.066l.238.048c.074.015.134.104.134.199l-.001.019-.019.209-.002.033c0 .118.058.215.129.215.026 0 .057-.024.073-.058l.151-.323c.063-.132.135-.194.333-.285" fill="#e0b438" transform="translate(254.2874 76.9744)"/><path d="m0 0-.01-.152-.002-.093c0-.155.024-.221.082-.221.063 0 .161.118.206.247.027.081.049.193.049.258 0 .046-.012.088-.049.179-.044.104-.087.152-.14.152-.081 0-.12-.104-.136-.37" fill="#e0b438" transform="translate(246.4968 83.4927)"/><path d="m0 0 .001-.083c0-.087-.027-.247-.068-.402-.036-.135-.054-.208-.057-.218-.012-.055-.019-.113-.019-.173 0-.134.065-.259.162-.311l.104-.057.019-.134c-.004-.052.005-.123.029-.209.026-.095.039-.191.039-.285 0-.08-.007-.11-.025-.11-.035 0-.099.098-.156.243-.092.23-.174.315-.304.315-.104 0-.171-.018-.295-.078.099-.127.16-.235.276-.493.15-.337.209-.405.446-.523.052-.026.087-.061.087-.088 0-.045-.034-.074-.087-.074-.02 0-.082.009-.133.02l-.07.006c-.037 0-.054-.033-.054-.108 0-.252.215-.558.571-.811.047-.033.076-.07.076-.096 0-.015-.011-.032-.029-.046-.017-.013-.034-.02-.051-.02-.021 0-.064.016-.111.039-.027.014-.052.021-.07.021-.045 0-.075-.044-.075-.111 0-.087.065-.239.174-.413.101-.161.21-.271.313-.314l.428-.18c.023-.01.038-.032.038-.055 0-.033-.024-.062-.057-.069l-.076-.01-.086-.009-.113.009-.02.001c-.059 0-.083-.012-.083-.043 0-.046.044-.141.14-.31.105-.182.179-.266.235-.266.023 0 .046.019.06.048l.105.218c.014.03.099.096.247.191.089.057.18.093.265.104.228.031.248.041.248.136 0 .033-.01.096-.029.187-.01.048-.02.115-.029.2l-.018.18-.02.209c-.002.052-.017.079-.046.079-.02 0-.052-.029-.077-.069-.112-.182-.277-.304-.409-.304-.531 0-.892.846-.892 2.088l.009.373.028.446.005.159c0 .382-.133.777-.327.972l-.134.133z" fill="#e0b438" transform="translate(245.7556 85.3452)"/><path d="m0 0c-.199.034-.231.044-.455.142-.157.069-.257.096-.357.096-.15 0-.267-.047-.404-.162l.085-.066.191-.134.18-.142c.047-.037.103-.057.16-.057.186 0 .343.085.6.323" fill="#e0b438" transform="translate(246.9808 78.3998)"/><path d="m0 0c.052.118.077.151.19.247.265.228.389.397.389.532v.096.113c0 .122.021.162.084.162.028 0 .051-.011.059-.028l.047-.115c.011-.025.043-.042.081-.042.067 0 .116.05.233.242.049.082.069.134.069.187 0 .035-.007.071-.022.107-.007.018-.029.069-.066.152-.022.05-.04.115-.04.149 0 .062.032.099.086.099.028 0 .053-.011.068-.029l.076-.095c.017-.021.021-.033.05-.033.034 0 .097.033.121.08l.075.153c.02.038.03.068.03.086 0 .031-.03.065-.077.085l-.133.056c-.155.067-.285.335-.285.59 0 .028.01.07.029.123l.057.162c.019.053.028.106.028.158 0 .092-.029.182-.095.288s-.103.173-.114.2c-.055.141-.088.188-.135.188-.033 0-.065-.012-.121-.046l-.095-.057-.134-.152-.133-.066c-.079-.04-.155-.212-.155-.356 0-.206.045-.316.355-.87.131-.234.193-.409.193-.541 0-.387-.394-.705-1.038-.837-.77-.157-.938-.284-1.027-.779.133.069.186.078.421.078l.14-.002h.022c.126 0 .144.009.225.124.093.131.186.21.314.265l.152.067.123.067.038.01c.034 0 .053-.014.053-.04 0-.032-.031-.088-.091-.16-.092-.112-.145-.227-.145-.314 0-.127.02-.191.098-.304" fill="#e0b438" transform="translate(250.6394 76.6703)"/><path d="m0 0c.109-.069.22-.168.285-.257.091-.124.104-.133.194-.133.038 0 .084.007.139.019l.085.019c.162.032.211.054.211.098 0 .025-.015.052-.04.073l-.114.095-.104.096c-.065.058-.197.105-.3.105-.118 0-.214-.032-.356-.115" fill="#e0b438" transform="translate(249.4418 78.1435)"/><path d="m0 0 .057.01.095.009.076-.009.052-.003c.096 0 .146.011.185.04.06.045.12.118.181.219.025.041.038.078.038.108 0 .064-.059.101-.163.101-.261 0-.42-.146-.521-.475" fill="#e0b438" transform="translate(252.5202 77.6303)"/><path d="m0 0 .057.114.133.142c.113.122.173.292.173.492 0 .098-.017.204-.05.306-.024.077-.039.142-.039.169 0 .06.045.117.091.117.019 0 .045-.017.072-.048l.143-.161c.087-.1.117-.118.227-.143l.01.133.01.157c0 .226-.084.481-.21.641-.076.097-.11.156-.11.19 0 .035.025.067.052.067.009 0 .023-.007.04-.019.091-.068.138-.096.163-.096.046 0 .088.113.088.24 0 .18-.076.386-.194.53-.061.074-.099.121-.115.143-.012.017-.018.036-.018.054 0 .041.033.07.081.07.037 0 .059-.009.118-.048.029-.019.054-.029.073-.029.074 0 .101.105.101.388l-.003.116-.009.171c-.012.201-.029.237-.114.237h-.077c-.463 0-.678.293-.798 1.084-.086.571-.299.976-.56 1.064-.157.052-.213.086-.213.127 0 .028.044.054.091.054.034 0 .114-.022.179-.048.379-.154.698-.228.976-.228.456 0 .815.335.815.76 0 .325-.155.654-.432.921-.077.074-.159.122-.238.143l-.018.002-.049-.016.02-.138.038-.095.01-.04c0-.021-.019-.036-.045-.036-.028 0-.054.014-.07.038l-.171.256c-.135.204-.432.373-.653.373-.078 0-.127-.034-.127-.09 0-.027.025-.075.058-.111.049-.055.086-.121.086-.152l-.01-.038c-.01-.022-.024-.036-.038-.039h-.009c-.046 0-.069.021-.276.257-.17.193-.515.381-.7.381-.026 0-.052-.01-.07-.029-.012-.013-.019-.027-.019-.037 0-.029.024-.067.067-.106.059-.054.105-.118.105-.145 0-.019-.025-.036-.053-.036-.055 0-.177.078-.404.257-.354.279-.513.541-.513.846 0 .368.263.656.598.656.197 0 .459-.094.637-.229l.466-.352c.213-.16.474-.247.748-.247.059 0 .115.014.164.038.041.021.067.046.067.065 0 .011-.036.028-.086.04-.168.041-.304.099-.399.171l-.475.361c-.176.134-.3.22-.371.257-.251.131-.299.162-.299.192 0 .014.024.026.054.026.026 0 .054-.006.084-.019l.247-.104c.079-.034.213-.113.399-.238.508-.34.767-.449 1.066-.449.284 0 .494.202.494.476 0 .053-.015.113-.04.163l-.048.095c-.016.035-.047.06-.056.048l-.029-.038-.028-.2c-.002-.008-.011-.03-.029-.066-.019-.038-.041-.071-.066-.095-.052-.051-.096-.068-.175-.068-.146 0-.312.08-.756.363-.451.286-.857.436-1.179.436-.683 0-1.235-.551-1.235-1.233 0-.952.58-1.381 2.404-1.779.692-.15.998-.353.998-.662 0-.281-.228-.459-.589-.459-.109 0-.195.006-.257.019-.061.013-.387.101-.979.266-.407.114-.865.178-1.268.178-.715 0-1.197-.213-1.525-.671-.038-.055-.076-.087-.102-.087-.019 0-.047.013-.078.039l-.134.104c-.093.074-.242.13-.341.13-.071 0-.14-.028-.2-.083-.048-.042-.082-.066-.097-.066-.054 0-.151.12-.226.276-.106.222-.162.444-.162.646 0 .095.03.162.072.162.033 0 .057-.027.071-.076l.076-.276c.042-.154.128-.276.194-.276.029 0 .08.042.138.115.036.042.061.088.077.132.059.175.074.2.12.2.056 0 .084-.034.122-.209.007-.031.018-.08.061-.162.039-.072.078-.13.115-.171.028-.031.064-.049.098-.049.083 0 .16.14.16.292l-.002.042-.011.176c0 .069.011.089.049.089.023 0 .04-.012.066-.046.041-.052.096-.098.162-.133.058-.032.105-.048.136-.048.027 0 .06.018.092.048.025.024.039.051.039.074 0 .029-.033.072-.134.173-.054.055-.119.184-.19.38-.027.074-.062.124-.09.124-.007 0-.029-.007-.062-.019l-.123-.048-.086-.038-.032-.007c-.041 0-.074.029-.074.065 0 .038.087.14.192.227.075.062.12.156.123.256.006.16.035.286.067.286l.028.332c.014.167.082.481.143.655.011.034.026.057.037.057.027 0 .051-.07.051-.15l-.003-.049-.005-.096c0-.12.019-.182.057-.182.041 0 .087.059.129.164l.085.219c.025.064.038.124.038.176 0 .186-.111.319-.264.319l-.068-.011c-.037-.013-.06-.019-.068-.019-.05 0-.092.055-.092.119l.008.138-.01.19-.038.199-.01.095-.085-.047-.105-.086-.151-.123-.124-.105c-.022-.018-.047-.029-.07-.029-.073 0-.083.02-.083.168l.001.037c0 .12-.052.213-.247.442-.011.012-.026.031-.048.057l-.038-.067-.104-.171-.105-.266-.019-.171c-.005-.049-.024-.086-.043-.086-.02 0-.052.024-.09.067-.145.166-.191.197-.408.276l-.019-.067c-.034-.112-.054-.179-.057-.2l-.01-.18v-.075-.062c0-.052-.019-.083-.051-.083l-.006.002c-.004.001-.023.017-.057.047-.022.019-.062.03-.115.03-.177 0-.289-.096-.289-.249 0-.113.039-.198.214-.465.077-.117.167-.211.203-.211.023 0 .043.063.043.136l-.018.113c-.018.055-.027.104-.027.146 0 .053.016.083.044.083.086 0 .175-.247.211-.59l.038-.351c.014-.125.053-.254.114-.381.087-.177.172-.298.248-.351.09-.064.146-.127.146-.162 0-.03-.024-.057-.049-.057-.004 0-.069.023-.193.067l-.08.013c-.189 0-.253-.109-.253-.437 0-.394.266-.963.561-1.201l.437-.351c.222-.179.391-.474.391-.685 0-.278-.306-.551-.828-.741l-.313-.113c-.244-.089-.341-.246-.437-.704.124.039.178.049.262.049l.042-.001.142-.004c.127 0 .219.077.219.185v.085c0 .026.035.061.085.086.085.041.13.063.133.066l.105.085c.017.014.035.022.053.022.028 0 .052-.027.052-.059 0-.024-.007-.053-.02-.086-.032-.084-.05-.199-.05-.327 0-.233.037-.357.155-.528.011.063.02.104.028.123.02.048.074.134.162.257.144.201.25.446.25.578l-.003.04-.028.218c0 .04.017.078.047.105.02.018.044.028.065.028.04 0 .065-.024.097-.095.022-.052.049-.086.068-.086.033 0 .098.088.141.191.031.075.047.143.047.2 0 .035-.01.076-.028.123-.02.047-.031.084-.031.107 0 .025.008.038.04.064.015.012.032.019.048.019.018 0 .038-.007.057-.019l.085-.057c.029-.02.055-.03.076-.03.038 0 .092.043.133.106.083.126.135.231.135.27 0 .025-.016.044-.068.082-.189.132-.314.334-.314.507 0 .04.01.087.029.138l.094.257c.048.129.074.196.077.199l.027.011c.033 0 .052-.027.052-.073 0-.032-.008-.068-.022-.109-.024-.062-.04-.137-.04-.18 0-.068.034-.105.099-.105.047 0 .101.013.159.038.288.124.515.191.652.191.129 0 .21-.029.346-.124.035-.026.066-.039.087-.039.017 0 .037.015.055.039.012.016.019.033.019.046 0 .036-.02.08-.057.125-.049.06-.067.096-.067.134 0 .03.02.049.052.049.148 0 .382-.472.604-1.219.176-.59.225-.65.789-.969.477-.27.658-.537.658-.971 0-.427-.118-.973-.364-1.69-.077-.226-.112-.381-.112-.507 0-.1.02-.196.094-.452.034-.122.057-.195.066-.219.011-.028.037-.075.076-.142" fill="#e0b438" transform="translate(235.6367 57.5543)"/><path d="m0 0c.057.131.074.163.181.323.153.232.209.356.209.465v.152c0 .144.025.21.082.21.021 0 .04-.011.05-.029l.048-.076c.015-.024.041-.039.067-.039.029 0 .079.039.107.08.069.104.111.237.111.339l-.01.105-.009.108c0 .057.024.081.078.081.037 0 .053-.015.084-.085.02-.046.049-.076.072-.076.026 0 .056.022.08.058l.076.113.057.086.014.045c0 .026-.021.052-.071.088-.177.127-.253.322-.266.674-.01.268-.026.443-.048.522-.005.019-.062.155-.171.409-.042.1-.081.215-.114.342-.022.088-.05.115-.119.115-.258 0-.453-.221-.453-.512 0-.172.071-.442.202-.771.183-.461.231-.626.231-.789 0-.35-.139-.501-.621-.674-.544-.196-.799-.475-.893-.979.042.017.074.03.095.038.061.025.105.041.133.048l.152.038c.13.032.235.106.256.18l.039.133c.009.032.027.053.057.066l.085.039.086.038.019-.038-.039-.124c-.012-.041-.019-.116-.019-.222 0-.208.041-.33.162-.481" fill="#e0b438" transform="translate(233.4323 58.8844)"/><path d="m0 0c.013-.053.019-.088.019-.106 0-.031-.012-.112-.038-.246l-.017-.193c0-.17.03-.35.084-.5.048-.137.061-.181.061-.217l-.004-.04c-.008-.04-.023-.068-.037-.068-.018 0-.052.021-.096.058-.11.096-.228.144-.351.144-.04 0-.096-.007-.162-.02l.047-.105.143-.351.199-.304.209-.142c.021-.014.04-.034.057-.057.019-.026.029-.048.029-.063 0-.017-.017-.031-.038-.033l-.19-.009c-.03-.001-.053-.019-.053-.04 0-.032.028-.128.081-.283l.095-.276.162-.152.171-.123c.05-.036.08-.077.08-.109 0-.025-.015-.051-.033-.053l-.095-.009c-.031-.004-.048-.03-.048-.076 0-.072.066-.201.191-.371.146-.2.25-.266.418-.266h.142c.068 0 .11-.033.11-.087 0-.044-.029-.07-.091-.083-.132-.028-.171-.055-.171-.116 0-.024.016-.06.048-.103l.076-.104c.063-.088.134-.144.18-.144.026 0 .086.026.139.087.085.098.182.176.308.208.33.084.399.118.399.195 0 .027-.013.065-.038.109-.105.188-.142.31-.142.466-.001.117-.031.2-.074.2-.018 0-.048-.029-.078-.076-.079-.121-.212-.201-.333-.201-.329 0-.725.515-.922 1.198-.045.158-.07.338-.07.513 0 .179.025.379.07.58.063.278.098.434.105.465l.012.129c0 .236-.217.539-.554.774" fill="#e0b438" transform="translate(228.3301 67.6731)"/><path d="m0 0c-.07-.133-.134-.429-.134-.619 0-.11.036-.199.083-.199.016 0 .035.019.051.049l.105.19c.018.031.034.064.068.115.037.057.065.112.065.142 0 .112-.103.252-.238.322" fill="#e0b438" transform="translate(229.0142 66.3523)"/><path d="m0 0c.021-.021.037-.037.048-.047.041-.042.066-.067.076-.076.185-.192.212-.211.302-.211.082 0 .255.047.353.096.041.021.066.047.066.066 0 .012-.034.05-.094.106l-.105.095c-.079.071-.196.138-.252.138-.109 0-.221-.048-.394-.167" fill="#e0b438" transform="translate(230.0595 62.0673)"/><path d="m0 0c.102-.043.138-.061.19-.096.086-.056.136-.088.152-.094.029-.013.08-.019.15-.019.043 0 .083.006.116.019l.2.076.189.066c.052.018.087.048.087.073 0 .014-.044.035-.106.051-.042.01-.09.026-.142.047-.234.094-.268.108-.351.108-.186 0-.373-.09-.485-.231" fill="#e0b438" transform="translate(232.2639 60.3478)"/><path d="m0 0c.064.152.108.178.323.19.244.013.476.451.476.746 0 .03-.01.054-.022.054s-.035-.011-.064-.031c-.069-.044-.117-.074-.143-.085l-.276-.124c-.183-.082-.345-.326-.345-.52 0-.065.012-.12.051-.23" fill="#e0b438" transform="translate(234.6676 58.4379)"/><path d="m0 0 .038.105.038.133c.007.024.042.079.104.161.097.127.145.287.145.473 0 .058-.015.112-.049.183-.02.038-.03.068-.03.088 0 .012.007.029.02.045.012.016.026.026.038.029h.006c.024 0 .065-.028.098-.067.041-.048.076-.076.097-.076.043 0 .088.072.112.181.013.056.02.088.02.094 0 .046-.039.166-.086.267-.018.038-.027.07-.027.095 0 .036.022.061.052.061.027 0 .072-.028.127-.08.026-.025.051-.039.071-.039.06 0 .103.061.147.209.028.093.039.135.039.149 0 .028-.012.045-.034.045l-.033-.003-.113-.012c-.173 0-.418.118-.533.259l-.266.323c-.103.125-.246.313-.238.313l-.218.142c-.036.023-.057.053-.057.079 0 .035.036.059.09.059.05 0 .206-.056.49-.175.274-.116.704-.21.962-.21.455 0 .829.367.829.813 0 .243-.109.469-.376.783-.05.06-.136.117-.176.117-.03 0-.052-.024-.052-.055 0-.027.01-.064.028-.108.013-.031.02-.06.02-.088 0-.044-.017-.068-.046-.068-.06 0-.123.098-.173.269-.063.212-.187.339-.475.485-.111.056-.255.107-.302.107-.018 0-.031-.017-.031-.041 0-.036.014-.076.038-.114.042-.064.069-.126.076-.18l.001-.009c0-.037-.019-.058-.053-.058-.061 0-.075.016-.214.229-.071.109-.262.253-.427.322-.053.023-.108.035-.162.038l-.006.001c-.034 0-.06-.016-.06-.037 0-.008.015-.038.042-.087l.014-.054c0-.029-.019-.051-.044-.051-.057 0-.234.144-.373.305-.151.173-.248.395-.248.569 0 .362.347.686.736.686.098 0 .181-.017.243-.049l.332-.171.39-.257c.225-.147.532-.258.718-.258.069 0 .121.01.299.059.093.025.151.063.151.097l-.004.007-.033.02-.209.018c-.116.011-.38.13-.589.266l-.437.286-.389.161c-.03.012-.048.032-.048.05 0 .02.019.036.043.036.001 0 .038-.006.108-.019l.362-.105c.09-.026.237-.093.437-.199.397-.211.654-.304.845-.304.219 0 .381.151.381.356 0 .068-.016.181-.038.27-.011.045-.031.086-.057.124-.018.024-.035.038-.048.038-.027 0-.042-.029-.042-.078l.004-.065.004-.055c0-.175-.068-.237-.262-.237-.158 0-.37.063-.854.255-.452.179-.735.247-1.017.247-.715 0-1.342-.584-1.342-1.25 0-.575.382-1.014 1.162-1.335l.808-.332c.667-.275.913-.472.913-.731 0-.217-.201-.356-.516-.356-.135 0-.305.037-.615.136-.757.242-1.248.342-1.681.342-.705 0-1.207-.193-1.607-.617-.053-.056-.084-.073-.131-.073-.032 0-.064.013-.135.054-.073.043-.152.069-.21.069-.068 0-.176-.06-.227-.126l-.095-.124c-.028-.036-.059-.057-.084-.057-.069 0-.192.118-.268.257-.047.086-.079.169-.095.247-.012.061-.02.157-.02.26l.011.177.028.19c.014.091.023.145.028.162.008.023.026.038.047.038.049 0 .071-.046.071-.149l-.003-.06-.002-.043c0-.27.107-.518.225-.518.093 0 .174.165.243.494.013.067.04.105.072.105.038 0 .061-.049.089-.19.018-.093.078-.22.143-.304.037-.049.076-.077.108-.077.078 0 .128.117.167.39.015.106.047.172.083.172.015 0 .03-.007.04-.02.007-.008.029-.043.067-.105.024-.038.06-.071.104-.095.048-.024.086-.037.111-.037.03 0 .062.013.089.037.042.039.066.067.066.078 0 .015-.02.045-.057.084-.062.067-.11.156-.17.314-.041.104-.069.177-.086.218-.014.035-.031.059-.048.067l-.029.007-.056-.007c-.011-.004-.078-.022-.199-.057l-.062-.009c-.028 0-.045.018-.045.045 0 .025.034.071.078.106.24.192.383.512.437.979.033.283.069.39.19.561.026.035.047.057.059.057.037 0 .057-.03.057-.085 0-.036-.01-.082-.031-.134-.013-.036-.02-.076-.02-.116l.002-.036.018-.057.105.038.114.133c.067.079.124.257.124.389 0 .091-.022.154-.076.219-.06.071-.102.1-.144.1l-.066-.005-.067-.004c-.061 0-.091.017-.091.055l.016.072.01.105-.057.237-.048.115-.028.094-.067-.047-.143-.086c-.036-.021-.075-.056-.113-.104-.136-.164-.144-.171-.198-.171-.035 0-.054.013-.054.036l.005.04c.018.087.028.153.028.197 0 .166-.12.416-.266.554-.198-.19-.304-.4-.304-.599v-.114c0-.044-.015-.067-.044-.067l-.004.001c-.023.004-.046.021-.066.047l-.115.152c-.007.011-.058.052-.152.124-.017.014-.042.036-.075.066l-.038-.076c-.094-.188-.127-.301-.134-.456-.004-.127-.014-.164-.044-.164-.014 0-.035.007-.06.022-.144.081-.157.086-.22.086-.17 0-.287-.122-.287-.302 0-.071.039-.176.118-.316.086-.155.218-.298.274-.298.017 0 .021.012.021.059l-.001.02-.009.162-.019.123-.002.016c0 .037.014.054.043.054.087 0 .161-.252.225-.754.056-.442.178-.746.37-.922.049-.045.077-.082.077-.103 0-.017-.016-.03-.037-.03-.028 0-.072.017-.125.048-.034.019-.07.029-.103.029-.095 0-.202-.11-.221-.229l-.085-.541-.066-.76c-.013-.145.006-.337.057-.571.044-.205.066-.355.066-.45 0-.569-.355-1.019-.94-1.193l-.609-.18c-.379-.113-.565-.363-.617-.827.097.078.127.09.276.114l.18.028c.075.012.131.028.161.048.017.01.053.045.105.104l.162.181c.061.068.115.107.149.107.023 0 .041-.025.041-.055 0-.035-.023-.09-.067-.157-.045-.07-.069-.155-.069-.245 0-.12.032-.197.154-.372.016.057.029.095.039.114.015.031.063.097.142.199.132.17.227.349.228.428.003.147.016.195.053.195.032 0 .037-.008.052-.091.003-.02.013-.04.028-.057.022-.024.044-.038.058-.038.012 0 .038.013.075.038.066.044.117.089.152.134.039.048.071.106.096.17.031.083.047.144.047.18l-.001.123c0 .032.014.058.032.058.023 0 .07-.049.101-.104.022-.038.035-.048.061-.048h.007c.033.004.063.017.085.039.116.112.19.251.19.355l-.01.177-.038.142-.002.013c0 .029.022.054.047.054.043 0 .09-.061.154-.2.031-.066.059-.096.087-.096.046 0 .081.033.17.163l.086.123c.019.027.028.06.028.095 0 .034-.009.067-.028.095l-.076.114c-.013.019-.02.052-.02.096 0 .128.048.274.143.445.07.125.111.204.124.238.014.04.031.058.052.058.017 0 .033-.024.033-.049l-.009-.104v-.076-.076c.013-.035.037-.048.082-.048.029 0 .063.007.099.02l.237.085c.057.021.13.055.218.105.372.206.488.248.671.248.11 0 .25-.041.451-.134.04-.02.074-.029.098-.029.027 0 .057.017.082.048.018.022.029.047.029.071 0 .036-.013.077-.038.119-.032.052-.058.118-.058.141 0 .026.017.042.043.042.022 0 .054-.023.072-.05.028-.046.101-.172.218-.38.177-.315.408-.534.608-.58l.418-.095c.129-.029.163-.079.163-.242 0-.294-.14-.554-.381-.708l-.342-.219c-.125-.079-.228-.298-.228-.48 0-.117.028-.324.066-.489l.067.066.161.096.143.142.076.209.076.19c.037.093.08.153.11.153.033 0 .052-.052.052-.145l-.001-.027-.001-.035c0-.137.019-.197.125-.402" fill="#e0b438" transform="translate(251.9884 60.7084)"/><path d="m0 0c.115.107.135.115.456.181.261.053.382.171.438.427.041.189.067.224.237.323.055.032.096.064.123.095.021.024.039.038.048.038.018 0 .033-.018.033-.042 0-.033-.021-.088-.061-.158-.027-.045-.039-.102-.039-.181 0-.152.031-.256.114-.379.058.127.09.162.238.266.189.132.26.286.294.627.015.145.043.22.082.22.018 0 .034-.011.042-.03l.067-.142c.009-.019.032-.031.059-.031s.077.028.121.069l.133.123c.056.053.094.184.114.4.007.078.035.133.066.133.02 0 .04-.02.048-.048l.057-.19c.014-.045.041-.076.068-.076.012 0 .039.016.075.047.051.044.096.092.133.143.043.059.066.126.066.19v.161c0 .036.014.072.038.105.019.024.034.038.042.038.021 0 .043-.019.053-.048l.038-.104c.017-.046.052-.076.089-.076.051 0 .101.043.177.152.022.031.041.056.057.076.043.052.067.094.067.12 0 .013-.013.038-.038.07-.139.18-.21.397-.21.645 0 .316.121.582.485 1.074.218.295.343.571.343.762 0 .055-.026.082-.076.082-.033 0-.068-.011-.115-.036-.035-.019-.06-.029-.072-.029-.017 0-.04.014-.061.039l-.066.076-.048.076c-.019.029-.048.048-.078.048-.006 0-.03-.007-.074-.02l-.085-.009c-.099-.004-.136-.04-.136-.133l.003-.058.001-.041c0-.084-.073-.212-.172-.301l-.181-.161c-.222-.199-.395-.517-.395-.727 0-.091.029-.237.082-.413.085-.284.115-.419.115-.511 0-.457-.697-1.057-1.987-1.712-.655-.333-.819-.53-.819-.981z" fill="#e0b438" transform="translate(246.3727 57.8298)"/><path d="m0 0v-.095l.002-.14c0-.051-.005-.086-.02-.154-.031-.133-.039-.178-.039-.215 0-.183.026-.271.133-.46.059-.103.097-.229.097-.319 0-.038-.015-.061-.041-.061-.016 0-.033.01-.046.028l-.076.105c-.061.083-.118.106-.272.106l-.165-.011c.066-.163.087-.224.114-.333.076-.31.088-.332.256-.484.17-.153.186-.173.186-.227 0-.044-.029-.077-.066-.077l-.063.009-.037.004c-.052 0-.099-.094-.099-.201 0-.06.025-.158.061-.239.023-.056.046-.095.066-.115l.095-.095c.024-.024.038-.059.038-.097 0-.046-.026-.085-.058-.085-.019 0-.048.011-.084.03-.024.013-.047.019-.067.019-.043 0-.064-.025-.064-.077l.016-.141.058-.247c.012-.055.048-.117.104-.181.048-.055.097-.094.143-.114.119-.052.183-.081.189-.085.018-.013.029-.042.029-.076 0-.037-.029-.067-.063-.067-.011 0-.044.006-.098.019l-.097.009c-.097 0-.103-.005-.103-.08 0-.047.006-.097.019-.147l.038-.152c.04-.16.092-.247.149-.247.013 0 .037.013.069.038.137.105.414.199.587.199.178 0 .383-.021.458-.047.044-.015.075-.023.092-.023.023 0 .031.023.032.108l.019.171.038.295.028.218v.124c-.034-.03-.059-.051-.076-.067-.162-.152-.264-.199-.43-.199-.438 0-.688.49-.688 1.348 0 .353.052.853.149 1.426.021.121.031.205.031.264 0 .312-.199.618-.544.838" fill="#e0b438" transform="translate(245.7457 67.7963)"/><path d="m0 0 .086.086.085.076c.07.062.128.194.128.291 0 .045-.01.087-.033.136-.033.071-.096.135-.134.135-.033 0-.062-.079-.075-.202l-.019-.142-.029-.142-.009-.143z" fill="#e0b438" transform="translate(246.3919 65.6682)"/><path d="m0 0c.097-.036.118-.053.219-.171.131-.153.204-.19.379-.19.047 0 .092.006.134.019l.123.038.095.028c.046.014.077.034.077.049 0 .02-.076.083-.191.161-.076.051-.152.095-.228.133-.082.04-.15.059-.217.059-.135 0-.263-.042-.391-.126" fill="#e0b438" transform="translate(245.5558 61.7822)"/><path d="m0 0c.168.074.227.103.418.209.167.092.258.143.276.152.175.093.256.159.256.208 0 .062-.107.099-.29.099-.368 0-.67-.253-.67-.559z" fill="#e0b438" transform="translate(246.848 58.9985)"/><path d="m0 0c.134.028.18.063.247.066l.171-.009c.021.008.059.033.114.076.03.023.075.055.133.095.19.13.2.138.2.179 0 .053-.077.079-.237.079-.299 0-.482-.141-.628-.486" fill="#e0b438" transform="translate(250.7055 61.4117)"/><g fill="#323133"><path d="m0 0-.048.133-.013.077c0 .077.039.12.146.161.188.071.248.102.324.171l.104.095.01.003c.027 0 .048-.031.048-.071 0-.121-.13-.343-.264-.572-.099-.167-.144-.272-.185-.272-.046 0-.093.072-.103.161z" transform="translate(231.2281 84.3093)"/><path d="m0 0 .161-.085c.044-.024.068-.056.068-.092l-.011-.06c-.023-.08-.005-.169-.006-.203-.008-.17-.137-.168-.189-.168-.031 0-.015.02-.09.105l-.209.237c-.065.074-.12.24-.142.428l-.002.024c0 .051.017.072.058.072.026 0 .072-.022.105-.049z" transform="translate(230.6678 84.6893)"/><path d="m0 0-.079.164-.013.076c0 .082.035.118.156.162s.252.115.313.171l.105.095.01.003c.026 0 .047-.031.047-.071 0-.121-.132-.312-.267-.54-.098-.167-.14-.304-.181-.304-.047 0-.093.072-.103.161z" transform="translate(248.9888 84.2783)"/><path d="m0 0 .162-.085c.045-.025.071-.065.071-.111l-.005-.041-.047-.171-.029-.191c-.004-.022-.025-.039-.05-.039l-.007.001c-.04.013-.141.056-.207.131l-.164.24c-.021.025-.057.116-.104.266-.017.055-.03.109-.038.162l-.002.027c0 .047.018.069.058.069.025 0 .073-.022.105-.049z" transform="translate(248.3969 84.6893)"/><path d="m0 0-.048.142-.01.043c0 .013.018.025.04.025.022 0 .073-.026.113-.058.042-.033.068-.03.133-.047.259-.068.313-.115.313-.24l-.009-.159-.038-.143c-.017-.061-.032-.082-.061-.082-.058 0-.147.064-.205.148l-.095.133z" transform="translate(230.4303 66.9319)"/><path d="m0 0-.124-.199c-.03-.034-.046-.052-.047-.053l-.009-.002c-.051 0-.103.116-.105.235l-.019.19c.015.078.061.113.18.133.096.017.161.036.19.057.091.065.142.1.153.104l.015.004c.026 0 .044-.018.044-.047l-.003-.014-.066-.161z" transform="translate(231.5798 66.6753)"/><path d="m0 0 .133-.086c.076-.048.139-.083.19-.104.147-.06.2-.102.2-.158 0-.021-.006-.051-.019-.089-.014-.042-.024-.087-.029-.133-.013-.129-.091-.161-.143-.161-.064 0-.132.098-.237.284-.047.085-.115.254-.152.381l-.005.036c0 .024.014.036.04.036z" transform="translate(247.8359 67.1978)"/><path d="m0 0-.218-.2c-.077-.102-.077-.191-.095-.209-.015-.014-.038-.023-.067-.028l-.014-.002c-.056 0-.097.04-.1.097l-.009.161-.01.162v.009c0 .063.034.095.084.106l.201.056.209.104c.061.031.08.038.09.038.025 0 .045-.024.045-.054 0-.014-.007-.034-.02-.06z" transform="translate(249.1185 66.8466)"/><path d="m0 0-.088.02-.153-.095-.199-.009-.052-.002-.11.011c-.002.001-.04.023-.114.067-.043.025-.09.038-.136.038-.085 0-.141-.047-.141-.12 0-.078.038-.207.125-.422l.124-.304c.108-.267.214-.38.353-.38.125 0 .142.122.226.332.19.477.295.548.295.718 0 .115-.025.146-.13.146m-.231-.617-.019-.208c-.011-.118-.068-.182-.161-.182-.082 0-.122.043-.143.153l-.038.199-.048.229.019.047c.011.018.03.028.048.028h.123l.152.029.009.001c.017 0 .034-.007.048-.02.019-.017.029-.038.029-.058 0-.006-.007-.078-.019-.218" transform="translate(231.4783 83.7762)"/><path d="m0 0-.055-.012-.142-.095-.209-.01-.051-.001-.111.011c-.004.001-.042.024-.114.067-.043.025-.089.038-.134.038-.087 0-.14-.055-.14-.146 0-.071.043-.21.122-.396.034-.08.075-.181.124-.304.104-.265.212-.38.356-.38.123 0 .222.1.299.303l.105.428c.05.133.155.19.155.283 0 .109-.101.214-.205.214m-.197-.649-.02-.209c-.01-.117-.09-.181-.183-.181-.082 0-.1.043-.121.153l-.037.199-.048.228c0 .004.01.021.029.048.012.018.03.028.047.028h.114l.152.029.009.001c.017 0 .034-.008.048-.02.018-.017.029-.038.029-.059 0-.005-.007-.077-.019-.217" transform="translate(249.1737 83.8085)"/><path d="m0 0c-.021 0-.046-.007-.072-.02l-.152-.076c-.051-.025-.107-.039-.167-.039-.083 0-.167.027-.242.076l-.085.058c-.029.019-.068.03-.109.03-.101 0-.154-.064-.154-.184 0-.077.028-.179.073-.264.188-.363.382-.58.518-.58.098 0 .192.154.318.38.116.21.201.335.201.443 0 .101-.055.176-.129.176m-.243-.41-.029-.143c-.031-.189-.075-.305-.136-.305-.028 0-.055.015-.073.04-.098.137-.173.315-.173.411 0 .069.031.103.09.103l.017-.001.104-.019.114.019.023.001c.048 0 .065-.02.065-.079z" transform="translate(231.557 66.1444)"/><path d="m0 0c-.021 0-.046-.007-.074-.02l-.124-.057c-.081-.037-.167-.06-.224-.06-.048 0-.092.011-.127.032l-.143.085c-.041.026-.08.039-.11.039-.075 0-.128-.07-.128-.171 0-.117.05-.263.172-.504.168-.335.222-.399.336-.399.068 0 .122.043.205.161l.105.219c.146.209.248.354.248.494 0 .101-.06.181-.136.181m-.236-.533c-.035-.202-.097-.334-.185-.334-.065 0-.134.081-.138.163l-.009.181-.002.043c0 .121.024.168.082.168l.043-.002h.067l.05.002c.09 0 .114-.019.114-.089 0-.026-.006-.041-.022-.132" transform="translate(248.8511 66.2198)"/><path d="m0 0 .067-.086.066-.076c.045-.051.073-.082.085-.094.019-.019.047-.044.086-.077l-.047-.037-.086-.086-.085-.075-.029-.039v-.082c0-.766.256-1.434.627-1.638.058-.032.082-.056.082-.083l-.006-.012-.076-.019h-.086c-.111 0-.308.035-.437.076l-.094-.684h-.133l-.095.684c-.135-.043-.329-.076-.438-.076h-.085c-.056 0-.08.01-.08.033 0 .028.024.052.08.081.365.19.627.874.627 1.638v.082l-.028.039-.086.075-.085.086-.048.037c.039.033.068.058.086.077.012.012.041.043.085.094l.067.076z" transform="translate(239.3088 85.5556)"/><path d="m0 0 .067-.086.066-.076c.045-.051.073-.082.085-.094.019-.019.047-.044.086-.077l-.047-.037-.086-.086-.085-.075-.029-.039v-.082c0-.766.256-1.434.627-1.638.058-.032.082-.056.082-.083l-.006-.012-.076-.019h-.085c-.112 0-.309.035-.437.076l-.095-.684h-.133l-.095.684c-.134-.043-.329-.076-.438-.076h-.085c-.056 0-.08.01-.08.033 0 .028.024.052.08.081.365.19.628.874.628 1.638l-.001.082-.028.039-.086.075-.085.086-.048.037c.039.033.068.058.086.077.012.012.041.043.085.094l.067.076z" transform="translate(242.7389 85.5556)"/><path d="m0 0 .067-.085.066-.076c.045-.051.073-.083.085-.095.019-.018.047-.043.086-.076l-.047-.038-.086-.086-.085-.075-.029-.039v-.082c0-.765.256-1.434.627-1.637.058-.032.082-.057.082-.083l-.006-.012-.076-.02h-.086c-.111 0-.308.035-.437.077l-.094-.685h-.133l-.095.685c-.135-.044-.329-.077-.438-.077h-.085c-.056 0-.08.01-.08.033 0 .028.024.052.08.082.365.189.627.874.627 1.637v.082l-.028.039-.086.075-.085.086-.048.038c.039.033.068.058.086.076.012.012.041.044.085.095l.067.076z" transform="translate(239.3088 79.6032)"/><path d="m0 0 .067-.085.066-.076c.045-.051.073-.083.085-.095.019-.018.047-.043.086-.076l-.047-.038-.086-.086-.085-.075-.029-.039v-.082c0-.765.256-1.434.627-1.637.058-.032.082-.057.082-.083l-.006-.012-.076-.02h-.085c-.112 0-.309.035-.437.077l-.095-.685h-.133l-.095.685c-.134-.044-.329-.077-.438-.077h-.085c-.056 0-.08.01-.08.033 0 .028.024.052.08.082.365.189.628.874.628 1.637l-.001.082-.028.039-.086.075-.085.086-.048.038c.039.033.068.058.086.076.012.012.041.044.085.095l.067.076z" transform="translate(242.7389 79.6032)"/><path d="m0 0 .067-.085.066-.076c.045-.051.073-.083.085-.095.019-.018.047-.043.086-.076l-.047-.038-.086-.086-.085-.075-.029-.039v-.082c0-.765.256-1.434.627-1.637.057-.032.082-.057.082-.083l-.006-.013-.076-.019h-.085c-.112 0-.309.035-.438.076l-.094-.684h-.133l-.095.684c-.135-.043-.329-.076-.438-.076h-.085c-.056 0-.08.01-.08.033 0 .028.024.052.08.082.365.189.627.874.627 1.637v.082l-.029.039-.085.075-.085.086-.048.038c.039.033.068.058.086.076.012.012.041.044.085.095l.067.076z" transform="translate(241.024 82.5718)"/><path d="m0 0 .067-.085.066-.076c.045-.051.073-.083.085-.095.019-.018.047-.043.086-.076l-.047-.038-.086-.086-.085-.075-.029-.039v-.082c0-.765.256-1.434.627-1.637.058-.032.082-.057.082-.083l-.006-.013-.076-.019h-.086c-.111 0-.308.035-.437.076l-.094-.684h-.133l-.095.684c-.135-.043-.329-.076-.438-.076h-.085c-.056 0-.08.01-.08.033 0 .028.024.052.08.082.365.189.627.874.627 1.637v.082l-.028.039-.086.075-.085.086-.048.038c.039.033.068.058.086.076.012.012.041.044.085.095l.067.076z" transform="translate(239.3088 65.1215)"/><path d="m0 0 .067-.085.066-.076c.045-.051.073-.083.085-.095.019-.018.047-.043.086-.076l-.047-.038-.086-.086-.085-.075-.029-.039v-.082c0-.765.256-1.434.627-1.637.058-.032.082-.057.082-.083l-.006-.013-.076-.019h-.085c-.112 0-.309.035-.437.076l-.095-.684h-.133l-.095.684c-.134-.043-.329-.076-.438-.076h-.085c-.056 0-.08.01-.08.033 0 .028.024.052.08.082.365.189.628.874.628 1.637l-.001.082-.028.039-.086.075-.085.086-.048.038c.039.033.068.058.086.076.012.012.041.044.085.095l.067.076z" transform="translate(242.7389 65.1215)"/><path d="m0 0 .067-.085.066-.076c.045-.051.073-.083.085-.095.019-.018.047-.043.086-.076l-.047-.038-.086-.086-.085-.075-.029-.039v-.082c0-.765.256-1.434.627-1.637.058-.032.082-.057.082-.083l-.006-.013-.076-.019h-.086c-.111 0-.308.035-.437.076l-.094-.684h-.133l-.095.684c-.135-.043-.329-.076-.438-.076h-.085c-.056 0-.08.01-.08.033 0 .028.024.052.08.082.365.189.627.874.627 1.637v.082l-.028.039-.086.075-.085.086-.048.038c.039.033.068.058.086.076.012.012.041.044.085.095l.067.076z" transform="translate(239.3088 58.8766)"/><path d="m0 0 .067-.085.066-.076c.045-.051.073-.083.085-.095.019-.018.047-.043.086-.076l-.047-.038-.086-.086-.085-.075-.029-.039v-.082c0-.765.256-1.434.627-1.637.058-.032.082-.057.082-.083l-.006-.013-.076-.019h-.085c-.112 0-.309.035-.437.076l-.095-.684h-.133l-.095.684c-.134-.043-.329-.076-.438-.076h-.085c-.056 0-.08.01-.08.033 0 .028.024.052.08.082.365.189.628.874.628 1.637l-.001.082-.028.039-.086.075-.085.086-.048.038c.039.033.068.058.086.076.012.012.041.044.085.095l.067.076z" transform="translate(242.7389 58.8766)"/><path d="m0 0 .067-.085.066-.076c.045-.051.073-.083.085-.095.019-.018.047-.043.086-.076l-.047-.038-.086-.086-.085-.075-.029-.039v-.082c0-.765.256-1.434.627-1.637.057-.032.082-.057.082-.083l-.006-.013-.076-.019h-.085c-.112 0-.309.035-.438.076l-.094-.684h-.133l-.095.684c-.135-.043-.329-.076-.438-.076h-.085c-.056 0-.08.01-.08.033 0 .028.024.052.08.082.365.189.627.874.627 1.637v.082l-.029.039-.085.075-.085.086-.048.038c.039.033.068.058.086.076.012.012.041.044.085.095l.067.076z" transform="translate(241.024 62.0239)"/><path d="m0 0 .067-.085.066-.076c.045-.051.073-.083.085-.095.019-.018.047-.043.086-.076l-.047-.038-.086-.086-.085-.075-.029-.039v-.082c0-.765.256-1.434.627-1.637.057-.032.082-.057.082-.083l-.006-.013-.076-.019h-.085c-.112 0-.309.035-.438.076l-.094-.684h-.133l-.095.684c-.135-.043-.329-.076-.438-.076h-.085c-.056 0-.08.01-.08.033 0 .028.024.052.08.082.365.189.627.874.627 1.637v.082l-.029.039-.085.075-.085.086-.048.038c.039.033.068.058.086.076.012.012.041.044.085.095l.067.076z" transform="translate(241.024 68.1943)"/><path d="m0 0 .067-.085.066-.077c.045-.051.073-.082.085-.094.019-.019.047-.043.086-.076l-.047-.038-.086-.086-.085-.075-.029-.039v-.082c0-.766.256-1.434.627-1.637.058-.033.082-.057.082-.084l-.006-.012-.076-.019h-.086c-.111 0-.308.035-.437.076l-.094-.684h-.133l-.095.684c-.135-.043-.329-.076-.438-.076h-.085c-.056 0-.08.01-.08.033 0 .028.024.052.08.082.365.189.627.873.627 1.637v.082l-.028.039-.086.075-.085.086-.048.038c.039.033.068.057.086.076.012.012.041.043.085.094l.067.077z" transform="translate(228.6829 74.913)"/><path d="m0 0 .067-.085.066-.077c.045-.051.073-.082.085-.094.019-.019.047-.043.086-.076l-.047-.038-.086-.086-.085-.075-.029-.039v-.082c0-.766.256-1.434.627-1.637.058-.033.082-.057.082-.084l-.006-.012-.076-.019h-.086c-.111 0-.308.035-.437.076l-.094-.684h-.133l-.095.684c-.135-.043-.329-.076-.438-.076h-.085c-.056 0-.08.01-.08.033 0 .028.024.052.08.082.365.189.627.873.627 1.637v.082l-.028.039-.086.075-.085.086-.048.038c.039.033.068.057.086.076.012.012.041.043.085.094l.067.077z" transform="translate(232.2866 74.913)"/><path d="m0 0 .067-.085.066-.077c.045-.051.073-.082.085-.094.019-.019.047-.043.086-.076l-.047-.038-.086-.086-.085-.075-.029-.039v-.082c0-.766.256-1.434.627-1.637.058-.033.082-.057.082-.084l-.006-.012-.076-.019h-.086c-.111 0-.308.035-.437.076l-.094-.684h-.133l-.095.684c-.135-.043-.329-.076-.438-.076h-.085c-.056 0-.08.01-.08.033 0 .028.024.052.08.082.365.189.627.873.627 1.637v.082l-.028.039-.086.075-.085.086-.048.038c.039.033.068.057.086.076.012.012.041.043.085.094l.067.077z" transform="translate(235.8902 74.913)"/><path d="m0 0 .067-.086.066-.076c.045-.051.073-.083.085-.094.019-.019.047-.044.086-.077l-.047-.037-.086-.086-.085-.076-.029-.038v-.082c0-.766.256-1.434.627-1.638.058-.032.082-.056.082-.083l-.006-.012-.076-.019h-.085c-.112 0-.309.035-.438.076l-.094-.684h-.133l-.095.684c-.135-.043-.329-.076-.438-.076h-.085c-.056 0-.08.01-.08.033 0 .028.024.052.08.081.365.19.627.874.627 1.638v.082l-.028.038-.086.076-.085.086-.048.037c.039.033.068.058.086.077.012.011.041.043.085.094l.067.076z" transform="translate(234.0884 72.8172)"/><path d="m0 0 .067-.086.066-.076c.045-.051.073-.083.085-.094.019-.019.047-.044.086-.077l-.047-.037-.086-.086-.085-.076-.029-.038v-.082c0-.766.256-1.434.627-1.638.058-.032.082-.056.082-.083l-.006-.012-.076-.019h-.085c-.112 0-.309.035-.438.076l-.094-.684h-.133l-.095.684c-.135-.043-.329-.076-.438-.076h-.085c-.056 0-.08.01-.08.033 0 .028.024.052.08.081.365.19.627.874.627 1.638v.082l-.028.038-.086.076-.085.086-.048.037c.039.033.068.058.086.077.012.011.041.043.085.094l.067.076z" transform="translate(230.4847 72.8172)"/><path d="m0 0 .066-.085.067-.077c.044-.051.073-.082.085-.094.018-.019.047-.043.086-.076l-.047-.038-.086-.086-.085-.075-.029-.039-.001-.082c0-.766.257-1.434.628-1.637.058-.033.082-.057.082-.084l-.006-.012-.076-.019h-.086c-.111 0-.309.035-.437.076l-.095-.684h-.132l-.095.684c-.135-.043-.329-.076-.438-.076h-.085c-.056 0-.08.01-.08.033 0 .028.024.052.08.082.365.189.627.873.627 1.637v.082l-.029.039-.085.075-.086.086-.047.038c.039.033.068.057.086.076.012.012.041.043.085.094l.067.077z" transform="translate(246.1803 74.913)"/><path d="m0 0 .066-.085.067-.077c.044-.051.073-.082.085-.094.018-.019.047-.043.086-.076l-.047-.038-.086-.086-.085-.075-.029-.039-.001-.082c0-.766.257-1.434.628-1.637.058-.033.082-.057.082-.084l-.006-.012-.076-.019h-.086c-.111 0-.308.035-.437.076l-.095-.684h-.132l-.095.684c-.135-.043-.329-.076-.438-.076h-.085c-.056 0-.08.01-.08.033 0 .028.024.052.08.082.365.189.627.873.627 1.637v.082l-.029.039-.085.075-.086.086-.047.038c.039.033.068.057.086.076.012.012.041.043.085.094l.067.077z" transform="translate(249.784 74.913)"/><path d="m0 0 .066-.085.067-.077c.044-.051.073-.082.085-.094.018-.019.047-.043.086-.076l-.047-.038-.086-.086-.085-.075-.029-.039-.001-.082c0-.766.257-1.434.628-1.637.058-.033.082-.057.082-.084l-.006-.012-.076-.019h-.086c-.111 0-.309.035-.437.076l-.095-.684h-.132l-.095.684c-.135-.043-.329-.076-.438-.076h-.085c-.056 0-.08.01-.08.033 0 .028.024.052.08.082.365.189.627.873.627 1.637v.082l-.029.039-.085.075-.086.086-.047.038c.039.033.068.057.086.076.012.012.041.043.085.094l.067.077z" transform="translate(253.3877 74.913)"/><path d="m0 0 .067-.086.066-.076c.044-.051.073-.083.085-.094.019-.019.047-.044.086-.077l-.047-.037-.086-.086-.085-.076-.029-.038-.001-.082c0-.766.257-1.434.628-1.638.058-.032.082-.056.082-.083l-.006-.012-.076-.019h-.085c-.112 0-.309.035-.438.076l-.094-.684h-.133l-.095.684c-.134-.043-.329-.076-.438-.076h-.085c-.056 0-.08.01-.08.033 0 .028.024.052.08.081.365.19.627.874.627 1.638v.082l-.029.038-.085.076-.085.086-.048.037c.039.033.068.058.086.077.012.011.041.043.085.094l.067.076z" transform="translate(251.5857 72.8172)"/><path d="m0 0 .067-.086.066-.076c.045-.051.073-.083.085-.094.019-.019.047-.044.086-.077l-.047-.037-.086-.086-.085-.076-.029-.038v-.082c0-.766.256-1.434.627-1.638.058-.032.082-.056.082-.083l-.006-.012-.076-.019h-.085c-.112 0-.309.035-.437.076l-.095-.684h-.133l-.095.684c-.134-.043-.329-.076-.437-.076h-.086c-.056 0-.08.01-.08.033 0 .028.024.052.08.081.365.19.628.874.628 1.638l-.001.082-.028.038-.086.076-.085.086-.048.037c.039.033.068.058.086.077.012.011.041.043.085.094l.067.076z" transform="translate(247.982 72.8172)"/><path d="m0 0h1.006c.114.24.269.345.508.345s.391-.1.527-.345h.824c.1.22.297.345.54.345.224 0 .44-.145.514-.345h.766c.116.223.294.345.503.345.213 0 .386-.096.513-.287l.039-.058h1.063v-4.925h-.93v-1.887h-1.092v1.887h-2.759v-1.887h-1.092v1.906h-.93z" transform="translate(237.6226 74.9031)"/></g></g><path d="m296.88544 737.01548h7.5525v-.21375h-7.5525zm0 4.96125h7.5525v-4.59875h-7.5525z" fill="#c63639"/><g fill="#e0b438"><g clip-path="url(#b)" transform="matrix(1.25 0 0 -1.25 -.618309 829.94923)"><path d="m0 0c-.159 0-.287-.129-.287-.287 0-.159.128-.288.287-.288s.288.129.288.288c0 .158-.129.287-.288.287" transform="translate(238.6396 73.5522)"/><path d="m0 0c-.159 0-.288-.129-.288-.287 0-.159.129-.288.288-.288s.287.129.287.288c0 .158-.128.287-.287.287" transform="translate(243.4085 73.5522)"/><path d="m0 0c-.159 0-.287-.128-.287-.287s.132-.288.297-.288c.153 0 .278.129.278.288s-.129.287-.288.287" transform="translate(238.6396 71.3004)"/><path d="m0 0c-.159 0-.288-.128-.288-.287s.129-.288.288-.288.287.129.287.288-.128.287-.287.287" transform="translate(243.4085 71.3004)"/><path d="m0 0c.389-.488.881-.728 1.488-.728.563 0 .95.2 1.405.728-.454.466-.876.661-1.433.661-.583 0-1.11-.239-1.46-.661" transform="translate(239.5405 72.1725)"/></g><path d="m297.81294 743.92673h.70625v-.91125h-.70625z"/><path d="m297.81294 744.41673h.70625v-.2875h-.70625z"/><path d="m302.62794 743.92673h.70625v-.91125h-.70625z"/><path d="m302.62794 744.41673h.70625v-.2875h-.70625z"/></g><g clip-path="url(#c)" transform="matrix(1.25 0 0 -1.25 -.618309 829.94923)"><path d="m0 0c-.143 0-.259-.116-.259-.259v-.68c0-.143.116-.259.259-.259s.259.116.259.259v.68c0 .143-.116.259-.259.259" fill="#e0b438" transform="translate(239.1369 74.913)"/><path d="m0 0c-.143 0-.259-.116-.259-.259v-.68c0-.143.116-.259.259-.259s.259.116.259.259v.68c0 .143-.116.259-.259.259" fill="#e0b438" transform="translate(241.0277 74.913)"/><path d="m0 0c-.143 0-.259-.116-.259-.259v-.68c0-.143.116-.259.259-.259s.259.116.259.259v.68c0 .143-.116.259-.259.259" fill="#e0b438" transform="translate(242.8106 74.913)"/><g fill="#323133"><path d="m0 0c0-.224.182-.406.407-.406.224 0 .406.182.406.406s-.182.406-.406.406c-.225 0-.407-.182-.407-.406m.238 0c0 .093.076.168.169.168s.168-.075.168-.168-.075-.168-.168-.168-.169.075-.169.168" transform="translate(243.0017 71.0131)"/><path d="m0 0c-.418 0-.758-.129-1.159-.441.332-.329.723-.498 1.152-.498.483 0 .799.133 1.157.489-.412.327-.727.45-1.15.45m-.016-.556c-.224 0-.414.061-.655.211.202.108.426.163.666.163.228 0 .461-.056.686-.163-.213-.145-.433-.211-.697-.211" transform="translate(240.9869 72.6134)"/><path d="m0 0c0-.224.182-.407.406-.407.225 0 .407.183.407.407s-.182.406-.407.406c-.224 0-.406-.182-.406-.406m.238 0c0 .092.076.168.168.168.093 0 .169-.076.169-.168 0-.093-.076-.168-.169-.168-.092 0-.168.075-.168.168" transform="translate(238.2333 73.2649)"/><path d="m0 0c0-.224.187-.406.416-.406.219 0 .397.182.397.406s-.182.406-.407.406c-.224 0-.406-.182-.406-.406m.238 0c0 .093.076.168.168.168.093 0 .169-.075.169-.168s-.071-.168-.159-.168c-.098 0-.178.075-.178.168" transform="translate(238.2333 71.0131)"/><path d="m0 0c0-.224.182-.407.407-.407.224 0 .406.183.406.407s-.182.406-.406.406c-.225 0-.407-.182-.407-.406m.238 0c0 .092.076.168.169.168s.168-.076.168-.168c0-.093-.075-.168-.168-.168s-.169.075-.169.168" transform="translate(243.0017 73.2649)"/><path d="m0 0 .73-3.711-.982-.198c-.594 2.469-2.683 4.062-5.324 4.062-3.236 0-5.648-2.863-5.648-6.705 0-3.962 2.511-6.852 5.953-6.852 2.724 0 4.629 1.563 5.352 4.387l.982-.126-.406-3.584c-2.512-1.312-4.333-1.829-6.446-1.829-5.065 0-8.51 3.294-8.51 8.135 0 4.665 3.333 7.772 8.337 7.772 1.987 0 3.19-.258 5.547-1.189.092-.036.231-.09.415-.162" transform="translate(277.6856 85.3994)"/><path d="m0 0c.458-.985.629-1.34 1.198-2.486.502-1.012.824-1.663.964-1.955l.792-1.648.775-1.567.27-.559c.454.868.609 1.188 1.072 2.207l.856 1.882.901 1.973.738 1.676.208.477h4.476v-.603c-.326.062-.414.072-.6.072-1.234 0-1.453-.421-1.453-2.784v-4.674c0-2.263.267-2.793 1.409-2.793.184 0 .415.026.716.081v-.603h-6.413v.603c.193-.055.36-.081.515-.081 1.074 0 1.35.57 1.35 2.793v5.755c-.146-.283-.254-.496-.325-.64-.054-.109-.321-.685-.802-1.729l-.891-1.937-.982-2.215c-.501-1.13-.786-1.779-.856-1.946-.046-.112-.116-.28-.207-.504h-.739l-.252.558c-.921 2.04-1.079 2.381-1.756 3.775l-.91 1.873c-.472.971-.775 1.59-.91 1.856-.093.182-.233.455-.423.819v-5.665-.55c0-1.688.387-2.243 1.564-2.243.191 0 .3.018.481.081v-.603h-4.946v.603c.191-.05.411-.084.544-.084 1.125 0 1.384.524 1.384 2.796v4.674.55c0 1.803-.258 2.234-1.343 2.234-.22 0-.336-.017-.512-.072v.603z" transform="translate(297.1056 84.0934)"/><path d="m0 0v-.604h-7.431v.604c.352-.058.606-.081.884-.081 1.354 0 1.62.457 1.62 2.792v4.675c0 2.354-.252 2.784-1.632 2.784-.312 0-.428-.012-.719-.073v.604h7.215v-.604c-.342.059-.492.073-.841.073-1.402 0-1.663-.436-1.663-2.784v-4.675c0-2.319.276-2.792 1.633-2.792.291 0 .616.028.934.081" transform="translate(344.4126 73.3926)"/><path d="m0 0 .568-2.882-.847-.153c-.719 2.028-1.871 2.936-3.726 2.936-2.648 0-4.399-1.967-4.399-4.94 0-3.164 1.951-5.41 4.699-5.41.683 0 1.187.092 1.823.334v2.783.333c0 .875-.293 1.198-1.086 1.198-.092 0-.229-.006-.41-.018l-.135-.009v.667h5.639v-.667l-.18.009-.234.018-.074.003c-1.02 0-1.234-.293-1.234-1.692 0-.818.025-1.998.064-2.968-.67-.124-1.387-.269-1.963-.396-1.681-.372-2.376-.469-3.359-.469-3.585 0-6.022 2.368-6.022 5.85 0 3.676 2.484 5.986 6.438 5.986.668 0 1.423-.062 2.177-.18l.982-.153.883-.117z" transform="translate(371.7144 83.8233)"/><path d="m0 0 .433-2.441-.676-.126c-.298 1.457-.984 1.847-3.247 1.847-.661 0-1.109-.046-1.842-.19v-3.954h1.99c1.111 0 1.425.243 1.425 1.103 0 .138-.005.22-.029.419h.676v-3.846h-.676c.033.344.037.412.037.541 0 .746-.372 1.008-1.433 1.008h-1.99v-4.666h2.099.342c1.887 0 2.495.383 3.198 2.009.027.064.069.16.126.288l.72-.252-1.063-3.044h-10.25v.603c.318-.056.601-.081.902-.081 1.314 0 1.602.502 1.602 2.793v4.674c0 2.329-.271 2.784-1.651 2.784-.299 0-.443-.015-.7-.072v.603z" transform="translate(384.5948 84.0934)"/><path d="m0 0v.387h4.044v-.387l-.099.018-.162.018-.171.018-.042.001c-.526 0-.827-.373-.841-1.046l-.009-.432-.009-.343v-2.279c0-1.681.654-2.432 2.118-2.432 1.248 0 2.098.822 2.098 2.027v.405 2.279.361c0 1.093-.227 1.462-.896 1.462l-.05-.003-.153-.018-.207-.018-.082-.018v.387h3.432v-.387l-.09.018-.18.018-.18.018-.066.003c-.704 0-.925-.349-.925-1.462v-.361-2.279c0-2.139-.979-3.098-3.163-3.098-1.975 0-3.16.97-3.16 2.585v.54 2.252l-.009.343-.018.432c-.029.693-.305 1.045-.818 1.045-.074 0-.232-.024-.362-.054" transform="translate(264.2645 66.7451)"/><path d="m0 0 .198-.234.712-.937.855-1.072.82-1.018c.29-.36.536-.66.738-.901.379-.449.604-.719.676-.811.049-.061.121-.154.216-.278v3.098.36c0 1.062-.253 1.46-.93 1.46-.015 0-.074-.006-.178-.018l-.153-.019-.081-.017v.387h3.279v-.387c-.11.029-.298.054-.421.054-.69 0-.948-.398-.948-1.46v-.36-5.071c-.132-.081-.148-.09-.333-.189-.15-.08-.201-.11-.343-.198-.088.107-.154.188-.198.243-.1.124-.382.484-.847 1.081-.276.355-.531.676-.765.963-.297.365-.489.605-.577.721-.118.157-.184.244-.198.261l-2.252 2.838v-3.685l.009-.36.009-.441c.014-.673.317-1.009.911-1.009.16 0 .262.013.368.045v-.396h-3.288v.396c.127-.03.285-.045.475-.045.686 0 .913.359.913 1.45v.36 3.036.36c0 1.082-.249 1.46-.96 1.46h-.031l-.216-.018-.181-.019-.089-.017v.387z" transform="translate(276.6138 67.1325)"/><path d="m0 0v-.396h-4.837v.396c.173-.031.361-.045.604-.045.661 0 .995.334 1.008 1.009l.009.441.009.361v3.035l-.009.36-.009.442c-.013.669-.358 1.018-1.007 1.018-.024 0-.105-.006-.245-.018l-.171-.019-.081-.017v.387h4.684v-.387l-.108.017-.208.019c-.2.015-.242.018-.289.018-.773 0-1.016-.349-1.016-1.46v-.36-3.035-.361c0-1.121.232-1.45 1.025-1.45.25 0 .457.015.641.045" transform="translate(288.3504 60.1784)"/><path d="m0 0v-.387l-.144.027c-.111.02-.165.027-.222.027-.492 0-.799-.22-.994-.712l-.207-.523-.28-.693-.234-.622-.117-.306-1.639-4.386h-.487c-.171.426-.212.532-.45 1.161-.299.793-.415 1.091-.784 2.027l-.504 1.279c-.177.449-.333.833-.468 1.153-.199.469-.31.734-.334.793-.243.608-.515.829-1.019.829-.2 0-.374-.019-.512-.054v.387h4.071v-.387l-.126.017-.162.019-.117.018-.042.003c-.335 0-.553-.161-.553-.41 0-.094.012-.141.082-.323.006-.018.034-.094.081-.225.019-.055.041-.112.063-.171l1.441-3.802 1.522 4.054.045.126.045.144.037.099.01.099c0 .285-.181.408-.603.408-.068 0-.133-.007-.191-.02l-.118-.028-.089-.008v.387z" transform="translate(296.9885 67.1325)"/><path d="m0 0 .279-1.585-.432-.081c-.173.936-.658 1.208-2.152 1.208-.315 0-.496-.018-.938-.091l-.216-.037v-2.567h1.288.18c.523 0 .749.211.749.7 0 .088-.006.148-.028.291h.441v-2.504h-.441c.033.231.036.257.036.346 0 .416-.262.654-.721.654h-.216-1.288v-3.027h1.36.225c1.272 0 1.713.306 2.153 1.496l.469-.172-.685-1.981h-6.666v.396c.173-.031.362-.045.603-.045.773 0 1.019.349 1.019 1.45v.36 3.036.36c0 1.085-.257 1.46-.999 1.46-.04 0-.128-.006-.262-.018l-.172-.019-.09-.017v.387z" transform="translate(303.8434 67.1325)"/><path d="m0 0v-1.883h-.423c-.169 1.176-.702 1.703-1.723 1.703-.777 0-1.349-.449-1.349-1.059 0-.48.299-.802 1.09-1.175l.802-.378c1.46-.69 1.973-1.278 1.973-2.269 0-1.35-1.241-2.281-3.039-2.281-.472 0-.856.054-1.681.235-.24.053-.29.061-.478.082l.063 2.143h.459c.056-1.168.77-1.928 1.809-1.928.799 0 1.407.557 1.407 1.286 0 .651-.272.907-1.792 1.687-1.518.778-1.919 1.219-1.919 2.109 0 1.21 1.075 2.025 2.674 2.025.439 0 .952-.072 1.478-.207.315-.081.377-.091.562-.091z" transform="translate(320.0295 66.9792)"/><path d="m0 0v-.396h-4.828v.396c.172-.031.364-.045.606-.045.782 0 1.016.334 1.016 1.45v.361 3.035.36c0 1.112-.243 1.46-1.018 1.46-.03 0-.111-.006-.243-.018l-.172-.019-.09-.017v.387h4.693v-.387l-.108.017-.216.019c-.226.017-.241.018-.283.018-.646 0-.991-.35-1.005-1.018l-.009-.442-.009-.36v-3.035l.009-.361.009-.441c.014-.678.347-1.009 1.015-1.009.242 0 .451.015.633.045" transform="translate(326.7309 60.1784)"/><path d="m0 0 .189-2h-.45l-.027.198c-.135.988-.304 1.214-.928 1.243l-.189.01h-.973v-4.64-.342c0-1.092.228-1.468.892-1.468.145 0 .293.016.414.045v-.396h-4.17v.396c.139-.03.287-.045.433-.045.546 0 .849.367.864 1.045l.009.423.009.342v4.64h-1.09c-.693 0-.903-.309-.991-1.451h-.468l.18 2z" transform="translate(333.829 67.1325)"/><path d="m0 0v-.387c-.168.045-.235.054-.409.054-.383 0-.696-.151-.897-.433l-.225-.315-.225-.315-.135-.216-1.586-2.414v-1.163l.009-.342.009-.423c.014-.672.326-1.045.874-1.045.168 0 .303.014.45.045v-.396h-4.18v.396c.145-.031.283-.045.446-.045.551 0 .864.372.878 1.045l.01.423.008.342v1.108l-1.251 1.802-.189.279-.379.532-.342.486c-.351.499-.606.649-1.105.649-.105 0-.173-.007-.381-.037l-.127-.017v.387h4.036v-.387l-.099.017-.126.019c-.084.012-.136.018-.152.018-.248 0-.434-.148-.434-.346 0-.106.025-.172.127-.321l1.629-2.414 1.307 2.036.081.153.126.189c.093.14.144.27.144.368 0 .195-.201.335-.482.335-.015 0-.07-.006-.166-.018l-.144-.019-.091-.017v.387z" transform="translate(343.0168 67.1325)"/><path d="m0 0 .27-1.585-.442-.081c-.126.913-.649 1.208-2.145 1.208-.321 0-.542-.022-.944-.091l-.207-.037v-2.567h1.288.18c.51 0 .748.205.748.644l-.009.221-.009.126h.441v-2.504h-.441l.009.126.017.198.003.055c0 .386-.274.621-.723.621h-.216-1.288v-3.027h1.36.225c1.228 0 1.625.251 2.072 1.307.018.041.045.104.081.189l.468-.172-.684-1.981h-6.666v.396c.173-.031.362-.045.604-.045.647 0 .995.348 1.008 1.009l.009.441.01.36v3.036l-.01.36-.009.442c-.013.646-.373 1.018-.985 1.018-.027 0-.116-.006-.267-.018l-.18-.019-.081-.017v.387z" transform="translate(370.0935 67.1325)"/><path d="m0 0v-1.883h-.415c-.163 1.166-.709 1.703-1.733 1.703-.768 0-1.338-.445-1.338-1.045 0-.49.301-.821 1.081-1.189l.801-.378c1.488-.702 1.974-1.259 1.974-2.261 0-1.369-1.225-2.29-3.044-2.29-.445 0-.925.068-1.676.236-.254.057-.293.064-.478.082l.072 2.143h.451c.108-1.227.768-1.928 1.811-1.928.793 0 1.413.564 1.413 1.283 0 .645-.311.939-1.793 1.69-1.512.767-1.918 1.209-1.918 2.088 0 1.231 1.062 2.046 2.666 2.046.458 0 .905-.062 1.477-.207.294-.074.396-.091.553-.091z" transform="translate(377.2271 66.9792)"/><path d="m0 0v-1.883h-.424c-.169 1.184-.696 1.703-1.729 1.703-.763 0-1.342-.456-1.342-1.057 0-.482.29-.795 1.09-1.177l.793-.378c1.517-.725 1.982-1.254 1.982-2.262 0-1.362-1.231-2.288-3.038-2.288-.472 0-.858.054-1.683.235-.24.053-.29.061-.478.082l.064 2.143h.459c.056-1.163.772-1.928 1.805-1.928.804 0 1.411.56 1.411 1.299 0 .647-.265.895-1.793 1.674-1.512.771-1.91 1.208-1.91 2.101 0 1.226 1.056 2.033 2.661 2.033.453 0 .956-.07 1.483-.207.304-.079.377-.091.567-.091z" transform="translate(384.2169 66.9792)"/><path d="m0 0 2.054-5.143.117-.297c2.079-5.277 2.55-6.035 3.752-6.035.149 0 .334.033.508.09v-.604h-6.251v.604c.275-.07.366-.082.622-.082.636 0 .947.229.947.7 0 .132-.049.334-.137.571l-.675 1.81h-3.846l-.532-1.378-.099-.27-.117-.315c-.04-.129-.065-.279-.065-.395 0-.46.393-.731 1.058-.731.225 0 .329.014.664.09v-.604h-4.954v.604c.247-.059.357-.074.533-.074.903 0 1.338.475 2.088 2.28l.288.694.172.406 3.359 8.079zm-1.105-3.576-1.498-3.981 3.075-.045z" transform="translate(286.0535 84.7778)"/><path d="m0 0v.603h3.54.496c.363 0 .964.017 1.963.054.486.019.857.028 1.114.028 2.062 0 3.291-.898 3.291-2.403 0-1.451-.972-2.396-2.892-2.813 2.272-.165 3.342-1.062 3.342-2.8 0-2.207-1.735-3.407-4.928-3.407-.232 0-.592.007-1.08.019l-1.099.018h-.477-3.441v.604c.328-.057.591-.082.892-.082 1.335 0 1.603.467 1.603 2.793v4.675c0 2.359-.25 2.783-1.642 2.783-.288 0-.379-.01-.682-.072m4.576-4.297c.261-.044.6-.116.881-.116 1.534 0 2.668 1.102 2.668 2.534 0 1.123-.969 1.96-2.269 1.96-.392 0-.622-.047-1.28-.261zm0-5.53c.509-.115.909-.162 1.356-.162 1.469 0 2.499 1.12 2.499 2.715 0 1.459-1.054 2.286-2.916 2.286-.307 0-.465-.017-.939-.101z" transform="translate(310.7338 83.4899)"/><path d="m0 0v.603h3.333.387l.847.027.865.027c.736.024.988.03 1.178.03 2.554 0 3.812-.9 3.812-2.73 0-1.674-1.002-2.655-2.937-2.875 1.128-.597 1.539-1.043 2.36-2.567 1.097-2.034 1.71-2.658 2.607-2.658.099 0 .146.004.51.046v-.604h-1.225-.36l-.55-.018-.483-.011c-1.107 0-1.589.358-2.309 1.713l-.459.865c-1.196 2.251-1.718 2.719-3.045 2.729v-1.963c0-2.338.261-2.793 1.608-2.793.255 0 .471.023.77.082v-.604h-7.089v.604c.337-.056.617-.082.883-.082 1.233.001 1.621.538 1.621 2.243v.55 4.675.549c0 1.71-.377 2.235-1.606 2.235-.278 0-.46-.019-.718-.073m4.531-4.783c.346-.032.496-.04.745-.04 1.782 0 2.741.909 2.741 2.599 0 1.399-.896 2.333-2.236 2.333-.379 0-.848-.078-1.25-.208z" transform="translate(323.4613 83.4899)"/><path d="m0 0v.603h3.522.414l.811.027.963.027c.667.02 1.124.029 1.373.029 3.952 0 6.041-1.752 6.041-5.063 0-3.864-2.735-6.36-6.972-6.36l-1.252.027-.82.009h-.558-3.649v.604c.324-.054.635-.082.918-.082 1.355 0 1.632.474 1.632 2.793v4.675c0 2.348-.26 2.783-1.664 2.783-.323 0-.452-.012-.759-.072m4.765-9.746c.747-.24 1.171-.316 1.78-.316 2.473 0 4.048 2.125 4.048 5.463 0 2.926-1.497 4.617-4.087 4.617-.591 0-1.076-.08-1.741-.288z" transform="translate(345.7011 83.4899)"/><path d="m0 0v.387h2.17l.253.009.549.009.559.019c.304.011.591.018.753.018 1.683 0 2.499-.577 2.499-1.766 0-1.086-.649-1.722-1.91-1.874.76-.427.978-.664 1.531-1.666.819-1.484 1.068-1.723 1.799-1.723.061 0 .11.005.219.02v-.396h-.784-.243l-.361-.009-.232-.003c-.811 0-1.101.205-1.578 1.111-.13.246-.229.435-.297.567-.746 1.434-1.096 1.747-1.982 1.775v-1.279-.361c0-1.108.242-1.45 1.027-1.45.215 0 .38.014.522.045v-.396h-4.603v.396c.171-.03.362-.045.596-.045.779 0 1.026.349 1.026 1.45v.361 3.035.361c0 1.074-.26 1.459-.985 1.459-.019 0-.099-.006-.24-.018l-.198-.018zm2.945-3.108c.251-.023.354-.028.53-.028 1.115 0 1.731.595 1.731 1.674 0 .948-.56 1.534-1.464 1.534-.247 0-.52-.046-.797-.135z" transform="translate(305.5819 66.7451)"/><path d="m0 0v-1.207l.009-.342.009-.423c.015-.691.35-1.046.989-1.046.203 0 .365.014.524.045v-.396h-4.45v.396c.146-.031.3-.045.505-.044.745 0 1 .374 1 1.468v.342 3.035.343c0 1.083-.262 1.477-.983 1.477-.046 0-.133-.006-.26-.018l-.18-.018-.109-.018v.387h2.171l.244.009.459.009.621.019c.336.012.579.018.728.018 1.764 0 2.551-.572 2.551-1.852 0-1.336-1.124-2.249-2.769-2.249l-.113.002-.442.018c-.286.012-.309.014-.504.045m0 .504c.292-.042.439-.055.644-.055 1.023 0 1.636.628 1.636 1.676 0 .929-.571 1.523-1.466 1.523-.256 0-.515-.052-.814-.162z" transform="translate(349.7904 63.1511)"/><path d="m0 0v.387h2.162l.261.009.549.009.559.019c.305.011.585.018.745.018 1.701 0 2.498-.566 2.498-1.776 0-1.086-.649-1.718-1.91-1.864.717-.379 1.004-.69 1.54-1.666.808-1.472 1.07-1.723 1.8-1.723.06 0 .109.005.218.02v-.396h-.793-.234l-.36-.009-.233-.003c-.811 0-1.101.205-1.577 1.111-.13.246-.229.435-.298.567-.746 1.434-1.096 1.747-1.982 1.775v-1.279-.361c0-1.113.238-1.45 1.025-1.45.201 0 .367.014.525.045v-.396h-4.612v.396c.166-.029.374-.045.612-.045.768 0 1.018.357 1.018 1.45v.361 3.035.361c0 1.072-.262 1.459-.986 1.459-.018 0-.098-.006-.239-.018l-.198-.018zm2.945-3.108c.243-.023.343-.028.516-.028 1.129 0 1.745.592 1.745 1.677 0 .94-.565 1.531-1.465 1.531-.261 0-.534-.047-.796-.135z" transform="translate(354.6813 66.7451)"/></g></g></g></svg>