<svg xmlns="http://www.w3.org/2000/svg" width="32" height="64" fill="none"><path fill="#fff" fill-rule="evenodd" d="M32 0v64H0V0zM16.414 31.92c-5.738.04-10.535 5.007-10.535 10.868 0 6.01 4.797 10.685 10.535 10.685 3.582 0 7.043-2.185 8.136-3.825V44.7h2.73v-.814h-9.984v.814h3.672v6.68l-.125.07a9.25 9.25 0 0 1-4.43 1.142c-4.584 0-6.374-2.823-6.374-9.896 0-7.072 1.882-9.869 6.405-9.9 2.046.013 3.27.466 4.341 1.377.88 1.02 1.892 2.376 2.35 4.1h.429v-5.839h-.486l-.049.109q-.124.256-.267.363-.17.129-.571.129-.375 0-.916-.173a34 34 0 0 0-1.231-.358 31 31 0 0 0-1.49-.356 8 8 0 0 0-.757-.12 8 8 0 0 0-1.383-.11m7.525-8.771H7.98v1.581h15.96zm.006-15.17h-6.02v7.98H24V14.4H19.67v-1.676h3.763V11.16h-3.763V9.542h4.276zm-12.79 0H8.04v7.98h3.113l.192-.003c2.403-.086 4.049-1.798 4.049-3.986v-.023l-.003-.171c-.086-2.162-1.795-3.796-4.238-3.796m0 1.586c1.436 0 2.405.99 2.405 2.405v.023l-.003.15c-.067 1.33-1.018 2.233-2.403 2.233H9.798V9.565z" clip-rule="evenodd"/></svg>