<?xml version="1.0" encoding="UTF-8" standalone="no"?>
<svg
   width="593.06"
   height="320"
   fill="none"
   version="1.1"
   id="svg1"
   sodipodi:docname="degruyter.svg"
   viewBox="0 0 118.612 64"
   inkscape:version="1.3.2 (091e20e, 2023-11-25, custom)"
   xmlns:inkscape="http://www.inkscape.org/namespaces/inkscape"
   xmlns:sodipodi="http://sodipodi.sourceforge.net/DTD/sodipodi-0.dtd"
   xmlns="http://www.w3.org/2000/svg"
   xmlns:svg="http://www.w3.org/2000/svg">
  <defs
     id="defs1" />
  <sodipodi:namedview
     id="namedview1"
     pagecolor="#ffffff"
     bordercolor="#000000"
     borderopacity="0.25"
     inkscape:showpageshadow="2"
     inkscape:pageopacity="0.0"
     inkscape:pagecheckerboard="true"
     inkscape:deskcolor="#d1d1d1"
     inkscape:zoom="1.7014757"
     inkscape:cx="311.78817"
     inkscape:cy="83.750829"
     inkscape:window-width="2880"
     inkscape:window-height="1586"
     inkscape:window-x="4789"
     inkscape:window-y="825"
     inkscape:window-maximized="1"
     inkscape:current-layer="svg1" />
  <path
     fill="#ffffff"
     fill-rule="evenodd"
     d="M 32,0 V 64 H 0 V 0 Z M 16.414,31.92 c -5.738,0.04 -10.535,5.007 -10.535,10.868 0,6.01 4.797,10.685 10.535,10.685 3.495,0 6.874,-2.08 8.052,-3.704 L 24.55,49.648 V 44.7 h 2.73 V 43.886 H 17.296 V 44.7 h 3.672 v 6.68 l -0.125,0.07 a 9.25,9.25 0 0 1 -4.43,1.142 c -4.584,0 -6.374,-2.823 -6.374,-9.896 0,-7.072 1.882,-9.869 6.405,-9.9 2.046,0.013 3.27,0.466 4.341,1.377 0.825,0.957 1.766,2.208 2.258,3.78 l 0.092,0.32 h 0.429 v -5.839 h -0.486 l -0.049,0.109 q -0.124,0.256 -0.267,0.363 -0.17,0.129 -0.571,0.129 -0.375,0 -0.916,-0.173 a 34,34 0 0 0 -1.232,-0.358 31,31 0 0 0 -1.489,-0.356 8,8 0 0 0 -0.757,-0.12 8,8 0 0 0 -1.383,-0.11 m 7.525,-8.771 H 7.98 v 1.581 h 15.96 z m 0.006,-15.17 h -6.02 v 7.98 h 6.076 V 14.4 H 19.67 v -1.676 h 3.763 V 11.16 H 19.67 V 9.542 h 4.276 z m -12.79,0 H 8.04 v 7.98 h 3.113 l 0.192,-0.003 c 2.338,-0.084 3.96,-1.707 4.045,-3.81 l 0.004,-0.176 V 11.945 L 15.391,11.774 C 15.305,9.612 13.596,7.978 11.153,7.978 M 68.326,7.855 c 1.308,0 2.13,0.335 2.895,0.944 l 0.143,0.118 -1.073,1.294 c -0.598,-0.5 -1.125,-0.785 -2.022,-0.785 -1.194,0 -2.15,1.015 -2.217,2.268 l -0.004,0.14 v 0.02 c 0,1.416 0.971,2.454 2.341,2.454 0.551,0 1.049,-0.123 1.454,-0.367 l 0.148,-0.097 V 12.74 H 68.28 v -1.47 h 3.359 v 3.358 a 5,5 0 0 1 -3.3,1.227 c -2.35,0 -3.98,-1.603 -4.065,-3.798 l -0.003,-0.18 v -0.021 c 0,-2.199 1.714,-4 4.056,-4 m 14.505,0.133 v 4.375 c 0,1.26 0.632,1.91 1.67,1.91 0.993,0 1.612,-0.575 1.664,-1.698 L 86.17,12.419 V 7.99 h 1.702 v 4.366 c 0,2.34 -1.311,3.49 -3.392,3.49 -2.013,0 -3.27,-1.091 -3.344,-3.231 L 81.132,12.411 V 7.99 Z m 32.636,0 c 1.76,0 2.843,0.899 2.913,2.397 l 0.004,0.157 v 0.02 c 0,1.19 -0.61,1.957 -1.518,2.344 l -0.139,0.055 1.884,2.761 h -1.985 l -1.655,-2.476 h -1.341 v 2.476 h -1.7 V 7.99 Z m -5.104,0 v 1.515 h -4.143 v 1.57 h 3.647 v 1.514 h -3.647 v 1.622 h 4.197 v 1.513 h -5.887 V 7.99 Z m -6.915,0 v 1.57 h -2.357 v 6.164 h -1.7 V 9.56 h -2.35 V 7.99 Z m -12.793,0 1.846,3.105 1.876,-3.105 h 1.935 l -2.974,4.653 v 3.081 h -1.702 v -3.049 l -2.97,-4.685 z m -13.853,0 c 1.76,0 2.842,0.899 2.912,2.397 l 0.004,0.157 v 0.02 c 0,1.19 -0.612,1.957 -1.52,2.344 l -0.139,0.055 1.89,2.761 H 77.962 L 76.305,13.247 H 74.97 v 2.476 h -1.7 V 7.99 Z m -17.3,0 V 9.504 H 55.36 v 1.57 h 3.646 v 1.514 H 55.36 v 1.622 h 4.197 v 1.513 H 53.67 V 7.99 Z m -11.236,0 c 2.367,0 4.02,1.582 4.106,3.676 l 0.003,0.17 v 0.02 c 0,2.121 -1.59,3.78 -3.919,3.865 l -0.19,0.003 H 45.25 V 7.99 Z M 11.154,9.565 c 1.385,0 2.336,0.92 2.403,2.255 l 0.003,0.15 v 0.023 l -0.003,0.15 c -0.064,1.281 -0.948,2.166 -2.25,2.23 l -0.153,0.003 H 9.798 V 9.565 Z m 37.114,-0.04 h -1.314 v 4.663 h 1.314 c 1.342,0 2.264,-0.875 2.328,-2.165 L 50.6,11.878 v -0.022 c 0,-1.368 -0.94,-2.33 -2.332,-2.33 m 67.056,0 h -1.692 v 2.22 h 1.724 c 0.785,0 1.253,-0.392 1.302,-0.986 l 0.005,-0.107 v -0.021 c 0,-0.73 -0.509,-1.105 -1.339,-1.105 m -38.666,0 H 74.97 v 2.22 h 1.724 c 0.782,0 1.247,-0.392 1.297,-0.986 l 0.004,-0.107 v -0.021 c 0,-0.73 -0.505,-1.105 -1.337,-1.105"
     clip-rule="evenodd"
     id="path1"
     style="fill:#000000;fill-opacity:1" />
</svg>
