<svg width="32" height="64" viewBox="0 0 32 64" fill="none" xmlns="http://www.w3.org/2000/svg">
<path fill-rule="evenodd" clip-rule="evenodd" d="M32 0V64H0V0H32ZM16.4136 31.9198C10.676 31.9598 5.8792 36.9273 5.8792 42.7875C5.8792 48.7971 10.676 53.4734 16.4136 53.4734C19.996 53.4734 23.4573 51.2878 24.5501 49.6478V44.7011H27.2808V43.8867H17.2957V44.7011H20.9683V51.3801L20.8435 51.4516C19.9374 51.9592 18.3558 52.5934 16.4136 52.5934C11.8291 52.5934 10.0392 49.7705 10.0392 42.6969C10.0392 35.6249 11.9208 32.8281 16.444 32.7971C18.4904 32.8099 19.7144 33.2627 20.7853 34.1737C21.6653 35.1945 22.6771 36.5497 23.1347 38.2734H23.564V32.435H23.0781L23.029 32.5437C22.9461 32.7148 22.858 32.8359 22.7624 32.907C22.6488 32.9934 22.4568 33.0355 22.1907 33.0355C21.9416 33.0355 21.636 32.9785 21.2749 32.8633C20.9117 32.7486 20.5016 32.6302 20.0435 32.5049C19.5853 32.3817 19.0888 32.2638 18.5544 32.1486C18.3053 32.0958 18.0525 32.0558 17.7965 32.0281C17.3613 31.9566 16.9032 31.9161 16.4136 31.9198ZM23.9392 23.1488H7.97973V24.7301H23.9392V23.1488ZM23.9448 7.97995H17.9245V15.9597H24.0013V14.3986H19.6691V12.7229H23.4317V11.1597H19.6691V9.54208H23.9448V7.97995ZM11.1544 7.97995H8.0408V15.9597H11.1544L11.3457 15.9563C13.7493 15.8699 15.3949 14.1581 15.3949 11.9698V11.9474L15.3915 11.7757C15.3055 9.61389 13.5973 7.97995 11.1544 7.97995ZM11.1544 9.56501C12.5907 9.56501 13.5603 10.5554 13.5603 11.9698V11.9933L13.5566 12.1429C13.4904 13.4736 12.5394 14.3762 11.1544 14.3762H9.7976V9.56501H11.1544Z" fill="white"/>
</svg>
