<?xml version="1.0" encoding="UTF-8"?><svg id="Layer_1" xmlns="http://www.w3.org/2000/svg" viewBox="0 0 277.05 76.31"><g><path d="M76.17,41.75h-14.37V.77h14.13c14.25,0,21.68,8.25,21.68,20.43s-7.6,20.55-21.44,20.55Zm-.54-33.08h-3.68v25.18h3.68c7.25,0,11.76-3.8,11.76-12.59s-4.81-12.59-11.76-12.59Z"/><path d="M103.91,41.75V.77h10.16V41.75h-10.16Z"/><path d="M140.5,42.52c-13.01,0-20.19-8.55-20.19-21.2S128.09,0,140.73,0c5.05,0,9.27,1.19,12.53,3.03l-1.37,8.85c-3.09-1.96-6.71-3.5-10.93-3.5-7.07,0-10.51,5.23-10.51,12.89s3.56,13.12,10.63,13.12c2.26,0,3.86-.47,5.52-1.31v-7.3h-7.13l-1.19-7.54h17.16v19.96c-4.28,2.79-9.32,4.34-14.97,4.34Z"/><path d="M162.54,41.75V.77h10.16V41.75h-10.16Z"/><path d="M199.96,9.38V41.75h-10.21V9.38h-11.58V.77h32.43l1.43,8.61h-12.05Z"/><path d="M223,.59h11.16l14.25,39.91-10.21,1.66-3.03-8.91h-14.25l-2.73,8.49h-9.92L223,.59Zm.36,24.71h9.27l-4.57-14.25-4.69,14.25Z"/><path d="M252.95,41.75V.77h10.15V32.96h12.59l1.37,8.79h-24.11Z"/></g><g><path d="M70.27,76.2c-3.43,0-6.81-1.04-9.11-2.29l.49-2.51c2.4,1.36,5.51,2.51,8.88,2.51,3.82,0,6.33-1.69,6.33-4.69,0-2.67-1.58-4.04-7.09-5.56-5.4-1.47-7.85-3.32-7.85-7.25s3.38-6.76,8.45-6.76c2.89,0,5.45,.71,7.52,1.74l-.44,2.45c-2.35-1.2-4.74-1.85-7.2-1.85-4.04,0-5.83,1.91-5.83,4.25s1.53,3.6,6.1,4.85c5.84,1.58,8.83,3.6,8.83,7.9,0,4.63-3.76,7.2-9.1,7.2Z"/><path d="M95.79,76.31c-6.27,0-11.28-4.91-11.28-13.36s5.07-13.36,11.45-13.36c3.22,0,6.05,1.14,8.29,2.83l-.49,2.62c-2.56-2.18-4.96-3.22-7.9-3.22-5.45,0-8.67,4.52-8.67,11.12s3.11,11.12,8.88,11.12c2.78,0,5.35-.98,8.01-3.27l.33,2.4c-2.34,1.96-5.18,3.11-8.61,3.11Z"/><path d="M110.64,75.76v-25.62h2.51v25.62h-2.51Z"/><path d="M131.21,76.31c-6.76,0-11.29-5.02-11.29-13.36s4.69-13.36,10.9-13.36c6.54,0,9.81,5.72,9.81,12.81v.55h-18.09c0,6.54,3.05,11.12,8.78,11.12,3.11,0,6.38-1.63,8.89-3.92l.38,2.4c-2.34,2.12-5.72,3.76-9.37,3.76Zm-8.56-15.48h15.32c-.16-5.01-2.67-9.1-7.14-9.1-4.85,0-7.63,3.76-8.18,9.1Z"/><path d="M164.6,75.76v-17.82c0-3.87-1.86-6-5.51-6-2.84,0-5.78,1.64-9,4.63v19.19h-2.56v-25.62h1.86l.65,3.87c3.11-2.72,5.94-4.41,9.32-4.41,5.29,0,7.79,3,7.79,8.12v18.04h-2.56Z"/><path d="M185.01,76.31c-6.27,0-11.29-4.91-11.29-13.36s5.07-13.36,11.45-13.36c3.21,0,6.05,1.14,8.29,2.83l-.49,2.62c-2.56-2.18-4.96-3.22-7.9-3.22-5.45,0-8.67,4.52-8.67,11.12s3.11,11.12,8.88,11.12c2.78,0,5.35-.98,8.02-3.27l.33,2.4c-2.34,1.96-5.18,3.11-8.61,3.11Z"/><path d="M209.31,76.31c-6.76,0-11.29-5.02-11.29-13.36s4.69-13.36,10.9-13.36c6.54,0,9.81,5.72,9.81,12.81v.55h-18.09c0,6.54,3.05,11.12,8.77,11.12,3.11,0,6.38-1.63,8.89-3.92l.38,2.4c-2.34,2.12-5.72,3.76-9.37,3.76Zm-8.56-15.48h15.32c-.17-5.01-2.67-9.1-7.14-9.1-4.85,0-7.63,3.76-8.18,9.1Z"/></g><g><g><g><rect x="45.21" y="11.3" width="9.41" height="9.41"/><rect x="24.14" y=".77" width="9.41" height="9.41"/><rect x="34.66" y=".77" width="9.41" height="9.41"/><rect x="45.21" y=".77" width="9.41" height="9.41"/><rect x="24.14" y="11.3" width="9.41" height="9.41"/><rect x="34.66" y="11.3" width="9.41" height="9.41"/><rect x="34.66" y="21.82" width="9.41" height="9.41"/><rect x="45.21" y="21.82" width="9.41" height="9.41"/><rect x="34.66" y="32.34" width="9.41" height="9.41"/><rect x="45.21" y="32.34" width="9.41" height="9.41"/></g><rect x="15.49" y="16.65" width="6.8" height="6.8"/><rect x="8.73" y="20.03" width="6.8" height="6.8"/><rect x="6.75" y="31.53" width="6.79" height="6.8"/><rect x="13.91" y="36.58" width="6.79" height="6.8"/><rect x="18.23" y="29.2" width="6.8" height="6.8"/><rect x="27.83" y="27.36" width="8.44" height="8.44"/><rect x="15.32" y="51.06" width="7.68" height="7.68"/><rect x="14.47" y="56.82" width="3.73" height="3.73"/><rect x="45.71" y="52.22" width="4.04" height="4.04"/><rect x="31.4" y="43.47" width="6.8" height="6.8"/><rect x="15.1" y="4.19" width="6.8" height="6.79"/><rect x="33.97" y="50.54" width="4.23" height="4.23"/><rect x="25.79" y="51.1" width="5.13" height="5.13"/><rect x="44.18" y="61.93" width="5.13" height="5.12"/><rect x="24.87" y="67.83" width="4.19" height="4.19"/></g><rect y="30.47" width="4.75" height="4.75"/></g></svg>