<svg fill="none" height="204" viewBox="0 0 601 204" width="601" xmlns="http://www.w3.org/2000/svg"><g fill="#000"><path d="m251.8 110.9v1.6c0 4.2 2.6 7 7.6 7 4.4 0 7.4-1.9 7.4-5.7 0-3.1-2.4-4.6-5.3-5.4l-10.2-3.1c-8-2.4-12.1-6.6-12.1-13.4 0-8 5.9-14.5 20.9-14.5 13.2 0 19.4 5 19.4 13.7v2h-13.1c0-4.8-1.7-7.2-6.4-7.2-3.7 0-6.9 1.8-6.9 5.2 0 2.3 1.5 4.3 6.3 5.6l8.7 2.5c9.2 2.6 12.5 6.5 12.5 13.8 0 10.1-8.9 15.1-21.1 15.1-16.3 0-20.9-6.1-20.9-15.3v-1.7h13.2"/><path d="m315.2 95.9c0-4.6-1.1-9.7-6.5-9.7-7.2 0-8.3 5.4-8.3 16.4 0 11.9 1.3 16.8 7.8 16.8 4.9 0 7.1-3.5 7.1-11.3h13.9c0 12.6-6.2 19.7-21.6 19.7-14.6 0-21.7-6-21.7-25.3 0-19.8 9.6-25.3 23-25.3s20.3 7.2 20.3 18.6h-14"/><path d="m337.3 62.1h14.5v10.5h-14.5zm0 16.5h14.5v48.1h-14.5z"/><path d="m374.5 104.5v3.8c0 5.6 1.8 11.2 7.2 11.2 4.9 0 6.9-3.1 7.7-9h13.1c-.5 11.2-6.9 17.4-20.6 17.4-21.1 0-21.9-13.8-21.9-25.7 0-12.9 3-24.8 22.6-24.8 17 0 20.8 9.7 20.8 24.4v2.8h-28.9zm14.9-7.3c-.3-7.3-1.4-11.4-7.4-11.4-5.8 0-7.5 5.1-7.5 9.6v1.9h14.9z"/><path d="m410.9 78.6h13.9v5.6h.2c3.1-4.7 8.3-6.9 14.4-6.9 9.1 0 14.5 4.2 14.5 13.7v35.7h-14.5v-33.2c0-4.8-1.9-6.7-6.2-6.7-5 0-7.7 2.6-7.7 8v31.9h-14.6z"/><path d="m490.9 95.9c0-4.6-1.1-9.7-6.5-9.7-7.2 0-8.3 5.4-8.3 16.4 0 11.9 1.3 16.8 7.8 16.8 4.9 0 7.1-3.5 7.1-11.3h13.9c0 12.6-6.2 19.7-21.6 19.7-14.6 0-21.7-6-21.7-25.3 0-19.8 9.6-25.3 23-25.3s20.3 7.2 20.3 18.6h-14"/><path d="m524.9 104.5v3.8c0 5.6 1.8 11.2 7.2 11.2 4.8 0 6.8-3.1 7.7-9h13.1c-.5 11.2-6.9 17.4-20.6 17.4-21.1 0-21.9-13.8-21.9-25.7 0-12.9 2.9-24.8 22.6-24.8 17 0 20.8 9.7 20.8 24.4v2.8h-28.9zm14.8-7.3c-.3-7.3-1.4-11.4-7.4-11.4-5.8 0-7.5 5.1-7.5 9.6v1.9h14.9z"/><path d="m571.9 110.9v1.6c0 4.2 2.6 7 7.6 7 4.4 0 7.4-1.9 7.4-5.7 0-3.1-2.4-4.6-5.3-5.4l-10.2-3.1c-8-2.4-12.1-6.6-12.1-13.4 0-8 5.9-14.5 20.9-14.5 13.2 0 19.4 5 19.4 13.7v2h-13.1c0-4.8-1.7-7.2-6.4-7.2-3.7 0-6.8 1.8-6.8 5.2 0 2.3 1.5 4.3 6.3 5.6l8.8 2.5c9.2 2.6 12.5 6.5 12.5 13.8 0 10.1-8.9 15.1-21.1 15.1-16.3 0-20.9-6.1-20.9-15.3v-1.7h13"/></g><path d="m182.5 62.3c-21.1 0-30.6 17.7-39.8 34.8-8.3 15.3-16.1 29.7-31.4 29.7-6.2 0-12.1-2.5-16.5-6.9-4.8-4.8-7.5-11.3-7.5-18.3 0-13.9 10.8-25.2 24-25.2 14.7 0 22.8 14.1 22.8 14.2l.7 1.2 7.5-12.9-.1-78.299994-14.7 14.399994v50.7c-5.2-2.5-10.8-3.9-16.2-3.9-15.5 0-29.2 9.4-35.3 24.1-6.6-13.4-19.7-21.9-34.8-22.1-22.7 0-40.400012 17.3-40.400012 39.3.1 21.5 18.200012 39 40.300012 39 12.6 0 20.9-6.1 27.8-11.9l.7-.6-10.8-10.2-.5.5c-5.1 5-10.7 7.5-17.1 7.6-13.1 0-22.4-9.5-23.6-18.4 0 0 0-.3-.1-.4h56c3.3 18.6 19.5 32.6 37.9 32.7 22.3.1 32.8-19.2 42.1-36.3 8-14.7 15.5-28.6 29.2-28.2 13.5.3 24 11.4 24 25.2 0 13.9-10.8 25.2-24 25.2-10.5 0-18.6-7.2-23.7-12.6l-9 15.1v62.6l14.5 11.3v-66.1c6.4 2.8 12.5 4.3 18.2 4.3 21.3 0 38.7-17.9 38.7-39.9-.1-21.8-17.5-39.7-38.9-39.7zm-165.4 32.9c1.7-3.8 8.4-16.9 23.4-17.1 15 0 21.3 13.3 22.8 17.1z" fill="#c4122f"/></svg>