<svg fill="none" height="43" viewBox="0 0 129 43" width="129" xmlns="http://www.w3.org/2000/svg"><path d="m21.5 42c11.3218 0 20.5-9.1782 20.5-20.5s-9.1782-20.5-20.5-20.5-20.5 9.1782-20.5 20.5 9.1782 20.5 20.5 20.5z" fill="#fff" stroke="#bec3c5" stroke-width="2"/><g clip-rule="evenodd" fill-rule="evenodd"><path d="m18.4541 18.454c1.094 1.094 2.884 1.094 3.9775 0l10.293-10.29245c-1.4705-1.2525-3.15-2.2635-4.979-2.976l-9.2915 9.29095c-1.094 1.094-1.094 2.8835 0 3.9775z" fill="#7cb13f"/><path d="m24.4204 24.4211c1.094 1.094 1.094 2.8835 0 3.9775l-7.955 7.955c-1.094 1.0935-2.8835 1.0935-3.9775 0-1.094-1.094-1.094-2.8835 0-3.9775l7.955-7.955c1.0935-1.094 2.8835-1.094 3.9775 0z" fill="#d71d62"/><path d="m16.4653 20.4435c1.094 1.094 1.094 2.884 0 3.9775-1.094 1.094-2.8835 1.094-3.9775 0-1.094-1.0935-1.094-2.8835 0-3.9775s2.8835-1.094 3.9775 0z" fill="#336a2d"/><path d="m26.4092 10.4992c1.094 1.094 1.094 2.8835 0 3.9775s-2.884 1.094-3.9775 0c-1.094-1.094-1.094-2.8835 0-3.9775 1.0935-1.09399 2.8835-1.09399 3.9775 0z" fill="#336a2d"/><path d="m18.4541 30.3869c1.094 1.094 1.094 2.884 0 3.9775-1.094 1.094-2.884 1.094-3.9775 0-1.094-1.0935-1.094-2.8835 0-3.9775 1.0935-1.094 2.8835-1.094 3.9775 0z" fill="#861450"/><path d="m36.3531 12.4885c1.094 1.094 1.094 2.8835 0 3.9775s-2.8841 1.094-3.9776 0c-1.094-1.094-1.094-2.8835 0-3.9775 1.0935-1.094 2.8836-1.094 3.9776 0z" fill="#861450"/><path d="m30.3867 18.4543c1.094 1.094 1.094 2.884 0 3.9775-1.094 1.094-2.8839 1.094-3.9774 0-1.094-1.0935-1.094-2.8835 0-3.9775 1.0935-1.094 2.8834-1.094 3.9774 0z" fill="#d71d62"/><path d="m32.3755 28.3986c1.094 1.094 1.094 2.8835 0 3.9775s-2.884 1.094-3.9775 0c-1.094-1.094-1.094-2.8835 0-3.9775 1.0935-1.094 2.8835-1.094 3.9775 0z" fill="#2994d2"/><path d="m16.4653 8.51093c1.094 1.094 1.094 2.88347 0 3.97747s-2.8835 1.094-3.9775 0-1.094-2.88347 0-3.97747 2.8835-1.094 3.9775 0z" fill="#08589b"/><path d="m10.4995 26.4094c-1.094-1.094-2.884-1.094-3.9775 0l-1.3365 1.336c.7125 1.8295 1.7235 3.5085 2.976 4.979l2.338-2.3375c1.094-1.094 1.094-2.8835 0-3.9775z" fill="#861450"/><path d="m18.4541 6.522c1.094 1.094 2.884 1.094 3.9775 0l1.989-1.989c.0735-.0735.13-.1575.1935-.2375-1.0305-.1905-2.0915-.2955-3.1765-.2955-1.303 0-2.571.148-3.793.4205-.0305.758.234 1.526.8095 2.1015z" fill="#d71d62"/><path d="m10.4995 18.4542c1.094-1.094 1.094-2.8835 0-3.9774-1.094-1.094-2.884-1.094-3.9775 0l-1.7145 1.7139c-.5235 1.657-.8075 3.419-.8075 5.2465 0 .9245.0735 1.8321.213 2.7181.482-.118.94-.3545 1.3145-.729z" fill="#2994d2"/><path d="m34.3643 22.4322c-1.094 1.094-1.094 2.8835 0 3.9775 1.0155 1.0155 2.6244 1.0755 3.7259.205.51-1.6365.7845-3.375.7845-5.177 0-1.0855-.1044-2.146-.2949-3.177-.08.064-.164.12-.238.194z" fill="#08589b"/><path d="m26.4092 34.3644c-1.094-1.094-2.884-1.094-3.9775 0l-3.9775 3.9775c-.074.074-.13.158-.194.238 1.031.1905 2.092.295 3.1775.295 1.8015 0 3.5405-.2745 5.1765-.784.8705-1.1015.8105-2.7105-.205-3.7265z" fill="#7cb13f"/><path d="m57.334 17.8145c-1.1365 0-2.0275.3605-2.672 1.081-.6445.721-1.0135 1.743-1.1075 3.0675h7.5235c-.0235-1.3245-.369-2.3465-1.037-3.0675-.668-.7205-1.5705-1.081-2.707-1.081zm.756 16.5585c-3.164 0-5.637-.873-7.418-2.619-1.7815-1.746-2.672-4.219-2.672-7.418 0-3.293.8235-5.839 2.4695-7.6375 1.6465-1.799 3.923-2.6985 6.8295-2.6985 2.777 0 4.9395.791 6.486 2.373 1.547 1.582 2.3205 3.7675 2.3205 6.5565v2.602h-12.674c.059 1.523.51 2.7125 1.3535 3.568.844.8555 2.0275 1.2835 3.551 1.2835 1.1835 0 2.3025-.123 3.3575-.3695 1.0545-.246 2.156-.6385 3.3045-1.1775v4.1485c-.9375.4685-1.9395.8175-3.006 1.046-1.066.2285-2.367.3425-3.902.3425z" fill="#666b6e"/><path d="m69 34v-25h5v21h10v4z" fill="#666b6e"/><path d="m87 34h5v-19h-5zm0-23.5081c0-1.66142.8336-2.4919 2.5-2.4919 1.6668 0 2.5.83048 2.5 2.4919 0 .7915-.2082 1.4075-.625 1.8474-.4164.4405-1.0414.6607-1.875.6607-1.6664 0-2.5-.8362-2.5-2.5081z" fill="#666b6e"/><path d="m108 19h-5v15h-5v-15h-3v-3l3-1v-1c0-2.238.6075-4.422 1.709-5.453 1.101-1.0315 2.865-1.547 5.291-1.547 1.852 0 3.498.2755 4.939.826l-1.451 3.6835c-1.078-.3395-2.574-.5095-3.488-.5095-.762 0-1.313.2255-1.653.6765-.339.4515-.347 1.6205-.347 2.3235v1h5z" fill="#666b6e"/><path d="m119.334 17.8145c-1.137 0-2.027.3605-2.672 1.081-.644.721-1.014 1.743-1.108 3.0675h7.524c-.023-1.3245-.369-2.3465-1.037-3.0675-.668-.7205-1.571-1.081-2.707-1.081zm.756 16.5585c-3.164 0-5.637-.873-7.418-2.619-1.782-1.746-2.672-4.219-2.672-7.418 0-3.293.823-5.839 2.469-7.6375 1.647-1.799 3.924-2.6985 6.83-2.6985 2.777 0 4.94.791 6.486 2.373 1.547 1.582 2.32 3.7675 2.32 6.5565v2.602h-12.673c.059 1.523.51 2.7125 1.353 3.568.844.8555 2.027 1.2835 3.551 1.2835 1.183 0 2.302-.123 3.357-.3695 1.055-.246 2.157-.6385 3.305-1.1775v4.1485c-.937.4685-1.94.8175-3.006 1.046s-2.367.3425-3.902.3425z" fill="#666b6e"/></g></svg>