<?xml version="1.0" encoding="UTF-8"?>
<svg width="290.05" height="320.05" version="1.1" xmlns="http://www.w3.org/2000/svg">
 <path d="m80.85 120.8c3.1-1.65 4.9-3.65 5.2-6 0.5-2.1-1.4-1.9-1.85-1.5-1.75 1.4-4 3.55-6.15 5a22.5 22.5 0 0 0-3 0.40001c-0.25-0.1-0.55-0.5-0.4-0.65 1.95-1.25 4.1-2.5 5.5-4.15 0.9-1.05 0.5-2-1.25-2.2-1.95-0.3-4.25 0.5-6.05 2.1-3.05 2.6-4.5 8.35-4.8 12-0.65 0.59999-0.85 0.59999-1.5 0.89999a15.2 15.2 0 0 1 1.6-11.85c0.3-0.75 0.1-1.95-1-2.3-0.65-0.25-0.95-0.1-1.25 0.6-1.5 4.3-4.1 6.15-7.75 8.85-0.35 0.3-3.65 2.1-4.5 2.6-2.9-0.9-6.15-6.3-8.9-10.35a2.5 2.5 0 0 0-2.4-1.05c-6 0.65-10.45 0.19999-13.65-4.5-1.45-1.95-2.1-2.3-3.9-0.6-2 2.1-4 3.7-6 5.4-1.05 0.65001-1.8 0.45001-2.25-0.89999a37.85 37.85 0 0 1-2-12.6c0-1.8 0.2-4.5 0.25-6.25a15.4 15.4 0 0 0-3.8-2.55c-5.05-2.4-10.9-8-10.95-9.65 0-0.39999 0.3-1.4 1.7-2.2 7.35-3.25 13.05-0.5 15.25-0.85001 1.85-0.15 2.45-1.5 2.15-4.15a14.5 14.5 0 0 1 4.7-13c2.5-2.65 2.3-5.6 1.7-8.85-0.3-1.5-0.65-1.9-2.15-1.75-4 0.9-3.8 1-4.55 4.5-0.45 2.25-1.25 4.55-2.5 6.4-1.6 2.55-3.75 4.7-5.65 6.95-0.65 0.90001-1.4 0.90001-2.35 0.30001a13.1 13.1 0 0 1-5.15-16.55c0.65-1.75 1.6-3.6 2.65-4.55l0.5 0.2c0 0.3 0 0.7-0.1 1l-1.2 3.7c-1.5 4.35-1.25 8.45 1.65 12.15 0.95 1.2 1.8 1.55 2.3 1 1.85-1.85 3.75-3.6 5.35-5.6 2-2.25 2.55-5 2-7.85a49.8 49.8 0 0 0-0.55-3.25c-0.3-1.55-0.95-1.45-1.7-0.5-1.8 1.8-2.65 3.25-3.5 6.6a2.6 2.6 0 0 1-0.85 1.2 3.5 3.5 0 0 1-0.4-1.75c0.5-3 1.2-5.65 3.1-7.6 1.25-1.35 0.95-2.1-0.25-2.45-4.3-1.2-8-2.4-11.25-6.4a3.6 3.6 0 0 1-0.9-2.2c0-0.85001 0.45-1.5 1.4-2.2 3.8-2.6 7.6-5.3 11.35-6.1 1.5-0.3 2.3-0.40001 3.05-0.50001-1.7-5.3-3.5-11.65-4.5-17.55 0-1.2 0.85-4.5 1.3-5.45 0.85-0.1 1.85-0.1 3.35 0.45 1.75 0.6 3.35 1.7 4.95 2.7 1.55 0.90001 2 0.90001 3-0.49999 1.75-2.55 3.75-4.8 6.4-6.15 0.9-0.45 1.5-0.75 2.1-0.75 0.85 0 1.5 0.5 2.35 1.8 1.45 2.35 2.7 5.05 4 7.5 1.5 2.55 3.1 2.7 5.4 1.05 2.55-1.7 4.85-3.35 7.2-5.3 2.2-1.7 2.8-1.7 5.2-0.05 2.15 1.5 4.5 4.25 5.65 6.65 0.25 0.44999 5.25-2.25 5.4-3.45 0.2-2.15 0.8-3.7 1.6-5.45 1.05-2.15 2.55-2.75 3.9-2.75 1.25 0 3.6 1.4 5.35 2.5l3.8 2.2c2 1.1 2.1 1.1 3.3-0.75 1.35-2.1 2.5-2.5 5.3-2.5 5.5 0 10.5 1.4 14.3 5.95 0.7 0.90001 1.35 1 2.2 0.15001 1.55-1.6 3-2.2 5.9-2.2h5.1c1.15 0 1.9 0.1 2.95-1.4 1.4-2 3-3.95 5.25-3.95 3.6 0 8.3 5.05 10.7 9.4l-1.25 0.65a25.6 25.6 0 0 0-9.4-5.9c-2.2-0.9-3.15 0-2.85 2.25 0.3 2.65 0.99999 5.35 1.65 8 0.75 2.45 2.9 4.6 5.3 5.65l0.15 0.9c-0.4-0.1-0.90001-0.25001-1.5-0.30001a10.95 10.95 0 0 0-4.7 0.15001c-3 0.75-5.75 2.05-8.45 3.2-1.35 0.65001-1.35 1-0.2 2.1 1.5 1.4 2.9 3 4.6 4.25 4.85 3.65 9.65 2.9 15 0.85001l2.5-0.85001c2.25-0.4 4.65 0.50001 6.5 2.2l5.4 4.85c1.7 1.65 2.1 3.1 1 5.15-1.75 3.45-3.7 6.95-5.65 10.3a3.35 3.35 0 0 1-1.25 1.3c-0.64999-0.5-1.25-1.75-0.59999-2.85 2.4-3 3.9-7.2 4.4-10.05 0.50001-2.8-0.99999-4.1-3.65-3.4l-2.25 0.85c-0.95001 0.35001-1.3 0-1.5-0.99999-0.35-0.85001-0.80001-1.4-1.1-2.3-0.59999-1.5-1.5-2-2.75-0.99999-2.25 1.4-3.85 2.8-5.2 5a18.95 18.95 0 0 0-2.1 11.65c0.05 0.5 0.44999 0.85 0.74999 1.15a2.15 2.15 0 0 0 1-1c0.70001-1.75 1.15-3.5 1.45-5.4 0.14999-1.05 0.29999-2.95 0.64999-3.9 0.25001-0.5 1.05-0.3 1.5-0.15 1.15 0.45 1.6 1 1.75 1.8-2.25 2.85-3.65 7.1-5.15 10.9-0.25 0.5-1.2 1.15-1.8 1.15-0.69999-0.05-1.65-0.65-1.85-1.25-0.90001-2.4-2.5-4.75-3.15-7.15-1.65-8.15-2.15-8.6-2.5-9.1a50.1 50.1 0 0 0-12.1-13.8c-0.4-0.40001-0.6-0.85001-0.9-1.2 0.45-0.2 0.8-0.6 1.25-0.75001 1.55-0.64999 3.15-1.25 4.75-1.8 2-0.74999 3.4-2 4.3-3.85 0.54999-1.05 1.3-2.1 1.9-3.15 0.85-1.5 0.75-2.3-0.35-3.6a7.75 7.75 0 0 0-7.9-2.45c-3.05 0.75-4.95 2.95-5.9 5.85-0.4 1-0.5 2.15-0.5 3.25 0 1.65 0.5 2 1.85 1.15 2.25-1.85 4.75-3.35 7.15-4.95-1.1 2.55-2.7 4.55-4.9 6-1.5 0.95001-3 1.75-4.5 2.6-1.25 0.89999-1.7 0.49999-2.1-1-0.35-1.6-0.2-3.25-0.2-4.85a10.6 10.6 0 0 0-7.1-10.65l-3.95-1.65a3.8 3.8 0 0 0-1.5 3.45c0.3 4.35 0.95 7.5 1.7 11.2 0.7 1.5 2.35 2.1 4.05 2.4 1-0.49999 1.8-1.9 0.45-4.1l-1.95-3.85c-0.2-0.49999-0.45-0.94999-0.6-1.5-0.05-0.20001-0.15-0.55 0-0.8 0.25 0.1 0.5 0.1 1 0.59999 2.5 2.7 4.5 5.75 5.8 9.55 0.5 1.5 0.05 2.1-1.4 2.25-3.3 0.3-6.65 0.5-9.85 1.2-5.25 1.1-7 3-8.9 6.5-0.8 1.5-1.2 2.45-1.25 3.35 1.85 0.15 3.95 0.05 6.95-0.5a19.9 19.9 0 0 0 7.2-2.35c1.4-1.65 2.5-3.3 4.6-4.8 0.6-0.45001 2-0.60001 2.55-0.30001a27.5 27.5 0 0 1 13.75 13.5c0.2 0.59999 0.8 1.2 1.1 1.7 0.6 0.69999 0.34999 0.94999-0.5 0.89999-1.2-0.35-2.5-0.64999-3.6-1.1-0.45-0.2-0.8-0.9-1-1.4l-1.1-3.1c-0.6-1.25-0.9-1.25-2.15-0.80001-0.65 0.25-1.35 0.50001-2.4 1-0.9 0.35-1.35 0.5-1.55-0.49999-0.3-1.5-0.7-3-1.05-4.35-0.6-1.65-1.25-2-2.85-1.2-3 1.55-5.2 3.85-6.7 6.85-1.4 2.9-1.95 4.9-0.65 12.6 0.3 1.5 1.5 3.35 2.9 3.8l13 4c0.65 0 1.05 0.75 0.25 1.25-1.6 1.1-3.35 2.05-5 3.1-0.85 0.5-1.3 0.24999-1.7-0.5a10.2 10.2 0 0 0-5.35-4.9c-0.85-0.4-1.3-0.25-1.65 0.65-0.6 1.4-1.25 3.45-1.8 4.9-0.3 0.75001-0.65 1.05-1.5 0.50001-3.7-3.1-7.6-3.25-12.15-2.65-2.25 0.3-3.3 0.9-2.75 3.15 1.25 6.25 6.7 9.15 11.35 11.15a3.15 3.15 0 0 0 1.6-1.25c0.7-1 0.5-2-0.5-2.9-1.8-1.55-5.6-3.35-7.5-5.05-0.3-1 1.85-1.9 3-1.15 3.4 1.55 6 4.35 8.7 7 1.4 1.35 2.05 1.2 2.5-0.75001 0.5-1.5 1-3.8 1.45-5.5 0.25-0.90001 0.8-0.6 1-0.05 0.35 1.3 0.75 3 0.75 4.5 0 1.6-0.55 3-1 4.5-0.3 1.5-1.45 2.3-2.7 2-5.75-0.55-10.1 2.15-13.65 2.25-0.8 0-2.5-0.5-3.35-0.90001-1.25-0.99999 0.6-1.1 1-1.1 1.5 0 3.75 0 4.95-0.65001-0.35-0.49999-1-1.05-1.55-1.45-3.2-2.6-6.8 0.15-9.55 1.55-1.55 0.85001-1.65 1.05-1 2.7 1 2.5 2.8 3.45 5.25 3.45 1.4 0 2.75 0.2 4.2 0.15a5 5 0 0 0 2-0.49999c1.85-0.70001 3.5-1.6 5.2-2.35 2.1-0.3 2.05 0.75001 1.1 1.8l-4.25 2.6c-0.45 0.25-0.95 0.4-1.25 0.7-0.6 0.45001-1.35 1.2-1.25 1.5 0.3 0.55001 0.9 1.15 1.6 1.4 2 0.60001 4 0.90001 5.9 1.35 3.1 0.6 4.4-0.25 5.25-3.3 0.45-1.7 1-3.3 1.8-4.85 0.5-0.99999 1.1-1.1 1.7-0.1 2.1 3.9 4.3 7.7 6.55 11.5 0.4 0.85001 0 1.25-0.8 1.15-4.85-0.50001-9.65-1.05-14.5-1.8-1.65-0.25001-3.25-1.3-4.9-2-2.5-1.15-5-2.2-7.85-2.1-2.45 0.05-3.85 1.5-3 3.85 1.1 3.35 2.35 6.8 3.7 10.15 0.95 2.3 3.2 3.15 5.65 3.35 1.15 0.15 0.75-0.65 0.45-1.2l-4-8.65c-0.5-1.45-0.1-1.65 0.7-0.45001 2.2 3.3 4.5 6.45 6.5 9.8 1.2 2.1-0.3 2.7-1.8 2.75-5.05-0.5-9.65-2.25-14.5-4.1-0.5-0.2-1.2-1.25-1.05-1.7 0.9-0.85 2 0 3 0 1.15 0.20001 1.65-0.3 1.2-1.2a4.6 4.6 0 0 0-2.45-2.25 29.85 29.85 0 0 0-7.2-2.6c-1.5-0.29999-2.5 0.35-2.2 1.7 0.4 1.75 1.2 3.3 2.1 5.1 0.25 0.5 0.25 1.2 0.1 1.7-0.9-0.05-2 0.25-5.75-1.35-3.75-1.55-3.8-2.6-3.8-7.2 0-1 0-2.95 0.2-3.85 0.4-1.25 0.5-1.5 1.65-1.3 3.9 0.79999 7.85 1.85 11.7 3.7 1.15 0.5 2.25 1.5 3.45 1.95 1 0.35 1.5 0 1.35-1a3.5 3.5 0 0 0-2.2-3c-4.1-1.75-8.2-3.7-12.3-5.35-1-0.4-1.35-0.85-0.8-1.9 1.65-2.7 2.5-5.85 1.8-9.25 0-0.25 0.3-0.60001 0.6-0.90001a2.5 2.5 0 0 1 1.85 2.3c0.3 2.9 2.25 4.9 4.15 6.85 3.85 4 3.85 4 9.25 2.7 0.7-0.1 1.2-0.6 1.8-0.99999-0.5-0.40001-1-1.1-1.7-1.4-1-0.5-2.1-0.80001-3.2-1.25-3.6-1.35-4.65-3.9-3.45-7.7a130 130 0 0 0 3.35-10.45c0.4-1.65 0.5-3.4 0.6-5.15 0-1 0.75-1 1.35-1.1l7.85-0.5c2-0.15 4.25-2.5 5.05-3.85l2.6-4.25a5.45 5.45 0 0 0-5.35-0.8c0.6-1.95 1.4-3.8 1.4-5.65 0-1.2-0.3-2.65-0.8-3.9-0.5-1.2-1.35-1.4-2.35-0.64999-1.9 1.6-3.5 3.5-4.1 6.1-0.6 2.6-1.7 7.35-1.15 8.2 1.2-0.9 2.8-2.1 3.85-2.4 0.5-0.15 1.35-0.05 1.8 0.3-1.75 1.65-3.85 3-5.8 4-1.45 0.65-2-0.2-1.75-1.6 1.7-6.5 0.65-7 0.1-10.2a37.5 37.5 0 0 0-4.85-11.2c-0.7-0.89999-1.8-0.6-3.3 1.2-2.4 2.9-3 5.35-4.25 10.35l-0.3 1-1.7 1.5-0.75-0.85c0.65-2.3 1.35-3.65 1.35-5.5 0-2.25-1-3.85-2.5-5.1-1.85 1.2-3.55 2.7-4 3.5a4.95 4.95 0 0 0 0.1 5.7c1.9 3.35 1.6 6.7 1 10.65l-0.5-0.15a44.4 44.4 0 0 0-1.4-7.6c-0.4-1.6-1.45-2.95-2.3-4.35-0.85-1.25-1.6-3.95-0.9-5.05 1-1.75 4.15-2.65 5.35-4.25 1.25-1.9 0.65-2.7 2.25-4.4 0.95-1.15 3-3.5 4.5-2.7 4.5 2.25 9.3 2.75 14.35 2.1 2.15-0.29999 2.6-0.24999 3.2-2.4 0.5-1.8 0.75-0.60001 2.55-1.2 3.05-1 4.65-3.75 4.65-7 0-1.8 0.1-3.65-0.1-5.5-0.15-1.6-0.75-3.15-1.25-4.6-0.4-0.95-1.05-0.75-1.5-0.05-1.25 1.65-3.35 4.9-4.5 6.7-0.65 1.05-1.2 2.1-1.75 3.2-0.3 0.85-0.7 1.05-1.45 0.25a16.3 16.3 0 0 0-2.65-2.3c-1.65-1.05-1.8-4.35-1.15-6.45 0.7 0.40001 1.2 1.2 1.65 2.25 0.6 1.4 0.9 3 2 3.5 1.45 0.74999 2.9-2.25 2.7-4.3 0-0.25-0.15-1-0.5-1.5-1.6-2.85-5.25-5.15-7.5-5.15-2.6 0-4.25 3.2-3.2 6.25 0.3 0.8 0.6 1.4 1 2.15-6.15 3.25-7.8 5.3-10.25 8.15-0.3 0.35-0.6 1.35-0.3 1.85 1.15 2.2 0.7 2.95-1.65 4.25-1.05 0.59999-2.5 1.15-3.6 1.5-0.15 0.1-0.45-0.15-0.75-0.2a1.5 1.5 0 0 1 0.3-0.60001c1.5-3.35 3.15-6.55 4.55-9.95 1.5-3.65-1.8-7.05-4.75-8.2-1.95-0.74999-3.5-0.29999-4.8 1.45-3.25 3.9-3.95 10.25 0.6 16.25 0.7 1 0.5 1.4-0.65 1.5-2.6 0.2-5.2 0.5-7.9 0.65a10.5 10.5 0 0 0-8 4.25c-0.6 0.90001-1.4 1.1-2.25 0.5-2.05-1.25-3.8-0.94999-5.95 0.3-3.5 1.85-7.6 3.3-9.85 3.3-0.35 0-0.8-0.3-1.1-0.6 0.2-0.3 0.5-0.74999 1.25-1 2.15-0.5 3.9-1.05 5.8-1.6 0.35-0.35001 0.5-1.2 0.7-1.55-0.35-0.50001-1.1-1.15-1.65-1.2a26.4 26.4 0 0 0-5.45 0c-4.75 0.44999-8.25 2.65-11.25 5.45-1.4 1.4-1.5 2.85 0 4 3.5 2.5 7.25 5 12 3.75 3.3-1.05 5.35-3.5 7.5-5.9 1.8-1.9 4-4.15 6.1-1.75 3.05 3.5 3.65 7.15 8.65 6.5 1.9-0.2 2.7-0.84999 3.2-2.65l0.4-2.15c0.15-1.4-0.6-2.1-1.95-1.55-0.9 0.3-1.7 0.80001-2.6 1-0.5 0.15-1.05-0.05-1.65-0.19999 0.05-0.50001 0.15-1.2 0.5-1.5 0.9-0.59999 2-1.1 3-1.55 3.75-1 7.3-1.75 11-2.5a3.2 3.2 0 0 1 1.15 0l-0.35 1.05c-1.35 3.1-3.15 4.05-5.6 4.65-0.3 0.3-0.9 1-1.35 2.4-1.55 5-0.65 10.2 2.7 13.8 1.2 1.35 2.7 2.45 4.25 3.4 2.6 1.5 3.3 4 4.25 6.65 0.6 1.65 1.25 3.3 2 4.95-2.1 1.5-3.85 3.25-5.05 5.4-0.5 0.49999-0.9 0.3-1.2-0.3l-1.45-3.55c-1.3-3.15-3.5-5.15-7-5.45-1.25-0.1-2.5-0.29999-3.7-0.44999-1.45-0.15-2.4 0.49999-2.9 2.15-1.95 6-0.1 11.2 5.65 14.4-4.6 1.15-8.4 3-10.75 6.2 0.25 0.89999 1.65 2.1 3.45 2.85 4.5 1.85 9.1 1.65 13.35 0.20001 2.5-0.90001 2.6-0.30001 3.05 1.5l1.25 5.6c0.3 1.35-0.45 2.1-1.7 1.65-6.85-2-15-5.3-20.9-9.25a31 31 0 0 0-7.75-2.3c-0.9 0.5-1.65 1.15-2.45 1a43.85 43.85 0 0 1-7.4-2.6c-1.2-0.69999-1.25-1.05 0.25-1.25 2.3 0 6.5 1 8.65 1 2.1-0.65001 2.1-1 0.8-1.9-5.05-4-10.75-3.05-16.4-2.1-2 0.40001-2.15 1.35-1 2.95 7.3 8.25 12.7 8.2 21.6 7.15 5.8 3.7 11.6 7 18.35 9.15l0.15 1c-4.85 0.29999-9.4 1.1-13.8 2-2.2 0.45-2.65 1.8-1.45 3.8 1.8 2.9 4.65 4.25 7.9 5.05 2.35 0.7 4.7 0.49999 7-0.45 2.7-1.25 4.45-3.5 7-4.9 1.5-0.8 4 0.1 5.5 0.5 2.3 0.75 4.5 1.75 6.85 2.1 9.3 1.25 19.2 2.1 27.85 1.4-1.05 2-1.8 3.9-2.5 5.85-0.45 1.2-0.05 1.5 1.2 1.4 1.8-0.05 3.6-1.1 4.35-2.5 0.15-1.4 0.15-2.65 0.45-4.05 0.15-0.75 0.35-1.8 0.85-1.9 0.35-0.05 2.5 0.3 2.25 0.9-0.75 2.2-1.4 3.85-2.3 6 0.8 0.15 1.65 0.3 2.5 0.3 3.5 0 4.05-0.5 3.9-4a14.5 14.5 0 0 0-0.45001-2.95c-0.45-2.6 0.1-4.4 2.35-5.6 2.2-1.1 4.5-0.75 6.7-0.5a41 41 0 0 1 18.95 8.55c2.75 2.2 0.35 5.25 0.35 9.4 0 2.6-0.49999 5.3-0.44999 6.65 0.1 2.15 1 3.3 1.8 3.9 2.4 1.85 5.05 3.7 7.6 5.35 2.6 1.7 3.9 2.75 7 3.8 0.7 0.19999 1.6 0.19999 2.2 0.14999a8 8 0 0 0-0.15-3.2c-1.5-1-3.6-1.5-6-2.3-0.45001-0.15001-0.90001-0.75001-1.15-1.3a4.5 4.5 0 0 1 1.75-1l3.9-0.84999c0.3-0.1 0.8-0.50001 1-0.85001-0.2-0.34999-0.49999-0.79999-0.8-0.84999-1.6-0.50001-3.7-0.85001-5.05-1.2-0.5-0.15-0.75-0.6-1.15-1.05a4.9 4.9 0 0 1 1.9-0.99999l4-0.50001a2.1 2.1 0 0 0 1.05-0.64999c-0.15-0.4-0.34999-0.90001-0.65-1.05-0.85-0.39999-4.95-1.9-5.4-2.35-0.35-0.35-0.45-0.85001-0.59999-1.5 0.59999-0.25 1.35-0.5 1.9-0.4l3.35 0.05c0.45 0 1-0.3 1.35-0.65001a3 3 0 0 0-0.9-1.05c-1.6-1-2.2-1.7-4-2.5-0.85-0.5-1.25-1-1.4-2.05 0.6-0.15 1.5-0.25 2.25-0.1 1.2 0.3 1.85 0.69999 3.15 0.9 0.35 0.1 1-0.05 1.4-0.15001a1.4 1.4 0 0 0-0.35-0.99999c-0.49999-0.5-1.15-0.75001-1.75-1.2-0.9-0.6-2.45-2.1-3.35-2.85-0.29999-0.25-0.14999-1-0.19999-1.25l0.99999 0.05c1.2 0.25 3 0.75 4 0.9 1.8 0.35 1.55 0.1 0.79999-1.2-1.1-0.99999-2.25-1.65-3.3-2.8-0.3-0.4-0.2-1.05-0.15-1.6 1.7 0.1 3.45 0.9 5 0.9 0.15-0.3 0.25-0.5 0.25-0.9a25.5 25.5 0 0 0-1.25-3c-0.45001-1.15 0.15-1.6 0.99999-1.25 1.2 0.50001 3.1 1.5 4.4 1.8 0.5 0.15 1.15 0 1.8-0.25-0.59999-1.2-1.3-2.15-2.1-3.35-0.14999-0.3 0-0.75 0.25-1.1 2.05 0.59999 4.15 2 6 2.5 0.85 0.35 1.4 0 1.6-0.4 0.15-0.5-1.35-2-1.25-2.6 0.05-0.4 0.15-0.5 0.35-0.75l3.5 1.1c2.55 0.65 4 0.9 4.4 0.30001 0.5-0.15-0.05-1.35-0.8-2.75 2-0.15 2.25 0.8 5.8 1.5 1.35 0.35 20.1-2.3 27.7-4.65 3-1 6.5-2.5 9.3-3.8l0.9 0.19999c2.15 5.5 6.7 7.2 11.35 7.7 1.35 0.15 2.8 0.25 4.25 0.29999 1.35 0 1.65-0.35 1.25-1.7a24 24 0 0 0-6.95-11.8l-3-1.85c-1.3-1.35-1.15-2.9 0.25-4 2.4-1.6 5.6-3.15 8-4.65 3.5-2.25 4.7-5.7 4.5-9.35a3.1 3.1 0 0 0-1.3-2.45 3.9 3.9 0 0 0-1.8 1.25c-0.94999 2-1.9 3.65-2.75 5.4-0.65001 0.34999-1.35 0.49999-1.95 0.75-0.15-0.6-0.5-1.2-0.35001-1.8 1.05-3.1 3.8-5.6 5.6-7.6 0.74999-1.25-0.35-1.75-0.9-1.65-2 0.45-4.2 1.2-5.7 2.9a40.3 40.3 0 0 0-7.9 16.35c-0.35 1.55-1 2.1-1.5 3.55-0.65 2.2-0.6 2.7 1.3 4.05 2.75 1.8 6.35 3.45 8.95 5.3 1.05 1.15 0.5 1.6-0.6 1.55a10.35 10.35 0 0 1-7.5-3.35c-1-1.1-1.85-1.8-3-1.95-2.7 0.7-6.45 1.8-9.25 2.2-1.6 0.30001-2.85 0.95-3.7 2.45-0.55 1.25-1.7 1.5-3 1-2-0.55-4-1.25-6-1.7a22.5 22.5 0 0 0-10 0.7c-1.35 0.2-1.65-0.1-1.25-1.4 0.35-1.65 0.9-3.25 1.2-4.85 0.05-0.69999 0.15-1.75-0.49999-2.1-0.65 0.29999-1.6 0.44999-1.9 0.89999-1.05 1.55-1.85 3.2-2.85 4.9-0.65 1.35-0.9 1.35-2.3 0.75001a25.5 25.5 0 0 1-5.65-3.45c-1.35-2.15-2.8-3.95-3.5-5.8-0.25-0.49999 0.5-0.89999 1.15-0.89999 1.5 1.2 3.3 2.7 4.65 4 0.9 1 1.2 2 1.8 3.3 0.15 0.3 1.6 0.25 1.85-0.29999 0.2-0.5 0.45-1.25 0.64999-2.3 0.50001-2 0.15-4.75-1.65-6.55-2.2-2.25-3.7-2.7-6.75-4.8-3.8-2.6-4.35-2.45-5.75 0.1-1.1 2.1-1.85 4.4-1.85 7 1 6.1 2.45 8.6 9.85 12.4a2.05 2.05 0 0 1-0.6 1c-0.5 0.4-0.75 0.65-1.6 0.65-2.6-0.1-6.25-0.15-9.1-0.4-0.8-0.05-1.3-0.3-1.5-0.74999a37.5 37.5 0 0 1 3.3-27 4.5 4.5 0 0 1 1.8-1.95c1.55-0.8 4-1.85 5.5-2.5 0.9-0.40001 1.35-0.1 1.75 0.8 0.65 2.4 0.9 4.1 1.1 6.15 0.1 1.25 0.15 2.5 0.64999 2.75 1.2 0.5 2.25-0.50001 2.85-1.5 2.25-3.65 2.85-7.75 1.2-12.15-0.15-0.4 0.2-1.2 0.65-1.45 5.1-2.05 9.85-4.15 15-6.15 2.9-0.15 6.6 0.15 11.75 1 0.85 0.1 2.65 1.6 4.5 2.65-2.35 1.2-5.8 3.7-8.2 6-0.64999 0.7-1.5 1.6-0.89999 3.5 2-0.1 3-0.65 4.5-1.1 2.3-0.65 3.75-1 5.6-1a10 10 0 0 1 1.5 0.20001 2.75 2.75 0 0 1-0.70001 1.55c-0.65 0.60001-1.7 0.50001-2.45 0.90001-0.75001 0.5-1.5 1.25-1 2.15 0.35 0.60001 1.35 1.3 2.05 1.2 2.4-0.15 4.6-0.45 7.1-1.2 1.1-0.89999 5.3-6.4 2.9-6.9-1.35-0.3-4.25-0.5-5.5-1.15a2.5 2.5 0 0 1 1.5-1.7c1.3 0.2 2.8 0.6 4.8 0.8a29.5 29.5 0 0 0 9.85-0.45c1.35-0.5 1.8-1 1.35-1.85a15.5 15.5 0 0 0-9.15-8c-1.8-0.5-4-0.1-5.85-0.1l-16.1-0.15c-0.35 0-0.75001-0.30001-1.1-0.50001 0.3-0.25 0.60001-0.55 0.90001-0.7 1.5-0.9 3.25-1.65 4.75-2.7 2.3-1.55 3.75-3.8 4.4-6.65a2.75 2.75 0 0 0 0-1.55c-1.5-5.5-4.5-9.5-10.75-10.2l-3.1-0.49999c-1.15-0.1-1.6 0.4-1.6 1.45 0 1.95 0.1 3 0 5 0 0.99999 0.49999 1.35 1.65 1.5a38.5 38.5 0 0 1 8.5 2.45c1.65 0.65 2 1.65 0 3.35l-4.5 3.2c-0.79999 0.5-1.15 0.1-1.25-0.64999-0.1-1.2-0.1-2.5-0.30001-3.65a2.5 2.5 0 0 0-0.65-1.15 3.3 3.3 0 0 0-2.4 2c-0.60001 1.6-1 3.1-1.25 4.65a4.9 4.9 0 0 1-3.45 4c-0.90001 0.25-1.7-0.1-1.55-0.94999 0.15-1 0.35-2 0.64999-3 1.45-3.5 2.2-6.5 1.9-9.8a70.5 70.5 0 0 1-0.49999-6.9c-0.1-1 0.49999-1.9 1.5-2.2 2.7-1.05 5.25-2.1 8.1-3 0.94999-0.35001 1.75 0.05 2.5 0.99999l5.7 6.7c1.5 1.6 1.9 1.55 3.2-0.25 1.2-1.7 2.5-3.25 4.4-4.3 1-0.5 1-1.45-0.15-1.9-2.15-0.79999-4.3-1.25-6.55-2-0.5-0.15-1.05-0.15-1.6-0.35-0.35-0.15-0.8-0.6-0.8-0.90001 0-0.29999 0.45-0.74999 0.8-0.89999 4.1-1.45 7.5-2.8 11.15-4.2 1-0.44999 1.5-1.25 1.35-2.3-0.1-1.35-0.5-2.5-0.7-3.8-0.2-1.2-1-2.1-2.25-2.25-5-0.5-8 0.9-11.4 4.4a3.1 3.1 0 0 0-0.79999 2.75c0.59999 0.1 1.1 0.1 1.55-0.05 2.4-0.7 4-1.4 5.35-2.25 0.9-1 1.6-2 2.1-2 0.3 0 0.85 1.25 1 1.7-0.5 0.59999-1 1.2-4.95 2.9a114.15 114.15 0 0 1-21.9 7.55c-1 0.1-0.95-0.54999-0.70001-0.99999 1.4-2.45 3-5 4.55-7.6 1.5-0.9 1.9-0.5 1.35 0.9-0.45001 1.05-1 2-1.65 3.1-0.15 1 0.3 1.25 0.89999 1.15a8.4 8.4 0 0 0 6.2-7.45c0-1.25-0.59999-1.7-1.9-1.65-1.9 0.15-4 0.3-5.85 0.85-3.5 0.9-5.6 3.35-6.75 6.55-0.49999 1.5-0.79999 3-1.1 4.55-0.30001 1.65-1.7 2.25-3.15 3.05-2.45 1.5-3.7 1.2-5.8 1.6a34.5 34.5 0 0 0-5.25 1.2c0-0.6-0.15-1.15 0-1.5 1.2-1.9 2.25-3.75 3.5-5.5 1.75-2.55 1.3-4-1.5-5a10.4 10.4 0 0 0-12 4.2c-1.5 2.4-2.6 5.25-3.65 7.85-0.65 1.55 0 2.5 1.65 2.85 2.55 0.45 5.6-0.49999 7.9-1.15-0.15 0.75-0.2 3.65-0.45 4.25l-1.5 3.25c-0.95 1.6-2 2.15-3.75 1.3a79 79 0 0 1-7.85-4.25c-3-1.75-5.9-3-9.25-3a4.5 4.5 0 0 1-1-0.1c-1.1-0.25-1.15-0.6-0.49999-1.3 0.84999-0.85001 0.89999-1.7 0.39999-2.75l-3.45-6.4a17.5 17.5 0 0 1-1.65-3.75c0.85001-0.15 4 0.89999 4 1.5 0.25001 3.5 1.3 6 3.15 8.2 1.4 1.4 2.7 0.5 2.85-0.90001 0.25-1.85-2.25-4.85 1-11.75 1.4-3.1 5.7-8.4 8.5-8.4 1.5 0 2.75 0.65 3.65 2.85 0.5 1 0.85001 3.4 1.3 4.4 0.4 1 0.9 1.5 2 1.4 2.7-0.35 6.45-2 9.5-2.4 1.95-0.3 3.45 4.55 4.4 6.3 1.5 2.6 2.2 4.85 3.9 2.05 2.9-4 4.25-8.5 7.35-9.9a21.65 21.65 0 0 1 12.6-2.15c1.35 0.15 1.75 0.65 1.45 2-0.25001 0.8-0.30001 1.65-0.50001 2.5-0.3 0.95 0.55001 1.3 1.6 0.5 1.45-0.85 2.5-2 3.5-3.3 2.6-2.8 5.2-4.2 10.3-4.2 2.4 0 4.25 0.5 6.4 1.25 1.65 0.6 1.9 0.85 1.45 2.5l-1.45 4.8c-0.49999 2.2-0.14999 2.5 1.8 3.6 1.7 1 3.05 1.7 4.1 3a3.5 3.5 0 0 0 2.15-0.75 25.85 25.85 0 0 1 9.25-10.45c1.6-0.9 2-0.8 2.65 0.75 1.35 3.4 2.1 6.35 2.35 9.55 1.8-2.1 3.9-4.35 5.4-6 5.4-5.1 10.75-5.05 18-3.25 1.8 0.5 0.4 2.3-0.65 3.7l-1.4 2.1c-0.44999 0.75-0.8 0.8-1.4 0.15-0.9-1.05-1.8-2.9-2.7-3.8-1.65-1.65-4.55-0.7-6.55 0.5a26.85 26.85 0 0 0-9.7 9.95 52.5 52.5 0 0 1-8.5 10.05c-1.3 0.49999-1.3 0.44999-0.99999-0.90001a35.75 35.75 0 0 0 5.9-18.55 4.45 4.45 0 0 0-3.45 0.74999c-5 2.8-7.5 12.75-8.2 19.4-0.14999 1.4-0.14999 2.5-1.4 3.2-2.1 1.2-2.9 1.7-5 2.65-0.49999 0.1-0.79999 0-1.25-0.05 1-4.4 0.3-7.5-2.25-11.65-0.45-0.80001-1-1.2-1.95-0.9-0.5 0.29999-1 0.69999-2.15 1.6a18.85 18.85 0 0 0-5.9 14.45c0 0.99999 1 0.99999 1.7 0.49999 0.9-0.74999 1.35-1.35 1.9-2.3 1.25-2.1 2.3-4.3 3.5-6.4 0.2-0.50001 0.8-0.85001 1.25-1 0.25 0.5 0.25 1.05 0.15 1.5l-0.9 4a12.5 12.5 0 0 1-4 5.5c-0.35001 0.5-0.60001 1.4 0.39999 1.5 4.3 0.19999 6.8-0.3 10.5-2.25 3.9-2 6.5-3.65 8.2-3.45 1.15 0.15 7 1.85 7.5 2.25-0.30001 0.59999-0.75001 0.79999-1.1 1.2-0.6 0.50001-3.45 2.05-4.7 3.1-2 1.65-2.7 2.4-2.3 5.75 0.2 1.5 0.45 2.9 0.8 4.35 0.14999 0.45 0.49999 1.1 0.8 1.2 0.5 0 0.99999-0.4 1.3-0.75 1.65-2 3.2-4.2 4.85-6.2a3.8 3.8 0 0 1 1-0.6c0 0.4 0.1 0.75 0 1-0.35 2.45-1.6 4.3-3.1 6.1l-1 1.25c-1.3 1.85-1.4 2.15-0.1 4 1.5 2.2 1.75 4.65 1.25 7-0.34999 1.75-0.89999 4.35-1.25 6.9-3.15 1.45-6.35 3.5-9 5.3-1.7 1.5-2 2.7-2 3.05 0.8 1 1.55 1.15 3.1 1.8 2.2 0.70001 6.3-0.15 7.05-2.5 0.25-0.55 0.49999-1.6 0.49999-2.55 0.80001 0.15 1.5 0.15 1.7 0.80001 0.80001 2.5 1.5 4.2 3.1 5.85-0.19999 0.65001-0.49999 1.15-1.2 2.2-0.94999 1.55-1.75 2.9-3.1 2.6-0.50001-0.05-1.05-0.2-1.65-0.2-1 0-2 0-1.85 1.8 0.20001 2.3 0.50001 3.35 0 5.7-0.3 1.3-0.69999 2.7-2 2.65-3.15-0.25-5.2-2.55-8.25-2.5-2.6 0.1-4.4-0.34999-5.75-1-1.6-0.84999-2.75-1.75-3.5-2.2-12.65 2.1-26.6 4.65-37.45 7-1.15 0.25-1.1 1-1.3 2.2-0.6 2.75-1.65 5.45-2.1 8.2-0.1 0.45 0.5 1 0.79999 1.4 0.30001-0.3 0.75001-0.5 1.05-0.9 0.65-0.95 1.1-2.05 1.85-3 1.3-1.4 4.7 0.1 5.3 2 0.50001 1.15-1.1 1.7-0.99999 3 0.1 1.1 1.7 2.1 1.7 3.5 0 1.25-0.5 2.05-0.70001 2.7 4.7 3 5.85 5.5 6 9.4 0.14999 1.2 0.14999 1.8 0.8 2.5 0.65 0.64999 1.7 1.6 2.15 2.2 2.2 2.55 4.2 6.6 5.7 7 0.75001 0.25 2.65 0.40001 4.1 0.25l0.29999 0.8c-0.49999 1.15-1.8 2.55-3 2.95-3.45 1.1-5.15-4.05-7-7a25 25 0 0 0-2.9-3.85c-1.5 1.65-4 8.3-3.8 11.45 0.99999 4.25 3.5 8.45 5.15 11.5 1.15 1.9 3.4 2.55 5.6 3.4 1.85 0.65 3.2 1 5.1 0.45 1-0.25 1.35-0.3 1.8-0.65l-0.05-3.85c0.50001-7 1.6-14 2.05-20 0-1.6 1.2-4.3 3.25-5.7 2.15-1.5 3-3.5 2.9-6.05a4.75 4.75 0 0 1 0.5-2.5c0.7-1.4-0.65-1.4-2-1.6-1.5-0.25-1.85-0.8-1.1-2.15 1.4-2.35 3.4-4.35 5-6.6 1-1.6 1.5-2.75 1.85-3.7-0.4-1.95-0.25-4.85 1.7-4.95 6.35-0.75001 9-0.20001 13.05 2.85 0.25 0.4 0.3 1 0.3 1.5s1.15 0.9 3.3 3.05c1.65 1.55 3.25 5.9 0.44999 12.6 1.4 0.85 1.35 2.15 1.2 3.65-0.1 1.3 0.29999 1.5 1.5 1.95 1.5 0.49999 2.3 1.4 3.55 4.5 1.1 3 4.35 10.85 6.25 30.1-0.35 6.05-1.4 10.5-2.6 15.45 1.3 9.25 2.75 20.6 3.9 36.15 0.94999 14.7 1.2 22.25 1.5 28.3 2.6 0.2 3.4 0.75 3.95-1.45l0.5-2.05c0.50001-1.45 1.95-0.95 2-0.15l1.6 4.7c0.35001 1.35 0.75 2.2 1.25 3.5 1.75 2.4 2.5 0.3 2.5-1.45 0.19999-1.5 0.19999-2.75 0.19999-4.1 0.3-1.75 1.2-1.85 1.85-0.65l2.3 5.45c0.85 1.9 1.75 2.4 2.1 1.25 0.29999-1.55 0.34999-4.3 0.29999-6.5-0.34999-1.25-0.9-2.6-1.1-3.7 0-1.5 1.2-1.2 1.5-0.74999a174.5 174.5 0 0 1 8.15 10.65c1.5 0.9 2.4-0.65 2-1.25-0.1-0.6-0.85-1.35-0.85-2.55 0.2-1.9 2-1.05 2.4-0.35 1.65 1.65 2.75 3.8 3.7 5.55a3.5 3.5 0 0 0 1.5 0.75c0.34999-0.5 0.49999-1.25 0.44999-1.75-0.1-0.6-0.79999-2-0.99999-2.65 0.7-1.15 2.1 0.3 2.55 0.75 0.50001 0.5 1 1.35 1.65 2.4 0.90001 1.4 2.4 2.6 5.7 3.05 0.05 0.3 0.2 0.7 0.2 1-0.45 0.3-1.2 0.65-3.2 1-3.45 0.7-7.75 0.8-12.5 0.25a14.5 14.5 0 0 0-9.2 2c-2 1.15-4 1-6.35 0.9-4.5-0.2-9-0.2-13.6-0.3-9.5-0.25-14.25 1.65-25 2.2-3.5 0-10.8-1.8-10.8-4.05 0-1.55 0.9-2.85 0.9-3.65 0-1-0.2-1.25-1.1-1.5-7.65-1.35-15.2 0.4-22.15 1.7-5.9 0.9-9-0.05-12.1-2.5a15.65 15.65 0 0 1-4.3-4.55 61.1 61.1 0 0 0-11.95-11.35c-5-4-11.35-11.25-15.3-16.25-0.9-1.05-2.45-6.15-3-7.6a15.3 15.3 0 0 1-0.70001-6.6c0.60001-0.5 1.35-1.1 1.9-1.15 3.35-0.1 7.5-1.7 7.65-2.7 0.35-0.75-0.2-1.4-0.85-1.2-1.75 0.3-4.15 0.3-5.9 0-1-0.15-2.2-0.6-2.65-1.1 0.60001-0.75 1-1.3 1.65-1.65a17.55 17.55 0 0 0 7.8-3 1.9 1.9 0 0 0-0.2-1c-2.2-0.1-3.9-0.1-6.35-0.7a5.65 5.65 0 0 1-2.4-1.4c0.64999-0.85 0.99999-1.15 1.8-1.5 2.8-0.90001 4.85-2.25 6.75-4l-0.05-1.1c-2.25-0.05-5-0.2-7.6-0.8-1.15-0.6-1.25-0.7 0.05-2.1 1.8-0.45 5.1-0.75 6.9-1.35 1.35-0.7 1.1-1.85-0.25-2.25a41 41 0 0 1-6.5-0.7c-1.35-1.2-1.5-1.3 0.25-2.1l5.75-1.2c2.2-0.75 1.85-2.15 0-2.7-1.75-0.2-2.95-0.6-4.7-0.9-2.3-1.15-2.25-1.25-0.4-2l3.65-1c1-0.25 2-0.65 2.2-1.4a1.1 1.1 0 0 0-0.1-0.75c-1.55-0.45-4.7-0.15-6.1-0.6-0.50001-0.1-1-0.65-1.3-1.3l1.35-0.75c1.7-0.4 3.6-1.15 4.95-1.9a4.35 4.35 0 0 0 0.54999-1.25 3.25 3.25 0 0 0-1-0.5c-1.8-0.5-2.85-0.9-4.65-1.6-1-1.25-0.95001-1.5 0.4-2.05l2.6-0.70001a16.65 16.65 0 0 0-1.3-2.6 2.6 2.6 0 0 0-0.90001-0.90001c-1.5-0.9-3.65-1.8-5.25-2.85-3-1.85-6.15-3.65-8.5-6a19.5 19.5 0 0 1-6.3-10.3c-0.45-2.5-0.5-5.15-0.05-7.6 0.3-1.9 1.35-3.9 2.35-5.7 0.40001-0.64999 0.70001-1.25 0.30001-1.8-1.5-1.9-2.75-3.25-4.65-5a7.9 7.9 0 0 0-2.95-1.5c-5.95-1.05-9.6-2.25-12.3-1.9a9.5 9.5 0 0 0-2.3 3.45c0.5 2 1.5 5.1 1.55 7.65 2.2 0.25 4.8 1 7.5 2.5 2.15 1.4 2.65 2.15 3.5 4.8 1.85 6 2.35 13.65 3.65 21.85 1.15 7.8-2.95 14.25-10.85 14.55-4.3 0.2-7.8-0.65-8.95-3.55-1.4-4.1-2.45-7.55-3.8-11.65-5.6 1.4-11.5 3.3-17.5 6.2-5.25 2.5-9.55 4.9-15.1 7.15-10.55 4.35-22.2 7-32.65 7-5.5 0-11.65-1.1-15.9-2.8-3.8-1.5-5.15-3.05-6-7.85a45.55 45.55 0 0 1-0.2-12.3c0.5-4 1.15-6.8 3.9-14.3 1.2-3.3 2.75-4.85 5.3-6.15a28 28 0 0 1 13.8-2.75c1.65 0.1 3.8 0.35 5.3 1 3 1.1 3.45 3.5 3.55 6.5 0 1.75 0.1 3.5-0.05 5.25-0.15 1.4-0.1 1.95-0.1 2.5 3.8 0.54999 11.75 0.34999 15.5-0.5 3.1-0.65001 4.35-1.15 10-3.8 3.9-1.75 9.2-5.7 15.35-8.9zm119.7 66.85c0.35 0.75 1.2 4.5 1.2 5.8 0 3.05-0.25 5.85-0.60001 10.6-0.5 6.2 0.15 12.5-0.7 18.6-0.34999 3-1.1 7.65-0.85 11.75 0.05 1.65 0.30001 2.1 1.25 2.3 3 0.70001 5 1 6.5 1 4.6 0 7.6-2.1 7.2-4.65a62.5 62.5 0 0 1-2.15-17.2l1.2-0.1c1.7 7 3.15 10.45 3.65 14.1 0.6 3.3 0 8.95 0.65 11.85 7.7 0.85 16.9 0.1 19.7-0.5 0.70001-6.3 0.50001-12.75-2.25-15.15-1.15-1.05-4.6-3.65-6.1-4.65a34.45 34.45 0 0 1-8.2-9.1c-3.3-5.2-4.2-6.85-7.1-11.9-2.7-4.7-4.5-8.75-6.35-11.5-1.15-1.85-2.15-3-2.65-3.5-2.4-0.75-4.4-1-7-1.3-3.25-0.35-5.4-0.69999-7.25-2.75-1.6-1.6-2.25-2.9-1.3-5.05 0.50001-1.15-0.15-1.95-0.99999-2.9-0.95001-1.2-0.70001-2.5 0.5-3.4 2.85-2.8 5.5-4.2 9.25-5.2l-0.6-2.6c-1.5 0.2-3.15 0.65-6.15 0.65-4.15 0-7.9-1.7-9.4-7.15-0.55001-1.95-3-7.45-3.7-9.9-0.50001-1.5 0.05-3.35 0.75-5.5-1.3-1.6-2.4-3.4-3.5-4.9-2.25-0.95001-4.95-1.9-6.75-4.1-0.75-0.89999-1.1-0.94999-1.75-0.49999-0.6 0.44999-0.75 1.1-1.6 1.85-0.8 0.69999-2.45 0.74999-4 0.1-1.5-0.59999-2.25-2.15-2.2-3.65 0.15-2 1.15-3.75 0.25-4.55-1.55-1.65-3-3.5-1.15-4.8 0.5-0.45 1.65-0.35 2.35-0.7a5 5 0 0 0 2.4-5.6c-0.4-1.65-1.3-2.4-2.95-2.55-2.35-0.15-3.4-1.35-3.4-2.9 0-2 1.75-2.85 3.35-2.5 0.65 0.15 1.55 0.5 2.1 1 0.15 0.75 0.5 1.8 1.1 1.7 2.7-0.3 4.8-3.1 4.8-5.75 0-0.9-0.59999-1.35-2.35-0.95-3.2 0.50001-7.2 1.7-11.15 3.05-2.2 0.75-2.5 2.5-1.3 4.5 0.4 0.45 0.7 1 1 1.5 0.5 0.8 0.3 1.4-0.5 1.85l-1 0.75c-1.2 0.9-1.35 1.9-0.6 3.25 0.2 0.49999 0.5 0.85 0.9 1.2 0.9 0.79999 0.9 1.5 0.05 2.5a3.8 3.8 0 0 0-0.8 4.05c0.35 1.15 1.25 7.65 1.25 8.9-0.05 3.35 0.6 6.7 0.4 9.85-0.15 2.3 1 4.3 3.2 6.8 2.4 2.65 4.15 5.05 7.4 8.2 3.85 3.65 5.95 8 6.3 13.35 0.15 2.5 1.35 3.4 3.75 4.7 5.05 1.4 6.8 4.25 7.4 8.1 0.99999 6.85-2.35 13.5-8.5 12.9-3.15-0.3-4.7-2.2-4.7-3.85 0-1.75 0.89999-3.5 2.35-4 0.24999-0.1 1.15 0 1.35 0a3 3 0 0 1 0.15 1.1c0 0.45-0.6 0.7-0.8 1.6-0.15 0.6-0.15 1.8 0.45 2.55 0.64999 0.85 1.8 1.15 3 0.75 1.4-0.45 2.35-1.65 3-2.9 2.85-5.15 1.4-11.25-4.05-12.6-1.75-0.5-4.25-0.75-5.85 0.2-3.4 2.1-6.3 3.3-9.15 5.9a2.2 2.2 0 0 0-0.7 1.65 279.65 279.65 0 0 0 2.4 34c0 2.45 1.8 5.5 2.5 5.9 2-1.45 2.5-2.9 4.25-5.65 0.85-0.5 1.25-0.2 1.5 0.55-0.05 2.55-0.55 5-0.25 7.2 0.15 0.65 0.89999 1.25 1.4 1.7 1.2-1.1 1.25-2.75 1.75-4 1.35-1.4 1.65 0.15 1.7 0.55-0.1 1.65 0 3.15 0.15 4 0.05 0.65 0.64999 0.8 1.2 0.95 1.45-2.9 3.3-5.5 5.65-7.1 1.4-1 2.3-0.15 1.5 1.25a35.45 35.45 0 0 0-3.2 8.45 5 5 0 0 0 1.4-0.15c0.3-0.1 0.74999-0.2 0.89999-1 1-2.5 1.55-2.8 2.7-1 0.49999 1.7 1.25 2.9 2.25 3.4 1.5-0.4 1.6-2.2 2.2-3.5 1.6 0.1 1.7 1.85 2.5 2.7 0.55001 0.44999 5.1 0.59999 5.95 0.5l-0.14999-2.65c-0.1-5.3 0-9.55 0.34999-14.8 0.4-5.5 1-11.15 1.3-16 0.19999-4 0.69999-10.1 0.99999-14.85zm74.9-102.2c-1.2-0.20001-6.2-0.50001-7.55-0.50001-1.1 0-4.1 0-4.2 1.55 0 0.45 0.6 1.25 1.3 1.7 3.65 2.5 13.85 2.95 18 2.25 0.1-1 0-2.15-0.35001-3.05-0.99999-3.05-4.75-5.75-8.2-6.85a28.25 28.25 0 0 0-11.1-0.40001l-0.7-1.85c1.2-5.4 1.05-10.4 0.30001-14.35-0.45001-2.2-1-3.25-2.2-5-0.7-1-1.5-0.95-2.4-0.20001-0.6 0.50001-1.2 1.15-2.25 2.5-3.45 4.2-3.3 7-2.7 13.3 0.4 0.29999 0.85 0.59999 2 0.59999 1.1 0 1.6-0.49999 1.75-2 0.1-2.1 0.6-4.3 0.90001-6.25 0.49999 0.15 1.4 0.75001 1.5 1.1 0.19999 3.25-0.85001 6.65-1.65 9.7 0.2 0.34999 2.6 1.4 2.25 2.4-0.3 0.75001-4 1.7-6.6 1.9a13.2 13.2 0 0 0-6.15-5.05c-1.5-0.59999-3.15-1.1-1.9-2.1l2-0.79999c3.5-1.45 2.35-3.45 2.2-6.85-0.15001-1.3-0.65001-1.65-1.85-1.6-1.75 0.1-2.9 0.25-4.35 1-2.6 1.6-4.6 4.25-6.5 6.4-0.35 0.34999-1.1 0.19999-1.7 0.19999 0.99999-3.15 2.3-6.6 3.3-9.4 0.34999-0.99999 0.79999-2 1.9-1.75 5.4 1.25 10.9 0.20001 14.7-3.6 1.6-1.7 1.6-2.5-0.44999-3.95a12.7 12.7 0 0 0-11.5-2.5c-1.65 0.65-2.75 1.6-3 3.3-0.15 1 4.85-0.4 6.6-0.25 0.49999 0.05 0.84999 0.49999 1.2 0.75-3.2 1.4-6.9 2.1-10 3-1 0.25001-1.4 0-1.55-0.99999a4.35 4.35 0 0 1 1.55-4.4c2.35-2 4.2-4.35 4.7-7.5 0.30001-1.7-1.1-4.25-1.85-5.7-0.1-0.4 0.1-0.7 0.15-0.99999 1.95 0.49999 4.7 1.8 6.35 3a14.15 14.15 0 0 0 9.85 10.9c1.75 0.6 3.55 1.25 5.45 1.8 1.7 0.5 3 0.05 2.9-1.8l-0.1-2.5c1.5-0.65001 3.2-1.15 3.6-1.1 2.85 0.4 5.75 1.8 8.7 2.75 2 0.99999 1 1.7-0.4 1.5-2.2-0.35-4.35-1-6.45-1.5-1.35-0.30001-2.45 0.29999-2.65 1.6 0.9 1.6 5 3.5 6.5 4.1 2.2 0.79999 10.5 1.75 10.4-0.5a29.3 29.3 0 0 0-1-6.6c-0.49999-1.85-2.1-2.9-3.85-3.35a45 45 0 0 0-11.1-1.3c-0.9 0-2.5 0.5-4 1.3l-0.45-2.45c-0.8-3.35-2.4-4.15-4.9-5 0.15-0.99999 0.15-1.65 0.15-2.7 2.2-1.25 4.9-3.35 5.95-5.1-0.9-0.85-2.5-1.3-3.35-1.6-3.4-1.2-3.75-2.5-6.05-3.5a15 15 0 0 0-5.4-1.35c-1.7-0.05-4 0.4-4.5 1.05-0.25 0.45 0 1.15 0.99999 1.85 1.5 1.15 4.65 2 6.2 3.1 1 0.55001 0.5 0.80001-0.15 0.90001a15.45 15.45 0 0 1-6.1-1.75c-1.15-0.60001-1.5-1.1-2.35-1.4-1.5-0.5-1.75-0.1-2.75 1.65-0.74999 1.25 0.15 1.9 1.2 2.5 3.6 2 6.25 3.15 10.8 3.65 0.49999 0.49999 0.59999 1.35 0.74999 2.35-4.5-0.59999-6-0.64999-8.8-1.65-4.45-2.4-8-4.3-12.3-5.7-0.79999-0.35001-1.1-0.85001-0.19999-1.4 4.5-2.7 8.8-6 13.35-8.5 0.65001-0.35001 1.7-0.20001 2.5-0.05 2.2 0.4 2.95 1.1 5.15 1.75 1.3 0.5 2.55 0.84999 2.8-0.35001 0.65-3.3 1.7-5.75 2.65-7.15 2-3.05 4.85-4.65 8.6-7 1.4-4.75 6-9.6 7.65-9.6 4.5 0 9 8.15 9.9 11.2 0.59999 2.2-3 4.1-0.60001 4.1 2.1 0 4.05 0.35 4.05 2.15 0 3.15-0.90001 6.35-2.5 8.65-1.7 2.3-3.5 4.8-5.8 6.35l0.15 0.79999c3.9 2.9 8.15 5 8.15 9.4 0 2.35-0.65 4-2 5.15-1.05 0.9-1.9 1.8-1.8 3.15 0.15 3.05 0.35 4.75 0.15 7.75-0.15 2-6.25 2.4-7.1 3.3a25 25 0 0 1-1.7 15.2l1.25 2.3c6.2 4.35 7 8.3 7.9 11.7-1.7 1.65-4.5 3.05-5.5 3.05-4 0-12.85-3-14.6-3.25-0.7 1.25-0.3 2.4 0.6 4.9 0.8 2.25 2.3 3.8 2.3 5.9 0 1-0.15 2.6-3 3.05a20.1 20.1 0 0 1-13.35-3.65c-0.80001-0.45-1.5-1-2.3-1.35-1.35-0.75-3.05-0.2-3.5 1.35l-0.89999 3c-0.50001 1.65-1.35 1.8-3.6 1.35-6.35-1.35-9.3-8.2-9.3-14.25 0.3-1.25 1.3-0.74999 1.5-0.15 0.4 2.95 1.7 5.8 2.65 8.2 1.2 2.3 2.7 3.55 5.2 3.85 0.5 0 1.2-0.95 1.8-2 1.35-2.85 2.6-4.75 2.2-8.1-0.14999-1.15-0.49999-2.8-1.35-3.85-0.39999-0.49999-1.05-0.85-1.8-1.5 0.35-0.54999 0.90001-1.15 1.35-1 2.8 1 4.9 1 6.65 0.05 1.1-0.6 1.6-1.35 2.35-2.3 2.4-0.59999 6.35-1.5 9.65-1.95 4.5 0 8.5 0.59999 11.85 2.1zm-171.15 109.7c2.4 0 5.3 1.2 5.25 3.8l-0.5 1.3a1.35 1.35 0 0 1-0.6-0.15c-0.9-1.95-2.35-3.05-4.7-2.6-2.2 0.45-4.1 1.55-5.5 3.1-0.95 1 1 1.6 2.2 2.25l2.5 1.5c0 1.3-3.4 10.8-1.7 11.1 4.3 0.75 10-5.15 10.6-13.5-0.14999-3 1.55-4.5 4.85-5.6 3.9-1.5 5.75-3.25 5.1-7.5-0.3-2.1 0.90001-1.5 2.05-3.25l1.3-1.4c0.20001 0.59999 0.65001 2 0.50001 2.6-0.90001 3.45-0.2 6.15 1.5 9.25l3.2 8.3c0.74999 0.8 1.45 0.15 2.2 1 2.75 5.55 5.85 13.85 10.05 17.4 3.45 2.85 7.1 7.85 10.35 10.85 1.9 1.7 3.2 5.95 5.6 6.75 1.7 0.6 1.65 1.5 1.4 3.05-0.3 1.9 0.5 2.25 1.2 2.25 1.15-0.15 2.25-0.45 3.45-0.5 2.6 0.55 2 2.3 0.1 2.6-1.3 0.15-2.55-0.1-3.85-0.1-0.45 0.1-0.9 0.3-1.35 0.5 0.15 0.5 0.35 1 0.7 1.3 2.1 1.15 3.6 1.3 5.65 1.75 0.4 0 0.69999 0.3 1.15 0.45-0.15 0.35-0.6 1.15-1 1.35-0.65 0.1-1.5 0.1-2.3 0-1.85-0.4-3.55-1.2-5.3-2-0.60001-0.2-1-0.85-1.55-1.25-0.45-0.2-1-0.3-1.5-0.45 0 0.6-0.19999 1.15-0.14999 1.65 0.39999 0.8 1.25 2.2 0.89999 2.5-0.15 0.25-1.35 1-1.7 0.8-1.5-0.7-2.7-2.4-4.1-3.2-1.8-1.15-3.45-1.15-5.15 0.05-1.75 1.2-3.3 2.25-4.95 3.2-2.05 1.35-4.25 3.5-6.7 3.5-1.35 0-4.7-2.05-6.2-2.5-2.8-0.9-3.7-1-6.7-1.65-2.5-0.6-4.7 0.35-7.25 1.2-3.1 0.95-6.5 1.35-9.85 1.95-1.9 0.35-4.1 0-6.1-0.1-3-0.1-5.9-0.35-8.85-0.3-2 0-4.1 0.35-6 1-0.9 0.25-1.85 0.4-2.65 0.4-1.35 0-2.65-0.35-3.9-1.2a5.7 5.7 0 0 0-4.25-0.8c-1.4 0.3-4.15 0.8-5.3-0.25-1.4-1.4-4.75-4.2-6.65-3.85-5.95 1-8.8 4.4-14.6 2.85-4.1-1.05-6.8-2-10.8-0.7-1 0.4-3.6-0.2-4.65-0.05-1.5 0.2-2-0.1-1.8-1.6l0.15-0.8c0.25-1.55-1.25-2.7-2.75-2.15-1.65 0.5-2.6 2.2-4.15 3-2.85 1.4-5.5 1-8.6-0.2-2.1-0.9-4.25-0.5-6.25 0.5-1.3 0.7-3.4 3.75-4.8 3.75-0.5 0-1.25-0.8-1.5-1.5v-1.45a10 10 0 0 1 3.3-3.05 18.75 18.75 0 0 1 11.4-1.5c1.8 0.3 3.75 0.5 5.45-0.2 1.35-0.6 2.75-0.7 4-1.35 2.25-1.2 4.2-2.25 6.75-1.35 1.85-0.85 2.85-1.45 3.8-2.85 0.45-2.25-0.35-4.6 0.2-6.8 0.5-2 1.35-4.5 2-6.4 0.4-1 1.1-0.9 1.75-0.8 1.8 2.65 4 5.15 2.9 7.6-0.75 1.7 3.15 2.9 2.5 4.6-0.65 1.3-0.35 2.1 0.95 2.25l1 0.1c1.15 0 1.2-0.75 1.15-2.2 0.05-8.2-2.6-13.9-5.4-20.35-1.15-2.5-0.95-5-0.05-7.5l1.7-5.1c0.9-2.4 2.9-4.5 5.15-5.4 0.3-0.05 1.15 0.3 1.35 0.7 3.65 5.15 5 11.4 3.2 17.6-0.5 1.85-0.9 3.8-1.25 5.8-0.1 0.5 0.05 1 0.15 1.5 0.35-0.3 0.8-0.6 1.1-1 1.8-2.7 3.65-5.35 5.1-8.25 1.4-2.8 3.7-3.95 6.6-4.5 3.15-0.65 4.05-0.25 3.25 2.8-0.5 1.8-1.05 3.6-1.65 5.2a10.35 10.35 0 0 1-5.3 6.45c-1.8 1-3.45 2.35-5 3.5-0.6 0.8-0.75 0.75-0.1 1.55 0.6 0.75 1.5 0.3 2.25-0.15 2.95-2.15 6-3.85 9-5.5 1.1-0.5 1.45-0.1 1.35 1.2-0.15 1.5-0.35 3.55-1.85 4.1-1.65 0.55-3.85 0.8-5.3 1.5a10 10 0 0 0-2.5 2.15c-1 1.5-1 2.5-1.8 4.1-0.15 0.35 0 0.95 0.05 1.5 0.5-0.2 1-0.2 1.35-0.4 1.95-1.4 3-3 4.95-4.5 1.5-1.15 1.85-1 2.45 0.84999 0.2 0.6 0.65 1.1 1.25 1.65 0.6-0.4 1.25-0.75 1.7-1.35 1.75-2.6 2.85-7.8 5.15-11.25 0.4 0 0.9 0.3 1.2 0.45 0.5 1.15-0.15 5.1-0.05 5.95 0.05 2.4 0.8 2.9 3 1.8 1.7-0.84999 3.25-1.75 4.9-2.65 1.8-0.9 3.25-0.2 2.2 1.2-0.55 0.85001-1.4 1.5-1.9 2.4-0.3 0.49999-0.25 1.35-0.3 2 0.5 0 1.2 0.10001 1.7-0.15 1.35-0.35 2.6-0.95 3.9-1.5 1.75-0.8 3.55-0.54999 5.5 0 1.85 0.65 3.75 1.1 5.5 1.6 1.45 0.35 3.05-0.3 4.35-0.9a46.4 46.4 0 0 1 7.9-3.05 25.5 25.5 0 0 0 9.85-5.65c0.65001-0.7 1.65-1.05 2.4-1.75 0.59999-0.5 1.1-2.85 1.15-3.6 0.5-2-0.30001-6.7 0.1-8.8 0.25-0.5 0.65-1.6 0.99999-2.15l0.85001 0.25c0.25 0.75 0.59999 1.9 0.59999 2.5-0.14999 3.6-0.19999 11.6-0.59999 15.1 0 0.8-1.4 2.1-2.2 2.4-6.3 2.3-12.65 4.7-19 6.5-2.85 0.8-6 0.35-9 0.4-2.4 0-4.75-0.35-7.1-0.2-1.85 0.15-4.5 1.85-6.4 2.15-5.2 0.8-9.7 0.45-14.85 1.4-4.75 0.9-9.3 2.2-13.85 3.45-1.2 0.35-1.85 0.7-2.85 1.4-0.35 0.3-0.45 0.85-0.6 1.2 0.5 0.25 1 0.6 1.5 0.5 1.15-0.1 2.1 0.25 3.3 0.1 2.8-0.45 5.6-0.75 8.5-1 0.6 0 1.4 0.4 1.95 0.8 1.4 0.95 2.8 1.25 4.4 0.9 1.7-0.4 3.2 0.05 4.7 1.15 2.6 2.1 3.25 2.2 6.25 0.5 2.3-1.25 4.85-1.25 7.4-1.1 5.7 0.3 11 1.15 16.15 2.1a11 11 0 0 0 10.6-4.1c1.45-1.85 2.85-3.65 4-5.45 0.95-1.25 2-2.1 3.5-2.1 3.2-0.05 6.5-0.8 9.65-0.6 1.8 0.15 2.65 1.8 2.65 2.85-0.1 1.05-0.49999 1.7-1.75 1.65-2.45-0.15-4.85-0.3-7.2-0.6-2.5-0.2-4.5 0.5-6 2.4-0.8 0.9-0.6 1.5 0.59999 1.8 0.50001 0.05 1.15 0.3 1.7 0.35 1.3 0.15 1.9 0.75 2.25 1.95 0.25 0.75 1.8 1.5 4.4 1.65 3.35 0.2 5.1 0.2 8-0.75 1.2-0.4 2-1.8 2.85-2.85 1.9-2.75 3.2-3.45 6.6-2.75 2.4 0.45 4-2.1 6.15-1.95 3.95 0.5-0.5-7.45-3-10.05-3.45-2.55-6.2-7.6-9.2-11.35-2.2-2.75-4.85-3.8-6.75-7.15-3.65-6.05-6.65-13.45-10.7-18.3-1.6-1.65-5.05-0.5-6.75 0.4a4.75 4.75 0 0 0-2 1.4c4.9 4.15 5.1 9.9 3.4 14.15-0.5 1.35-1 1.3-2.4 0.75-1.25-0.45-2.65-1-3.85-1.55-0.85-0.45-1.6-0.25-2.5 0.3-3.7 2.25-8.25 5.3-9 4.55-1.5-1.5-3.9-6-3.75-8.3 0.1-1.9 0.75-3.5 1.45-4.55a37.5 37.5 0 0 1-4.8-3.1l-0.05-1.65c3.1-3 7.3-5.9 10.55-5.9zm-93.6-43.5c0.4 2.95 1.65 5.35 4.5 6.45 4.1 1.7 9.5 2.7 14.1 2.75 5.45 0.15 11.4-0.3 17.8-1.5a116 116 0 0 0 28.8-10.05 79.7 79.7 0 0 1 17.5-6.65 39.6 39.6 0 0 1 19.35-0.49999c2.85 0.64999 3.45 0.64999 3.05-1.4-0.2-1.35-0.60001-2.7-0.80001-4.1-0.69999-4.8-0.49999-9.3-2.3-13.4a5.55 5.55 0 0 0-2.65-2.45 15.8 15.8 0 0 0-4.6-1.4 32.5 32.5 0 0 0-9.7 0 48.7 48.7 0 0 0-14.6 4.5c-5 2.45-10 5.2-13.75 7.45a39.5 39.5 0 0 1-20.3 5.85c-4.75 0-7.9-0.15-12.65-0.65001a45.2 45.2 0 0 1-18.65-5.15c-1.3-0.64999-2-0.44999-2.5 0.90001a41.85 41.85 0 0 0-2.5 19.3zm222.45 52.5c-1.65 0.25-5.1 0.7-7.1 0.8a9.5 9.5 0 0 1-1.95-0.25c0.29999-0.6 0.49999-0.8 0.85-0.95 2.45-1.25 5.05-2.4 6.85-3.8 0.99999-0.75 0.79999-1.5 0.5-2.15-3.35 1.5-6.5 2.15-10.05 2.75-0.25 0-0.4-0.25-0.5-0.4 2.75-2.05 6.4-3.7 8.4-5.5 1.35-1.1 0.35-1.4-0.1-1.85-2.9 1-5.8 1.95-8.85 2.8a3.5 3.5 0 0 1-1.4-0.15c0-0.6 0.6-0.85 1.1-1.15a46.65 46.65 0 0 0 8.5-5.6l-0.15-0.75-0.99999-0.1c-2.35 0.4-7.55 1.15-10.4 1.45-1.4 0-1.15-0.8-0.9-1 2.25-1 4-2.2 5.65-3.95 0.6-0.65 0.5-1.25 0.29999-1.55-2.7 1.25-5.8 1.3-7.6 1.5-0.35-0.45 0.1-1 0.3-1.2 2.2-0.85 2.65-1.55 3.8-2.3 0.75-0.5 2.35-1.6 2.7-2.2 0.15-0.19999 0.1-0.8-0.05-0.99999a35 35 0 0 1-6.65 1.6 3.35 3.35 0 0 1-1.2-0.20001c0.2-0.5 0.3-0.89999 0.6-1.05 3.1-1.6 4.75-2.25 6.95-3.6 0.65-0.45 1.25-1.4 1.5-1.95l-0.2-0.3c-2.5 0.8-5.05 1.65-7.65 2.35-0.5-0.1-0.75-0.4-1.2-0.75a3.05 3.05 0 0 1 0.9-0.9 40.85 40.85 0 0 0 14.15-8.15c1.2-1 2.25-2.15 2.7-3.05l-0.35-0.6c-5 3.5-9.85 6.55-15.6 8.8-1.15-0.1-0.9-0.8-0.5-1.1 0.5-0.5 2-2.2 3.2-3.8a45.15 45.15 0 0 0 13.1-7.55c0.3-0.3 0.45-1.15 0.25-1.7-2.55 1.15-6.45 3.35-9.85 4.6l-0.65-0.2c0.15-0.6 0.45-1.15 0.8-1.75 2.3-1.5 5.6-3.85 8.2-6.7 0.1-0.35 0.25-0.8 0-1.2-2.15 1.15-4.55 2-6.75 2.75-0.75-0.5 0.15-1.8 0.25-2.1 3.15-2.6 4.65-4.3 6.2-6.5 0.3-0.5 0.3-0.94999 0-1.75-1.75 1.25-4.25 2-6.2 2.75l-0.55-0.14999c-0.1-0.65001 0-0.50001 0.2-1 2.3-2.1 4.25-3.75 5.65-6.15 0.15-0.25 0.1-0.89999-0.15-1.35-1.9 0.64999-3.35 1.2-5.4 1.7a1.6 1.6 0 0 1-0.7-0.15001c0.1-0.65 0-0.8 0.25-1.3 1.4-1.2 2.8-2.85 4.1-4.8 0.34999-0.5 0.29999-1 0.05-1.35-1 0.24999-2.8 0.49999-3.7 0.59999-0.4 0.1-0.90001-0.35-1.15-0.79999l3.5-2.5a3 3 0 0 0 0.60001-0.94999c-0.45001-0.2-0.8-0.45-1.1-0.35-1.5 0.2-2.9 0.35-4.4 0.65-3.3 0.69999-3.3 1.15-3.6 2.1a73.15 73.15 0 0 1-3.65 10.9c-0.45 0.99999-1 1.95-2 2.35-1.4 0.70001-1.1 1.45-1.5 2.8-0.6 2.7-1 2.5-2.1 5.15a14.5 14.5 0 0 1-3.1 5h-0.75l-0.25-3.75c-0.3-2.5-0.8-1.95-1.2-4.5-0.25-2.25 0.30001-4.65 0.6-6.6 0.25-2.25 0.5-6.15 0.5-8.35-0.2-0.14999-0.4-0.49999-0.7-0.69999a2.1 2.1 0 0 0-0.7 0.99999c-0.45 1.7-1.25 4.4-1.5 6.15-0.55 4.1 0.30001 8.05 0 12.2a46.5 46.5 0 0 0-0.5 12.9c1.35-0.15 1.25-0.3 3.15-1.05 2.5-1 4.3-1.35 6.85-3.6 1.8-1.55 1.5-4.6 2.15-7.1 0.85-3 2-4.1 3.2-4.6 0.35-0.1 0.7 0.05 1.05 0.15-0.7 1.7-1.1 2.6-1.75 4.4-0.6 1.55-1.2 4.1 0.5 4.4l1.25 0.2c0.1 0.3 0.1 0.75-0.15 1-1.6 1.55-2.9 3.4-10.25 5.5-0.85 0.25-2.7 2.5-2.8 3.35-0.15 1.15-0.15 2.5 0.1 4.4 0.75001 7.35 4.4 14.25 8.5 21.05 3.45 5.8 6 10.2 9.75 14 1.75 1.6 3.6 2.8 6.5 1.45 1.55-0.75 3.5-1.95 4-2.4 0.25001-0.3 0.30001-0.8 0.25001-1.25zm-100-105.8c0.2 2.9-0.35 3.65-4.05 2.7-3.9-1.2-5.7-0.8-8.2-3.65-1.5-1.75-3.4-1.75-5-0.1-0.75001 0.9-1.3 1.8-2.5 2-0.19999-0.4-0.44999-0.95-0.29999-1.4 0.39999-1.7 1.45-3 3.05-3.8 1.15-0.6 2.55-1 3.75-1.35 3.45-1.35 5.15-3.4 5.15-7.45 0-2.3 0.70001-4.6 0.70001-7 0-1.7-0.60001-2.25-2.25-1.7-2.85 1.1-5.5 2.2-8.35 3.4-0.99999 0.4-1.6 1-2 1.9-0.8 1.5-1.3 3-2 4.5-0.65 0.85001-1.2 0.45-1.4 0.1-1.35-2.15-3-4.4-4.4-6.25-1.25-1.5-1.25-2 0.15-3.05l4.65-4.05c2.3-2.15 3.2-5 3.45-8.2v-4.35c-0.10001-1.9 0.3-2.45 2.2-2.2 1.35 0.15 2.7 0.5 3.8 1.1 2.1 0.89999 4.2 2.1 6.3 3.2 1.1 0.7 1.9 1.65 2 3.05 0.05 1.65-0.99999 2.7-2.5 2.1a46 46 0 0 0-7.05-2.45c-1.2-0.29999-2.4 0.35001-2.6 1.5-0.50001 2.75 1.85 2.9 1.65 3.65-0.60001 1.95-3.75 2.5-4.2 4.3-0.35 1.65-0.35 2.7 1.1 2.4 3.95-0.80001 7.8-3.25 10.85-4.5 2.6-1.1 3.95-0.70001 4.3 2.2 1.4 8.5 2.7 15.8 3.65 23.4zm61.5-27c0.75001 0.2 1.7 0.64999 2.3 1.2 1.45 3.35 4.55 7.1 8.45 9.1 1.25 0.65001 2.5 0.90001 3.5 1 0.35-1.5 1-4 1-6.75 0-2.15-0.65-4.5-2.65-6.5a26 26 0 0 0-6-4.5 2.55 2.55 0 0 0-2.95 0.24999c-0.05 0.50001-0.05 1.25 0.25 1.7 0.94999 1.65 3.25 3.15 4.25 4.7 0.35001 1.6 0.25 1.5-1.05 1a25.25 25.25 0 0 1-7.15-6.25c-1.15-1.3-1.9-1.3-2.7 0.1a24.2 24.2 0 0 0-3.6 10.75 11 11 0 0 0 6 11.5c1.85 0.8 3.2 0.6 4.1-1.15 0.94999-1.75 1.6-3.25 2.2-5.2 0.3-1 0.3-1.4-0.44999-2.3a33.05 33.05 0 0 0-3-3.35 4.35 4.35 0 0 0-1.5-1.2 2 2 0 0 0-0.39999 1.25c0.05 1.55 0.29999 3.15 0.34999 4.7 0 0.4-0.05 1-0.29999 1.35a3.05 3.05 0 0 1-1.7-2c-1-3.7-0.85001-6.95 1.05-9.4zm-172.8-54.45 2.9 3.45c1.2 2.25 1.85 4.3 2.45 6.1 0.5 1.8 1.25 1.8 2.4 1 1-0.75001 1.8-2 1.7-3.5a11.65 11.65 0 0 0-0.65-3.15c-1-3.9-0.3-7.2 3.1-9.65 1.15-0.8 2-2.1 1.55-3.5-0.5-1.95-0.95-3.8-1.7-5.6-0.3-0.8-1.4-1-2.15-0.6-3.8 2-8.3 7.75-4.85 12.55 0.15 0.30001-0.05 1.2-0.3 1.7-3.15-3.15-9.35-9.55-11.2-9.4-0.5 0.9-0.9 2.75-0.5 6.5 0.45 3.65 1.4 7.4 4.15 12.5 0.7 1.15 1.35 1.85 2.35 2.65 0.65 0.59999 2 1.25 3 1.25 0.35-0.80001 0.4-2.1 0.2-3-0.95-3.4-1.85-6-3-9.15zm252.5 14.4c2.65-0.5 4.8-1.25 5.8-1.65 4.3-1.65 7.15-4.4 8.1-9.1 0.3-1.25-0.45-1.95-1.8-2.3l-2.8-0.75c-2.75-0.8-3.3 0.35-4.35 3-0.79999 2-1.65 4.3-3.8 6-0.65 0.54999-2.9-1.1-3.5-1.5 4.2-2.5 6.95-6.5 9-11.3 0.50001-0.89999 0-1.8-0.94999-2.1-1.35-0.45-2.75-0.6-4.3-0.45a21.55 21.55 0 0 0-15.5 11.55c-0.2 0.5 0 1.65 0.35 1.8 0.60001 0.25 2.1 0.1 2.75-0.15 0.4-0.05 0.6-0.60001 0.85-1 1.75-3.1 4.7-5 8.1-6.5 1-0.5 1.35-0.15 0.8 1-0.65 0.84999-6.75 5.15-6.9 5.75-0.8 1.75 0.4 2 1.4 2l1.85-0.5c0.65001 3.2 2.6 5.3 4.85 6.2zm-92.5-0.5c-0.1 1.5-0.65001 2.35-2 1.85-2.8-1.2-4.5-4.25-7.65-5.3-1.15-0.4-1.85 0.65001-2 1.7-0.50001 3.2-1 6.05-1 7.25 0 4.4 2.35 6.8 4.7 9.15 0.69999 0.6 0.69999 1-0.05 1.35l-9.65 5.4c-0.90001 0.6-2 0.75-3 0-0.95-0.85-1.25-1.9-0.95-2.95 1.15-4.85 1.95-9.85 3.2-14.6 2-7.5 5.25-10.05 10.7-10.75 1.95-0.3 3.4-0.3 4.9-0.3 1.6 0 2.3 0.3 2.5 1.75 0.20001 1 0.25001 2.1 0.25001 5.45zm7.3 33.15c0-3.65-2.95-4.7-4.2-7.8-1.2-3.05-2.3-3.05-4.75-0.85-2.8 2.65-4.5 4.95-5.5 8.75a21 21 0 0 0 0.1 10.5c0.25001 1.05 0.85001 2.25 2 1.9a2 2 0 0 0 1.45-2c0-3.1 0.30001-6.1 1.85-8.1 0.7-0.90001 0.99999-1.1 1.4-1.35 0.50001 0.75 0.30001 1.65 0.30001 1.8-0.45001 2.3-0.80001 4.65-1.3 6.95-0.3 1.55-0.3 2.4 0.49999 3.8 0.90001 1.4 1.65 1.55 2.25 0.59999 2.85-4.55 5.9-11.1 5.9-14.2zm-156.1 10.1a28 28 0 0 0-2-9c-1.2-2.85-3-4.5-4.2-4.5-1.1 0-3.65 3-4.5 5.45-2.2 6.15-1 11.15 2.55 17.05 0.5 0.75001 1.5 2.15 2.85 0.75001 1.1-1.25 1.95-2.15 3-3.5 1.4-1.65 2.35-4 2.3-6.25zm134.7 96.5c-0.65-5.15-4.5-10.15-11-14.5-1.35-0.55-1.5 0.35-1.5 1.5 0.65 7.15 1.5 14.35 2.4 20.7 0.25 1.4 0.9 1.8 2.2 1.1 1.95-0.9 3.8-1.85 5.65-2.9 1.7-1 2.75-1.95 2.25-5.9zm58.85-58.5c-1-2.5-2.7-3.55-5.2-3.75-2.5-0.3-4.6-0.65-7.25-1.05-1.5 0.2-2.5 1.4-3.35 3.4 0.05 0.4 0.2 0.9 0.5 1 0.85 0.3 2.4 0.6 2.6 0.75 0.3 0.2 1.3 1.25 1.5 2.05-0.2 0.69999-1.1 1.45-2.25 1.65-1.5 0.3-1.5 1.5-1.25 3.05 0.2 1.5 0.75 2.75 1.95 4.35 1-0.59999 1.5-0.84999 2.25-1.65a3.4 3.4 0 0 0 1-2.9c-0.2-3.25 1.6-5.6 3.85-7.75l0.5 0.3c-0.35 1.85-1.35 3.2-1.55 5.05-0.5 3.8-1.75 7-5.5 9.55 1.15 1.5 4 0.39999 4.9-0.5 1.55-1.45 2.8-3.15 3.4-5.3l0.6-1.9a1.5 1.5 0 0 1 0.5 0.15c0.74999 1.4-0.3 4.25 0.2 6.3a4.7 4.7 0 0 0 1.85-1.5c1.4-3.3 2.1-8.2 0.75-11.25zm47.1-77c-0.65 0-3.25 0.05-4 0.2-0.6 0.15-0.9 1.55-0.6 1.8 0.75 0.50001 1.2 0.9 1.8 1.1 2.35 0.25 3.4 0.25 6.1 0.7 0.44999 0.05 1 0.30001 1.35 0.75-0.25 0.2-0.5 0.55-1 0.65-5 0.60001-6.5 0.50001-10-1.85-0.95-0.4-1.3 0.3-1 1.2 0.5 1.7 1.9 3.1 4.5 4.15 2.05 0.9 4.05 2 6.15 1.95 3.2-0.10001 5.5-0.30001 8.15-0.75001 1.4-0.2 2.8-0.99999 3-1.7 0.25-0.69999 0-2.25-0.80001-3.25l-1.9-1.9c-3-3.15-4.95-5.15-9.4-4.7-0.59999 0.05-1.5 1.65-2.35 1.65zm3.1 33.3c0-1.85-0.25-3.2-0.75001-4.85a8.5 8.5 0 0 0-7.4-6.1c-1.85-0.05-2.75 0.3-2 2 0.2 0.6 1.85 2.35 2.5 3.75 0.85 1.7 1.65 3.45 1.65 4.95a5 5 0 0 1-0.45 2c-1.1-0.59999-1.7-1.95-1.95-2.6-0.5-1.6-0.60001-2.55-1.1-3.45-0.45-0.8-1-1-1.25-1-0.7 0-1 0.25-1.05 1.2a14.35 14.35 0 0 0 7.85 14.35c1.4 0.50001 1.75 0.15 2.2-1.1a30 30 0 0 0 1.75-9.1zm-246.75-19.3c-0.7 2.65-0.85 4.4-0.75 5.9 0.05 1.9 1 3.5 2.75 4.3a33.5 33.5 0 0 0 16.65 2.6c0.2 0 0.75-0.35 0.75-0.5-0.15-1.15-0.75-1.35-1.8-1.65-2.35-0.8-8.65-2.5-9.5-3.5-0.65-0.9-0.35-1.85 0.7-2 0.9-0.1 1.85 0.05 2.75 0.45 1.55 0.75 2.9 1.75 4.5 2.65 0.5 0.3 1.1 0.85 1.7 0 0.45-0.75 0.9-1.4-0.1-2.15l-3.7-2.9c-3.2-2.55-8-3.75-14-3.2zm114.35 41.4c-0.25 0.54999-0.74999 1.1-1.3 1.75-0.6-0.60001-1.2-1-1.5-1.65a120.15 120.15 0 0 1-6-20c-0.1-1.3 0.39999-1.75 1.5-1.7 2.85 0.3 5.35 1.6 7.85 2.9 0.40001 0.3 0.7 1.15 0.75 1.75 0.5 5.65-0.19999 12-1.3 16.9zm-123.15 11.5-0.4-0.2c0.25-3.4 2-8.25 1.35-9.5a7 7 0 0 0-3.45 0.34999c-1.2 0.5-1.7 1.7-1.95 3.7-0.3 4.45 0.4 9 1.35 13 0.3 1.5 0.9 1.65 2 0.6 2.85-2.6 5.55-5.9 7.7-8.45 1.5-1.95 1.75-3.8 1.15-5.65-0.5-1.55-1.55-2.15-2.7-2.15-1.25 0-1.7 0.95-2 1.9-0.7 2.45-1.85 4.2-3.05 6.35zm230.9-10.25c2.25 0 4.1 0.45001 4.7 0.65001 2.7 0.99999 3.9 2.2 4.4 3.15 0.49999 0.89999 0.49999 1.35 0.49999 1.8a4.85 4.85 0 0 1-4.45-0.9c-2.4-2.25-5.9-3.2-8-2.25 0.15 1.55 1.65 3.5 2.9 4.5 4.2 3.25 7.9 3.8 12.4 2.75 0.75-0.3 1.05-1.35 1-2.25-0.15-2.9 0.05-6-2.7-8.5-3-2.85-7.3-2.75-10.25-1.5-0.5 0.24999-1.25 0.59999-1.6 0.99999 0.05 0.35001 0.45001 1.1 1.1 1.5zm-104-79.25c0.9-0.20001 0.50001 0.2 0.25 1-0.5 2.55-2 4.55-3.8 6.35-0.99999 0.89999-1.2 2.3-0.5 3 1.3 1.2 2.8 0.15 3.8-0.80001 2-2.25 3.25-5 4.4-7.7 1.4-3.35 1.1-7.5-0.49999-10.3-0.85001-1.2-2.15-1.35-3.15-0.45a17.35 17.35 0 0 0-6.1 12c0 0.65001 0.05 1.85 0.5 2.1 2.3-1 3.7-3.5 5-5.15zm61 121c0.25-0.2 0.65001 0 0.8 0.10001 0 2.7 0.65 5.95 1 6.9a3.1 3.1 0 0 0 1-0.70001l0.75-3.65c1.7-5.15 0.45-9.25-1.7-13.95-0.4-0.9-1-1-1.9-0.60001-0.65 0.3-1.2 0.75001-0.65 1.65 0.5 0.75001 0.45 1.35 0 2.1-0.7 1.35-1.2 2.8-1.95 4.4-0.30001 1-0.35001 1.8-0.45001 3l-0.75 18.5c0.3 1 0.9 0.8 1.25 0.2 0.39999-1 0.69999-1.95 0.89999-3 0.5-2.9 1.35-3 1.5-5.9 0.25-3 0.25-6 0.15-9zm-169.4-114.25c-0.05-0.30001 0-1 0.1-1.15l3.1 0.49999c1.5 0.3 2.25 0.1 2.75-1.05 0.85-2.2 0.4-4.2-1.9-4.65-3.5-0.65001-7 0.5-10 1.2-1.95 0.65001-2.4 2.7-1 4.1 2.25 2.15 4.4 4.3 6.75 6.2 1.9 1.55 4.15 1.95 6.35 1.5 1-0.25001 1.85-0.90001 1.85-1.8a2.5 2.5 0 0 0-0.75-1.8 6.75 6.75 0 0 0-1.75-0.99999zm-3.15 134.65c-0.2 1-0.65 1.85-2.3 1.75a20.6 20.6 0 0 1-4.5-0.65c-1.6-0.45-2.05-1.05-2.15-1.65-0.5-3-0.2-7.1 0.5-9.9 0.2-0.5 1.9-1.5 2.6-1.9 2.15 0.25 3.85 0.60001 5.4 1 0.6 0.35 1.8 2.15 1.9 2.4 0.3 0.95 0.3 2 0.3 3-0.6 2.5-1.35 4.65-1.75 5.95zm167 90.25c4 1.5 7.1 1.95 8.3 1.7 1.25-0.25 2-1.45 1.85-2.7-0.05-1.1-0.6-2-2-2.4-3.05-0.65-6.2-1.1-9.1-2.15-1.7-0.5-3-0.45-4.5 0.69999-2.3 1.75-4.5 2.65-7.35 3.2a3.5 3.5 0 0 0-1.85 0.65c-0.80001 1.05-0.6 1.8 0.64999 2.5 4.95 0.45 9.6-0.5 14-1.5zm16.45 9.8c2.5 0 4.35-0.5 6.05-1.6a15 15 0 0 1 7.25-3.2c1.1-0.2 2.2-1.35 2.3-2.25 0-1.25-0.99999-1.4-1.85-1.7-2.4-0.75-5.25-0.65-7.7-1.25-0.79999-0.15-1.95-0.15-2.6 0.35-5.15 5.2-6.15 4-8.6 6.55-0.65 0.85-0.65 1.9 1.15 2.35 1.4 0.35 3.2 0.65 4 0.75zm-85.6-195.5c0-1.3 2.3-3.3 3.55-3.1 0.25 0.1 0.50001 0.24999 0.70001 0.5l0.49999 2.7c0.15 1.05 0.5 2 1.05 2 2.6 0.20001 5.65-1.6 7.1-3.85 1.55-2.4 2.65-5.15 3.95-7.75 1.2-2.85 3.05-1.1 2.4 0.65-1.65 4.95-3.7 10-5.3 14.85-0.5 1.8-0.75 1.9-2.5 1.3l-8.25-2.95a4.25 4.25 0 0 1-3.2-4.35zm63.3 123.4c1.35 0.65 1.25 0.4 3.05-0.6a4.1 4.1 0 0 0 1.6-2.9l-0.5-10.85c0-0.35-0.5-0.9-0.7-0.9-1.5 0-3.3-0.3-4.5 0.35-2.3 1.25-4.25 3.05-6.35 4.7-0.80001 0.8-0.05 1.6 1.15 1.5 1-0.4 2.15-0.9 3.15-1.45l1.9-1c0 0.35-0.05 0.65-0.20001 0.9-1.8 2-3.15 4.4-5.6 5.7-0.64999 0.1-0.49999 1.7 0.45 1.75 0.75001-0.1 2.25-0.9 2.75-1.3 1.5-1.2 2.15-1.95 3.65-3.2 0.5 0.75 0.85001 1.35 0.1 2l-4 3.6c-0.60001 0.6-0.15 1.2 0.54999 1.1 1.05-0.15 2-0.6 2.85-1.1 1-0.65 1.85-1.55 2.75-2.5 0.05 0.1 0.59999 0.65 0.49999 0.7-0.75 1.15-1.6 2.25-2.6 3.5zm-127.95-125.75c-0.6 6.05-2.1 12.15-4.8 14.9-2.2-4.2-3.7-9.1-5.2-13.4 1.2-1.5 2.7-3.75 3.35-5.5 0.3-0.85 0.8-1 1.55-0.4 1.8 1.65 3.35 3 5.1 4.4zm7.15 86.2a5 5 0 0 1-2.75 3.45c-1.05 0.5-2.75 1.25-4.7 1.25-0.9 0-1.55-0.20001-1.7-1-0.5-2.8-1.15-5.4-1.6-8.1-0.05-0.64999 0.5-1.5 1.05-2 1.75-1.65 4-2.1 6.35-2.25 0.5 0 2.15 0.69999 2.4 1.15 0.5 2.5 0.75 4.75 0.95 7.5zm-21.85-32.35c-3.2 0.5-6 3.35-5.5 4.5 0.05 2.5 0.55 4.9 1.9 7.05 0.85 1.25 1.5 1.55 2.8 0.70001a24 24 0 0 0 9.6-9.8c0.6-1.2-0.65-1.55-1.85-2.15-1.6-0.74999-3.3-0.74999-4.2-0.29999s-1.25 1.4-1.4 2.15c-1 3.65-1.2 3.75-2.3 5a9.7 9.7 0 0 1 0.95-7.15zm21.65 137.25c0.2-0.4 0.3-0.7 0.65-0.75 0.6-0.1 2-0.1 2.15 0 2.85 0.8 5.5-1.25 8.15-1.65 0.6-0.05 1.25-0.15 1.95-0.05 1.75 0.05 3.5 0.1 5.45-0.4 0.8-0.3 1.85 0.1 2.75 0.5 3.05 1.35 6 2.1 8.95 0.35 1.55-1.05 3.1-2 4.75-2.85 2.75-1.05 3 0.75 3.1 1.8a2.6 2.6 0 0 1-1.5 1.55c-9.5 3.4-17.7 3.45-28.35 2.15a24 24 0 0 1-8.05-0.65zm-59.5-100c-0.2 1.3 0.2 3.25 1.25 4.3l0.45 0.45001-0.25 0.79999a22.5 22.5 0 0 1-4.9-0.65c-0.7-0.24999 1.25-1.3 1.4-2.5 0.35-2.45 1-6.5 1-9.45 0-0.5-1.25-0.99999-1.25-1.5a1.8 1.8 0 0 1 0.6-1c3.5 0.85 4 0.8 4.7 2.45 0.7 1.5 1.35 4 2.4 5.8 0.2-0.1 0.5-0.2 0.65-0.34999 0.15-1.65 0.1-4.05 0.15-5.15 0.1-0.90001 0.5-1.35 1.45-1.35 0.75 0 2.6 0.05 3.35 0.19999 0.1 0.15 0.1 0.3 0.1 0.5 0 0.50001-0.6 0.65001-0.75 0.70001-1.65 0.59999-1.75 0.74999-2.5 5.35l-0.8 5.3c-0.1 0.4-0.2 1.2-0.45 1.75-0.45 0.05-1.25 0-1.4-0.4-1.15-2.8-2.65-5.8-4.1-8.35l-0.5-0.05c-0.4 1.1-0.4 2.15-0.65 3.2zm110 24.65c0.15-1 0.15-2.1 0-3.05-0.60001-1.7-1.35-3.35-1.1-4.85 0.75-2.6 1.3-5.3 1.05-8a33.7 33.7 0 0 1 0.3-10c0.89999 0.3 1.6 0.90001 1.8 1.5 0.24999 1.05 0.49999 2.1 0.49999 3.05 0.35 2.85 0.1 5.6-0.05 8.35-0.44999 5.4-0.89999 10.4-0.74999 15.7 0.1 0.8 0.25 1.85 0.49999 2.6 0.70001 1.65 0.35 3.35-0.94999 5.2l-0.8-0.34999c-0.6-2.25-2.1-5.3-2.75-7.7-0.1-0.45 0-0.8 0.60001-0.9 0.99999-0.2 1.65-0.8 1.7-1.5zm52-39.75c-2.2-0.2-4.45-2.15-4.3-5.65-1.1 1.5-2.45 3-3.65 3.55 0.1 1.2 3.05 2.9 5.1 3.75 1.15 1.55 2 2.3 3.5 4 0.90001-2.3 2-4.25 2.35-5.5a17.75 17.75 0 0 0-1.75-8.15c-1.65-1.85-4.25-3.4-6.8-5.05-1.25 1.35 0.35 4.25 3.45 6-0.70001 1.9-0.60001 4.8 2.45 6.5zm-149.5-5.35c1.55-0.1 3.2-0.35 5.05-0.59999 1.2-0.3 2.55-0.6 2.6-2.1 0.1-1.35-1.5-2.1-2.6-2.4a23.8 23.8 0 0 0-15.75 1.55c-1.3 0.75001-2.45 1.5-3.2 2.3-1.2 1.3-0.95 2.1-0.05 2.8 1 0.75001 2.45 1.55 4.3 2 0.25-1.1 0.5-2.9 0.85-4 1.7-2.8 6.5-3.3 9.85-3.4 0.8 0.15 0.8 1.15 0.15 1.35-0.95 0.74999-2.85 0.59999-3.35 1.4 0 0.84999 0.8 1.15 2.15 1.05zm10.7 29c-0.05-0.59999 0.65-1.35 0.7-1.75 0.15-0.8 0.15-1.9 0.15-2.75 0.1-2.15-0.35-5.65-0.35-7.75l1.15-0.75001c0.4-0.15 0.7 0.1 1.15 0.5 1 1 3.25 3.5 4.3 4.45 0.1 0 0.25-0.25 0.3-0.3v-1.6c0-1.1-0.2-1.9-0.5-3.1-0.4-1.35-1.35-2.3-0.3-2.4l4.1-0.30001c-0.4 0.8-0.7 1.4-0.85 2.6-0.2 1.65-0.5 3.15-0.55 4.7 0.2 2.4 0.7 4.8 0.9 6.8 0 0.15-0.3 0.35-0.6 0.5a3.75 3.75 0 0 1-1.15-0.75c-2-2-3.4-3.85-6-6.3a2.2 2.2 0 0 0-0.35 1.1c0.5 1.55 1.15 3.3 2.2 4.75 0.65 0.9 0.8 1.2-0.85 1.8-0.9 0.29999-2.4 0.69999-3.4 0.49999zm73.1 0.45c2.35-1.45 3.3-6.3 2.7-8.65a3.1 3.1 0 0 0-0.8-1.65c-0.75-0.75-1.6-0.49999-2 0.8-0.44999 1.85-0.64999 3.85-0.89999 5.6a17.5 17.5 0 0 0-5.3-0.15c-1.8 0.25-5.3 1.3-5.3 3.45 0 3.5 8.05 2.7 11.6 0.6zm14.1-24.2a4 4 0 0 0 1 2.8c3.6 3.75 8.55 7.65 11.7 8.4 2.8 0.75001 5.15 2.4 6.85 4.65l1.65 2.25c1.2 1.5 2.75 2.5 4.85 2.8 0.35 0.1 0.8 0 1.2 0-0.3-1.25-0.3-1.4-1.2-2.3-7.4-6.6-15.25-11.75-22.9-17.1-0.75001-0.45-2.1-1.35-3.15-1.5zm-77.3 85v-0.1c-0.75-3.15-1.6-6.2-2.4-9.25-0.6-1.1-1.7-0.3-1.6 0.15-0.8 2.25-1.6 4.5-2.3 6.85a3.3 3.3 0 0 0 0 2.1c1.2 3.3 2.3 6.55 3.6 9.85 0.2 0.45 0.8 0.75 1.15 1 0.3-0.4 0.75-0.85 0.85-1.25zm13.1-78.4c0.2 0.59999 0.5 1.35 0.6 2.05 0.05 0.49999 0.05 0.89999-0.1 1.2-0.05 0.15-0.35 0.1-0.65-0.05-1.55-0.7-3.3-1.7-4.7-0.75-0.5 0.35-0.3 1.25 0.35 1.55l4.4 1.8c2 0.75 2.5 1.65 2.1 4-0.35 2.25-2 3.15-3.95 3.7-0.8 0.2-1.65 0.3-2.75 0.2-0.15 0.7 0.05 1.5-0.45 1.8-0.35 0.2-0.45 0.15-0.8 0.3a19.3 19.3 0 0 1-1.5-5.45c0-0.44999 0.15-0.5 0.3-0.65 0.65 0.20001 1.25 1.1 2.25 2.05 1.2 0.39999 3.25 0.74999 3.55 0.39999 0.6-0.75 0.85-1.2 0.85-1.5 0-0.49999-0.7-1-1.3-1.25-1.55-0.84999-2.4-1.15-4-1.8-1.5-0.6-1.75-1.95-1.75-3.2 0-1.35 0.7-2.8 2.85-3.5 0.65-0.25 1.85-0.49999 2.5-0.69999 0.2-0.45001 0.35-1.95 0.35-2.25 0.35-0.05 1-0.15 1.1 0.1zm-31.2-94.2c-3 0-4.9-0.8-7.9-0.5-2.15 0.15001-4.25 1.1-6.35 1.9-1.25 0.59999-1 1.15 0.1 1.6 1.1 0.49999 1.85 0.79999 2.9 0.74999 6.2-0.5 13.15-1.2 19.35-1.8 0.35-0.49999 0.65-0.9 1-1.7-2.35-1.55-5.4-1.25-8.25-2.1zm71.2 92.55c-0.3 0.15-0.7 0.5-1.45 1.3a3.9 3.9 0 0 1-1.25 0.90001l-0.85-0.5 1.35-3.25c0.5-1.25 1-1.4 2.2-0.60001l1.1 0.90001c0.9 0.74999 2.1 1.35 3.2 0.84999 1.05-0.5 0.5-2-0.6-2.55-1.6-1-2.8-1.3-4.75-2.5-1.2-0.69999-1.7-1.75-1.7-3.25 0-1.25 0.85-2.75 2.45-2.9 0.6-0.15001 1.35-0.15001 2.2-0.15001 1.05 0 1.75-0.15 2.4-1.05 0.5-0.65001 1.05-1.05 1.2-0.35 0.4 1.8 0.15 3.75-0.3 4.9-0.35-0.1-0.6-0.1-0.9-0.25001-0.95-1.5-2.2-2.2-3.25-2.05-1 0.15-1.5 0.90001-0.75 1.7 1.35 1.4 3.25 2.15 4.85 3.05 2.3 1.25 2.15 3 1.85 4.25a3.25 3.25 0 0 1-3.35 2.7c-1.2 0-2.35-0.3-3.65-1.15zm-4.55-4.6c0.2 3.85-2.9 5.25-5.1 5.2-2.05 0-3.25-0.45-3.95-2.5-0.35-1.2-0.75-4.85-1-6.2-0.4-0.50001-1.1-0.70001-2.15-1-0.5-0.1-0.55-0.5-0.65-0.95001 0.75-0.35 2.1-0.74999 3.05-0.89999 2.2-0.35 2.2-0.2 2.55 1.8 0.3 2.3 0.65 4.7 1.1 7 0.75 2.25 3.15 1.75 3.15-0.15 0-1.8 0.1-3.85 0-5.75-0.35-0.45001-1-1.4-1.7-2.05-0.85-0.99999-0.9-1.3 0.3-1.75 2.8-1.1 3-1.8 3.4 1.9 0.15 1.4 1 3.55 1 5.35zm2.6 19.7 7-1.65c1.85-0.50001 2.9-2.5 2.75-4.25-0.2-1.35-1-2.1-2.4-2.4a19 19 0 0 0-9 1.25c-0.25 2.4 0.60001 5 1.65 7zm-64.3-24.85c-0.9 0-2.1 0.2-3 0.45-1.75 0.44999-2.65 0.59999-4.4 0.44999-1-0.1-2.6-0.74999-3.55-0.99999-1.05 0.1-2.1 1.05-2.5 2.55-0.2 1.5 0.7 2.55 2.35 2.85 3.35 0.74999 6.5 1.35 9.6 1.35 1.2 0 1.35-0.15 1.4-1.15 0.15-1.9 0.1-3.5 0.1-5.5zm80-71.5a20.25 20.25 0 0 1-4.35-1.35c-0.5-0.15-0.85-1.35-0.85-2 0.15-1.75-0.3-3.5 0-5.35 0.15-1 0.7-1.3 1.65-1.1 1.35 0.3 2.6 0.6 3.9 1 1.7 0.7 4.25 5.4 3.5 7.05-0.75 1.5-2.1 1.7-3.8 1.8zm-28.85 81.95a5 5 0 0 1-1.4 1.35c-1.65 1.1-4.65 1.75-6.7 3.1-1 0.69999-0.5-1.7-0.6-2.6l-1.05-5.6a7.3 7.3 0 0 0-1.8-3c-0.6-0.70001 1.1-1 1.95-1.25l3.25-0.99999c1.2-0.40001 1.5 0.45 1.15 0.7-1.65 1.2-1.5 1.75-1.3 3.3 0.25 1.5 0.25 3.15 0.3 4.4 0.25 0.59999 0.6 1.4 1.05 1.95 1-0.3 2.1-1.05 2.1-1.35l0.25-3.2c1.2-1.5 1.4-0.74999 1.6-0.1 0.5 1.2 0.75 1.95 1.2 3.3zm4.95-35.5c-0.7-2.15-1.35-4.4-1.9-6.65-0.15-0.90001 0.6-1.4 1.45-1.25 3 0.65 5.95 1.35 8.95 2.15 1 0.2 1 1 0.35 1.65-1.95 2-4 3.7-6.7 4.9-1.35 0.75001-1.4 0.2-2.15-0.79999zm129.55-79.3a22 22 0 0 0-3.45-8.3c-1.35-1.7-3-1.85-4.5-0.3-0.5 0.5-0.95 1-1.3 1.5-1.5 1.9-1.35 2.5 0.9 3.6 3.4 0.99999 5.35 3 7.8 5.5zm-158.9 194.25a14 14 0 0 0-4.5 4c-1 1.85-2.1 3.6-3.1 5.4-0.35 0.85-0.95 2.9-1.2 4.25l0.6 0.6a25 25 0 0 0 4.4-3.25c2.55-2.5 3.15-4.85 4.55-9.85l0.25-0.6zm220.35-205.6c-1.35-2.8-3.85-6.55-4.9-7.9-1.35-1.7-2-1.85-3.5-0.3-0.49999 0.5-0.99999 1-1.35 1.5-1.5 1.85-2.4 4.15 0.05 4.5 2.1 0.35 4.95 0 6.3 0.95 1.25 0.8 2.35 1.65 2.9 1.95zm-253.5 134.35c-0.4 3.65-0.3 3.65-0.3 6.2 0 1.4 0.65 1.4 1.9 1.5 1.15 0.05 1.5-1 1.75-2.35l0.75-5.05c0.2-1.65 0.3-2.6-0.7-2.75-1.85-0.25-3.25 0.9-3.4 2.45zm19.5-67.6a19.3 19.3 0 0 1-4.7-1.65c-2.5-1.3-4.9-4-4.5-6.5 0.2-1.15 0.85-1.5 1.85-0.94999 1.9 1.4 3.5 3.5 4.9 5 1.15 1.15 2 2.5 2.5 4.1zm18.75 59.4c0.05 1 0.9 3.95 1.2 5.65 0.15 0.9 0.35 1.6 1.65 1.45 1.7-0.25 2.3-0.99999 2.05-2.35-0.2-1.55-0.6-3.1-0.9-4.7-0.3-1.5-0.95-2.35-2.3-2.3-1.4 0.15-1.85 0.64999-1.7 2.25zm74.3-94.35c-1.05 1.9-2 3.8-3.25 5.45-0.95 1.35-2.45 2.2-3.8 3.35-1.3 0.35-1.35 0.25-0.89999-1.05 1.95-3.2 3.8-5.7 5.9-8.45 1.5-0.80001 2.05-0.15 2 0.69999zm100.3 51.9c0 1.2-0.2 2.3-0.6 3.45l-0.30001 0.15001c-1.55-3.9-5.3-10.2-5.05-10.85-0.1-0.44999 0.90001-0.69999 1.35-0.59999l1.7 0.69999c1 2.3 2 4.5 2.9 7.15zm10.9-82.85c0.2 0.05 0.79999 0.20001 1.25 0.60001 0.75 0.6 0.85 1.3-0.15 1.7-2.35 1.1-6.3 3.2-8.85 4.15-0.5 0.25-1.05 0.3-0.85001-0.59999 0.50001-1.5 6.5-5.85 8.6-5.85zm-85.55 108.65c-1.65 0-3.05 1.3-3.05 2.6 0.05 1.45 1.9 3 3.55 3 1.5 0 2.55-0.99999 2.55-2.5 0.1-1.8-1.2-3.1-3.05-3.1zm-131.8 126.15c-0.35 0-1 1.1-1.55 1.15-2 0.15-2.7 0.35-2.7 1.2 0 1.15 0.6 1.75 1.55 1.45 3-0.9 3.7-0.8 7.6-0.5l1.35-1.6c-0.45-0.4-0.8-0.9-1.35-1.05a22.35 22.35 0 0 0-4.9-0.65zm176.1-143.9c-0.65 0.4-1.2 0.8-1 1.55l0.5 1.2c1.15-0.2 2.45-0.3 3.65-0.2 1.6 0.5 4.3 1.1 6 1.4 0.39999 0.1 0.9-0.35 1.2-0.75 0.1-0.05-0.2-0.35-0.35-0.65-2.3-2.3-6.15-2.35-10-2.5zm-110.15-50.55-4.1-1.8c-0.25-0.15-0.4-0.9-0.15-1.2 0.9-1.35 1.85-2.6 2.8-3.8 0.5-0.5 0.9-0.45 1.15 0.2l2.05 5.1c0.4 1-0.05 1.4-1.75 1.5zm-53.8 50.25c1-0.2 1.5 0.4 1.35 1.3-0.1 0.5-0.25 0.7-1.05 1.1-3.1 0.95-5.9 0.9-9.1 0.3-1-0.15-1.65-0.35-1.8-0.6a1.9 1.9 0 0 1 1.15-0.8zm28.7-80.25c-0.3 0.1-0.65 0.35-0.85 0.2-2.65-1.5-6.45-3.5-8.85-5.05-0.55-0.80001-0.2-1.1 0.55-1 1.95 0.65 5.35 1.65 7.3 2.4 1.25 0.6 1.65 1.75 1.85 3.45zm40.75 58.4c0.3 0.44999 0.6 0.89999-0.25001 2.25-1.35 2.1-1.7 4.25-2.6 7.15-0.2 0.59999-0.6 1.25-0.90001 1.7-0.29999 0.3-0.74999 0.39999-1.1 0.59999-0.1-0.34999-0.3-0.8-0.25-1.1l2.7-8.8c0.39999-1.05 1.2-1.6 2.4-1.8zm97.65-29.5a48.5 48.5 0 0 1-10.5-3.7c-1.15-1-0.94999-0.95 0.55001-1l9.85 2.65c1.9 1.45 1.5 1.4 0.10001 2zm-40.65 62.6a3.35 3.35 0 0 0-1.5-1.85c-0.5-0.3-1.45-0.15-2 0.3-0.5 0.35-1.15 0.89999-1.6 1.4-0.75001 1.05-0.3 2.1 0.89999 2.95 1 0.7 2.1 0.65 2.75-0.30001 0.6-0.74999 1.15-1.3 1.45-2.5zm-65.9-48.3c-0.35 0.75-0.45 1.5-0.95 2.05-1.35 1.6-2.85 3.15-4.3 4.7-1.45 0.64999-1.5-0.25-1.35-0.95001 1.35-2.5 3.25-4.6 5-6.65 0.2-0.2 0.75-0.35 1-0.2s0.4 0.49999 0.6 1zm-56.5-13.75c-0.35 0.25-5.65-8-6.3-9.7 0-0.30001 0.85-0.90001 1.3-1.25 0.35 0.2 0.75 0.5 0.9 0.8 1.7 3.6 4.65 9.7 4.4 9.95zm-2.25 32.95-2.25-0.99999c-1.65 0.35-3 1.1-4.85 1.3-1.95 0.15001-2.75-0.25-3.5-0.75 0.3-0.59999 1.35-1.2 2.9-1.5 0.9-0.15 4.85-0.49999 8.3-0.2zm203.5-42 5.8 4.35c0.6 0.39999 0.5 1.2 0.75001 1.7l-1.3-0.14999c-2.5-1.25-5.1-2.25-6.75-4.7-1.4-2.05 0.89999-1.8 1.5-1.2zm-146.9 7.15-0.65 1c-0.25-0.3-0.6-0.59999-0.75-1-0.5-1-0.5-2.15-0.6-3.2-0.3-2.5-0.15-3.85 1.35-5.35 0.6-0.69999 1.1-0.3 1.1 0.35 0.1 3.15-0.05 5.1-0.45 8.2zm-37.2-9.1c0.55 0.2 1.5 6.15 2.15 9.2 0.15 0.7 0.1 1.6 0 2.25-0.25 0.7-0.5 0.85-1.1 0.25-1-3.15-1.5-6.35-2-9.35-0.2-0.89999-0.2-1.85 0.95-2.35zm169.6 36.15c2.4 1.35 5.2 3.75 6.35 5.15 0.3 0.3 0.15 1.1 0 1.7-0.40001-0.15-0.85001-0.2-1.15-0.45001-2-1.25-3.85-2.65-5.7-3.95-0.25001-0.19999-0.30001-1.65-0.50001-1.95a2.1 2.1 0 0 1 1-0.5zm-109.35-51.5c0.39999 0.25 0.59999 0.5 0.84999 0.84999a2.1 2.1 0 0 1-0.84999 0.90001c-1.7 0.64999-5.65 0.64999-7.3-0.30001a5.1 5.1 0 0 1-0.84999-0.99999l1.15-0.65001c2.35-0.5 5-0.3 7 0.25001zm45 9.6c1.6 2.5 2.3 4.9 3 7.6 0 0.15-0.1 0.2-0.1 0.6-0.4-0.25-0.60001-0.3-0.75001-0.5a14 14 0 0 1-4-6.6c-0.2-0.59999-0.1-1.1 0.64999-1.55 0.45001 0.05 0.80001 0.2 1.2 0.45zm-31.1 171.15c1.9-1.1 2.45-1.95 4.15-3 0.7-0.4 0.6-0.5 0.25-1.15-0.39999-0.75-0.75-0.75-1.75-0.5-1.85 0.65-2.6 1.1-4.5 1.85-0.79999 0.3-1.1 0.65-0.25 1.25zm-58.55-177.3c2.3-1.6 4.8-2.45 7.35-3.4 0.4-0.10001 1 0.05 1.45 0.45l-0.9 0.79999c-2 1.4-4 2.5-5.9 3.65-0.6-0.05-1.5-0.20001-2-0.35001a1.5 1.5 0 0 1 0-1.15zm-59.75 49c-0.55-2.7-1.3-6-0.85-8.4 0.15-0.5 0.5-1 1.05-1.5 0.5 0.44999 1 0.8 1.05 1.25 0.5 2.8-0.3 6-0.5 8.6zm130.15-60.35c1.75-1.4 4.65-2.9 6.75-3.95a25.25 25.25 0 0 1-6.9 7.35c-0.15-1-0.5-2.8 0.15-3.4zm-32 104.45c0 1.1 0.49999 2.3 1.4 3.15 0.49999-0.40001 0.89999-1.15 0.89999-1.5 0.20001-2.1 0.35001-4.25 0.35001-6.45 0.25-0.85001-1-1.1-1.3-0.2-0.5 1.65-1.3 3.3-1.35 5zm109.8 86.5-9.25 3.1c2.15 2.45 8.4 0.45 9.25-3.1zm-136.2-168c0.15 2.45-0.3 5.5-1.65 7.75-0.15 0.3-0.5 0.5-0.9 0.8-0.15-0.45-0.6-0.8-0.5-1.1 0.5-2.5 1.15-5.5 1.75-8 0.1-0.15 0.5-0.3 0.7-0.35zm129.5 176.8c2 0 3.9-0.05 5.4-0.5 1.35-0.85 1.3-2.6 1.75-3.8l-0.50001-0.15-2.2 2c-1.5 0.4-2.85 0.7-4.5 0.9-0.29999 0.3-0.49999 0.5-0.69999 0.9 0.25 0.35 0.5 0.6 0.79999 0.65zm-18.5-99.1c0.65001-1.45 1.25-2.75 1.75-4.1 0.1-0.3-0.35-1.05-0.9-1.55a3.9 3.9 0 0 0-1.1 0.5 20 20 0 0 0-2.9 4.4c0.2 0.35 1.2 0.35 3.1 0.74999zm-154.8-39.15 1.95-5c0.35-0.1 0.65-0.1 0.9 0.05 0.3 1.5 0.05 3.9-0.1 4.85-0.3 1.35-0.8 2.15-2 2.75a8.15 8.15 0 0 1-0.75-2.65zm112.85 36.7c-1.35 0-2.4 0.79999-2.5 2 0 1 1.1 1.95 2.3 1.95 1.25-0.1 2.2-0.99999 2.3-2.1 0-1.2-0.75-1.85-2.1-1.85zm-1.2 12.3c0-1.35-0.8-2.25-2.25-2.25-1.15 0-2 0.74999-2 1.8 0 1.2 1.25 2.4 2.5 2.3 1.1 0 1.75-0.8 1.75-1.85zm-5.05-12.6c0 1.1-0.7 1.75-1.75 1.75-1.4 0-2.45-0.85001-2.45-2.15 0-1 0.99999-2 2-2 1.05-0.1 2.2 0.9 2.2 2.4zm0.9 5c-1.2 0-2 0.74999-2 1.75 0 1.05 1.1 2 2.25 2 0.9 0 1.75-0.95 1.75-2 0.05-0.95001-0.85-1.75-2-1.75zm-13.15 89.4c-1.55 0-2.9 0.75-2.85 1.6 0.1 0.85 1.3 2 2.25 2 1 0 1.55-1.05 1.55-2.4-0.05-1 0-1.2-0.94999-1.2zm-95.3-189.2c-0.75-3-0.4-5.7 0.35-8.75 1.25 2.6 1.35 6.8-0.35 8.75zm112.5 87.6c-0.8 0.5-1.5 1.3-1.4 1.65 0.1 0.60001 0.75 1.15 1.15 1.75 0.6-0.3 1.1-1 1.35-1.6 0.15-0.35-0.6-1-1.15-1.8z" fill="#53565a" stroke-width="5"/>
 <path d="m264.05 284.95v14.85h3.9c5.6 0 8.2-3 8.2-7.45 0-3.6-1.75-7.4-9.15-7.4zm15.5 34.1a231.45 231.45 0 0 1-11.45-16.5h-4v13.7l6.05 0.6v2.4c-2.8-0.1-4.75-0.2-7.15-0.2h-4.3c-2.4 0-4.75 0.1-7.5 0.2v-2.4l6.45-0.6v-31.35l-6.5-0.5v-2.5c3.5 0.15 6 0.25 8 0.25h9c7.9 0 14.75 2.75 14.75 9.9 0 5-3.7 7.85-8.35 9.25a95.5 95.5 0 0 0 11.55 15.1l3.95 0.4v2.45zm-89.1-34.1-6.3-0.55v-2.45l7.35 0.2h4.3l7.6-0.2v2.4l-6.5 0.6v31.35l6.5 0.5v2.45c-2.8-0.1-5.2-0.2-7.6-0.2h-4.3c-2.35 0-4.75 0.1-7.5 0.2v-2.45l6.45-0.5zm-15.05 0-12.05 34.5h-4.85l-12-34.5-4.55-0.55v-2.45l8.15 0.2 9.25-0.2v2.4l-5.95 0.6 9.15 27.5 9-27.5-5.9-0.55v-2.45l7.6 0.2 6.4-0.2v2.4zm-168.85 31.3v-31.35l-6.5-0.5v-2.5c3.5 0.15 6 0.25 7.55 0.25h18.45l0.5-2.1h2.6v10.55h-2.6l-1-5.7h-12.6v14.2h9.3l0.7-4.2h2.45v11.05h-2.45l-0.7-4.15h-9.3v11.2c0 2.5 0.15 2.8 0.3 2.95s0.65 0.3 4.75 0.3h3.7c3 0 4.45-0.2 5.1-0.85 0.7-0.7 1.5-2.6 2.5-6.75h2.5l-1 10.4h-20.85c-3.5 0-7.25 0.1-9.95 0.2v-2.45l6.5-0.5zm92.8-6.6c0 6.35-5.2 10.1-12 10.1-3.5 0-6.85-1.1-9.2-2.6l-0.65 2.9h-2.5v-12.4h2.5c0.25 1.7 0.65 3.9 1 5.45 2.15 2.25 5.6 3.85 8.6 3.85 4 0 6.25-2.3 6.25-5.9 0-8.4-17.55-8.5-17.55-20 0-6.1 5-9.6 11.4-9.6 2.5 0 5 0.5 6.9 1.3l0.75-2.8h2.45v10.85h-2.5a42.45 42.45 0 0 0-1-4.8 10.65 10.65 0 0 0-5.85-1.75c-3.6 0-6.25 1.65-6.25 5.35 0 8.2 17.65 8.25 17.65 20zm-53.4 6.6v-31.35l-6.5-0.5v-2.5c3.5 0.15 6 0.25 7.6 0.25h4.25l7.6-0.2v2.4l-6.5 0.55v28.4c0 1.75 0 2.4 0.35 2.7 0.15 0.2 2.1 0.25 4.4 0.25h1.9c3.4 0 4.5-0.35 5-0.85 0.7-0.75 1.65-2.7 2.75-8.15h2.5l-0.75 11.8h-19.5c-3.75 0-6.8 0.1-9.6 0.2v-2.4zm67.7 0v-31.35l-6.5-0.5v-2.5c3.5 0.15 6 0.25 8 0.25h18l0.50001-2.1h2.6v10.55h-2.55l-1-5.7h-12.6v14.2h9.25l0.74999-4.2h2.4v11.05h-2.4l-0.74999-4.1h-9.25v11.15c0 2.5 0.1 2.8 0.25001 2.95 0.2 0.15 0.65 0.3 4.75 0.3h4.45c3 0 4.45-0.2 5.05-0.85 0.75001-0.7 1.55-2.6 2.5-6.75h2.55l-1.05 10.4h-21.5c-3.45 0-7.2 0.1-9.9 0.2v-2.45l6.45-0.5zm104.55 0v-31.35l-6.5-0.5v-2.5c3.5 0.15 6 0.25 8 0.25h18l0.55001-2.1h2.55v10.55h-2.5l-1-5.7h-12.65v14.2h9.3l0.7-4.2h2.45v11.05h-2.45l-0.7-4.1h-9.3v11.15c0 2.5 0.15001 2.8 0.30001 2.95s0.65 0.3 4.75 0.3h3.8c3 0 4.35-0.2 5-0.85 0.69999-0.7 1.5-2.6 2.5-6.75h2.5l-1 10.4h-20.8c-3.5 0-7.25 0.1-10 0.2v-2.45l6.5-0.5z" fill="#ff6c00" stroke-width="5"/>
</svg>
