<svg width="103" height="96" viewBox="0 0 103 96" fill="none" xmlns="http://www.w3.org/2000/svg">
<mask id="mask0_1653_7000" style="mask-type:alpha" maskUnits="userSpaceOnUse" x="0" y="0" width="91" height="96">
<path d="M74.623 72.1312C74.2295 72.5246 73.8361 73.0492 73.3115 73.4426C66.7541 80 57.8361 83.9344 48 83.9344C38.0328 83.9344 29.1148 79.8689 22.6885 73.4426C16.1311 66.8853 12.1967 57.9672 12.1967 48.1312C12.1967 38.1639 16.2623 29.2459 22.6885 22.8197C29.2459 16.2623 38.1639 12.3279 48 12.3279C57.9672 12.3279 66.8853 16.3934 73.3115 22.8197C74.0984 23.6066 74.7541 24.3934 75.4099 25.1803H90.0984C82.0984 10.0984 66.2295 0 48 0C21.5082 0 0 21.5082 0 48C0 74.4918 21.5082 96 48 96C65.7049 96 81.3115 86.4262 89.5738 72H74.623" fill="black"/>
</mask>
<g mask="url(#mask0_1653_7000)">
<rect width="96" height="96" fill="url(#paint0_radial_1653_7000)"/>
</g>
<path d="M32.394 37.5078H27.4104V59.934H32.394V37.5078Z" fill="black"/>
<path d="M55.0825 51.4095C55.0825 57.4422 51.5415 60.4586 45.5087 60.4586C39.4759 60.4586 35.9349 57.5734 35.9349 51.4095V37.5078H40.9185V51.4095C40.9185 53.9013 41.5743 56.2619 45.5087 56.2619C49.0497 56.2619 50.0989 54.6881 50.0989 51.4095V37.5078H55.0825V51.4095Z" fill="black"/>
<path d="M73.5738 45.1143C73.3115 42.8848 71.082 41.1798 68.7213 41.1798C64.2623 41.1798 62.6885 44.9831 62.6885 48.9175C62.6885 52.7208 64.3935 56.393 68.7213 56.393C71.7377 56.393 73.4426 54.2946 73.8361 51.4093H78.5574C78.0328 57.0487 74.2295 60.5897 68.7213 60.5897C61.7705 60.5897 57.7049 55.3438 57.7049 48.9175C57.7049 42.229 61.7705 37.1143 68.7213 37.1143C73.7049 37.1143 77.7705 39.9995 78.4262 45.2454H73.5738" fill="black"/>
<path d="M81.3115 37.5078H86.1639L95.6066 52.5898V37.5078H100.328V59.934H95.3443L86.0328 44.9832H85.9017V59.934H81.3115V37.5078Z" fill="black"/>
<defs>
<radialGradient id="paint0_radial_1653_7000" cx="0" cy="0" r="1" gradientUnits="userSpaceOnUse" gradientTransform="translate(19.52 19.52) rotate(45) scale(98.4293)">
<stop stop-color="white"/>
<stop offset="0.372385" stop-color="#05BCE4"/>
<stop offset="1" stop-color="#003478"/>
</radialGradient>
</defs>
</svg>
