<?xml version="1.0" encoding="UTF-8" standalone="no"?>
<svg
   xmlns:dc="http://purl.org/dc/elements/1.1/"
   xmlns:cc="http://creativecommons.org/ns#"
   xmlns:rdf="http://www.w3.org/1999/02/22-rdf-syntax-ns#"
   xmlns:svg="http://www.w3.org/2000/svg"
   xmlns="http://www.w3.org/2000/svg"
   xmlns:sodipodi="http://sodipodi.sourceforge.net/DTD/sodipodi-0.dtd"
   xmlns:inkscape="http://www.inkscape.org/namespaces/inkscape"
   version="1.1"
   id="svg2"
   xml:space="preserve"
   width="733.67999"
   height="145.32001"
   viewBox="0 0 733.67999 145.32001"
   sodipodi:docname="JMIR-Publications-logo-2020.eps"><metadata
     id="metadata8"><rdf:RDF><cc:Work
         rdf:about=""><dc:format>image/svg+xml</dc:format><dc:type
           rdf:resource="http://purl.org/dc/dcmitype/StillImage" /></cc:Work></rdf:RDF></metadata><defs
     id="defs6" /><sodipodi:namedview
     pagecolor="#ffffff"
     bordercolor="#666666"
     borderopacity="1"
     objecttolerance="10"
     gridtolerance="10"
     guidetolerance="10"
     inkscape:pageopacity="0"
     inkscape:pageshadow="2"
     inkscape:window-width="640"
     inkscape:window-height="480"
     id="namedview4" /><g
     id="g10"
     inkscape:groupmode="layer"
     inkscape:label="ink_ext_XXXXXX"
     transform="matrix(1.3333333,0,0,-1.3333333,0,145.32)"><g
       id="g12"
       transform="scale(0.1)"><path
         d="m 477.723,968.594 c 230.093,0 416.621,-186.524 416.621,-416.617 0,-230.094 -186.528,-416.622 -416.621,-416.622 -230.094,0 -416.6214,186.528 -416.6214,416.622 v 0 c 0,230.093 186.5274,416.617 416.6214,416.617"
         style="fill:#4e81ca;fill-opacity:1;fill-rule:evenodd;stroke:none"
         id="path14" /><path
         d="m 576.48,435.254 c -9.25,-0.008 -18.281,2.863 -25.828,8.211 l -82.004,-83.598 c 18.864,-26.742 12.473,-63.711 -14.269,-82.566 -26.746,-18.863 -63.711,-12.473 -82.57,14.269 -16,22.692 -14.102,53.45 4.57,73.996 L 275.613,489.152 c -41.23,-20.714 -91.449,-4.089 -112.172,37.141 -20.718,41.227 -4.093,91.445 37.137,112.168 41.227,20.719 91.449,4.09 112.168,-37.133 16.797,-33.426 9.336,-73.933 -18.266,-99.172 l 98.004,-124.109 c 18.5,9.824 40.813,9.152 58.696,-1.766 l 85.3,83.653 c -11.152,22.129 -2.25,49.113 19.879,60.261 22.133,11.153 49.114,2.25 60.266,-19.879 11.152,-22.132 2.25,-49.113 -19.883,-60.265 -6.285,-3.164 -13.222,-4.809 -20.262,-4.797"
         style="fill:#ffffff;fill-opacity:1;fill-rule:evenodd;stroke:none"
         id="path16" /><path
         d="m 735.52,712.883 c 4.003,-5.082 5.335,-11.77 3.589,-17.996 -44.546,-65.035 -107.75,-39.446 -107.75,-39.446 -53.121,26.086 -52.078,84.403 -52.078,84.403 0.082,44.16 -21.551,39.511 -21.551,39.511 -30.789,-23.531 -142.371,1.59 -163.367,53.852 -21,52.258 80.7,135.137 80.7,135.137 96.097,2.269 189.812,-30.078 264.046,-91.149 8.063,-87 -35.918,-110.437 -35.918,-110.437 -4.941,-20.403 32.329,-53.875 32.329,-53.875 z m 58.531,-431.899 c 0,0 -36.117,-36 -66.996,-4 0,0.071 -0.313,0.68 -0.551,1.321 0,0 -1.32,57.25 -18,70 -23.106,24.699 -28.805,60.992 -14.371,91.582 0,0 6.625,16.996 62.847,39.508 0,0 35.293,18.757 39.512,52.078 0,0 11.262,49.371 -9,75.422 0,0 51.281,77.39 103.668,-5.93 13.61,-115.531 -21.586,-231.5 -97.109,-319.981"
         style="fill:#1d2647;fill-opacity:1;fill-rule:evenodd;stroke:none"
         id="path18" /><g
         id="g20"
         transform="scale(10)"><text
           transform="matrix(1,0,0,-1,102.729,50.9266)"
           style="font-variant:normal;font-weight:bold;font-size:60px;font-family:Roboto;-inkscape-font-specification:Roboto-Bold;writing-mode:lr-tb;fill:#1d2647;fill-opacity:1;fill-rule:nonzero;stroke:none"
           id="text24"><tspan
             x="0 31.175802 81.394104 96.544502"
             y="0"
             sodipodi:role="line"
             id="tspan22">JMIR</tspan></text><text
           transform="matrix(1,0,0,-1,246.422,50.9266)"
           style="font-variant:normal;font-weight:300;font-size:60px;font-family:Roboto;-inkscape-font-specification:Roboto-Light;writing-mode:lr-tb;fill:#1d2647;fill-opacity:1;fill-rule:nonzero;stroke:none"
           id="text28"><tspan
             x="0 34.603481 65.222191 96.134308 107.24172 118.34864 146.91702 176.71584 193.6528 204.76022 236.0239 266.64261"
             y="0"
             sodipodi:role="line"
             id="tspan26">Publications</tspan></text></g><g
         id="g30"
         transform="scale(10)"><text
           transform="matrix(1,0,0,-1,100.857,17.0652)"
           style="font-variant:normal;font-weight:normal;font-size:25px;font-family:Roboto;-inkscape-font-specification:Roboto-Regular;writing-mode:lr-tb;fill:#707795;fill-opacity:1;fill-rule:nonzero;stroke:none"
           id="text34"><tspan
             x="0 16.058594 29.907703 41.584 54.932606 68.476501 81.312401 87.129288 100.67319 114.4491 120.38804 136.53206 142.34892 156.12483 161.94173 169.85823 183.20683 189.02371 194.96268 212.53499 225.52959 238.87817 244.69507 252.61157 266.13107 272.07004 287.35962 293.29858 310.23608 324.01147 337.00558 350.55051 356.48801 371.06998 383.90591 389.72232 402.7164 416.26129 429.09723"
             y="0"
             sodipodi:role="line"
             id="tspan32">Advancing Digital Health &amp; Open Science</tspan></text></g></g></g></svg>
