<?xml version="1.0" encoding="UTF-8" standalone="no"?>
<!-- Created with Inkscape (http://www.inkscape.org/) -->

<svg
   version="1.1"
   id="svg2"
   xml:space="preserve"
   width="285.41333"
   height="170.85333"
   viewBox="0 0 285.41333 170.85333"
   sodipodi:docname="KeAi_logo_strapline_vertical_CMYK.eps"
   xmlns:inkscape="http://www.inkscape.org/namespaces/inkscape"
   xmlns:sodipodi="http://sodipodi.sourceforge.net/DTD/sodipodi-0.dtd"
   xmlns="http://www.w3.org/2000/svg"
   xmlns:svg="http://www.w3.org/2000/svg"><defs
     id="defs6"><clipPath
       clipPathUnits="userSpaceOnUse"
       id="clipPath20"><path
         d="m 2080.49,1200.74 c 0,-32.67 -26.47,-59.15 -59.14,-59.15 -32.67,0 -59.15,26.48 -59.15,59.15 0,32.66 26.48,59.14 59.15,59.14 32.67,0 59.14,-26.48 59.14,-59.14 z"
         id="path18" /></clipPath><radialGradient
       fx="0"
       fy="0"
       cx="0"
       cy="0"
       r="1"
       gradientUnits="userSpaceOnUse"
       gradientTransform="matrix(59.1449,0,0,-59.1449,2021.35,1200.74)"
       spreadMethod="pad"
       id="radialGradient26"><stop
         style="stop-opacity:1;stop-color:#ffffff"
         offset="0"
         id="stop22" /><stop
         style="stop-opacity:1;stop-color:#bf1b2c"
         offset="1"
         id="stop24" /></radialGradient></defs><sodipodi:namedview
     id="namedview4"
     pagecolor="#ffffff"
     bordercolor="#666666"
     borderopacity="1.0"
     inkscape:pageshadow="2"
     inkscape:pageopacity="0.0"
     inkscape:pagecheckerboard="0" /><g
     id="g8"
     inkscape:groupmode="layer"
     inkscape:label="ink_ext_XXXXXX"
     transform="matrix(1.3333333,0,0,-1.3333333,0,170.85333)"><g
       id="g10"
       transform="scale(0.1)"><path
         d="m 2105.65,1164.88 c 0,-64.4 -52.2,-116.6 -116.6,-116.6 -64.35,0 -116.56,52.2 -116.56,116.6 0,64.39 52.21,116.55 116.56,116.55 64.4,0 116.6,-52.16 116.6,-116.55"
         style="fill:#bf1b2c;fill-opacity:1;fill-rule:nonzero;stroke:none"
         id="path12" /><g
         id="g14"><g
           id="g16"
           clip-path="url(#clipPath20)"><path
             d="m 2080.49,1200.74 c 0,-32.67 -26.47,-59.15 -59.14,-59.15 -32.67,0 -59.15,26.48 -59.15,59.15 0,32.66 26.48,59.14 59.15,59.14 32.67,0 59.14,-26.48 59.14,-59.14"
             style="fill:url(#radialGradient26);fill-opacity:1;fill-rule:nonzero;stroke:none"
             id="path28" /></g></g><path
         d="m 107.723,1064.87 c 0,113.34 -19.4496,128.45 -103.62534,128.45 v 24.83 c 72.32424,-2.17 116.55834,-4.34 160.79734,-6.47 44.277,2.13 88.515,4.3 159.75,6.47 v -24.83 c -94.981,-8.64 -104.704,-8.64 -104.704,-118.73 V 813.391 c 75.575,75.535 265.539,282.779 259.071,342.159 -4.336,35.6 -46.407,35.6 -79.914,37.77 v 24.83 c 56.168,-2.17 90.683,-4.34 130.621,-6.47 31.336,2.13 62.597,4.3 109.004,6.47 v -24.83 c -56.09,-2.17 -64.766,-8.64 -106.836,-59.38 L 357.027,919.18 C 457.434,806.918 527.586,718.406 618.234,611.57 c 48.575,-61.55 75.532,-86.343 130.614,-85.261 v -24.825 c -50.743,2.129 -99.317,4.297 -147.895,4.297 -63.68,0 -124.109,-2.168 -189.965,-4.297 v 24.825 c 25.918,0 88.516,-3.25 88.516,30.214 0,16.192 -9.723,37.774 -33.469,64.739 L 284.707,841.438 219.941,769.148 V 627.766 c 0,-77.746 5.422,-94.985 104.704,-101.457 v -24.825 c -55.043,2.129 -102.536,4.297 -153.243,4.297 -55.082,0 -107.9567,-2.168 -167.30434,-4.297 v 24.825 C 99.082,525.227 107.723,560.832 107.723,655.813 v 409.057"
         style="fill:#235574;fill-opacity:1;fill-rule:nonzero;stroke:none"
         id="path30" /><path
         d="m 1028.36,822.043 c 16.19,0 27,12.934 24.83,29.129 -2.17,72.32 -42.07,105.754 -109.002,103.617 -65.856,-2.168 -107.922,-50.742 -120.903,-132.746 z m -75.536,157.539 c 98.196,-2.133 201.816,-66.902 201.816,-172.652 0,-8.633 -4.3,-11.891 -17.24,-11.891 H 817.902 c -2.168,-15.105 -2.168,-30.215 -4.336,-48.574 2.168,-99.281 50.747,-221.231 168.387,-221.231 59.387,0 105.797,39.903 137.087,79.844 l 22.66,-23.75 C 1091,518.73 1026.19,488.516 950.656,488.516 800.625,490.684 697.008,602.938 705.645,731.355 712.117,886.77 825.453,981.754 952.824,979.582"
         style="fill:#235574;fill-opacity:1;fill-rule:nonzero;stroke:none"
         id="path32" /><path
         d="M 1496.29,1102.65 1385.68,821.438 h 218.57 z m 55.04,132.74 223.4,-559.081 c 58.3,-147.864 66.93,-137.051 143.59,-150.032 v -24.82 c -52.91,2.168 -95.02,4.336 -134.92,4.336 -55.04,0 -105.78,-2.168 -175.94,-4.336 v 24.82 c 63.68,0 85.27,12.981 85.27,43.196 0,16.191 -6.48,37.761 -15.11,60.429 l -67.5,165.137 h -233.91 l -67.72,-171.601 c -6.47,-16.204 -8.64,-31.309 -10.8,-46.415 2.16,-46.41 48.57,-50.746 88.51,-50.746 v -24.82 c -46.44,2.168 -79.88,4.336 -117.64,4.336 -33.47,0 -66.94,-2.168 -111.18,-4.336 v 24.82 c 45.33,4.336 75.57,17.278 100.37,72.328 97.14,208.325 170.55,423.075 257.98,636.785 h 35.6"
         style="fill:#235574;fill-opacity:1;fill-rule:nonzero;stroke:none"
         id="path34" /><path
         d="m 1974.42,853.336 c 0,82.008 -32.39,70.148 -80.96,72.316 v 20.496 l 171.6,33.434 V 596.438 c 0,-67.993 33.48,-70.161 75.58,-71.204 v -23.777 c -44.24,2.168 -77.71,4.336 -112.26,4.336 -42.11,0 -79.83,-2.168 -130.59,-4.336 v 23.777 c 42.11,3.211 76.63,0 76.63,73.371 v 254.731"
         style="fill:#235574;fill-opacity:1;fill-rule:nonzero;stroke:none"
         id="path36" /><path
         d="m 117.344,17.7188 c 0,-0.1797 -0.184,-3.0586 -0.184,-14.87896 h 24.418 V 81.3008 H 77.8203 V 58.2617 h 39.5237 v -6.0898 c -4.485,-11.043 -17.313,-24.461 -41.7698,-24.461 -26.4765,0 -46.0312,18.1289 -46.0312,46.4375 0,27.0816 17.7226,46.2226 44.4218,46.2226 14.0625,0 28.0862,-6.691 35.8242,-17.312 l 28.949,7.562 C 125.91,133.43 102.277,148.09 73.9648,148.301 33.0195,148.301 0,117.121 0,74.1484 0,31.1914 33.0195,0 73.9648,0 92.4766,0 109.414,8.96875 117.16,17.7188 Z M 239.813,29.3203 V 145.469 H 211.504 V 2.83984 h 98.797 V 29.3203 Z M 358.055,74.1484 C 358.055,31.1914 391.035,0 431.984,0 c 40.946,0 74.157,31.1914 74.157,74.1484 0,42.9726 -33.211,74.1526 -74.157,74.1526 -40.949,0 -73.929,-31.18 -73.929,-74.1526 m 29.539,0 c 0,27.4926 18.324,46.2226 44.39,46.2226 26.289,0 44.61,-18.73 44.61,-46.2226 0,-27.289 -18.321,-46.25 -44.61,-46.25 -26.066,0 -44.39,18.961 -44.39,46.25 M 569.973,145.469 V 2.83984 h 59.867 c 33.617,0 49.695,18.76956 49.695,42.78906 0,16.5195 -14.058,31.3594 -27.707,34.4297 V 80.25 c 9.57,2.8789 19.781,14.6914 19.781,28.34 0,20.762 -17.316,36.879 -42.593,36.879 z m 28.304,-56.8479 v 32.8009 h 25.055 c 11.59,0 19.746,-6.731 19.746,-16.301 0,-9.1601 -8.156,-16.4999 -19.746,-16.4999 z m 0,-61.7422 V 66.832 h 28.719 c 12.824,0 22.809,-7.9726 22.809,-19.9726 0,-12.0078 -9.16,-19.9805 -22.621,-19.9805 z M 839.699,2.83984 H 870.25 L 811.613,145.469 H 784.914 L 726.242,2.83984 h 30.551 l 10.582,27.30076 h 61.738 z M 777.176,55.1992 791.23,91.2383 c 3.067,7.9726 6.735,19.7927 6.922,19.7927 h 0.223 c 0.191,0 3.852,-11.8201 6.918,-19.7927 L 819.355,55.1992 Z M 954.051,29.3203 V 145.469 H 925.742 V 2.83984 h 98.798 V 29.3203 Z M 1206.32,145.469 h -28.31 V 2.87891 h 28.31 z m 186.82,0 -29.73,-48.9182 c -11,-18.1289 -12.82,-22.6211 -13.05,-22.6211 h -0.19 c -0.22,0 -2.05,4.4922 -13.05,22.6211 l -29.54,48.9182 h -26.66 V 2.83984 h 27.89 V 47.4492 c 0,29.9492 -1.23,50.5313 -1.01,50.5313 h 0.19 c 0.22,0 10.21,-17.5117 12.83,-21.5821 l 22.21,-38.289 h 14.66 l 22.21,38.289 c 2.44,4.0704 12.42,21.5821 12.64,21.5821 h 0.19 c 0.22,0 -0.82,-20.5821 -0.82,-50.5313 V 2.83984 h 27.93 V 145.469 Z m 101.3,0 V 2.83984 h 28.31 V 49.9219 h 22.62 c 34.22,0 55.01,17.9101 55.01,47.8594 0,29.7387 -20.79,47.6877 -55.01,47.6877 z m 28.31,-69.0706 v 42.5626 h 22.03 c 16.3,0 26.25,-7.75 26.25,-21.1797 0,-13.2305 -9.57,-21.3829 -26.25,-21.3829 z M 1742.4,2.83984 h 30.56 L 1714.29,145.469 h -26.67 L 1628.95,2.83984 h 30.55 l 10.58,27.30076 h 61.74 z m -62.52,52.35936 14.03,36.0391 c 3.06,7.9726 6.73,19.7927 6.95,19.7927 h 0.19 c 0.18,0 3.88,-11.8201 6.91,-19.7927 l 14.06,-36.0391 z m 272.57,55.4218 c -12.6,22.809 -36.65,37.68 -64.76,37.68 -40.95,0 -73.94,-31.18 -73.94,-74.1526 0,-42.957 32.99,-74.1484 73.94,-74.1484 29.95,0 55.19,16.4883 67.01,41.7695 l -28.5,7.5196 c -7.15,-12.4102 -22.21,-20.9805 -38.51,-20.9805 -25.47,0 -44.4,17.9531 -44.4,45.8398 0,27.0816 17.73,46.2226 44.4,46.2226 14.05,0 28.3,-6.691 35.86,-17.312 z m 51.19,34.848 v -26.508 h 44.43 V 2.83984 h 28.31 V 118.961 h 44.79 v 26.508 z M 138.738,340.867 C 126.094,363.672 102.051,378.563 73.9648,378.563 33.0195,378.563 0,347.375 0,304.402 0,261.441 33.0195,230.25 73.9648,230.25 c 29.9182,0 55.1952,16.488 67.0122,41.77 l -28.528,7.519 c -7.105,-12.418 -22.1795,-20.988 -38.4842,-20.988 -25.4609,0 -44.4218,17.961 -44.4218,45.851 0,27.075 17.7226,46.223 44.4218,46.223 14.0625,0 28.3122,-6.687 35.8242,-17.312 z m 153.242,34.848 v -57.063 h -61.738 v 57.063 H 201.93 V 233.102 h 28.312 v 58.89 h 61.738 v -58.89 h 28.305 v 142.613 z m 131.254,0 H 394.922 V 233.129 h 28.312 z m 170.516,0 v -46.66 c 0,-24.055 0.418,-47.278 0.191,-47.278 h -0.191 c -0.223,0 -18.133,25.469 -27.895,38.301 l -41.359,55.637 H 497.801 V 233.102 h 28.304 v 46.027 c 0,28.344 -0.41,48.906 -0.187,48.906 h 0.187 c 0.223,0 15.891,-22.39 28.719,-39.93 l 40.539,-55.003 h 26.7 V 375.715 Z M 724.973,259.57 v 34.446 h 57.25 v 24.863 h -57.25 v 30.32 h 72.543 v 26.516 H 696.66 V 233.102 h 102.051 v 26.468 z m 238.797,80.285 c -6.094,22.403 -27.293,38.708 -53.957,38.708 -30.176,0 -52.165,-18.961 -52.165,-41.168 0,-24.836 21.2,-33.586 38.106,-39.719 20.156,-7.141 39.488,-10.586 39.488,-25.055 0,-9.57 -7.929,-17.09 -23.222,-17.09 -17.688,0 -29.133,12 -32.161,24.828 l -27.3,-7.328 c 7.746,-25.871 28.312,-42.781 58.261,-42.781 32.575,0 54.598,18.141 54.598,43.609 0,25.457 -23.859,36.454 -44.609,43.59 -17.95,6.106 -34.032,10.18 -34.032,21.582 0,8.567 8.34,14.887 21.387,14.887 12.645,0 25.059,-7.336 28.313,-21.613 z m 93.57,-80.285 v 34.446 h 57.21 v 24.863 h -57.21 v 30.32 h 72.51 v 26.516 H 1029.02 V 233.102 h 102.06 v 26.468 z m 348.59,-26.468 -32.57,53.988 c 17.32,7.148 26.89,21.394 26.89,40.945 0,28.723 -20.98,47.68 -56.02,47.68 h -49.92 V 233.102 h 28.3 v 48.675 h 21.62 1.6 l 28.35,-48.675 z m -83.32,116.097 h 25.28 c 15.48,0 23,-9.98 23,-21.164 0,-10.801 -7.33,-20.972 -23,-20.972 h -25.28 z m 133.28,-44.797 c 0,-42.961 32.98,-74.152 73.93,-74.152 40.94,0 74.15,31.191 74.15,74.152 0,42.973 -33.21,74.161 -74.15,74.161 -40.95,0 -73.93,-31.188 -73.93,-74.161 m 29.54,0 c 0,27.485 18.32,46.223 44.39,46.223 26.28,0 44.61,-18.738 44.61,-46.223 0,-27.293 -18.33,-46.261 -44.61,-46.261 -26.07,0 -44.39,18.968 -44.39,46.261 m 177.88,0 c 0,-42.961 33.03,-74.152 73.98,-74.152 40.94,0 74.15,31.191 74.15,74.152 0,42.973 -33.21,74.161 -74.15,74.161 -40.95,0 -73.98,-31.188 -73.98,-74.161 m 29.54,0 c 0,27.485 18.33,46.223 44.44,46.223 26.25,0 44.61,-18.738 44.61,-46.223 0,-27.293 -18.36,-46.261 -44.61,-46.261 -26.11,0 -44.44,18.968 -44.44,46.261 m 166.67,71.313 v -26.516 h 44.43 V 233.102 h 28.31 v 116.097 h 44.79 v 26.516 z m 275.86,-35.86 c -6.09,22.403 -27.29,38.708 -53.95,38.708 -30.18,0 -52.17,-18.961 -52.17,-41.168 0,-24.836 21.2,-33.586 38.1,-39.719 20.16,-7.141 39.53,-10.586 39.53,-25.055 0,-9.57 -7.96,-17.09 -23.22,-17.09 -17.73,0 -29.13,12 -32.19,24.828 l -27.31,-7.328 c 7.75,-25.871 28.31,-42.781 58.26,-42.781 32.57,0 54.6,18.141 54.6,43.609 0,25.457 -23.85,36.454 -44.61,43.59 -17.95,6.106 -34.03,10.18 -34.03,21.582 0,8.567 8.34,14.887 21.39,14.887 12.64,0 25.06,-7.336 28.31,-21.613 l 27.29,7.55"
         style="fill:#6e7071;fill-opacity:1;fill-rule:nonzero;stroke:none"
         id="path38" /></g></g></svg>
