<svg fill="none" height="396" viewBox="0 0 600 396" width="600" xmlns="http://www.w3.org/2000/svg"><g fill="#385072"><path d="m208 264.6h-38v-95.4l-24.8 95.4h-26l-25.6-95.4v95.4h-30.6v-133.4h53.4l19.4 70.8 18.4-70.8h53.8z"/><path d="m231.4 131.2h51.6c22 0 37 5.8 49.2 18.8 11.6 12.4 17.8 29 17.8 47.6 0 39.8-26.2 67-64.4 67h-54.2zm51.6 102.8c14.2 0 24.2-15 24.2-36.2 0-9.6-2-18.4-6-25.4-4.2-7.4-10.2-11-18.2-11h-10.6v72.6z"/><path d="m408.8 264.6h-41.4v-133.4h56.8c20.6 0 32 3 41.8 10.6 9.2 7.4 14.8 19.2 14.8 32 0 25.4-19.4 42.4-48.8 42.4h-23.2zm13.2-77c12.4 0 18-4.2 18-13.2 0-8.4-5.6-12.6-16.8-12.6h-14.8v25.8z"/><path d="m535.4 264.6h-41v-133.4h41z"/><path d="m10.6 292.4h-9.999994v-203.2l153.999994-88.600002 155 88.300002-9.4 6-145.6-82.7-144 82.8z"/><path d="m25.4 111.2.1-11.5 123.8-71.3-.1 12z"/><path d="m589.2 103.7h10v203.3l-153.9 88.5-155.1-88.2 9.5-6.1 145.5 82.8 144-82.8z"/><path d="m574.4 284.9-.1 11.6-123.8 71.3.1-12.1z"/></g></svg>