<svg height="135" viewBox="0 0 411.25 135" width="411.25" xmlns="http://www.w3.org/2000/svg" xmlns:xlink="http://www.w3.org/1999/xlink"><clipPath id="a"><path d="m0 107.159h328.608v-107.099l-328.608 0z"/></clipPath><g transform="matrix(1.25 0 0 -1.25 0 135)"><g fill="#2a2521"><path d="m147.534 27.234c2.592 0 4.968.486 7.136 1.459 2.166.966 4.023 2.284 5.567 3.952 1.544 1.671 2.753 3.623 3.626 5.864.871 2.238 1.307 4.625 1.307 7.164v.149c0 2.541-.436 4.939-1.307 7.205-.873 2.265-2.094 4.229-3.661 5.897-1.571 1.666-3.453 2.999-5.643 3.994-2.194.994-4.587 1.492-7.176 1.492-2.592 0-4.97-.486-7.134-1.456-2.171-.97-4.026-2.287-5.571-3.957-1.545-1.666-2.751-3.618-3.625-5.86-.873-2.24-1.306-4.63-1.306-7.165v-.15c0-2.539.433-4.937 1.306-7.204.874-2.264 2.092-4.23 3.663-5.895 1.567-1.668 3.449-3.002 5.641-3.995 2.193-.998 4.585-1.494 7.177-1.494zm-.151-8.465c-4.033 0-7.719.708-11.06 2.128-3.335 1.42-6.199 3.35-8.591 5.793-2.388 2.44-4.258 5.292-5.605 8.56-1.344 3.259-2.017 6.736-2.017 10.423v.149c0 3.685.673 7.165 2.017 10.426 1.347 3.263 3.239 6.127 5.681 8.594 2.441 2.467 5.329 4.423 8.667 5.869 3.338 1.442 7.023 2.166 11.059 2.166 4.034 0 7.721-.71 11.057-2.133 3.337-1.415 6.201-3.349 8.592-5.789 2.392-2.441 4.257-5.295 5.605-8.558 1.345-3.263 2.017-6.739 2.017-10.425v-.15c0-3.686-.672-7.161-2.017-10.426-1.348-3.263-3.24-6.127-5.68-8.594-2.438-2.466-5.33-4.424-8.668-5.867-3.334-1.446-7.023-2.166-11.057-2.166"/><path d="m205.22 18.769c-3.784 0-7.311.694-10.574 2.094-3.264 1.393-6.082 3.297-8.444 5.716-2.366 2.416-4.221 5.27-5.564 8.555-1.344 3.29-2.017 6.802-2.017 10.539v.149c0 3.74.66 7.237 1.978 10.502 1.318 3.26 3.173 6.128 5.563 8.594 2.39 2.467 5.244 4.411 8.558 5.826 3.312 1.423 6.938 2.133 10.878 2.133 2.389 0 4.568-.199 6.536-.599 1.971-.401 3.776-.96 5.419-1.686 1.645-.726 3.163-1.585 4.561-2.584 1.396-1 2.715-2.099 3.961-3.295l-5.906-6.805c-2.093 1.944-4.307 3.511-6.649 4.709-2.344 1.194-5.01 1.793-7.999 1.793-2.494 0-4.796-.486-6.915-1.456-2.117-.97-3.937-2.287-5.456-3.957-1.518-1.666-2.716-3.618-3.59-5.86-.869-2.24-1.305-4.63-1.305-7.165v-.15c0-2.539.436-4.937 1.305-7.204.874-2.264 2.072-4.244 3.59-5.934 1.519-1.694 3.339-3.025 5.456-3.991 2.119-.973 4.421-1.459 6.915-1.459 1.593 0 3.061.163 4.411.488 1.345.321 2.612.768 3.81 1.343 1.197.573 2.353 1.283 3.475 2.132 1.123.846 2.23 1.791 3.325 2.838l5.904-5.978c-1.343-1.395-2.753-2.67-4.221-3.818-1.47-1.15-3.052-2.138-4.748-2.963-1.692-.823-3.548-1.448-5.569-1.873-2.015-.422-4.244-.634-6.688-.634"/><path d="m232.959 71.954h9.199v-43.939h27.503v-8.372h-36.702z"/></g><g clip-path="url(#a)"><path d="m296.006 18.769c-3.786 0-7.313.694-10.577 2.094-3.263 1.393-6.079 3.297-8.443 5.716-2.365 2.416-4.221 5.27-5.564 8.555-1.346 3.29-2.017 6.802-2.017 10.539v.149c0 3.74.661 7.237 1.979 10.502 1.318 3.26 3.174 6.128 5.562 8.594 2.393 2.467 5.244 4.411 8.558 5.826 3.314 1.423 6.938 2.133 10.876 2.133 2.391 0 4.572-.199 6.538-.599 1.969-.401 3.776-.96 5.42-1.686 1.643-.726 3.164-1.585 4.56-2.584 1.395-1 2.715-2.099 3.961-3.295l-5.905-6.805c-2.09 1.944-4.309 3.511-6.65 4.709-2.344 1.194-5.01 1.793-8 1.793-2.49 0-4.796-.486-6.914-1.456-2.117-.97-3.937-2.287-5.453-3.957-1.521-1.666-2.717-3.618-3.588-5.86-.873-2.24-1.31-4.63-1.31-7.165v-.15c0-2.539.437-4.937 1.31-7.204.871-2.264 2.067-4.244 3.588-5.934 1.516-1.694 3.336-3.025 5.453-3.991 2.118-.973 4.424-1.459 6.914-1.459 1.594 0 3.062.163 4.41.488 1.349.321 2.615.768 3.811 1.343 1.199.573 2.355 1.283 3.476 2.132 1.121.846 2.231 1.791 3.328 2.838l5.903-5.978c-1.347-1.395-2.753-2.67-4.221-3.818-1.474-1.15-3.054-2.138-4.748-2.963-1.695-.823-3.55-1.448-5.568-1.873-2.018-.422-4.247-.634-6.689-.634" fill="#2a2521"/><path d="m85.578 71.106c-3.877 23.461-26.049 39.349-49.516 35.47-23.471-3.872-39.356-26.044-35.48-49.505 2.895-17.533 16.007-30.83 32.245-34.815.049 1.275.212 2.55.498 3.815-11.633 4.086-20.821 14.451-23.019 27.793-3.179 19.229 9.344 37.315 27.967 40.387 16.593 2.741 32.422-7.364 37.926-23.199 3.81-1.359 7.168-3.477 9.945-6.17-.038 2.058-.221 4.135-.566 6.224" fill="#315d99"/><path d="m76.56 78.799c-17.842 4.897-36.277-5.601-41.167-23.437-2.023-7.367-1.414-14.833 1.246-21.407.972 1.353 2.065 2.566 3.269 3.62-.809 4.165-.713 8.59.494 12.989 4.079 14.853 19.039 23.701 33.427 19.752 14.387-3.947 22.745-19.195 18.671-34.05-2.772-10.105-10.593-17.418-19.835-19.825-.341-1.101-.778-2.184-1.303-3.243 13.252 1.463 24.901 10.799 28.643 24.437 4.893 17.836-5.608 36.271-23.445 41.164" fill="#468e35"/><path d="m68.375 12.031c-5.716-8.72-17.198-11.303-25.647-5.767-8.449 5.539-10.664 17.097-4.941 25.821 5.722 8.721 17.202 11.304 25.647 5.767s10.66-17.1 4.941-25.821zm-1.542 31.912c-11.051 7.244-25.884 4.156-33.125-6.894-7.249-11.049-4.167-25.882 6.892-33.129 11.051-7.247 25.886-4.159 33.13 6.892 7.245 11.051 4.155 25.886-6.897 33.131" fill="#e8671a"/></g><path d="m325.387 68.973c.201 0 .354.05.463.147.107.098.16.222.16.373v.019c0 .176-.057.309-.17.396-.114.089-.271.133-.472.133h-.785v-1.068zm-1.607 1.777h1.616c.485 0 .86-.133 1.124-.397.201-.201.301-.466.301-.794v-.018c0-.297-.071-.536-.216-.718-.145-.183-.334-.319-.567-.407l.888-1.304h-.936l-.774 1.172h-.633v-1.172h-.803zm1.399-4.96c.433 0 .836.081 1.204.24.368.161.688.379.959.653.27.274.483.596.638.968.154.371.231.765.231 1.181v.018c0 .417-.076.809-.226 1.177-.152.368-.363.69-.634.964s-.591.489-.959.647c-.368.157-.767.236-1.194.236-.435 0-.837-.081-1.205-.241s-.688-.378-.959-.652-.483-.597-.638-.968c-.154-.372-.232-.765-.232-1.181v-.019c0-.415.078-.807.232-1.176.155-.369.365-.69.633-.964.268-.273.586-.489.955-.647.368-.157.766-.236 1.195-.236zm0-.377c-.479 0-.926.088-1.342.268-.415.18-.776.424-1.082.732-.305.309-.546.669-.722 1.082-.176.412-.265.852-.265 1.318v.019c0 .466.089.905.265 1.318.176.412.418.774.727 1.086s.672.559 1.091.742c.419.182.867.274 1.347.274.477 0 .925-.09 1.341-.27.415-.179.776-.423 1.082-.732.305-.308.546-.669.723-1.081.176-.413.264-.852.264-1.319v-.018c0-.466-.088-.906-.264-1.318-.177-.413-.42-.774-.728-1.086-.309-.312-.673-.559-1.091-.742-.419-.183-.867-.273-1.346-.273" fill="#2a2521"/></g></svg>