<?xml version="1.0" encoding="UTF-8"?>
<svg enable-background="new 0 0 944 620" version="1.1" viewBox="0 0 944 620" xml:space="preserve" xmlns="http://www.w3.org/2000/svg">
<style type="text/css">
  .st0{fill:#F63C3D;}
  .st1{fill:#17BAFA;}
  .st2{opacity:0.93;}
  .st3{fill:#18335A;}
  .st4{fill:#D2DA20;}
  .st5{opacity:0.83;}
  .st6{fill:#007165;}
</style>
<path class="st0" d="m558.68 69.77c2.45-2.8 5.82-5.98 10.89-6.67 3.77-0.52 7.15 0.04 9.97 2.66 8.02 7.42 16.31 14.57 23.95 22.37 17.3 17.66 33.04 36.73 48.18 56.28 14.36 18.54 27.69 37.85 40.26 57.7 3.72 5.88 7.51 11.72 11.2 17.62 3.4 5.44 6.75 10.91 10.04 16.41 3.31 5.52 6.52 11.1 9.77 16.66 3 5.12 6.12 10.17 8.96 15.38 4.47 8.2 8.81 16.46 13.07 24.78 3.13 6.12 6.07 12.34 9.05 18.54 3.75 7.81 7.66 15.55 11.12 23.49 3.36 7.72 6.33 15.62 9.31 23.51 2.89 7.66 5.65 15.37 8.32 23.11 0.74 2.16 0.85 4.54 1.46 6.76 1.78 6.5 4.07 12.88 5.43 19.48 1.9 9.21 3.18 18.55 4.63 27.86 0.57 3.63 0.94 7.31 1.26 10.98 0.06 0.72-0.54 1.51-0.84 2.27-0.64-0.6-1.7-1.09-1.86-1.81-1.77-7.92-2.97-16-5.16-23.78-3.17-11.23-6.68-22.38-10.69-33.32-3.75-10.23-8.06-20.27-12.64-30.14-4.69-10.1-9.82-20.01-15.11-29.8-5.29-9.8-10.81-19.47-16.58-28.98-6.61-10.9-13.43-21.68-20.49-32.28-9.59-14.43-19.33-28.76-29.31-42.91-8.46-12-17.17-23.83-26.09-35.47-9.8-12.78-19.77-25.45-30.07-37.83-9.11-10.95-18.56-21.63-28.25-32.05-9.3-9.98-19.07-19.52-28.72-29.17-3.59-3.59-7.57-6.79-11.11-10.43-3.55-3.66-3.52-5.99 0.05-11.22z"/>
<path class="st1" d="m733.08 66.49c3.63-0.83 8.23-1.42 12.74 0.99 3.36 1.8 5.76 4.23 6.51 8.01 2.13 10.72 4.65 21.37 6.26 32.17 3.64 24.45 5.19 49.13 5.97 73.85 0.74 23.44 0.2 46.9-1.28 70.34-0.44 6.95-0.8 13.9-1.28 20.84-0.44 6.4-0.94 12.79-1.5 19.18-0.57 6.41-1.24 12.81-1.87 19.22-0.58 5.9-1.01 11.82-1.77 17.71-1.2 9.26-2.53 18.5-3.96 27.73-1.05 6.79-2.33 13.55-3.56 20.32-1.55 8.52-2.93 17.08-4.79 25.54-1.81 8.22-4.04 16.36-6.26 24.5-2.15 7.9-4.45 15.76-6.83 23.59-0.66 2.18-1.98 4.18-2.79 6.33-2.37 6.31-4.27 12.82-7.04 18.95-3.87 8.57-8.32 16.89-12.61 25.27-1.67 3.27-3.53 6.47-5.42 9.63-0.37 0.62-1.33 0.91-2.02 1.35-0.17-0.86-0.74-1.88-0.45-2.56 3.22-7.45 6.99-14.7 9.78-22.28 4.03-10.95 7.73-22.04 10.91-33.25 2.97-10.48 5.37-21.14 7.46-31.82 2.13-10.93 3.79-21.96 5.26-33 1.47-11.03 2.68-22.11 3.59-33.19 1.04-12.7 1.85-25.43 2.37-38.16 0.7-17.31 1.23-34.63 1.46-51.95 0.19-14.68 0.09-29.37-0.3-44.03-0.43-16.1-1.06-32.21-2.13-48.28-0.95-14.21-2.32-28.4-4.06-42.53-1.66-13.54-3.98-27-6.13-40.47-0.8-5.02-2.15-9.95-2.87-14.97-0.75-5.03 0.65-6.89 6.61-9.03z"/>
<g class="st2">
<path class="st3" d="m433.01 108.31c0.53-3.63 1.63-8.06 5.53-11.36 2.9-2.45 6.05-3.8 9.87-3.16 10.83 1.82 21.75 3.27 32.47 5.61 24.27 5.29 48.01 12.58 71.5 20.6 22.28 7.6 44.11 16.38 65.59 26.02 6.36 2.86 12.76 5.65 19.11 8.54 5.85 2.66 11.67 5.38 17.47 8.16 5.82 2.78 11.59 5.67 17.37 8.51 5.33 2.62 10.74 5.11 15.99 7.88 8.26 4.37 16.46 8.86 24.61 13.43 6 3.37 11.89 6.93 17.8 10.44 7.45 4.43 14.98 8.73 22.26 13.43 7.07 4.57 13.91 9.5 20.75 14.41 6.64 4.77 13.19 9.65 19.69 14.61 1.81 1.38 3.21 3.3 4.94 4.8 5.07 4.41 10.5 8.45 15.26 13.17 6.65 6.58 12.85 13.61 19.18 20.51 2.47 2.7 4.8 5.53 7.08 8.39 0.45 0.56 0.37 1.54 0.54 2.33-0.87-0.15-2.03 0.01-2.56-0.49-5.83-5.59-11.28-11.61-17.4-16.86-8.83-7.57-17.91-14.89-27.28-21.77-8.77-6.43-17.91-12.4-27.19-18.09-9.5-5.82-19.26-11.24-29.09-16.49s-19.79-10.27-29.87-15.03c-11.55-5.45-23.21-10.68-34.98-15.65-16-6.76-32.08-13.36-48.26-19.69-13.71-5.36-27.54-10.45-41.46-15.27-15.28-5.29-30.63-10.4-46.1-15.09-13.69-4.15-27.51-7.9-41.4-11.29-13.32-3.25-26.79-5.88-40.21-8.66-5-1.04-10.11-1.54-15.1-2.65-5.01-1.11-6.26-3.06-6.11-9.29z"/>
</g>
<path class="st4" d="m823.28 220.35c3.56 1.08 7.85 2.85 10.57 7.18 2.02 3.23 2.9 6.53 1.68 10.18-3.46 10.36-6.56 20.86-10.53 31.04-8.97 23.03-19.87 45.23-31.45 67.08-10.99 20.72-23.09 40.82-36.01 60.44-3.83 5.81-7.59 11.67-11.45 17.46-3.56 5.34-7.16 10.64-10.82 15.91-3.67 5.29-7.43 10.51-11.16 15.76-3.43 4.84-6.75 9.76-10.32 14.49-5.63 7.45-11.37 14.81-17.2 22.11-4.28 5.37-8.74 10.61-13.17 15.88-5.57 6.63-11.02 13.38-16.83 19.8-5.65 6.24-11.63 12.2-17.59 18.17-5.78 5.79-11.68 11.47-17.64 17.09-1.66 1.57-3.79 2.64-5.56 4.11-5.19 4.3-10.07 9.01-15.52 12.96-7.61 5.52-15.6 10.53-23.48 15.69-3.08 2.01-6.27 3.87-9.49 5.67-0.63 0.35-1.6 0.13-2.42 0.17 0.28-0.83 0.29-2 0.88-2.44 6.49-4.87 13.36-9.29 19.55-14.5 8.93-7.51 17.65-15.3 25.96-23.46 7.78-7.63 15.15-15.69 22.26-23.93 7.28-8.44 14.19-17.19 20.94-26.04s13.3-17.87 19.59-27.04c7.21-10.51 14.22-21.16 20.99-31.96 9.2-14.68 18.25-29.46 27.04-44.38 7.45-12.65 14.65-25.45 21.58-38.38 7.61-14.2 15.06-28.5 22.1-42.98 6.23-12.81 12.07-25.81 17.57-38.94 5.27-12.58 9.94-25.41 14.76-38.18 1.79-4.75 3.07-9.7 4.93-14.42 1.87-4.72 4.01-5.65 10.24-4.54z"/>
<g class="st5">
<path class="st6" d="m852.54 369.84c1.86 3.22 3.78 7.45 2.79 12.47-0.73 3.74-2.35 6.75-5.74 8.58-9.62 5.18-19.06 10.72-28.92 15.43-22.3 10.66-45.44 19.39-68.84 27.39-22.19 7.59-44.77 13.96-67.62 19.43-6.77 1.62-13.52 3.31-20.3 4.9-6.24 1.46-12.5 2.86-18.77 4.19-6.29 1.34-12.61 2.58-18.92 3.86-5.81 1.18-11.6 2.5-17.45 3.5-9.2 1.58-18.43 3.02-27.67 4.36-6.8 0.99-13.64 1.75-20.47 2.57-8.6 1.02-17.19 2.22-25.83 2.92-8.39 0.68-16.83 0.94-25.26 1.21-8.18 0.26-16.37 0.37-24.56 0.4-2.28 0.01-4.57-0.67-6.87-0.81-6.73-0.42-13.51-0.32-20.19-1.17-9.32-1.18-18.58-2.99-27.86-4.63-3.62-0.64-7.22-1.47-10.79-2.36-0.7-0.17-1.26-1-1.88-1.53 0.77-0.41 1.58-1.26 2.31-1.18 8.06 0.89 16.1 2.36 24.17 2.81 11.65 0.64 23.34 0.92 34.98 0.66 10.89-0.24 21.79-1.07 32.61-2.22 11.08-1.17 22.11-2.83 33.09-4.66s21.92-3.93 32.78-6.31c12.45-2.73 24.86-5.7 37.17-8.94 16.75-4.41 33.47-8.99 50.09-13.86 14.09-4.12 28.1-8.54 42-13.22 15.27-5.14 30.48-10.47 45.52-16.22 13.31-5.08 26.47-10.56 39.46-16.37 12.45-5.57 24.64-11.73 36.89-17.74 4.56-2.24 8.88-4.97 13.47-7.14 4.62-2.18 6.82-1.39 10.61 3.68z"/>
</g>
<circle class="st6" cx="809.09" cy="136.91" r="15.09"/>
<circle class="st3" cx="654.73" cy="35.79" r="15.09"/>
<circle class="st3" cx="486.18" cy="530.81" r="15.09"/>
<circle class="st3" cx="766.76" cy="496.13" r="15.09"/>
<circle class="st4" cx="624.54" cy="500.63" r="15.09"/>
<circle class="st4" cx="501.28" cy="50.88" r="15.09"/>
<circle class="st0" cx="858.6" cy="330.29" r="15.09"/>
<path class="st3" d="m56.96 240.33h67.34c40.02 0 64.9 22.69 64.9 57.1v0.49c0 38.31-30.74 58.32-68.32 58.32h-33.91v54.9h-30.01v-170.81zm64.91 88.82c22.69 0 36.84-12.69 36.84-30.5v-0.49c0-20.01-14.4-30.5-36.84-30.5h-34.9v61.49h34.9z"/>
<path class="st3" d="m219.95 240.33h30.01v143.47h89.79v27.33h-119.8v-170.8z"/>
<path class="st3" d="m352.69 326.22v-0.49c0-48.07 37.09-88.33 89.55-88.33s89.06 39.77 89.06 87.84v0.49c0 48.07-37.09 88.33-89.55 88.33s-89.06-39.77-89.06-87.84zm147.13 0v-0.49c0-33.18-24.16-60.51-58.07-60.51s-57.58 26.84-57.58 60.02v0.49c0 33.18 24.16 60.51 58.07 60.51 33.91 0.01 57.58-26.83 57.58-60.02z"/>
  <path class="st3" d="m554.96 386.25 18.06-21.47c16.35 14.15 32.94 22.2 53.92 22.2 18.54 0 30.26-8.78 30.26-21.47v-0.49c0-12.2-6.83-18.79-38.55-26.11-36.36-8.78-56.85-19.52-56.85-51v-0.49c0-29.28 24.4-49.53 58.32-49.53 24.89 0 44.65 7.56 61.98 21.47l-16.1 22.69c-15.37-11.47-30.74-17.57-46.36-17.57-17.57 0-27.82 9.03-27.82 20.25v0.49c0 13.18 7.81 19.03 40.75 26.84 36.11 8.78 54.66 21.72 54.66 50.02v0.49c0 31.96-25.13 51-61 51-26.13 0.01-50.77-9.02-71.27-27.32z"/>
</svg>