<svg fill="none" height="108" viewBox="0 0 285 108" width="285" xmlns="http://www.w3.org/2000/svg"><g fill="#039"><path d="m33.08 2.34c-14.64 0-26.55 17.79-26.55 39.31 0 21.81 11.91 39.29 26.55 39.29s26.52-17.48 26.52-39.29c0-21.48-11.94-39.31-26.52-39.31zm-.21-2.34c17.88 0 32.88 18.8 32.88 41.76 0 23.12-15 41.91-32.88 41.91-18.27 0-32.87-18.79-32.87-41.91 0-23 14.6-41.76 32.87-41.76"/><path d="m53.41 30.1302c-.38-7.73-8.6-19.78-19.43-20.20002v21.20002h18.51c.1302.009.2607-.0114.3819-.0597.1213-.0482.2301-.1232.3184-.2192.0884-.096.154-.2107.192-.3355.038-.1249.0475-.2566.0277-.3856"/><path d="m53.4 53.2402c-.0014-.217-.0464-.4315-.1323-.6308-.0859-.1992-.2109-.3792-.3677-.5292l-21.09-21.21v-20.94002c-10.89.43002-19 12.56002-19.42 20.32002-.0254.2248-.0009.4525.0716.6668.0726.2143.1916.41.3484.5732l21.17 21.33v20.91c11-.43 19.21-12.73 19.42-20.49z"/><path d="m12.34 53.5701c.47 7.77 8.6 19.74 19.47 20.16v-21.18h-18.58c-.1298-.0123-.2607.0061-.382.0538s-.2297.1233-.3164.2207-.1492.2138-.1825.3399c-.0333.126-.0364.2581-.0091.3856"/><path d="m111.28 28.6001c-.44-9.86-8.61-13-15.81-13-5.41 0-14.56 1.51-14.56 11.19 0 5.42 3.82 7.19 7.55 8.08l18.21 4.26c8.25 1.95 14.47 6.92 14.47 17 0 15.1-14 19.27-25 19.27-11.81 0-16.42-3.55-19.27-6.13-5.37-4.88-6.44-10.21-6.44-16.14h8.08c0 11.54 9.42 14.92 17.59 14.92 6.21 0 16.69-1.6 16.69-10.75 0-6.66-3.11-8.79-13.59-11.28l-13-3c-4.18-1-13.59-3.9-13.59-15 0-9.94 6.48-19.71004 21.94-19.71004 22.29 0 24.51 13.32004 24.86 20.34004z"/><path d="m203.56 39.6101h28v34.1h-7.37l-.27-8.26c-4.35 6-12.34 10-21 10-10.93 0-16.26-4-19.54-7.19-9.77-9.24-10-20.16-10-26.91 0-15.55 9.41-33 30.2-33 11.9 0 25.13 6.75 27 21.05h-8.35c-2.76-11.1-12.08-13.41-19.1-13.41-11.45 0-20.87 9.14-20.87 25.84 0 13 4.27 26.29 21.23 26.29 4.693.1904 9.306-1.2553 13.05-4.09 5.6-4.44 7-10.12 7-17h-19.98z"/><path d="m237.57 9.9502v63.77h47.07v-7.64h-38.45v-21.31h34.9v-7.64h-34.9v-19.54h37.83v-7.64z"/><path d="m161.02 55.1302 6.3 18.56h9.41l-23.09-63.74h-9.76l-24 63.76h8.93l6.63-18.58zm-22.92-7.64 10.22-28.06h.17l9.42 28.06z"/><path d="m284.64 87.1299h-2.23v2c-.423-.7555-1.047-1.3794-1.802-1.8029s-1.613-.6302-2.478-.5971c-5 0-6.65 4.2-6.65 7.59 0 3.92 2.14 7.2901 6.42 7.2901.919.038 1.83-.188 2.625-.652.794-.465 1.438-1.148 1.855-1.9681h.05v1c0 3.2201-1.22 5.4501-4.3 5.4501-1.56 0-3.62-.62-3.73-2.34h-2.36c.14 3.14 3.25 4.23 6 4.23 4.53 0 6.67-2.39 6.67-7.06v-13.1401zm-6.62 12.45c-3.11 0-4.06-2.89-4.06-5.47 0-2.76 1.23-5.23 4.26-5.23s4.08 2.61 4.08 5.14c0 2.7-1.16 5.56-4.28 5.56zm-20.37 1.9201h2.36v-8.1201c0-2.58 1.39-4.5 4.25-4.5.389-.0312.78.0219 1.146.1557.367.1338.7.3451.977.6195.277.2743.492.6053.629.9703.138.365.195.7554.168 1.1445v9.7301h2.36v-9.4501c0-3.09-1.17-5.26-5-5.26-.947-.051-1.888.1682-2.715.6321s-1.505 1.1533-1.955 1.9879h-.05v-2.28h-2.22v14.3701zm-2.74-19.8501h-2.36v2.89h2.36zm-2.36 19.8501h2.36v-14.3701h-2.36zm-14.66 0h2.36v-8.1201c0-2.58 1.39-4.5 4.25-4.5.389-.0312.78.0219 1.146.1557.367.1338.7.3451.977.6195.277.2743.492.6053.63.9703.137.365.194.7554.167 1.1445v9.7301h2.39v-9.4501c0-3.09-1.16-5.26-4.94-5.26-1.73 0-3.76.73-4.53 2.45h-.06v-7.59h-2.36v19.8501zm-14-4.5301c.14 3.5601 2.86 4.8601 6.09 4.8601 2.91 0 6.11-1.11 6.11-4.5301 0-2.78-2.33-3.56-4.7-4.08-2.19-.53-4.69-.81-4.69-2.51 0-1.44 1.64-1.83 3.05-1.83 1.56 0 3.17.58 3.34 2.42h2.36c-.19-3.5-2.72-4.51-5.89-4.51-2.5 0-5.37 1.2-5.37 4.09s2.37 3.53 4.7 4.06 4.7.83 4.7 2.67-2 2.14-3.48 2.14c-1.94 0-3.78-.67-3.86-2.78zm-1.91-15.32h-2.36v2.89h2.36zm-2.36 19.8501h2.36v-14.3701h-2.36zm-5.16 0h2.35v-19.8901h-2.36v19.8501zm-15.73 0h2.36v-1.9201h.06c.53.7261 1.23 1.3111 2.039 1.7041.809.392 1.703.579 2.601.546 4.39 0 6.56-3.4201 6.56-7.4701s-2.2-7.57-6.61-7.57c-2 0-3.81.7-4.59 2.28h-.06v-7.42h-2.36zm11.08-7.3701c0 2.81-1.09 5.56-4.31 5.56s-4.53-2.62-4.53-5.45 1.22-5.42 4.39-5.42 4.45 2.63 4.45 5.31zm-13.87-7h-2.36v8.11c0 2.59-1.39 4.51-4.26 4.51-.389.0311-.78-.022-1.146-.1558s-.7-.3451-.977-.6194c-.277-.2744-.492-.6054-.629-.9704-.138-.365-.195-.7553-.168-1.1444v-9.73h-2.36v9.45c0 3.08 1.17 5.2501 5 5.2501.946.052 1.887-.166 2.713-.628.827-.462 1.506-1.149 1.957-1.9821h.06v2.2801h2.22v-14.3701zm-25.74-3.25h5.17c3 0 4.34 1.27 4.34 3.64s-1.36 3.67-4.34 3.64h-5.17zm-2.64 17.6201h2.64v-8.1201h6.06c4 0 6.09-2.19 6.09-5.86s-2.14-5.87-6.09-5.87h-8.7z"/></g></svg>