<svg fill="none" height="538" viewBox="0 0 537 538" width="537" xmlns="http://www.w3.org/2000/svg" xmlns:xlink="http://www.w3.org/1999/xlink"><filter id="a" color-interpolation-filters="sRGB" filterUnits="userSpaceOnUse" height="537.864" width="291.901" x="168.3" y=".09082"><feFlood flood-opacity="0" result="BackgroundImageFix"/><feBlend in="SourceGraphic" in2="BackgroundImageFix" mode="normal" result="shape"/><feGaussianBlur result="effect1_foregroundBlur" stdDeviation="10"/></filter><radialGradient id="b" cx="0" cy="0" gradientTransform="matrix(7.85227 0 0 7.61374 176.836 250.277)" gradientUnits="userSpaceOnUse" r="1"><stop offset="0" stop-color="#fff"/><stop offset="1"/></radialGradient><g filter="url(#a)"><path d="m188.3 241.5s144.7-248.89985 226.8-218.8999c36.3 13.2 34.1 108.7999-12.3 216.0999-58.5 135.3-170.4 286.3-174.1 279-.7-1.4 7-8.5 13.6-17.9 11.5-16.3 27.5-41.9 47.6-74.7 22.5-36.8 42.5-81.1 62.1-126 48.6-111 64.9-225.7998 27.9-225.7998-72.9 0-191.6 168.1998-191.6 168.1998z" fill="#000"/></g><g fill="#d81f2b"><path d="m.800049 380v-55.9h2.800001c2.4 17.1 7.30005 30.3 14.60005 39.7s16.3999 14.1 27.2999 14.1c7.3 0 13.4001-2.4 18.3001-7.3s7.3-11 7.3-18.4c0-6.1-1.8001-11.4-5.3001-16.1-3.6-4.7-10.1-9.8-19.6-15.5-3-1.8-7.2999-4.2-12.8999-7.1-10-5.3-16.8-9.6-20.4-13-2.7-2.7-4.90005-5.9-6.40005-9.6s-2.3-7.5-2.3-11.6c0-9.9 2.9-18 8.70005-24.3 5.8-6.3 13.1999-9.4 22.1999-9.4 5.9 0 11.2 1.4 16 4.2s9.4001 7.2 14.0001 13.3l10.1999-17.4h1.1001v50.3h-2.8c-2.9-15.2-7.6-26.8-14.2-34.9-6.5-8.1-14.5001-12.1-23.8001-12.1-7.1 0-12.9999 2-17.6999 6.1s-7.1001 9.1-7.1001 15.2c0 7.8 9.4 16.8 28.3 27 3.7 2 6.5 3.5 8.5 4.6 12.1 6.7 20.6 13.1 25.4 19.4 4.9 6.2 7.3 13.5 7.3 21.7 0 11-3.4 20.1-10.1 27.4-6.7 7.2-15.1 10.9-25.2 10.9-6.1 0-11.9-1.6-17.3-4.9s-10.4-8.1-14.9-14.5l-9.99995 18z"/><path d="m159 345.8c-.9 11.2-3.9 19.9-9.1 26.1-5.2 6.3-11.9 9.4-20.1 9.4-9.3 0-17.4-4.4-24.2-13.3s-10.1-19.6-10.1-32.2c0-7.1 1.3-13.9 3.8-20.3 2.6-6.4 6.2-12 11-16.8 3-2.9 6.2-5.1 9.6-6.5 3.5-1.4 7.3-2.1 11.6-2.1 6 0 11.1 2.1 15.4 6.4 4.2 4.3 6.3 9.5 6.3 15.6 0 3.4-.9 6.2-2.7 8.3s-4.1 3.2-7 3.2c-2.5 0-4.5-.8-6.2-2.5-1.6-1.7-2.5-3.8-2.5-6.3s.8-4.6 2.4-6.3c1.6-1.6 3.6-2.4 6.1-2.4 1.3 0 2.4.3 3.5.8 1 .5 2.1 1.4 3.1 2.4-1-5.1-3.1-9.1-6.4-12s-7.4-4.3-12.3-4.3c-7.7 0-13 3-16 9.1s-4.5 18.5-4.5 37.4c0 14.5 1.5 24.5 4.4 30.1s8 8.4 15.1 8.4c7.2 0 13.1-2.9 17.8-8.7s7.3-13.6 8-23.6z"/><path d="m194.1 376.1h13v3h-39.5v-3h12.8v-81h-12.8v-3h26.5z"/></g><path d="m179.6 270.8c7.898 0 14.3-6.223 14.3-13.9s-6.402-13.9-14.3-13.9-14.3 6.223-14.3 13.9 6.402 13.9 14.3 13.9z" fill="url(#b)"/><path d="m222.8 421.6v-3.5h18v-124.3h-18v-3.5h91.3v44.7h-2c-2.2-15.2-5.8-25.9-10.7-32s-12.4-9.2-22.3-9.2h-22.9v55.6h7c6.7 0 12-2.6 15.9-7.7s6-12.3 6.3-21.5h1.7v59.6h-1.7c-.6-9.8-2.5-16.7-5.8-20.9s-8.4-6.3-15.3-6.3h-8.1v65.4h22.5c10.1 0 18.1-3.9 23.8-11.8s9.5-20.1 11.4-36.6h2.2v51.9z" fill="#d81f2b"/><path d="m387.3 290.3v3.5h-18v124.3h16.2c12.2 0 21.7-4.4 28.5-13.3s11.3-22.9 13.7-42h2v58.9h-93.8v-3.5h18v-124.4h-18v-3.5z" fill="#d81f2b"/><path d="m491.1 288.3c5.1 0 10.1 1.2 14.9 3.7s9.1 6 13 10.5c5.9 7.1 10.4 15.3 13.4 24.7s4.6 19.7 4.6 30.8c0 9.7-1.2 18.6-3.6 26.6s-6 15.3-10.8 21.8c-4.1 5.5-8.9 9.7-14.4 12.8s-11.2 4.6-17 4.6-11.5-1.5-17.1-4.6-10.4-7.3-14.5-12.8c-4.8-6.5-8.4-13.7-10.8-21.8-2.4-8-3.6-16.9-3.6-26.6 0-7.4.7-14.6 2.2-21.5 1.4-6.9 3.5-13.3 6.3-19.2 4.4-9.3 9.9-16.5 16.4-21.5 6.4-4.9 13.4-7.5 21-7.5zm0 132c4.8 0 9.1-1.4 13-4.2s7.3-6.9 10.1-12.3c1.9-3.5 3.2-8.3 4-14.2s1.2-17.1 1.2-33.6c0-18.2-.6-30.6-1.8-37.1s-3.3-11.8-6.2-15.9c-2.6-3.6-5.7-6.4-9.3-8.4s-7.3-3-11.1-3c-3.9 0-7.7 1-11.3 3s-6.7 4.8-9.2 8.4c-3 4.1-5 9.5-6.2 16s-1.8 18.8-1.8 37.1v4.2c0 14.2.4 24.1 1.2 29.8.8 5.6 2.1 10.2 4 13.8 2.8 5.4 6.2 9.5 10.2 12.3 4 2.7 8.4 4.1 13.2 4.1z" fill="#d81f2b"/></svg>