<svg id="Layer_1" data-name="Layer 1" xmlns="http://www.w3.org/2000/svg" xmlns:xlink="http://www.w3.org/1999/xlink" viewBox="0 0 400 100"><defs><style>.cls-1{fill:none;}.cls-2{clip-path:url(#clip-path);}.cls-3{fill:#217d93;}.cls-4{fill:#105261;}.cls-5{fill:#0a313f;}</style><clipPath id="clip-path"><path class="cls-1" d="M18,90.54a23.7,23.7,0,0,1-10.15-7.9A20.77,20.77,0,0,1,4,70.46H20.46a10.64,10.64,0,0,0,3.34,7.46c2,1.83,4.78,2.74,8.29,2.74s6.4-.85,8.44-2.57a8.39,8.39,0,0,0,3.08-6.75,7.82,7.82,0,0,0-2.09-5.6,14.65,14.65,0,0,0-5.21-3.45,85.55,85.55,0,0,0-8.61-2.8,92.68,92.68,0,0,1-12.13-4.33,21.24,21.24,0,0,1-8-6.48Q4.21,44.35,4.22,37.11a20.66,20.66,0,0,1,3.4-11.85,21.73,21.73,0,0,1,9.55-7.74,34.71,34.71,0,0,1,14-2.68q11.85,0,19.25,5.76t8.18,16.07H41.74a8.79,8.79,0,0,0-3.35-6.53,12.58,12.58,0,0,0-8.28-2.58,10.63,10.63,0,0,0-7.18,2.31c-1.8,1.53-2.69,3.77-2.69,6.69a6.88,6.88,0,0,0,2,5.1,15.3,15.3,0,0,0,5,3.29q3,1.26,8.51,2.91A89.07,89.07,0,0,1,48,52.25a21.8,21.8,0,0,1,8.12,6.58q3.41,4.39,3.4,11.52a21.66,21.66,0,0,1-3.18,11.41A22.44,22.44,0,0,1,47,90.15a31.75,31.75,0,0,1-14.59,3.13A36.36,36.36,0,0,1,18,90.54ZM72.68,45.61a27.48,27.48,0,0,1,10.64-11A30.77,30.77,0,0,1,98.9,30.75q11.3,0,18.71,5.65t9.93,15.85H111a12.17,12.17,0,0,0-4.44-6.2,12.93,12.93,0,0,0-7.74-2.25,12.66,12.66,0,0,0-10.42,4.77q-3.84,4.78-3.84,13.55t3.84,13.44a12.67,12.67,0,0,0,10.42,4.78q9.33,0,12.18-8.34h16.57a28.08,28.08,0,0,1-10,15.69Q110.1,93.5,98.9,93.5a30.88,30.88,0,0,1-15.58-3.89,27.5,27.5,0,0,1-10.64-11,34.07,34.07,0,0,1-3.84-16.51A34.09,34.09,0,0,1,72.68,45.61Zm67.2-23.7a8.47,8.47,0,0,1-2.69-6.41,8.51,8.51,0,0,1,2.69-6.42,10.11,10.11,0,0,1,13.49,0,8.55,8.55,0,0,1,2.69,6.42,8.51,8.51,0,0,1-2.69,6.41,10.11,10.11,0,0,1-13.49,0Zm14.31,9.82V92.51H138.84V31.73Zm62.43-15.8v12.4H184.7V48h24.46V60.15H184.7V92.51H169.34V15.93Zm34,17.67a21.49,21.49,0,0,1,10.91-2.75V47h-4.06q-7.23,0-10.91,3.4t-3.68,11.85V92.51H227.48V31.73h15.36v9.44A21.66,21.66,0,0,1,250.58,33.6Zm77.29,33.13H283.44Q284,73.32,288,77a14.21,14.21,0,0,0,10,3.73q8.55,0,12.18-7.35h16.56a27.66,27.66,0,0,1-10.09,14.43q-7.47,5.66-18.32,5.65a31.79,31.79,0,0,1-15.75-3.89,27.46,27.46,0,0,1-10.86-11,33.74,33.74,0,0,1-3.89-16.46,34.38,34.38,0,0,1,3.84-16.56,26.74,26.74,0,0,1,10.75-11,34.52,34.52,0,0,1,31.43-.11,26.18,26.18,0,0,1,10.64,10.58,32,32,0,0,1,3.79,15.75A36.46,36.46,0,0,1,327.87,66.73ZM312.4,56.42a12.17,12.17,0,0,0-4.28-9.49,15.14,15.14,0,0,0-10.2-3.57,13.89,13.89,0,0,0-9.6,3.46,15.13,15.13,0,0,0-4.77,9.6Zm83.16,10.31H351.13q.54,6.58,4.61,10.31a14.17,14.17,0,0,0,10,3.73q8.55,0,12.18-7.35h16.56a27.66,27.66,0,0,1-10.09,14.43q-7.46,5.66-18.32,5.65a31.81,31.81,0,0,1-15.75-3.89,27.46,27.46,0,0,1-10.86-11,33.85,33.85,0,0,1-3.89-16.46,34.38,34.38,0,0,1,3.84-16.56,26.74,26.74,0,0,1,10.75-11,32.22,32.22,0,0,1,15.91-3.84,31.89,31.89,0,0,1,15.52,3.73,26.27,26.27,0,0,1,10.65,10.58A32.08,32.08,0,0,1,396,60.81,36.46,36.46,0,0,1,395.56,66.73ZM380.09,56.42a12.17,12.17,0,0,0-4.28-9.49,15.14,15.14,0,0,0-10.2-3.57,13.91,13.91,0,0,0-9.6,3.46,15.13,15.13,0,0,0-4.77,9.6Z"/></clipPath></defs><g class="cls-2"><rect class="cls-3" x="-114.67" y="-121.55" width="519.72" height="312.48"/><path class="cls-4" d="M-104.91,88.94C-72.4,110.06-79.95,35.77,50.25,77c42.22,13.37,59.67-29.29,193.13-4.34C291,81.57,328,30.35,412.64,85.68c29.6,19.36,65.44,22.31,77,19.53,24.71-5.91-56.35-140-124.35-230.2C271.6-249.27,15.87-250-69.77-132.58-118.87-65.25-146.69,61.8-104.91,88.94Z"/><path class="cls-5" d="M-52.83,58.56C-23.5,77.61-8,32.07,82.8,40.11c61.18,5.42,74.79,15.1,120.43,14.11,81.08-1.75,72.7-25,175.77-10.85,35.11,4.8,31.24,29.37,43.94,26.32,24.7-5.92,48.48-152.59-19.53-242.78C309.7-297.37,54-298.12-31.67-180.68-80.77-113.35-94.61,31.42-52.83,58.56Z"/></g></svg>