<svg height="68.497498" viewBox="0 0 708.66086 68.497498" width="708.66089" xmlns="http://www.w3.org/2000/svg" xmlns:xlink="http://www.w3.org/1999/xlink"><clipPath id="a"><path d="m0 595.28h841.89v-595.28h-841.89z"/></clipPath><g clip-path="url(#a)" transform="matrix(1.25 0 0 -1.25 -171.8505 464.40112)"><g fill="#002b5c"><path d="m0 0c5.726-3.244 10.953-4.69 16.93-4.69 11.06 0 17.666 6.122 17.666 16.376 0 9.696-7.428 13.176-13.397 15.97-4.115 1.928-7.668 3.592-7.668 6.809 0 2.639 1.712 5.302 5.536 5.302 2.771 0 6.06-.919 10.344-2.891l4.266 8.505c-4.954 2.887-10.031 4.29-15.518 4.29-10.649 0-17.006-5.711-17.006-15.275 0-9.56 7.435-13.252 13.41-16.22 4.336-2.152 8.077-4.013 8.077-7.516 0-3.022-2.694-5.052-6.703-5.052-3.214 0-7.138 1.177-11.664 3.505z" transform="translate(137.4804 321.8499)"/><path d="m0 0c-1.476 0-2.451 0-3.345.073l-.15.013v15.017l.152.01c1.041.07 2.399.07 3.49.07 5.435 0 6.528-3.122 6.528-8.157 0-4.858-2.059-7.026-6.675-7.026m.369 24.019c-4.63 0-11.596 0-15.611-.134v-47.08h11.747v14.362h3.568c5.346 0 17.783 1.72 17.783 17.673 0 9.788-6.21 15.179-17.487 15.179" transform="translate(193.993 341.3846)"/><path d="m0 0c-1.476 0-2.45 0-3.344.07l-.151.011v15.019l.152.01c1.041.073 2.398.073 3.49.073 5.436 0 6.528-3.124 6.528-8.163 0-4.855-2.058-7.02-6.675-7.02m13.022-5.1-.076.123.114.088c3.916 3.112 6.074 7.926 6.074 13.557 0 11.318-9.694 15.348-18.766 15.348-4.629 0-11.596 0-15.61-.134v-47.08h11.747v14.362h3.568c.713 0 1.385.038 2.005.078l.099.008.05-.081c1.951-3.11 4.436-8.117 5.236-14.369 2.574 0 12.853-.002 12.853-.002-1.089 7.199-5.029 14.422-7.294 18.102" transform="translate(232.989 341.3873)"/><path d="m0 0v-2.582-3.752-4.755-5.631-8.134-6.633-6.756-8.901l11.733-.007v4.654 9.259 7.383 7.258 6.507 3.629 5.004 3.458z" transform="translate(260.7369 365.3308)"/><path d="m0 0h12.379v47.142h-10.397v-30.847l-14.066 30.847h-12.843v-47.142h10.339v29.738z" transform="translate(307.7224 318.1898)"/></g><path d="m0 0h13.891v52.849h-10.838l.004-36.873-17.28 36.873h-13.705v-52.849h10.782l.001 36.469z" fill="#dc1730" transform="translate(488.0396 318.1898)"/><path d="m0 0c-7.12 0-12.252-1.995-15.691-6.099-3.413-4.077-5.072-10.124-5.072-18.489 0-18.268 5.327-25.06 19.652-25.06 4.561 0 11.43 1.18 16.544 3.812v23.434h-15.488v-8.042h4.888v-9.63l-.108-.038c-1.182-.423-3.995-.644-5.169-.644-6.203 0-8.622 4.573-8.622 16.308 0 10.31 3.571 15.321 10.915 15.321 2.453 0 6.033-1.092 9.845-3.001l3.182 7.859c-4.264 2.674-9.814 4.269-14.876 4.269" fill="#002b5c" transform="translate(348.4333 366.3709)"/><path d="m0 0h12.237v37.533h9.02v9.612h-31.84v-9.612h10.583z" fill="#dc1730" transform="translate(560.8365 318.1898)"/><path d="m0 0v-31.957c0-11.246 5.46-16.263 17.699-16.263 12.527 0 18.362 5.704 18.362 17.957v30.263h-12.163v-31.393c0-4.825-.274-7.78-5.68-7.78-5.181 0-6.055 2.422-6.055 7.85v31.323z" fill="#dc1730" transform="translate(589.1583 365.3326)"/><path d="m0 0v-38.802c-.001-.041-.069-3.73 2.382-6.257 1.53-1.582 3.713-2.389 6.486-2.404 8.544-.048 17.905.267 19.224.313v9.206h-16.855v10.349h15.228v9.116h-15.228v9.293h16.633v9.186z" fill="#002b5c" transform="translate(371.8772 365.3326)"/><path d="m0 0v-38.802c0-.041-.069-3.73 2.383-6.257 1.53-1.582 3.711-2.389 6.485-2.404 8.542-.048 17.903.267 19.222.313v9.206h-16.853v10.349h15.226v9.116h-15.226v9.293h16.632v9.186z" fill="#dc1730" transform="translate(676.3191 365.3326)"/><path d="m0 0 4.884 20.5h.487l4.998-20.5zm14.745 30.751h-18.318l-11.481-47.143h11.983l1.688 7.486h13.135l1.69-7.486h12.637z" fill="#dc1730" transform="translate(523.7396 334.5814)"/><path d="m0 0c-1.476 0-2.45 0-3.344.07l-.151.011v15.019l.152.01c1.041.073 2.398.073 3.49.073 5.436 0 6.528-3.124 6.528-8.163 0-4.855-2.058-7.02-6.675-7.02m13.022-5.1-.076.123.114.088c3.916 3.112 6.074 7.926 6.074 13.557 0 11.318-9.694 15.348-18.766 15.348-4.629 0-11.596 0-15.61-.134v-47.08h11.747v14.362h3.568c.713 0 1.385.038 2.005.078l.099.008.05-.081c1.951-3.11 4.436-8.117 5.236-14.369 2.574 0 12.853-.002 12.853-.002-1.089 7.199-5.029 14.422-7.294 18.102" fill="#002b5c" transform="translate(423.8512 341.3873)"/><path d="m0 0c-1.476 0-2.45 0-3.344.07l-.151.011v15.019l.152.01c1.041.073 2.398.073 3.49.073 5.436 0 6.528-3.124 6.528-8.163 0-4.855-2.058-7.02-6.675-7.02m13.022-5.1-.076.123.114.088c3.916 3.112 6.074 7.926 6.074 13.557 0 11.318-9.694 15.348-18.766 15.348-4.629 0-11.596 0-15.61-.134v-47.08h11.747v14.362h3.568c.713 0 1.385.038 2.005.078l.099.008.05-.081c1.951-3.11 4.436-8.117 5.237-14.369 2.573 0 12.852-.002 12.852-.002-1.089 7.199-5.029 14.422-7.294 18.102" fill="#dc1730" transform="translate(649.1468 341.3873)"/></g></svg>