<svg enable-background="new 0 0 612 792" height="110.8" viewBox="0 0 612 110.8" width="612" xmlns="http://www.w3.org/2000/svg"><g fill="#10147e" transform="translate(0 -340.6)"><path d="m86.9 400.1c-.9 2.3-2.5 4.8-2.5 4.8-1 1.5-2 2.9-3.1 4.2 1.9-.1 8.6-.9 13-11z"/><path d="m55.4 340.6c-30.6 0-55.4 24.8-55.4 55.4s24.8 55.4 55.4 55.4 55.4-24.8 55.4-55.4-24.8-55.4-55.4-55.4zm6.4 32.8c-6.7 8.6-6.2 14-6.2 14-10.5-6.7 6.2-14 6.2-14zm13.3 16.5-1.1 2.7h-35.8l-1.2-2.7zm-1.7 4.2-1.2 2.7h-32.3l-1.1-2.7zm-53.4-16.4c6.6 15.8.1 15.5.1 15.5-7-.2-.1-15.5-.1-15.5zm58.8 33.7c-5.9 5.8-14.1 9.3-23 9.3-12.8 0-23.9-7.3-29.5-17.9h-10.1l-2-4.7h1.9v-1.5h8.1v1.5h60.8l12.5-3.5s-3.7 18-18.7 16.8z"/><path d="m127.7 356.3h27.2v3.5h-11.2v31.4h-4.9v-31.4h-11.1z"/><path d="m165.7 388.5c-1.7 1.7-3.9 3.3-6.2 3.3-4.2 0-7.1-3-7.1-7.7 0-4.3 3.7-7.1 8.9-8.6l6-1.9c-.2-3-2.5-5-5-5-2.9 0-4.7 1.2-6.5 2.7l-1.7-2.2c2.5-2.4 5-3.4 8.5-3.4 3.7 0 9.2 1.2 9.2 8.5v11c0 1.9.2 4.3 1.1 6.1h-4.9c-.6-1-.7-2.6-.7-4.2zm-2.7-10.6c-3.9 1.2-6 3.1-6 6.2 0 2.6 1.8 4.2 3.6 4.2 3.2 0 7.3-3.9 6.7-11.7z"/><path d="m180.2 365.8c2.5 6.3 5.1 12.7 7.6 20.2h.1c2.6-7.5 5.2-13.9 7.8-20.2l3.9.9-12.8 28.9c-2.3 5.3-5.4 8.1-9.7 8.1h-2.2v-3.2h1.7c3.1 0 5.3-.8 8.8-10.7l-9.8-22.8z"/><path d="m208.1 391.2h-4.4v-36.6h4.4z"/><path d="m213.8 378.5c0-8.1 6-12.8 12.3-12.8s12.3 4.7 12.3 12.8c0 7.7-4.9 13.4-12.3 13.4-7.3-.1-12.3-5.7-12.3-13.4zm4.9 0c0 4.7 1.6 10.2 7.4 10.2 5.9 0 7.5-5.5 7.5-10.2 0-4.5-1.8-9.6-7.5-9.6-5.6 0-7.4 5.1-7.4 9.6z"/><path d="m248.5 369.4 1.8-1.9c1-1 2.7-1.8 3.7-1.8 1.1 0 2.7.8 4.1 2.4l-2 2.9c-1.1-.5-2.2-1-3.3-1-2.3 0-4.2 2.3-4.2 7.8v13.4h-4.5v-24.9h4.4z"/><path d="m332.3 373.1v3.5h-12.2v14.6h-4.8v-34.9h17.2v3.5h-12.4v13.3z"/><path d="m343.2 369.4 1.8-1.9c1.1-1 2.7-1.8 3.7-1.8 1.1 0 2.7.8 4.1 2.4l-2 2.9c-1.1-.5-2.2-1-3.3-1-2.3 0-4.2 2.3-4.2 7.8v13.4h-4.5v-24.9h4.4z"/><path d="m367.8 388.5c-1.7 1.7-3.9 3.3-6.2 3.3-4.2 0-7.1-3-7.1-7.7 0-4.3 3.7-7.1 8.9-8.6l6-1.9c-.2-3-2.5-5-5-5-2.9 0-4.7 1.2-6.5 2.7l-1.7-2.2c2.5-2.4 5-3.4 8.5-3.4 3.7 0 9.2 1.2 9.2 8.5v11c0 1.9.2 4.3 1.1 6.1h-4.9c-.6-1-.7-2.6-.7-4.2zm-2.7-10.6c-3.9 1.2-6 3.1-6 6.2 0 2.6 1.8 4.2 3.6 4.2 3.2 0 7.3-3.9 6.7-11.7z"/><path d="m385.5 369.4c2.3-2.5 5.9-3.7 8.5-3.7 5.7 0 8.8 3.2 8.8 9.5v16.1h-4.5v-15.1c0-4.7-2-7.1-6-7.1-3.5 0-6.8 2.4-6.8 7.2v15h-4.5v-24.9h4.4z"/><path d="m429.4 389.2c-2.4 1.7-5.4 2.6-7.5 2.6-11.8 0-13.3-9.7-13.3-13.1 0-6.2 4.1-13 13.5-13 2.5 0 4.8.6 6.7 2l-1.5 2.5c-1.4-.7-3.3-1.3-5.1-1.3-4.1 0-8.7 2.7-8.7 9.5 0 5.2 2.6 10.1 8.7 10.1 2.1 0 4.1-.5 6.1-1.8z"/><path d="m433.6 358.1c0-1.2 1-2.6 2.8-2.6s2.8 1.4 2.8 2.6c0 1.3-.6 3-2.8 3-2.1 0-2.8-1.7-2.8-3zm5.1 8.2v24.9h-4.5v-24.9z"/><path d="m457.8 370.3c-1.8-1.2-3.2-1.6-4.6-1.6-1.6 0-3.6.8-3.6 2.8 0 2.1 2.3 3.1 5.1 5.3 3.2 2.4 5.3 4.5 5.3 8 0 4.2-4.1 7-8.7 7-2.8 0-6-1.2-7.7-3.1l2.2-2.5c1.4 1.3 3.4 2.5 5.4 2.5 2.1 0 4.2-1.1 4.2-3.5 0-2.9-2.6-4.1-4.9-5.8-2.8-2-5.3-3.7-5.3-7.1 0-3.9 3.9-6.4 8.3-6.4 2.4 0 4.8 1 6.1 2.3z"/><path d="m506.3 375.3v14.2c-3.4 1.2-7.6 2.3-12.1 2.3-12.4 0-18.8-8.6-18.8-18.1 0-8.8 6.9-17.9 19.4-17.9 5.1 0 9.1 1.6 11.2 3.4l-2 2.9c-2.1-1.4-5.3-2.8-9.1-2.8-9.1 0-14.2 6.2-14.2 14.4 0 8.8 6 14.8 13.6 14.8 2.9 0 5.1-.3 7.1-1.2v-11.8h4.9z"/><path d="m517.9 369.4 1.8-1.9c1-1 2.7-1.8 3.7-1.8 1.1 0 2.7.8 4.1 2.4l-2 2.9c-1.1-.5-2.2-1-3.3-1-2.3 0-4.2 2.3-4.2 7.8v13.4h-4.5v-24.9h4.4z"/><path d="m529.2 378.5c0-8.1 6-12.8 12.3-12.8s12.3 4.7 12.3 12.8c0 7.7-4.9 13.4-12.3 13.4-7.4-.1-12.3-5.7-12.3-13.4zm4.8 0c0 4.7 1.6 10.2 7.4 10.2 5.9 0 7.5-5.5 7.5-10.2 0-4.5-1.8-9.6-7.5-9.6-5.5 0-7.4 5.1-7.4 9.6z"/><path d="m576.1 388.3c-2.5 2.2-4.8 3.5-8 3.5-5.7 0-8.8-3.2-8.8-9.5v-16h4.5v15.1c0 4.7 2 7.2 6 7.2 3.4 0 6.3-2.8 6.3-7.7v-14.6h4.5v24.9h-4.4z"/><path d="m592.4 370.2c1.9-3 5.5-4.5 8.3-4.5 9.7 0 11.3 8.7 11.3 12.3 0 7.6-4.5 13.8-11.8 13.8-3.1 0-5.8-1.5-7.7-3.9h-.1v15.8h-4.5v-37.4h4.5zm14.8 7.9c0-4.5-2.3-9.2-6.9-9.2-5.1 0-7.8 3.9-7.8 10.4 0 4.8 2.2 9.4 7.8 9.4 5.3-.1 6.9-6.1 6.9-10.6z"/><path d="m296.3 383.1c1.7-3.3 1.9-7 1.3-10h-3.9c.8 2.6.9 5.6-.1 7.6l-11.2-10.4c-3.4-3.1-4.7-5-4.7-7 0-2.2 1.6-4 4.9-4 2.1 0 4.1 1.1 4.9 1.7l1.7-2.8c-2.2-1.6-4.5-2.4-7.1-2.4-5.6 0-9.3 3.7-9.3 7.8 0 3.6 2.6 6 4.5 7.8-4.1 1.9-7.5 5.5-7.5 10.1 0 2.1 1.5 10.4 12.4 10.4 4.8 0 8.8-2.2 11.5-5.2l5.7 5.2 4.4-2.2zm-13.4 5.4c-5.3 0-7.8-4.4-7.8-7.6 0-2.9 1.3-5.5 4.5-7.2l11.8 10.6c-1.5 2-4.7 4.2-8.5 4.2z"/><path d="m147.5 437.1c-1.3 0-1.8-1.2-1.6-2.3-1.4 1.9-2.8 2.5-5.1 2.5-2.5 0-4.5-2-4.5-4.5 0-5.1 5.5-6.3 9.5-6.5v-1c0-2-1.1-3.7-3.2-3.7-1.3 0-3.1.5-4.3.9v-1.2c1.4-.9 3.3-1.6 5-1.6 3 0 5.1 2.1 5.1 5v7.8c0 .5 0 2.4.3 2.8.2.3.6.2 1 .2v1.2c-.9.3-1.5.4-2.2.4zm-1.7-9c-2.4 0-7 .7-7 4 0 2 .9 3.2 3 3.2 3.4 0 4-3 4-5.8z"/><path d="m164.2 436.9v-10.9c0-2.4-.6-4.1-3.4-4.1-1.6 0-3.6.7-5 1.7v13.3h-2.5v-16.6h2.5v1.3c1.6-.8 4.2-1.8 6-1.8 3.9 0 4.9 2.9 4.9 6.3v10.8z"/><path d="m180.1 418.2c-1.3 0-2.3-1-2.3-2.3s1.1-2.3 2.3-2.3c1.3 0 2.3 1 2.3 2.3 0 1.2-1 2.3-2.3 2.3zm-2.2 18.7v-16.6h4.4v16.6z"/><path d="m197.3 436.9v-10.1c0-1.8-.2-3.8-2.5-3.8-1.3 0-2.9.5-4 1.2v12.7h-4.4v-16.6h4.4v1.7c1.5-1.1 3.9-2.2 5.8-2.2 3.5 0 5.1 2.6 5.1 5.9v11.3z"/><path d="m213.8 416.7c-2.4 0-2.9 1.4-2.9 3.5h4.6v2.6h-4.6v14h-4.4v-14h-2.7v-2.6h2.7c0-3.6 1.6-6.2 5.5-6.2 1.3 0 2.6.4 3.8 1v1.8c-.7 0-1.4-.1-2-.1z"/><path d="m225.2 437.3c-5.6 0-8.6-3.4-8.6-8.9 0-5.6 3-8.7 8.6-8.7 5.5 0 8.6 3.2 8.6 8.7.1 5.6-2.9 8.9-8.6 8.9zm0-14.6c-3.2 0-4.3 3-4.3 5.8 0 2.7 1 6.1 4.3 6.1s4.3-3.3 4.3-6.1c0-2.7-1.1-5.8-4.3-5.8z"/><path d="m245.1 423.2c-1.4 0-3 .9-3.9 1.9v11.8h-4.4v-16.6h4.4v2.2c.8-1.6 3.5-2.7 5.2-2.7h.6v3.9c-.5-.4-1.4-.5-1.9-.5z"/><path d="m270.4 436.9v-10.1c0-1.9-.4-3.8-2.6-3.8-1.2 0-2.4.5-3.4 1.2.1.4.1.9.1 1.4v11.3h-4.5v-10.1c0-1.8-.2-3.8-2.5-3.8-1.1 0-2.5.5-3.4 1.2v12.7h-4.4v-16.6h4.4v1.7c1.4-1.1 3.7-2.2 5.4-2.2 1.9 0 3.4.8 4.2 2.5 1.6-1.1 4-2.5 6-2.5 3.6 0 5.1 2.6 5.1 5.9v11.3z"/><path d="m289.5 437.1c-1.7 0-1.6-1.5-1.8-2.6-1.2 1.6-3.4 2.9-5.4 2.9-2.7 0-5.1-1.8-5.1-4.7 0-5.4 6-6.1 10.2-6.2v-1c0-1.9-1.6-2.8-3.3-2.8s-3.4.2-5 .8v-1.9c1.8-1.1 3.8-1.8 5.9-1.8 3.3 0 6.7 1.4 6.7 5.2v6.4c0 .6-.1 3.6.4 4 .2.1.5.1.7.1v1.5c-1.1-.1-2.2.1-3.3.1zm-8-5.1c0 1.5 1 2.5 2.4 2.5 1.9 0 3.5-1.6 3.5-3.4v-2.4c-1.9.1-5.9.8-5.9 3.3z"/><path d="m310.4 437.3c-1.4 0-3.5-.7-4.9-1.2v.8h-2.5v-23.1h2.5v9c1.2-1.8 3.2-3 5.4-3 4.7 0 6.5 4.3 6.5 8.4 0 4.3-2 9.1-7 9.1zm0-15.3c-2.4 0-4.8 1.7-4.8 4.3v8.2c1.3.5 3.2.9 4.6.9 3.6 0 4.7-3.9 4.7-6.8 0-3.1-.9-6.6-4.5-6.6z"/><path d="m332 436.9v-1.7c-1.6.9-4.2 2.1-6 2.1-3.9 0-4.9-2.9-4.9-6.3v-10.8h2.5v10.9c0 2.4.6 4.1 3.4 4.1 1.7 0 3.7-.9 5-2v-13h2.5v16.6h-2.5z"/><path d="m344 437.3c-1.7 0-3.8-.8-5.3-1.7v-1.9c1.4.8 3.6 1.8 5.2 1.8 1.8 0 3.4-1 3.4-2.9 0-3.8-8.8-2.1-8.8-8 0-3.1 2.7-4.8 5.6-4.8 1.7 0 3.1.5 4.5 1.3v1.5c-1.8-.7-3.3-.9-4.6-.9-1.7 0-3.2.9-3.2 2.7 0 3.5 8.9 2.2 8.9 7.9.1 3.2-2.8 5-5.7 5z"/><path d="m354.9 417.3c-.8 0-1.6-.6-1.6-1.4s.6-1.6 1.5-1.6c.8 0 1.6.6 1.6 1.5 0 .8-.6 1.5-1.5 1.5zm-1.4 19.6v-16.6h2.5v16.6z"/><path d="m372.1 436.9v-10.9c0-2.4-.6-4.1-3.4-4.1-1.6 0-3.6.7-5 1.7v13.3h-2.5v-16.6h2.5v1.3c1.6-.8 4.2-1.8 6-1.8 3.9 0 4.9 2.9 4.9 6.3v10.8z"/><path d="m380.7 428.9c0 3.4 1.8 6.4 5.5 6.4 1.7 0 3.5-.3 5.1-.8v1.8c-1.7.7-3.6 1-5.4 1-5.3 0-7.7-3.5-7.7-8.6 0-4.8 2.3-8.8 7.5-8.8 4.5 0 6.4 3.8 6.4 7.8v1.2zm4.8-7.3c-2.9 0-4.8 3.1-4.8 5.7h9.1c0-2.5-1.3-5.7-4.3-5.7z"/><path d="m400.3 437.3c-1.7 0-3.8-.8-5.3-1.7v-1.9c1.4.8 3.6 1.8 5.2 1.8 1.8 0 3.4-1 3.4-2.9 0-3.8-8.8-2.1-8.8-8 0-3.1 2.7-4.8 5.6-4.8 1.7 0 3.1.5 4.5 1.3v1.5c-1.8-.7-3.3-.9-4.6-.9-1.7 0-3.2.9-3.2 2.7 0 3.5 8.9 2.2 8.9 7.9.2 3.2-2.7 5-5.7 5z"/><path d="m414.2 437.3c-1.7 0-3.8-.8-5.3-1.7v-1.9c1.4.8 3.6 1.8 5.2 1.8 1.8 0 3.4-1 3.4-2.9 0-3.8-8.8-2.1-8.8-8 0-3.1 2.7-4.8 5.6-4.8 1.7 0 3.1.5 4.5 1.3v1.5c-1.8-.7-3.3-.9-4.6-.9-1.7 0-3.2.9-3.2 2.7 0 3.5 8.9 2.2 8.9 7.9.2 3.2-2.7 5-5.7 5z"/></g></svg>