<svg enable-background="new 0 0 197.9 31" viewBox="0 0 197.9 31" xmlns="http://www.w3.org/2000/svg"><g fill="#0071bc"><path d="m48.3 9.8h3.2v12.7h-3.2v-1c-.1.1-.1.1-.2.2s-.1.1-.2.2c-.3.3-.8.5-1.4.8-.4.2-1 .3-1.6.3-.7 0-1.3-.1-1.8-.3-.6-.2-1-.4-1.5-.7-.5-.4-.8-.9-1.1-1.6-.2-.7-.4-1.5-.4-2.4v-8h3.2v7c0 1.9.2 3 .5 3.3.5.4 1 .6 1.5.6.2 0 .4 0 .7-.1s.5-.2.8-.4c.2-.1.4-.3.6-.6.2-.2.4-.6.6-.9.3-.6.4-1.5.4-2.7v-6.4z"/><path d="m53.5 22.5c0-.2 0-.5.1-.7s0-.6 0-.9c0-.5 0-.8 0-1.1s0-.5 0-.6c0-.2 0-.3 0-.3 0-.1 0-.1 0-.1v-14.6h3.2v6.6c.1-.1.1-.1.2-.2s.1-.1.2-.2c.2-.1.4-.3.6-.4.3-.1.5-.2.8-.4.5-.2 1.1-.3 1.7-.3.5 0 1.1.1 1.6.2s.9.3 1.3.6c.5.3.9.7 1.2 1.1.4.4.6.8.8 1.3.2.6.4 1.1.5 1.7s.2 1.2.2 1.8c0 .9-.1 1.8-.4 2.6s-.6 1.6-1.1 2.2-1.1 1.1-1.8 1.4-1.6.5-2.5.5c-.7 0-1.2-.1-1.8-.2-.5-.2-1-.4-1.4-.7-.1-.1-.1-.1-.2-.2s-.1-.1-.2-.2v.5c0 .2 0 .3-.1.4h-2.9zm3.4-6.3c0 .7.1 1.4.2 2s.3 1.1.6 1.5c.3.4.6.7 1 1 .4.2.7.4 1.1.4.8 0 1.5-.4 2.1-1.2.6-.7.9-1.9.9-3.6 0-2-.3-3.2-.9-3.8-.7-.7-1.4-1.1-2.1-1.1-.5 0-1 .2-1.6.6-.4.3-.8.9-1.1 1.7-.1.6-.2 1.5-.2 2.5z"/><path d="m67.7 7.2v-2.3h3.2v2.3zm0 2.6h3.2v12.7h-3.2z"/><path d="m81.8 9.8h3.2v17.6h-3.2v-5.8l-.4.3c-.3.2-.8.5-1.5.7-.3.1-.5.2-.8.2s-.6.1-.9.1c-.6 0-1.1-.1-1.6-.2s-.9-.3-1.3-.6c-.5-.3-.9-.7-1.2-1.1-.4-.4-.6-.8-.8-1.3-.2-.6-.4-1.1-.5-1.7s-.2-1.2-.2-1.8c0-.9.1-1.8.4-2.6s.6-1.6 1.1-2.2 1.1-1.1 1.8-1.4 1.6-.5 2.5-.5c.6 0 1.2.1 1.7.2s1 .4 1.4.7c.1 0 .1.1.2.1.1.1.1.1.2.2v-.9zm0 6.4c0-1.5-.3-2.6-.8-3.4-.6-.9-1.3-1.3-2.1-1.3s-1.5.4-2.1 1.2c-.6.7-.9 1.9-.9 3.6 0 1.9.3 3.2.9 3.9.7.7 1.4 1.1 2 1.1.5 0 1-.2 1.5-.6.2-.1.4-.4.6-.7s.4-.7.5-1.1.2-.8.3-1.2c0-.7.1-1.1.1-1.5z"/><path d="m95 9.8h3.2v12.7h-3.2v-1c-.1.1-.1.1-.2.2s-.1.1-.2.2c-.3.3-.8.5-1.4.8-.4.2-1 .3-1.6.3-.7 0-1.3-.1-1.8-.3-.6-.2-1-.4-1.5-.7-.5-.4-.8-.9-1.1-1.6s-.4-1.5-.4-2.4v-8h3.2v7c0 1.9.2 3 .5 3.3.5.4 1 .6 1.5.6.2 0 .4 0 .7-.1s.5-.2.8-.4c.2-.1.4-.3.6-.6.2-.2.4-.6.6-.9.3-.6.4-1.5.4-2.7v-6.4z"/><path d="m100.4 7.2v-2.3h3.2v2.3zm0 2.6h3.2v12.7h-3.2z"/><path d="m114.5 22.4c-.6.2-1.2.3-1.7.4s-.9.1-1.2.1c-.5 0-.9 0-1.3-.1s-.8-.2-1.1-.4-.7-.4-.9-.6-.5-.5-.7-.8-.3-.8-.4-1.2c-.1-.5-.1-1-.1-1.7v-6.4h-2.2v-1.9h2.2v-3h3.2v3h3.7v1.9h-3.7v5.8c0 1.1.1 1.9.2 2.3.1.2.2.4.3.6s.2.3.3.3c.2.1.4.2.5.2s.4.1.5.1c.3 0 1.1-.2 2.4-.6z"/><path d="m120.5 21.9c-.9-2-1.8-4-2.7-6s-1.8-4-2.7-6h3.3l3.7 8.2 1.2-3c.4-.9.7-1.8 1.1-2.7s.8-1.8 1.1-2.6h3.1l-5.3 12.7c-.3.8-.7 1.4-1 2s-.6 1-.9 1.4c-.4.5-1 .9-1.7 1.2-.5.2-1.3.4-2.4.4h-2.1v-1.9h1.7c.5 0 .9-.1 1.2-.2.4-.1.7-.4 1-.7.2-.2.5-1 1.1-2.2z"/><path d="m140.5 27.4h-3.2v-17.6h3.2v.9c.1 0 .1-.1.2-.1.1-.1.1-.1.2-.1.3-.2.8-.5 1.5-.7.5-.2 1.1-.3 1.7-.3s1.1.1 1.6.2.9.3 1.3.6c.5.3.9.7 1.2 1.1s.6.8.8 1.3c.2.6.4 1.1.5 1.7s.2 1.2.2 1.8c0 .9-.1 1.8-.4 2.6s-.6 1.6-1.1 2.2-1.1 1.1-1.8 1.4-1.6.5-2.5.5c-.6 0-1.2-.1-1.8-.2s-1-.4-1.4-.7c-.1 0-.1-.1-.1-.1s0 0-.1 0c0 0 0 0-.1 0 0 0-.1-.1-.1-.1v5.6zm0-11.2c0 .7.1 1.4.2 2s.3 1.1.6 1.5c.3.4.6.7 1 1 .4.2.8.4 1.2.4.8 0 1.5-.4 2.1-1.2.6-.7.9-1.9.9-3.6 0-1.9-.3-3.2-.9-3.8-.7-.7-1.4-1.1-2-1.1-.5 0-1 .2-1.5.6-.2.1-.4.4-.6.7s-.4.7-.5 1.1c-.1.4-.2.8-.3 1.2-.1.2-.2.7-.2 1.2z"/><path d="m154.5 22.5h-3.2v-12.7h3.2v1c.2-.2.5-.4.8-.6s.6-.3.9-.4c.2-.1.5-.2.8-.2s.6-.1.9-.1.6 0 .8.1.6.1.8.2v2.6c-.5-.3-.9-.4-1.3-.6-.4-.1-.6-.2-.8-.2-.6 0-1.2.3-1.9 1-.6.6-.9 1.8-.9 3.6v6.3z"/><path d="m169.2 19.1h3.2v.2c0 .5-.3 1.1-.8 1.8-.4.5-1.1 1-2 1.3-.7.3-1.6.5-2.7.5-2.2 0-3.8-.6-4.8-1.9-1.1-1.3-1.7-2.9-1.7-4.7 0-1.9.6-3.5 1.8-4.9 1.1-1.3 2.7-1.9 4.6-1.9.5 0 1 .1 1.5.2s.9.3 1.4.5c.4.2.8.5 1.1.8s.6.7.9 1.1c.2.5.4 1 .5 1.6s.2 1.3.2 2v.8h-8.9c0 .7.1 1.3.3 1.8s.4 1 .7 1.4c.4.4.7.7 1.2.9s.9.3 1.4.3c.3 0 .7 0 .9-.1.3-.1.5-.2.7-.4.1-.1.2-.3.3-.5s.1-.4.1-.6v-.2zm.2-4.3v-.2c0-.4-.1-.9-.2-1.3s-.3-.7-.5-1-.5-.5-.8-.7-.7-.3-1.2-.3c-.4 0-.7.1-1.1.3-.3.2-.6.5-.9.8-.2.3-.5.7-.6 1.1s-.3.8-.4 1.2h5.7z"/><path d="m173.5 19h3.2v.1c0 .6.1 1 .4 1.3.4.3 1 .5 1.7.5s1.3-.2 1.8-.6c.4-.3.6-.8.6-1.4 0-.8-.4-1.3-1.2-1.6l-1.1-.3-.7-.2c-.2-.1-.5-.1-.7-.2s-.5-.2-.7-.2c-1.9-.7-2.8-1.7-2.8-3.1 0-.5.1-.9.3-1.4s.6-.9 1-1.3 1-.6 1.6-.8 1.4-.3 2.3-.3c1.8 0 3 .3 3.7 1 .8.7 1.2 1.5 1.2 2.2v.1h-3.2v-.1c0-.4-.2-.7-.5-.9s-.8-.3-1.3-.3c-.3 0-.6 0-.9.1s-.5.2-.7.4c-.3.2-.5.6-.5 1.2 0 .2 0 .4.1.5.1.2.1.3.3.4.1.1.3.2.5.3s.4.2.7.3l1 .3.8.2c.5.1.9.3 1.3.4.3.1.6.2.7.2.2.1.4.2.5.3s.3.1.4.2c.4.3.8.7 1 1.1s.3.8.3 1.3c0 1.1-.5 2.1-1.4 3.1-.9.8-2.2 1.2-4.1 1.2-.6 0-1.1 0-1.6-.1s-.9-.2-1.3-.4-.7-.3-1-.6c-.3-.2-.5-.5-.7-.7-.5-.6-.7-1.3-.7-1.9v-.3z"/><path d="m185.2 19h3.2v.1c0 .6.1 1 .4 1.3.4.3 1 .5 1.7.5s1.3-.2 1.8-.6c.4-.3.6-.8.6-1.4 0-.8-.4-1.3-1.2-1.6l-1.1-.3-.7-.2c-.2-.1-.5-.1-.7-.2s-.5-.2-.7-.2c-1.9-.7-2.8-1.7-2.8-3.1 0-.5.1-.9.3-1.4s.6-.9 1-1.3 1-.6 1.6-.8 1.4-.3 2.3-.3c1.8 0 3 .3 3.7 1 .8.7 1.2 1.5 1.2 2.2v.1h-3.2v-.1c0-.4-.2-.7-.5-.9s-.8-.3-1.3-.3c-.3 0-.6 0-.9.1s-.5.2-.7.4c-.3.2-.5.6-.5 1.2 0 .2 0 .4.1.5.1.2.1.3.3.4.1.1.3.2.5.3s.4.2.7.3l1 .3.8.2c.5.1.9.3 1.3.4.3.1.6.2.7.2.2.1.4.2.5.3s.3.1.4.2c.4.3.8.7 1 1.1s.3.8.3 1.3c0 1.1-.5 2.1-1.4 3.1-.9.8-2.2 1.2-4.1 1.2-.6 0-1.1 0-1.6-.1s-.9-.2-1.3-.4-.7-.3-1-.6c-.3-.2-.5-.5-.7-.7-.5-.6-.7-1.3-.7-1.9v-.3z"/></g><path d="m.9 29.3v-.8l.1-.1c1.4 0 2.2-.1 2.3-.1.3 0 .5-.1.7-.2.1-.1.2-.2.2-.4.1-.4.2-1.3.2-2.6s0-3.2 0-5.7 0-6 0-10.6c0-2.1 0-3.5-.1-4.3s-.1-1.3-.2-1.5c0 0-.1-.1-.2-.2s-.3-.1-.6-.2l-2.3-.1-.1-.1v-.9l.1-.1c1.4 0 2.4.1 3 .1s1.6 0 2.8-.1l.2.3c0 1.1-.1 2-.1 2.7v10.2 9.8c0 1.8.1 3.5.2 5l-.2.1c-1.2 0-2.2-.1-2.9-.1-.6 0-1.6 0-3 .1z"/><path d="m26.4 22.2v.8c-1.3-.1-2.2-.1-2.9-.1s-1.5 0-2.2.1c.1-.8.1-1.7.1-2.7-.6.5-1.3 1.1-2.1 1.9-.2.2-.4.3-.5.4-.4.2-.8.4-1.3.5s-.9.2-1.5.2c-.8 0-1.5-.1-2-.3s-1-.5-1.4-1c-.3-.3-.5-.7-.7-1.3s-.2-1.1-.2-1.9c0-.3 0-.7 0-1s0-.6 0-.9v-2.5c0-.3 0-.9 0-1.9 0-.6-.1-1.1-.1-1.3 0-.1-.1-.2-.2-.2-.1-.1-.4-.1-.8-.1-.5 0-1 0-1.3 0v-.8c2.1-.2 3.6-.6 4.6-1.1.2-.1.3-.1.4-.1s.1 0 .2.1.1.1.1.2v.3c0 .3-.1.9-.1 1.8-.1 1.6-.1 2.7-.1 3.3v2.9c0 1.2.1 2 .2 2.5s.5.9.9 1.2c.5.3 1 .4 1.7.4.5 0 .9-.1 1.4-.2s.9-.4 1.3-.7c.3-.2.6-.5.8-.9.2-.3.4-.5.4-.7s.1-.4.1-.7c0-.9.1-1.7.1-2.6v-1.2c0-.3 0-.9 0-1.9 0-.6-.1-1.1-.1-1.3 0-.1-.1-.2-.2-.2 0-.1-.3-.2-.7-.2-.5 0-1 0-1.3 0v-.8c2.1-.2 3.6-.6 4.6-1.1.2-.1.3-.2.4-.2s.1 0 .2.1.1.1.1.2v.3c0 .3-.1.9-.1 1.9-.1 1.6-.2 2.6-.2 3.2v2 2c0 1.2 0 1.9.1 2.1 0 .5.1.8.2 1.1 0 .1.1.2.2.2s.2.1.4.2z"/><path d="m35.3 28.5v.8h-.1c-1.4 0-2.4.1-3 .1-.7 0-1.6 0-2.9.1l-.2-.1c.1-1.3.1-2.6.1-3.9s0-4.6 0-10c0-5.3 0-9 0-11 0-.7-.1-1.6-.1-2.7l.2-.2c1.2 0 2.2.1 2.9.1.6 0 1.6 0 3-.1l.1.1v.8l-.1.1-2.4.2c-.3 0-.5.1-.6.2 0-.1-.1 0-.2.1-.1.2-.2.7-.2 1.5s-.1 2.9-.1 6.3v7.7 4.3c0 2.1 0 3.4.1 3.8s.1.7.1 1.1c.1.2.2.3.3.4s.3.2.6.2c.1 0 .9 0 2.4.1z"/></svg>