<svg fill="none" height="528" viewBox="0 0 1073 528" width="1073" xmlns="http://www.w3.org/2000/svg"><g fill="#000"><path d="m41.0709 149.317h101.2311c3.888-7.565 7.976-13.494 16.975-24.128 5.319-6.337 10.225-12.266 13.09-18.193 3.475-6.954 3.475-13.2917.408-19.4242-2.863-5.5213-8.179-8.5875-14.929-8.5875-3.273-.205-6.953.6137-10.43 2.2475-2.25-11.8575-9.613-16.9688-14.929-19.0138-6.955-2.8625-14.725-2.4537-20.86 1.0225-.612.2038-1.024.6138-1.636.8175-1.431-2.25-2.864-4.2937-4.703-6.1325-2.455-2.455-5.113-4.2937-7.9759-5.5225 3.8849-2.8612 6.5429-7.5637 6.5429-12.88 0-7.9737-5.7254-14.5162-13.2929-15.7437v-8.1788h7.5675c1.4313 0 2.6574-1.225 2.6574-2.6575 0-1.43-1.2261-2.6575-2.6574-2.6575h-7.5675v-7.36c0-1.63625-1.0237-2.8624926-2.66-2.8624926-1.43 0-2.6562 1.2262426-2.6562 2.8624926v7.36h-7.3625c-1.4313 0-2.66 1.2275-2.66 2.6575 0 1.4325 1.2287 2.6575 2.66 2.6575h7.3625v8.1788c-7.5675 1.2275-13.295 7.77-13.295 15.7437 0 5.3163 2.66 10.0188 6.75 12.88-3.0675 1.2288-5.7275 3.0675-7.9763 5.5225-1.8412 1.8388-3.4775 3.8825-4.9087 6.1325-6.5438-4.2937-14.9275-4.9075-22.4963-1.84-5.1112 2.045-12.4737 7.1563-14.9287 19.0138-3.4763-1.6338-6.9525-2.4525-10.4288-2.2475-6.545 0-12.06747 3.0662-14.92872 8.5875-3.070001 6.1325-2.865001 12.4702.4075 19.4242 2.8625 5.927 7.77122 11.856 13.09002 18.193 3.2712 3.887 6.9525 7.772 9.6112 11.86.8188 1.227 1.6363 1.637 2.6575 1.637 2.0463 0 3.4775-2.25 2.0463-4.294-3.2725-4.499-6.75-8.793-10.225-12.678-11.04502-13.493-17.58752-22.0797-12.68127-31.691 1.84125-3.68 5.52377-5.725 10.02247-5.725 3.4763 0 6.7475 1.025 9.8163 2.455-.205 3.6813 0 7.9738.8187 12.6763 2.2488 13.0847 12.6788 32.1017 20.245 30.0567 7.3625-2.047 2.6588-21.06-2.25-30.6692-3.0675-6.1338-7.77-11.245-13.0887-14.9263.41-4.4975 3.0687-13.0862 11.8637-16.765 5.5213-2.25 12.2688-2.25 17.995 1.8388-2.6587 6.135-3.885 13.2912-3.885 20.6512 0 9.8138 2.8625 22.2855 6.9525 31.0785 1.0225 2.043 3.8863 8.382 8.3863 7.768 4.7025-.613 5.9287-7.768 6.3387-10.223 1.0238-5.52 1.8413-13.698-.205-25.761-1.2262-7.565-3.4762-14.1087-6.545-19.0162-1.225-2.2475-2.6562-4.0875-4.2925-5.9288 1.2263-2.2475 2.6575-4.2925 4.2925-5.9275 3.8863-3.68 8.3863-5.725 13.4975-5.725 5.1138 0 9.8175 2.045 13.4999 5.725 1.634 1.635 3.068 3.68 4.499 5.9275-5.9314 6.1338-9.4076 15.54-11.0439 24.945-2.4537 14.72-1.4312 34.961 6.1349 35.984h.613c8.386 0 14.726-25.148 14.726-38.8465.205-7.36-1.228-14.5162-3.885-20.6512 5.316-3.8838 12.065-4.2938 17.995-1.8388 6.955 2.8613 10.84 8.9938 11.861 16.765-2.454 2.045-7.77 5.315-12.882 14.9263-4.295 8.3812-6.954 19.4222-5.932 25.9652.613 3.27 2.249 4.499 3.68 4.704 6.955 1.021 17.385-15.13 20.043-30.0567.817-4.7025 1.022-8.995 1.022-12.6763 2.864-1.43 6.135-2.455 9.613-2.455 4.704 0 8.181 2.045 10.02 5.725 5.114 9.6113-1.636 18.198-12.68 31.691-5.521 6.543-11.655 13.904-16.156 22.285h-97.9591c-5.3163 0-9.4063 4.295-9.4063 9.407 0 5.111 4.09 9.201 9.4063 9.201h93.8711c2.044 0 3.885 1.84 3.885 4.089 0 2.043-1.841 3.886-3.885 3.886h-93.6661c-2.4538 0-3.2725-.41-3.6825-.615-1.2263-.818-3.0675-.614-3.885.615-.8175 1.225-.4088 2.861.8175 3.677 1.6362 1.229 3.4775 1.637 6.75 1.637h93.6661c5.111 0 9.201-4.089 9.201-9.2 0-5.318-4.09-9.405-9.201-9.405h-93.8711c-2.2488 0-4.09-1.637-4.09-3.885 0-2.453 1.8412-4.089 4.09-4.089zm.6137-47.844c3.885 6.953 6.1363 16.971 5.3175 22.491-1.0225-.818-2.6587-2.452-3.8875-4.09-4.2925-5.518-7.975-13.902-9.2012-21.2622-.41-2.8625-.8175-5.52-.8175-8.1775 3.68 3.27 6.5437 7.155 8.5887 11.0387zm33.9488-8.1762c1.84 11.4492 1.0212 18.8092.205 24.1242-.615 3.476-1.4338 4.906-1.6363 5.521-.615-.41-1.6362-1.635-2.8637-4.498-3.68-7.973-6.34-19.8322-6.545-28.8285 0-5.93 1.0225-11.6537 2.865-16.5612 3.68 4.7025 6.5437 11.4487 7.975 20.2425zm12.2687-64.405c5.7275 0 10.6363 4.7012 10.6363 10.6312 0 5.7238-4.7038 10.4288-10.6363 10.4288-5.7237 0-10.4287-4.705-10.4287-10.4288 0-5.93 4.705-10.6312 10.4287-10.6312zm23.1129 60.7237c-.205 8.7913-4.297 28.8285-9.205 33.3265-3.0666-4.293-3.2716-19.833-1.432-29.6452 1.432-8.7938 4.092-15.54 7.977-20.2425 1.636 4.9075 2.66 10.6312 2.66 16.5612zm30.88 8.7913c-1.229 7.9742-6.545 20.8552-13.089 25.5572-.819-5.315 1.635-15.336 5.317-22.491 2.045-3.8837 5.112-7.7687 8.794-10.8362-.205 2.455-.615 5.1125-1.022 7.77z"/><path d="m33.0425 320.824h109.6005v-5.274h-109.6005z"/><path d="m72.1805 468.659h-11.2175v2.306c-2.9862-1.976-6.6175-3.13-10.975-3.13-10.6525 0-19.2862 8.975-19.2862 20.586 0 11.447 8.6337 20.504 19.2862 20.504 4.3575 0 7.9888-1.152 10.975-3.129v2.305h11.2175zm-20.3362 30.549c-5.89 0-10.0063-5.022-10.0063-10.787 0-5.846 4.1163-10.951 10.0063-10.951 3.3087 0 6.6162 1.151 9.1187 4.609v12.6c-2.5025 3.377-5.81 4.529-9.1187 4.529zm52.8557-31.785c-4.357 0-7.907 1.482-11.0545 4.035v-2.799h-11.2175v39.442h11.2175v-25.362c2.5825-3.21 5.6488-4.94 8.4735-4.94 5.244 0 8.313 3.376 8.313 9.634v20.668h11.217v-21.656c0-11.529-6.78-19.022-16.949-19.022zm65.852-17.785h-11.217v21.327c-2.986-1.976-6.618-3.13-10.976-3.13-10.652 0-19.286 9.058-19.286 20.505 0 11.61 8.634 20.585 19.286 20.585 4.358 0 7.99-1.152 10.976-3.129v2.305h11.217zm-20.336 49.652c-5.89 0-10.008-5.104-10.008-10.95 0-5.765 4.118-10.79 10.008-10.79 3.308 0 6.618 1.155 9.119 4.529v12.6c-2.501 3.459-5.811 4.611-9.119 4.611zm100.306-47.182h-11.702v23.221h-24.531v-23.221h-11.701v55.993h11.701v-21.902h24.531v21.902h11.702zm16.706 9.222c3.71 0 6.696-2.801 6.696-6.589 0-3.87-2.986-6.751-6.696-6.751-3.795 0-6.78 2.881-6.78 6.751 0 3.788 2.985 6.589 6.78 6.589zm5.649 7.329h-11.218v39.442h11.218zm50.436 0h-11.139v1.564c-2.986-1.977-6.616-3.129-10.975-3.129-10.651 0-19.286 8.315-19.286 20.176 0 10.29 8.635 19.268 19.286 19.268 4.359 0 7.989-1.153 10.975-3.129v4.282c0 6.174-3.872 9.47-8.875 9.47-5.326 0-8.555-2.718-9.038-6.836h-11.298c.806 10.046 9.118 17.045 20.336 17.045 11.702 0 20.014-7.41 20.014-19.762zm-20.256 28.244c-5.89 0-10.008-5.104-10.008-9.633 0-6.177 4.118-10.46 10.008-10.46 3.39 0 6.616 1.153 9.117 4.694v10.622c-2.501 3.624-5.727 4.777-9.117 4.777zm52.776-29.48c-4.358 0-7.91 1.482-11.056 4.035v-21.82h-11.216v58.463h11.216v-25.362c2.582-3.21 5.648-4.94 8.472-4.94 5.246 0 8.312 3.376 8.312 9.634v20.668h11.218v-21.656c0-11.529-6.779-19.022-16.946-19.022zm64.074 20.175c0-11.777-8.23-19.763-19.125-19.763-12.348 0-20.578 8.729-20.578 20.586 0 11.775 8.311 20.587 20.739 20.587 9.119 0 16.382-4.858 18.48-12.434h-11.7c-1.211 1.976-3.39 2.965-6.536 2.965-5.57 0-8.556-3.049-9.685-7h28.164c.241-1.649.241-3.294.241-4.941zm-19.448-10.375c4.68 0 7.667 2.715 8.312 7.328h-17.431c1.05-4.2 3.954-7.328 9.119-7.328zm38.333-8.564h-11.216v39.442h11.216v-23.55c3.228-3.623 7.503-5.435 13.557-5.683v-10.868c-5.73 0-10.089 1.81-13.557 5.106zm53.26-5.765h28.971v-10.786h-40.673v55.993h40.673v-10.787h-28.971v-11.445h25.662v-10.788h-25.662zm76.421-13.256h-11.218v21.327c-2.986-1.976-6.617-3.13-10.974-3.13-10.653 0-19.287 9.058-19.287 20.505 0 11.61 8.634 20.585 19.287 20.585 4.357 0 7.988-1.152 10.974-3.129v2.305h11.218zm-20.336 49.652c-5.893 0-10.008-5.104-10.008-10.95 0-5.765 4.115-10.79 10.008-10.79 3.308 0 6.616 1.155 9.118 4.529v12.6c-2.502 3.459-5.81 4.611-9.118 4.611zm69.238-30.631h-11.217v25.361c-2.581 3.211-5.649 4.941-8.473 4.941-5.245 0-8.312-3.376-8.312-9.635v-20.667h-11.217v21.739c0 11.445 6.779 18.938 16.947 18.938 4.359 0 7.909-1.482 11.055-4.036v2.801h11.217zm29.132 30.137c-5.89 0-9.684-4.528-9.684-10.375 0-5.846 3.794-10.458 9.684-10.458 4.277 0 7.425 2.471 8.231 6.257h11.218c-1.129-9.715-9.281-16.385-19.449-16.385-11.702 0-20.739 8.729-20.739 20.586 0 11.775 9.037 20.587 20.739 20.587 10.168 0 18.32-6.67 19.449-16.388h-11.218c-.806 3.789-3.954 6.176-8.231 6.176zm67.14-30.137h-11.215v2.306c-2.987-1.976-6.619-3.13-10.975-3.13-10.653 0-19.289 8.975-19.289 20.586 0 11.447 8.636 20.504 19.289 20.504 4.356 0 7.988-1.152 10.975-3.129v2.305h11.215zm-20.335 30.549c-5.89 0-10.005-5.022-10.005-10.787 0-5.846 4.115-10.951 10.005-10.951 3.31 0 6.618 1.151 9.12 4.609v12.6c-2.502 3.377-5.81 4.529-9.12 4.529zm58.747-1.482c-2.179.577-4.437 1.07-6.537 1.07-4.115 0-6.779-2.057-6.779-6.505v-13.998h13.961v-9.634h-13.961v-14.083h-11.135v14.083h-8.15v9.634h8.15v14.081c0 10.211 6.134 16.962 15.495 16.962 3.63 0 5.73-.328 10.409-1.81zm15.09-36.396c3.713 0 6.698-2.801 6.698-6.589 0-3.87-2.985-6.751-6.698-6.751-3.792 0-6.779 2.881-6.779 6.751 0 3.788 2.987 6.589 6.779 6.589zm5.649 7.329h-11.217v39.442h11.217zm28.97-.824c-11.941 0-20.737 8.645-20.737 20.586 0 12.023 8.796 20.915 20.737 20.915 11.864 0 20.58-8.892 20.58-20.915 0-11.941-8.716-20.586-20.58-20.586zm0 31.291c-5.89 0-9.683-4.777-9.683-10.705 0-5.846 3.793-10.375 9.683-10.375 5.811 0 9.524 4.529 9.524 10.375 0 5.928-3.713 10.705-9.524 10.705zm50.517-31.703c-4.355 0-7.906 1.482-11.052 4.035v-2.799h-11.219v39.442h11.219v-25.362c2.58-3.21 5.648-4.94 8.473-4.94 5.243 0 8.311 3.376 8.311 9.634v20.668h11.217v-21.656c0-11.529-6.78-19.022-16.949-19.022"/><path d="m33.0417 369.2v55.995h21.3863c16.865 0 29.3725-11.94 29.3725-28.245 0-15.974-12.5075-27.75-29.3725-27.75zm11.7025 45.042v-34.172h9.6838c9.7637 0 17.51 7.492 17.51 16.88 0 9.717-7.7463 17.292-17.51 17.292zm85.9438-28.491h-11.218v2.306c-2.986-1.975-6.617-3.13-10.975-3.13-10.652 0-19.2858 8.978-19.2858 20.588 0 11.445 8.6338 20.502 19.2858 20.502 4.358 0 7.989-1.151 10.975-3.127v2.305h11.218zm-20.336 30.551c-5.892 0-10.008-5.023-10.008-10.787 0-5.846 4.116-10.953 10.008-10.953 3.308 0 6.616 1.153 9.118 4.612v12.6c-2.502 3.376-5.81 4.528-9.118 4.528zm52.856-31.786c-4.359 0-7.909 1.481-11.056 4.035v-2.8h-11.216v39.444h11.216v-25.363c2.582-3.211 5.649-4.938 8.472-4.938 5.248 0 8.314 3.373 8.314 9.632v20.669h11.216v-21.656c0-11.529-6.777-19.023-16.946-19.023zm32.601-6.092c3.714 0 6.699-2.8 6.699-6.59 0-3.869-2.985-6.75-6.699-6.75-3.791 0-6.777 2.881-6.777 6.75 0 3.79 2.986 6.59 6.777 6.59zm5.649 7.327h-11.217v39.444h11.217zm7.829 25.774c.806 11.2 9.279 14.905 18.236 14.905 9.845 0 17.433-4.445 17.433-13.34 0-7.41-5.408-10.456-11.703-11.611l-7.02-1.153c-3.55-.657-4.599-2.224-4.599-3.705 0-1.812 1.855-3.376 5.728-3.376 3.712 0 6.86 1.399 7.102 4.941l10.248-.084c-.807-11.116-10.732-13.421-17.35-13.421-9.925 0-16.703 4.859-16.703 13.011 0 7.329 5.487 10.623 11.377 11.693l8.232 1.4c2.581.494 3.874 1.727 3.874 3.294 0 2.057-2.663 3.376-6.538 3.376-4.437 0-7.422-1.648-8.07-5.848zm66.332-27.009c-4.356 0-7.907 1.481-11.055 4.035v-21.821h-11.217v58.465h11.217v-25.363c2.583-3.211 5.649-4.938 8.474-4.938 5.244 0 8.311 3.373 8.311 9.632v20.669h11.219v-21.656c0-11.529-6.781-19.023-16.949-19.023zm85.944 29.891 4.276 10.788h12.348l-23.565-56.325h-10.975l-23.644 56.325h12.429l4.276-10.788zm-4.358-10.787h-16.221l8.072-20.503zm65.204-17.869h-11.136v1.564c-2.986-1.975-6.619-3.128-10.975-3.128-10.653 0-19.289 8.316-19.289 20.175 0 10.291 8.636 19.268 19.289 19.268 4.356 0 7.989-1.153 10.975-3.128v4.283c0 6.174-3.875 9.469-8.877 9.469-5.327 0-8.555-2.718-9.039-6.835h-11.298c.806 10.046 9.119 17.045 20.337 17.045 11.701 0 20.013-7.41 20.013-19.764zm-20.255 28.244c-5.891 0-10.006-5.104-10.006-9.633 0-6.176 4.115-10.457 10.006-10.457 3.388 0 6.616 1.151 9.119 4.693v10.622c-2.503 3.624-5.731 4.775-9.119 4.775zm67.947-9.304c0-11.776-8.231-19.764-19.126-19.764-12.347 0-20.577 8.729-20.577 20.588 0 11.776 8.311 20.586 20.739 20.586 9.12 0 16.382-4.859 18.48-12.435h-11.7c-1.212 1.976-3.39 2.965-6.538 2.965-5.568 0-8.553-3.047-9.683-6.999h28.163c.242-1.648.242-3.293.242-4.941zm-19.448-10.375c4.68 0 7.666 2.716 8.311 7.329h-17.43c1.05-4.2 3.954-7.329 9.119-7.329zm49.389-9.8c-4.359 0-7.91 1.481-11.058 4.035v-2.8h-11.215v39.444h11.215v-25.363c2.584-3.211 5.649-4.938 8.474-4.938 5.246 0 8.311 3.373 8.311 9.632v20.669h11.219v-21.656c0-11.529-6.779-19.023-16.946-19.023zm45.109 31.374c-5.889 0-9.684-4.529-9.684-10.375s3.795-10.459 9.684-10.459c4.278 0 7.426 2.471 8.232 6.258h11.216c-1.128-9.717-9.28-16.387-19.448-16.387-11.699 0-20.738 8.729-20.738 20.588 0 11.776 9.039 20.586 20.738 20.586 10.168 0 18.32-6.669 19.448-16.387h-11.216c-.806 3.787-3.954 6.176-8.232 6.176zm69.078-30.22h-11.782l-11.298 26.926-12.508-26.926h-11.942l18.803 40.514-7.505 17.951h11.781zm39.059.081v-5.681c0-4.365 2.986-7.246 7.503-7.246 1.453 0 3.794.328 5.731.74l1.533-9.798c-3.308-.905-6.698-1.401-9.522-1.401-9.845 0-16.463 7.081-16.463 17.787v5.599h-10.329v9.635h10.329v29.809h11.218v-29.809h14.685v-9.635zm38.169-.824c-11.943 0-20.74 8.647-20.74 20.588 0 12.022 8.797 20.915 20.74 20.915 11.863 0 20.577-8.893 20.577-20.915 0-11.941-8.714-20.588-20.577-20.588zm0 31.293c-5.892 0-9.684-4.778-9.684-10.705 0-5.846 3.792-10.375 9.684-10.375 5.81 0 9.524 4.529 9.524 10.375 0 5.927-3.714 10.705-9.524 10.705zm39.462-30.469h-11.216v39.444h11.216v-23.55c3.229-3.624 7.505-5.435 13.556-5.684v-10.867c-5.73 0-10.084 1.81-13.556 5.105zm63.185-17.786c-12.589 0-20.982 7.165-20.982 17.951 0 8.728 4.763 14.246 15.656 16.469l8.958 1.73c5.568 1.069 6.859 3.457 6.859 5.764 0 3.787-3.227 6.011-9.036 6.011-7.344 0-12.186-3.54-13.075-9.223h-11.62c.968 12.515 10.813 19.682 24.046 19.682 13.155 0 21.792-7.083 21.792-17.788 0-9.387-6.215-13.505-16.707-15.809l-6.777-1.401c-5.003-.989-7.749-2.635-7.749-6.424 0-4.362 3.794-6.835 9.524-6.835 6.616 0 9.684 3.295 10.409 8.237h11.54c-1.29-14.495-13.638-18.364-22.838-18.364zm50.6 47.925c-5.892 0-9.685-4.529-9.685-10.375s3.793-10.459 9.685-10.459c4.277 0 7.424 2.471 8.23 6.258h11.218c-1.13-9.717-9.281-16.387-19.448-16.387-11.701 0-20.741 8.729-20.741 20.588 0 11.776 9.04 20.586 20.741 20.586 10.167 0 18.318-6.669 19.448-16.387h-11.218c-.806 3.787-3.953 6.176-8.23 6.176zm33.409-37.466c3.711 0 6.697-2.8 6.697-6.59 0-3.869-2.986-6.75-6.697-6.75-3.794 0-6.779 2.881-6.779 6.75 0 3.79 2.985 6.59 6.779 6.59zm5.648 7.327h-11.218v39.444h11.218zm47.934 18.94c0-11.776-8.23-19.764-19.125-19.764-12.347 0-20.577 8.729-20.577 20.588 0 11.776 8.313 20.586 20.739 20.586 9.121 0 16.382-4.859 18.48-12.435h-11.7c-1.211 1.976-3.39 2.965-6.538 2.965-5.569 0-8.554-3.047-9.684-6.999h28.164c.241-1.648.241-3.293.241-4.941zm-19.447-10.375c4.68 0 7.666 2.716 8.313 7.329h-17.432c1.05-4.2 3.954-7.329 9.119-7.329zm49.389-9.8c-4.358 0-7.91 1.481-11.058 4.035v-2.8h-11.215v39.444h11.215v-25.363c2.585-3.211 5.65-4.938 8.474-4.938 5.246 0 8.312 3.373 8.312 9.632v20.669h11.218v-21.656c0-11.529-6.779-19.023-16.946-19.023zm45.113 31.374c-5.89 0-9.687-4.529-9.687-10.375s3.797-10.459 9.687-10.459c4.28 0 7.42 2.471 8.23 6.258h11.21c-1.12-9.717-9.27-16.387-19.44-16.387-11.703 0-20.742 8.729-20.742 20.588 0 11.776 9.039 20.586 20.742 20.586 10.17 0 18.32-6.669 19.44-16.387h-11.21c-.81 3.787-3.95 6.176-8.23 6.176zm65.36-11.199c0-11.776-8.23-19.764-19.12-19.764-12.35 0-20.58 8.729-20.58 20.588 0 11.776 8.31 20.586 20.74 20.586 9.12 0 16.38-4.859 18.48-12.435h-11.7c-1.21 1.976-3.39 2.965-6.54 2.965-5.57 0-8.55-3.047-9.68-6.999h28.16c.24-1.648.24-3.293.24-4.941zm-19.45-10.375c4.68 0 7.67 2.716 8.32 7.329h-17.44c1.05-4.2 3.96-7.329 9.12-7.329"/><path d="m45.1596 214.091h28.9713v-10.787h-40.6725v55.993h40.6725v-10.786h-28.9713v-11.446h25.6625v-10.786h-25.6625zm76.4214-13.257h-11.215v21.327c-2.986-1.977-6.619-3.13-10.9751-3.13-10.6525 0-19.2888 9.058-19.2888 20.503 0 11.612 8.6363 20.587 19.2888 20.587 4.3561 0 7.9891-1.152 10.9751-3.127v2.303h11.215zm-20.336 49.652c-5.8904 0-10.0066-5.104-10.0066-10.952 0-5.762 4.1162-10.785 10.0066-10.785 3.311 0 6.618 1.152 9.121 4.528v12.599c-2.503 3.459-5.81 4.61-9.121 4.61zm69.238-30.631h-11.215v25.362c-2.583 3.213-5.651 4.942-8.475 4.942-5.245 0-8.312-3.378-8.312-9.635v-20.669h-11.215v21.74c0 11.445 6.777 18.939 16.945 18.939 4.359 0 7.909-1.483 11.057-4.035v2.798h11.215zm29.133 30.139c-5.89 0-9.684-4.529-9.684-10.375 0-5.847 3.794-10.459 9.684-10.459 4.276 0 7.425 2.471 8.232 6.259h11.217c-1.13-9.718-9.28-16.388-19.449-16.388-11.701 0-20.739 8.73-20.739 20.588 0 11.776 9.038 20.585 20.739 20.585 10.169 0 18.319-6.67 19.449-16.388h-11.217c-.807 3.79-3.956 6.178-8.232 6.178zm67.141-30.139h-11.217v2.306c-2.985-1.977-6.617-3.13-10.975-3.13-10.653 0-19.287 8.976-19.287 20.588 0 11.445 8.634 20.502 19.287 20.502 4.358 0 7.99-1.152 10.975-3.127v2.303h11.217zm-20.336 30.55c-5.891 0-10.006-5.023-10.006-10.786 0-5.847 4.115-10.953 10.006-10.953 3.309 0 6.617 1.153 9.119 4.611v12.599c-2.502 3.378-5.81 4.529-9.119 4.529zm58.749-1.483c-2.179.578-4.44 1.072-6.538 1.072-4.117 0-6.78-2.06-6.78-6.505v-13.999h13.963v-9.635h-13.963v-14.081h-11.136v14.081h-8.15v9.635h8.15v14.08c0 10.212 6.135 16.964 15.494 16.964 3.631 0 5.731-.33 10.411-1.812zm15.087-36.396c3.713 0 6.699-2.799 6.699-6.587 0-3.87-2.986-6.753-6.699-6.753-3.792 0-6.777 2.883-6.777 6.753 0 3.788 2.985 6.587 6.777 6.587zm5.649 7.329h-11.218v39.442h11.218zm28.972-.824c-11.945 0-20.74 8.646-20.74 20.588 0 12.022 8.795 20.915 20.74 20.915 11.862 0 20.578-8.893 20.578-20.915 0-11.942-8.716-20.588-20.578-20.588zm0 31.293c-5.891 0-9.683-4.778-9.683-10.705 0-5.847 3.792-10.378 9.683-10.378 5.81 0 9.522 4.531 9.522 10.378 0 5.927-3.712 10.705-9.522 10.705zm50.518-31.704c-4.358 0-7.909 1.482-11.056 4.036v-2.801h-11.218v39.442h11.218v-25.362c2.583-3.211 5.648-4.94 8.473-4.94 5.247 0 8.312 3.376 8.312 9.635v20.667h11.218v-21.655c0-11.528-6.778-19.022-16.947-19.022zm87.556 1.235h-11.216v2.306c-2.985-1.977-6.619-3.13-10.975-3.13-10.651 0-19.288 8.976-19.288 20.588 0 11.445 8.637 20.502 19.288 20.502 4.356 0 7.99-1.152 10.975-3.127v2.303h11.216zm-20.336 30.55c-5.89 0-10.008-5.023-10.008-10.786 0-5.847 4.118-10.953 10.008-10.953 3.31 0 6.619 1.153 9.12 4.611v12.599c-2.501 3.378-5.81 4.529-9.12 4.529zm52.857-31.785c-4.357 0-7.908 1.482-11.056 4.036v-2.801h-11.217v39.442h11.217v-25.362c2.583-3.211 5.649-4.94 8.474-4.94 5.246 0 8.311 3.376 8.311 9.635v20.667h11.219v-21.655c0-11.528-6.78-19.022-16.948-19.022zm65.85-17.786h-11.216v21.327c-2.986-1.977-6.616-3.13-10.975-3.13-10.652 0-19.286 9.058-19.286 20.503 0 11.612 8.634 20.587 19.286 20.587 4.359 0 7.989-1.152 10.975-3.127v2.303h11.216zm-20.335 49.652c-5.891 0-10.006-5.104-10.006-10.952 0-5.762 4.115-10.785 10.006-10.785 3.309 0 6.618 1.152 9.119 4.528v12.599c-2.501 3.459-5.81 4.61-9.119 4.61zm73.998-48.417c-12.588 0-20.981 7.162-20.981 17.951 0 8.729 4.762 14.246 15.656 16.469l8.956 1.728c5.57 1.07 6.86 3.458 6.86 5.765 0 3.788-3.226 6.012-9.037 6.012-7.344 0-12.187-3.54-13.074-9.223h-11.62c.967 12.515 10.814 19.681 24.047 19.681 13.153 0 21.789-7.082 21.789-17.787 0-9.388-6.214-13.505-16.705-15.811l-6.777-1.399c-5.004-.989-7.748-2.635-7.748-6.424 0-4.364 3.791-6.835 9.523-6.835 6.616 0 9.683 3.295 10.408 8.234h11.542c-1.292-14.491-13.638-18.361-22.839-18.361zm50.6 47.925c-5.891 0-9.684-4.529-9.684-10.375 0-5.847 3.793-10.459 9.684-10.459 4.276 0 7.422 2.471 8.23 6.259h11.217c-1.131-9.718-9.281-16.388-19.447-16.388-11.703 0-20.741 8.73-20.741 20.588 0 11.776 9.038 20.585 20.741 20.585 10.166 0 18.316-6.67 19.447-16.388h-11.217c-.808 3.79-3.954 6.178-8.23 6.178zm33.407-37.468c3.714 0 6.7-2.799 6.7-6.587 0-3.87-2.986-6.753-6.7-6.753-3.791 0-6.776 2.883-6.776 6.753 0 3.788 2.985 6.587 6.776 6.587zm5.65 7.329h-11.218v39.442h11.218zm47.935 18.94c0-11.776-8.23-19.764-19.126-19.764-12.346 0-20.577 8.73-20.577 20.588 0 11.776 8.311 20.585 20.74 20.585 9.12 0 16.381-4.858 18.478-12.434h-11.7c-1.21 1.976-3.388 2.962-6.536 2.962-5.57 0-8.555-3.045-9.685-6.997h28.164c.242-1.648.242-3.293.242-4.94zm-19.448-10.375c4.68 0 7.666 2.716 8.311 7.327h-17.43c1.05-4.2 3.954-7.327 9.119-7.327zm49.388-9.8c-4.358 0-7.908 1.482-11.056 4.036v-2.801h-11.216v39.442h11.216v-25.362c2.583-3.211 5.649-4.94 8.473-4.94 5.247 0 8.312 3.376 8.312 9.635v20.667h11.216v-21.655c0-11.528-6.777-19.022-16.945-19.022zm45.11 31.374c-5.888 0-9.683-4.529-9.683-10.375 0-5.847 3.795-10.459 9.683-10.459 4.278 0 7.425 2.471 8.233 6.259h11.215c-1.129-9.718-9.28-16.388-19.448-16.388-11.7 0-20.738 8.73-20.738 20.588 0 11.776 9.038 20.585 20.738 20.585 10.168 0 18.319-6.67 19.448-16.388h-11.215c-.808 3.79-3.955 6.178-8.233 6.178zm65.365-11.199c0-11.776-8.23-19.764-19.125-19.764-12.347 0-20.577 8.73-20.577 20.588 0 11.776 8.311 20.585 20.739 20.585 9.118 0 16.382-4.858 18.48-12.434h-11.7c-1.212 1.976-3.39 2.962-6.538 2.962-5.569 0-8.555-3.045-9.684-6.997h28.164c.241-1.648.241-3.293.241-4.94zm-19.447-10.375c4.68 0 7.666 2.716 8.311 7.327h-17.43c1.05-4.2 3.954-7.327 9.119-7.327"/><path d="m261.585 120.396h-8.311l-20.498 32.939-20.497-32.939h-8.393v55.995h11.783l-.162-30.633 13.799 22.152v.081h6.86l13.718-21.986v30.386h11.701zm16.705 9.224c3.711 0 6.696-2.8 6.696-6.589 0-3.87-2.985-6.751-6.696-6.751-3.794 0-6.78 2.881-6.78 6.751 0 3.789 2.986 6.589 6.78 6.589zm5.649 7.327h-11.218v39.444h11.218zm32.763-1.235c-4.358 0-7.91 1.481-11.056 4.035v-2.8h-11.216v39.444h11.216v-25.363c2.583-3.211 5.649-4.938 8.473-4.938 5.246 0 8.311 3.373 8.311 9.632v20.669h11.219v-21.656c0-11.529-6.779-19.023-16.947-19.023zm32.602-6.092c3.713 0 6.698-2.8 6.698-6.589 0-3.87-2.985-6.751-6.698-6.751-3.793 0-6.779 2.881-6.779 6.751 0 3.789 2.986 6.589 6.779 6.589zm5.648 7.327h-11.218v39.444h11.218zm7.829 25.775c.806 11.199 9.279 14.904 18.236 14.904 9.845 0 17.433-4.445 17.433-13.34 0-7.41-5.408-10.456-11.703-11.611l-7.021-1.152c-3.551-.658-4.599-2.225-4.599-3.706 0-1.812 1.857-3.376 5.729-3.376 3.713 0 6.86 1.399 7.103 4.941l10.247-.084c-.806-11.115-10.731-13.421-17.35-13.421-9.925 0-16.704 4.859-16.704 13.011 0 7.329 5.488 10.623 11.378 11.693l8.232 1.4c2.582.494 3.874 1.727 3.874 3.294 0 2.058-2.664 3.376-6.537 3.376-4.438 0-7.425-1.646-8.07-5.848zm72.224 3.293c-2.179.577-4.438 1.071-6.538 1.071-4.115 0-6.777-2.058-6.777-6.505v-13.999h13.96v-9.635h-13.96v-14.081h-11.136v14.081h-8.15v9.635h8.15v14.081c0 10.212 6.132 16.963 15.493 16.963 3.632 0 5.729-.329 10.409-1.811zm20.334-29.068h-11.215v39.444h11.215v-23.55c3.228-3.624 7.506-5.435 13.558-5.684v-10.867c-5.73 0-10.088 1.81-13.558 5.105zm65.688-.081h-11.782l-11.298 26.927-12.508-26.927h-11.943l18.803 40.514-7.505 17.951h11.782zm40.914-.743c-11.944 0-20.739 8.647-20.739 20.588 0 12.022 8.795 20.915 20.739 20.915 11.863 0 20.579-8.893 20.579-20.915 0-11.941-8.716-20.588-20.579-20.588zm0 31.293c-5.89 0-9.684-4.778-9.684-10.705 0-5.846 3.794-10.375 9.684-10.375 5.809 0 9.523 4.529 9.523 10.375 0 5.927-3.714 10.705-9.523 10.705zm44.545-30.469v-5.681c0-4.365 2.986-7.246 7.505-7.246 1.453 0 3.793.328 5.731.74l1.533-9.798c-3.31-.905-6.698-1.401-9.521-1.401-9.845 0-16.464 7.082-16.464 17.787v5.599h-10.33v9.635h10.33v29.809h11.216v-29.809h14.688v-9.635zm89.656-16.551h-11.702v23.221h-24.533v-23.221h-11.702v55.995h11.702v-21.904h24.533v21.904h11.702zm16.703 9.224c3.712 0 6.699-2.8 6.699-6.589 0-3.87-2.987-6.751-6.699-6.751-3.793 0-6.779 2.881-6.779 6.751 0 3.789 2.986 6.589 6.779 6.589zm5.649 7.327h-11.218v39.444h11.218zm50.436 0h-11.136v1.565c-2.985-1.976-6.617-3.129-10.975-3.129-10.652 0-19.287 8.317-19.287 20.175 0 10.292 8.635 19.268 19.287 19.268 4.358 0 7.99-1.151 10.975-3.128v4.283c0 6.174-3.874 9.469-8.877 9.469-5.326 0-8.553-2.718-9.037-6.835h-11.3c.81 10.046 9.121 17.045 20.337 17.045 11.702 0 20.013-7.41 20.013-19.764zm-20.255 28.245c-5.891 0-10.006-5.105-10.006-9.634 0-6.176 4.115-10.457 10.006-10.457 3.389 0 6.617 1.152 9.119 4.694v10.621c-2.502 3.624-5.73 4.776-9.119 4.776zm52.775-29.48c-4.358 0-7.908 1.481-11.055 4.035v-21.821h-11.216v58.465h11.216v-25.363c2.582-3.211 5.65-4.938 8.475-4.938 5.244 0 8.311 3.373 8.311 9.632v20.669h11.218v-21.656c0-11.529-6.78-19.023-16.949-19.023zm64.076 20.175c0-11.775-8.231-19.764-19.125-19.764-12.347 0-20.58 8.73-20.58 20.588 0 11.776 8.314 20.586 20.741 20.586 9.119 0 16.38-4.859 18.48-12.434h-11.701c-1.211 1.975-3.39 2.964-6.537 2.964-5.568 0-8.553-3.047-9.685-6.999h28.163c.244-1.648.244-3.293.244-4.941zm-19.447-10.375c4.68 0 7.666 2.716 8.312 7.329h-17.434c1.05-4.2 3.957-7.329 9.122-7.329zm38.331-8.565h-11.216v39.444h11.216v-23.55c3.227-3.624 7.505-5.435 13.557-5.684v-10.867c-5.728 0-10.086 1.81-13.557 5.105z"/></g></svg>