<?xml version="1.0" encoding="utf-8"?>
<!-- Generator: Adobe Illustrator 22.0.1, SVG Export Plug-In . SVG Version: 6.00 Build 0)  -->
<svg version="1.1" xmlns="http://www.w3.org/2000/svg" xmlns:xlink="http://www.w3.org/1999/xlink" x="0px" y="0px"
	 viewBox="0 0 170.7 63.3" style="enable-background:new 0 0 170.7 63.3;" xml:space="preserve">
<style type="text/css">
	.st0{fill:#025257;}
	.st1{fill:#E8E34A;}
	.st2{fill:#CAD206;}
	.st3{fill:#DCDD30;}
	.st4{fill:#CFC60A;}
	.st5{fill:#9FC63C;}
	.st6{fill:#008973;}
	.st7{fill:#03A685;}
	.st8{fill:#06A291;}
	.st9{fill:#01727A;}
	.st10{fill:#50BAAE;}
	.st11{fill:#6BC4CE;}
	.st12{fill:#09A9B6;}
	.st13{fill:#009983;}
</style>
<g id="Layer_2">
	<g>
		<path class="st0" d="M63.1,34.3h4.7c2.3,0,3.9,1.6,3.9,4c0,2.4-1.6,4-3.9,4h-2.5v4.2h-2.2V34.3z M67.4,40.4c1.3,0,2.1-0.8,2.1-2.1
			c0-1.3-0.8-2.1-2-2.1h-2.1v4.2H67.4z"/>
		<path class="st0" d="M73,34.3h2.2v7.9c0,1.6,1.1,2.6,2.7,2.6c1.6,0,2.7-0.9,2.7-2.6v-7.9H83v7.9c0,2.8-2,4.6-5,4.6
			c-3,0-5-1.9-5-4.6V34.3z"/>
		<path class="st0" d="M85.2,34.3h4.4c2.2,0,3.8,1.1,3.8,3.2c0,1.1-0.6,2.1-1.5,2.6v0c1.3,0.4,2,1.6,2,2.9c0,2.5-2,3.6-4.2,3.6h-4.4
			V34.3z M89.6,39.3c1,0,1.5-0.7,1.5-1.6c0-0.9-0.5-1.5-1.6-1.5h-2.1v3.1H89.6z M89.8,44.7c1.1,0,1.8-0.7,1.8-1.8
			c0-1-0.7-1.8-1.8-1.8h-2.4v3.5H89.8z"/>
		<polygon class="st0" points="95.8,34.3 98,34.3 98,44.7 103.3,44.7 103.3,46.6 95.8,46.6 		"/>
		<rect x="105" y="34.3" class="st0" width="2.2" height="12.3"/>
		<path class="st0" d="M110.2,43.4c0,0,1.3,1.3,3.1,1.3c0.9,0,1.8-0.5,1.8-1.5c0-2.2-5.8-1.8-5.8-5.6c0-2,1.8-3.6,4.1-3.6
			c2.4,0,3.7,1.3,3.7,1.3l-1,1.8c0,0-1.2-1.1-2.7-1.1c-1,0-1.9,0.6-1.9,1.5c0,2.2,5.8,1.6,5.8,5.6c0,2-1.5,3.6-4.1,3.6
			c-2.7,0-4.2-1.7-4.2-1.7L110.2,43.4z"/>
		<polygon class="st0" points="119,34.3 121.2,34.3 121.2,39.5 126.8,39.5 126.8,34.3 129.1,34.3 129.1,46.6 126.8,46.6 126.8,41.4 
			121.2,41.4 121.2,46.6 119,46.6 		"/>
		<rect x="131.7" y="34.3" class="st0" width="2.2" height="12.3"/>
		<path class="st0" d="M136.5,34.3h2.2l4.7,7.1c0.5,0.7,1,1.9,1,1.9h0c0,0-0.1-1.2-0.1-1.9v-7.1h2.2v12.3h-2.2l-4.7-7.1
			c-0.5-0.7-1-1.9-1-1.9h0c0,0,0.1,1.2,0.1,1.9v7.1h-2.2V34.3z"/>
		<path class="st0" d="M154.7,34.1c3,0,4.6,1.6,4.6,1.6l-1.1,1.7c0,0-1.3-1.2-3.3-1.2c-2.8,0-4.2,1.9-4.2,4.2c0,2.7,1.8,4.4,4.1,4.4
			c1.9,0,3.1-1.3,3.1-1.3V42H156v-1.9h3.9v6.5h-1.9V46c0-0.3,0-0.5,0-0.5h0c0,0-1.3,1.3-3.6,1.3c-3.2,0-6-2.5-6-6.4
			C148.3,36.9,151,34.1,154.7,34.1"/>
		<path class="st0" d="M68.9,14.9c4.2,0,6.3,3.3,6.3,7c0,0.3-0.1,0.8-0.1,0.8H62.8c0,4.4,3,7,6.6,7c2.9,0,4.8-1.9,4.8-1.9l0.7,1.1
			c0,0-2.1,2.1-5.5,2.1c-4.3,0-7.9-3.1-7.9-8C61.5,17.7,65,14.9,68.9,14.9 M73.8,21.5c-0.2-3.7-2.4-5.4-4.9-5.4
			c-2.8,0-5.4,1.8-6,5.4H73.8z"/>
		<path class="st0" d="M78,15.2h1.3v2.7c0,0.7-0.1,1.3-0.1,1.3h0.1c0.8-2.3,3.5-4.3,5.9-4.3c3.1,0,4.5,1.4,4.8,4.2H90
			c0.9-2.1,3.2-4.2,5.8-4.2c4,0,5.1,2.3,5.1,6v9.7h-1.3v-9.3c0-2.9-0.6-5.2-3.8-5.2c-2.5,0-4.7,2.3-5.4,4.7
			c-0.2,0.7-0.3,1.5-0.3,2.4v7.5h-1.3v-9.3c0-2.6-0.4-5.2-3.7-5.2c-2.7,0-4.9,2.4-5.6,4.9c-0.2,0.6-0.2,1.4-0.2,2.1v7.5H78V15.2z"/>
		<path class="st0" d="M111,14.9c4.2,0,6.3,3.3,6.3,7c0,0.3-0.1,0.8-0.1,0.8h-12.3c0,4.4,3,7,6.6,7c2.9,0,4.8-1.9,4.8-1.9l0.7,1.1
			c0,0-2.1,2.1-5.5,2.1c-4.3,0-7.9-3.1-7.9-8C103.6,17.7,107.1,14.9,111,14.9 M115.9,21.5c-0.2-3.7-2.4-5.4-4.9-5.4
			c-2.8,0-5.4,1.8-6,5.4H115.9z"/>
		<path class="st0" d="M120.1,15.2h1.3v2.9c0,0.7-0.1,1.3-0.1,1.3h0.1c0.8-2.4,2.5-4.3,4.9-4.3c0.5,0,0.9,0.1,0.9,0.1v1.3
			c0,0-0.4-0.1-0.7-0.1c-2.4,0-3.9,2-4.6,4.3c-0.3,1.1-0.5,2.2-0.5,3.2v6.6h-1.3V15.2z"/>
		<path class="st0" d="M137.2,21.2h1v-0.5c0-3.4-1.7-4.6-4.2-4.6c-2.7,0-4.4,1.5-4.4,1.5l-0.7-1c0,0,1.8-1.7,5.2-1.7
			c3.5,0,5.4,2,5.4,5.8v9.9h-1.3v-2c0-0.8,0.1-1.4,0.1-1.4h-0.1c0,0-1.4,3.8-5.4,3.8c-2.5,0-5.2-1.4-5.2-4.4
			C127.6,21.3,134.4,21.2,137.2,21.2 M132.9,29.7c3.3,0,5.2-3.5,5.2-6.5v-0.8h-1c-2.6,0-8.2,0-8.2,4C129,28,130.3,29.7,132.9,29.7"
			/>
		<polyline class="st0" points="142.7,30.6 142.7,9 143.9,9 143.9,30.6 		"/>
		<path class="st0" d="M153.2,14.9c3.9,0,5.3,3.5,5.3,3.5h0.1c0,0-0.1-0.6-0.1-1.3V8.8h1.3v21.8h-1.3v-1.9c0-0.7,0.1-1.2,0.1-1.2
			h-0.1c0,0-1.3,3.5-5.6,3.5c-4.1,0-6.6-3.3-6.6-8C146.3,18,149.2,14.9,153.2,14.9 M153,29.7c2.8,0,5.5-2,5.5-6.8
			c0-3.4-1.7-6.8-5.3-6.8c-3,0-5.5,2.5-5.5,6.8C147.7,27,149.9,29.7,153,29.7"/>
		<polygon class="st1" points="46.5,38.1 54,34.3 54,46.6 		"/>
		<polygon class="st2" points="32.4,57.5 46.5,38.1 54,46.6 		"/>
		<polygon class="st3" points="32.4,45.3 32.4,57.5 46.5,38.1 		"/>
		<polygon class="st4" points="32.4,57.5 23.8,40.9 32.4,45.3 		"/>
		<polygon class="st5" points="10.8,46.5 32.4,57.5 23.8,40.9 		"/>
		<polygon class="st6" points="10.8,28.3 10.8,46.5 23.8,40.9 		"/>
		<polygon class="st7" points="23.9,22.6 10.8,28.3 23.8,40.9 		"/>
		<polygon class="st8" points="10.8,17.2 10.8,28.3 23.9,22.6 		"/>
		<polygon class="st9" points="32.7,5.8 10.8,17.2 23.9,22.6 32.7,18 		"/>
		<polygon class="st10" points="46,12.4 32.7,5.8 32.7,18 		"/>
		<polygon class="st11" points="42,22.6 46,12.4 32.7,18 		"/>
		<polygon class="st12" points="54,16.4 46,12.4 42,22.6 		"/>
		<polygon class="st13" points="32.7,27.3 32.7,39.5 54,28.5 54,16.4 		"/>
		<polygon class="st8" points="28.8,25.7 32.7,27.3 32.7,39.5 28.8,37.8 		"/>
	</g>
</g>
<g id="Layer_4">
</g>
</svg>
