<svg width="150" height="53" viewBox="0 0 150 53" fill="none" xmlns="http://www.w3.org/2000/svg">
<path d="M53.1001 29.2998H57.8001C60.1001 29.2998 61.7001 30.8998 61.7001 33.2998C61.7001 35.6998 60.1001 37.2998 57.8001 37.2998H55.3001V41.4998H53.1001V29.2998V29.2998ZM57.4001 35.3998C58.7001 35.3998 59.5001 34.5998 59.5001 33.2998C59.5001 31.9998 58.7001 31.1998 57.5001 31.1998H55.4001V35.3998H57.4001Z" fill="#025257"/>
<path d="M63 29.2998H65.2V37.1998C65.2 38.7998 66.3 39.7998 67.9 39.7998C69.5 39.7998 70.6 38.8998 70.6 37.1998V29.2998H73V37.1998C73 39.9998 71 41.7998 68 41.7998C65 41.7998 63 39.8998 63 37.1998V29.2998Z" fill="#025257"/>
<path d="M75.2001 29.2998H79.6001C81.8001 29.2998 83.4001 30.3998 83.4001 32.4998C83.4001 33.5998 82.8001 34.5998 81.9001 35.0998C83.2001 35.4998 83.9001 36.6998 83.9001 37.9998C83.9001 40.4998 81.9001 41.5998 79.7001 41.5998H75.3001V29.2998H75.2001ZM79.6001 34.2998C80.6001 34.2998 81.1001 33.5998 81.1001 32.6998C81.1001 31.7998 80.6001 31.1998 79.5001 31.1998H77.4001V34.2998H79.6001ZM79.8001 39.6998C80.9001 39.6998 81.6001 38.9998 81.6001 37.8998C81.6001 36.8998 80.9001 36.0998 79.8001 36.0998H77.4001V39.5998H79.8001V39.6998Z" fill="#025257"/>
<path d="M85.8 29.2998H88V39.6998H93.3V41.5998H85.8V29.2998Z" fill="#025257"/>
<path d="M97.2 29.2998H95V41.5998H97.2V29.2998Z" fill="#025257"/>
<path d="M100.2 38.4C100.2 38.4 101.5 39.7 103.3 39.7C104.2 39.7 105.1 39.2 105.1 38.2C105.1 36 99.3 36.4 99.3 32.6C99.3 30.6 101.1 29 103.4 29C105.8 29 107.1 30.3 107.1 30.3L106.1 32.1C106.1 32.1 104.9 31 103.4 31C102.4 31 101.5 31.6 101.5 32.5C101.5 34.7 107.3 34.1 107.3 38.1C107.3 40.1 105.8 41.7 103.2 41.7C100.5 41.7 99 40 99 40L100.2 38.4Z" fill="#025257"/>
<path d="M109 29.2998H111.2V34.4998H116.8V29.2998H119.1V41.5998H116.8V36.3998H111.2V41.5998H109V29.2998Z" fill="#025257"/>
<path d="M123.9 29.2998H121.7V41.5998H123.9V29.2998Z" fill="#025257"/>
<path d="M126.5 29.2998H128.7L133.4 36.3998C133.9 37.0998 134.4 38.2998 134.4 38.2998C134.4 38.2998 134.3 37.0998 134.3 36.3998V29.2998H136.5V41.5998H134.3L129.6 34.4998C129.1 33.7998 128.6 32.5998 128.6 32.5998C128.6 32.5998 128.7 33.7998 128.7 34.4998V41.5998H126.5V29.2998Z" fill="#025257"/>
<path d="M144.7 29.0996C147.7 29.0996 149.3 30.6996 149.3 30.6996L148.2 32.3996C148.2 32.3996 146.9 31.1996 144.9 31.1996C142.1 31.1996 140.7 33.0996 140.7 35.3996C140.7 38.0996 142.5 39.7996 144.8 39.7996C146.7 39.7996 147.9 38.4996 147.9 38.4996V36.9996H146V35.0996H149.9V41.5996H148V40.9996C148 40.6996 148 40.4996 148 40.4996C148 40.4996 146.7 41.7996 144.4 41.7996C141.2 41.7996 138.4 39.2996 138.4 35.3996C138.3 31.8996 141 29.0996 144.7 29.0996Z" fill="#025257"/>
<path d="M58.9 9.89941C63.1 9.89941 65.2 13.1994 65.2 16.8994C65.2 17.1994 65.1 17.6994 65.1 17.6994H52.8C52.8 22.0994 55.8 24.6994 59.4 24.6994C62.3 24.6994 64.2 22.7994 64.2 22.7994L64.9 23.8994C64.9 23.8994 62.8 25.9994 59.4 25.9994C55.1 25.9994 51.5 22.8994 51.5 17.9994C51.5 12.6994 55 9.89941 58.9 9.89941ZM63.8 16.4994C63.6 12.7994 61.4 11.0994 58.9 11.0994C56.1 11.0994 53.5 12.8994 52.9 16.4994H63.8Z" fill="#025257"/>
<path d="M68 10.1994H69.3V12.8994C69.3 13.5994 69.2 14.1994 69.2 14.1994H69.3C70.1 11.8994 72.8 9.89941 75.2 9.89941C78.3 9.89941 79.7 11.2994 80 14.0994C80.9 11.9994 83.2 9.89941 85.8 9.89941C89.8 9.89941 90.9 12.1994 90.9 15.8994V25.5994H89.6V16.2994C89.6 13.3994 89 11.0994 85.8 11.0994C83.3 11.0994 81.1 13.3994 80.4 15.7994C80.2 16.4994 80.1 17.2994 80.1 18.1994V25.6994H78.8V16.3994C78.8 13.7994 78.4 11.1994 75.1 11.1994C72.4 11.1994 70.2 13.5994 69.5 16.0994C69.3 16.6994 69.3 17.4994 69.3 18.1994V25.6994H68V10.1994Z" fill="#025257"/>
<path d="M101 9.89941C105.2 9.89941 107.3 13.1994 107.3 16.8994C107.3 17.1994 107.2 17.6994 107.2 17.6994H94.9001C94.9001 22.0994 97.9001 24.6994 101.5 24.6994C104.4 24.6994 106.3 22.7994 106.3 22.7994L107 23.8994C107 23.8994 104.9 25.9994 101.5 25.9994C97.2001 25.9994 93.6001 22.8994 93.6001 17.9994C93.6001 12.6994 97.1001 9.89941 101 9.89941ZM105.9 16.4994C105.7 12.7994 103.5 11.0994 101 11.0994C98.2001 11.0994 95.6001 12.8994 95.0001 16.4994H105.9Z" fill="#025257"/>
<path d="M110.1 10.1996H111.4V13.0996C111.4 13.7996 111.3 14.3996 111.3 14.3996H111.4C112.2 11.9996 113.9 10.0996 116.3 10.0996C116.8 10.0996 117.2 10.1996 117.2 10.1996V11.4996C117.2 11.4996 116.8 11.3996 116.5 11.3996C114.1 11.3996 112.6 13.3996 111.9 15.6996C111.6 16.7996 111.4 17.8996 111.4 18.8996V25.4996H110.1V10.1996V10.1996Z" fill="#025257"/>
<path d="M127.2 16.1994H128.2V15.6994C128.2 12.2994 126.5 11.0994 124 11.0994C121.3 11.0994 119.6 12.5994 119.6 12.5994L118.9 11.5994C118.9 11.5994 120.7 9.89941 124.1 9.89941C127.6 9.89941 129.5 11.8994 129.5 15.6994V25.5994H128.2V23.5994C128.2 22.7994 128.3 22.1994 128.3 22.1994H128.2C128.2 22.1994 126.8 25.9994 122.8 25.9994C120.3 25.9994 117.6 24.5994 117.6 21.5994C117.6 16.2994 124.4 16.1994 127.2 16.1994ZM122.9 24.6994C126.2 24.6994 128.1 21.1994 128.1 18.1994V17.3994H127.1C124.5 17.3994 118.9 17.3994 118.9 21.3994C119 22.9994 120.3 24.6994 122.9 24.6994Z" fill="#025257"/>
<path d="M132.7 25.6V4H133.9V25.6" fill="#025257"/>
<path d="M143.2 9.8998C147.1 9.8998 148.5 13.3998 148.5 13.3998H148.6C148.6 13.3998 148.5 12.7998 148.5 12.0998V3.7998H149.8V25.5998H148.5V23.6998C148.5 22.9998 148.6 22.4998 148.6 22.4998H148.5C148.5 22.4998 147.2 25.9998 142.9 25.9998C138.8 25.9998 136.3 22.6998 136.3 17.9998C136.3 12.9998 139.2 9.8998 143.2 9.8998ZM143 24.6998C145.8 24.6998 148.5 22.6998 148.5 17.8998C148.5 14.4998 146.8 11.0998 143.2 11.0998C140.2 11.0998 137.7 13.5998 137.7 17.8998C137.7 21.9998 139.9 24.6998 143 24.6998Z" fill="#025257"/>
<path d="M36.5 33.0998L44 29.2998V41.5998L36.5 33.0998Z" fill="#E8E34A"/>
<path d="M22.4 52.4996L36.5 33.0996L44 41.5996L22.4 52.4996Z" fill="#CAD206"/>
<path d="M22.4 40.2996V52.4996L36.5 33.0996L22.4 40.2996Z" fill="#DCDD30"/>
<path d="M22.4001 52.4994L13.8 35.8994L22.4001 40.2994V52.4994Z" fill="#CFC60A"/>
<path d="M0.800049 41.4994L22.4001 52.4994L13.8 35.8994L0.800049 41.4994Z" fill="#9FC63C"/>
<path d="M0.800049 23.2998V41.4998L13.8 35.8998L0.800049 23.2998Z" fill="#008973"/>
<path d="M13.9 17.5996L0.800049 23.2996L13.8 35.8996L13.9 17.5996Z" fill="#03A685"/>
<path d="M0.800049 12.2002V23.3002L13.9 17.6002L0.800049 12.2002Z" fill="#06A291"/>
<path d="M22.7001 0.799805L0.800049 12.1998L13.9 17.5998L22.7001 12.9998V0.799805Z" fill="#01727A"/>
<path d="M36.0001 7.3998L22.7001 0.799805V12.9998L36.0001 7.3998Z" fill="#50BAAE"/>
<path d="M32.0001 17.5994L36.0001 7.39941L22.7001 12.9994L32.0001 17.5994Z" fill="#6BC4CE"/>
<path d="M44 11.3994L36 7.39941L32 17.5994L44 11.3994Z" fill="#09A9B6"/>
<path d="M22.7001 22.2994V34.4994L44.0001 23.4994V11.3994L22.7001 22.2994Z" fill="#009983"/>
<path d="M18.8 20.7002L22.7001 22.3002V34.5002L18.8 32.8002V20.7002Z" fill="#06A291"/>
</svg>
