<svg width="1073" height="528" viewBox="0 0 1073 528" fill="none" xmlns="http://www.w3.org/2000/svg">
<path d="M41.0709 149.317H142.302C146.19 141.752 150.278 135.823 159.277 125.189C164.596 118.852 169.502 112.923 172.367 106.996C175.842 100.042 175.842 93.7043 172.775 87.5718C169.912 82.0505 164.596 78.9843 157.846 78.9843C154.573 78.7793 150.893 79.598 147.416 81.2318C145.166 69.3743 137.803 64.263 132.487 62.218C125.532 59.3555 117.762 59.7643 111.627 63.2405C111.015 63.4443 110.603 63.8543 109.991 64.058C108.56 61.808 107.127 59.7643 105.288 57.9255C102.833 55.4705 100.175 53.6318 97.3121 52.403C101.197 49.5418 103.855 44.8393 103.855 39.523C103.855 31.5493 98.1296 25.0068 90.5621 23.7793V15.6005H98.1296C99.5609 15.6005 100.787 14.3755 100.787 12.943C100.787 11.513 99.5609 10.2855 98.1296 10.2855H90.5621V2.9255C90.5621 1.28925 89.5384 0.0630074 87.9021 0.0630074C86.4721 0.0630074 85.2459 1.28925 85.2459 2.9255V10.2855H77.8834C76.4521 10.2855 75.2234 11.513 75.2234 12.943C75.2234 14.3755 76.4521 15.6005 77.8834 15.6005H85.2459V23.7793C77.6784 25.0068 71.9509 31.5493 71.9509 39.523C71.9509 44.8393 74.6109 49.5418 78.7009 52.403C75.6334 53.6318 72.9734 55.4705 70.7246 57.9255C68.8834 59.7643 67.2471 61.808 65.8159 64.058C59.2721 59.7643 50.8884 59.1505 43.3196 62.218C38.2084 64.263 30.8459 69.3743 28.3909 81.2318C24.9146 79.598 21.4384 78.7793 17.9621 78.9843C11.4171 78.9843 5.89463 82.0505 3.03338 87.5718C-0.036621 93.7043 0.168379 100.042 3.44088 106.996C6.30338 112.923 11.2121 118.852 16.5309 125.189C19.8021 129.076 23.4834 132.961 26.1421 137.049C26.9609 138.276 27.7784 138.686 28.7996 138.686C30.8459 138.686 32.2771 136.436 30.8459 134.392C27.5734 129.893 24.0959 125.599 20.6209 121.714C9.57588 108.221 3.03338 99.6343 7.93963 90.023C9.78088 86.343 13.4634 84.298 17.9621 84.298C21.4384 84.298 24.7096 85.323 27.7784 86.753C27.5734 90.4343 27.7784 94.7268 28.5971 99.4293C30.8459 112.514 41.2759 131.531 48.8421 129.486C56.2046 127.439 51.5009 108.426 46.5921 98.8168C43.5246 92.683 38.8221 87.5718 33.5034 83.8905C33.9134 79.393 36.5721 70.8043 45.3671 67.1255C50.8884 64.8755 57.6359 64.8755 63.3621 68.9643C60.7034 75.0993 59.4771 82.2555 59.4771 89.6155C59.4771 99.4293 62.3396 111.901 66.4296 120.694C67.4521 122.737 70.3159 129.076 74.8159 128.462C79.5184 127.849 80.7446 120.694 81.1546 118.239C82.1784 112.719 82.9959 104.541 80.9496 92.478C79.7234 84.913 77.4734 78.3693 74.4046 73.4618C73.1796 71.2143 71.7484 69.3743 70.1121 67.533C71.3384 65.2855 72.7696 63.2405 74.4046 61.6055C78.2909 57.9255 82.7909 55.8805 87.9021 55.8805C93.0159 55.8805 97.7196 57.9255 101.402 61.6055C103.036 63.2405 104.47 65.2855 105.901 67.533C99.9696 73.6668 96.4934 83.073 94.8571 92.478C92.4034 107.198 93.4259 127.439 100.992 128.462H101.605C109.991 128.462 116.331 103.314 116.331 89.6155C116.536 82.2555 115.103 75.0993 112.446 68.9643C117.762 65.0805 124.511 64.6705 130.441 67.1255C137.396 69.9868 141.281 76.1193 142.302 83.8905C139.848 85.9355 134.532 89.2055 129.42 98.8168C125.125 107.198 122.466 118.239 123.488 124.782C124.101 128.052 125.737 129.281 127.168 129.486C134.123 130.507 144.553 114.356 147.211 99.4293C148.028 94.7268 148.233 90.4343 148.233 86.753C151.097 85.323 154.368 84.298 157.846 84.298C162.55 84.298 166.027 86.343 167.866 90.023C172.98 99.6343 166.23 108.221 155.186 121.714C149.665 128.257 143.531 135.618 139.03 143.999H41.0709C35.7546 143.999 31.6646 148.294 31.6646 153.406C31.6646 158.517 35.7546 162.607 41.0709 162.607H134.942C136.986 162.607 138.827 164.447 138.827 166.696C138.827 168.739 136.986 170.582 134.942 170.582H41.2759C38.8221 170.582 38.0034 170.172 37.5934 169.967C36.3671 169.149 34.5259 169.353 33.7084 170.582C32.8909 171.807 33.2996 173.443 34.5259 174.259C36.1621 175.488 38.0034 175.896 41.2759 175.896H134.942C140.053 175.896 144.143 171.807 144.143 166.696C144.143 161.378 140.053 157.291 134.942 157.291H41.0709C38.8221 157.291 36.9809 155.654 36.9809 153.406C36.9809 150.953 38.8221 149.317 41.0709 149.317ZM41.6846 101.473C45.5696 108.426 47.8209 118.444 47.0021 123.964C45.9796 123.146 44.3434 121.512 43.1146 119.874C38.8221 114.356 35.1396 105.972 33.9134 98.6118C33.5034 95.7493 33.0959 93.0918 33.0959 90.4343C36.7759 93.7043 39.6396 97.5893 41.6846 101.473V101.473ZM75.6334 93.2968C77.4734 104.746 76.6546 112.106 75.8384 117.421C75.2234 120.897 74.4046 122.327 74.2021 122.942C73.5871 122.532 72.5659 121.307 71.3384 118.444C67.6584 110.471 64.9984 98.6118 64.7934 89.6155C64.7934 83.6855 65.8159 77.9618 67.6584 73.0543C71.3384 77.7568 74.2021 84.503 75.6334 93.2968V93.2968ZM87.9021 28.8918C93.6296 28.8918 98.5384 33.593 98.5384 39.523C98.5384 45.2468 93.8346 49.9518 87.9021 49.9518C82.1784 49.9518 77.4734 45.2468 77.4734 39.523C77.4734 33.593 82.1784 28.8918 87.9021 28.8918ZM111.015 89.6155C110.81 98.4068 106.718 118.444 101.81 122.942C98.7434 118.649 98.5384 103.109 100.378 93.2968C101.81 84.503 104.47 77.7568 108.355 73.0543C109.991 77.9618 111.015 83.6855 111.015 89.6155ZM141.895 98.4068C140.666 106.381 135.35 119.262 128.806 123.964C127.987 118.649 130.441 108.628 134.123 101.473C136.168 97.5893 139.235 93.7043 142.917 90.6368C142.712 93.0918 142.302 95.7493 141.895 98.4068Z" fill="black"/>
<path d="M33.0425 320.824H142.643V315.55H33.0425V320.824V320.824Z" fill="black"/>
<path d="M72.1805 468.659H60.963V470.965C57.9768 468.989 54.3455 467.835 49.988 467.835C39.3355 467.835 30.7018 476.81 30.7018 488.421C30.7018 499.868 39.3355 508.925 49.988 508.925C54.3455 508.925 57.9768 507.773 60.963 505.796V508.101H72.1805V468.659ZM51.8443 499.208C45.9543 499.208 41.838 494.186 41.838 488.421C41.838 482.575 45.9543 477.47 51.8443 477.47C55.153 477.47 58.4605 478.621 60.963 482.079V494.679C58.4605 498.056 55.153 499.208 51.8443 499.208V499.208ZM104.7 467.423C100.343 467.423 96.793 468.905 93.6455 471.458V468.659H82.428V508.101H93.6455V482.739C96.228 479.529 99.2943 477.799 102.119 477.799C107.363 477.799 110.432 481.175 110.432 487.433V508.101H121.649V486.445C121.649 474.916 114.869 467.423 104.7 467.423V467.423ZM170.552 449.638H159.335V470.965C156.349 468.989 152.717 467.835 148.359 467.835C137.707 467.835 129.073 476.893 129.073 488.34C129.073 499.95 137.707 508.925 148.359 508.925C152.717 508.925 156.349 507.773 159.335 505.796V508.101H170.552V449.638V449.638ZM150.216 499.29C144.326 499.29 140.208 494.186 140.208 488.34C140.208 482.575 144.326 477.55 150.216 477.55C153.524 477.55 156.834 478.705 159.335 482.079V494.679C156.834 498.138 153.524 499.29 150.216 499.29V499.29ZM250.522 452.108H238.82V475.329H214.289V452.108H202.588V508.101H214.289V486.199H238.82V508.101H250.522V452.108ZM267.228 461.33C270.938 461.33 273.924 458.529 273.924 454.741C273.924 450.871 270.938 447.99 267.228 447.99C263.433 447.99 260.448 450.871 260.448 454.741C260.448 458.529 263.433 461.33 267.228 461.33V461.33ZM272.877 468.659H261.659V508.101H272.877V468.659ZM323.313 468.659H312.174V470.223C309.188 468.246 305.558 467.094 301.199 467.094C290.548 467.094 281.913 475.409 281.913 487.27C281.913 497.56 290.548 506.538 301.199 506.538C305.558 506.538 309.188 505.385 312.174 503.409V507.691C312.174 513.865 308.302 517.161 303.299 517.161C297.973 517.161 294.744 514.443 294.261 510.325H282.963C283.769 520.371 292.081 527.37 303.299 527.37C315.001 527.37 323.313 519.96 323.313 507.608V468.659V468.659ZM303.057 496.903C297.167 496.903 293.049 491.799 293.049 487.27C293.049 481.093 297.167 476.81 303.057 476.81C306.447 476.81 309.673 477.963 312.174 481.504V492.126C309.673 495.75 306.447 496.903 303.057 496.903V496.903ZM355.833 467.423C351.475 467.423 347.923 468.905 344.777 471.458V449.638H333.561V508.101H344.777V482.739C347.359 479.529 350.425 477.799 353.249 477.799C358.495 477.799 361.561 481.175 361.561 487.433V508.101H372.779V486.445C372.779 474.916 366 467.423 355.833 467.423ZM419.907 487.598C419.907 475.821 411.677 467.835 400.782 467.835C388.434 467.835 380.204 476.564 380.204 488.421C380.204 500.196 388.515 509.008 400.943 509.008C410.062 509.008 417.325 504.15 419.423 496.574H407.723C406.512 498.55 404.333 499.539 401.187 499.539C395.617 499.539 392.631 496.49 391.502 492.539H419.666C419.907 490.89 419.907 489.245 419.907 487.598V487.598ZM400.459 477.223C405.139 477.223 408.126 479.938 408.771 484.551H391.34C392.39 480.351 395.294 477.223 400.459 477.223V477.223ZM438.792 468.659H427.576V508.101H438.792V484.551C442.02 480.928 446.295 479.116 452.349 478.868V468C446.619 468 442.26 469.81 438.792 473.106V468.659V468.659ZM492.052 462.894H521.023V452.108H480.35V508.101H521.023V497.314H492.052V485.869H517.714V475.081H492.052V462.894V462.894ZM568.473 449.638H557.255V470.965C554.269 468.989 550.638 467.835 546.281 467.835C535.628 467.835 526.994 476.893 526.994 488.34C526.994 499.95 535.628 508.925 546.281 508.925C550.638 508.925 554.269 507.773 557.255 505.796V508.101H568.473V449.638V449.638ZM548.137 499.29C542.244 499.29 538.129 494.186 538.129 488.34C538.129 482.575 542.244 477.55 548.137 477.55C551.445 477.55 554.753 478.705 557.255 482.079V494.679C554.753 498.138 551.445 499.29 548.137 499.29ZM617.375 468.659H606.158V494.02C603.577 497.231 600.509 498.961 597.685 498.961C592.44 498.961 589.373 495.585 589.373 489.326V468.659H578.156V490.398C578.156 501.843 584.935 509.336 595.103 509.336C599.462 509.336 603.012 507.854 606.158 505.3V508.101H617.375V468.659V468.659ZM646.507 498.796C640.617 498.796 636.823 494.268 636.823 488.421C636.823 482.575 640.617 477.963 646.507 477.963C650.784 477.963 653.932 480.434 654.738 484.22H665.956C664.827 474.505 656.675 467.835 646.507 467.835C634.805 467.835 625.768 476.564 625.768 488.421C625.768 500.196 634.805 509.008 646.507 509.008C656.675 509.008 664.827 502.338 665.956 492.62H654.738C653.932 496.409 650.784 498.796 646.507 498.796V498.796ZM713.647 468.659H702.432V470.965C699.445 468.989 695.813 467.835 691.457 467.835C680.804 467.835 672.168 476.81 672.168 488.421C672.168 499.868 680.804 508.925 691.457 508.925C695.813 508.925 699.445 507.773 702.432 505.796V508.101H713.647V468.659V468.659ZM693.312 499.208C687.422 499.208 683.307 494.186 683.307 488.421C683.307 482.575 687.422 477.47 693.312 477.47C696.622 477.47 699.93 478.621 702.432 482.079V494.679C699.93 498.056 696.622 499.208 693.312 499.208V499.208ZM752.059 497.726C749.88 498.303 747.622 498.796 745.522 498.796C741.407 498.796 738.743 496.739 738.743 492.291V478.293H752.704V468.659H738.743V454.576H727.608V468.659H719.458V478.293H727.608V492.374C727.608 502.585 733.742 509.336 743.103 509.336C746.733 509.336 748.833 509.008 753.512 507.526L752.059 497.726V497.726ZM767.149 461.33C770.862 461.33 773.847 458.529 773.847 454.741C773.847 450.871 770.862 447.99 767.149 447.99C763.357 447.99 760.37 450.871 760.37 454.741C760.37 458.529 763.357 461.33 767.149 461.33V461.33ZM772.798 468.659H761.581V508.101H772.798V468.659ZM801.768 467.835C789.827 467.835 781.031 476.48 781.031 488.421C781.031 500.444 789.827 509.336 801.768 509.336C813.632 509.336 822.348 500.444 822.348 488.421C822.348 476.48 813.632 467.835 801.768 467.835V467.835ZM801.768 499.126C795.878 499.126 792.085 494.349 792.085 488.421C792.085 482.575 795.878 478.046 801.768 478.046C807.579 478.046 811.292 482.575 811.292 488.421C811.292 494.349 807.579 499.126 801.768 499.126ZM852.285 467.423C847.93 467.423 844.379 468.905 841.233 471.458V468.659H830.014V508.101H841.233V482.739C843.813 479.529 846.881 477.799 849.706 477.799C854.949 477.799 858.017 481.175 858.017 487.433V508.101H869.234V486.445C869.234 474.916 862.454 467.423 852.285 467.423" fill="black"/>
<path d="M33.0417 369.2V425.195H54.428C71.293 425.195 83.8005 413.255 83.8005 396.95C83.8005 380.976 71.293 369.2 54.428 369.2H33.0417ZM44.7442 414.242V380.07H54.428C64.1917 380.07 71.938 387.562 71.938 396.95C71.938 406.667 64.1917 414.242 54.428 414.242H44.7442V414.242ZM130.688 385.751H119.47V388.057C116.484 386.082 112.853 384.927 108.495 384.927C97.843 384.927 89.2092 393.905 89.2092 405.515C89.2092 416.96 97.843 426.017 108.495 426.017C112.853 426.017 116.484 424.866 119.47 422.89V425.195H130.688V385.751ZM110.352 416.302C104.46 416.302 100.344 411.279 100.344 405.515C100.344 399.669 104.46 394.562 110.352 394.562C113.66 394.562 116.968 395.715 119.47 399.174V411.774C116.968 415.15 113.66 416.302 110.352 416.302V416.302ZM163.208 384.516C158.849 384.516 155.299 385.997 152.152 388.551V385.751H140.936V425.195H152.152V399.832C154.734 396.621 157.801 394.894 160.624 394.894C165.872 394.894 168.938 398.267 168.938 404.526V425.195H180.154V403.539C180.154 392.01 173.377 384.516 163.208 384.516V384.516ZM195.809 378.424C199.523 378.424 202.508 375.624 202.508 371.834C202.508 367.965 199.523 365.084 195.809 365.084C192.018 365.084 189.032 367.965 189.032 371.834C189.032 375.624 192.018 378.424 195.809 378.424ZM201.458 385.751H190.241V425.195H201.458V385.751ZM209.287 411.525C210.093 422.725 218.566 426.43 227.523 426.43C237.368 426.43 244.956 421.985 244.956 413.09C244.956 405.68 239.548 402.634 233.253 401.479L226.233 400.326C222.683 399.669 221.634 398.102 221.634 396.621C221.634 394.809 223.489 393.245 227.362 393.245C231.074 393.245 234.222 394.644 234.464 398.186L244.712 398.102C243.905 386.986 233.98 384.681 227.362 384.681C217.437 384.681 210.659 389.54 210.659 397.692C210.659 405.021 216.146 408.315 222.036 409.385L230.268 410.785C232.849 411.279 234.142 412.512 234.142 414.079C234.142 416.136 231.479 417.455 227.604 417.455C223.167 417.455 220.182 415.807 219.534 411.607L209.287 411.525ZM275.619 384.516C271.263 384.516 267.712 385.997 264.564 388.551V366.73H253.347V425.195H264.564V399.832C267.147 396.621 270.213 394.894 273.038 394.894C278.282 394.894 281.349 398.267 281.349 404.526V425.195H292.568V403.539C292.568 392.01 285.787 384.516 275.619 384.516ZM361.563 414.407L365.839 425.195H378.187L354.622 368.87H343.647L320.003 425.195H332.432L336.708 414.407H361.563ZM357.205 403.62H340.984L349.056 383.117L357.205 403.62ZM422.409 385.751H411.273V387.315C408.287 385.34 404.654 384.187 400.298 384.187C389.645 384.187 381.009 392.503 381.009 404.362C381.009 414.653 389.645 423.63 400.298 423.63C404.654 423.63 408.287 422.477 411.273 420.502V424.785C411.273 430.959 407.398 434.254 402.396 434.254C397.069 434.254 393.841 431.536 393.357 427.419H382.059C382.865 437.465 391.178 444.464 402.396 444.464C414.097 444.464 422.409 437.054 422.409 424.7V385.751V385.751ZM402.154 413.995C396.263 413.995 392.148 408.891 392.148 404.362C392.148 398.186 396.263 393.905 402.154 393.905C405.542 393.905 408.77 395.056 411.273 398.598V409.22C408.77 412.844 405.542 413.995 402.154 413.995ZM470.101 404.691C470.101 392.915 461.87 384.927 450.975 384.927C438.628 384.927 430.398 393.656 430.398 405.515C430.398 417.291 438.709 426.101 451.137 426.101C460.257 426.101 467.519 421.242 469.617 413.666H457.917C456.705 415.642 454.527 416.631 451.379 416.631C445.811 416.631 442.826 413.584 441.696 409.632H469.859C470.101 407.984 470.101 406.339 470.101 404.691V404.691ZM450.653 394.316C455.333 394.316 458.319 397.032 458.964 401.645H441.534C442.584 397.445 445.488 394.316 450.653 394.316ZM500.042 384.516C495.683 384.516 492.132 385.997 488.984 388.551V385.751H477.769V425.195H488.984V399.832C491.568 396.621 494.633 394.894 497.458 394.894C502.704 394.894 505.769 398.267 505.769 404.526V425.195H516.988V403.539C516.988 392.01 510.209 384.516 500.042 384.516V384.516ZM545.151 415.89C539.262 415.89 535.467 411.361 535.467 405.515C535.467 399.669 539.262 395.056 545.151 395.056C549.429 395.056 552.577 397.527 553.383 401.314H564.599C563.471 391.597 555.319 384.927 545.151 384.927C533.452 384.927 524.413 393.656 524.413 405.515C524.413 417.291 533.452 426.101 545.151 426.101C555.319 426.101 563.471 419.432 564.599 409.714H553.383C552.577 413.501 549.429 415.89 545.151 415.89ZM614.229 385.67H602.447L591.149 412.596L578.641 385.67H566.699L585.502 426.184L577.997 444.135H589.778L614.229 385.67V385.67ZM653.288 385.751V380.07C653.288 375.705 656.274 372.824 660.791 372.824C662.244 372.824 664.585 373.152 666.522 373.564L668.055 363.766C664.747 362.861 661.357 362.365 658.533 362.365C648.688 362.365 642.07 369.446 642.07 380.152V385.751H631.741V395.386H642.07V425.195H653.288V395.386H667.973V385.751H653.288V385.751ZM691.457 384.927C679.514 384.927 670.717 393.574 670.717 405.515C670.717 417.537 679.514 426.43 691.457 426.43C703.32 426.43 712.034 417.537 712.034 405.515C712.034 393.574 703.32 384.927 691.457 384.927V384.927ZM691.457 416.22C685.565 416.22 681.773 411.442 681.773 405.515C681.773 399.669 685.565 395.14 691.457 395.14C697.267 395.14 700.981 399.669 700.981 405.515C700.981 411.442 697.267 416.22 691.457 416.22ZM730.919 385.751H719.703V425.195H730.919V401.645C734.148 398.021 738.424 396.21 744.475 395.961V385.094C738.745 385.094 734.391 386.904 730.919 390.199V385.751ZM794.104 367.965C781.515 367.965 773.122 375.13 773.122 385.916C773.122 394.644 777.885 400.162 788.778 402.385L797.736 404.115C803.304 405.184 804.595 407.572 804.595 409.879C804.595 413.666 801.368 415.89 795.559 415.89C788.215 415.89 783.373 412.35 782.484 406.667H770.864C771.832 419.182 781.677 426.349 794.91 426.349C808.065 426.349 816.702 419.266 816.702 408.561C816.702 399.174 810.487 395.056 799.995 392.752L793.218 391.351C788.215 390.362 785.469 388.716 785.469 384.927C785.469 380.565 789.263 378.092 794.993 378.092C801.609 378.092 804.677 381.387 805.402 386.329H816.942C815.652 371.834 803.304 367.965 794.104 367.965ZM844.704 415.89C838.812 415.89 835.019 411.361 835.019 405.515C835.019 399.669 838.812 395.056 844.704 395.056C848.981 395.056 852.128 397.527 852.934 401.314H864.152C863.022 391.597 854.871 384.927 844.704 384.927C833.003 384.927 823.963 393.656 823.963 405.515C823.963 417.291 833.003 426.101 844.704 426.101C854.871 426.101 863.022 419.432 864.152 409.714H852.934C852.128 413.501 848.981 415.89 844.704 415.89ZM878.113 378.424C881.824 378.424 884.81 375.624 884.81 371.834C884.81 367.965 881.824 365.084 878.113 365.084C874.319 365.084 871.334 367.965 871.334 371.834C871.334 375.624 874.319 378.424 878.113 378.424ZM883.761 385.751H872.543V425.195H883.761V385.751V385.751ZM931.695 404.691C931.695 392.915 923.465 384.927 912.57 384.927C900.223 384.927 891.993 393.656 891.993 405.515C891.993 417.291 900.306 426.101 912.732 426.101C921.853 426.101 929.114 421.242 931.212 413.666H919.512C918.301 415.642 916.122 416.631 912.974 416.631C907.405 416.631 904.42 413.584 903.29 409.632H931.454C931.695 407.984 931.695 406.339 931.695 404.691ZM912.248 394.316C916.928 394.316 919.914 397.032 920.561 401.645H903.129C904.179 397.445 907.083 394.316 912.248 394.316V394.316ZM961.637 384.516C957.279 384.516 953.727 385.997 950.579 388.551V385.751H939.364V425.195H950.579V399.832C953.164 396.621 956.229 394.894 959.053 394.894C964.299 394.894 967.365 398.267 967.365 404.526V425.195H978.583V403.539C978.583 392.01 971.804 384.516 961.637 384.516V384.516ZM1006.75 415.89C1000.86 415.89 997.063 411.361 997.063 405.515C997.063 399.669 1000.86 395.056 1006.75 395.056C1011.03 395.056 1014.17 397.527 1014.98 401.314H1026.19C1025.07 391.597 1016.92 384.927 1006.75 384.927C995.047 384.927 986.008 393.656 986.008 405.515C986.008 417.291 995.047 426.101 1006.75 426.101C1016.92 426.101 1025.07 419.432 1026.19 409.714H1014.98C1014.17 413.501 1011.03 415.89 1006.75 415.89ZM1072.11 404.691C1072.11 392.915 1063.88 384.927 1052.99 384.927C1040.64 384.927 1032.41 393.656 1032.41 405.515C1032.41 417.291 1040.72 426.101 1053.15 426.101C1062.27 426.101 1069.53 421.242 1071.63 413.666H1059.93C1058.72 415.642 1056.54 416.631 1053.39 416.631C1047.82 416.631 1044.84 413.584 1043.71 409.632H1071.87C1072.11 407.984 1072.11 406.339 1072.11 404.691ZM1052.66 394.316C1057.34 394.316 1060.33 397.032 1060.98 401.645H1043.54C1044.59 397.445 1047.5 394.316 1052.66 394.316" fill="black"/>
<path d="M45.1596 214.091H74.1309V203.304H33.4584V259.297H74.1309V248.511H45.1596V237.065H70.8221V226.279H45.1596V214.091ZM121.581 200.834H110.366V222.161C107.38 220.184 103.747 219.031 99.3909 219.031C88.7384 219.031 80.1021 228.089 80.1021 239.534C80.1021 251.146 88.7384 260.121 99.3909 260.121C103.747 260.121 107.38 258.969 110.366 256.994V259.297H121.581V200.834V200.834ZM101.245 250.486C95.3546 250.486 91.2384 245.382 91.2384 239.534C91.2384 233.772 95.3546 228.749 101.245 228.749C104.556 228.749 107.863 229.901 110.366 233.277V245.876C107.863 249.335 104.556 250.486 101.245 250.486ZM170.483 219.855H159.268V245.217C156.685 248.43 153.617 250.159 150.793 250.159C145.548 250.159 142.481 246.781 142.481 240.524V219.855H131.266V241.595C131.266 253.04 138.043 260.534 148.211 260.534C152.57 260.534 156.12 259.051 159.268 256.499V259.297H170.483V219.855V219.855ZM199.616 249.994C193.726 249.994 189.932 245.465 189.932 239.619C189.932 233.772 193.726 229.16 199.616 229.16C203.892 229.16 207.041 231.631 207.848 235.419H219.065C217.935 225.701 209.785 219.031 199.616 219.031C187.915 219.031 178.877 227.761 178.877 239.619C178.877 251.395 187.915 260.204 199.616 260.204C209.785 260.204 217.935 253.534 219.065 243.816H207.848C207.041 247.606 203.892 249.994 199.616 249.994V249.994ZM266.757 219.855H255.54V222.161C252.555 220.184 248.923 219.031 244.565 219.031C233.912 219.031 225.278 228.007 225.278 239.619C225.278 251.064 233.912 260.121 244.565 260.121C248.923 260.121 252.555 258.969 255.54 256.994V259.297H266.757V219.855V219.855ZM246.421 250.405C240.53 250.405 236.415 245.382 236.415 239.619C236.415 233.772 240.53 228.666 246.421 228.666C249.73 228.666 253.038 229.819 255.54 233.277V245.876C253.038 249.254 249.73 250.405 246.421 250.405V250.405ZM305.17 248.922C302.991 249.5 300.73 249.994 298.632 249.994C294.515 249.994 291.852 247.934 291.852 243.489V229.49H305.815V219.855H291.852V205.774H280.716V219.855H272.566V229.49H280.716V243.57C280.716 253.782 286.851 260.534 296.21 260.534C299.841 260.534 301.941 260.204 306.621 258.722L305.17 248.922V248.922ZM320.257 212.526C323.97 212.526 326.956 209.727 326.956 205.939C326.956 202.069 323.97 199.186 320.257 199.186C316.465 199.186 313.48 202.069 313.48 205.939C313.48 209.727 316.465 212.526 320.257 212.526V212.526ZM325.906 219.855H314.688V259.297H325.906V219.855V219.855ZM354.878 219.031C342.933 219.031 334.138 227.677 334.138 239.619C334.138 251.641 342.933 260.534 354.878 260.534C366.74 260.534 375.456 251.641 375.456 239.619C375.456 227.677 366.74 219.031 354.878 219.031V219.031ZM354.878 250.324C348.987 250.324 345.195 245.546 345.195 239.619C345.195 233.772 348.987 229.241 354.878 229.241C360.688 229.241 364.4 233.772 364.4 239.619C364.4 245.546 360.688 250.324 354.878 250.324ZM405.396 218.62C401.038 218.62 397.487 220.102 394.34 222.656V219.855H383.122V259.297H394.34V233.935C396.923 230.724 399.988 228.995 402.813 228.995C408.06 228.995 411.125 232.371 411.125 238.63V259.297H422.343V237.642C422.343 226.114 415.565 218.62 405.396 218.62ZM492.952 219.855H481.736V222.161C478.751 220.184 475.117 219.031 470.761 219.031C460.11 219.031 451.473 228.007 451.473 239.619C451.473 251.064 460.11 260.121 470.761 260.121C475.117 260.121 478.751 258.969 481.736 256.994V259.297H492.952V219.855V219.855ZM472.616 250.405C466.726 250.405 462.608 245.382 462.608 239.619C462.608 233.772 466.726 228.666 472.616 228.666C475.926 228.666 479.235 229.819 481.736 233.277V245.876C479.235 249.254 475.926 250.405 472.616 250.405V250.405ZM525.473 218.62C521.116 218.62 517.565 220.102 514.417 222.656V219.855H503.2V259.297H514.417V233.935C517 230.724 520.066 228.995 522.891 228.995C528.137 228.995 531.202 232.371 531.202 238.63V259.297H542.421V237.642C542.421 226.114 535.641 218.62 525.473 218.62ZM591.323 200.834H580.107V222.161C577.121 220.184 573.491 219.031 569.132 219.031C558.48 219.031 549.846 228.089 549.846 239.534C549.846 251.146 558.48 260.121 569.132 260.121C573.491 260.121 577.121 258.969 580.107 256.994V259.297H591.323V200.834ZM570.988 250.486C565.097 250.486 560.982 245.382 560.982 239.534C560.982 233.772 565.097 228.749 570.988 228.749C574.297 228.749 577.606 229.901 580.107 233.277V245.876C577.606 249.335 574.297 250.486 570.988 250.486ZM644.986 202.069C632.398 202.069 624.005 209.231 624.005 220.02C624.005 228.749 628.767 234.266 639.661 236.489L648.617 238.217C654.187 239.287 655.477 241.675 655.477 243.982C655.477 247.77 652.251 249.994 646.44 249.994C639.096 249.994 634.253 246.454 633.366 240.771H621.746C622.713 253.286 632.56 260.452 645.793 260.452C658.946 260.452 667.582 253.37 667.582 242.665C667.582 233.277 661.368 229.16 650.877 226.854L644.1 225.455C639.096 224.466 636.352 222.82 636.352 219.031C636.352 214.667 640.143 212.196 645.875 212.196C652.491 212.196 655.558 215.491 656.283 220.43H667.825C666.533 205.939 654.187 202.069 644.986 202.069V202.069ZM695.586 249.994C689.695 249.994 685.902 245.465 685.902 239.619C685.902 233.772 689.695 229.16 695.586 229.16C699.862 229.16 703.008 231.631 703.816 235.419H715.033C713.902 225.701 705.752 219.031 695.586 219.031C683.883 219.031 674.845 227.761 674.845 239.619C674.845 251.395 683.883 260.204 695.586 260.204C705.752 260.204 713.902 253.534 715.033 243.816H703.816C703.008 247.606 699.862 249.994 695.586 249.994ZM728.993 212.526C732.707 212.526 735.693 209.727 735.693 205.939C735.693 202.069 732.707 199.186 728.993 199.186C725.202 199.186 722.217 202.069 722.217 205.939C722.217 209.727 725.202 212.526 728.993 212.526V212.526ZM734.643 219.855H723.425V259.297H734.643V219.855ZM782.578 238.795C782.578 227.019 774.348 219.031 763.452 219.031C751.106 219.031 742.875 227.761 742.875 239.619C742.875 251.395 751.186 260.204 763.615 260.204C772.735 260.204 779.996 255.346 782.093 247.77H770.393C769.183 249.746 767.005 250.732 763.857 250.732C758.287 250.732 755.302 247.687 754.172 243.735H782.336C782.578 242.087 782.578 240.442 782.578 238.795V238.795ZM763.13 228.42C767.81 228.42 770.796 231.136 771.441 235.747H754.011C755.061 231.547 757.965 228.42 763.13 228.42V228.42ZM812.518 218.62C808.16 218.62 804.61 220.102 801.462 222.656V219.855H790.246V259.297H801.462V233.935C804.045 230.724 807.111 228.995 809.935 228.995C815.182 228.995 818.247 232.371 818.247 238.63V259.297H829.463V237.642C829.463 226.114 822.686 218.62 812.518 218.62V218.62ZM857.628 249.994C851.74 249.994 847.945 245.465 847.945 239.619C847.945 233.772 851.74 229.16 857.628 229.16C861.906 229.16 865.053 231.631 865.861 235.419H877.076C875.947 225.701 867.796 219.031 857.628 219.031C845.928 219.031 836.89 227.761 836.89 239.619C836.89 251.395 845.928 260.204 857.628 260.204C867.796 260.204 875.947 253.534 877.076 243.816H865.861C865.053 247.606 861.906 249.994 857.628 249.994V249.994ZM922.993 238.795C922.993 227.019 914.763 219.031 903.868 219.031C891.521 219.031 883.291 227.761 883.291 239.619C883.291 251.395 891.602 260.204 904.03 260.204C913.148 260.204 920.412 255.346 922.51 247.77H910.81C909.598 249.746 907.42 250.732 904.272 250.732C898.703 250.732 895.717 247.687 894.588 243.735H922.752C922.993 242.087 922.993 240.442 922.993 238.795V238.795ZM903.546 228.42C908.226 228.42 911.212 231.136 911.857 235.747H894.427C895.477 231.547 898.381 228.42 903.546 228.42" fill="black"/>
<path d="M261.585 120.396H253.274L232.776 153.335L212.279 120.396H203.886V176.391H215.669L215.507 145.758L229.306 167.91V167.991H236.166L249.884 146.005V176.391H261.585V120.396ZM278.29 129.62C282.001 129.62 284.986 126.82 284.986 123.031C284.986 119.161 282.001 116.28 278.29 116.28C274.496 116.28 271.51 119.161 271.51 123.031C271.51 126.82 274.496 129.62 278.29 129.62ZM283.939 136.947H272.721V176.391H283.939V136.947ZM316.702 135.712C312.344 135.712 308.792 137.193 305.646 139.747V136.947H294.43V176.391H305.646V151.028C308.229 147.817 311.295 146.09 314.119 146.09C319.365 146.09 322.43 149.463 322.43 155.722V176.391H333.649V154.735C333.649 143.206 326.87 135.712 316.702 135.712ZM349.304 129.62C353.017 129.62 356.002 126.82 356.002 123.031C356.002 119.161 353.017 116.28 349.304 116.28C345.511 116.28 342.525 119.161 342.525 123.031C342.525 126.82 345.511 129.62 349.304 129.62ZM354.952 136.947H343.734V176.391H354.952V136.947ZM362.781 162.722C363.587 173.921 372.06 177.626 381.017 177.626C390.862 177.626 398.45 173.181 398.45 164.286C398.45 156.876 393.042 153.83 386.747 152.675L379.726 151.523C376.175 150.865 375.127 149.298 375.127 147.817C375.127 146.005 376.984 144.441 380.856 144.441C384.569 144.441 387.716 145.84 387.959 149.382L398.206 149.298C397.4 138.183 387.475 135.877 380.856 135.877C370.931 135.877 364.152 140.736 364.152 148.888C364.152 156.217 369.64 159.511 375.53 160.581L383.762 161.981C386.344 162.475 387.636 163.708 387.636 165.275C387.636 167.333 384.972 168.651 381.099 168.651C376.661 168.651 373.674 167.005 373.029 162.803L362.781 162.722V162.722ZM435.005 166.015C432.826 166.592 430.567 167.086 428.467 167.086C424.352 167.086 421.69 165.028 421.69 160.581V146.582H435.65V136.947H421.69V122.866H410.554V136.947H402.404V146.582H410.554V160.663C410.554 170.875 416.686 177.626 426.047 177.626C429.679 177.626 431.776 177.297 436.456 175.815L435.005 166.015ZM455.339 136.947H444.124V176.391H455.339V152.841C458.567 149.217 462.845 147.406 468.897 147.157V136.29C463.167 136.29 458.809 138.1 455.339 141.395V136.947V136.947ZM521.027 136.866H509.245L497.947 163.793L485.439 136.866H473.496L492.299 177.38L484.794 195.331H496.576L521.027 136.866V136.866ZM561.941 136.123C549.997 136.123 541.202 144.77 541.202 156.711C541.202 168.733 549.997 177.626 561.941 177.626C573.804 177.626 582.52 168.733 582.52 156.711C582.52 144.77 573.804 136.123 561.941 136.123V136.123ZM561.941 167.416C556.051 167.416 552.257 162.638 552.257 156.711C552.257 150.865 556.051 146.336 561.941 146.336C567.75 146.336 571.464 150.865 571.464 156.711C571.464 162.638 567.75 167.416 561.941 167.416V167.416ZM606.486 136.947V131.266C606.486 126.901 609.472 124.02 613.991 124.02C615.444 124.02 617.784 124.348 619.722 124.76L621.255 114.962C617.945 114.057 614.557 113.561 611.734 113.561C601.889 113.561 595.27 120.643 595.27 131.348V136.947H584.94V146.582H595.27V176.391H606.486V146.582H621.174V136.947H606.486V136.947ZM696.142 120.396H684.44V143.617H659.907V120.396H648.205V176.391H659.907V154.487H684.44V176.391H696.142V120.396ZM712.845 129.62C716.557 129.62 719.544 126.82 719.544 123.031C719.544 119.161 716.557 116.28 712.845 116.28C709.052 116.28 706.066 119.161 706.066 123.031C706.066 126.82 709.052 129.62 712.845 129.62ZM718.494 136.947H707.276V176.391H718.494V136.947ZM768.93 136.947H757.794V138.512C754.809 136.536 751.177 135.383 746.819 135.383C736.167 135.383 727.532 143.7 727.532 155.558C727.532 165.85 736.167 174.826 746.819 174.826C751.177 174.826 754.809 173.675 757.794 171.698V175.981C757.794 182.155 753.92 185.45 748.917 185.45C743.591 185.45 740.364 182.732 739.88 178.615H728.58C729.39 188.661 737.701 195.66 748.917 195.66C760.619 195.66 768.93 188.25 768.93 175.896V136.947V136.947ZM748.675 165.192C742.784 165.192 738.669 160.087 738.669 155.558C738.669 149.382 742.784 145.101 748.675 145.101C752.064 145.101 755.292 146.253 757.794 149.795V160.416C755.292 164.04 752.064 165.192 748.675 165.192ZM801.45 135.712C797.092 135.712 793.542 137.193 790.395 139.747V117.926H779.179V176.391H790.395V151.028C792.977 147.817 796.045 146.09 798.87 146.09C804.114 146.09 807.181 149.463 807.181 155.722V176.391H818.399V154.735C818.399 143.206 811.619 135.712 801.45 135.712V135.712ZM865.526 155.887C865.526 144.112 857.295 136.123 846.401 136.123C834.054 136.123 825.821 144.853 825.821 156.711C825.821 168.487 834.135 177.297 846.562 177.297C855.681 177.297 862.942 172.438 865.042 164.863H853.341C852.13 166.838 849.951 167.827 846.804 167.827C841.236 167.827 838.251 164.78 837.119 160.828H865.282C865.526 159.18 865.526 157.535 865.526 155.887V155.887ZM846.079 145.512C850.759 145.512 853.745 148.228 854.391 152.841H836.957C838.007 148.641 840.914 145.512 846.079 145.512ZM884.41 136.947H873.194V176.391H884.41V152.841C887.637 149.217 891.915 147.406 897.967 147.157V136.29C892.239 136.29 887.881 138.1 884.41 141.395V136.947V136.947Z" fill="black"/>
</svg>
