<svg width="432" height="90" viewBox="0 0 432 90" fill="none" xmlns="http://www.w3.org/2000/svg">
<path d="M0 0.899999C0 1.4 0.7 2.3 1.6 3.1C4 5.1 5.3 8 22.2 49.5C30.9 70.9 38.5 88.9 39.1 89.5C40.5 90.9 40.2 91.5 54.1 58.5C60.9 42.3 66.8 29.4 67.1 29.8C67.5 30.2 73.3 43.9 80.1 60.2C86.8 76.6 92.9 90 93.4 90C94 90 101.6 72.2 110.4 50.5C125.3 13.3 130.6 2 133 2C133.5 2 134 1.5 134 0.999999C134 0.399999 130 -1.3411e-06 124 -1.3411e-06C118.5 -1.3411e-06 114 0.299999 114 0.699999C114 0.999999 114.8 2.2 115.7 3.3C116.8 4.4 117.4 6.6 117.3 8.8C117.2 12.1 100 57.3 98.1 59.3C97.7 59.7 92.1 47 85.5 31.1C79 15.1 73.3 1.5 72.9 0.799999C72.4 -1.3411e-06 71.7 -0.100001 71.1 0.499999C70.6 1.1 64.3 14.8 57.3 31.1L44.4 60.8L34.7 36.1C23.3 7.1 23 6 25.9 3.1C27.1 1.9 28 0.799999 28 0.499999C28 0.199999 21.7 -1.3411e-06 14 -1.3411e-06C6.3 -1.3411e-06 0 0.399999 0 0.899999Z" fill="black"/>
<path d="M143 16C143 16.5 143.4 17 144 17C144.5 17 145.6 18.3 146.5 20C147.7 22.4 148 27.9 148 51.9V80.8L145.5 83.8C144.1 85.5 143 87.1 143 87.4C143 87.7 148.9 88 156 88C163.2 88 169 87.7 169 87.4C169 87.1 167.9 85.5 166.5 83.8L164 80.8V51.9C164 27.9 164.3 22.4 165.5 20C166.4 18.3 167.5 17 168 17C168.6 17 169 16.5 169 16C169 15.4 164 15 156 15C148 15 143 15.4 143 16Z" fill="black"/>
<path d="M193 15.5C193 15.7 194.1 17 195.5 18.4L198 20.9V51.3V81.7L195.5 84.4C194.1 85.9 193 87.3 193 87.6C193 87.8 208 88 226.3 88H259.6L261.4 80.4C262.4 76.3 263 72.6 262.6 72.3C262.3 72 260.2 73.3 258 75.3C252.4 80.1 247.7 81 229.6 81H214V51.6V22.2L216.5 19.2C217.9 17.5 219 15.9 219 15.6C219 15.3 213.2 15 206 15C198.9 15 193 15.2 193 15.5Z" fill="black"/>
<path d="M273 15.7C273 16.1 274 17.4 275.3 18.8C277.5 21.1 277.5 21.4 277.5 51.5C277.5 81.6 277.5 81.9 275.3 84.2C274 85.6 273 86.9 273 87.3C273 87.7 288.7 88 307.8 88H342.6L343.8 80.3C344.5 76.1 344.8 72.5 344.5 72.2C344.2 71.9 342.5 73.1 340.6 74.9C335.4 79.9 330.1 81 310.3 81H293V66.9V52.9L307.9 53.2C321.8 53.5 323 53.7 325.2 55.7C326.6 57 327.9 58 328.3 58C328.7 58 329 54.2 329 49.5C329 44.8 328.8 41 328.6 41C328.3 41 326.4 42 324.3 43.2C321 45.2 318.8 45.5 306.8 45.8L293 46.2V34.1V22H309.3C327.4 22 331.5 22.8 336.4 27.1C338.3 28.7 340 30 340.4 30C341 30 340.7 26.8 339.4 18.2L338.9 15H306C287.8 15 273 15.3 273 15.7Z" fill="black"/>
<path d="M352 15.5C352 15.7 353.8 17.6 356 19.7C358.2 21.8 365.6 31.6 372.5 41.4L385 59.3V68.7C385 78.5 383.4 84.5 380.5 85.6C376.4 87.2 380.2 88 392.5 88C399.9 88 406 87.7 406 87.2C406 86.8 405.1 85.9 404.1 85.3C401.3 83.5 400 77.9 400 67.5V58.5L411.9 41.5C418.5 32.1 425.7 22.6 427.9 20.2C430.2 17.8 432 15.7 432 15.5C432 15.2 427.5 15 422 15C416.5 15 412 15.2 412 15.5C412 15.8 412.7 17.2 413.6 18.5C414.6 20 414.9 21.7 414.4 23.2C413.3 26.8 396.8 50.2 396 49.3C395.6 48.9 391.4 42.7 386.6 35.7C378.6 23.6 376.6 19 379 17.5C382 15.6 378.8 15 366 15C358.3 15 352 15.2 352 15.5Z" fill="black"/>
</svg>
