<svg xmlns="http://www.w3.org/2000/svg" fill="none" viewBox="0 0 673 1723">
  <defs/>
  <path fill="var(--yellow)" stroke="var(--yellow)" d="M159.5 1022v.5h.5c88.642 0 160.5-71.858 160.5-160.5S248.642 701.5 160 701.5C71.359 701.5-.5 773.358-.5 862v.5h160V1022zM352.5 862v.5h.001c.269 88.412 72.024 160 160.499 160h160.5v-.5c0-84.346-65.062-153.496-147.737-160 82.675-6.504 147.737-75.654 147.737-160v-.5H513c-88.475 0-160.23 71.588-160.499 160h-.001v.5z"/>
  <path fill="var(--warm-black)" stroke="var(--warm-black)" d="M320.5 160v.5H160C71.358 160.5-.5 88.642-.5 0v-.5H160c88.642 0 160.5 71.858 160.5 160.5z"/>
  <path fill="var(--warm-black)" stroke="var(--warm-black)" d="M320 159.5h.5v.5c0 88.642-71.858 160.5-160.5 160.5H-.5v-.5c0-88.642 71.858-160.5 160.5-160.5h160zM673.5 0v-.5h-321V0c0 82.551 62.322 150.545 142.483 159.5H352.5v.5c0 88.642 71.858 160.5 160.5 160.5S673.5 248.642 673.5 160v-.5H531.017C611.178 150.545 673.5 82.551 673.5 0z"/>
  <path fill="var(--dark-green)" stroke="var(--dark-green)" d="M-.5 1564v.5h321v-.5c0-88.48-71.588-160.23-160-160.5v0h-1v0c-88.412.27-160 72.02-160 160.5z"/>
  <path fill="var(--mid-green)" stroke="var(--mid-green)" d="M0 1724.5c84.346 0 153.496-65.06 160-147.74 6.504 82.68 75.654 147.74 160 147.74h.5v-161H-.5v161H0z"/>
  <path fill="var(--light-green)" stroke="var(--light-green)" d="M353 1563.5h-.5v.5c0 88.65 71.858 160.5 160.5 160.5s160.5-71.85 160.5-160.5-71.858-160.5-160.5-160.5h-.5v160H353z"/>
  <path fill="var(--dark-green)" stroke="var(--dark-green)" d="M320 1373.5h.5v-.5c0-84.34-65.062-153.5-147.738-160 82.676-6.5 147.738-75.65 147.738-160v-.5H-.5v.5c0 84.35 65.062 153.5 147.738 160C64.562 1219.5-.5 1288.66-.5 1373v.5H320z"/>
  <path fill="var(--mid-green)" stroke="var(--mid-green)" d="M673.5 1213v-.5h-161v161h.5c88.642 0 160.5-71.85 160.5-160.5z"/>
  <path fill="var(--dark-green)" stroke="var(--dark-green)" d="M352.5 1373v.5h161v-161h-.5c-88.642 0-160.5 71.86-160.5 160.5z"/>
  <path fill="var(--mid-green)" stroke="var(--mid-green)" d="M673.5 1053v-.5h-161v161h.5c88.642 0 160.5-71.85 160.5-160.5z"/>
  <path fill="var(--dark-green)" stroke="var(--dark-green)" d="M352.5 1213v.5h161v-161h-.5c-88.642 0-160.5 71.86-160.5 160.5z"/>
  <path fill="var(--grapefruit)" stroke="var(--grapefruit)" d="M320.5 511c0-88.642-71.858-160.5-160.5-160.5S-.5 422.358-.5 511 71.358 671.5 160 671.5 320.5 599.642 320.5 511zM352.5 351v-.5h.5c88.642 0 160.5 71.858 160.5 160.5S441.642 671.5 353 671.5h-.5V351z"/>
  <path fill="var(--sanguine)" stroke="var(--sanguine)" d="M673 671.5h.5v-321h-.5c-88.642 0-160.5 71.858-160.5 160.5S584.358 671.5 673 671.5z"/>
</svg>
