<svg xmlns="http://www.w3.org/2000/svg" fill="none" viewBox="0 0 673 1723">
  <defs/>
  <path fill="var(--dark-green)" d="M160 1212.62c88.366 0 160 71.64 160 160H0c0-88.36 71.634-160 160-160zM160 1212.62c88.366 0 160-71.63 160-160H0c0 88.37 71.634 160 160 160z"/>
  <path fill="var(--grapefruit)" d="M320 160c0 88.366-71.634 160-160 160H0c0-88.366 71.634-160 160-160h160z"/>
  <path fill="var(--sanguine)" d="M320 160C320 71.634 248.366 0 160 0H0c0 88.366 71.634 160 160 160h160z"/>
  <path fill="var(--dark-green)" d="M0 1563c0-88.37 71.634-160 160-160v160H0zM320 1563c0-88.37-71.634-160-160-160v160h160z"/>
  <path fill="var(--mid-green)" d="M160 1563c0 88.37-71.634 160-160 160v-160h160zM160 1563c0 88.37 71.634 160 160 160v-160H160z"/>
  <path fill="var(--yellow)" d="M320 513c0 88.366-71.634 160-160 160V513H0c0-88.366 71.635-160 160-160 88.366 0 160 71.634 160 160z"/>
  <path fill="var(--warm-black)" d="M320 862.25c0-88.366-71.634-160-160-160S0 773.884 0 862.25s71.634 160 160 160 160-71.634 160-160z"/>
  <path fill="var(--grapefruit)" d="M513 160c88.366 0 160 71.634 160 160H353c0-88.366 71.634-160 160-160z"/>
  <path fill="var(--sanguine)" d="M513 160c88.366 0 160-71.634 160-160H353c0 88.366 71.634 160 160 160z"/>
  <path fill="var(--yellow)" d="M353 513c0-88.366 71.634-160 160-160h160c0 88.366-71.634 160-160 160H353zM353 513c0 88.366 71.634 160 160 160h160c0-88.366-71.634-160-160-160H353z"/>
  <path fill="var(--warm-black)" d="M513 862.25c88.366 0 160-71.634 160-160H353c0 88.366 71.634 160 160 160zM513 1022.25c88.366 0 160-71.634 160-160H353c0 88.366 71.634 160 160 160z"/>
  <path fill="var(--light-green)" d="M513 1723c-88.366 0-160-71.63-160-160h160v-160c88.366 0 160 71.63 160 160s-71.634 160-160 160z"/>
  <path fill="var(--mid-green)" d="M673 1212.62c0 88.37-71.634 160-160 160v-160h160z"/>
  <path fill="var(--dark-green)" d="M353 1372.62c0-88.36 71.634-160 160-160v160H353z"/>
  <path fill="var(--mid-green)" d="M673 1052.62c0 88.37-71.634 160-160 160v-160h160z"/>
  <path fill="var(--dark-green)" d="M353 1212.62c0-88.36 71.634-160 160-160v160H353z"/>
</svg>
