<svg xmlns="http://www.w3.org/2000/svg" fill="none" viewBox="0 0 966 1446">
  <defs/>
  <path stroke="var(--white)" stroke-width="5" d="M163 3C74.634 3 3 74.634 3 163h320C323 74.634 251.366 3 163 3zM803 163c-88.366 0-160 71.634-160 160h320c0-88.366-71.634-160-160-160zM483 1283c-88.366 0-160 71.63-160 160h320c0-88.37-71.634-160-160-160zM483 1123c-88.366 0-160-71.63-160-160h320c0 88.37-71.634 160-160 160zM803 803c88.366 0 160-71.634 160-160H643c0 88.366 71.634 160 160 160zM803 163c-88.366 0-160-71.634-160-160h320c0 88.366-71.634 160-160 160zM483 1283c-88.366 0-160-71.63-160-160h320c0 88.37-71.634 160-160 160zM643 163C643 74.634 571.366 3 483 3H323c0 88.366 71.634 160 160 160h160zM323 963c88.366 0 160-71.634 160-160V643c-88.366 0-160 71.634-160 160v160zM643 963c-88.366 0-160-71.634-160-160V643c88.366 0 160 71.634 160 160v160zM323 963c0-88.366-71.634-160-160-160H3c0 88.366 71.634 160 160 160h160zM323 963c0 88.37-71.634 160-160 160H3c0-88.37 71.634-160 160-160h160zM163 323c0-88.366-71.634-160-160-160v160h160zM163 323c0-88.366 71.634-160 160-160v160H163zM323 643c0-88.366 71.634-160 160-160v160H323zM643 643c0-88.366-71.634-160-160-160v160h160zM3 323c0 88.366 71.634 160 160 160V323H3zM323 323c0 88.366-71.634 160-160 160V323h160zM483 483c88.366 0 160-71.634 160-160H483V163c-88.366 0-160 71.634-160 160s71.634 160 160 160zM323 1283c0-88.37-71.634-160-160-160v160H3c0 88.37 71.635 160 160 160 88.366 0 160-71.63 160-160zM323 643c0 88.366-71.634 160-160 160S3 731.366 3 643s71.634-160 160-160 160 71.634 160 160zM963 483c0 88.366-71.634 160-160 160s-160-71.634-160-160 71.634-160 160-160 160 71.634 160 160zM963 1283c0 88.37-71.634 160-160 160s-160-71.63-160-160 71.634-160 160-160 160 71.63 160 160zM643 803c0 88.366 71.634 160 160 160V803H643zM643 963c0 88.37 71.634 160 160 160V963H643zM963 963c0-88.366-71.634-160-160-160v160h160zM963 1123c0-88.37-71.634-160-160-160v160h160z"/>
</svg>
