<?xml version="1.0" encoding="utf-8"?>
<!-- Generator: Adobe Illustrator 26.3.1, SVG Export Plug-In . SVG Version: 6.00 Build 0)  -->
<svg version="1.1" id="Artwork" xmlns="http://www.w3.org/2000/svg" xmlns:xlink="http://www.w3.org/1999/xlink" x="0px" y="0px"
	 viewBox="0 0 87 87" style="enable-background:new 0 0 87 87;" xml:space="preserve">
<style type="text/css">
	.st0{fill:#EF7D00;}
</style>
<g>
	<circle cx="43.5" cy="43.5" r="43.5"/>
</g>
<g>
	<path class="st0" d="M27.4,47.7c0,1.9-0.5,3.5-1.4,5S23.7,55.2,22,56s-3.9,1.2-6.3,1.2c-2,0-3.7-0.1-5-0.4S7.9,56,6.4,55.3v-7.2
		c1.5,0.8,3.2,1.4,4.8,1.9s3.2,0.7,4.6,0.7c1.2,0,2.1-0.2,2.6-0.6s0.8-1,0.8-1.6c0-0.4-0.1-0.8-0.3-1.1s-0.6-0.6-1.1-0.9
		s-1.8-1-4-1.9c-2-0.9-3.4-1.8-4.4-2.6S7.8,40.1,7.4,39s-0.7-2.4-0.7-3.8c0-2.8,1-4.9,3-6.5s4.8-2.3,8.3-2.3c3.1,0,6.3,0.7,9.5,2.2
		L25,34.8c-2.8-1.3-5.2-1.9-7.3-1.9c-1.1,0-1.8,0.2-2.3,0.6s-0.7,0.8-0.7,1.4c0,0.6,0.3,1.1,0.9,1.6s2.3,1.3,5,2.5
		c2.6,1.2,4.4,2.4,5.4,3.7S27.4,45.6,27.4,47.7z"/>
	<path class="st0" d="M51,56.8H29.2v-5.3l7.3-7.4c2.1-2.2,3.5-3.7,4.1-4.5s1.1-1.5,1.3-2.1s0.4-1.2,0.4-1.8c0-0.8-0.3-1.4-0.8-1.8
		s-1.2-0.7-2.1-0.7c-0.9,0-1.9,0.3-2.9,0.8s-2.1,1.3-3.3,2.4l-4.5-5.2c1.5-1.4,2.8-2.4,3.9-3c1.1-0.6,2.2-1,3.4-1.4s2.6-0.5,4.2-0.5
		c1.9,0,3.7,0.3,5.2,1s2.7,1.7,3.5,2.9s1.3,2.7,1.3,4.3c0,1.2-0.1,2.3-0.4,3.3s-0.7,2-1.4,2.9s-1.4,2-2.5,3c-1,1.1-3.2,3.1-6.5,6.1
		v0.2H51V56.8z"/>
	<path class="st0" d="M82.5,41.7c0,5-1.2,8.9-3.7,11.5s-6.1,3.9-10.9,3.9c-4.7,0-8.3-1.3-10.8-4s-3.8-6.5-3.8-11.5
		c0-5,1.2-8.8,3.7-11.4s6.1-3.9,10.9-3.9c4.8,0,8.4,1.3,10.8,3.9S82.5,36.7,82.5,41.7z M61.8,41.7c0,5.8,2,8.7,6,8.7
		c2.1,0,3.6-0.7,4.6-2.1c1-1.4,1.5-3.6,1.5-6.6c0-3-0.5-5.2-1.5-6.6c-1-1.4-2.5-2.1-4.5-2.1C63.9,33,61.8,35.9,61.8,41.7z"/>
</g>
</svg>
