<?xml version="1.0" encoding="utf-8"?>
<!-- Generator: Adobe Illustrator 26.3.1, SVG Export Plug-In . SVG Version: 6.00 Build 0)  -->
<svg version="1.1" id="Artwork" xmlns="http://www.w3.org/2000/svg" xmlns:xlink="http://www.w3.org/1999/xlink" x="0px" y="0px"
	 viewBox="0 0 87 87" style="enable-background:new 0 0 87 87;" xml:space="preserve">
<style type="text/css">
	.st0{fill:#EF7D00;}
</style>
<g>
	<circle cx="43.5" cy="43.5" r="43.5"/>
</g>
<g>
	<path class="st0" d="M32.3,28.5c0,1.3-0.3,2.5-1,3.5c-0.7,1-1.6,1.8-2.9,2.4s-2.8,0.9-4.5,0.9c-1.4,0-2.6-0.1-3.6-0.3
		c-1-0.2-2-0.5-3-1v-5.1c1.1,0.6,2.2,1,3.4,1.3c1.2,0.3,2.3,0.5,3.3,0.5c0.9,0,1.5-0.1,1.9-0.4c0.4-0.3,0.6-0.7,0.6-1.1
		c0-0.3-0.1-0.5-0.2-0.8c-0.2-0.2-0.4-0.4-0.8-0.7c-0.4-0.2-1.3-0.7-2.8-1.4c-1.4-0.6-2.4-1.2-3.1-1.8c-0.7-0.6-1.2-1.3-1.5-2
		c-0.3-0.8-0.5-1.7-0.5-2.7c0-2,0.7-3.5,2.1-4.6c1.4-1.1,3.4-1.7,5.9-1.7c2.2,0,4.5,0.5,6.8,1.5l-1.8,4.5c-2-0.9-3.7-1.4-5.2-1.4
		c-0.8,0-1.3,0.1-1.6,0.4s-0.5,0.6-0.5,1c0,0.4,0.2,0.8,0.7,1.1s1.6,0.9,3.5,1.8c1.8,0.8,3.1,1.7,3.8,2.7
		C32,25.9,32.3,27.1,32.3,28.5z"/>
	<path class="st0" d="M49.1,35H33.6v-3.8l5.2-5.3c1.5-1.6,2.5-2.6,2.9-3.2c0.5-0.6,0.8-1.1,1-1.5S43,20.4,43,20c0-0.6-0.2-1-0.5-1.3
		s-0.9-0.5-1.5-0.5c-0.7,0-1.4,0.2-2,0.6c-0.7,0.4-1.5,1-2.3,1.7l-3.2-3.7c1.1-1,2-1.7,2.8-2.1c0.8-0.4,1.6-0.7,2.4-1
		c0.9-0.2,1.9-0.3,3-0.3c1.4,0,2.6,0.2,3.7,0.7c1.1,0.5,1.9,1.2,2.5,2.1c0.6,0.9,0.9,1.9,0.9,3c0,0.8-0.1,1.6-0.3,2.3
		s-0.5,1.4-1,2.1c-0.4,0.7-1,1.4-1.7,2.2C45,26.5,43.4,28,41,30.1v0.1h8.1V35z"/>
	<path class="st0" d="M71.5,24.3c0,3.6-0.9,6.3-2.6,8.2c-1.8,1.9-4.3,2.8-7.7,2.8c-3.4,0-5.9-0.9-7.7-2.8c-1.8-1.9-2.7-4.6-2.7-8.2
		c0-3.6,0.9-6.3,2.7-8.1c1.8-1.9,4.4-2.8,7.8-2.8c3.4,0,6,0.9,7.7,2.8C70.7,18,71.5,20.7,71.5,24.3z M56.8,24.3
		c0,4.1,1.4,6.2,4.3,6.2c1.5,0,2.5-0.5,3.3-1.5c0.7-1,1.1-2.6,1.1-4.7c0-2.1-0.4-3.7-1.1-4.7c-0.7-1-1.8-1.5-3.2-1.5
		C58.3,18,56.8,20.1,56.8,24.3z"/>
</g>
<g>
	<path class="st0" d="M13.8,49.4c0,0.7-0.2,1.3-0.5,1.9s-0.9,1-1.6,1.3C11,52.8,10.2,53,9.3,53c-0.8,0-1.4-0.1-1.9-0.2
		s-1.1-0.3-1.6-0.6v-2.8c0.6,0.3,1.2,0.5,1.8,0.7c0.6,0.2,1.2,0.3,1.8,0.3c0.5,0,0.8-0.1,1-0.2c0.2-0.2,0.3-0.4,0.3-0.6
		c0-0.2,0-0.3-0.1-0.4s-0.2-0.2-0.4-0.4c-0.2-0.1-0.7-0.4-1.5-0.7c-0.7-0.3-1.3-0.7-1.7-1c-0.4-0.3-0.6-0.7-0.8-1.1
		s-0.3-0.9-0.3-1.5c0-1.1,0.4-1.9,1.1-2.5c0.8-0.6,1.8-0.9,3.2-0.9c1.2,0,2.4,0.3,3.6,0.8l-0.9,2.4c-1.1-0.5-2-0.7-2.8-0.7
		c-0.4,0-0.7,0.1-0.9,0.2c-0.2,0.1-0.3,0.3-0.3,0.5c0,0.2,0.1,0.4,0.3,0.6c0.2,0.2,0.9,0.5,1.9,1c1,0.4,1.7,0.9,2.1,1.4
		S13.8,48.6,13.8,49.4z"/>
	<path class="st0" d="M21.3,52.8L21,51.7h-0.2c-0.3,0.4-0.6,0.7-1.1,0.9c-0.5,0.2-1,0.3-1.6,0.3c-1,0-1.7-0.3-2.3-0.8
		c-0.5-0.6-0.8-1.4-0.8-2.4V44h3.1v4.8c0,0.6,0.1,1,0.2,1.3s0.4,0.4,0.8,0.4c0.5,0,0.9-0.2,1.1-0.6c0.2-0.4,0.3-1.1,0.3-2.1V44h3.1
		v8.9H21.3z"/>
	<path class="st0" d="M30.8,43.8c1,0,1.7,0.4,2.3,1.2c0.6,0.8,0.8,1.9,0.8,3.4c0,1.4-0.3,2.6-0.9,3.4S31.7,53,30.7,53
		c-0.3,0-0.6,0-0.9-0.1c-0.3-0.1-0.5-0.2-0.7-0.3c-0.2-0.1-0.4-0.3-0.7-0.6h-0.2l-0.5,0.9h-2.4V40.7h3.1v2.8c0,0.3,0,0.9-0.1,1.7
		h0.1c0.3-0.5,0.6-0.8,1-1C29.9,43.9,30.3,43.8,30.8,43.8z M29.7,46.2c-0.4,0-0.7,0.1-0.9,0.4c-0.2,0.3-0.3,0.8-0.3,1.4v0.4
		c0,0.7,0.1,1.2,0.3,1.6c0.2,0.3,0.5,0.5,1,0.5c0.4,0,0.6-0.2,0.8-0.6c0.2-0.4,0.3-0.9,0.3-1.6C30.8,46.9,30.4,46.2,29.7,46.2z"/>
	<path class="st0" d="M42.1,50.1c0,0.9-0.3,1.7-1,2.1c-0.6,0.5-1.6,0.7-2.8,0.7c-0.7,0-1.2,0-1.7-0.1s-1-0.2-1.5-0.4v-2.4
		c0.5,0.2,1,0.4,1.6,0.5c0.6,0.1,1.1,0.2,1.5,0.2c0.7,0,1-0.2,1-0.5c0-0.2-0.1-0.3-0.3-0.4c-0.2-0.1-0.7-0.4-1.6-0.7
		c-0.8-0.3-1.4-0.7-1.7-1.1c-0.3-0.4-0.5-1-0.5-1.6c0-0.8,0.3-1.5,1-1.9c0.6-0.5,1.5-0.7,2.7-0.7c0.6,0,1.1,0.1,1.6,0.2
		c0.5,0.1,1,0.3,1.6,0.6l-0.8,2c-0.4-0.2-0.8-0.3-1.3-0.5s-0.8-0.2-1.1-0.2c-0.5,0-0.8,0.1-0.8,0.4c0,0.2,0.1,0.3,0.3,0.4
		c0.2,0.1,0.7,0.3,1.5,0.7c0.6,0.3,1.1,0.5,1.4,0.8s0.5,0.5,0.7,0.9C42,49.2,42.1,49.6,42.1,50.1z"/>
	<path class="st0" d="M47.3,53c-1.4,0-2.5-0.4-3.3-1.2s-1.1-1.9-1.1-3.4c0-1.5,0.4-2.6,1.2-3.4c0.8-0.8,2-1.2,3.4-1.2
		c1,0,2,0.2,2.9,0.7l-0.9,2.3c-0.4-0.2-0.7-0.3-1-0.4s-0.6-0.1-1-0.1c-0.5,0-0.9,0.2-1.1,0.6c-0.3,0.4-0.4,0.9-0.4,1.6
		c0,1.4,0.5,2.1,1.6,2.1c0.9,0,1.8-0.3,2.6-0.8v2.4C49.4,52.7,48.5,53,47.3,53z"/>
	<path class="st0" d="M57,43.8c0.3,0,0.5,0,0.8,0.1l0.2,0l-0.3,2.9c-0.2-0.1-0.6-0.1-1-0.1c-0.7,0-1.2,0.2-1.5,0.5s-0.5,0.7-0.5,1.3
		v4.4h-3.1V44h2.3l0.5,1.4h0.1c0.3-0.5,0.6-0.8,1.1-1.1S56.5,43.8,57,43.8z"/>
	<path class="st0" d="M58.7,41.8c0-0.5,0.1-0.8,0.4-1c0.3-0.2,0.7-0.3,1.2-0.3s1,0.1,1.2,0.3c0.3,0.2,0.4,0.6,0.4,1
		c0,0.9-0.5,1.3-1.6,1.3C59.3,43.1,58.7,42.7,58.7,41.8z M61.9,52.8h-3.1V44h3.1V52.8z"/>
	<path class="st0" d="M69,43.8c1,0,1.7,0.4,2.3,1.2c0.6,0.8,0.8,1.9,0.8,3.4c0,1.4-0.3,2.6-0.9,3.4S69.9,53,68.9,53
		c-0.3,0-0.6,0-0.9-0.1s-0.5-0.2-0.7-0.3s-0.4-0.3-0.7-0.6h-0.2L66,52.8h-2.4V40.7h3.1v2.8c0,0.3,0,0.9-0.1,1.7h0.1
		c0.3-0.5,0.6-0.8,1-1S68.5,43.8,69,43.8z M67.9,46.2c-0.4,0-0.7,0.1-0.9,0.4s-0.3,0.8-0.3,1.4v0.4c0,0.7,0.1,1.2,0.3,1.6
		s0.5,0.5,1,0.5c0.4,0,0.6-0.2,0.8-0.6s0.3-0.9,0.3-1.6C69,46.9,68.7,46.2,67.9,46.2z"/>
	<path class="st0" d="M77.8,53c-1.5,0-2.6-0.4-3.4-1.2s-1.2-1.9-1.2-3.3c0-1.5,0.4-2.6,1.1-3.4c0.8-0.8,1.8-1.2,3.2-1.2
		c1.3,0,2.4,0.3,3.1,1c0.7,0.7,1.1,1.7,1.1,3v1.4h-5.5c0,0.5,0.2,0.9,0.5,1.2s0.8,0.4,1.4,0.4c0.5,0,1-0.1,1.5-0.2s0.9-0.3,1.5-0.5
		v2.2c-0.5,0.2-1,0.4-1.5,0.5S78.5,53,77.8,53z M77.6,45.9c-0.4,0-0.7,0.1-0.9,0.3s-0.4,0.6-0.4,1.1h2.6c0-0.4-0.1-0.8-0.4-1
		S78,45.9,77.6,45.9z"/>
	<path class="st0" d="M18.9,64.6c0.4,0,0.9-0.1,1.5-0.3v2.2c-0.4,0.2-0.8,0.3-1.2,0.4C18.8,67,18.4,67,17.9,67c-1,0-1.8-0.3-2.2-0.8
		S15,65,15,63.9v-3.6h-1.1V59l1.4-1l0.8-1.9h2V58h2.2v2.3H18v3.4C18,64.3,18.3,64.6,18.9,64.6z"/>
	<path class="st0" d="M29.9,62.4c0,1.4-0.4,2.6-1.2,3.4C28,66.6,26.9,67,25.5,67c-1.3,0-2.4-0.4-3.2-1.2c-0.8-0.8-1.2-1.9-1.2-3.4
		c0-1.4,0.4-2.6,1.2-3.4c0.8-0.8,1.9-1.2,3.3-1.2c0.9,0,1.6,0.2,2.3,0.6c0.7,0.4,1.2,0.9,1.5,1.6C29.8,60.7,29.9,61.5,29.9,62.4z
		 M24.2,62.4c0,0.8,0.1,1.3,0.3,1.7c0.2,0.4,0.5,0.6,1,0.6c0.5,0,0.8-0.2,1-0.6c0.2-0.4,0.3-1,0.3-1.7c0-0.8-0.1-1.3-0.3-1.7
		c-0.2-0.4-0.5-0.6-1-0.6c-0.5,0-0.8,0.2-1,0.6S24.2,61.6,24.2,62.4z"/>
	<path class="st0" d="M43.5,62.4c0,1.4-0.4,2.6-1.2,3.4c-0.8,0.8-1.9,1.2-3.3,1.2c-1.3,0-2.4-0.4-3.2-1.2c-0.8-0.8-1.2-1.9-1.2-3.4
		c0-1.4,0.4-2.6,1.2-3.4c0.8-0.8,1.9-1.2,3.3-1.2c0.9,0,1.6,0.2,2.3,0.6c0.7,0.4,1.2,0.9,1.5,1.6C43.3,60.7,43.5,61.5,43.5,62.4z
		 M37.8,62.4c0,0.8,0.1,1.3,0.3,1.7c0.2,0.4,0.5,0.6,1,0.6c0.5,0,0.8-0.2,1-0.6c0.2-0.4,0.3-1,0.3-1.7c0-0.8-0.1-1.3-0.3-1.7
		c-0.2-0.4-0.5-0.6-1-0.6c-0.5,0-0.8,0.2-1,0.6S37.8,61.6,37.8,62.4z"/>
	<path class="st0" d="M50.1,67c-0.4,0-0.8-0.1-1.2-0.2s-0.7-0.4-1.1-0.8h-0.1c0.1,0.6,0.1,1,0.1,1.2v3.6h-3.1V58h2.5l0.4,1.1h0.1
		c0.6-0.9,1.4-1.3,2.4-1.3c1,0,1.7,0.4,2.3,1.2s0.8,1.9,0.8,3.3c0,1.4-0.3,2.6-0.9,3.4S51.1,67,50.1,67z M49.1,60.2
		c-0.4,0-0.8,0.2-0.9,0.5s-0.3,0.8-0.3,1.4v0.2c0,0.8,0.1,1.3,0.3,1.6c0.2,0.3,0.5,0.5,1,0.5c0.4,0,0.7-0.2,0.9-0.5
		c0.2-0.3,0.3-0.9,0.3-1.7c0-0.8-0.1-1.3-0.3-1.6S49.5,60.2,49.1,60.2z"/>
	<path class="st0" d="M59,67c-1.5,0-2.6-0.4-3.4-1.2s-1.2-1.9-1.2-3.3c0-1.5,0.4-2.6,1.1-3.4s1.8-1.2,3.2-1.2c1.3,0,2.4,0.3,3.1,1
		s1.1,1.7,1.1,3v1.4h-5.5c0,0.5,0.2,0.9,0.5,1.2s0.8,0.4,1.4,0.4c0.5,0,1-0.1,1.5-0.2s0.9-0.3,1.5-0.5v2.2c-0.5,0.2-1,0.4-1.5,0.5
		S59.7,67,59,67z M58.8,59.9c-0.4,0-0.7,0.1-0.9,0.3s-0.4,0.6-0.4,1.1h2.6c0-0.4-0.1-0.8-0.4-1S59.2,59.9,58.8,59.9z"/>
	<path class="st0" d="M69.9,66.8V62c0-0.6-0.1-1-0.3-1.3s-0.4-0.4-0.8-0.4c-0.5,0-0.9,0.2-1.1,0.6S67.3,62,67.3,63v3.9h-3.1V58h2.3
		l0.4,1.1h0.2c0.3-0.4,0.6-0.7,1.1-0.9s1-0.3,1.6-0.3c1,0,1.7,0.3,2.3,0.9s0.8,1.4,0.8,2.4v5.8H69.9z"/>
</g>
</svg>
