<?xml version="1.0" encoding="utf-8"?>
<!-- Generator: Adobe Illustrator 26.3.1, SVG Export Plug-In . SVG Version: 6.00 Build 0)  -->
<svg version="1.1" xmlns="http://www.w3.org/2000/svg" xmlns:xlink="http://www.w3.org/1999/xlink" x="0px" y="0px"
	 viewBox="0 0 141.7 141.7" style="enable-background:new 0 0 141.7 141.7;" xml:space="preserve">
<style type="text/css">
	.st0{fill:#DDDDDD;}
	.st1{fill:#EF7D00;}
	.st2{fill:#616160;}
</style>
<g id="Layer_2">
	<g>
		<path class="st0" d="M70.9,22c26.9,0,48.9,21.9,48.9,48.9s-21.9,48.9-48.9,48.9S22,97.8,22,70.9S43.9,22,70.9,22 M70.9,0
			C31.7,0,0,31.7,0,70.9s31.7,70.9,70.9,70.9s70.9-31.7,70.9-70.9S110,0,70.9,0L70.9,0z"/>
	</g>
	<g>
		<circle cx="70.9" cy="70.9" r="43.5"/>
	</g>
</g>
<g id="Layer_1">
	<g>
		<path class="st1" d="M136.5,70.1c-0.1-0.3-0.3-0.6-0.4-0.9v-5c0-1.4-0.6-2.7-1.6-3.8c-1-1-2.3-1.6-3.8-1.6c0,0,0,0,0,0
			c-1.4,0-2.7,0.6-3.8,1.6c-1,1-1.6,2.3-1.6,3.8V65h2.1v-0.7c0-0.8,0.3-1.6,0.9-2.2c0.6-0.6,1.4-0.9,2.2-0.9c0,0,0,0,0,0
			c1.8,0,3.2,1.4,3.2,3.2v2.9c-0.2-0.1-0.5-0.3-0.8-0.4c-0.8-0.3-1.6-0.5-2.4-0.5c-0.8,0-1.7,0.2-2.4,0.5c-0.7,0.3-1.4,0.8-2,1.3
			s-1,1.2-1.3,2c-0.3,0.8-0.5,1.6-0.5,2.4c0,0.8,0.2,1.7,0.5,2.4c0.3,0.7,0.8,1.4,1.3,2c0.6,0.6,1.2,1,2,1.3
			c0.8,0.3,1.6,0.5,2.4,0.5c0.8,0,1.7-0.2,2.4-0.5c0.7-0.3,1.4-0.8,2-1.3c0.6-0.6,1-1.2,1.3-2c0.3-0.8,0.5-1.6,0.5-2.4
			C137,71.7,136.8,70.9,136.5,70.1z M130.7,76.7c-2.3,0-4.1-1.9-4.1-4.1s1.9-4.1,4.1-4.1s4.1,1.9,4.1,4.1S133,76.7,130.7,76.7z
			 M130.8,70.8c1,0,1.8,0.8,1.8,1.8s-0.8,1.8-1.8,1.8c-1,0-1.8-0.8-1.8-1.8S129.8,70.8,130.8,70.8z"/>
	</g>
	<g>
		<path class="st1" d="M54.2,75c0,1.9-0.5,3.5-1.4,5s-2.3,2.6-4.1,3.4s-3.9,1.2-6.3,1.2c-2,0-3.7-0.1-5-0.4s-2.8-0.8-4.2-1.5v-7.2
			c1.5,0.8,3.2,1.4,4.8,1.9s3.2,0.7,4.6,0.7c1.2,0,2.1-0.2,2.6-0.6s0.8-1,0.8-1.6c0-0.4-0.1-0.8-0.3-1.1s-0.6-0.6-1.1-0.9
			s-1.8-1-4-1.9c-2-0.9-3.4-1.8-4.4-2.6s-1.7-1.8-2.2-2.9s-0.7-2.4-0.7-3.8c0-2.8,1-4.9,3-6.5s4.8-2.3,8.3-2.3
			c3.1,0,6.3,0.7,9.5,2.2l-2.5,6.3c-2.8-1.3-5.2-1.9-7.3-1.9c-1.1,0-1.8,0.2-2.3,0.6s-0.7,0.8-0.7,1.4c0,0.6,0.3,1.1,0.9,1.6
			s2.3,1.3,5,2.5c2.6,1.2,4.4,2.4,5.4,3.7S54.2,73,54.2,75z"/>
		<path class="st1" d="M77.8,84.1H56v-5.3l7.3-7.4c2.1-2.2,3.5-3.7,4.1-4.5s1.1-1.5,1.3-2.1s0.4-1.2,0.4-1.8c0-0.8-0.3-1.4-0.8-1.8
			s-1.2-0.7-2.1-0.7c-0.9,0-1.9,0.3-2.9,0.8s-2.1,1.3-3.3,2.4l-4.5-5.2c1.5-1.4,2.8-2.4,3.9-3s2.2-1,3.4-1.4s2.6-0.5,4.2-0.5
			c1.9,0,3.7,0.3,5.2,1s2.7,1.7,3.5,2.9s1.3,2.7,1.3,4.3c0,1.2-0.1,2.3-0.4,3.3s-0.7,2-1.4,2.9s-1.4,2-2.5,3c-1,1.1-3.2,3.1-6.5,6.1
			v0.2h11.3V84.1z"/>
		<path class="st1" d="M109.2,69.1c0,5-1.2,8.9-3.7,11.5s-6.1,3.9-10.9,3.9c-4.7,0-8.3-1.3-10.8-4s-3.8-6.5-3.8-11.5
			c0-5,1.2-8.8,3.7-11.4s6.1-3.9,10.9-3.9c4.8,0,8.4,1.3,10.8,3.9S109.2,64,109.2,69.1z M88.6,69.1c0,5.8,2,8.7,6,8.7
			c2.1,0,3.6-0.7,4.6-2.1c1-1.4,1.5-3.6,1.5-6.6c0-3-0.5-5.2-1.5-6.6c-1-1.4-2.5-2.1-4.5-2.1C90.6,60.3,88.6,63.2,88.6,69.1z"/>
	</g>
	<g>
		<path class="st2" d="M10.7,93.3L9,88.2l8.8-2.8l1.6,5.1L18,90.9l-1-3.2L15,88.4l1,3l-1.5,0.5l-1-3l-2.3,0.7l1,3.2L10.7,93.3z"/>
		<path class="st2" d="M19.4,101c-1,0.5-1.9,0.7-2.7,0.7c-0.8,0-1.6-0.3-2.2-0.8l-1.3,3.1l-1.1-2.3l1.1-2.4l-0.1-0.1
			c-0.6-1.3-0.7-2.4-0.3-3.5c0.4-1,1.3-1.9,2.7-2.6c1.4-0.7,2.6-0.9,3.7-0.5c1.1,0.3,1.9,1.1,2.5,2.4c0.6,1.3,0.7,2.4,0.3,3.5
			S20.7,100.3,19.4,101z M16.4,94.9c-0.9,0.5-1.5,1-1.8,1.6c-0.3,0.6-0.3,1.2,0.1,1.9c0.7,1.4,2,1.7,3.8,0.7
			c1.9-0.9,2.5-2.1,1.8-3.5c-0.3-0.7-0.8-1.1-1.5-1.2C18.1,94.3,17.3,94.5,16.4,94.9z"/>
		<path class="st2" d="M28.4,105.9l-4.9,3.5c-0.6,0.4-1.1,0.6-1.7,0.7c-0.6,0.1-1.2-0.1-1.7-0.4c-0.6-0.3-1.1-0.8-1.5-1.4
			c-0.7-1-1-1.9-0.9-2.8c0.1-0.9,0.6-1.6,1.5-2.3l4.9-3.5l1.1,1.6l-4.6,3.3c-0.6,0.4-0.9,0.8-1,1.3c-0.1,0.4,0,0.9,0.4,1.5
			c0.4,0.5,0.8,0.8,1.2,0.8c0.4,0,1-0.2,1.5-0.6l4.6-3.3L28.4,105.9z"/>
		<path class="st2" d="M22.6,113.2l6.9-6.2l1.3,1.5l-6.9,6.2L22.6,113.2z"/>
		<path class="st2" d="M28.4,119l-1.5-1.3l5.1-5.7l-1.9-1.7l1.1-1.2l5.2,4.7l-1.1,1.2l-1.9-1.7L28.4,119z"/>
		<path class="st2" d="M35.8,124.7l0.7-2.2l-2.8-2L32,122l-1.7-1.2l8-5.7l2,1.4l-2.7,9.5L35.8,124.7z M37.1,120.9
			c0.6-2,1-3.1,1.1-3.4c0.1-0.3,0.2-0.5,0.2-0.6c-0.4,0.4-1.5,1.2-3.3,2.6L37.1,120.9z"/>
		<path class="st2" d="M43.4,118.5l2.6,1.3c1.2,0.6,1.9,1.2,2.3,1.8c0.4,0.6,0.4,1.3,0,2c-0.2,0.5-0.6,0.8-1,1
			c-0.4,0.2-0.8,0.2-1.2,0.1l0,0.1c0.5,0.4,0.7,0.8,0.8,1.2c0.1,0.4,0,0.9-0.3,1.5c-0.4,0.8-1,1.2-1.7,1.4s-1.6,0-2.5-0.5l-3.1-1.6
			L43.4,118.5z M42.8,124.1l-1.1,2.2l1.1,0.6c0.5,0.2,0.9,0.3,1.2,0.3c0.3-0.1,0.6-0.3,0.8-0.7c0.3-0.7,0-1.3-1-1.8L42.8,124.1z
			 M43.5,122.7l1,0.5c0.5,0.2,0.9,0.3,1.1,0.3c0.3,0,0.5-0.2,0.7-0.6c0.2-0.3,0.2-0.6,0-0.9s-0.5-0.5-1-0.8l-0.9-0.5L43.5,122.7z"/>
		<path class="st2" d="M47.5,130.7l3-8.8l1.9,0.6l-2.5,7.2l3.6,1.2l-0.5,1.5L47.5,130.7z"/>
		<path class="st2" d="M60,134.2l-5.2-1.1l2-9.1l5.2,1.1l-0.3,1.6l-3.3-0.7l-0.4,2l3.1,0.7l-0.3,1.6l-3.1-0.7l-0.5,2.3l3.3,0.7
			L60,134.2z"/>
		<path class="st2" d="M74.3,130.4c0,1.5-0.4,2.7-1.2,3.5c-0.8,0.8-1.9,1.2-3.3,1.2c-1.4,0-2.5-0.5-3.3-1.3c-0.7-0.8-1.1-2-1.1-3.6
			c0-1.5,0.4-2.7,1.2-3.5c0.8-0.8,1.9-1.2,3.3-1.2c1.4,0,2.5,0.5,3.3,1.3C74,127.7,74.3,128.9,74.3,130.4z M67.6,130.3
			c0,1,0.2,1.8,0.6,2.4c0.4,0.5,1,0.8,1.8,0.8c1.6,0,2.4-1,2.4-3.1c0-2.1-0.7-3.1-2.3-3.2c-0.8,0-1.4,0.2-1.8,0.8
			C67.8,128.5,67.6,129.3,67.6,130.3z"/>
		<path class="st2" d="M82.1,127.7c0.1,1-0.1,1.8-0.6,2.4c-0.5,0.6-1.4,1-2.5,1.1l-0.8,0.1l0.4,3.3l-2,0.3l-1.2-9.2l2.9-0.4
			c1.1-0.2,2,0,2.6,0.4C81.6,126,82,126.7,82.1,127.7z M77.9,129.7l0.6-0.1c0.6-0.1,1-0.3,1.3-0.5c0.3-0.3,0.4-0.6,0.3-1.1
			c-0.1-0.5-0.2-0.8-0.5-1c-0.3-0.2-0.7-0.2-1.2-0.2l-0.9,0.1L77.9,129.7z"/>
		<path class="st2" d="M90.1,132.2l-5.2,1.4l-2.4-9l5.2-1.4l0.4,1.6l-3.3,0.9l0.5,2l3-0.8l0.4,1.6l-3,0.8l0.6,2.3l3.3-0.9
			L90.1,132.2z"/>
		<path class="st2" d="M100.1,128.2l-2.3,1l-6.5-4.8l-0.1,0c0.6,1.1,1,1.9,1.2,2.4l1.7,4l-1.6,0.7l-3.7-8.5l2.3-1l6.5,4.8l0,0
			c-0.5-1.1-0.9-1.9-1.1-2.3l-1.7-4l1.6-0.7L100.1,128.2z"/>
		<path class="st2" d="M110.2,121.6l-1.8-1.4l-2.7,2l0.7,2.2l-1.7,1.2l-2.8-9.5l2-1.4l8.1,5.7L110.2,121.6z M107,119.2
			c-1.7-1.3-2.6-2-2.8-2.1c-0.2-0.2-0.4-0.3-0.5-0.4c0.2,0.5,0.7,1.8,1.4,4L107,119.2z"/>
		<path class="st2" d="M110.4,111c-0.5,0.5-0.8,1.1-0.7,1.8c0.1,0.7,0.5,1.4,1.2,2.1c1.4,1.5,2.7,1.7,3.8,0.6c0.5-0.4,0.9-1.1,1.4-2
			l1.1,1.2c-0.3,0.8-0.8,1.5-1.5,2.1c-1,0.9-2,1.3-3.1,1.2c-1.1-0.1-2.2-0.7-3.2-1.8c-0.7-0.7-1.1-1.4-1.4-2.2s-0.3-1.5-0.1-2.3
			c0.2-0.7,0.6-1.4,1.3-2c0.7-0.6,1.5-1.1,2.4-1.4l0.6,1.6c-0.4,0.1-0.7,0.3-1.1,0.4S110.7,110.8,110.4,111z"/>
		<path class="st2" d="M115.4,105.5c-0.5,0.6-0.6,1.2-0.4,1.9c0.2,0.7,0.7,1.3,1.4,1.9c1.6,1.3,2.9,1.3,3.9,0.1
			c0.4-0.5,0.8-1.2,1.1-2.1l1.3,1c-0.2,0.8-0.6,1.6-1.2,2.3c-0.8,1.1-1.8,1.6-2.9,1.6c-1.1,0-2.2-0.4-3.4-1.4
			c-0.8-0.6-1.3-1.3-1.6-2c-0.3-0.7-0.5-1.5-0.3-2.2c0.1-0.8,0.4-1.5,1-2.2c0.6-0.7,1.3-1.3,2.2-1.7l0.8,1.5c-0.3,0.2-0.7,0.3-1,0.5
			C115.9,105,115.6,105.2,115.4,105.5z"/>
		<path class="st2" d="M127,102.1l-2.8,4.5l-7.9-4.9l2.8-4.5l1.4,0.8l-1.8,2.9l1.7,1.1l1.7-2.7l1.4,0.8l-1.7,2.7l2,1.3l1.8-2.9
			L127,102.1z"/>
		<path class="st2" d="M128.1,93.9c0.8,0.4,1.2,0.9,1.4,1.7c0.2,0.7,0.1,1.6-0.4,2.6c-0.4,0.9-1,1.6-1.6,2.2l-1.7-0.8
			c0.5-0.5,0.9-0.9,1.2-1.2c0.3-0.3,0.5-0.7,0.7-1c0.2-0.4,0.2-0.7,0.2-1c-0.1-0.3-0.2-0.5-0.5-0.6c-0.2-0.1-0.3-0.1-0.5-0.1
			c-0.2,0-0.4,0.1-0.6,0.2s-0.6,0.4-1.1,0.8c-0.5,0.4-0.9,0.7-1.2,0.8c-0.3,0.2-0.7,0.2-1.1,0.3c-0.4,0-0.7-0.1-1.1-0.2
			c-0.7-0.3-1.2-0.9-1.4-1.6c-0.2-0.7-0.1-1.5,0.3-2.4c0.2-0.4,0.4-0.8,0.7-1.2s0.6-0.7,1-1l1.1,1.2c-0.4,0.4-0.7,0.7-0.9,0.9
			c-0.2,0.3-0.4,0.5-0.5,0.8c-0.2,0.3-0.2,0.6-0.1,0.9c0.1,0.3,0.2,0.4,0.5,0.6c0.2,0.1,0.3,0.1,0.5,0.1c0.2,0,0.3-0.1,0.5-0.2
			c0.2-0.1,0.6-0.4,1.1-0.9c0.7-0.6,1.4-1,1.9-1.1C127,93.5,127.6,93.6,128.1,93.9z"/>
		<path class="st2" d="M130.5,86.8c0.8,0.3,1.3,0.7,1.6,1.5c0.3,0.7,0.2,1.6-0.1,2.6c-0.3,0.9-0.7,1.7-1.3,2.3l-1.7-0.6
			c0.5-0.5,0.8-1,1-1.3c0.2-0.4,0.4-0.7,0.5-1.1c0.1-0.4,0.2-0.8,0.1-1c-0.1-0.3-0.3-0.5-0.6-0.6c-0.2-0.1-0.3-0.1-0.5,0
			s-0.3,0.2-0.5,0.3s-0.5,0.5-1,1c-0.4,0.5-0.8,0.8-1.1,1c-0.3,0.2-0.7,0.3-1,0.4s-0.8,0-1.2-0.1c-0.8-0.3-1.3-0.7-1.6-1.4
			c-0.3-0.7-0.3-1.5,0-2.4c0.1-0.5,0.3-0.9,0.6-1.3c0.2-0.4,0.5-0.8,0.9-1.2l1.3,1.1c-0.3,0.4-0.6,0.8-0.8,1
			c-0.2,0.3-0.3,0.6-0.4,0.9c-0.1,0.4-0.1,0.7,0,0.9c0.1,0.2,0.3,0.4,0.6,0.5c0.2,0.1,0.3,0.1,0.5,0c0.1,0,0.3-0.1,0.5-0.3
			c0.2-0.1,0.5-0.5,1-1c0.7-0.7,1.2-1.1,1.7-1.3S129.9,86.6,130.5,86.8z"/>
	</g>
	<g>
		<path class="st2" d="M20.2,43.5c0.8,0.4,1.2,0.9,1.4,1.7s0,1.6-0.4,2.6c-0.4,0.9-1,1.6-1.6,2.1l-1.7-0.8c0.5-0.4,0.9-0.8,1.2-1.2
			c0.3-0.3,0.5-0.7,0.7-1c0.2-0.4,0.3-0.7,0.2-1c-0.1-0.3-0.2-0.5-0.5-0.6c-0.2-0.1-0.3-0.1-0.5-0.1c-0.2,0-0.4,0.1-0.6,0.2
			c-0.2,0.1-0.6,0.4-1.1,0.8c-0.5,0.4-0.9,0.7-1.2,0.8c-0.3,0.2-0.7,0.2-1.1,0.2c-0.4,0-0.7-0.1-1.1-0.3c-0.7-0.4-1.2-0.9-1.4-1.6
			s-0.1-1.5,0.4-2.4c0.2-0.4,0.5-0.8,0.7-1.2c0.3-0.3,0.6-0.7,1-1l1.1,1.2c-0.4,0.4-0.7,0.7-0.9,0.9c-0.2,0.3-0.4,0.5-0.5,0.8
			c-0.2,0.3-0.2,0.6-0.1,0.9c0.1,0.3,0.2,0.4,0.5,0.6c0.2,0.1,0.3,0.1,0.5,0.1c0.2,0,0.3-0.1,0.5-0.2c0.2-0.1,0.6-0.4,1.1-0.8
			c0.7-0.6,1.4-1,1.9-1.1C19.1,43.2,19.7,43.3,20.2,43.5z"/>
		<path class="st2" d="M19.9,31.7l5,3.4c0.6,0.4,1,0.8,1.2,1.4c0.3,0.5,0.3,1.1,0.2,1.8c-0.1,0.6-0.4,1.3-0.8,1.9
			c-0.7,1-1.4,1.6-2.3,1.8c-0.9,0.2-1.8,0-2.6-0.6L15.6,38l1.1-1.6l4.7,3.2c0.6,0.4,1.1,0.6,1.5,0.5c0.4-0.1,0.8-0.4,1.2-0.9
			c0.4-0.5,0.5-1,0.4-1.4c-0.1-0.4-0.5-0.8-1.1-1.2l-4.7-3.2L19.9,31.7z"/>
		<path class="st2" d="M22.2,28.9l2-2.1c0.9-1,1.7-1.5,2.4-1.7c0.7-0.2,1.3,0,1.9,0.6c0.4,0.4,0.6,0.8,0.7,1.2
			c0.1,0.4,0,0.8-0.3,1.2l0,0c0.5-0.3,1-0.5,1.4-0.4c0.4,0.1,0.9,0.3,1.3,0.7c0.6,0.6,0.9,1.3,0.8,2s-0.5,1.5-1.2,2.3l-2.4,2.5
			L22.2,28.9z M26.2,30l0.8-0.8c0.4-0.4,0.6-0.7,0.6-1c0-0.3-0.1-0.6-0.3-0.8c-0.3-0.2-0.5-0.3-0.8-0.2s-0.6,0.3-1,0.7l-0.7,0.7
			L26.2,30z M27.4,31.1l1.7,1.7l0.9-0.9c0.4-0.4,0.6-0.8,0.6-1.1c0-0.3-0.1-0.6-0.4-0.9c-0.6-0.5-1.2-0.4-2,0.4L27.4,31.1z"/>
		<path class="st2" d="M37.9,23.7c0.5,0.7,0.7,1.4,0.5,2.1s-0.7,1.5-1.5,2.1c-0.8,0.6-1.6,1-2.4,1.2l-1.1-1.4
			c0.7-0.2,1.2-0.3,1.6-0.5c0.4-0.2,0.8-0.4,1-0.6c0.3-0.3,0.6-0.5,0.6-0.8c0.1-0.3,0-0.5-0.2-0.8c-0.1-0.1-0.3-0.2-0.4-0.3
			c-0.2,0-0.4-0.1-0.6,0c-0.2,0-0.7,0.1-1.3,0.2C33.5,25,33,25,32.6,25s-0.7-0.1-1.1-0.3c-0.3-0.2-0.6-0.4-0.9-0.7
			c-0.5-0.6-0.7-1.3-0.5-2c0.1-0.7,0.6-1.4,1.4-2c0.4-0.3,0.8-0.5,1.2-0.7s0.9-0.3,1.4-0.5l0.4,1.6c-0.5,0.1-0.9,0.3-1.2,0.4
			c-0.3,0.1-0.6,0.3-0.8,0.5c-0.3,0.2-0.5,0.5-0.5,0.7c0,0.3,0,0.5,0.2,0.7c0.1,0.1,0.2,0.2,0.4,0.3c0.1,0.1,0.3,0.1,0.5,0.1
			c0.2,0,0.7-0.1,1.4-0.3c0.9-0.2,1.7-0.2,2.2-0.1C37.1,22.9,37.6,23.2,37.9,23.7z"/>
		<path class="st2" d="M40.5,16c-0.6,0.4-1,0.9-1.1,1.6c-0.1,0.7,0.1,1.5,0.6,2.3c1,1.8,2.2,2.3,3.6,1.5c0.6-0.3,1.2-0.9,1.8-1.6
			l0.8,1.4c-0.5,0.7-1.2,1.2-2,1.7c-1.2,0.7-2.3,0.8-3.3,0.5c-1-0.4-1.9-1.2-2.7-2.5c-0.5-0.8-0.8-1.7-0.8-2.5
			c-0.1-0.8,0.1-1.5,0.5-2.2c0.4-0.7,0.9-1.2,1.7-1.7c0.8-0.4,1.7-0.7,2.7-0.8l0.2,1.7c-0.4,0-0.8,0.1-1.1,0.1
			C41.1,15.7,40.8,15.9,40.5,16z"/>
		<path class="st2" d="M48.7,16.8l1.3,3.3l-1.8,0.7l-3.4-8.7l2.5-1c1.2-0.5,2.1-0.6,2.9-0.4c0.7,0.2,1.3,0.8,1.6,1.6
			c0.2,0.5,0.2,1,0.1,1.5c-0.1,0.5-0.4,1-0.8,1.4c2.1,1.4,3.4,2.4,4,2.8l-2,0.8l-3.4-2.5L48.7,16.8z M48.1,15.3l0.6-0.2
			c0.6-0.2,1-0.5,1.2-0.8c0.2-0.3,0.2-0.7,0.1-1.1c-0.2-0.4-0.4-0.6-0.8-0.7c-0.3-0.1-0.8,0-1.4,0.2l-0.6,0.2L48.1,15.3z"/>
		<path class="st2" d="M56.5,17.9l-2.3-9l1.9-0.5l2.3,9L56.5,17.9z"/>
		<path class="st2" d="M59.5,7.6l2.9-0.4c1.3-0.2,2.3-0.1,2.9,0.2c0.6,0.3,1,0.9,1.1,1.7c0.1,0.6,0,1-0.2,1.4
			c-0.2,0.4-0.5,0.6-0.9,0.8l0,0.1c0.6,0.1,1.1,0.2,1.4,0.6c0.3,0.3,0.5,0.8,0.6,1.4c0.1,0.8-0.1,1.5-0.7,2.1s-1.3,0.9-2.4,1
			l-3.4,0.4L59.5,7.6z M61.9,11l1.1-0.1c0.5-0.1,0.9-0.2,1.1-0.4s0.3-0.5,0.3-0.9c0-0.4-0.2-0.6-0.5-0.7c-0.3-0.1-0.7-0.1-1.3-0.1
			l-1,0.1L61.9,11z M62.1,12.6l0.3,2.4l1.3-0.2c0.5-0.1,0.9-0.2,1.2-0.5s0.3-0.6,0.3-1c-0.1-0.8-0.7-1.1-1.8-0.9L62.1,12.6z"/>
		<path class="st2" d="M74.7,16l-5.3-0.1l0.2-9.3l5.3,0.1l0,1.6l-3.4-0.1l0,2l3.1,0.1l0,1.6L71.4,12l0,2.4l3.4,0.1L74.7,16z"/>
		<path class="st2" d="M83.9,17.5l-1.9-0.4l1.7-7.5l-2.5-0.5l0.4-1.6L88.3,9L88,10.6l-2.5-0.5L83.9,17.5z"/>
		<path class="st2" d="M97.1,17.2c-0.6,1.4-1.4,2.4-2.4,2.9c-1,0.5-2.2,0.5-3.5-0.1c-1.3-0.5-2.2-1.3-2.6-2.4
			c-0.4-1-0.3-2.3,0.3-3.7c0.6-1.4,1.4-2.4,2.4-2.9c1-0.5,2.2-0.4,3.5,0.1s2.2,1.3,2.6,2.4S97.7,15.8,97.1,17.2z M90.9,14.7
			c-0.4,1-0.5,1.8-0.3,2.4c0.2,0.6,0.6,1.1,1.3,1.4c1.5,0.6,2.6-0.1,3.4-2c0.8-1.9,0.4-3.2-1-3.8c-0.7-0.3-1.4-0.3-1.9,0.1
			S91.2,13.8,90.9,14.7z"/>
		<path class="st2" d="M109.7,25.5c-0.9,1.2-1.9,2-3,2.2c-1.1,0.2-2.2-0.1-3.4-0.9c-1.1-0.8-1.8-1.8-1.9-2.9
			c-0.1-1.1,0.3-2.3,1.2-3.5c0.9-1.2,1.9-2,3-2.2c1.1-0.2,2.2,0.1,3.4,1c1.1,0.8,1.8,1.8,1.9,2.9C111,23.1,110.6,24.3,109.7,25.5z
			 M104.2,21.5c-0.6,0.8-0.9,1.6-0.9,2.2c0,0.7,0.3,1.2,1,1.7c1.3,0.9,2.5,0.6,3.8-1.1c1.2-1.7,1.2-3,0-3.9
			c-0.6-0.5-1.3-0.6-1.9-0.4S104.8,20.7,104.2,21.5z"/>
		<path class="st2" d="M117.2,30.7c-0.7,0.7-1.5,1-2.3,0.9c-0.8-0.1-1.6-0.5-2.4-1.4l-0.6-0.6l-2.4,2.3l-1.4-1.4l6.7-6.5l2.1,2.1
			c0.8,0.8,1.2,1.6,1.3,2.3C118.2,29.3,117.9,30,117.2,30.7z M113.1,28.5l0.5,0.5c0.4,0.4,0.8,0.7,1.2,0.7s0.7-0.1,1.1-0.4
			c0.3-0.3,0.5-0.6,0.5-1s-0.2-0.7-0.6-1.1l-0.6-0.6L113.1,28.5z"/>
		<path class="st2" d="M116.8,40.7l-3.2-4.3l7.5-5.5l3.2,4.3l-1.3,1l-2-2.7l-1.6,1.2l1.9,2.5l-1.3,1l-1.9-2.5l-1.9,1.4l2,2.7
			L116.8,40.7z"/>
		<path class="st2" d="M121.7,49.7l-1.1-2.2l4.4-6.8l0-0.1c-1.1,0.6-1.8,1.1-2.3,1.3l-3.9,2l-0.8-1.6l8.3-4.2l1.1,2.2l-4.4,6.7l0,0
			c1-0.6,1.8-1,2.2-1.2l3.9-2l0.8,1.6L121.7,49.7z"/>
	</g>
	<g>
		<path class="st1" d="M16.8,70.1c-0.1-0.3-0.3-0.6-0.4-0.9v-5c0-1.4-0.6-2.7-1.6-3.8c-1-1-2.3-1.6-3.8-1.6c0,0,0,0,0,0
			c-1.4,0-2.7,0.6-3.8,1.6c-1,1-1.6,2.3-1.6,3.8V65h2.1v-0.7c0-0.8,0.3-1.6,0.9-2.2c0.6-0.6,1.4-0.9,2.2-0.9c0,0,0,0,0,0
			c1.8,0,3.2,1.4,3.2,3.2v2.9c-0.2-0.1-0.5-0.3-0.8-0.4c-0.8-0.3-1.6-0.5-2.4-0.5c-0.8,0-1.7,0.2-2.4,0.5c-0.7,0.3-1.4,0.8-2,1.3
			s-1,1.2-1.3,2c-0.3,0.8-0.5,1.6-0.5,2.4c0,0.8,0.2,1.7,0.5,2.4c0.3,0.7,0.8,1.4,1.3,2c0.6,0.6,1.2,1,2,1.3
			c0.8,0.3,1.6,0.5,2.4,0.5c0.8,0,1.7-0.2,2.4-0.5c0.7-0.3,1.4-0.8,2-1.3c0.6-0.6,1-1.2,1.3-2c0.3-0.8,0.5-1.6,0.5-2.4
			C17.3,71.7,17.1,70.9,16.8,70.1z M11,76.7c-2.3,0-4.1-1.9-4.1-4.1s1.9-4.1,4.1-4.1s4.1,1.9,4.1,4.1S13.3,76.7,11,76.7z M11,70.8
			c1,0,1.8,0.8,1.8,1.8S12,74.3,11,74.3s-1.8-0.8-1.8-1.8S10.1,70.8,11,70.8z"/>
	</g>
</g>
</svg>
