<svg width="273" height="40" viewBox="0 0 273 40" fill="none" xmlns="http://www.w3.org/2000/svg">
<path d="M40 20C40 31.0457 31.0457 40 20 40C8.9543 40 0 31.0457 0 20C0 8.9543 8.9543 0 20 0C31.0457 0 40 8.9543 40 20Z" fill="#A3C386"/>
<path d="M77.8042 40C67.4777 40 60 31.632 60 20.0593C60 8.4273 67.8932 0 78.7537 0C86.7656 0 94.1246 4.98517 96.3205 11.8694L87.181 15.3116C86.1128 11.1573 82.6113 8.18991 78.8724 8.18991C73.2938 8.18991 69.2582 13.1157 69.2582 19.8813C69.2582 26.7062 73.4125 31.6914 79.1098 31.6914C83.6202 31.6914 87.1217 28.546 87.5371 24.095H74.8368V17.9229H95.8457L97.7448 39.2878H92.5223L90.5045 31.6914C89.1395 36.6172 84.1543 40 77.8042 40Z" fill="#282624"/>
<path d="M102.515 0.712168H111.299V30.8605H129.103V39.2878H102.515V0.712168Z" fill="#282624"/>
<path d="M148.776 40C137.619 40 129.547 31.5727 129.547 20C129.547 8.4273 137.619 0 148.776 0C159.933 0 168.004 8.4273 168.004 20C168.004 31.5727 159.933 40 148.776 40ZM138.806 19.8813C138.806 26.5282 143.019 31.454 148.776 31.454C154.533 31.454 158.746 26.5282 158.746 19.8813C158.746 13.1157 154.533 8.30861 148.776 8.30861C143.019 8.30861 138.806 13.1157 138.806 19.8813Z" fill="#282624"/>
<path d="M172.758 39.2878V0.712168H192.105C197.743 0.712168 202.194 5.16321 202.194 10.8012C202.194 14.8368 199.821 18.0415 195.785 19.2285C200.711 20.178 203.856 23.7982 203.856 28.6053C203.856 34.5994 199.168 39.2878 193.292 39.2878H172.758ZM181.542 31.2166H190.681C193.114 31.2166 194.835 29.3769 194.835 26.9436C194.835 24.5104 193.055 22.6706 190.562 22.6706H181.542V31.2166ZM181.542 16.4985H189.613C191.809 16.4985 193.411 14.7181 193.411 12.4629C193.411 10.2077 191.749 8.4273 189.494 8.4273H181.542V16.4985Z" fill="#282624"/>
<path d="M205.031 39.2878L218.444 0.712168H229.126L242.538 39.2878H233.043L230.194 30.2671H217.435L214.645 39.2878H205.031ZM219.334 24.095H228.236L223.785 9.85163L219.334 24.095Z" fill="#282624"/>
<path d="M245.841 0.712168H254.624V30.8605H272.429V39.2878H245.841V0.712168Z" fill="#282624"/>
</svg>
