<svg width="205" height="40" viewBox="0 0 205 40" fill="none" xmlns="http://www.w3.org/2000/svg">
<path d="M0 20C0 31.0457 8.9543 40 20 40V20H0Z" fill="#982E0A"/>
<path d="M40 20C40 31.0457 31.0457 40 20 40V20H40Z" fill="#982E0A"/>
<path d="M20 20C20 8.9543 11.0457 0 0 0V20H20Z" fill="#FD5A3B"/>
<path d="M20 20C20 8.9543 28.9543 0 40 0V20H20Z" fill="#FD5A3B"/>
<path d="M81.2285 40C70.0712 40 62 31.5727 62 20C62 8.4273 70.0712 0 81.2285 0C92.3858 0 100.457 8.4273 100.457 20C100.457 31.5727 92.3858 40 81.2285 40ZM71.2582 19.8813C71.2582 26.5282 75.4718 31.454 81.2285 31.454C86.9852 31.454 91.1988 26.5282 91.1988 19.8813C91.1988 13.1157 86.9852 8.30861 81.2285 8.30861C75.4718 8.30861 71.2582 13.1157 71.2582 19.8813Z" fill="#282624"/>
<path d="M105.211 39.2878V0.712168H123.49C130.789 0.712168 136.071 5.93472 136.071 13.1751C136.071 20.3561 130.493 25.5193 122.778 25.5193H113.994V39.2878H105.211ZM113.994 19.1098H121.947C124.795 19.1098 126.813 16.9139 126.813 13.8872C126.813 10.8605 124.795 8.66469 121.947 8.66469H113.994V19.1098Z" fill="#282624"/>
<path d="M139.869 39.2878V0.712168H167.406V8.66469H148.652V16.4985H164.082V22.6706H148.652V31.2166H168.118V39.2878H139.869Z" fill="#282624"/>
<path d="M172.15 39.2878V0.712168H182.121L195.889 26.3502V0.712168H204.672V39.2878H195.177L180.934 13.1751V39.2878H172.15Z" fill="#282624"/>
</svg>
