<svg width="305" height="40" viewBox="0 0 305 40" fill="none" xmlns="http://www.w3.org/2000/svg">
<path d="M20 20C8.9543 20 0 28.9543 0 40H40C40 28.9543 31.0457 20 20 20Z" fill="#3A5959"/>
<path d="M20 20C8.9543 20 0 11.0457 0 0H40C40 11.0457 31.0457 20 20 20Z" fill="#47A178"/>
<path d="M72.2255 39.2878V9.02077H60V0.712168H93.2344V9.02077H81.0089V39.2878H72.2255Z" fill="#282624"/>
<path d="M96.4661 39.2878V0.712168H115.695C122.698 0.712168 127.801 5.75668 127.801 12.7003C127.801 17.6855 124.953 21.6617 120.502 23.5015L128.514 39.2878H118.068L112.787 24.5697H105.249V39.2878H96.4661ZM105.249 18.3976H113.914C116.585 18.3976 118.543 16.3798 118.543 13.5312C118.543 10.6825 116.585 8.66469 113.914 8.66469H105.249V18.3976Z" fill="#282624"/>
<path d="M131.872 23.3828V0.712168H140.655V23.1454C140.655 27.9525 143.682 31.454 147.895 31.454C152.109 31.454 155.136 27.9525 155.136 23.1454V0.712168H163.919V23.3828C163.919 32.997 157.213 40 147.895 40C138.578 40 131.872 32.997 131.872 23.3828Z" fill="#282624"/>
<path d="M177.921 25.6973C178.158 29.4362 180.829 32.1662 185.28 32.1662C188.188 32.1662 190.977 30.9792 190.977 28.368C190.977 21.0089 169.138 23.1454 169.138 10.8012C169.138 4.51039 174.716 0 183.381 0C191.986 0 199.286 4.45104 199.761 10.5638L189.79 12.9377C189.553 9.85163 187.06 7.59644 183.618 7.59644C180.71 7.59644 178.396 9.19881 178.396 11.3947C178.396 18.3976 200.473 16.2611 200.473 28.6053C200.473 35.3116 194.004 40 184.805 40C175.191 40 167.951 34.8368 167.713 27.8338L177.921 25.6973Z" fill="#282624"/>
<path d="M213.755 39.2878V9.02077H201.529V0.712168H234.764V9.02077H222.538V39.2878H213.755Z" fill="#282624"/>
<path d="M237.995 39.2878V0.712168H265.532V8.66469H246.779V16.4985H262.209V22.6706H246.779V31.2166H266.244V39.2878H237.995Z" fill="#282624"/>
<path d="M270.277 39.2878V0.712168H284.995C296.211 0.712168 304.223 8.72404 304.223 20C304.223 31.1573 296.39 39.2878 285.707 39.2878H270.277ZM279.06 31.2166H285.232C290.87 31.2166 294.965 26.4688 294.965 19.9407C294.965 13.3531 290.692 8.66469 284.757 8.66469H279.06V31.2166Z" fill="#282624"/>
</svg>
